<svg width="375" height="775" viewBox="0 0 375 775" fill="none" xmlns="http://www.w3.org/2000/svg">
<path d="M375 0H0V775H375V0Z" fill="#FFFBF7"/>
<path d="M275.849 170.412L90.9858 166.791L93.1116 56.723L124.211 42L278.369 44.9918L275.849 170.412Z" fill="#F0F0F0"/>
<path d="M277.109 168.602H92.167V59.3211L125.313 43.181H277.109V168.602Z" fill="#CAE2FC"/>
<path d="M264.67 159.311L102.796 157.264L105.237 59.2424L117.283 50.6606L266.559 52.8651L264.67 159.311Z" fill="#A9D1FC"/>
<path d="M266.559 157.264H102.796V61.2107L112.637 52.8651H266.559V157.264Z" fill="white"/>
<path opacity="0.1" d="M92.167 59.3211L105.551 67.9817C106.181 68.3753 106.969 68.2179 107.441 67.6667L125.313 43.2597L92.167 59.3211Z" fill="black"/>
<path d="M92.167 59.3211L105.394 65.1473C106.26 65.541 107.362 65.3048 107.992 64.5174L125.313 43.181L92.167 59.3211Z" fill="#A9D1FC"/>
<path d="M165.092 114.238L163.985 118.442C163.663 119.6 163.282 121.14 162.844 123.063H157.794C157.748 126.282 157.725 129.155 157.725 131.679H143.301C143.301 129.27 143.243 126.398 143.128 123.063H124C126.398 118.685 127.966 115.651 128.704 113.96C129.788 111.528 130.872 108.424 131.956 104.648C132.947 101.151 133.328 96.8773 133.097 91.8279H142.298C142.159 87.4733 141.963 82.9681 141.71 78.3124H159.143C158.889 84.1262 158.543 93.5882 158.105 106.698C158.013 108.551 157.909 111.331 157.794 115.037H158.244C160.434 115.037 161.898 114.991 162.636 114.898C163.374 114.805 164.193 114.585 165.092 114.238ZM143.197 114.967C143.128 111.493 143.036 107.243 142.92 102.216C141.076 107.683 139.185 111.933 137.248 114.967H143.197Z" fill="#4C5BD4"/>
<path d="M205.285 103.71C205.285 111.424 203.406 118.141 199.647 123.862C195.819 129.699 191.253 132.617 185.95 132.617C180.208 132.617 175.458 129.711 171.699 123.897C168.125 118.338 166.337 111.655 166.337 103.849C166.337 95.0938 168.378 88.3766 172.46 83.6977C176.011 79.6442 180.577 77.6175 186.157 77.6175C191.553 77.6175 195.992 79.7253 199.474 83.9409C203.348 88.643 205.285 95.2328 205.285 103.71ZM191.138 111.458C191.138 104.973 189.409 101.73 185.95 101.73C182.56 101.73 180.865 105.077 180.865 111.771C180.865 114.342 181.315 116.635 182.214 118.65C183.206 120.874 184.451 121.986 185.95 121.986C187.402 121.986 188.648 120.828 189.685 118.511C190.654 116.334 191.138 113.983 191.138 111.458Z" fill="#4C5BD4"/>
<path d="M247 114.238L245.893 118.442C245.57 119.6 245.19 121.14 244.752 123.063H239.702C239.656 126.282 239.632 129.155 239.632 131.679H225.209C225.209 129.27 225.151 126.398 225.036 123.063H205.908C208.306 118.685 209.874 115.651 210.612 113.96C211.696 111.528 212.78 108.424 213.863 104.648C214.855 101.151 215.235 96.8773 215.005 91.8279H224.206C224.067 87.4733 223.871 82.9681 223.618 78.3124H241.051C240.797 84.1262 240.451 93.5882 240.013 106.698C239.921 108.551 239.817 111.331 239.702 115.037H240.151C242.342 115.037 243.806 114.991 244.544 114.898C245.282 114.805 246.101 114.585 247 114.238ZM225.105 114.967C225.036 111.493 224.943 107.243 224.828 102.216C222.983 107.683 221.093 111.933 219.156 114.967H225.105Z" fill="#4C5BD4"/>
<path opacity="0.1" d="M267.346 56.723C269.086 56.723 270.496 55.313 270.496 53.5737C270.496 51.8344 269.086 50.4244 267.346 50.4244C265.607 50.4244 264.197 51.8344 264.197 53.5737C264.197 55.313 265.607 56.723 267.346 56.723Z" fill="black"/>
<path d="M267.11 56.0143C268.85 56.0143 270.26 54.6044 270.26 52.8651C270.26 51.1257 268.85 49.7158 267.11 49.7158C265.371 49.7158 263.961 51.1257 263.961 52.8651C263.961 54.6044 265.371 56.0143 267.11 56.0143Z" fill="#66A1E3"/>
<path d="M268.842 52.865C268.842 53.8886 268.055 54.6759 267.031 54.6759C266.008 54.6759 265.22 53.8886 265.22 52.865C265.22 51.8415 266.008 51.0542 267.031 51.0542C268.055 51.0542 268.842 51.8415 268.842 52.865Z" fill="#78B3F5"/>
<path d="M267.268 51.2904C267.74 51.2904 268.134 51.4479 268.448 51.7628C268.134 51.3691 267.661 51.0542 267.031 51.0542C266.008 51.0542 265.22 51.8415 265.22 52.865C265.22 53.4162 265.457 53.8886 265.772 54.2035C265.535 53.8886 265.378 53.4949 265.378 53.1012C265.457 52.0777 266.244 51.2904 267.268 51.2904Z" fill="#A8D1FF"/>
<path opacity="0.1" d="M269 164.744C270.739 164.744 272.149 163.334 272.149 161.594C272.149 159.855 270.739 158.445 269 158.445C267.26 158.445 265.85 159.855 265.85 161.594C265.85 163.334 267.26 164.744 269 164.744Z" fill="black"/>
<path d="M268.685 164.035C270.424 164.035 271.834 162.625 271.834 160.886C271.834 159.147 270.424 157.737 268.685 157.737C266.945 157.737 265.535 159.147 265.535 160.886C265.535 162.625 266.945 164.035 268.685 164.035Z" fill="#66A1E3"/>
<path d="M270.496 160.886C270.496 161.909 269.708 162.697 268.685 162.697C267.661 162.697 266.874 161.909 266.874 160.886C266.874 159.862 267.661 159.075 268.685 159.075C269.708 159.075 270.496 159.862 270.496 160.886Z" fill="#78B3F5"/>
<path d="M268.921 159.311C269.393 159.311 269.787 159.469 270.102 159.784C269.787 159.39 269.315 159.075 268.685 159.075C267.661 159.075 266.874 159.862 266.874 160.886C266.874 161.437 267.11 161.909 267.425 162.224C267.189 161.909 267.031 161.516 267.031 161.122C267.11 160.099 267.898 159.311 268.921 159.311Z" fill="#A8D1FF"/>
<path opacity="0.1" d="M102.874 161.201C104.614 161.201 106.024 159.791 106.024 158.052C106.024 156.312 104.614 154.902 102.874 154.902C101.135 154.902 99.7251 156.312 99.7251 158.052C99.7251 159.791 101.135 161.201 102.874 161.201Z" fill="black"/>
<path d="M102.638 160.492C104.378 160.492 105.788 159.082 105.788 157.343C105.788 155.604 104.378 154.194 102.638 154.194C100.899 154.194 99.489 155.604 99.489 157.343C99.489 159.082 100.899 160.492 102.638 160.492Z" fill="#66A1E3"/>
<path d="M104.37 157.343C104.37 158.366 103.583 159.154 102.56 159.154C101.536 159.154 100.749 158.366 100.749 157.343C100.749 156.319 101.536 155.532 102.56 155.532C103.583 155.532 104.37 156.398 104.37 157.343Z" fill="#78B3F5"/>
<path d="M102.796 155.768C103.268 155.768 103.662 155.926 103.977 156.241C103.662 155.847 103.189 155.532 102.56 155.532C101.536 155.532 100.749 156.319 100.749 157.343C100.749 157.894 100.985 158.366 101.3 158.681C101.064 158.366 100.906 157.973 100.906 157.579C100.985 156.556 101.851 155.768 102.796 155.768Z" fill="#A8D1FF"/>
<path d="M346 228.674H28V242.925H346V228.674Z" fill="url(#paint0_radial_182_4310)"/>
<path d="M71.6966 212.062C71.6966 212.062 69.4921 185.687 73.4287 179.624C77.0504 174.034 86.8919 176.79 84.9236 185.765C83.6639 191.591 77.9952 211.353 77.9952 211.353L71.6966 212.062Z" fill="url(#paint1_linear_182_4310)"/>
<path d="M75.5545 180.254C76.9717 178.05 79.3336 177.183 81.5381 177.42C78.8612 176.16 75.3183 176.79 73.4287 179.703C69.4921 185.687 71.6966 212.141 71.6966 212.141L73.8224 211.904C73.4287 207.338 72.0902 185.687 75.5545 180.254Z" fill="#ADE68F"/>
<path d="M75.4755 178.443L74.3733 176.239" stroke="#88BD6D" stroke-width="0.6537" stroke-miterlimit="10" stroke-linecap="round" stroke-linejoin="round"/>
<path d="M79.6487 177.656L79.8849 175.294" stroke="#88BD6D" stroke-width="0.6537" stroke-miterlimit="10" stroke-linecap="round" stroke-linejoin="round"/>
<path d="M82.8765 179.467L83.9787 177.341" stroke="#88BD6D" stroke-width="0.6537" stroke-miterlimit="10" stroke-linecap="round" stroke-linejoin="round"/>
<path d="M84.3726 182.38L86.1047 180.726" stroke="#88BD6D" stroke-width="0.6537" stroke-miterlimit="10" stroke-linecap="round" stroke-linejoin="round"/>
<path d="M82.2463 191.04L84.6083 191.749" stroke="#88BD6D" stroke-width="0.6537" stroke-miterlimit="10" stroke-linecap="round" stroke-linejoin="round"/>
<path d="M81.5381 195.134L83.8213 194.426" stroke="#88BD6D" stroke-width="0.6537" stroke-miterlimit="10" stroke-linecap="round" stroke-linejoin="round"/>
<path d="M80.8296 197.811L82.483 198.048" stroke="#88BD6D" stroke-width="0.6537" stroke-miterlimit="10" stroke-linecap="round" stroke-linejoin="round"/>
<path d="M84.2935 185.372L86.183 184.427" stroke="#88BD6D" stroke-width="0.6537" stroke-miterlimit="10" stroke-linecap="round" stroke-linejoin="round"/>
<path d="M83.1914 188.363H85.3172" stroke="#88BD6D" stroke-width="0.6537" stroke-miterlimit="10" stroke-linecap="round" stroke-linejoin="round"/>
<path d="M74.2947 180.884L72.3264 179.545" stroke="#88BD6D" stroke-width="0.6537" stroke-miterlimit="10" stroke-linecap="round" stroke-linejoin="round"/>
<path d="M64.6892 208.598C64.6892 208.598 54.2178 180.018 56.7372 172.223C59.0992 164.901 70.7516 164.98 71.3815 175.53C71.7751 182.38 71.5389 205.921 71.5389 205.921L64.6892 208.598Z" fill="url(#paint2_linear_182_4310)"/>
<path d="M59.2567 172.223C60.1227 169.389 62.4847 167.657 65.0041 167.263C61.6186 166.633 57.9182 168.444 56.7372 172.223C54.2178 180.097 64.6892 208.598 64.6892 208.598L66.9724 207.732C65.1616 202.85 57.0522 179.23 59.2567 172.223Z" fill="#ADE68F"/>
<path d="M58.1543 182.852H55.8711" stroke="#88BD6D" stroke-width="0.75" stroke-miterlimit="10" stroke-linecap="round" stroke-linejoin="round"/>
<path d="M59.0994 187.655L56.3438 187.891" stroke="#88BD6D" stroke-width="0.75" stroke-miterlimit="10" stroke-linecap="round" stroke-linejoin="round"/>
<path d="M60.3592 192.064L57.761 193.087" stroke="#88BD6D" stroke-width="0.75" stroke-miterlimit="10" stroke-linecap="round" stroke-linejoin="round"/>
<path d="M58.6269 170.176L56.7373 168.129" stroke="#88BD6D" stroke-width="0.75" stroke-miterlimit="10" stroke-linecap="round" stroke-linejoin="round"/>
<path d="M62.9573 168.129L62.4849 165.374" stroke="#88BD6D" stroke-width="0.75" stroke-miterlimit="10" stroke-linecap="round" stroke-linejoin="round"/>
<path d="M67.1299 169.153L67.681 166.476" stroke="#88BD6D" stroke-width="0.75" stroke-miterlimit="10" stroke-linecap="round" stroke-linejoin="round"/>
<path d="M69.6494 171.908L71.0666 169.546" stroke="#88BD6D" stroke-width="0.75" stroke-miterlimit="10" stroke-linecap="round" stroke-linejoin="round"/>
<path d="M69.9644 182.144H72.72" stroke="#88BD6D" stroke-width="0.75" stroke-miterlimit="10" stroke-linecap="round" stroke-linejoin="round"/>
<path d="M70.3579 186.868L72.7199 185.372" stroke="#88BD6D" stroke-width="0.75" stroke-miterlimit="10" stroke-linecap="round" stroke-linejoin="round"/>
<path d="M70.4368 190.096L72.3263 189.859" stroke="#88BD6D" stroke-width="0.75" stroke-miterlimit="10" stroke-linecap="round" stroke-linejoin="round"/>
<path d="M70.4368 175.294L72.2476 173.641" stroke="#88BD6D" stroke-width="0.75" stroke-miterlimit="10" stroke-linecap="round" stroke-linejoin="round"/>
<path d="M70.2004 178.916L72.5624 178.207" stroke="#88BD6D" stroke-width="0.75" stroke-miterlimit="10" stroke-linecap="round" stroke-linejoin="round"/>
<path d="M58.0757 173.326L55.4775 172.46" stroke="#88BD6D" stroke-width="0.75" stroke-miterlimit="10" stroke-linecap="round" stroke-linejoin="round"/>
<path d="M57.6821 176.947L54.9265 177.183" stroke="#88BD6D" stroke-width="0.75" stroke-miterlimit="10" stroke-linecap="round" stroke-linejoin="round"/>
<path d="M60.9101 173.719C61.171 173.719 61.3825 173.508 61.3825 173.247C61.3825 172.986 61.171 172.774 60.9101 172.774C60.6492 172.774 60.4377 172.986 60.4377 173.247C60.4377 173.508 60.6492 173.719 60.9101 173.719Z" fill="#88BD6D"/>
<path d="M65.87 175.609C65.87 176.081 65.4764 176.475 65.004 176.475C64.5316 176.475 64.1379 176.081 64.1379 175.609C64.1379 175.136 64.5316 174.743 65.004 174.743C65.4764 174.743 65.87 175.136 65.87 175.609Z" fill="#88BD6D"/>
<path d="M69.0194 184.663C68.4683 185.372 67.4448 185.529 66.7362 185.057C66.0276 184.506 65.8701 183.482 66.3425 182.773C66.8149 182.065 67.9172 181.907 68.6258 182.38C69.4131 182.852 69.5706 183.876 69.0194 184.663Z" fill="#88BD6D"/>
<path d="M66.0278 191.119C65.6341 191.67 65.0043 191.828 64.6106 191.513C64.2169 191.198 64.2169 190.568 64.5319 190.017C64.9255 189.466 65.5554 189.308 65.949 189.623C66.3427 189.938 66.4214 190.647 66.0278 191.119Z" fill="#88BD6D"/>
<path d="M63.1934 179.624C63.5848 179.624 63.902 179.307 63.902 178.916C63.902 178.524 63.5848 178.207 63.1934 178.207C62.8021 178.207 62.4849 178.524 62.4849 178.916C62.4849 179.307 62.8021 179.624 63.1934 179.624Z" fill="#88BD6D"/>
<path d="M56.3438 203.638L58.7845 231.036H62.4061L62.1699 229.619H68.7835L68.8622 231.036H74.5309L74.8459 229.619H79.9635L79.8847 231.036H83.1915L85.6322 203.638H56.3438Z" fill="#A87C56"/>
<path d="M61.3039 203.638H56.3438L58.7845 231.036H62.4061L62.1699 229.619H64.0595L61.3039 203.638Z" fill="#BA8A60"/>
<path d="M56.5799 206.551L85.2385 208.283L85.6322 203.638H56.3438L56.5799 206.551Z" fill="url(#paint3_linear_182_4310)"/>
<path d="M86.1044 205.999L86.4981 201.039H55.4775L55.8712 205.999H86.1044Z" fill="#D68E4F"/>
<path d="M60.3589 201.039H55.4775L55.8712 205.999H60.9101L60.3589 201.039Z" fill="#E3A874"/>
<path d="M273.566 278.906C261.914 279.772 250.655 274.969 243.097 265.521C241.207 263.159 241.601 259.695 243.963 257.884C246.325 255.995 249.789 256.388 251.6 258.75C259.079 268.119 269.866 269.3 277.424 267.332C285.533 265.127 291.123 259.38 292.304 251.9C294.194 239.933 288.131 230.564 282.856 222.297C279.865 217.652 277.345 213.715 276.4 209.621C275.77 206.708 277.581 203.795 280.494 203.086C283.408 202.457 286.321 204.267 287.029 207.18C287.502 209.385 289.706 212.77 291.989 216.392C297.737 225.289 305.61 237.492 303.012 253.554C301.122 265.285 292.383 274.575 280.101 277.803C277.975 278.355 275.77 278.748 273.566 278.906Z" fill="url(#paint4_linear_182_4310)"/>
<path d="M283.093 186.316C270.496 164.744 237.979 163.956 223.02 169.861C208.061 175.766 187.275 184.112 182.945 183.876C163.026 182.537 136.887 205.37 136.887 205.37C136.887 205.37 127.36 211.275 127.36 219.384C127.36 227.493 132.005 229.619 136.887 229.619C139.879 229.619 186.488 229.619 224.91 229.619C222.154 230.8 219.556 232.296 220.028 233.635C221.209 236.784 227.665 237.177 233.885 235.839C239.396 234.658 275.377 234.422 283.25 224.738C292.304 213.558 288.84 196.158 283.093 186.316Z" fill="url(#paint5_linear_182_4310)"/>
<path opacity="0.31" d="M195.936 180.254L136.887 205.291C136.887 205.291 141.139 218.36 159.877 221.51C164.05 221.982 167.75 225.761 167.514 229.462H172.238C172.238 229.462 173.419 222.769 180.898 220.959C210.187 214.818 195.936 180.254 195.936 180.254Z" fill="#874732"/>
<path d="M137.438 186.001C137.438 186.001 128.856 170.806 129.25 156.398C129.328 154.666 130.903 153.328 132.635 153.642C136.808 154.43 144.445 157.028 151.137 165.295L137.438 186.001Z" fill="url(#paint6_linear_182_4310)"/>
<path opacity="0.5" d="M138.461 178.364C138.461 178.364 133.344 169.31 133.58 160.728C133.58 159.705 134.603 158.918 135.627 159.075C138.146 159.547 142.634 161.122 146.65 166.003L138.461 178.364Z" fill="#FF7C4F"/>
<path d="M185.307 173.877C185.307 173.877 185.544 156.398 178.379 143.958C177.513 142.462 175.466 142.069 174.049 143.171C170.742 145.848 165.309 151.753 163.341 162.224L185.307 173.877Z" fill="url(#paint7_linear_182_4310)"/>
<path opacity="0.5" d="M180.741 167.657C180.741 167.657 180.898 157.264 176.647 149.863C176.095 148.919 174.914 148.761 174.127 149.391C172.159 150.966 168.931 154.509 167.75 160.728L180.741 167.657Z" fill="#FF7C4F"/>
<path d="M156.255 159.705C138.934 164.114 129.643 185.214 135.942 202.535C142.24 219.856 160.113 219.226 170.663 216.55C181.213 213.873 197.274 205.921 194.519 187.655C191.763 169.468 173.497 155.296 156.255 159.705Z" fill="url(#paint8_linear_182_4310)"/>
<path d="M175.781 195.213C176.804 199.386 172.316 200.173 166.805 201.59C161.294 203.008 156.964 204.425 155.94 200.252C154.917 196.079 158.459 191.591 163.971 190.174C169.482 188.757 174.757 191.04 175.781 195.213Z" fill="#FFFBF7"/>
<path d="M176.804 178.601C173.261 178.364 169.797 179.939 167.671 182.852C166.726 184.191 168.616 185.923 169.561 184.584C171.293 182.222 173.891 181.041 176.804 181.199C178.536 181.278 178.457 178.679 176.804 178.601Z" fill="#874732"/>
<path d="M147.909 186.001C150.901 184.112 154.68 183.876 157.908 185.372C159.404 186.08 158.617 188.521 157.042 187.812C154.365 186.553 151.531 186.71 149.012 188.285C147.594 189.151 146.492 186.868 147.909 186.001Z" fill="#874732"/>
<path d="M165.703 197.181C162.79 197.89 160.349 196.394 160.191 194.505C160.034 192.694 162.16 192.221 164.285 191.67C166.411 191.119 168.537 190.489 169.246 192.221C169.954 193.953 168.694 196.473 165.703 197.181Z" fill="#874732"/>
<g opacity="0.55">
<path d="M155.468 195.292C156.334 198.599 154.287 201.905 151.059 202.771C147.752 203.638 144.445 201.59 143.579 198.362C142.713 195.134 144.76 191.749 147.988 190.883C151.295 190.017 154.602 192.064 155.468 195.292Z" fill="#FF915E"/>
<path d="M185.78 187.655C186.646 190.962 184.599 194.268 181.371 195.134C178.143 196 174.757 193.953 173.891 190.725C173.025 187.419 175.072 184.112 178.3 183.246C181.607 182.38 184.914 184.348 185.78 187.655Z" fill="#FF915E"/>
</g>
<path d="M139.406 200.331C139.249 200.331 139.091 200.331 139.013 200.252C138.776 200.095 138.698 199.78 138.855 199.465C141.296 195.686 146.177 195.686 146.413 195.686C146.728 195.686 146.965 195.922 146.965 196.237C146.965 196.552 146.728 196.788 146.413 196.788C146.335 196.788 141.926 196.788 139.8 200.016C139.642 200.252 139.564 200.331 139.406 200.331Z" fill="#874732"/>
<path d="M143.343 204.74C143.264 204.74 143.107 204.74 143.028 204.74C142.713 204.661 142.634 204.346 142.713 204.031C143.894 200.882 147.279 199.15 147.437 199.071C147.752 198.914 148.067 199.071 148.146 199.307C148.303 199.543 148.146 199.937 147.909 200.016C147.909 200.016 144.681 201.669 143.736 204.346C143.658 204.582 143.5 204.74 143.343 204.74Z" fill="#874732"/>
<path d="M190.346 187.419C190.189 187.419 190.11 187.419 189.952 187.34C186.488 185.45 182.63 187.576 182.551 187.655C182.315 187.812 181.922 187.734 181.843 187.419C181.685 187.182 181.764 186.789 182.079 186.71C182.237 186.631 186.567 184.269 190.503 186.395C190.74 186.553 190.897 186.868 190.74 187.104C190.661 187.261 190.503 187.34 190.346 187.419Z" fill="#874732"/>
<path d="M189.008 193.166C188.85 193.245 188.693 193.166 188.535 193.087C186.331 191.198 182.788 191.277 182.788 191.277C182.473 191.277 182.237 191.04 182.237 190.725C182.237 190.41 182.473 190.174 182.788 190.174C182.945 190.174 186.803 190.096 189.322 192.221C189.559 192.379 189.559 192.772 189.401 193.009C189.244 193.087 189.165 193.166 189.008 193.166Z" fill="#874732"/>
<g opacity="0.31">
<path d="M168.38 206.157C166.018 206.787 163.813 206.314 163.734 206.314C163.42 206.236 163.183 205.921 163.262 205.606C163.341 205.291 163.656 205.055 163.971 205.133C164.049 205.133 168.537 205.999 171.135 203.323C171.372 203.086 171.765 203.086 172.001 203.323C172.238 203.559 172.238 203.952 172.001 204.189C170.899 205.291 169.561 205.842 168.38 206.157Z" fill="#874732"/>
</g>
<g opacity="0.5">
<path d="M222.784 169.94C224.988 174.113 227.665 180.254 228.767 186.868C230.185 196.158 236.719 194.032 238.609 190.962C240.105 188.6 241.443 175.373 239.16 166.791C233.019 167.106 227.35 168.208 223.177 169.861C222.941 169.861 222.862 169.94 222.784 169.94Z" fill="#FF7C4F"/>
<path d="M242.388 166.712C243.569 170.806 244.593 175.845 244.514 180.963C244.514 190.332 251.206 189.229 253.568 186.553C254.985 184.899 257.426 176.475 257.898 168.68C252.781 167.342 247.506 166.712 242.388 166.712Z" fill="#FF7C4F"/>
<path d="M213.493 195.371C216.958 204.11 222.784 200.646 223.965 197.181C224.988 194.347 223.02 179.23 218.217 171.751C212.942 173.798 207.352 176.081 202.156 177.971C205.227 181.356 210.502 187.734 213.493 195.371Z" fill="#FF7C4F"/>
</g>
<path opacity="0.31" d="M224.91 229.462C224.91 229.462 237.035 224.58 239.318 219.935C240.892 216.786 241.601 201.59 250.183 197.654C250.183 197.654 239.318 197.654 231.523 212.534C225.618 223.714 212.706 228.989 207.116 229.462C214.911 229.462 224.91 229.462 224.91 229.462Z" fill="#874732"/>
<g opacity="0.5">
<path d="M281.361 265.757C280.101 266.387 278.763 266.86 277.345 267.253C275.771 267.647 273.96 267.962 272.149 268.041C272.622 271.269 272.622 275.205 271.204 279.063C271.992 279.063 272.779 279.063 273.566 278.984C275.771 278.827 277.975 278.433 280.18 277.882C280.573 277.803 281.046 277.646 281.44 277.488C282.148 273.158 281.991 269.064 281.361 265.757Z" fill="#FF7C4F"/>
<path d="M254.985 275.284C257.898 276.78 260.969 277.803 264.118 278.433C266.008 274.89 266.795 271.19 266.953 267.804C263.725 267.253 260.418 266.072 257.269 264.025C257.741 266.623 257.82 271.19 254.985 275.284Z" fill="#FF7C4F"/>
<path d="M297.029 267.017C295.69 261.821 293.328 257.648 291.438 254.971C290.258 258.199 288.289 261.033 285.455 263.238C287.029 266.151 288.525 270.009 288.447 274.339C291.832 272.45 294.745 269.93 297.029 267.017Z" fill="#FF7C4F"/>
</g>
<g opacity="0.31">
<path d="M156.649 226.312C156.334 226.312 156.019 226.549 156.019 226.942C156.019 227.257 156.255 227.493 156.649 227.572C156.806 227.572 159.562 227.651 160.034 229.54C160.428 229.54 160.821 229.54 161.215 229.54C160.9 227.021 158.145 226.312 156.649 226.312Z" fill="#874732"/>
<path d="M165.545 229.462C165.467 225.446 160.743 223.872 160.585 223.793C160.27 223.714 159.955 223.872 159.877 224.187C159.798 224.502 159.955 224.817 160.27 224.895C160.27 224.895 164.364 226.234 164.443 229.462C164.758 229.462 165.152 229.462 165.545 229.462Z" fill="#874732"/>
</g>
<g opacity="0.31">
<path d="M175.151 229.462C175.781 226.549 178.379 225.368 178.536 225.368C178.851 225.21 179.009 224.895 178.851 224.58C178.694 224.265 178.379 224.108 178.064 224.265C177.906 224.344 174.678 225.761 173.97 229.462C174.363 229.462 174.757 229.462 175.151 229.462Z" fill="#874732"/>
<path d="M180.898 227.415C181.213 227.257 181.292 226.864 181.134 226.627C180.977 226.312 180.583 226.234 180.347 226.391C180.268 226.47 178.536 227.415 177.828 229.462C178.221 229.462 178.694 229.462 179.087 229.462C179.717 228.123 180.819 227.493 180.898 227.415Z" fill="#874732"/>
</g>
<g opacity="0.31">
<path d="M228.846 232.375C228.689 232.454 225.775 233.556 224.122 236.154C224.516 236.233 224.988 236.311 225.382 236.39C226.878 234.422 229.161 233.556 229.24 233.556C229.555 233.477 229.712 233.083 229.555 232.768C229.476 232.454 229.082 232.296 228.846 232.375Z" fill="#874732"/>
<path d="M227.744 231.273C227.665 230.958 227.35 230.721 227.035 230.8C226.878 230.8 223.256 231.587 220.264 233.871C220.422 234.186 220.737 234.501 221.052 234.816C223.807 232.69 227.272 231.981 227.272 231.981C227.587 231.902 227.823 231.587 227.744 231.273Z" fill="#874732"/>
</g>
<path d="M43.127 300.326H39.617V311H37.439V300.326H33.929V298.4H43.127V300.326ZM45.2118 301.496H47.3898V311H45.2118V301.496ZM45.4638 300.164L47.2638 296.744H49.4598L47.1918 300.182L45.4638 300.164ZM49.8996 301.496H52.0956V303.044H52.2216C52.4496 302.552 52.8096 302.132 53.3016 301.784C53.8056 301.436 54.4176 301.262 55.1376 301.262C56.3616 301.262 57.2436 301.658 57.7836 302.45C58.3236 303.242 58.5936 304.16 58.5936 305.204V311H56.4156V305.546C56.4156 304.766 56.2236 304.166 55.8396 303.746C55.4676 303.314 54.9516 303.098 54.2916 303.098C53.5836 303.098 53.0376 303.326 52.6536 303.782C52.2816 304.238 52.0956 304.826 52.0956 305.546V311H49.8996V301.496ZM60.9035 297.608H63.0995V303.044H63.2255C63.4535 302.552 63.8135 302.132 64.3055 301.784C64.8095 301.436 65.4215 301.262 66.1415 301.262C67.3655 301.262 68.2475 301.658 68.7875 302.45C69.3275 303.242 69.5975 304.16 69.5975 305.204V311H67.4195V305.546C67.4195 304.766 67.2275 304.166 66.8435 303.746C66.4715 303.314 65.9435 303.098 65.2595 303.098C64.6115 303.098 64.0895 303.326 63.6935 303.782C63.2975 304.226 63.0995 304.814 63.0995 305.546V311H60.9035V297.608ZM75.9504 301.496H78.1464V303.044H78.2724C78.5004 302.552 78.8604 302.132 79.3524 301.784C79.8564 301.436 80.4684 301.262 81.1884 301.262C82.4124 301.262 83.2944 301.658 83.8344 302.45C84.3744 303.242 84.6444 304.16 84.6444 305.204V311H82.4664V305.546C82.4664 304.766 82.2744 304.166 81.8904 303.746C81.5184 303.314 81.0024 303.098 80.3424 303.098C79.6344 303.098 79.0884 303.326 78.7044 303.782C78.3324 304.238 78.1464 304.826 78.1464 305.546V311H75.9504V301.496ZM90.286 311.144C89.086 311.144 88.15 310.688 87.478 309.776C86.806 308.864 86.47 307.676 86.47 306.212C86.47 304.724 86.812 303.53 87.496 302.63C88.18 301.718 89.128 301.262 90.34 301.262C91.168 301.262 91.816 301.454 92.284 301.838C92.764 302.21 93.106 302.624 93.31 303.08H93.454V301.496H95.65V311H93.454V309.254H93.31C93.082 309.746 92.728 310.184 92.248 310.568C91.768 310.952 91.114 311.144 90.286 311.144ZM91.06 309.344C91.84 309.344 92.428 309.038 92.824 308.426C93.232 307.814 93.436 307.07 93.436 306.194C93.436 305.318 93.232 304.58 92.824 303.98C92.428 303.368 91.84 303.062 91.06 303.062C90.256 303.062 89.656 303.368 89.26 303.98C88.876 304.58 88.684 305.318 88.684 306.194C88.684 307.07 88.882 307.814 89.278 308.426C89.674 309.038 90.268 309.344 91.06 309.344ZM91.276 300.128C90.52 300.128 89.878 299.954 89.35 299.606C88.834 299.246 88.396 298.718 88.036 298.022H89.836C90.124 298.61 90.604 298.904 91.276 298.904C91.948 298.904 92.428 298.61 92.716 298.022H94.516C94.156 298.718 93.712 299.246 93.184 299.606C92.656 299.954 92.02 300.128 91.276 300.128ZM98.011 301.496H100.207V303.044H100.333C100.561 302.552 100.921 302.132 101.413 301.784C101.917 301.436 102.529 301.262 103.249 301.262C104.473 301.262 105.355 301.658 105.895 302.45C106.435 303.242 106.705 304.16 106.705 305.204V311H104.527V305.546C104.527 304.766 104.335 304.166 103.951 303.746C103.579 303.314 103.063 303.098 102.403 303.098C101.695 303.098 101.149 303.326 100.765 303.782C100.393 304.238 100.207 304.826 100.207 305.546V311H98.011V301.496ZM113.427 314.924C112.779 314.924 112.221 314.834 111.753 314.654V312.89C111.873 312.926 112.071 312.962 112.347 312.998C112.623 313.046 112.887 313.07 113.139 313.07C114.015 313.07 114.645 312.818 115.029 312.314C115.413 311.822 115.605 311.198 115.605 310.442V309.038H115.461C115.233 309.518 114.867 309.95 114.363 310.334C113.859 310.706 113.217 310.892 112.437 310.892C111.657 310.892 110.979 310.694 110.403 310.298C109.827 309.89 109.383 309.326 109.071 308.606C108.759 307.874 108.603 307.034 108.603 306.086C108.603 305.126 108.759 304.28 109.071 303.548C109.383 302.816 109.827 302.252 110.403 301.856C110.979 301.448 111.657 301.244 112.437 301.244C113.241 301.244 113.895 301.448 114.399 301.856C114.915 302.252 115.269 302.69 115.461 303.17H115.605V301.514H117.783V310.442C117.783 311.078 117.663 311.732 117.423 312.404C117.195 313.076 116.757 313.664 116.109 314.168C115.461 314.672 114.567 314.924 113.427 314.924ZM113.229 309.092C113.997 309.092 114.579 308.792 114.975 308.192C115.383 307.58 115.587 306.866 115.587 306.05C115.587 305.246 115.383 304.544 114.975 303.944C114.579 303.344 113.997 303.044 113.229 303.044C112.449 303.044 111.855 303.344 111.447 303.944C111.051 304.532 110.853 305.234 110.853 306.05C110.853 306.878 111.051 307.592 111.447 308.192C111.843 308.792 112.437 309.092 113.229 309.092ZM124.202 301.496H126.398V303.044H126.524C126.752 302.552 127.112 302.132 127.604 301.784C128.108 301.436 128.72 301.262 129.44 301.262C130.664 301.262 131.546 301.658 132.086 302.45C132.626 303.242 132.896 304.16 132.896 305.204V311H130.718V305.546C130.718 304.766 130.526 304.166 130.142 303.746C129.77 303.314 129.254 303.098 128.594 303.098C127.886 303.098 127.34 303.326 126.956 303.782C126.584 304.238 126.398 304.826 126.398 305.546V311H124.202V301.496ZM138.538 311.144C137.338 311.144 136.402 310.688 135.73 309.776C135.058 308.864 134.722 307.676 134.722 306.212C134.722 304.724 135.064 303.53 135.748 302.63C136.432 301.718 137.38 301.262 138.592 301.262C139.42 301.262 140.068 301.454 140.536 301.838C141.016 302.21 141.358 302.624 141.562 303.08H141.706V301.496H143.902V311H141.706V309.254H141.562C141.334 309.746 140.98 310.184 140.5 310.568C140.02 310.952 139.366 311.144 138.538 311.144ZM139.312 309.344C140.092 309.344 140.68 309.038 141.076 308.426C141.484 307.814 141.688 307.07 141.688 306.194C141.688 305.318 141.484 304.58 141.076 303.98C140.68 303.368 140.092 303.062 139.312 303.062C138.508 303.062 137.908 303.368 137.512 303.98C137.128 304.58 136.936 305.318 136.936 306.194C136.936 307.07 137.134 307.814 137.53 308.426C137.926 309.038 138.52 309.344 139.312 309.344ZM136.342 296.744H138.556L140.338 300.164L138.61 300.182L136.342 296.744ZM150.333 312.332C150.165 312.776 149.985 313.16 149.793 313.484C149.613 313.82 149.295 314.138 148.839 314.438C148.383 314.75 147.783 314.906 147.039 314.906C146.727 314.906 146.451 314.876 146.211 314.816C145.983 314.768 145.845 314.738 145.797 314.726V313.178C145.989 313.226 146.247 313.25 146.571 313.25C146.967 313.25 147.285 313.184 147.525 313.052C147.765 312.92 147.957 312.734 148.101 312.494C148.245 312.266 148.395 311.954 148.551 311.558L148.893 310.694L145.455 301.496H147.669L149.919 308.3H150.027L152.385 301.496H154.617L150.333 312.332ZM170.07 300.29H168.882V311H166.686V309.254H166.542C166.314 309.734 165.954 310.172 165.462 310.568C164.982 310.952 164.334 311.144 163.518 311.144C162.714 311.144 162.024 310.934 161.448 310.514C160.872 310.094 160.434 309.512 160.134 308.768C159.834 308.024 159.684 307.172 159.684 306.212C159.684 304.724 160.02 303.53 160.692 302.63C161.376 301.718 162.33 301.262 163.554 301.262C164.382 301.262 165.036 301.454 165.516 301.838C165.996 302.21 166.338 302.624 166.542 303.08H166.686V300.29H164.418V298.85H166.686V297.482H168.882V298.85H170.07V300.29ZM164.292 309.38C165.072 309.38 165.66 309.074 166.056 308.462C166.464 307.838 166.668 307.088 166.668 306.212C166.668 305.336 166.464 304.598 166.056 303.998C165.66 303.386 165.072 303.08 164.292 303.08C163.5 303.08 162.906 303.386 162.51 303.998C162.114 304.598 161.916 305.336 161.916 306.212C161.916 307.1 162.114 307.85 162.51 308.462C162.906 309.074 163.5 309.38 164.292 309.38ZM174.714 311.144C173.514 311.144 172.578 310.688 171.906 309.776C171.234 308.864 170.898 307.676 170.898 306.212C170.898 304.724 171.24 303.53 171.924 302.63C172.608 301.718 173.556 301.262 174.768 301.262C175.596 301.262 176.244 301.454 176.712 301.838C177.192 302.21 177.534 302.624 177.738 303.08H177.882V301.496H180.078V311H177.882V309.254H177.738C177.51 309.746 177.156 310.184 176.676 310.568C176.196 310.952 175.542 311.144 174.714 311.144ZM175.488 309.344C176.268 309.344 176.856 309.038 177.252 308.426C177.66 307.814 177.864 307.07 177.864 306.194C177.864 305.318 177.66 304.58 177.252 303.98C176.856 303.368 176.268 303.062 175.488 303.062C174.684 303.062 174.084 303.368 173.688 303.98C173.304 304.58 173.112 305.318 173.112 306.194C173.112 307.07 173.31 307.814 173.706 308.426C174.102 309.038 174.696 309.344 175.488 309.344ZM182.439 301.496H184.635V303.044H184.761C184.989 302.552 185.349 302.132 185.841 301.784C186.345 301.436 186.957 301.262 187.677 301.262C188.901 301.262 189.783 301.658 190.323 302.45C190.863 303.242 191.133 304.16 191.133 305.204V311H188.955V305.546C188.955 304.766 188.763 304.166 188.379 303.746C188.007 303.314 187.491 303.098 186.831 303.098C186.123 303.098 185.577 303.326 185.193 303.782C184.821 304.238 184.635 304.826 184.635 305.546V311H182.439V301.496ZM197.854 314.924C197.206 314.924 196.648 314.834 196.18 314.654V312.89C196.3 312.926 196.498 312.962 196.774 312.998C197.05 313.046 197.314 313.07 197.566 313.07C198.442 313.07 199.072 312.818 199.456 312.314C199.84 311.822 200.032 311.198 200.032 310.442V309.038H199.888C199.66 309.518 199.294 309.95 198.79 310.334C198.286 310.706 197.644 310.892 196.864 310.892C196.084 310.892 195.406 310.694 194.83 310.298C194.254 309.89 193.81 309.326 193.498 308.606C193.186 307.874 193.03 307.034 193.03 306.086C193.03 305.126 193.186 304.28 193.498 303.548C193.81 302.816 194.254 302.252 194.83 301.856C195.406 301.448 196.084 301.244 196.864 301.244C197.668 301.244 198.322 301.448 198.826 301.856C199.342 302.252 199.696 302.69 199.888 303.17H200.032V301.514H202.21V310.442C202.21 311.078 202.09 311.732 201.85 312.404C201.622 313.076 201.184 313.664 200.536 314.168C199.888 314.672 198.994 314.924 197.854 314.924ZM197.656 309.092C198.424 309.092 199.006 308.792 199.402 308.192C199.81 307.58 200.014 306.866 200.014 306.05C200.014 305.246 199.81 304.544 199.402 303.944C199.006 303.344 198.424 303.044 197.656 303.044C196.876 303.044 196.282 303.344 195.874 303.944C195.478 304.532 195.28 305.234 195.28 306.05C195.28 306.878 195.478 307.592 195.874 308.192C196.27 308.792 196.864 309.092 197.656 309.092ZM218.638 300.29H217.45V311H215.254V309.254H215.11C214.882 309.734 214.522 310.172 214.03 310.568C213.55 310.952 212.902 311.144 212.086 311.144C211.282 311.144 210.592 310.934 210.016 310.514C209.44 310.094 209.002 309.512 208.702 308.768C208.402 308.024 208.252 307.172 208.252 306.212C208.252 304.724 208.588 303.53 209.26 302.63C209.944 301.718 210.898 301.262 212.122 301.262C212.95 301.262 213.604 301.454 214.084 301.838C214.564 302.21 214.906 302.624 215.11 303.08H215.254V300.29H212.986V298.85H215.254V297.482H217.45V298.85H218.638V300.29ZM212.86 309.38C213.64 309.38 214.228 309.074 214.624 308.462C215.032 307.838 215.236 307.088 215.236 306.212C215.236 305.336 215.032 304.598 214.624 303.998C214.228 303.386 213.64 303.08 212.86 303.08C212.068 303.08 211.474 303.386 211.078 303.998C210.682 304.598 210.484 305.336 210.484 306.212C210.484 307.1 210.682 307.85 211.078 308.462C211.474 309.074 212.068 309.38 212.86 309.38ZM230.446 299.696V300.56C230.446 301.256 230.242 301.754 229.834 302.054C229.438 302.342 228.958 302.498 228.394 302.522V311H226.198V309.398H226.09C225.862 309.89 225.502 310.31 225.01 310.658C224.53 311.006 223.942 311.18 223.246 311.18C222.418 311.18 221.752 310.982 221.248 310.586C220.744 310.178 220.39 309.674 220.186 309.074C219.982 308.474 219.88 307.856 219.88 307.22V301.496H222.058V306.878C222.058 307.646 222.238 308.246 222.598 308.678C222.958 309.11 223.456 309.326 224.092 309.326C224.776 309.326 225.298 309.098 225.658 308.642C226.018 308.174 226.198 307.586 226.198 306.878V301.496H227.8C228.172 301.496 228.442 301.424 228.61 301.28C228.778 301.136 228.862 300.812 228.862 300.308V299.696H230.446ZM239.884 300.56C239.884 301.172 239.722 301.628 239.398 301.928C239.086 302.228 238.69 302.414 238.21 302.486C238.654 302.942 238.99 303.494 239.218 304.142C239.458 304.79 239.578 305.474 239.578 306.194C239.578 307.07 239.41 307.886 239.074 308.642C238.75 309.398 238.246 310.004 237.562 310.46C236.89 310.916 236.062 311.144 235.078 311.144C234.094 311.144 233.26 310.916 232.576 310.46C231.904 310.004 231.4 309.404 231.064 308.66C230.728 307.916 230.56 307.1 230.56 306.212C230.56 305.336 230.728 304.526 231.064 303.782C231.4 303.026 231.904 302.42 232.576 301.964C233.26 301.508 234.094 301.28 235.078 301.28C235.63 301.28 236.128 301.352 236.572 301.496H237.238C237.61 301.496 237.88 301.424 238.048 301.28C238.216 301.136 238.3 300.812 238.3 300.308V299.696H239.884V300.56ZM235.078 309.344C235.834 309.344 236.416 309.044 236.824 308.444C237.232 307.844 237.436 307.094 237.436 306.194C237.436 305.294 237.232 304.55 236.824 303.962C236.416 303.362 235.834 303.062 235.078 303.062C234.31 303.062 233.722 303.362 233.314 303.962C232.918 304.55 232.72 305.294 232.72 306.194C232.72 307.094 232.924 307.844 233.332 308.444C233.74 309.044 234.322 309.344 235.078 309.344ZM235.096 315.266C234.748 315.266 234.454 315.146 234.214 314.906C233.986 314.666 233.872 314.378 233.872 314.042C233.872 313.706 233.986 313.418 234.214 313.178C234.454 312.95 234.748 312.836 235.096 312.836C235.432 312.836 235.72 312.95 235.96 313.178C236.2 313.418 236.32 313.706 236.32 314.042C236.32 314.378 236.2 314.666 235.96 314.906C235.72 315.146 235.432 315.266 235.096 315.266ZM246.064 311.144C245.056 311.144 244.21 310.91 243.526 310.442C242.854 309.974 242.35 309.368 242.014 308.624C241.69 307.868 241.528 307.058 241.528 306.194C241.528 305.342 241.69 304.544 242.014 303.8C242.35 303.044 242.854 302.432 243.526 301.964C244.21 301.496 245.056 301.262 246.064 301.262C247.324 301.262 248.314 301.622 249.034 302.342C249.766 303.062 250.204 303.962 250.348 305.042H248.224C248.14 304.454 247.918 303.98 247.558 303.62C247.198 303.248 246.706 303.062 246.082 303.062C245.278 303.062 244.678 303.368 244.282 303.98C243.886 304.58 243.688 305.318 243.688 306.194C243.688 307.094 243.886 307.85 244.282 308.462C244.678 309.062 245.278 309.362 246.082 309.362C246.694 309.362 247.18 309.176 247.54 308.804C247.912 308.432 248.14 307.952 248.224 307.364H250.348C250.204 308.444 249.766 309.344 249.034 310.064C248.314 310.784 247.324 311.144 246.064 311.144ZM261.701 311.144C260.885 311.144 260.231 310.952 259.739 310.568C259.259 310.172 258.905 309.734 258.677 309.254H258.533V314.708H256.355V301.496H258.533V303.08H258.677C258.881 302.624 259.223 302.21 259.703 301.838C260.183 301.454 260.837 301.262 261.665 301.262C262.901 301.262 263.855 301.718 264.527 302.63C265.199 303.53 265.535 304.724 265.535 306.212C265.535 307.676 265.199 308.864 264.527 309.776C263.855 310.688 262.913 311.144 261.701 311.144ZM260.927 309.38C261.731 309.38 262.331 309.074 262.727 308.462C263.123 307.838 263.321 307.088 263.321 306.212C263.321 305.336 263.123 304.598 262.727 303.998C262.331 303.386 261.731 303.08 260.927 303.08C260.147 303.08 259.553 303.386 259.145 303.998C258.749 304.598 258.551 305.336 258.551 306.212C258.551 307.088 258.749 307.838 259.145 308.462C259.553 309.074 260.147 309.38 260.927 309.38ZM267.534 297.608H269.73V303.044H269.856C270.084 302.552 270.444 302.132 270.936 301.784C271.44 301.436 272.052 301.262 272.772 301.262C273.996 301.262 274.878 301.658 275.418 302.45C275.958 303.242 276.228 304.16 276.228 305.204V311H274.05V305.546C274.05 304.766 273.858 304.166 273.474 303.746C273.102 303.314 272.574 303.098 271.89 303.098C271.242 303.098 270.72 303.326 270.324 303.782C269.928 304.226 269.73 304.814 269.73 305.546V311H267.534V297.608ZM281.87 311.144C280.67 311.144 279.734 310.688 279.062 309.776C278.39 308.864 278.054 307.676 278.054 306.212C278.054 304.724 278.396 303.53 279.08 302.63C279.764 301.718 280.712 301.262 281.924 301.262C282.752 301.262 283.4 301.454 283.868 301.838C284.348 302.21 284.69 302.624 284.894 303.08H285.038V301.496H287.234V311H285.038V309.254H284.894C284.666 309.746 284.312 310.184 283.832 310.568C283.352 310.952 282.698 311.144 281.87 311.144ZM282.644 309.344C283.424 309.344 284.012 309.038 284.408 308.426C284.816 307.814 285.02 307.07 285.02 306.194C285.02 305.318 284.816 304.58 284.408 303.98C284.012 303.368 283.424 303.062 282.644 303.062C281.84 303.062 281.24 303.368 280.844 303.98C280.46 304.58 280.268 305.318 280.268 306.194C280.268 307.07 280.466 307.814 280.862 308.426C281.258 309.038 281.852 309.344 282.644 309.344ZM282.032 300.164L283.832 296.744H286.028L283.76 300.182L282.032 300.164ZM292.922 303.206V307.868C292.922 308.3 292.94 308.618 292.976 308.822C293.024 309.026 293.144 309.188 293.336 309.308C293.528 309.428 293.834 309.488 294.254 309.488C294.47 309.488 294.746 309.458 295.082 309.398V310.928C295.01 310.952 294.806 310.982 294.47 311.018C294.134 311.054 293.804 311.072 293.48 311.072C292.652 311.072 292.04 310.952 291.644 310.712C291.248 310.472 290.996 310.166 290.888 309.794C290.792 309.422 290.744 308.936 290.744 308.336V303.206H289.088V301.496H290.744V298.4H292.922V301.496H295.082V303.206H292.922ZM304.489 303.206V307.868C304.489 308.3 304.507 308.618 304.543 308.822C304.591 309.026 304.711 309.188 304.903 309.308C305.095 309.428 305.401 309.488 305.821 309.488C306.037 309.488 306.313 309.458 306.649 309.398V310.928C306.577 310.952 306.373 310.982 306.037 311.018C305.701 311.054 305.371 311.072 305.047 311.072C304.219 311.072 303.607 310.952 303.211 310.712C302.815 310.472 302.563 310.166 302.455 309.794C302.359 309.422 302.311 308.936 302.311 308.336V303.206H300.655V301.496H302.311V298.4H304.489V301.496H306.649V303.206H304.489ZM308.703 301.496H310.863V303.008H310.989C311.145 302.588 311.427 302.234 311.835 301.946C312.255 301.646 312.789 301.496 313.437 301.496C313.665 301.496 313.899 301.526 314.139 301.586L314.049 303.62C313.869 303.56 313.713 303.524 313.581 303.512C313.449 303.488 313.281 303.476 313.077 303.476C312.345 303.476 311.793 303.674 311.421 304.07C311.049 304.466 310.863 305.126 310.863 306.05V311H308.703V301.496ZM315.932 301.496H318.11V311H315.932V301.496ZM316.994 299.822C316.634 299.822 316.334 299.702 316.094 299.462C315.854 299.21 315.734 298.91 315.734 298.562C315.734 298.202 315.854 297.902 316.094 297.662C316.334 297.422 316.634 297.302 316.994 297.302C317.354 297.302 317.654 297.428 317.894 297.68C318.134 297.92 318.254 298.214 318.254 298.562C318.254 298.91 318.134 299.21 317.894 299.462C317.654 299.702 317.354 299.822 316.994 299.822ZM324.778 311.144C323.794 311.144 322.96 310.91 322.276 310.442C321.604 309.974 321.1 309.368 320.764 308.624C320.44 307.868 320.278 307.064 320.278 306.212C320.278 305.348 320.44 304.544 320.764 303.8C321.1 303.044 321.604 302.432 322.276 301.964C322.96 301.496 323.8 301.262 324.796 301.262C326.116 301.262 327.16 301.688 327.928 302.54C328.708 303.392 329.098 304.622 329.098 306.23V306.824H322.402V306.968C322.402 307.388 322.498 307.784 322.69 308.156C322.894 308.528 323.17 308.828 323.518 309.056C323.878 309.272 324.286 309.38 324.742 309.38C325.258 309.38 325.696 309.26 326.056 309.02C326.416 308.768 326.686 308.432 326.866 308.012H329.008C328.756 308.924 328.27 309.674 327.55 310.262C326.83 310.85 325.906 311.144 324.778 311.144ZM326.992 305.384C326.968 304.52 326.752 303.89 326.344 303.494C325.948 303.086 325.426 302.882 324.778 302.882C324.082 302.882 323.524 303.11 323.104 303.566C322.696 304.01 322.48 304.616 322.456 305.384H326.992ZM323.986 297.572H325.66L328.18 300.344H326.146L324.85 298.922H324.778L323.518 300.344H321.484L323.986 297.572ZM327.1 297.896C327.136 297.788 327.208 297.686 327.316 297.59C327.424 297.482 327.58 297.356 327.784 297.212C328.072 297.008 328.288 296.828 328.432 296.672C328.588 296.504 328.666 296.318 328.666 296.114C328.666 295.934 328.612 295.79 328.504 295.682C328.396 295.562 328.228 295.502 328 295.502C327.808 295.502 327.652 295.556 327.532 295.664C327.424 295.772 327.358 295.91 327.334 296.078H325.768C325.804 295.586 326.002 295.172 326.362 294.836C326.722 294.488 327.268 294.314 328 294.314C328.684 294.314 329.206 294.476 329.566 294.8C329.938 295.112 330.124 295.514 330.124 296.006C330.124 296.342 330.046 296.612 329.89 296.816C329.734 297.02 329.518 297.23 329.242 297.446C329.134 297.518 329.038 297.596 328.954 297.68C328.87 297.752 328.822 297.824 328.81 297.896H327.1ZM331.027 301.496H333.223V303.044H333.349C333.577 302.552 333.937 302.132 334.429 301.784C334.933 301.436 335.545 301.262 336.265 301.262C337.489 301.262 338.371 301.658 338.911 302.45C339.451 303.242 339.721 304.16 339.721 305.204V311H337.543V305.546C337.543 304.766 337.351 304.166 336.967 303.746C336.595 303.314 336.079 303.098 335.419 303.098C334.711 303.098 334.165 303.326 333.781 303.782C333.409 304.238 333.223 304.826 333.223 305.546V311H331.027V301.496Z" fill="#4C5BD4"/>
<path d="M76.3596 328.4H78.5376L81.9396 338.714H82.0476L85.4316 328.4H87.6276L83.4156 341.018H80.5536L76.3596 328.4ZM97.481 341H95.285V339.398H95.177C94.949 339.89 94.589 340.31 94.097 340.658C93.617 341.006 93.029 341.18 92.333 341.18C91.505 341.18 90.839 340.982 90.335 340.586C89.831 340.178 89.477 339.674 89.273 339.074C89.069 338.474 88.967 337.856 88.967 337.22V331.496H91.145V336.878C91.145 337.646 91.325 338.246 91.685 338.678C92.045 339.11 92.543 339.326 93.179 339.326C93.863 339.326 94.385 339.098 94.745 338.642C95.105 338.174 95.285 337.586 95.285 336.878V331.496H97.481V341ZM99.9061 331.496H102.084V341H99.9061V331.496ZM100.968 329.822C100.608 329.822 100.308 329.702 100.068 329.462C99.8281 329.21 99.7081 328.91 99.7081 328.562C99.7081 328.202 99.8281 327.902 100.068 327.662C100.308 327.422 100.608 327.302 100.968 327.302C101.328 327.302 101.628 327.428 101.868 327.68C102.108 327.92 102.228 328.214 102.228 328.562C102.228 328.91 102.108 329.21 101.868 329.462C101.628 329.702 101.328 329.822 100.968 329.822ZM111.586 341.072C110.758 341.072 110.146 340.946 109.75 340.694C109.354 340.43 109.102 340.106 108.994 339.722C108.898 339.326 108.85 338.822 108.85 338.21V327.5H111.028V337.796C111.028 338.24 111.046 338.57 111.082 338.786C111.13 339.002 111.25 339.176 111.442 339.308C111.634 339.428 111.94 339.488 112.36 339.488C112.516 339.488 112.702 339.476 112.918 339.452V340.964C112.534 341.036 112.09 341.072 111.586 341.072ZM118.895 341.144C117.911 341.144 117.077 340.916 116.393 340.46C115.721 340.004 115.217 339.404 114.881 338.66C114.545 337.916 114.377 337.1 114.377 336.212C114.377 335.336 114.545 334.526 114.881 333.782C115.217 333.026 115.721 332.42 116.393 331.964C117.077 331.508 117.911 331.28 118.895 331.28C119.879 331.28 120.707 331.508 121.379 331.964C122.063 332.42 122.567 333.02 122.891 333.764C123.227 334.508 123.395 335.318 123.395 336.194C123.395 337.07 123.227 337.886 122.891 338.642C122.567 339.398 122.063 340.004 121.379 340.46C120.707 340.916 119.879 341.144 118.895 341.144ZM118.895 339.344C119.651 339.344 120.233 339.044 120.641 338.444C121.049 337.844 121.253 337.094 121.253 336.194C121.253 335.294 121.049 334.55 120.641 333.962C120.233 333.362 119.651 333.062 118.895 333.062C118.127 333.062 117.539 333.362 117.131 333.962C116.735 334.55 116.537 335.294 116.537 336.194C116.537 337.094 116.741 337.844 117.149 338.444C117.557 339.044 118.139 339.344 118.895 339.344ZM115.709 326.744H117.923L119.705 330.164L117.977 330.182L115.709 326.744ZM125.336 331.496H127.532V333.044H127.658C127.886 332.552 128.246 332.132 128.738 331.784C129.242 331.436 129.854 331.262 130.574 331.262C131.798 331.262 132.68 331.658 133.22 332.45C133.76 333.242 134.03 334.16 134.03 335.204V341H131.852V335.546C131.852 334.766 131.66 334.166 131.276 333.746C130.904 333.314 130.388 333.098 129.728 333.098C129.02 333.098 128.474 333.326 128.09 333.782C127.718 334.238 127.532 334.826 127.532 335.546V341H125.336V331.496ZM140.752 344.924C140.104 344.924 139.546 344.834 139.078 344.654V342.89C139.198 342.926 139.396 342.962 139.672 342.998C139.948 343.046 140.212 343.07 140.464 343.07C141.34 343.07 141.97 342.818 142.354 342.314C142.738 341.822 142.93 341.198 142.93 340.442V339.038H142.786C142.558 339.518 142.192 339.95 141.688 340.334C141.184 340.706 140.542 340.892 139.762 340.892C138.982 340.892 138.304 340.694 137.728 340.298C137.152 339.89 136.708 339.326 136.396 338.606C136.084 337.874 135.928 337.034 135.928 336.086C135.928 335.126 136.084 334.28 136.396 333.548C136.708 332.816 137.152 332.252 137.728 331.856C138.304 331.448 138.982 331.244 139.762 331.244C140.566 331.244 141.22 331.448 141.724 331.856C142.24 332.252 142.594 332.69 142.786 333.17H142.93V331.514H145.108V340.442C145.108 341.078 144.988 341.732 144.748 342.404C144.52 343.076 144.082 343.664 143.434 344.168C142.786 344.672 141.892 344.924 140.752 344.924ZM140.554 339.092C141.322 339.092 141.904 338.792 142.3 338.192C142.708 337.58 142.912 336.866 142.912 336.05C142.912 335.246 142.708 334.544 142.3 333.944C141.904 333.344 141.322 333.044 140.554 333.044C139.774 333.044 139.18 333.344 138.772 333.944C138.376 334.532 138.178 335.234 138.178 336.05C138.178 336.878 138.376 337.592 138.772 338.192C139.168 338.792 139.762 339.092 140.554 339.092ZM155.092 341.144C153.88 341.144 152.938 340.688 152.266 339.776C151.594 338.864 151.258 337.676 151.258 336.212C151.258 334.724 151.594 333.53 152.266 332.63C152.938 331.718 153.892 331.262 155.128 331.262C155.956 331.262 156.61 331.454 157.09 331.838C157.57 332.21 157.912 332.624 158.116 333.08H158.26V331.496H160.438V344.708H158.26V339.254H158.116C157.888 339.734 157.528 340.172 157.036 340.568C156.556 340.952 155.908 341.144 155.092 341.144ZM155.866 339.38C156.646 339.38 157.234 339.074 157.63 338.462C158.038 337.838 158.242 337.088 158.242 336.212C158.242 335.336 158.038 334.598 157.63 333.998C157.234 333.386 156.646 333.08 155.866 333.08C155.074 333.08 154.474 333.386 154.066 333.998C153.67 334.598 153.472 335.336 153.472 336.212C153.472 337.088 153.67 337.838 154.066 338.462C154.474 339.074 155.074 339.38 155.866 339.38ZM171.221 341H169.025V339.398H168.917C168.689 339.89 168.329 340.31 167.837 340.658C167.357 341.006 166.769 341.18 166.073 341.18C165.245 341.18 164.579 340.982 164.075 340.586C163.571 340.178 163.217 339.674 163.013 339.074C162.809 338.474 162.707 337.856 162.707 337.22V331.496H164.885V336.878C164.885 337.646 165.065 338.246 165.425 338.678C165.785 339.11 166.283 339.326 166.919 339.326C167.603 339.326 168.125 339.098 168.485 338.642C168.845 338.174 169.025 337.586 169.025 336.878V331.496H171.221V341ZM176.814 341.144C175.614 341.144 174.678 340.688 174.006 339.776C173.334 338.864 172.998 337.676 172.998 336.212C172.998 334.724 173.34 333.53 174.024 332.63C174.708 331.718 175.656 331.262 176.868 331.262C177.696 331.262 178.344 331.454 178.812 331.838C179.292 332.21 179.634 332.624 179.838 333.08H179.982V331.496H182.178V341H179.982V339.254H179.838C179.61 339.746 179.256 340.184 178.776 340.568C178.296 340.952 177.642 341.144 176.814 341.144ZM177.588 339.344C178.368 339.344 178.956 339.038 179.352 338.426C179.76 337.814 179.964 337.07 179.964 336.194C179.964 335.318 179.76 334.58 179.352 333.98C178.956 333.368 178.368 333.062 177.588 333.062C176.784 333.062 176.184 333.368 175.788 333.98C175.404 334.58 175.212 335.318 175.212 336.194C175.212 337.07 175.41 337.814 175.806 338.426C176.202 339.038 176.796 339.344 177.588 339.344ZM188.61 342.332C188.442 342.776 188.262 343.16 188.07 343.484C187.89 343.82 187.572 344.138 187.116 344.438C186.66 344.75 186.06 344.906 185.316 344.906C185.004 344.906 184.728 344.876 184.488 344.816C184.26 344.768 184.122 344.738 184.074 344.726V343.178C184.266 343.226 184.524 343.25 184.848 343.25C185.244 343.25 185.562 343.184 185.802 343.052C186.042 342.92 186.234 342.734 186.378 342.494C186.522 342.266 186.672 341.954 186.828 341.558L187.17 340.694L183.732 331.496H185.946L188.196 338.3H188.304L190.662 331.496H192.894L188.61 342.332ZM201.56 333.206V337.868C201.56 338.3 201.578 338.618 201.614 338.822C201.662 339.026 201.782 339.188 201.974 339.308C202.166 339.428 202.472 339.488 202.892 339.488C203.108 339.488 203.384 339.458 203.72 339.398V340.928C203.648 340.952 203.444 340.982 203.108 341.018C202.772 341.054 202.442 341.072 202.118 341.072C201.29 341.072 200.678 340.952 200.282 340.712C199.886 340.472 199.634 340.166 199.526 339.794C199.43 339.422 199.382 338.936 199.382 338.336V333.206H197.726V331.496H199.382V328.4H201.56V331.496H203.72V333.206H201.56ZM205.774 331.496H207.934V333.008H208.06C208.216 332.588 208.498 332.234 208.906 331.946C209.326 331.646 209.86 331.496 210.508 331.496C210.736 331.496 210.97 331.526 211.21 331.586L211.12 333.62C210.94 333.56 210.784 333.524 210.652 333.512C210.52 333.488 210.352 333.476 210.148 333.476C209.416 333.476 208.864 333.674 208.492 334.07C208.12 334.466 207.934 335.126 207.934 336.05V341H205.774V331.496ZM221.435 330.56C221.435 331.172 221.273 331.628 220.949 331.928C220.637 332.228 220.241 332.414 219.761 332.486C220.205 332.942 220.541 333.494 220.769 334.142C221.009 334.79 221.129 335.474 221.129 336.194C221.129 337.07 220.961 337.886 220.625 338.642C220.301 339.398 219.797 340.004 219.113 340.46C218.441 340.916 217.613 341.144 216.629 341.144C215.645 341.144 214.811 340.916 214.127 340.46C213.455 340.004 212.951 339.404 212.615 338.66C212.279 337.916 212.111 337.1 212.111 336.212C212.111 335.336 212.279 334.526 212.615 333.782C212.951 333.026 213.455 332.42 214.127 331.964C214.811 331.508 215.645 331.28 216.629 331.28C217.181 331.28 217.679 331.352 218.123 331.496H218.789C219.161 331.496 219.431 331.424 219.599 331.28C219.767 331.136 219.851 330.812 219.851 330.308V329.696H221.435V330.56ZM216.629 339.344C217.385 339.344 217.967 339.044 218.375 338.444C218.783 337.844 218.987 337.094 218.987 336.194C218.987 335.294 218.783 334.55 218.375 333.962C217.967 333.362 217.385 333.062 216.629 333.062C215.861 333.062 215.273 333.362 214.865 333.962C214.469 334.55 214.271 335.294 214.271 336.194C214.271 337.094 214.475 337.844 214.883 338.444C215.291 339.044 215.873 339.344 216.629 339.344ZM215.747 330.182C215.783 330.074 215.855 329.972 215.963 329.876C216.071 329.768 216.227 329.642 216.431 329.498C216.719 329.294 216.935 329.114 217.079 328.958C217.235 328.79 217.313 328.604 217.313 328.4C217.313 328.22 217.259 328.076 217.151 327.968C217.043 327.848 216.875 327.788 216.647 327.788C216.455 327.788 216.299 327.842 216.179 327.95C216.071 328.058 216.005 328.196 215.981 328.364H214.415C214.451 327.872 214.649 327.458 215.009 327.122C215.369 326.774 215.915 326.6 216.647 326.6C217.331 326.6 217.853 326.762 218.213 327.086C218.585 327.398 218.771 327.8 218.771 328.292C218.771 328.628 218.693 328.898 218.537 329.102C218.381 329.306 218.165 329.516 217.889 329.732C217.781 329.804 217.685 329.882 217.601 329.966C217.517 330.038 217.469 330.11 217.457 330.182H215.747ZM230.415 341.072C229.587 341.072 228.975 340.946 228.579 340.694C228.183 340.43 227.931 340.106 227.823 339.722C227.727 339.326 227.679 338.822 227.679 338.21V327.5H229.857V337.796C229.857 338.24 229.875 338.57 229.911 338.786C229.959 339.002 230.079 339.176 230.271 339.308C230.463 339.428 230.769 339.488 231.189 339.488C231.345 339.488 231.531 339.476 231.747 339.452V340.964C231.363 341.036 230.919 341.072 230.415 341.072ZM236.949 341.144C235.749 341.144 234.813 340.688 234.141 339.776C233.469 338.864 233.133 337.676 233.133 336.212C233.133 334.724 233.475 333.53 234.159 332.63C234.843 331.718 235.791 331.262 237.003 331.262C237.831 331.262 238.479 331.454 238.947 331.838C239.427 332.21 239.769 332.624 239.973 333.08H240.117V331.496H242.313V341H240.117V339.254H239.973C239.745 339.746 239.391 340.184 238.911 340.568C238.431 340.952 237.777 341.144 236.949 341.144ZM237.723 339.344C238.503 339.344 239.091 339.038 239.487 338.426C239.895 337.814 240.099 337.07 240.099 336.194C240.099 335.318 239.895 334.58 239.487 333.98C239.091 333.368 238.503 333.062 237.723 333.062C236.919 333.062 236.319 333.368 235.923 333.98C235.539 334.58 235.347 335.318 235.347 336.194C235.347 337.07 235.545 337.814 235.941 338.426C236.337 339.038 236.931 339.344 237.723 339.344ZM237.939 345.266C237.591 345.266 237.297 345.146 237.057 344.906C236.829 344.666 236.715 344.378 236.715 344.042C236.715 343.706 236.829 343.418 237.057 343.178C237.297 342.95 237.591 342.836 237.939 342.836C238.275 342.836 238.563 342.95 238.803 343.178C239.043 343.418 239.163 343.706 239.163 344.042C239.163 344.378 239.043 344.666 238.803 344.906C238.563 345.146 238.275 345.266 237.939 345.266ZM244.908 331.496H247.086V341H244.908V331.496ZM245.97 329.822C245.61 329.822 245.31 329.702 245.07 329.462C244.83 329.21 244.71 328.91 244.71 328.562C244.71 328.202 244.83 327.902 245.07 327.662C245.31 327.422 245.61 327.302 245.97 327.302C246.33 327.302 246.63 327.428 246.87 327.68C247.11 327.92 247.23 328.214 247.23 328.562C247.23 328.91 247.11 329.21 246.87 329.462C246.63 329.702 246.33 329.822 245.97 329.822ZM257.182 341.144C256.39 341.144 255.706 340.994 255.13 340.694C254.554 340.394 254.116 340.004 253.816 339.524C253.516 339.032 253.366 338.516 253.366 337.976V337.868H255.508V337.976C255.508 338.348 255.658 338.684 255.958 338.984C256.258 339.284 256.684 339.434 257.236 339.434C257.692 339.434 258.064 339.326 258.352 339.11C258.64 338.894 258.784 338.594 258.784 338.21C258.784 337.874 258.658 337.61 258.406 337.418C258.166 337.226 257.866 337.106 257.506 337.058L256.372 336.842C255.64 336.722 254.992 336.452 254.428 336.032C253.876 335.6 253.6 334.958 253.6 334.106C253.6 333.218 253.924 332.522 254.572 332.018C255.22 331.514 256.054 331.262 257.074 331.262C257.818 331.262 258.46 331.4 259 331.676C259.552 331.952 259.966 332.312 260.242 332.756C260.53 333.2 260.674 333.68 260.674 334.196V334.268H258.532V334.214C258.532 333.89 258.406 333.584 258.154 333.296C257.914 333.008 257.53 332.864 257.002 332.864C256.558 332.864 256.204 332.978 255.94 333.206C255.676 333.422 255.544 333.71 255.544 334.07C255.544 334.382 255.664 334.634 255.904 334.826C256.156 335.018 256.468 335.15 256.84 335.222L258.082 335.438C258.862 335.594 259.516 335.888 260.044 336.32C260.572 336.752 260.836 337.37 260.836 338.174C260.836 338.762 260.674 339.284 260.35 339.74C260.038 340.184 259.6 340.532 259.036 340.784C258.484 341.024 257.866 341.144 257.182 341.144ZM266.058 341.144C264.858 341.144 263.922 340.688 263.25 339.776C262.578 338.864 262.242 337.676 262.242 336.212C262.242 334.724 262.584 333.53 263.268 332.63C263.952 331.718 264.9 331.262 266.112 331.262C266.94 331.262 267.588 331.454 268.056 331.838C268.536 332.21 268.878 332.624 269.082 333.08H269.226V331.496H271.422V341H269.226V339.254H269.082C268.854 339.746 268.5 340.184 268.02 340.568C267.54 340.952 266.886 341.144 266.058 341.144ZM266.832 339.344C267.612 339.344 268.2 339.038 268.596 338.426C269.004 337.814 269.208 337.07 269.208 336.194C269.208 335.318 269.004 334.58 268.596 333.98C268.2 333.368 267.612 333.062 266.832 333.062C266.028 333.062 265.428 333.368 265.032 333.98C264.648 334.58 264.456 335.318 264.456 336.194C264.456 337.07 264.654 337.814 265.05 338.426C265.446 339.038 266.04 339.344 266.832 339.344ZM282.403 341H280.207V339.398H280.099C279.871 339.89 279.511 340.31 279.019 340.658C278.539 341.006 277.951 341.18 277.255 341.18C276.427 341.18 275.761 340.982 275.257 340.586C274.753 340.178 274.399 339.674 274.195 339.074C273.991 338.474 273.889 337.856 273.889 337.22V331.496H276.067V336.878C276.067 337.646 276.247 338.246 276.607 338.678C276.967 339.11 277.465 339.326 278.101 339.326C278.785 339.326 279.307 339.098 279.667 338.642C280.027 338.174 280.207 337.586 280.207 336.878V331.496H282.403V341ZM284.72 329.138V327.698H286.988V329.138L286.628 337.13H285.08L284.72 329.138ZM285.854 341.162C285.506 341.162 285.218 341.042 284.99 340.802C284.762 340.562 284.648 340.274 284.648 339.938C284.648 339.602 284.762 339.314 284.99 339.074C285.218 338.834 285.506 338.714 285.854 338.714C286.202 338.714 286.496 338.834 286.736 339.074C286.976 339.314 287.096 339.602 287.096 339.938C287.096 340.274 286.976 340.562 286.736 340.802C286.496 341.042 286.202 341.162 285.854 341.162ZM289.519 329.138V327.698H291.787V329.138L291.427 337.13H289.879L289.519 329.138ZM290.653 341.162C290.305 341.162 290.017 341.042 289.789 340.802C289.561 340.562 289.447 340.274 289.447 339.938C289.447 339.602 289.561 339.314 289.789 339.074C290.017 338.834 290.305 338.714 290.653 338.714C291.001 338.714 291.295 338.834 291.535 339.074C291.775 339.314 291.895 339.602 291.895 339.938C291.895 340.274 291.775 340.562 291.535 340.802C291.295 341.042 291.001 341.162 290.653 341.162ZM294.318 329.138V327.698H296.586V329.138L296.226 337.13H294.678L294.318 329.138ZM295.452 341.162C295.104 341.162 294.816 341.042 294.588 340.802C294.36 340.562 294.246 340.274 294.246 339.938C294.246 339.602 294.36 339.314 294.588 339.074C294.816 338.834 295.104 338.714 295.452 338.714C295.8 338.714 296.094 338.834 296.334 339.074C296.574 339.314 296.694 339.602 296.694 339.938C296.694 340.274 296.574 340.562 296.334 340.802C296.094 341.042 295.8 341.162 295.452 341.162Z" fill="#4C5BD4"/>
<defs>
<radialGradient id="paint0_radial_182_4310" cx="0" cy="0" r="1" gradientUnits="userSpaceOnUse" gradientTransform="translate(186.111 229.543) scale(154.711 7.57794)">
<stop stop-color="#E8E8D0"/>
<stop offset="1" stop-color="white"/>
</radialGradient>
<linearGradient id="paint1_linear_182_4310" x1="80.1894" y1="174.899" x2="75.2531" y2="203.218" gradientUnits="userSpaceOnUse">
<stop stop-color="#A1D685"/>
<stop offset="1" stop-color="#71C782"/>
</linearGradient>
<linearGradient id="paint2_linear_182_4310" x1="63.9553" y1="177.361" x2="66.3564" y2="202.448" gradientUnits="userSpaceOnUse">
<stop offset="0.1134" stop-color="#A1D685"/>
<stop offset="1" stop-color="#71C782"/>
</linearGradient>
<linearGradient id="paint3_linear_182_4310" x1="56.3221" y1="205.949" x2="85.6445" y2="205.949" gradientUnits="userSpaceOnUse">
<stop stop-color="#805E41"/>
<stop offset="1" stop-color="#A87C56"/>
</linearGradient>
<linearGradient id="paint4_linear_182_4310" x1="277.311" y1="268.625" x2="262.972" y2="218.098" gradientUnits="userSpaceOnUse">
<stop stop-color="#FFDA5E"/>
<stop offset="1" stop-color="#E89540"/>
</linearGradient>
<linearGradient id="paint5_linear_182_4310" x1="208.091" y1="205.278" x2="208.091" y2="266.143" gradientUnits="userSpaceOnUse">
<stop stop-color="#FFDA5E"/>
<stop offset="1" stop-color="#E89540"/>
</linearGradient>
<linearGradient id="paint6_linear_182_4310" x1="138.043" y1="163.163" x2="159.485" y2="206.4" gradientUnits="userSpaceOnUse">
<stop stop-color="#FFDA5E"/>
<stop offset="1" stop-color="#E89540"/>
</linearGradient>
<linearGradient id="paint7_linear_182_4310" x1="173.855" y1="154.078" x2="175.616" y2="202.307" gradientUnits="userSpaceOnUse">
<stop stop-color="#FFDA5E"/>
<stop offset="1" stop-color="#E89540"/>
</linearGradient>
<linearGradient id="paint8_linear_182_4310" x1="161.454" y1="180.32" x2="183.432" y2="266.953" gradientUnits="userSpaceOnUse">
<stop stop-color="#FFDA5E"/>
<stop offset="1" stop-color="#E89540"/>
</linearGradient>
</defs>
</svg>
