<svg width="40" height="40" viewBox="0 0 40 40" fill="none" xmlns="http://www.w3.org/2000/svg">
<circle cx="20" cy="20" r="20" fill="url(#paint0_linear_2208_82969)"/>
<path d="M20.6471 19.3525C20.7816 19.3525 20.9124 19.3629 21.0418 19.3823C20.5371 19.7434 20.0802 20.1691 19.6855 20.6467H11.5882C11.245 20.6467 10.9159 20.783 10.6732 21.0257C10.4305 21.2684 10.2941 21.5976 10.2941 21.9408V23.882C10.2941 25.7028 12.3375 27.1172 16.1176 27.1172C16.842 27.1221 17.5653 27.0619 18.2788 26.9374C18.3862 27.3631 18.5338 27.7721 18.7136 28.1629C17.859 28.3337 16.9892 28.4169 16.1176 28.4114C11.7021 28.4114 9 26.5401 9 23.882V21.9408C9 21.2543 9.27269 20.596 9.75808 20.1106C10.2435 19.6252 10.9018 19.3525 11.5882 19.3525H20.6471Z" fill="white"/>
<path d="M28.412 14.8232C28.412 15.6812 28.0711 16.5041 27.4644 17.1109C26.8577 17.7176 26.0348 18.0585 25.1767 18.0585C24.3186 18.0585 23.4957 17.7176 22.889 17.1109C22.2823 16.5041 21.9414 15.6812 21.9414 14.8232C21.9414 13.9651 22.2823 13.1422 22.889 12.5355C23.4957 11.9288 24.3186 11.5879 25.1767 11.5879C26.0348 11.5879 26.8577 11.9288 27.4644 12.5355C28.0711 13.1422 28.412 13.9651 28.412 14.8232ZM25.1767 12.882C24.6619 12.882 24.1681 13.0865 23.8041 13.4506C23.44 13.8146 23.2355 14.3084 23.2355 14.8232C23.2355 15.338 23.44 15.8318 23.8041 16.1958C24.1681 16.5598 24.6619 16.7644 25.1767 16.7644C25.6915 16.7644 26.1853 16.5598 26.5493 16.1958C26.9134 15.8318 27.1179 15.338 27.1179 14.8232C27.1179 14.3084 26.9134 13.8146 26.5493 13.4506C26.1853 13.0865 25.6915 12.882 25.1767 12.882Z" fill="white"/>
<path d="M16.1173 9C16.7121 9 17.3011 9.11716 17.8506 9.34478C18.4002 9.57241 18.8995 9.90604 19.3201 10.3266C19.7407 10.7472 20.0743 11.2465 20.3019 11.7961C20.5296 12.3456 20.6467 12.9346 20.6467 13.5294C20.6467 14.1242 20.5296 14.7132 20.3019 15.2627C20.0743 15.8123 19.7407 16.3116 19.3201 16.7322C18.8995 17.1528 18.4002 17.4864 17.8506 17.714C17.3011 17.9417 16.7121 18.0588 16.1173 18.0588C14.916 18.0588 13.764 17.5816 12.9145 16.7322C12.0651 15.8828 11.5879 14.7307 11.5879 13.5294C11.5879 12.3281 12.0651 11.1761 12.9145 10.3266C13.764 9.4772 14.916 9 16.1173 9ZM16.1173 10.2941C15.2592 10.2941 14.4363 10.635 13.8296 11.2417C13.2229 11.8484 12.882 12.6714 12.882 13.5294C12.882 14.3875 13.2229 15.2104 13.8296 15.8171C14.4363 16.4238 15.2592 16.7647 16.1173 16.7647C16.9754 16.7647 17.7983 16.4238 18.405 15.8171C19.0117 15.2104 19.3526 14.3875 19.3526 13.5294C19.3526 12.6714 19.0117 11.8484 18.405 11.2417C17.7983 10.635 16.9754 10.2941 16.1173 10.2941Z" fill="white"/>
<path d="M31.0006 25.1761C31.0006 26.7206 30.387 28.2018 29.2949 29.2939C28.2028 30.386 26.7215 30.9996 25.177 30.9996C23.6325 30.9996 22.1513 30.386 21.0592 29.2939C19.9671 28.2018 19.3535 26.7206 19.3535 25.1761C19.3535 23.6316 19.9671 22.1503 21.0592 21.0582C22.1513 19.9661 23.6325 19.3525 25.177 19.3525C26.7215 19.3525 28.2028 19.9661 29.2949 21.0582C30.387 22.1503 31.0006 23.6316 31.0006 25.1761ZM25.8241 22.5878C25.8241 22.4162 25.7559 22.2516 25.6346 22.1303C25.5132 22.0089 25.3487 21.9408 25.177 21.9408C25.0054 21.9408 24.8409 22.0089 24.7195 22.1303C24.5982 22.2516 24.53 22.4162 24.53 22.5878V24.529H22.5888C22.4172 24.529 22.2526 24.5972 22.1313 24.7185C22.0099 24.8399 21.9418 25.0045 21.9418 25.1761C21.9418 25.3477 22.0099 25.5123 22.1313 25.6336C22.2526 25.755 22.4172 25.8231 22.5888 25.8231H24.53V27.7643C24.53 27.9359 24.5982 28.1005 24.7195 28.2218C24.8409 28.3432 25.0054 28.4114 25.177 28.4114C25.3487 28.4114 25.5132 28.3432 25.6346 28.2218C25.7559 28.1005 25.8241 27.9359 25.8241 27.7643V25.8231H27.7653C27.9369 25.8231 28.1015 25.755 28.2228 25.6336C28.3442 25.5123 28.4123 25.3477 28.4123 25.1761C28.4123 25.0045 28.3442 24.8399 28.2228 24.7185C28.1015 24.5972 27.9369 24.529 27.7653 24.529H25.8241V22.5878Z" fill="white"/>
<defs>
<linearGradient id="paint0_linear_2208_82969" x1="-3.00031e-07" y1="22.5271" x2="40.0002" y2="22.4964" gradientUnits="userSpaceOnUse">
<stop stop-color="#0086DA"/>
<stop offset="1" stop-color="#00A9E9"/>
<stop offset="1" stop-color="#00A9E9"/>
</linearGradient>
</defs>
</svg>
