<svg width="24" height="25" viewBox="0 0 24 25" fill="none" xmlns="http://www.w3.org/2000/svg">
<ellipse cx="8.16005" cy="8" rx="3.36" ry="3.5" stroke="#474747"/>
<ellipse cx="15.3599" cy="9.5" rx="1.92" ry="2" stroke="#474747"/>
<path d="M14.4 18C14.4 20.4853 14.4 22.5 7.67996 22.5C0.959961 22.5 0.959961 20.4853 0.959961 18C0.959961 15.5147 3.96861 13.5 7.67996 13.5C11.3913 13.5 14.4 15.5147 14.4 18Z" stroke="#474747"/>
<path d="M15.36 21.5C21.12 21.5 21.12 19.933 21.12 18C21.12 16.067 18.5411 14.5 15.36 14.5" stroke="#474747" stroke-linecap="round"/>
<path d="M22.08 4.50002H20.16M20.16 4.50002H18.24M20.16 4.50002L20.16 2.5M20.16 4.50002L20.16 6.5" stroke="#474747" stroke-linecap="round"/>
</svg>
