<svg width="25" height="24" viewBox="0 0 25 24" fill="none" xmlns="http://www.w3.org/2000/svg">
<path d="M12.4953 3C8.84476 3 5.48114 4.63957 3.19355 7.17187C3.12751 7.24497 3.0765 7.33037 3.04346 7.42317C3.01042 7.51598 2.99597 7.61439 3.00096 7.71278C3.00595 7.81117 3.03027 7.90762 3.07253 7.99661C3.11479 8.0856 3.17416 8.1654 3.24726 8.23144C3.39489 8.36483 3.58946 8.43411 3.78817 8.42403C3.88656 8.41905 3.98301 8.39473 4.072 8.35247C4.16099 8.31021 4.24079 8.25083 4.30683 8.17773C6.31924 5.95004 9.29586 4.5 12.4953 4.5C15.6948 4.5 18.6771 5.95069 20.6945 8.17871C20.7598 8.2548 20.8396 8.31704 20.9293 8.36176C21.019 8.40648 21.1167 8.43277 21.2168 8.43907C21.3168 8.44538 21.4171 8.43158 21.5117 8.39848C21.6063 8.36538 21.6933 8.31365 21.7676 8.24636C21.8418 8.17907 21.9019 8.09757 21.9441 8.00668C21.9864 7.9158 22.01 7.81736 22.0136 7.7172C22.0171 7.61704 22.0006 7.51717 21.9649 7.42351C21.9292 7.32985 21.8752 7.24428 21.8059 7.17187C19.5132 4.63989 16.1459 3 12.4953 3ZM20.6896 11.9883C20.529 11.9965 20.3752 12.0563 20.2511 12.1586C20.1269 12.2609 20.039 12.4005 20.0002 12.5566C19.1975 15.5672 16.0395 18 12.4953 18C8.95109 18 5.80317 15.5684 5.00019 12.5566C4.96011 12.3977 4.8691 12.2563 4.74107 12.1541C4.61304 12.0518 4.45503 11.9942 4.29121 11.9902C4.17385 11.9874 4.05746 12.0121 3.9514 12.0624C3.84535 12.1128 3.75259 12.1873 3.68058 12.28C3.60857 12.3727 3.55933 12.481 3.53682 12.5963C3.51431 12.7115 3.51916 12.8304 3.55097 12.9434C3.7908 13.8429 4.19495 14.6842 4.71894 15.4502L3.29511 16.6367C3.2167 16.6989 3.15153 16.7762 3.10343 16.8639C3.05533 16.9517 3.02529 17.0482 3.01506 17.1477C3.00483 17.2473 3.01462 17.3479 3.04387 17.4436C3.07311 17.5393 3.12121 17.6282 3.18534 17.705C3.24947 17.7819 3.32832 17.8451 3.41725 17.891C3.50619 17.9369 3.60341 17.9645 3.70319 17.9722C3.80297 17.98 3.90328 17.9677 3.99823 17.936C4.09318 17.9044 4.18084 17.8541 4.25605 17.7881L5.75117 16.541C6.29427 17.1019 6.87696 17.5956 7.55488 18.0107L6.63789 19.5996C6.58862 19.685 6.55664 19.7792 6.54379 19.8769C6.53093 19.9746 6.53745 20.0739 6.56297 20.1691C6.58849 20.2642 6.63251 20.3535 6.69252 20.4316C6.75253 20.5098 6.82735 20.5754 6.91271 20.6246C6.99807 20.6739 7.09229 20.7059 7.19 20.7187C7.28771 20.7315 7.38699 20.725 7.48217 20.6994C7.57735 20.6739 7.66657 20.6299 7.74473 20.5698C7.82289 20.5098 7.88846 20.435 7.93769 20.3496L8.88691 18.7041C9.7935 19.0793 10.7364 19.3578 11.7502 19.4385V21.25C11.7488 21.3494 11.7671 21.4481 11.8042 21.5403C11.8413 21.6325 11.8963 21.7164 11.9661 21.7872C12.0359 21.858 12.119 21.9142 12.2107 21.9526C12.3024 21.9909 12.4008 22.0107 12.5002 22.0107C12.5996 22.0107 12.698 21.9909 12.7897 21.9526C12.8814 21.9142 12.9645 21.858 13.0343 21.7872C13.1041 21.7164 13.1591 21.6325 13.1962 21.5403C13.2332 21.4481 13.2516 21.3494 13.2502 21.25V19.4375C14.2629 19.356 15.2053 19.0773 16.1115 18.7021L17.0627 20.3496C17.1119 20.435 17.1775 20.5098 17.2557 20.5698C17.3338 20.6299 17.423 20.6739 17.5182 20.6994C17.6134 20.725 17.7127 20.7315 17.8104 20.7187C17.9081 20.7059 18.0023 20.6739 18.0877 20.6246C18.173 20.5754 18.2479 20.5098 18.3079 20.4316C18.3679 20.3535 18.4119 20.2642 18.4374 20.1691C18.4629 20.0739 18.4694 19.9746 18.4566 19.8769C18.4437 19.7792 18.4118 19.685 18.3625 19.5996L17.4445 18.0088C18.1222 17.5939 18.7042 17.1003 19.2473 16.54L20.7443 17.7881C20.8195 17.8541 20.9072 17.9044 21.0021 17.936C21.0971 17.9677 21.1974 17.98 21.2972 17.9722C21.397 17.9645 21.4942 17.9369 21.5831 17.891C21.6721 17.8451 21.7509 17.7819 21.815 17.705C21.8792 17.6282 21.9273 17.5393 21.9565 17.4436C21.9858 17.3479 21.9956 17.2473 21.9853 17.1477C21.9751 17.0482 21.945 16.9517 21.8969 16.8639C21.8489 16.7762 21.7837 16.6989 21.7053 16.6367L20.2805 15.4492C20.8047 14.6836 21.2097 13.8425 21.4494 12.9434C21.4822 12.8286 21.4871 12.7077 21.4638 12.5906C21.4404 12.4736 21.3895 12.3638 21.3152 12.2704C21.2409 12.177 21.1454 12.1027 21.0366 12.0536C20.9278 12.0045 20.8088 11.9821 20.6896 11.9883Z" fill="#474747"/>
</svg>
