<svg width="44" height="44" viewBox="0 0 44 44" fill="none" xmlns="http://www.w3.org/2000/svg">
<g clip-path="url(#clip0_2016_19732)">
<path d="M4.89689 8.12983C8.9778 7.26676 8.94566 13.6249 8.35553 18.6667C7.68891 22.489 3.51115 26.0649 0 24.8249V14.1583C0 11.1894 2.10048 8.71119 4.89689 8.12983Z" fill="#FFAF1E"/>
<path d="M21.5576 1.17953L11.3032 2.75545C6.99704 3.60881 7.14726 5.34603 7.38479 6.88878L9.11557 18.0545C9.43646 20.1246 10.5581 21.9858 12.2385 23.2365C19.8931 24.6399 28.7893 0.389847 21.5576 1.17953Z" fill="#7BDFFC"/>
<path d="M11.3029 2.75549L8.1679 3.23734C5.99729 3.57156 4.50756 5.60174 4.84177 7.77244C4.94644 8.45358 6.51429 18.6526 6.51644 18.6667L10 22C10.7222 22.702 11.4741 23.0965 12.2383 23.2366L9.66132 6.61177C9.42379 5.06902 10.1081 3.59794 11.3029 2.75549Z" fill="#1ECDFA"/>
<path d="M44.0008 21.4915V32.1582C42.5798 35.7337 32.5786 29.7629 34.2082 26C35.6921 20.9273 37.4971 14.6666 40.5368 15.9529C42.5875 16.952 44.0008 19.0569 44.0008 21.4915Z" fill="#FFAF1E"/>
<path d="M37.1564 28.6667L42.4452 8.78403C43.0097 6.66138 41.7474 4.48355 39.6248 3.91825L28.8647 1.05533C24.4009 -0.103707 24.2586 1.5921 23.873 3.04204L21.1738 14.0267L22.4535 18.1855L26.4631 26L37.1564 28.6667Z" fill="#727BEB"/>
<path d="M28.8629 1.0553L25.4044 0.13508C23.2761 -0.432451 21.1005 0.84183 20.5386 2.9546L19.9057 5.33327L18.5938 10.6666L22.4517 18.1855L25.9629 3.89596C26.3485 2.44603 27.4941 1.39114 28.8629 1.0553Z" fill="#5A6CD9"/>
<path d="M28.6894 5.33325H18.0057C14.5134 5.33325 13.1758 7.37341 13.1758 8.97829V28.6666H32.6663V9.31018C32.6662 7.1137 30.8858 5.33325 28.6894 5.33325Z" fill="#F0EDFF"/>
<path d="M18.0062 5.33325C15.9681 5.33325 14.3527 5.33325 13.9769 5.33325C11.7805 5.33325 10 7.1137 10 9.31018V28.6667H15.7556V8.97838C15.7556 7.37349 16.6744 5.98698 18.0062 5.33325Z" fill="#DCDBFF"/>
<path d="M44 37.8418V32.1582C44 28.7737 41.2586 26 37.8418 26C36.9444 26 20.6918 26 19.8782 26C18.328 26 16.9218 25.0942 16.28 23.6836L15.6409 22.2764C14.6672 20.1343 12.5223 18.6666 10.0033 18.6666C5.95559 18.6666 4 21.8736 4 24.3478V37.8595C4 40.7733 4.99997 44 11.1143 44H37.8418C41.2426 44 44 41.2427 44 37.8418Z" fill="#FADE65"/>
<path d="M6.66669 37.8595V24.3478C6.66669 21.8736 8.02209 19.7291 10.0033 18.6666C8.34127 18.6666 9.01587 18.6666 6.1582 18.6666C2.7573 18.6666 0 21.4239 0 24.8248V37.8417C0 41.2427 2.7573 44 6.1582 44H11.1143C8.54588 43.2302 6.66669 40.7733 6.66669 37.8595Z" fill="#FFC647"/>
<path d="M12.0003 26.6391V26.0275C12.0003 24.9075 11.0927 24 9.9728 24H6.67641C4.79524 24.3111 4.00031 28.0296 6.66704 28.6667H9.9728C11.0928 28.6667 12.0003 27.7591 12.0003 26.6391Z" fill="#F68953"/>
<path d="M6.67601 24H6.02752C4.9075 24 4 24.9076 4 26.0275V26.6391C4 27.7591 4.90759 28.6666 6.02752 28.6666H6.66664C6.67008 24.1164 6.65899 24.3293 6.67601 24Z" fill="#DF6D2B"/>
<path d="M28.6657 11.3334C29.0339 11.3334 29.3325 11.0349 29.3325 10.6667C29.3325 10.2985 29.034 10 28.6657 10H15.7546C14.7094 10.4445 14.7094 10.8889 15.7546 11.3333L28.6657 11.3334Z" fill="#DCDBFF"/>
<path d="M13.334 10.6666C13.334 11.0348 13.6324 11.3333 14.0007 11.3333H15.7562V10H14.0007C13.6324 10 13.334 10.2985 13.334 10.6666Z" fill="#C7C7F9"/>
<path d="M28.6664 14H15.7553C14.397 14.4454 14.3912 14.8898 15.7553 15.3333H28.6664C29.0346 15.3333 29.3331 15.0349 29.3331 14.6666C29.3331 14.2985 29.0346 14 28.6664 14Z" fill="#DCDBFF"/>
<path d="M14.0007 14C13.6325 14 13.334 14.2985 13.334 14.6667C13.334 15.0349 13.6324 15.3334 14.0007 15.3334H15.7562V14.0001H14.0007V14Z" fill="#C7C7F9"/>
<path d="M28.666 19.3334H19.3327C18.9646 19.3334 18.666 19.0349 18.666 18.6667C18.666 18.2985 18.9645 18 19.3327 18H28.666C29.0342 18 29.3328 18.2985 29.3328 18.6667C29.3327 19.0349 29.0342 19.3334 28.666 19.3334Z" fill="#DCDBFF"/>
</g>
<defs>
<clipPath id="clip0_2016_19732">
<rect width="44" height="44" fill="white"/>
</clipPath>
</defs>
</svg>
