<svg width="25" height="25" viewBox="0 0 25 25" fill="none" xmlns="http://www.w3.org/2000/svg">
<g clip-path="url(#clip0_1991_14437)">
<path d="M22.625 4.34412V4.10938C22.625 2.81702 21.5736 1.76562 20.2812 1.76562H4.71875C3.42639 1.76562 2.375 2.81702 2.375 4.10938V4.34412C1.3064 4.56183 0.5 5.50885 0.5 6.64062V20.8906C0.5 22.183 1.55139 23.2344 2.84375 23.2344H22.1562C23.4486 23.2344 24.5 22.183 24.5 20.8906V6.64062C24.5 5.50885 23.6936 4.56183 22.625 4.34412ZM4.71875 2.70312H20.2812C21.0567 2.70312 21.6875 3.33392 21.6875 4.10938V4.29688H3.3125V4.10938C3.3125 3.33392 3.9433 2.70312 4.71875 2.70312ZM23.5625 20.8906C23.5625 21.6661 22.9317 22.2969 22.1562 22.2969H2.84375C2.0683 22.2969 1.4375 21.6661 1.4375 20.8906V6.64062C1.4375 5.86517 2.0683 5.23438 2.84375 5.23438H22.1562C22.9317 5.23438 23.5625 5.86517 23.5625 6.64062V20.8906Z" fill="#474747"/>
<path d="M12.3477 7.10938C12.4709 7.10938 12.5919 7.0592 12.6791 6.97205C12.7662 6.88489 12.8164 6.76385 12.8164 6.64062C12.8164 6.5174 12.7662 6.39636 12.6791 6.3092C12.5919 6.22205 12.4709 6.17188 12.3477 6.17188C12.2244 6.17188 12.1034 6.22205 12.0162 6.3092C11.9291 6.39636 11.8789 6.5174 11.8789 6.64062C11.8789 6.76385 11.9291 6.88489 12.0162 6.97205C12.1034 7.0592 12.2244 7.10938 12.3477 7.10938Z" fill="#474747"/>
<path d="M22.1094 6.17188H14.2227C13.9637 6.17188 13.7539 6.38171 13.7539 6.64062C13.7539 6.89954 13.9637 7.10938 14.2227 7.10938H21.6875V12.7979L17.9642 9.07483C17.7811 8.89172 17.4845 8.89172 17.3014 9.07483L12.3477 14.0284L11.0502 12.7311C10.8671 12.548 10.5704 12.548 10.3873 12.7311L8.0932 15.025C7.9101 15.2081 7.9101 15.5049 8.0932 15.688C8.27631 15.871 8.57312 15.871 8.75623 15.688L10.7188 13.7253L12.0161 15.0226C12.0161 15.0226 12.0161 15.0228 12.0162 15.0228L12.0164 15.023L17.4151 20.4219H4.0224L6.06586 18.3784C6.24896 18.1953 6.24896 17.8985 6.06586 17.7154C5.88275 17.5323 5.58594 17.5323 5.40283 17.7154L3.3125 19.8057V7.10938H10.4727C10.7316 7.10938 10.9414 6.89954 10.9414 6.64062C10.9414 6.38171 10.7316 6.17188 10.4727 6.17188H2.89062C2.60626 6.17188 2.375 6.40314 2.375 6.6875V20.8438C2.375 21.1124 2.58154 21.3336 2.8443 21.357C2.85968 21.3585 2.87524 21.3594 2.89062 21.3594H22.1094C22.3937 21.3594 22.625 21.1281 22.625 20.8438V6.6875C22.625 6.40314 22.3937 6.17188 22.1094 6.17188ZM18.7411 20.4219L13.0107 14.6914L17.6328 10.0691L21.6608 14.097C21.6694 14.1057 21.6785 14.1135 21.6875 14.1212V20.4219H18.7411Z" fill="#474747"/>
<path d="M6.8385 16.2799C6.75134 16.3671 6.70117 16.4875 6.70117 16.6113C6.70117 16.7346 6.75134 16.8556 6.8385 16.9427C6.92566 17.0299 7.04669 17.0801 7.16992 17.0801C7.29333 17.0801 7.41418 17.0299 7.50134 16.9427C7.5885 16.8556 7.63867 16.7346 7.63867 16.6113C7.63867 16.4875 7.5885 16.3671 7.50134 16.2799C7.41418 16.1927 7.29333 16.1426 7.16992 16.1426C7.04669 16.1426 6.92566 16.1927 6.8385 16.2799Z" fill="#474747"/>
<path d="M9.20312 10.9199C9.20312 9.83447 8.31982 8.95117 7.23438 8.95117C6.14874 8.95117 5.26562 9.83447 5.26562 10.9199C5.26562 12.0056 6.14874 12.8887 7.23438 12.8887C8.31982 12.8887 9.20312 12.0056 9.20312 10.9199ZM7.23438 11.9512C6.66565 11.9512 6.20312 11.4886 6.20312 10.9199C6.20312 10.3514 6.66565 9.88867 7.23438 9.88867C7.80292 9.88867 8.26562 10.3514 8.26562 10.9199C8.26562 11.4886 7.80292 11.9512 7.23438 11.9512Z" fill="#474747"/>
</g>
<defs>
<clipPath id="clip0_1991_14437">
<rect width="24" height="24" fill="white" transform="translate(0.5 0.5)"/>
</clipPath>
</defs>
</svg>
