<svg width="24" height="25" viewBox="0 0 24 25" fill="none" xmlns="http://www.w3.org/2000/svg">
<path d="M7.6 11.5H8.01115C8.3701 11.5 8.54958 11.5 8.70804 11.5547C8.84816 11.603 8.97579 11.6819 9.08169 11.7856C9.20143 11.9029 9.2817 12.0634 9.44223 12.3845L9.55777 12.6155C9.7183 12.9366 9.79857 13.0971 9.91831 13.2144C10.0242 13.3181 10.1518 13.397 10.292 13.4453C10.4504 13.5 10.6299 13.5 10.9889 13.5H13.0111C13.3701 13.5 13.5496 13.5 13.708 13.4453C13.8482 13.397 13.9758 13.3181 14.0817 13.2144C14.2014 13.0971 14.2817 12.9366 14.4422 12.6155L14.4422 12.6155L14.5578 12.3845L14.5578 12.3845C14.7183 12.0634 14.7986 11.9029 14.9183 11.7856C15.0242 11.6819 15.1518 11.603 15.292 11.5547C15.4504 11.5 15.6299 11.5 15.9889 11.5H16.4C16.9601 11.5 17.2401 11.5 17.454 11.609C17.6422 11.7049 17.7951 11.8578 17.891 12.046C18 12.2599 18 12.5399 18 13.1V19.9C18 20.4601 18 20.7401 17.891 20.954C17.7951 21.1422 17.6422 21.2951 17.454 21.391C17.2401 21.5 16.9601 21.5 16.4 21.5H7.6C7.03995 21.5 6.75992 21.5 6.54601 21.391C6.35785 21.2951 6.20487 21.1422 6.10899 20.954C6 20.7401 6 20.4601 6 19.9V13.1C6 12.5399 6 12.2599 6.10899 12.046C6.20487 11.8578 6.35785 11.7049 6.54601 11.609C6.75992 11.5 7.03995 11.5 7.6 11.5Z" stroke="#7FCA1D" stroke-width="2"/>
<path d="M13 16.5H11C10.4477 16.5 10 16.9477 10 17.5C10 18.0523 10.4477 18.5 11 18.5H13C13.5523 18.5 14 18.0523 14 17.5C14 16.9477 13.5523 16.5 13 16.5Z" fill="#7FCA1D"/>
<path d="M7 11.5H4.6C4.03995 11.5 3.75992 11.5 3.54601 11.609C3.35785 11.7049 3.20487 11.8578 3.10899 12.046C3 12.2599 3 12.5399 3 13.1V19.9C3 20.4601 3 20.7401 3.10899 20.954C3.20487 21.1422 3.35785 21.2951 3.54601 21.391C3.75992 21.5 4.03995 21.5 4.6 21.5H19.4C19.9601 21.5 20.2401 21.5 20.454 21.391C20.6422 21.2951 20.7951 21.1422 20.891 20.954C21 20.7401 21 20.4601 21 19.9V13.1C21 12.5399 21 12.2599 20.891 12.046C20.7951 11.8578 20.6422 11.7049 20.454 11.609C20.2401 11.5 19.9601 11.5 19.4 11.5H17" stroke="#7FCA1D" stroke-width="2"/>
<path d="M17 11.5V6.66274C17 6.41815 17 6.29586 16.9724 6.18077C16.9479 6.07873 16.9075 5.98119 16.8526 5.89172C16.7908 5.7908 16.7043 5.70432 16.5314 5.53137L14.9686 3.96863C14.7957 3.79568 14.7092 3.7092 14.6083 3.64736C14.5188 3.59253 14.4213 3.55213 14.3192 3.52763C14.2041 3.5 14.0818 3.5 13.8373 3.5H9.4C8.55992 3.5 8.13988 3.5 7.81901 3.66349C7.53677 3.8073 7.3073 4.03677 7.16349 4.31901C7 4.63988 7 5.05992 7 5.9V11.5" stroke="#7FCA1D" stroke-width="2"/>
<path d="M13 3.5L13 5.9C13 6.46005 13 6.74008 13.109 6.95399C13.2049 7.14215 13.3578 7.29513 13.546 7.39101C13.7599 7.5 14.0399 7.5 14.6 7.5L17 7.5" stroke="#7FCA1D" stroke-width="2"/>
</svg>
