<svg width="22" height="23" viewBox="0 0 22 23" fill="none" xmlns="http://www.w3.org/2000/svg">
<g id="data">
<g id="Icon">
<path d="M2.56663 20.6654C2.30994 20.6654 2.18159 20.6654 2.08355 20.6154C1.99731 20.5715 1.92719 20.5014 1.88325 20.4151C1.83329 20.3171 1.83329 20.1887 1.83329 19.932V10.3987C1.83329 10.142 1.83329 10.0137 1.88325 9.91562C1.92719 9.82938 1.99731 9.75926 2.08355 9.71532C2.18159 9.66537 2.30994 9.66537 2.56663 9.66537L4.76663 9.66537C5.02332 9.66537 5.15166 9.66537 5.24971 9.71532C5.33595 9.75926 5.40606 9.82938 5.45 9.91562C5.49996 10.0137 5.49996 10.142 5.49996 10.3987V12.5987C5.49996 12.8554 5.49996 12.9837 5.54992 13.0818C5.59386 13.168 5.66397 13.2381 5.75021 13.2821C5.84826 13.332 5.9766 13.332 6.23329 13.332H8.43329C8.68998 13.332 8.81833 13.332 8.91637 13.382C9.00261 13.4259 9.07273 13.496 9.11667 13.5823C9.16663 13.6803 9.16663 13.8087 9.16663 14.0654V16.2654C9.16663 16.5221 9.16663 16.6504 9.21658 16.7484C9.26052 16.8347 9.33064 16.9048 9.41688 16.9487C9.51492 16.9987 9.64327 16.9987 9.89996 16.9987H12.1C12.3567 16.9987 12.485 16.9987 12.583 17.0487C12.6693 17.0926 12.7394 17.1627 12.7833 17.249C12.8333 17.347 12.8333 17.4753 12.8333 17.732V19.932C12.8333 20.1887 12.8333 20.3171 12.7833 20.4151C12.7394 20.5013 12.6693 20.5715 12.583 20.6154C12.485 20.6654 12.3567 20.6654 12.1 20.6654L2.56663 20.6654Z" stroke="#3B86D4" stroke-width="1.5" stroke-linecap="round" stroke-linejoin="round"/>
<path d="M12.8333 6.73203C12.8333 6.47534 12.8333 6.34699 12.7833 6.24895C12.7394 6.16271 12.6693 6.0926 12.583 6.04865C12.485 5.9987 12.3567 5.9987 12.1 5.9987H9.89996C9.64327 5.9987 9.51492 5.9987 9.41688 6.04865C9.33064 6.0926 9.26052 6.16271 9.21658 6.24895C9.16663 6.34699 9.16663 6.47534 9.16663 6.73203V8.93203C9.16663 9.18872 9.16663 9.31707 9.21658 9.41511C9.26052 9.50135 9.33064 9.57147 9.41688 9.61541C9.51492 9.66536 9.64327 9.66536 9.89996 9.66536H12.1C12.3567 9.66536 12.485 9.66536 12.583 9.61541C12.6693 9.57147 12.7394 9.50135 12.7833 9.41511C12.8333 9.31707 12.8333 9.18872 12.8333 8.93203V6.73203Z" stroke="#3B86D4" stroke-width="1.5" stroke-linecap="round" stroke-linejoin="round"/>
<path d="M19.25 12.232C19.25 11.9753 19.25 11.847 19.2 11.749C19.1561 11.6627 19.0859 11.5926 18.9997 11.5487C18.9017 11.4987 18.7733 11.4987 18.5166 11.4987H16.3166C16.0599 11.4987 15.9316 11.4987 15.8335 11.5487C15.7473 11.5926 15.6772 11.6627 15.6332 11.749C15.5833 11.847 15.5833 11.9753 15.5833 12.232V14.432C15.5833 14.6887 15.5833 14.8171 15.6332 14.9151C15.6772 15.0014 15.7473 15.0715 15.8335 15.1154C15.9316 15.1654 16.0599 15.1654 16.3166 15.1654H18.5166C18.7733 15.1654 18.9017 15.1654 18.9997 15.1154C19.0859 15.0715 19.1561 15.0014 19.2 14.9151C19.25 14.8171 19.25 14.6887 19.25 14.432V12.232Z" stroke="#3B86D4" stroke-width="1.5" stroke-linecap="round" stroke-linejoin="round"/>
<path d="M20.1666 3.06536C20.1666 2.80867 20.1666 2.68033 20.1167 2.58229C20.0727 2.49604 20.0026 2.42593 19.9164 2.38199C19.8183 2.33203 19.69 2.33203 19.4333 2.33203H17.2333C16.9766 2.33203 16.8483 2.33203 16.7502 2.38199C16.664 2.42593 16.5939 2.49604 16.5499 2.58229C16.5 2.68033 16.5 2.80867 16.5 3.06536V5.26536C16.5 5.52206 16.5 5.6504 16.5499 5.74844C16.5939 5.83468 16.664 5.9048 16.7502 5.94874C16.8483 5.9987 16.9766 5.9987 17.2333 5.9987H19.4333C19.69 5.9987 19.8183 5.9987 19.9164 5.94874C20.0026 5.9048 20.0727 5.83468 20.1167 5.74844C20.1666 5.6504 20.1666 5.52206 20.1666 5.26536V3.06536Z" stroke="#3B86D4" stroke-width="1.5" stroke-linecap="round" stroke-linejoin="round"/>
</g>
</g>
</svg>
