<svg width="15" height="16" viewBox="0 0 15 16" fill="none" xmlns="http://www.w3.org/2000/svg">
<g id="paperclip" clip-path="url(#clip0_2734_181797)">
<path id="Vector" d="M13.3999 7.40608L7.65619 13.1498C6.95253 13.8535 5.99818 14.2488 5.00306 14.2488C4.00795 14.2488 3.05359 13.8535 2.34994 13.1498C1.64628 12.4462 1.25098 11.4918 1.25098 10.4967C1.25098 9.50159 1.64628 8.54723 2.34994 7.84358L8.09369 2.09983C8.56279 1.63073 9.19903 1.36719 9.86244 1.36719C10.5258 1.36719 11.1621 1.63073 11.6312 2.09983C12.1003 2.56893 12.3638 3.20517 12.3638 3.86858C12.3638 4.53199 12.1003 5.16823 11.6312 5.63733L5.88119 11.3811C5.64664 11.6156 5.32852 11.7474 4.99681 11.7474C4.66511 11.7474 4.34699 11.6156 4.11244 11.3811C3.87789 11.1465 3.74612 10.8284 3.74612 10.4967C3.74612 10.165 3.87789 9.84688 4.11244 9.61233L9.41869 4.31233" stroke="#666666" stroke-width="1.5" stroke-linecap="round" stroke-linejoin="round"/>
</g>
<defs>
<clipPath id="clip0_2734_181797">
<rect width="15" height="15" fill="white" transform="translate(0 0.5)"/>
</clipPath>
</defs>
</svg>
