<svg width="24" height="25" viewBox="0 0 24 25" fill="none" xmlns="http://www.w3.org/2000/svg">
<path d="M11.0401 1.46002V3.42127C5.92506 3.90587 1.91443 8.21957 1.91443 13.46C1.91443 19.0243 6.43572 23.5456 12.0001 23.5456C17.5644 23.5456 22.0857 19.0243 22.0857 13.46C22.0857 8.21957 18.0751 3.90587 12.9601 3.42127V1.46002H11.0401ZM20.1807 1.94002L18.8232 3.29752L19.4429 3.91721L18.7201 4.64096L19.516 5.4369L20.2388 4.71315L20.8594 5.33377L22.2169 3.97627L20.1807 1.94002ZM12.0001 4.34565C17.0396 4.34565 21.1144 8.42048 21.1144 13.46C21.1144 18.4996 17.0396 22.5744 12.0001 22.5744C6.96051 22.5744 2.88568 18.4996 2.88568 13.46C2.88568 11.1153 3.77572 8.98665 5.22662 7.37283L10.6988 12.846C10.5954 13.0653 10.549 13.3073 10.5641 13.5493C10.5791 13.7914 10.6551 14.0258 10.7849 14.2306C10.9147 14.4355 11.0941 14.6043 11.3065 14.7213C11.519 14.8383 11.7575 14.8998 12.0001 14.9C12.2125 14.8996 12.4222 14.8522 12.6141 14.7613L13.3538 15.501C13.3989 15.5461 13.4525 15.5819 13.5114 15.6063C13.5704 15.6308 13.6336 15.6434 13.6974 15.6434C13.7612 15.6434 13.8244 15.6308 13.8834 15.6064C13.9424 15.582 13.996 15.5462 14.0411 15.5011C14.0862 15.4559 14.122 15.4023 14.1464 15.3434C14.1709 15.2844 14.1834 15.2212 14.1834 15.1574C14.1834 15.0936 14.1708 15.0304 14.1464 14.9714C14.1219 14.9125 14.0861 14.8589 14.041 14.8138L13.3013 14.0741C13.4047 13.8547 13.4511 13.6128 13.436 13.3707C13.421 13.1286 13.345 12.8943 13.2152 12.6894C13.0855 12.4845 12.906 12.3157 12.6936 12.1987C12.4811 12.0817 12.2426 12.0202 12.0001 12.02V11.54H10.7672L9.8063 10.58H12.0001V9.62002H8.8463L7.8863 8.66002H12.0001V7.70002H6.9263L5.9663 6.74002H12.0001V5.78002H7.10068C7.72348 5.38226 8.3966 5.05828 9.11068 4.82002H12.0001V4.34565Z" fill="#474747"/>
</svg>
