<svg width="20" height="20" viewBox="0 0 20 20" fill="none" xmlns="http://www.w3.org/2000/svg">
<g id="bank-note-03">
<path id="Icon" d="M11.667 7.50033H9.58366C8.8933 7.50033 8.33366 8.05997 8.33366 8.75033C8.33366 9.44068 8.8933 10.0003 9.58366 10.0003H10.417C11.1073 10.0003 11.667 10.56 11.667 11.2503C11.667 11.9407 11.1073 12.5003 10.417 12.5003H8.33366M10.0003 6.66699V7.50033M10.0003 12.5003V13.3337M15.0003 10.0003H15.0087M5.00033 10.0003H5.00866M1.66699 6.83366L1.66699 13.167C1.66699 14.1004 1.66699 14.5671 1.84865 14.9236C2.00844 15.2372 2.2634 15.4922 2.57701 15.652C2.93353 15.8337 3.40024 15.8337 4.33366 15.8337L15.667 15.8337C16.6004 15.8337 17.0671 15.8337 17.4236 15.652C17.7372 15.4922 17.9922 15.2372 18.152 14.9236C18.3337 14.5671 18.3337 14.1004 18.3337 13.167V6.83366C18.3337 5.90024 18.3337 5.43353 18.152 5.07701C17.9922 4.76341 17.7372 4.50844 17.4236 4.34865C17.0671 4.16699 16.6004 4.16699 15.667 4.16699L4.33366 4.16699C3.40024 4.16699 2.93353 4.16699 2.57701 4.34865C2.2634 4.50844 2.00844 4.7634 1.84865 5.07701C1.66699 5.43353 1.66699 5.90024 1.66699 6.83366ZM15.417 10.0003C15.417 10.2304 15.2304 10.417 15.0003 10.417C14.7702 10.417 14.5837 10.2304 14.5837 10.0003C14.5837 9.77021 14.7702 9.58366 15.0003 9.58366C15.2304 9.58366 15.417 9.77021 15.417 10.0003ZM5.41699 10.0003C5.41699 10.2304 5.23044 10.417 5.00033 10.417C4.77021 10.417 4.58366 10.2304 4.58366 10.0003C4.58366 9.77021 4.77021 9.58366 5.00033 9.58366C5.23044 9.58366 5.41699 9.77021 5.41699 10.0003Z" stroke="#3B86D4" stroke-width="1.5" stroke-linecap="round" stroke-linejoin="round"/>
</g>
</svg>
