<svg width="25" height="25" viewBox="0 0 25 25" fill="none" xmlns="http://www.w3.org/2000/svg">
<g clip-path="url(#clip0_1991_14529)">
<path d="M21.787 24.3124H3.2132C2.33195 24.3124 1.54258 23.8568 1.10195 23.0937C0.661328 22.3306 0.661328 21.4193 1.10195 20.6562L10.3888 4.57056C10.8295 3.80743 11.6188 3.35181 12.5001 3.35181C13.3813 3.35181 14.1707 3.80743 14.6113 4.57056L23.8982 20.6562C24.3388 21.4193 24.3388 22.3306 23.8982 23.0937C23.4576 23.8568 22.6682 24.3124 21.787 24.3124ZM12.5001 4.47681C12.0257 4.47681 11.6001 4.72243 11.3638 5.13306L2.07695 21.2187C1.8407 21.6293 1.8407 22.1206 2.07695 22.5312C2.31508 22.9418 2.73883 23.1874 3.2132 23.1874H21.787C22.2613 23.1874 22.687 22.9418 22.9232 22.5312C23.1613 22.1206 23.1613 21.6293 22.9232 21.2187L13.6363 5.13306C13.4001 4.72243 12.9745 4.47681 12.5001 4.47681Z" fill="#474747"/>
<path d="M12.5 20.5625C12.1887 20.5625 11.9375 20.3112 11.9375 20V19.0625C11.9375 18.7512 12.1887 18.5 12.5 18.5C12.8112 18.5 13.0625 18.7512 13.0625 19.0625V20C13.0625 20.3112 12.8112 20.5625 12.5 20.5625Z" fill="#474747"/>
<path d="M12.5 16.8125C12.1887 16.8125 11.9375 16.5613 11.9375 16.25V10.625C11.9375 10.3137 12.1887 10.0625 12.5 10.0625C12.8112 10.0625 13.0625 10.3137 13.0625 10.625V16.25C13.0625 16.5613 12.8112 16.8125 12.5 16.8125Z" fill="#474747"/>
</g>
<defs>
<clipPath id="clip0_1991_14529">
<rect width="24" height="24" fill="white" transform="translate(0.5 0.5)"/>
</clipPath>
</defs>
</svg>
