<svg width="20" height="20" viewBox="0 0 20 20" fill="none" xmlns="http://www.w3.org/2000/svg">
<g id="bar-chart-square-minus">
<path id="Icon" d="M9.99935 2.5H13.4993C14.8995 2.5 15.5995 2.5 16.1343 2.77248C16.6047 3.01217 16.9872 3.39462 17.2269 3.86502C17.4993 4.3998 17.4993 5.09987 17.4993 6.5V13.5C17.4993 14.9001 17.4993 15.6002 17.2269 16.135C16.9872 16.6054 16.6047 16.9878 16.1343 17.2275C15.5995 17.5 14.8995 17.5 13.4993 17.5H6.49935C5.09922 17.5 4.39915 17.5 3.86437 17.2275C3.39397 16.9878 3.01152 16.6054 2.77183 16.135C2.49935 15.6002 2.49935 14.9001 2.49935 13.5V10M6.66602 10.8333V14.1667M13.3327 9.16667V14.1667M9.99935 5.83333V14.1667M1.66602 4.16667H6.66602" stroke="#E74C3C" stroke-width="1.5" stroke-linecap="round" stroke-linejoin="round"/>
</g>
</svg>
