<svg width="22" height="24" viewBox="0 0 22 24" fill="none" xmlns="http://www.w3.org/2000/svg">
<path d="M14.4179 18.7647V19.6102C14.4179 20.5072 14.058 21.3674 13.4175 22.0016C12.777 22.6358 11.9083 22.9921 11.0025 22.9921C10.0967 22.9921 9.22794 22.6358 8.58743 22.0016C7.94692 21.3674 7.58709 20.5072 7.58709 19.6102V18.7647M20.1642 17.0437C18.7938 15.3828 17.8263 14.5374 17.8263 9.95859C17.8263 5.76556 15.6639 4.27171 13.8842 3.54619C13.6478 3.45002 13.4253 3.22914 13.3532 2.98871C13.041 1.93662 12.1658 1.00977 11.0025 1.00977C9.83911 1.00977 8.96338 1.93715 8.6544 2.98976C8.58235 3.23284 8.35982 3.45002 8.12341 3.54619C6.34154 4.27277 4.18131 5.76134 4.18131 9.95859C4.17864 14.5374 3.21113 15.3828 1.8407 17.0437C1.2729 17.7317 1.77026 18.7647 2.76339 18.7647H19.2469C20.2347 18.7647 20.7288 17.7285 20.1642 17.0437Z" stroke="white" stroke-width="1.5" stroke-linecap="round" stroke-linejoin="round"/>
</svg>
