<svg width="24" height="24" viewBox="0 0 24 24" fill="none" xmlns="http://www.w3.org/2000/svg">
<path d="M21.8942 16.5702C21.8053 16.463 21.718 16.3559 21.6323 16.2525C20.4537 14.827 19.7407 13.9666 19.7407 9.93107C19.7407 7.84179 19.2408 6.1275 18.2557 4.84179C17.5292 3.89196 16.5473 3.17143 15.253 2.63893C15.2363 2.62966 15.2215 2.61751 15.2091 2.60304C14.7435 1.04411 13.4696 0 12.0328 0C10.596 0 9.32263 1.04411 8.85709 2.60143C8.84467 2.61537 8.83 2.62714 8.8137 2.63625C5.79334 3.87964 4.32548 6.26518 4.32548 9.92946C4.32548 13.9666 3.61352 14.827 2.43388 16.2509C2.34816 16.3543 2.26084 16.4593 2.17191 16.5686C1.9422 16.8456 1.79666 17.1826 1.75251 17.5398C1.70836 17.897 1.76746 18.2593 1.9228 18.5839C2.25334 19.2804 2.9578 19.7127 3.76191 19.7127H20.3096C21.1099 19.7127 21.8096 19.2809 22.1412 18.5877C22.2972 18.263 22.3569 17.9003 22.3131 17.5428C22.2693 17.1852 22.124 16.8477 21.8942 16.5702ZM12.0328 24C12.8069 23.9994 13.5665 23.7892 14.2308 23.3919C14.8952 22.9945 15.4396 22.4248 15.8064 21.743C15.8237 21.7104 15.8322 21.6738 15.8311 21.6368C15.8301 21.5999 15.8195 21.5638 15.8004 21.5322C15.7814 21.5005 15.7544 21.4744 15.7222 21.4562C15.69 21.4381 15.6537 21.4285 15.6167 21.4286H8.44995C8.41294 21.4284 8.37654 21.4379 8.34427 21.456C8.31201 21.4741 8.28498 21.5003 8.26583 21.532C8.24668 21.5636 8.23606 21.5997 8.235 21.6367C8.23393 21.6737 8.24247 21.7103 8.25977 21.743C8.62648 22.4247 9.17083 22.9944 9.83509 23.3917C10.4994 23.7891 11.2588 23.9993 12.0328 24Z" fill="white"/>
</svg>
