<svg width="150" height="150" viewBox="0 0 150 150" fill="none" xmlns="http://www.w3.org/2000/svg">
<path d="M75 134.892C110.896 134.892 140 107.605 140 73.9459C140 40.2863 110.896 13 75 13C39.1037 13 10 40.2863 10 73.9459C10 89.2694 16.0369 103.287 26.0063 113.996C25.2181 122.842 22.6181 132.541 19.7419 139.82C19.1 141.439 20.3431 143.25 21.96 142.971C40.29 139.75 51.1856 134.805 55.9225 132.228C62.1455 134.006 68.5595 134.902 75 134.892Z" fill="url(#paint0_linear_230_31425)"/>
<path d="M45.1919 76.2061C45.1919 78.6198 44.4414 80.5104 42.9354 81.8829C41.4042 83.24 39.2888 83.9185 36.5841 83.9185H23V78.278H34.2521C35.5717 78.278 36.5337 78.0501 37.1331 77.5994C37.7325 77.1333 38.0347 76.4133 38.0347 75.4292C38.0347 74.5228 37.7476 73.8132 37.1734 73.3004C36.574 72.8083 35.6019 72.5649 34.2571 72.5649L25.0751 72.6012V66.9658H34.0859C35.4458 66.9658 36.4229 66.7483 37.0223 66.308C37.5965 65.8833 37.8836 65.1788 37.8836 64.1947C37.8836 63.2624 37.5965 62.5683 37.0223 62.1022C36.7301 61.8484 36.3423 61.6671 35.8638 61.5531C35.3602 61.4547 34.7709 61.4029 34.0859 61.4029H23V55.7676H36.0149C39.0269 55.7676 41.3085 56.3891 42.8599 57.6322C44.391 58.8909 45.1566 60.8435 45.1566 63.4955C45.1566 64.8266 44.8695 66.0076 44.2953 67.0383C43.696 68.069 42.9203 68.9755 41.9633 69.7524C43.016 70.4206 43.7816 71.2182 44.2601 72.1454C44.8796 73.2331 45.1919 74.5849 45.1919 76.2061Z" fill="white"/>
<path d="M72.3386 75.2764C72.3386 78.2287 71.296 80.4663 69.2158 81.9891C67.1356 83.5119 64.1388 84.2681 60.2202 84.2681C55.5965 84.2681 52.1765 83.1234 49.9603 80.834C47.7593 78.5602 46.6562 74.9915 46.6562 70.1227C46.6562 65.2073 47.8348 61.5816 50.1971 59.2456C52.524 56.92 56.1505 55.7598 61.0815 55.7598H70.9182L70.8981 61.3951H60.9404C58.4674 61.3951 56.6743 61.8872 55.5612 62.8661C55.0374 63.3323 54.6395 63.9228 54.3675 64.6375C54.0603 65.3938 53.9092 66.2587 53.9092 67.2377H62.794C65.9973 67.2377 68.3898 67.8955 69.9713 69.2059C71.5478 70.5319 72.3386 72.5519 72.3386 75.2764ZM65.2317 75.5768C65.2317 74.6704 65.0051 73.9867 64.5518 73.5205C64.0985 73.0958 63.4084 72.8782 62.4766 72.8782H53.9444C53.9444 74.7998 54.4682 76.2553 55.5209 77.2342C56.5484 78.2391 58.1954 78.7415 60.4569 78.7415C62.1845 78.7415 63.4034 78.4825 64.1287 77.9697C64.8691 77.457 65.2317 76.6593 65.2317 75.5768Z" fill="white"/>
<path d="M97.3038 75.3929C97.3038 78.1433 96.4627 80.2566 94.7905 81.7275C93.1032 83.1882 90.7208 83.9133 87.6484 83.9133H73.2383V78.278H86.3993C87.6937 78.278 88.6104 78.0501 89.1342 77.5994C89.6379 77.1592 89.8847 76.4237 89.8847 75.3929C89.8847 74.3363 89.6329 73.5749 89.1342 73.1139C88.6104 72.6737 87.6937 72.4561 86.3993 72.4561H73.2383V55.7676H95.964L95.9439 61.4029H79.9724V66.8518H88.8723C91.4562 66.8518 93.5212 67.5873 95.0776 69.0583C95.7978 69.8249 96.3569 70.7262 96.7498 71.7569C97.1175 72.8083 97.3038 74.0255 97.3038 75.3929Z" fill="white"/>
<path fill-rule="evenodd" clip-rule="evenodd" d="M100.578 92.8252L110.636 83.502L121.586 86.7703C121.586 86.7703 128.809 89.8832 124.775 95.0938C122.956 96.9377 121.234 98.6833 114.877 96.9222C113.074 96.3058 100.578 92.8252 100.578 92.8252Z" fill="white"/>
<path fill-rule="evenodd" clip-rule="evenodd" d="M42.3251 86.2315C42.4309 86.4801 42.5215 86.7339 42.6323 86.9826C42.8288 87.4228 43.0453 87.8476 43.2821 88.2671C43.8764 89.3134 44.5967 90.2819 45.4227 91.1469C46.4603 92.2295 47.664 93.1411 48.9685 93.8507C50.6156 94.7519 52.4086 95.3372 54.237 95.6687C56.6496 96.109 59.1226 96.1245 61.5604 95.8862C64.8544 95.5651 68.1031 94.7933 71.2611 93.7937C80.3525 90.9139 88.7487 86.6718 95.8606 80.1041C95.9663 80.0057 96.0721 79.9073 96.1829 79.8089C101.104 75.2042 107.153 68.7402 106.408 61.266C105.934 56.5423 100.358 53.9007 96.4247 52.9373C94.7475 52.5281 95.0648 49.9591 96.7873 50.0005C104.73 50.1973 112.844 52.409 115.559 59.4118C115.574 59.4532 115.589 59.4946 115.605 59.5412C116.285 61.7944 116.431 64.2339 116.244 66.5699C115.892 71.0347 114.219 75.2871 111.822 79.0009C107.818 85.2112 101.975 90.0023 95.8555 93.861C90.6929 97.119 85.364 99.6518 79.602 101.496C75.5424 102.796 71.4072 103.863 67.1915 104.474C62.472 105.158 57.5562 105.308 52.9022 104.111C48.2181 102.91 44.0728 100.196 41.4134 95.995C39.7916 93.4363 38.7742 90.5254 38.1647 87.5471C37.9834 86.6718 38.2101 85.4857 38.9555 84.9159C39.9075 84.1908 41.4437 84.8382 42.0632 85.7239C42.169 85.8949 42.2546 86.0606 42.3251 86.2315Z" fill="white"/>
<path fill-rule="evenodd" clip-rule="evenodd" d="M45.3555 85.7377C45.3555 85.7377 59.3022 98.7125 83.2469 84.8105C80.5774 88.053 50.7649 102.882 45.3555 85.7377Z" fill="white"/>
<defs>
<linearGradient id="paint0_linear_230_31425" x1="20.8333" y1="116.608" x2="137.77" y2="52.4109" gradientUnits="userSpaceOnUse">
<stop stop-color="#4250C2"/>
<stop offset="1" stop-color="#00A1FF"/>
</linearGradient>
</defs>
</svg>
