<svg width="25" height="25" viewBox="0 0 25 25" fill="none" xmlns="http://www.w3.org/2000/svg">
<path d="M5.78046 1.93994C5.65316 1.93995 5.53108 1.99053 5.44106 2.08054C5.35105 2.17056 5.30047 2.29264 5.30046 2.41994V9.13994C5.30047 9.26724 5.35105 9.38932 5.44106 9.47934C5.53108 9.56935 5.65316 9.61993 5.78046 9.61994H7.70046V16.6043L5.8114 14.7153C5.2046 14.1085 4.2071 13.9845 3.51452 14.5512C2.74316 15.1821 2.69557 16.3507 3.38796 17.0431L8.43827 22.0784C9.06775 22.7067 9.92189 23.0599 10.8111 23.0599H14.9005C16.7505 23.0599 18.2605 21.55 18.2605 19.6999V15.2084C18.2605 14.3503 17.6426 13.5574 16.752 13.4684C16.3527 13.4284 15.9933 13.5607 15.6842 13.7637C15.4916 13.1291 15.0557 12.5792 14.352 12.5084C13.8925 12.4623 13.4713 12.6215 13.1408 12.8881C12.8805 12.4443 12.5037 12.0839 11.952 12.0284C11.6269 11.9958 11.3316 12.0845 11.0605 12.2187V9.61994H12.5005C12.6278 9.61993 12.7498 9.56935 12.8399 9.47934C12.9299 9.38932 12.9804 9.26724 12.9805 9.13994V2.41994C12.9804 2.29264 12.9299 2.17056 12.8399 2.08054C12.7498 1.99053 12.6278 1.93995 12.5005 1.93994H5.78046ZM14.9005 1.93994C14.7732 1.93995 14.6511 1.99053 14.5611 2.08054C14.471 2.17056 14.4205 2.29264 14.4205 2.41994V9.13994C14.4205 9.26724 14.471 9.38932 14.5611 9.47934C14.6511 9.56935 14.7732 9.61993 14.9005 9.61994H21.6205C21.7478 9.61993 21.8698 9.56935 21.9599 9.47934C22.0499 9.38932 22.1004 9.26724 22.1005 9.13994V2.41994C22.1004 2.29264 22.0499 2.17056 21.9599 2.08054C21.8698 1.99053 21.7478 1.93995 21.6205 1.93994H14.9005ZM6.26046 2.89994H12.0205V8.65994H11.0333C10.9059 7.92823 10.3341 7.30713 9.55202 7.22838C9.3901 7.21215 9.23406 7.22733 9.08234 7.25557L11.4176 4.6615L10.7033 4.01838L8.85734 6.07057L7.53265 4.93525L6.90827 5.66463L8.8339 7.31463C8.25294 7.51858 7.81893 8.03606 7.72671 8.65994H6.26046V2.89994ZM15.3805 2.89994H21.1405V8.65994H15.3805V2.89994ZM9.29421 8.18369C9.34642 8.17804 9.40073 8.17811 9.4564 8.18369C9.81529 8.21983 10.1005 8.57075 10.1005 8.96838V9.05932C10.0919 9.11115 10.0919 9.16404 10.1005 9.21588V13.6999C10.1022 13.8261 10.1536 13.9464 10.2434 14.035C10.3332 14.1236 10.4543 14.1732 10.5805 14.1732C10.7066 14.1732 10.8277 14.1236 10.9175 14.035C11.0073 13.9464 11.0587 13.8261 11.0605 13.6999C11.0605 13.2715 11.411 12.9391 11.8564 12.9837C12.2153 13.0198 12.5005 13.3708 12.5005 13.7684V14.1799C12.5022 14.3061 12.5536 14.4264 12.6434 14.515C12.7332 14.6036 12.8543 14.6532 12.9805 14.6532C13.1066 14.6532 13.2277 14.6036 13.3175 14.515C13.4073 14.4264 13.4587 14.3061 13.4605 14.1799C13.4605 13.7515 13.811 13.4191 14.2564 13.4637C14.6153 13.4998 14.9005 13.8508 14.9005 14.2484V15.1399C14.9022 15.2661 14.9536 15.3864 15.0434 15.475C15.1332 15.5636 15.2543 15.6132 15.3805 15.6132C15.5066 15.6132 15.6277 15.5636 15.7175 15.475C15.8073 15.3864 15.8587 15.2661 15.8605 15.1399C15.8605 14.7115 16.211 14.3791 16.6564 14.4237C17.0148 14.4595 17.3005 14.8108 17.3005 15.2084V19.6999C17.3005 21.0313 16.2318 22.0999 14.9005 22.0999H10.8111C10.1758 22.0999 9.56659 21.8484 9.11702 21.3996L9.11609 21.3987L4.06577 16.3634C3.76362 16.0602 3.77725 15.5774 4.12296 15.2946C4.4019 15.0664 4.85144 15.1128 5.13265 15.394L7.84109 18.1024C7.90822 18.1695 7.99374 18.2152 8.08684 18.2337C8.17993 18.2522 8.27642 18.2427 8.36411 18.2064C8.4518 18.1701 8.52675 18.1086 8.5795 18.0297C8.63225 17.9508 8.66042 17.858 8.66046 17.7631V8.89994C8.66046 8.52507 8.92875 8.22329 9.29421 8.18369Z" fill="#474747"/>
</svg>
