<svg width="20" height="20" viewBox="0 0 20 20" fill="none" xmlns="http://www.w3.org/2000/svg">
<g clip-path="url(#clip0_656_9488)">
<path d="M12.4625 -0.0249939L12.175 0.262506L9.80005 2.65001C9.79536 2.65469 9.79223 2.65782 9.78755 2.66251L7.31255 5.12501C7.30317 5.13282 7.29536 5.14063 7.28755 5.15001L7.26255 5.16251C7.26255 5.16719 7.26255 5.17032 7.26255 5.17501L4.85005 7.58751C4.73442 7.70157 4.70005 7.87501 4.76255 8.02501C4.76255 8.02501 5.13442 8.88438 5.41255 9.82501C5.55161 10.2953 5.66723 10.7859 5.70005 11.175C5.73286 11.5641 5.65005 11.8125 5.61255 11.85C4.93755 12.525 4.27505 12.8391 3.62505 13.1125C2.97505 13.3859 2.3188 13.6188 1.78755 14.15C1.01098 14.9266 0.439109 15.9094 0.175047 16.8625C-0.0890155 17.8156 -0.0546407 18.7953 0.575047 19.425C1.2063 20.0563 2.18442 20.0891 3.13755 19.825C4.09067 19.5609 5.07348 18.9875 5.85005 18.2125C6.3813 17.6813 6.72817 16.9188 7.07505 16.1875C7.42192 15.4563 7.77973 14.7578 8.15005 14.3875C8.2438 14.2938 8.49848 14.2109 8.88755 14.2375C9.27661 14.2641 9.75317 14.3781 10.2125 14.525C11.1313 14.8188 11.95 15.225 11.95 15.225C12.1047 15.3016 12.2907 15.2719 12.4125 15.15L14.825 12.7375C14.8344 12.7297 14.8422 12.7219 14.85 12.7125L17.95 9.61251L18.0125 9.56251C18.0422 9.53282 18.0672 9.50001 18.0875 9.46251L19.7375 7.82501L20.025 7.53751L19.7375 7.26251L12.7375 0.262506L12.4625 -0.0249939ZM12.45 1.10001L18.9 7.55001L17.5125 8.93751C17.4907 8.95157 17.4688 8.96876 17.45 8.98751C17.4532 8.98438 17.3391 9.08907 17.2 9.17501C17.061 9.26094 16.8797 9.34376 16.7 9.41251C16.5204 9.48126 16.3454 9.52657 16.2125 9.52501C16.0954 9.52345 16.0329 9.49688 15.975 9.45001C15.9735 9.43751 15.9657 9.40626 15.975 9.33751C15.9938 9.20001 16.0532 8.98282 16.1125 8.75001C16.1719 8.51719 16.2266 8.26563 16.225 7.98751C16.2235 7.70938 16.1391 7.38907 15.9 7.15001C15.6625 6.91251 15.3485 6.82344 15.075 6.82501C14.8016 6.82657 14.55 6.89376 14.325 6.95001C14.1 7.00626 13.8985 7.05626 13.7625 7.06251C13.6266 7.06876 13.6016 7.05157 13.5625 7.01251C13.361 6.81094 13.2954 6.58594 13.5 6.10001C13.6204 5.81407 13.825 5.36719 13.95 4.92501C14.0125 4.70313 14.0594 4.48594 14.0625 4.26251C14.0657 4.03907 14.025 3.78751 13.825 3.58751C13.6516 3.41407 13.4079 3.34219 13.2 3.33751C12.9922 3.33282 12.7969 3.37344 12.6 3.43751C12.2079 3.56719 11.8172 3.79063 11.4875 4.00001C11.3204 4.10626 11.0063 4.26719 10.725 4.33751C10.4438 4.40782 10.2641 4.37657 10.175 4.28751C9.94067 4.05313 9.96723 3.90626 10.0375 3.70001C10.1079 3.49376 10.2875 3.28751 10.35 3.22501C10.3688 3.20626 10.386 3.18438 10.4 3.16251C10.4094 3.15001 10.4172 3.13751 10.425 3.12501L12.45 1.10001ZM13.1875 4.13751C13.2469 4.13907 13.2469 4.14688 13.25 4.15001C13.2532 4.16407 13.2641 4.19532 13.2625 4.25001C13.261 4.35938 13.2266 4.52969 13.175 4.71251C13.0719 5.07813 12.886 5.49376 12.7625 5.78751C12.4782 6.46094 12.5688 7.14219 13 7.57501C13.2313 7.80626 13.5516 7.87501 13.8125 7.86251C14.0735 7.85001 14.3063 7.77969 14.525 7.72501C14.7438 7.67032 14.936 7.62657 15.075 7.62501C15.2141 7.62344 15.2719 7.64688 15.3375 7.71251C15.4016 7.77657 15.4235 7.84063 15.425 7.98751C15.4266 8.13438 15.3922 8.33438 15.3375 8.55001C15.2829 8.76563 15.2063 8.99063 15.175 9.22501C15.1438 9.45938 15.1407 9.76563 15.375 10C15.586 10.2109 15.8657 10.2953 16.125 10.3125L14.55 11.8875L8.11255 5.45001L9.26255 4.28751C9.32348 4.48751 9.43755 4.68751 9.61255 4.86251C9.98598 5.23594 10.5157 5.21407 10.925 5.11251C11.3344 5.01094 11.6954 4.82188 11.925 4.67501C12.2219 4.48594 12.5688 4.29219 12.85 4.20001C12.9907 4.15313 13.1172 4.13594 13.1875 4.13751ZM7.55005 6.02501L13.975 12.45L12.0375 14.4C11.8329 14.3016 11.3047 14.0313 10.4625 13.7625C9.96723 13.6047 9.43442 13.4703 8.93755 13.4375C8.44067 13.4047 7.93286 13.4672 7.57505 13.825C7.0438 14.3563 6.70942 15.1063 6.36255 15.8375C6.01567 16.5688 5.65942 17.2781 5.28755 17.65C4.61411 18.3234 3.72348 18.8297 2.92505 19.05C2.12661 19.2703 1.48598 19.1859 1.15005 18.85C0.815672 18.5141 0.729734 17.8719 0.950047 17.075C1.17036 16.2781 1.67661 15.3859 2.35005 14.7125C2.72036 14.3406 3.26255 14.1344 3.93755 13.85C4.61255 13.5656 5.40005 13.2 6.17505 12.425C6.52192 12.0781 6.54067 11.5953 6.50005 11.1125C6.45942 10.6297 6.33598 10.1 6.18755 9.60001C5.9313 8.73594 5.67192 8.17344 5.58755 7.97501L7.55005 6.02501ZM2.80005 16.4C2.35786 16.4 2.00005 16.7578 2.00005 17.2C2.00005 17.6422 2.35786 18 2.80005 18C3.24223 18 3.60005 17.6422 3.60005 17.2C3.60005 16.7578 3.24223 16.4 2.80005 16.4Z" fill="#474747"/>
</g>
<defs>
<clipPath id="clip0_656_9488">
<rect width="20" height="20" fill="white"/>
</clipPath>
</defs>
</svg>
