<svg width="25" height="25" viewBox="0 0 25 25" fill="none" xmlns="http://www.w3.org/2000/svg">
<g clip-path="url(#clip0_1991_14523)">
<path d="M10.7516 1.45996L10.2191 4.72059C9.65744 4.8839 9.12252 5.10416 8.61781 5.37871L5.92812 3.45684L3.48875 5.89527L5.37969 8.59809C5.10061 9.10609 4.87589 9.6451 4.70844 10.2125L1.46094 10.7525V14.2015L4.70469 14.7762C4.87111 15.3419 5.09583 15.8806 5.375 16.3887L3.45781 19.069L5.89625 21.5103L8.60375 19.6137C9.20926 19.9442 9.83997 20.2378 10.5256 20.4068C10.5874 20.4238 10.652 20.4282 10.7156 20.4198C10.7791 20.4114 10.8404 20.3904 10.8956 20.358C10.9509 20.3255 10.9992 20.2823 11.0375 20.231C11.0758 20.1796 11.1035 20.121 11.1188 20.0588C11.1342 19.9966 11.1369 19.9319 11.1268 19.8686C11.1168 19.8053 11.0941 19.7446 11.0602 19.6902C11.0264 19.6358 10.9819 19.5887 10.9296 19.5517C10.8772 19.5148 10.8179 19.4887 10.7553 19.475C10.0529 19.3018 9.39154 19.0249 8.78562 18.6612L8.51844 18.5009L6.00594 20.2615L4.71219 18.9659L6.49156 16.4778L6.3275 16.2078C5.95981 15.6002 5.68173 14.938 5.50625 14.2325L5.43125 13.9306L2.42094 13.3962V11.5653L5.43313 11.0637L5.50906 10.759C5.68605 10.0511 5.96493 9.38895 6.33125 8.78277L6.4925 8.51465L4.7375 6.00496L6.03125 4.71121L8.52594 6.4934L8.79594 6.33121C9.39865 5.96922 10.0615 5.69456 10.7647 5.52215L11.0731 5.44715L11.5672 2.41996H13.4319L13.9259 5.44715L14.2344 5.52309C14.9377 5.69554 15.6007 5.96894 16.2031 6.33121L16.4731 6.4934L18.9678 4.71121L20.2625 6.00496L18.5066 8.51559L18.6687 8.78277C19.0351 9.38895 19.313 10.0511 19.49 10.759L19.5669 11.0646L22.5781 11.5662V13.3971L19.5688 13.9306L19.4937 14.2334C19.3183 14.9394 19.0401 15.6008 18.6725 16.2078C18.6398 16.2617 18.618 16.3215 18.6084 16.3839C18.5989 16.4462 18.6017 16.5098 18.6167 16.5711C18.6317 16.6323 18.6586 16.69 18.6959 16.7409C18.7332 16.7917 18.7802 16.8347 18.8341 16.8674C18.8881 16.9001 18.9479 16.9219 19.0103 16.9314C19.0726 16.941 19.1362 16.9382 19.1975 16.9231C19.2587 16.9081 19.3164 16.8812 19.3673 16.8438C19.4181 16.8065 19.4611 16.7595 19.4937 16.7056C19.8526 16.1131 20.0963 15.4535 20.2953 14.7762L23.5381 14.2015V10.7525L20.2906 10.2125C20.1233 9.6459 19.8989 9.10732 19.6203 8.59996L21.5103 5.89527L19.0719 3.45777L16.3822 5.37965C15.8775 5.1049 15.3423 4.8838 14.7809 4.72059L14.2484 1.45996H10.7516ZM12.5009 8.65996C10.3858 8.65996 8.66094 10.3849 8.66094 12.5C8.66094 14.615 10.3858 16.34 12.5009 16.34C14.616 16.34 16.3409 14.615 16.3409 12.5C16.3409 10.3849 14.616 8.65996 12.5009 8.65996ZM12.5009 9.61996C14.0972 9.61996 15.3809 10.9037 15.3809 12.5C15.3809 14.0962 14.0972 15.38 12.5009 15.38C10.9047 15.38 9.62094 14.0962 9.62094 12.5C9.62094 10.9037 10.9047 9.61996 12.5009 9.61996ZM23.54 16.82C23.2854 16.82 23.0412 16.9211 22.8612 17.1011C22.6811 17.2812 22.58 17.5254 22.58 17.78C22.58 17.8993 22.6023 18.0175 22.6456 18.1287L19.8434 21.6321C19.796 21.6245 19.748 21.6204 19.7 21.62C19.6351 21.6203 19.5704 21.6272 19.5069 21.6406L16.7703 18.5618C16.8029 18.4645 16.8197 18.3626 16.82 18.26C16.82 18.0054 16.7189 17.7612 16.5388 17.5811C16.3588 17.4011 16.1146 17.3 15.86 17.3C15.6054 17.3 15.3612 17.4011 15.1812 17.5811C15.0011 17.7612 14.9 18.0054 14.9 18.26C14.9 18.3439 14.9111 18.4274 14.9328 18.5084L13.2275 20.2137C13.1468 20.1917 13.0636 20.1804 12.98 20.18C12.7254 20.18 12.4812 20.2811 12.3012 20.4611C12.1211 20.6412 12.02 20.8854 12.02 21.14C12.02 21.3946 12.1211 21.6387 12.3012 21.8188C12.4812 21.9988 12.7254 22.1 12.98 22.1C13.2346 22.1 13.4788 21.9988 13.6588 21.8188C13.8389 21.6387 13.94 21.3946 13.94 21.14C13.94 21.0561 13.9289 20.9725 13.9072 20.8915L15.6125 19.1862C15.6932 19.2082 15.7764 19.2195 15.86 19.22C15.9249 19.2196 15.9896 19.2127 16.0531 19.1993L18.7897 22.2781C18.7571 22.3754 18.7403 22.4773 18.74 22.58C18.74 22.8346 18.8411 23.0787 19.0212 23.2588C19.2012 23.4388 19.4454 23.54 19.7 23.54C19.9546 23.54 20.1988 23.4388 20.3788 23.2588C20.5589 23.0787 20.66 22.8346 20.66 22.58C20.66 22.4606 20.6377 22.3424 20.5944 22.2312L23.3966 18.7278C23.444 18.7354 23.4919 18.7395 23.54 18.74C23.7946 18.74 24.0388 18.6388 24.2188 18.4588C24.3989 18.2787 24.5 18.0346 24.5 17.78C24.5 17.5254 24.3989 17.2812 24.2188 17.1011C24.0388 16.9211 23.7946 16.82 23.54 16.82Z" fill="#474747"/>
</g>
<defs>
<clipPath id="clip0_1991_14523">
<rect width="24" height="24" fill="white" transform="translate(0.5 0.5)"/>
</clipPath>
</defs>
</svg>
