<svg width="20" height="20" viewBox="0 0 20 20" fill="none" xmlns="http://www.w3.org/2000/svg">
<g id="outline / calendar-clock">
<path id="shape" d="M13.332 12.6667V14.0729L14.082 14.9167M7.4987 9.16667H3.33203M16.6654 7.5V5.83333C16.6654 4.91286 15.9192 4.16667 14.9987 4.16667H4.9987C4.07822 4.16667 3.33203 4.91286 3.33203 5.83333V15.8333C3.33203 16.7538 4.07822 17.5 4.9987 17.5H7.4987M12.4987 2.5V5.83333M7.4987 2.5V5.83333M17.082 14.1667C17.082 16.2377 15.4031 17.9167 13.332 17.9167C11.261 17.9167 9.58203 16.2377 9.58203 14.1667C9.58203 12.0956 11.261 10.4167 13.332 10.4167C15.4031 10.4167 17.082 12.0956 17.082 14.1667Z" stroke="#F99C4D" stroke-width="1.5" stroke-linecap="round" stroke-linejoin="round"/>
</g>
</svg>
