<svg width="20" height="20" viewBox="0 0 20 20" fill="none" xmlns="http://www.w3.org/2000/svg">
<g id="outline / calendar-clock">
<path id="shape" d="M13.3333 12.6667V14.0729L14.0833 14.9167M7.49992 9.16667H3.33325M16.6666 7.5V5.83333C16.6666 4.91286 15.9204 4.16667 14.9999 4.16667H4.99992C4.07944 4.16667 3.33325 4.91286 3.33325 5.83333V15.8333C3.33325 16.7538 4.07944 17.5 4.99992 17.5H7.49992M12.4999 2.5V5.83333M7.49992 2.5V5.83333M17.0833 14.1667C17.0833 16.2377 15.4043 17.9167 13.3333 17.9167C11.2622 17.9167 9.58325 16.2377 9.58325 14.1667C9.58325 12.0956 11.2622 10.4167 13.3333 10.4167C15.4043 10.4167 17.0833 12.0956 17.0833 14.1667Z" stroke="url(#paint0_linear_2734_181938)" stroke-width="1.5" stroke-linecap="round" stroke-linejoin="round"/>
</g>
<defs>
<linearGradient id="paint0_linear_2734_181938" x1="3.34986" y1="9.8803" x2="17.0667" y2="9.88198" gradientUnits="userSpaceOnUse">
<stop stop-color="#3A85D4"/>
<stop offset="0.131496" stop-color="#3E8CD8"/>
<stop offset="0.264271" stop-color="#4295DC"/>
<stop offset="0.400428" stop-color="#479FE0"/>
<stop offset="0.505971" stop-color="#4BA6E3"/>
<stop offset="0.60639" stop-color="#4BA6E3"/>
<stop offset="0.706809" stop-color="#4BA6E3"/>
<stop offset="0.805541" stop-color="#4BA6E3"/>
<stop offset="0.917888" stop-color="#4BA6E3"/>
<stop offset="1" stop-color="#4BA6E3"/>
</linearGradient>
</defs>
</svg>
