<svg width="28" height="28" viewBox="0 0 28 28" fill="none" xmlns="http://www.w3.org/2000/svg">
    <defs>
        <linearGradient id="paint0_linear_3929_188837" x1="0" y1="0" x2="32.265" y2="18.4462" gradientUnits="userSpaceOnUse">
            <stop stop-color="#9DA8FF"/>
            <stop offset="1" stop-color="#27E0D5"/>
        </linearGradient>
    </defs>
<path fill-rule="evenodd" clip-rule="evenodd" d="M28 14C28 21.732 21.732 28 14 28C6.26801 28 0 21.732 0 14C0 6.26801 6.26801 0 14 0C21.732 0 28 6.26801 28 14ZM17.1794 7.60761V6.52195C17.1794 6.23662 16.9269 6 16.6226 6C16.3182 6 16.0657 6.23662 16.0657 6.52195V7.56585H11.24V6.52195C11.24 6.23662 10.9876 6 10.6832 6C10.3788 6 10.1263 6.23662 10.1263 6.52195V7.60761C8.1218 7.78159 7.14922 8.90204 7.00074 10.5653C6.98589 10.7671 7.16407 10.9342 7.37195 10.9342H19.9338C20.1491 10.9342 20.3272 10.7602 20.305 10.5653C20.1565 8.90204 19.1839 7.78159 17.1794 7.60761ZM7.74242 11.9781H19.6212C20.0295 11.9781 20.3636 12.2913 20.3636 12.6741V16.961C20.3636 19.0488 19.25 20.4407 16.6515 20.4407H10.7121C8.11364 20.4407 7 19.0488 7 16.961V12.6741C7 12.2913 7.33409 11.9781 7.74242 11.9781ZM11.5733 17.8325C11.5857 17.8224 11.5981 17.8124 11.6105 17.8031C11.7441 17.6709 11.8258 17.4899 11.8258 17.309C11.8258 17.128 11.7441 16.9471 11.6105 16.8149L11.4991 16.7313C11.4545 16.7035 11.41 16.6826 11.3655 16.6687C11.3209 16.6478 11.2764 16.6339 11.2318 16.627C11.0833 16.5991 10.9348 16.613 10.8012 16.6687C10.7047 16.7035 10.6305 16.7522 10.5562 16.8149C10.4226 16.9471 10.3409 17.128 10.3409 17.309C10.3409 17.4899 10.4226 17.6709 10.5562 17.8031C10.6305 17.8657 10.7047 17.9144 10.8012 17.9492C10.8903 17.984 10.9868 18.0049 11.0833 18.0049C11.1295 18.0049 11.1697 17.9994 11.2145 17.9933C11.2202 17.9926 11.226 17.9918 11.2318 17.991C11.2764 17.984 11.3209 17.9701 11.3655 17.9492C11.41 17.9353 11.4545 17.9144 11.4991 17.8866C11.5238 17.8727 11.5486 17.8526 11.5733 17.8325ZM11.0833 15.5691C11.2764 15.5691 11.4694 15.4926 11.6105 15.3673C11.7441 15.2351 11.8258 15.0541 11.8258 14.8732C11.8258 14.6923 11.7441 14.5113 11.6105 14.3791C11.5436 14.3165 11.462 14.2677 11.3655 14.2329C11.0908 14.1216 10.7641 14.1842 10.5562 14.3791C10.4226 14.5113 10.3409 14.6923 10.3409 14.8732C10.3409 15.0541 10.4226 15.2351 10.5562 15.3673C10.6973 15.4926 10.8903 15.5691 11.0833 15.5691ZM13.6818 18.0049C13.8748 18.0049 14.0679 17.9284 14.2089 17.8031C14.3426 17.6709 14.4242 17.4899 14.4242 17.309C14.4242 17.128 14.3426 16.9471 14.2089 16.8149C13.9342 16.5574 13.4294 16.5574 13.1547 16.8149C13.0211 16.9471 12.9394 17.128 12.9394 17.309C12.9394 17.4899 13.0211 17.6709 13.1547 17.8031C13.2958 17.9284 13.4888 18.0049 13.6818 18.0049ZM14.0976 15.4508L14.2089 15.3673C14.3426 15.2351 14.4242 15.0541 14.4242 14.8732C14.4242 14.6923 14.3426 14.5113 14.2089 14.3791C14.0011 14.1842 13.6744 14.1216 13.3997 14.2329C13.3032 14.2677 13.2215 14.3165 13.1547 14.3791C13.0211 14.5113 12.9394 14.6923 12.9394 14.8732C12.9394 15.0541 13.0211 15.2351 13.1547 15.3673C13.2958 15.4926 13.4888 15.5691 13.6818 15.5691C13.7279 15.5691 13.7682 15.5637 13.813 15.5576C13.8187 15.5568 13.8245 15.556 13.8303 15.5552C13.8748 15.5483 13.9194 15.5343 13.9639 15.5135C14.0085 15.4995 14.053 15.4787 14.0976 15.4508ZM16.2803 18.0049C16.4733 18.0049 16.6664 17.9284 16.8074 17.8031C16.9411 17.6709 17.0227 17.4899 17.0227 17.309C17.0227 17.128 16.9411 16.9471 16.8074 16.8149C16.5327 16.5574 16.0279 16.5574 15.7532 16.8149C15.6195 16.9471 15.5379 17.128 15.5379 17.309C15.5379 17.4899 15.6195 17.6709 15.7532 17.8031C15.8942 17.9284 16.0873 18.0049 16.2803 18.0049ZM16.6961 15.4508L16.8074 15.3673C16.9411 15.2351 17.0227 15.0541 17.0227 14.8732C17.0227 14.6923 16.9411 14.5113 16.8074 14.3791L16.6961 14.2956C16.6515 14.2677 16.607 14.2469 16.5624 14.2329C16.5179 14.2121 16.4733 14.1981 16.4288 14.1912C16.2803 14.1633 16.1318 14.1773 15.9982 14.2329C15.9017 14.2677 15.8274 14.3165 15.7532 14.3791C15.6195 14.5113 15.5379 14.6923 15.5379 14.8732C15.5379 15.0541 15.6195 15.2351 15.7532 15.3673C15.8942 15.4926 16.0873 15.5691 16.2803 15.5691C16.3248 15.5691 16.3768 15.5622 16.4288 15.5552L16.4288 15.5552C16.4733 15.5483 16.5179 15.5343 16.5624 15.5135C16.607 15.4995 16.6515 15.4787 16.6961 15.4508Z" fill="url(#paint0_linear_3929_188837)"/>
</svg>
