<svg width="21" height="20" viewBox="0 0 21 20" fill="none" xmlns="http://www.w3.org/2000/svg">
<g id="calendar-minus-02">
<path id="Icon" d="M13 15.0003H18M18 9.58366V7.33366C18 5.93353 18 5.23346 17.7275 4.69868C17.4878 4.22828 17.1054 3.84583 16.635 3.60614C16.1002 3.33366 15.4001 3.33366 14 3.33366H7C5.59987 3.33366 4.8998 3.33366 4.36502 3.60614C3.89462 3.84583 3.51217 4.22828 3.27248 4.69868C3 5.23346 3 5.93353 3 7.33366V14.3337C3 15.7338 3 16.4339 3.27248 16.9686C3.51217 17.439 3.89462 17.8215 4.36502 18.0612C4.8998 18.3337 5.59987 18.3337 7 18.3337H10.9167M18 8.33366H3M13.8333 1.66699V5.00033M7.16667 1.66699V5.00033" stroke="#E8811A" stroke-width="1.5" stroke-linecap="round" stroke-linejoin="round"/>
</g>
</svg>
