<svg width="18" height="18" viewBox="0 0 18 18" fill="none" xmlns="http://www.w3.org/2000/svg">
<g id="icons8_calendar_19 1" clip-path="url(#clip0_2734_181164)">
<path id="Vector" d="M4.84615 0C4.42969 0 4.15385 0.275842 4.15385 0.692308V2.76923C4.15385 3.1857 4.42969 3.46154 4.84615 3.46154C5.26262 3.46154 5.53846 3.1857 5.53846 2.76923V0.692308C5.53846 0.275842 5.26262 0 4.84615 0ZM13.1538 0C12.7374 0 12.4615 0.275842 12.4615 0.692308V2.76923C12.4615 3.1857 12.7374 3.46154 13.1538 3.46154C13.5703 3.46154 13.8462 3.1857 13.8462 2.76923V0.692308C13.8462 0.275842 13.5703 0 13.1538 0ZM2.07692 1.38462C0.900541 1.38462 0 2.28516 0 3.46154V15.9231C0 17.0995 0.900541 18 2.07692 18H15.9231C17.0995 18 18 17.0995 18 15.9231V3.46154C18 2.28516 17.0995 1.38462 15.9231 1.38462H14.5385V2.76923C14.5385 3.53185 13.9165 4.15385 13.1538 4.15385C12.3912 4.15385 11.7692 3.53185 11.7692 2.76923V1.38462H6.23077V2.76923C6.23077 3.53185 5.60877 4.15385 4.84615 4.15385C4.08353 4.15385 3.46154 3.53185 3.46154 2.76923V1.38462H2.07692ZM1.38462 6.23077H16.6154V15.9231C16.6154 16.3395 16.3395 16.6154 15.9231 16.6154H2.07692C1.66046 16.6154 1.38462 16.3395 1.38462 15.9231V6.23077Z" fill="#666666"/>
</g>
<defs>
<clipPath id="clip0_2734_181164">
<rect width="18" height="18" fill="white"/>
</clipPath>
</defs>
</svg>
