<svg width="24" height="25" viewBox="0 0 24 25" fill="none" xmlns="http://www.w3.org/2000/svg">
<g id="Date Range">
<path id="Rectangle 47" d="M20 10.5V7.5C20 6.39543 19.1046 5.5 18 5.5H6C4.89543 5.5 4 6.39543 4 7.5V10.5M20 10.5V19.5C20 20.6046 19.1046 21.5 18 21.5H6C4.89543 21.5 4 20.6046 4 19.5V10.5M20 10.5H4M8 3.5V7.5M16 3.5V7.5" stroke="white" stroke-width="2" stroke-linecap="round"/>
<rect id="Rectangle 48" x="6" y="12.5" width="3" height="3" rx="0.5" fill="white"/>
<rect id="Rectangle 49" x="10.5" y="12.5" width="3" height="3" rx="0.5" fill="white"/>
<rect id="Rectangle 50" x="15" y="12.5" width="3" height="3" rx="0.5" fill="white"/>
</g>
</svg>
