<svg width="44" height="44" viewBox="0 0 44 44" fill="none" xmlns="http://www.w3.org/2000/svg">
<circle cx="22" cy="22" r="22" fill="#C4C4C4"/>
<g clip-path="url(#clip0_1830_20999)">
<path d="M33.375 28.5C33.375 28.931 33.2038 29.3443 32.899 29.649C32.5943 29.9538 32.181 30.125 31.75 30.125H12.25C11.819 30.125 11.4057 29.9538 11.101 29.649C10.7962 29.3443 10.625 28.931 10.625 28.5V18.75C10.625 18.319 10.7962 17.9057 11.101 17.601C11.4057 17.2962 11.819 17.125 12.25 17.125H14.1545C15.4468 17.1243 16.6859 16.6105 17.5995 15.6966L18.9483 14.3511C19.2521 14.0472 19.6641 13.876 20.0939 13.875H23.9029C24.3338 13.8751 24.7471 14.0464 25.0518 14.3511L26.3973 15.6966C26.85 16.1495 27.3876 16.5088 27.9793 16.7539C28.5709 16.999 29.2051 17.1251 29.8455 17.125H31.75C32.181 17.125 32.5943 17.2962 32.899 17.601C33.2038 17.9057 33.375 18.319 33.375 18.75V28.5ZM12.25 15.5C11.388 15.5 10.5614 15.8424 9.9519 16.4519C9.34241 17.0614 9 17.888 9 18.75V28.5C9 29.362 9.34241 30.1886 9.9519 30.7981C10.5614 31.4076 11.388 31.75 12.25 31.75H31.75C32.612 31.75 33.4386 31.4076 34.0481 30.7981C34.6576 30.1886 35 29.362 35 28.5V18.75C35 17.888 34.6576 17.0614 34.0481 16.4519C33.4386 15.8424 32.612 15.5 31.75 15.5H29.8455C28.9836 15.4998 28.1571 15.1573 27.5477 14.5477L26.2023 13.2022C25.5929 12.5927 24.7664 12.2502 23.9045 12.25H20.0955C19.2336 12.2502 18.4071 12.5927 17.7978 13.2022L16.4523 14.5477C15.8429 15.1573 15.0164 15.4998 14.1545 15.5H12.25Z" fill="white"/>
<path d="M22 26.875C20.9226 26.875 19.8892 26.447 19.1274 25.6851C18.3655 24.9233 17.9375 23.8899 17.9375 22.8125C17.9375 21.7351 18.3655 20.7017 19.1274 19.9399C19.8892 19.178 20.9226 18.75 22 18.75C23.0774 18.75 24.1108 19.178 24.8726 19.9399C25.6345 20.7017 26.0625 21.7351 26.0625 22.8125C26.0625 23.8899 25.6345 24.9233 24.8726 25.6851C24.1108 26.447 23.0774 26.875 22 26.875ZM22 28.5C23.5084 28.5 24.9551 27.9008 26.0217 26.8342C27.0883 25.7676 27.6875 24.3209 27.6875 22.8125C27.6875 21.3041 27.0883 19.8574 26.0217 18.7908C24.9551 17.7242 23.5084 17.125 22 17.125C20.4916 17.125 19.0449 17.7242 17.9783 18.7908C16.9117 19.8574 16.3125 21.3041 16.3125 22.8125C16.3125 24.3209 16.9117 25.7676 17.9783 26.8342C19.0449 27.9008 20.4916 28.5 22 28.5ZM13.875 19.5625C13.875 19.778 13.7894 19.9847 13.637 20.137C13.4847 20.2894 13.278 20.375 13.0625 20.375C12.847 20.375 12.6403 20.2894 12.488 20.137C12.3356 19.9847 12.25 19.778 12.25 19.5625C12.25 19.347 12.3356 19.1403 12.488 18.988C12.6403 18.8356 12.847 18.75 13.0625 18.75C13.278 18.75 13.4847 18.8356 13.637 18.988C13.7894 19.1403 13.875 19.347 13.875 19.5625Z" fill="white"/>
</g>
<defs>
<clipPath id="clip0_1830_20999">
<rect width="26" height="26" fill="white" transform="translate(9 9)"/>
</clipPath>
</defs>
</svg>
