<svg width="56" height="56" viewBox="0 0 56 56" fill="none" xmlns="http://www.w3.org/2000/svg">
<path d="M28.53 36.4201H22.21C19.05 36.4201 18 34.3201 18 32.2101V23.7901C18 20.6301 19.05 19.5801 22.21 19.5801H28.53C31.69 19.5801 32.74 20.6301 32.74 23.7901V32.2101C32.74 35.3701 31.68 36.4201 28.53 36.4201Z" stroke="white" stroke-width="1.5" stroke-linecap="round" stroke-linejoin="round"/>
<path d="M35.5202 33.1001L32.7402 31.1501V24.8401L35.5202 22.8901C36.8802 21.9401 38.0002 22.5201 38.0002 24.1901V31.8101C38.0002 33.4801 36.8802 34.0601 35.5202 33.1001Z" stroke="white" stroke-width="1.5" stroke-linecap="round" stroke-linejoin="round"/>
<path d="M27.5 27C28.3284 27 29 26.3284 29 25.5C29 24.6716 28.3284 24 27.5 24C26.6716 24 26 24.6716 26 25.5C26 26.3284 26.6716 27 27.5 27Z" stroke="white" stroke-width="1.5" stroke-linecap="round" stroke-linejoin="round"/>
</svg>
