<svg width="27" height="26" viewBox="0 0 27 26" fill="none" xmlns="http://www.w3.org/2000/svg">
<path d="M11.875 23.8333V21.6666M16.2083 23.8333V21.6666" stroke="white" stroke-width="1.6" stroke-linecap="round"/>
<path d="M12.4167 21.6667V22.4667H13.2167V21.6667H12.4167ZM15.6667 20.8667C15.2249 20.8667 14.8667 21.2248 14.8667 21.6667C14.8667 22.1085 15.2249 22.4667 15.6667 22.4667V20.8667ZM19.4584 5.7C19.0166 5.7 18.6584 6.05817 18.6584 6.5C18.6584 6.94183 19.0166 7.3 19.4584 7.3V5.7ZM8.08341 5.7C7.64159 5.7 7.28341 6.05817 7.28341 6.5C7.28341 6.94183 7.64159 7.3 8.08341 7.3V5.7ZM10.2501 20.8667C9.80825 20.8667 9.45008 21.2248 9.45008 21.6667C9.45008 22.1085 9.80825 22.4667 10.2501 22.4667V20.8667ZM16.7501 22.4667C17.1919 22.4667 17.5501 22.1085 17.5501 21.6667C17.5501 21.2248 17.1919 20.8667 16.7501 20.8667V22.4667ZM11.6167 12.1875V21.6667H13.2167V12.1875H11.6167ZM12.4167 20.8667H5.08535V22.4667H12.4167V20.8667ZM3.46675 18.845V12.1875H1.86675V18.845H3.46675ZM5.08535 20.8667C4.30268 20.8667 3.46675 20.0817 3.46675 18.845H1.86675C1.86675 20.725 3.19651 22.4667 5.08535 22.4667V20.8667ZM7.54175 7.3C9.68105 7.3 11.6167 9.36807 11.6167 12.1875H13.2167C13.2167 8.72469 10.7872 5.7 7.54175 5.7V7.3ZM7.54175 5.7C4.29628 5.7 1.86675 8.72469 1.86675 12.1875H3.46675C3.46675 9.36807 5.40244 7.3 7.54175 7.3V5.7ZM23.5334 12.1875V18.8774H25.1334V12.1875H23.5334ZM21.9426 20.8667H15.6667V22.4667H21.9426V20.8667ZM23.5334 18.8774C23.5334 20.0962 22.7099 20.8667 21.9426 20.8667V22.4667C23.8161 22.4667 25.1334 20.7396 25.1334 18.8774H23.5334ZM25.1334 12.1875C25.1334 8.72469 22.7039 5.7 19.4584 5.7V7.3C21.5977 7.3 23.5334 9.36807 23.5334 12.1875H25.1334ZM8.08341 7.3H20.0001V5.7H8.08341V7.3ZM10.2501 22.4667H16.7501V20.8667H10.2501V22.4667Z" fill="white"/>
<path d="M5.91675 17.3333H9.16675" stroke="white" stroke-width="1.6" stroke-linecap="round"/>
<path d="M17.8333 10.708V5.86216M17.8333 5.86216V2.85481C17.8333 2.59899 18.0148 2.37915 18.266 2.33075L18.7925 2.22929C19.4299 2.10648 20.0889 2.16512 20.6945 2.39852L20.7803 2.43157C21.3807 2.66296 22.0373 2.70619 22.6629 2.55551C22.9621 2.48345 23.2499 2.71017 23.2499 3.0179V5.42452C23.2499 5.68124 23.074 5.90453 22.8244 5.96464L22.7523 5.98202C22.0685 6.14671 21.3508 6.09946 20.6945 5.84654C20.0889 5.61315 19.4299 5.55451 18.7925 5.67732L17.8333 5.86216Z" stroke="white" stroke-width="1.6" stroke-linecap="round"/>
</svg>
