<svg width="28" height="28" viewBox="0 0 28 28" fill="none" xmlns="http://www.w3.org/2000/svg">
    <defs>
        <linearGradient id="paint0_linear_3966_188869" x1="0" y1="0" x2="32.265" y2="18.4462" gradientUnits="userSpaceOnUse">
            <stop stop-color="#9DA8FF"/>
            <stop offset="1" stop-color="#27E0D5"/>
        </linearGradient>
    </defs>
<path fill-rule="evenodd" clip-rule="evenodd" d="M28 14C28 21.732 21.732 28 14 28C6.26801 28 0 21.732 0 14C0 6.26801 6.26801 0 14 0C21.732 0 28 6.26801 28 14ZM23.4125 10.9033L14.1239 7.25803C14.0431 7.22707 13.9537 7.22707 13.8729 7.25803L4.5878 10.9033C4.52475 10.9297 4.47092 10.9741 4.43306 11.031C4.3952 11.0879 4.375 11.1547 4.375 11.2231C4.375 11.2914 4.3952 11.3583 4.43307 11.4152C4.47093 11.4721 4.52477 11.5165 4.58782 11.5429L6.26257 12.2169C6.26257 12.2169 6.40013 11.5395 6.40355 11.5326C6.41259 11.4693 6.43935 11.4099 6.48073 11.3612C6.52212 11.3126 6.57644 11.2766 6.63741 11.2575L13.5462 8.99122C13.6253 8.96669 13.7105 8.97139 13.7864 9.00447C13.8623 9.03755 13.9238 9.0968 13.9596 9.17142C13.9955 9.24604 14.0033 9.33107 13.9817 9.41098C13.9601 9.4909 13.9105 9.56039 13.8419 9.60679C13.486 9.72152 11.9628 10.2208 10.45 10.7167L10.4484 10.7172C8.91144 11.221 7.38547 11.7213 7.10509 11.8111C7.0173 11.8202 6.93487 11.8577 6.87032 11.9179C6.80578 11.9781 6.76264 12.0578 6.74745 12.1447L6.30037 16.6807C6.11437 16.7463 5.95214 16.8658 5.83441 17.0241C5.71668 17.1823 5.64879 17.3721 5.63941 17.5691C5.63004 17.7661 5.6796 17.9614 5.78177 18.1302C5.88394 18.2989 6.03408 18.4333 6.21301 18.5163L5.95493 19.726C5.93734 19.8146 5.95532 19.9065 6.00497 19.982C6.05462 20.0574 6.13197 20.1103 6.22028 20.1291C6.3086 20.148 6.40079 20.1314 6.47695 20.0828C6.5531 20.0343 6.6071 19.9577 6.62727 19.8697L6.67505 19.6457L7.07729 20.5625C7.11503 20.6443 7.18335 20.7081 7.26757 20.74C7.35179 20.772 7.44519 20.7696 7.52769 20.7335C7.6102 20.6973 7.67523 20.6303 7.70882 20.5467C7.7424 20.4631 7.74186 20.3697 7.7073 20.2865L6.94486 18.5486C7.13265 18.4803 7.2955 18.357 7.41218 18.1948C7.52886 18.0325 7.59396 17.8389 7.599 17.6392C7.60404 17.4394 7.54879 17.2427 7.44044 17.0748C7.33209 16.9069 7.17567 16.7755 6.99157 16.6978C7.01137 16.4916 7.06977 15.9007 7.13603 15.2302L7.13608 15.2297C7.23952 14.1831 7.36212 12.9426 7.38709 12.6674C8.14432 12.9732 13.0099 14.9276 13.8729 15.2741C13.9546 15.3067 14.0457 15.3067 14.1274 15.2741L19.609 13.0698C19.9133 12.9491 21.0885 12.4767 22.0692 12.0825C22.6746 11.8391 23.2059 11.6255 23.4125 11.5429C23.4755 11.5164 23.5292 11.472 23.567 11.4151C23.6048 11.3582 23.625 11.2914 23.625 11.2231C23.625 11.1548 23.6048 11.088 23.567 11.0311C23.5292 10.9742 23.4754 10.9297 23.4125 10.9033ZM13.6184 15.9138C13.865 16.0101 14.1387 16.0101 14.3853 15.9138C14.7448 15.7698 20.1529 13.5981 20.2968 13.5375V17.2343C20.2971 17.3221 20.2638 17.4066 20.2036 17.4706C20.1435 17.5346 20.0612 17.5731 19.9735 17.5782C17.8443 17.7507 15.8305 18.6169 14.2409 20.0439C14.1747 20.1072 14.0861 20.1417 13.9946 20.1397C13.903 20.1378 13.816 20.0996 13.7525 20.0336C12.0697 18.2782 8.50947 17.5549 8.19041 17.4901C8.17694 17.4874 8.16925 17.4858 8.16771 17.4854C8.08842 17.4717 8.01656 17.4303 7.96492 17.3686C7.91328 17.3068 7.88522 17.2288 7.88572 17.1483V13.6097C8.01661 13.6652 10.5354 14.6761 12.197 15.343C12.9332 15.6385 13.5012 15.8665 13.6184 15.9138Z" fill="url(#paint0_linear_3966_188869)"/>
</svg>
