<svg width="24" height="24" viewBox="0 0 24 24" fill="none" xmlns="http://www.w3.org/2000/svg">
<path d="M11.31 5.00999C14.865 5.12249 14.865 10.275 11.31 10.3875C7.75504 10.275 7.75504 5.12249 11.31 5.00999ZM11.715 17.97C14.85 17.76 17.2125 15.015 17.2125 11.8725C17.2725 11.355 17.0475 10.845 16.4625 10.83H6.15754C5.74504 10.83 5.40754 11.1675 5.40754 11.58C5.16004 15.135 8.07004 18.2175 11.715 17.9625V17.97ZM21.75 9.12749L20.925 10.08C20.235 5.35499 16.17 1.76999 11.31 1.76999V2.51999C15.75 2.51999 19.47 5.75999 20.16 10.05L19.29 9.29999L18.795 9.86999L20.6775 11.505L22.3125 9.62249L21.7425 9.12749H21.75ZM5.64004 4.55249L5.42254 5.68499L6.15754 5.82749L6.63004 3.38249L4.18504 2.90999L4.04254 3.64499L5.28004 3.88499C1.53754 6.83999 0.465036 12.15 2.89504 16.3575L3.54754 15.9825C1.32754 12.135 2.27254 7.29749 5.64754 4.55249H5.64004ZM8.13004 19.89L9.21754 19.515L8.97004 18.8025L6.61504 19.6125L7.42504 21.9675L8.13754 21.72L7.72504 20.5125C12.1125 22.2975 17.295 20.58 19.7325 16.35L19.08 15.975C16.86 19.8225 12.195 21.42 8.13004 19.875V19.89Z" fill="#474747"/>
</svg>
