<svg width="68" height="15" viewBox="0 0 68 15" fill="none" xmlns="http://www.w3.org/2000/svg">
<path d="M8.56055 9.75488H11.1885C11.1357 10.6162 10.8984 11.3809 10.4766 12.0488C10.0605 12.7168 9.47754 13.2383 8.72754 13.6133C7.9834 13.9883 7.08691 14.1758 6.03809 14.1758C5.21777 14.1758 4.48242 14.0352 3.83203 13.7539C3.18164 13.4668 2.625 13.0566 2.16211 12.5234C1.70508 11.9902 1.35645 11.3457 1.11621 10.5898C0.875977 9.83398 0.755859 8.9873 0.755859 8.0498V7.16211C0.755859 6.22461 0.878906 5.37793 1.125 4.62207C1.37695 3.86035 1.73438 3.21289 2.19727 2.67969C2.66602 2.14648 3.22559 1.73633 3.87598 1.44922C4.52637 1.16211 5.25293 1.01855 6.05566 1.01855C7.12207 1.01855 8.02148 1.21191 8.75391 1.59863C9.49219 1.98535 10.0635 2.51855 10.4678 3.19824C10.8779 3.87793 11.124 4.65137 11.2061 5.51855H8.56934C8.54004 5.00293 8.4375 4.56641 8.26172 4.20898C8.08594 3.8457 7.81934 3.57324 7.46191 3.3916C7.11035 3.2041 6.6416 3.11035 6.05566 3.11035C5.61621 3.11035 5.23242 3.19238 4.9043 3.35645C4.57617 3.52051 4.30078 3.76953 4.07812 4.10352C3.85547 4.4375 3.68848 4.85938 3.57715 5.36914C3.47168 5.87305 3.41895 6.46484 3.41895 7.14453V8.0498C3.41895 8.71191 3.46875 9.29492 3.56836 9.79883C3.66797 10.2969 3.82031 10.7188 4.02539 11.0645C4.23633 11.4043 4.50586 11.6621 4.83398 11.8379C5.16797 12.0078 5.56934 12.0928 6.03809 12.0928C6.58887 12.0928 7.04297 12.0049 7.40039 11.8291C7.75781 11.6533 8.03027 11.3926 8.21777 11.0469C8.41113 10.7012 8.52539 10.2705 8.56055 9.75488ZM15.2314 0.5V14H12.7002V0.5H15.2314ZM14.8711 8.91113H14.1768C14.1826 8.24902 14.2705 7.63965 14.4404 7.08301C14.6104 6.52051 14.8535 6.03418 15.1699 5.62402C15.4863 5.20801 15.8643 4.88574 16.3037 4.65723C16.749 4.42871 17.2412 4.31445 17.7803 4.31445C18.249 4.31445 18.6738 4.38184 19.0547 4.5166C19.4414 4.64551 19.7725 4.85645 20.0479 5.14941C20.3291 5.43652 20.5459 5.81445 20.6982 6.2832C20.8506 6.75195 20.9268 7.32031 20.9268 7.98828V14H18.3779V7.9707C18.3779 7.54883 18.3164 7.21777 18.1934 6.97754C18.0762 6.73145 17.9033 6.55859 17.6748 6.45898C17.4521 6.35352 17.1768 6.30078 16.8486 6.30078C16.4854 6.30078 16.1748 6.36816 15.917 6.50293C15.665 6.6377 15.4629 6.8252 15.3105 7.06543C15.1582 7.2998 15.0469 7.5752 14.9766 7.8916C14.9062 8.20801 14.8711 8.54785 14.8711 8.91113ZM27.9844 11.8555V7.61914C27.9844 7.31445 27.9346 7.05371 27.835 6.83691C27.7354 6.61426 27.5801 6.44141 27.3691 6.31836C27.1641 6.19531 26.8975 6.13379 26.5693 6.13379C26.2881 6.13379 26.0449 6.18359 25.8398 6.2832C25.6348 6.37695 25.4766 6.51465 25.3652 6.69629C25.2539 6.87207 25.1982 7.08008 25.1982 7.32031H22.667C22.667 6.91602 22.7607 6.53223 22.9482 6.16895C23.1357 5.80566 23.4082 5.48633 23.7656 5.21094C24.123 4.92969 24.5479 4.70996 25.04 4.55176C25.5381 4.39355 26.0947 4.31445 26.71 4.31445C27.4482 4.31445 28.1045 4.4375 28.6787 4.68359C29.2529 4.92969 29.7041 5.29883 30.0322 5.79102C30.3662 6.2832 30.5332 6.89844 30.5332 7.63672V11.7061C30.5332 12.2275 30.5654 12.6553 30.6299 12.9893C30.6943 13.3174 30.7881 13.6045 30.9111 13.8506V14H28.3535C28.2305 13.7422 28.1367 13.4199 28.0723 13.0332C28.0137 12.6406 27.9844 12.248 27.9844 11.8555ZM28.3184 8.20801L28.3359 9.64062H26.9209C26.5869 9.64062 26.2969 9.67871 26.0508 9.75488C25.8047 9.83105 25.6025 9.93945 25.4443 10.0801C25.2861 10.2148 25.1689 10.373 25.0928 10.5547C25.0225 10.7363 24.9873 10.9355 24.9873 11.1523C24.9873 11.3691 25.0371 11.5654 25.1367 11.7412C25.2363 11.9111 25.3799 12.0459 25.5674 12.1455C25.7549 12.2393 25.9746 12.2861 26.2266 12.2861C26.6074 12.2861 26.9385 12.21 27.2197 12.0576C27.501 11.9053 27.7178 11.7178 27.8701 11.4951C28.0283 11.2725 28.1104 11.0615 28.1162 10.8623L28.7842 11.9346C28.6904 12.1748 28.5615 12.4238 28.3975 12.6816C28.2393 12.9395 28.0371 13.1826 27.791 13.4111C27.5449 13.6338 27.249 13.8184 26.9033 13.9648C26.5576 14.1055 26.1475 14.1758 25.6729 14.1758C25.0693 14.1758 24.5215 14.0557 24.0293 13.8154C23.543 13.5693 23.1562 13.2324 22.8691 12.8047C22.5879 12.3711 22.4473 11.8789 22.4473 11.3281C22.4473 10.8301 22.541 10.3877 22.7285 10.001C22.916 9.61426 23.1914 9.28906 23.5547 9.02539C23.9238 8.75586 24.3838 8.55371 24.9346 8.41895C25.4854 8.27832 26.124 8.20801 26.8506 8.20801H28.3184ZM37.1426 4.49023V6.2832H31.6055V4.49023H37.1426ZM32.9766 2.14355H35.5078V11.1348C35.5078 11.4102 35.543 11.6211 35.6133 11.7676C35.6895 11.9141 35.8008 12.0166 35.9473 12.0752C36.0938 12.1279 36.2783 12.1543 36.501 12.1543C36.6592 12.1543 36.7998 12.1484 36.9229 12.1367C37.0518 12.1191 37.1602 12.1016 37.248 12.084L37.2568 13.9473C37.04 14.0176 36.8057 14.0732 36.5537 14.1143C36.3018 14.1553 36.0234 14.1758 35.7188 14.1758C35.1621 14.1758 34.6758 14.085 34.2598 13.9033C33.8496 13.7158 33.5332 13.417 33.3105 13.0068C33.0879 12.5967 32.9766 12.0576 32.9766 11.3896V2.14355ZM41.0713 6.50293H42.4248C42.8584 6.50293 43.2158 6.42969 43.4971 6.2832C43.7783 6.13086 43.9863 5.91992 44.1211 5.65039C44.2617 5.375 44.332 5.05566 44.332 4.69238C44.332 4.36426 44.2676 4.07422 44.1387 3.82227C44.0156 3.56445 43.8252 3.36523 43.5674 3.22461C43.3096 3.07812 42.9844 3.00488 42.5918 3.00488C42.2812 3.00488 41.9941 3.06641 41.7305 3.18945C41.4668 3.3125 41.2559 3.48535 41.0977 3.70801C40.9395 3.93066 40.8604 4.2002 40.8604 4.5166H38.3203C38.3203 3.81348 38.5078 3.20117 38.8828 2.67969C39.2637 2.1582 39.7734 1.75098 40.4121 1.45801C41.0508 1.16504 41.7539 1.01855 42.5215 1.01855C43.3887 1.01855 44.1475 1.15918 44.7979 1.44043C45.4482 1.71582 45.9551 2.12305 46.3184 2.66211C46.6816 3.20117 46.8633 3.86914 46.8633 4.66602C46.8633 5.07031 46.7695 5.46289 46.582 5.84375C46.3945 6.21875 46.125 6.55859 45.7734 6.86328C45.4277 7.16211 45.0059 7.40234 44.5078 7.58398C44.0098 7.75977 43.4502 7.84766 42.8291 7.84766H41.0713V6.50293ZM41.0713 8.42773V7.11816H42.8291C43.5264 7.11816 44.1387 7.19727 44.666 7.35547C45.1934 7.51367 45.6357 7.74219 45.9932 8.04102C46.3506 8.33398 46.6201 8.68262 46.8018 9.08691C46.9834 9.48535 47.0742 9.92773 47.0742 10.4141C47.0742 11.0117 46.96 11.5449 46.7314 12.0137C46.5029 12.4766 46.1807 12.8691 45.7646 13.1914C45.3545 13.5137 44.874 13.7598 44.3232 13.9297C43.7725 14.0938 43.1719 14.1758 42.5215 14.1758C41.9824 14.1758 41.4521 14.1025 40.9307 13.9561C40.415 13.8037 39.9463 13.5781 39.5244 13.2793C39.1084 12.9746 38.7744 12.5938 38.5225 12.1367C38.2764 11.6738 38.1533 11.126 38.1533 10.4932H40.6934C40.6934 10.8213 40.7754 11.1143 40.9395 11.3721C41.1035 11.6299 41.3291 11.832 41.6162 11.9785C41.9092 12.125 42.2344 12.1982 42.5918 12.1982C42.9961 12.1982 43.3418 12.125 43.6289 11.9785C43.9219 11.8262 44.1445 11.6152 44.2969 11.3457C44.4551 11.0703 44.5342 10.751 44.5342 10.3877C44.5342 9.91895 44.4492 9.54395 44.2793 9.2627C44.1094 8.97559 43.8662 8.76465 43.5498 8.62988C43.2334 8.49512 42.8584 8.42773 42.4248 8.42773H41.0713ZM55.3447 1.07129H55.7139V3.09277H55.5645C54.8965 3.09277 54.3018 3.19238 53.7803 3.3916C53.2588 3.59082 52.8164 3.875 52.4531 4.24414C52.0957 4.60742 51.8203 5.04688 51.627 5.5625C51.4395 6.07812 51.3457 6.65527 51.3457 7.29395V9.4209C51.3457 9.87793 51.3896 10.2822 51.4775 10.6338C51.5713 10.9795 51.7031 11.2695 51.873 11.5039C52.0488 11.7324 52.2539 11.9053 52.4883 12.0225C52.7227 12.1338 52.9863 12.1895 53.2793 12.1895C53.5547 12.1895 53.8037 12.1309 54.0264 12.0137C54.2549 11.8965 54.4482 11.7324 54.6064 11.5215C54.7705 11.3047 54.8936 11.0527 54.9756 10.7656C55.0635 10.4727 55.1074 10.1533 55.1074 9.80762C55.1074 9.46191 55.0635 9.14258 54.9756 8.84961C54.8936 8.55664 54.7705 8.30469 54.6064 8.09375C54.4424 7.87695 54.2432 7.70996 54.0088 7.59277C53.7744 7.47559 53.5107 7.41699 53.2178 7.41699C52.8193 7.41699 52.4678 7.51074 52.1631 7.69824C51.8643 7.87988 51.6299 8.11426 51.46 8.40137C51.29 8.68848 51.1992 8.99023 51.1875 9.30664L50.4229 8.81445C50.4404 8.36328 50.5342 7.93555 50.7041 7.53125C50.8799 7.12695 51.1201 6.76953 51.4248 6.45898C51.7354 6.14258 52.1074 5.89648 52.541 5.7207C52.9746 5.53906 53.4639 5.44824 54.0088 5.44824C54.6064 5.44824 55.1309 5.5625 55.582 5.79102C56.0391 6.01953 56.4199 6.33301 56.7246 6.73145C57.0293 7.12988 57.2578 7.58984 57.4102 8.11133C57.5625 8.63281 57.6387 9.18945 57.6387 9.78125C57.6387 10.4023 57.5361 10.9795 57.3311 11.5127C57.1318 12.0459 56.8418 12.5117 56.4609 12.9102C56.0859 13.3086 55.6348 13.6191 55.1074 13.8418C54.5801 14.0645 53.9883 14.1758 53.332 14.1758C52.6523 14.1758 52.0342 14.0527 51.4775 13.8066C50.9268 13.5547 50.4521 13.2031 50.0537 12.752C49.6553 12.3008 49.3477 11.7646 49.1309 11.1436C48.9199 10.5225 48.8145 9.84277 48.8145 9.10449V8.12012C48.8145 7.08887 48.9639 6.14551 49.2627 5.29004C49.5674 4.42871 50.0039 3.68457 50.5723 3.05762C51.1406 2.4248 51.8262 1.93555 52.6289 1.58984C53.4316 1.24414 54.3369 1.07129 55.3447 1.07129ZM61.5322 8.17285L59.5107 7.68945L60.2402 1.20312H67.4297V3.25098H62.3232L62.0068 6.08984C62.1768 5.99023 62.4346 5.88477 62.7803 5.77344C63.126 5.65625 63.5127 5.59766 63.9404 5.59766C64.5615 5.59766 65.1123 5.69434 65.5928 5.8877C66.0732 6.08105 66.4805 6.3623 66.8145 6.73145C67.1543 7.10059 67.4121 7.55176 67.5879 8.08496C67.7637 8.61816 67.8516 9.22168 67.8516 9.89551C67.8516 10.4639 67.7637 11.0059 67.5879 11.5215C67.4121 12.0312 67.1455 12.4883 66.7881 12.8926C66.4307 13.291 65.9824 13.6045 65.4434 13.833C64.9043 14.0615 64.2656 14.1758 63.5273 14.1758C62.9766 14.1758 62.4434 14.0938 61.9277 13.9297C61.418 13.7656 60.958 13.5225 60.5479 13.2002C60.1436 12.8779 59.8184 12.4883 59.5723 12.0312C59.332 11.5684 59.2061 11.041 59.1943 10.4492H61.708C61.7432 10.8125 61.8369 11.126 61.9893 11.3896C62.1475 11.6475 62.3555 11.8467 62.6133 11.9873C62.8711 12.1279 63.1729 12.1982 63.5186 12.1982C63.8408 12.1982 64.1162 12.1367 64.3447 12.0137C64.5732 11.8906 64.7578 11.7207 64.8984 11.5039C65.0391 11.2812 65.1416 11.0234 65.2061 10.7305C65.2764 10.4316 65.3115 10.1094 65.3115 9.76367C65.3115 9.41797 65.2705 9.10449 65.1885 8.82324C65.1064 8.54199 64.9805 8.29883 64.8105 8.09375C64.6406 7.88867 64.4238 7.73047 64.1602 7.61914C63.9023 7.50781 63.6006 7.45215 63.2549 7.45215C62.7861 7.45215 62.4229 7.52539 62.165 7.67188C61.9131 7.81836 61.7021 7.98535 61.5322 8.17285Z" fill="#4C5BD4"/>
</svg>
