<svg width="20" height="20" viewBox="0 0 20 20" fill="none" xmlns="http://www.w3.org/2000/svg">
<path d="M5.83326 11.8172V2.50051C5.83326 2.2795 5.74546 2.06753 5.58918 1.91125C5.4329 1.75497 5.22094 1.66718 4.99993 1.66718C4.77891 1.66718 4.56695 1.75497 4.41067 1.91125C4.25439 2.06753 4.1666 2.2795 4.1666 2.50051V11.8172C3.68397 11.9923 3.26698 12.3119 2.9723 12.7323C2.67761 13.1528 2.51953 13.6537 2.51953 14.1672C2.51953 14.6806 2.67761 15.1816 2.9723 15.602C3.26698 16.0225 3.68397 16.342 4.1666 16.5172V17.5005C4.1666 17.7215 4.25439 17.9335 4.41067 18.0898C4.56695 18.246 4.77891 18.3338 4.99993 18.3338C5.22094 18.3338 5.4329 18.246 5.58918 18.0898C5.74546 17.9335 5.83326 17.7215 5.83326 17.5005V16.5172C6.31589 16.342 6.73288 16.0225 7.02756 15.602C7.32224 15.1816 7.48033 14.6806 7.48033 14.1672C7.48033 13.6537 7.32224 13.1528 7.02756 12.7323C6.73288 12.3119 6.31589 11.9923 5.83326 11.8172ZM17.4999 10.8338C17.4985 10.3181 17.3375 9.81534 17.0391 9.39462C16.7408 8.9739 16.3196 8.65577 15.8333 8.48384V2.50051C15.8333 2.2795 15.7455 2.06753 15.5892 1.91125C15.4329 1.75497 15.2209 1.66718 14.9999 1.66718C14.7789 1.66718 14.567 1.75497 14.4107 1.91125C14.2544 2.06753 14.1666 2.2795 14.1666 2.50051V8.48384C13.684 8.65901 13.267 8.97853 12.9723 9.39898C12.6776 9.81943 12.5195 10.3204 12.5195 10.8338C12.5195 11.3473 12.6776 11.8483 12.9723 12.2687C13.267 12.6892 13.684 13.0087 14.1666 13.1838V17.5005C14.1666 17.7215 14.2544 17.9335 14.4107 18.0898C14.567 18.246 14.7789 18.3338 14.9999 18.3338C15.2209 18.3338 15.4329 18.246 15.5892 18.0898C15.7455 17.9335 15.8333 17.7215 15.8333 17.5005V13.1838C16.3196 13.0119 16.7408 12.6938 17.0391 12.2731C17.3375 11.8523 17.4985 11.3496 17.4999 10.8338V10.8338ZM12.4999 4.16718C12.5012 3.70855 12.3763 3.25841 12.1389 2.86601C11.9015 2.47362 11.5607 2.15409 11.1539 1.9424C10.747 1.73071 10.2898 1.63502 9.83218 1.66579C9.37458 1.69657 8.93427 1.85263 8.55943 2.11689C8.18459 2.38115 7.88967 2.74343 7.70694 3.16409C7.52421 3.58474 7.46071 4.04755 7.5234 4.50187C7.58609 4.9562 7.77255 5.38452 8.06237 5.73997C8.35219 6.09542 8.7342 6.3643 9.16659 6.51718V17.5005C9.16659 17.7215 9.25439 17.9335 9.41067 18.0898C9.56695 18.246 9.77891 18.3338 9.99993 18.3338C10.2209 18.3338 10.4329 18.246 10.5892 18.0898C10.7455 17.9335 10.8333 17.7215 10.8333 17.5005V6.51718C11.3196 6.34525 11.7408 6.02712 12.0391 5.6064C12.3375 5.18568 12.4985 4.68296 12.4999 4.16718Z" fill="url(#paint0_linear_11_39164)"/>
<defs>
<linearGradient id="paint0_linear_11_39164" x1="2.51953" y1="9.997" x2="17.4999" y2="9.997" gradientUnits="userSpaceOnUse">
<stop stop-color="#70CFA3"/>
<stop offset="1" stop-color="#B6E8C3"/>
</linearGradient>
</defs>
</svg>
