<svg width="18" height="16" viewBox="0 0 18 16" fill="none" xmlns="http://www.w3.org/2000/svg">
<path id="Icon" d="M3.75 1.25L1.5 3.5M16.5 3.5L14.25 1.25M4.5 13.25L3 14.75M13.5 13.25L15 14.75M9 5.75V8.75L10.5 10.25M9 14.75C10.5913 14.75 12.1174 14.1179 13.2426 12.9926C14.3679 11.8674 15 10.3413 15 8.75C15 7.1587 14.3679 5.63258 13.2426 4.50736C12.1174 3.38214 10.5913 2.75 9 2.75C7.4087 2.75 5.88258 3.38214 4.75736 4.50736C3.63214 5.63258 3 7.1587 3 8.75C3 10.3413 3.63214 11.8674 4.75736 12.9926C5.88258 14.1179 7.4087 14.75 9 14.75Z" stroke="#F99C4D" stroke-width="1.5" stroke-linecap="round" stroke-linejoin="round"/>
</svg>
