<svg width="20" height="20" viewBox="0 0 20 20" fill="none" xmlns="http://www.w3.org/2000/svg">
<path d="M18.1167 10.7583C17.9001 10.0417 17.5417 9.41667 17.0667 8.90834C16.4584 8.21667 15.6501 7.74167 14.7418 7.53334C14.2834 5.45001 13.0001 3.95001 11.1751 3.39167C9.19175 2.77501 6.89175 3.37501 5.45008 4.88334C4.18341 6.20834 3.76675 8.03334 4.25842 9.97501C2.59175 10.3833 1.76675 11.775 1.67508 13.1C1.66675 13.1917 1.66675 13.275 1.66675 13.3583C1.66675 14.925 2.69175 16.6833 4.97508 16.85H13.6251C14.8084 16.85 15.9417 16.4083 16.8084 15.6167C18.1668 14.425 18.6667 12.5667 18.1167 10.7583Z" fill="url(#paint0_linear_214_146)"/>
<defs>
<linearGradient id="paint0_linear_214_146" x1="1.66675" y1="10.8664" x2="18.3365" y2="10.8508" gradientUnits="userSpaceOnUse">
<stop stop-color="#0086DA"/>
<stop offset="1" stop-color="#00A9E9"/>
<stop offset="1" stop-color="#00A9E9"/>
</linearGradient>
</defs>
</svg>
