<svg width="24" height="25" viewBox="0 0 24 25" fill="none" xmlns="http://www.w3.org/2000/svg">
<g id="truck-02">
<path id="Icon" d="M16 16.5V6.7C16 5.5799 16 5.01984 15.782 4.59202C15.5903 4.21569 15.2843 3.90973 14.908 3.71799C14.4802 3.5 13.9201 3.5 12.8 3.5H5.2C4.0799 3.5 3.51984 3.5 3.09202 3.71799C2.71569 3.90973 2.40973 4.21569 2.21799 4.59202C2 5.01984 2 5.5799 2 6.7V13.3C2 14.4201 2 14.9802 2.21799 15.408C2.40973 15.7843 2.71569 16.0903 3.09202 16.282C3.51984 16.5 4.0799 16.5 5.2 16.5H16ZM16 16.5H20.4C20.9601 16.5 21.2401 16.5 21.454 16.391C21.6422 16.2951 21.7951 16.1422 21.891 15.954C22 15.7401 22 15.4601 22 14.9V12.1627C22 11.9182 22 11.7959 21.9724 11.6808C21.9479 11.5787 21.9075 11.4812 21.8526 11.3917C21.7908 11.2908 21.7043 11.2043 21.5314 11.0314L19.4686 8.96863C19.2957 8.79568 19.2092 8.7092 19.1083 8.64736C19.0188 8.59253 18.9213 8.55213 18.8192 8.52763C18.7041 8.5 18.5818 8.5 18.3373 8.5H16M9 19C9 20.3807 7.88071 21.5 6.5 21.5C5.11929 21.5 4 20.3807 4 19C4 17.6193 5.11929 16.5 6.5 16.5C7.88071 16.5 9 17.6193 9 19ZM20 19C20 20.3807 18.8807 21.5 17.5 21.5C16.1193 21.5 15 20.3807 15 19C15 17.6193 16.1193 16.5 17.5 16.5C18.8807 16.5 20 17.6193 20 19Z" stroke="#3B86D4" stroke-width="1.5" stroke-linecap="round" stroke-linejoin="round"/>
</g>
</svg>
