<svg width="24" height="25" viewBox="0 0 24 25" fill="none" xmlns="http://www.w3.org/2000/svg">
<g id="scales-02">
<path id="Icon" d="M2.50047 13.5H8.50047M15.5005 13.5H21.5005M12.0005 7.5V21.5M12.0005 7.5C13.3812 7.5 14.5005 6.38071 14.5005 5M12.0005 7.5C10.6198 7.5 9.50047 6.38071 9.50047 5M4.00047 21.5L20.0005 21.5M4.00047 5.00001L9.50047 5M9.50047 5C9.50047 3.61929 10.6198 2.5 12.0005 2.5C13.3812 2.5 14.5005 3.61929 14.5005 5M14.5005 5L20.0005 5M8.88091 14.8364C8.48022 16.3706 7.11858 17.5 5.50047 17.5C3.88237 17.5 2.52073 16.3706 2.12004 14.8364C2.0873 14.711 2.07093 14.6483 2.06935 14.3979C2.06838 14.2443 2.12544 13.8904 2.17459 13.7449C2.25478 13.5076 2.34158 13.3737 2.51519 13.1059L5.50047 8.5L8.48576 13.1059C8.65937 13.3737 8.74617 13.5076 8.82636 13.7449C8.87551 13.8904 8.93257 14.2443 8.9316 14.3979C8.93002 14.6483 8.91365 14.711 8.88091 14.8364ZM21.8809 14.8364C21.4802 16.3706 20.1186 17.5 18.5005 17.5C16.8824 17.5 15.5207 16.3706 15.12 14.8364C15.0873 14.711 15.0709 14.6483 15.0693 14.3979C15.0684 14.2443 15.1254 13.8904 15.1746 13.7449C15.2548 13.5076 15.3416 13.3737 15.5152 13.1059L18.5005 8.5L21.4858 13.1059C21.6594 13.3737 21.7462 13.5076 21.8264 13.7449C21.8755 13.8904 21.9326 14.2443 21.9316 14.3979C21.93 14.6483 21.9137 14.711 21.8809 14.8364Z" stroke="#3B86D4" stroke-width="1.5" stroke-linecap="round" stroke-linejoin="round"/>
</g>
</svg>
