<svg width="49" height="48" viewBox="0 0 49 48" fill="none" xmlns="http://www.w3.org/2000/svg">
    <defs>
        <linearGradient id="paint0_linear_2723_107116" x1="7" y1="10.5" x2="43" y2="40.5" gradientUnits="userSpaceOnUse">
            <stop stop-color="#C74547"/>
            <stop offset="1" stop-color="#8278D6"/>
        </linearGradient>
        <clipPath id="clip0_2723_107116">
            <rect width="48" height="48" fill="white" transform="translate(0.375)"/>
        </clipPath>
    </defs>
<g clip-path="url(#clip0_2723_107116)">
<circle cx="24.375" cy="24" r="24" fill="url(#paint0_linear_2723_107116)"/>
<path fill-rule="evenodd" clip-rule="evenodd" d="M13.5 15.75C13.5 14.5074 14.5074 13.5 15.75 13.5H32.25C33.4926 13.5 34.5 14.5074 34.5 15.75C34.5 16.9926 33.4926 18 32.25 18H15.75C14.5074 18 13.5 16.9926 13.5 15.75ZM15.75 15C15.3358 15 15 15.3358 15 15.75C15 16.1642 15.3358 16.5 15.75 16.5H32.25C32.6642 16.5 33 16.1642 33 15.75C33 15.3358 32.6642 15 32.25 15H15.75Z" fill="white"/>
<path fill-rule="evenodd" clip-rule="evenodd" d="M13.5 27.75C13.5 26.5074 14.5074 25.5 15.75 25.5H32.25C33.4926 25.5 34.5 26.5074 34.5 27.75C34.5 28.9926 33.4926 30 32.25 30H15.75C14.5074 30 13.5 28.9926 13.5 27.75ZM15.75 27C15.3358 27 15 27.3358 15 27.75C15 28.1642 15.3358 28.5 15.75 28.5H32.25C32.6642 28.5 33 28.1642 33 27.75C33 27.3358 32.6642 27 32.25 27H15.75Z" fill="white"/>
<path fill-rule="evenodd" clip-rule="evenodd" d="M15 17.25C15 16.8358 15.3358 16.5 15.75 16.5H32.25C32.6642 16.5 33 16.8358 33 17.25V26.25C33 26.6642 32.6642 27 32.25 27H15.75C15.3358 27 15 26.6642 15 26.25V17.25ZM16.5 18V25.5H31.5V18H16.5Z" fill="white"/>
<path fill-rule="evenodd" clip-rule="evenodd" d="M24 28.5C24.2409 28.5 24.4671 28.6157 24.6081 28.8111L27.8557 33.3111C28.0981 33.647 28.0224 34.1158 27.6865 34.3582C27.3506 34.6006 26.8818 34.5248 26.6394 34.1889L24 30.5316L21.3605 34.1889C21.1181 34.5248 20.6493 34.6006 20.3135 34.3582C19.9776 34.1158 19.9018 33.647 20.1442 33.3111L23.3918 28.8111C23.5328 28.6157 23.759 28.5 24 28.5Z" fill="white"/>
<path fill-rule="evenodd" clip-rule="evenodd" d="M29.8029 18.9932C30.0828 19.2985 30.0621 19.773 29.7568 20.0529L25.2568 24.1779C24.9956 24.4173 24.6024 24.4413 24.3141 24.2353L22.1671 22.7017L19.9881 24.5694C19.6736 24.839 19.2001 24.8026 18.9306 24.4881C18.661 24.1736 18.6974 23.7001 19.0119 23.4306L21.6369 21.1806C21.8989 20.956 22.2802 20.9392 22.5609 21.1397L24.6913 22.6614L28.7432 18.9471C29.0486 18.6672 29.523 18.6879 29.8029 18.9932Z" fill="white"/>
</g>
</svg>
