<svg width="24" height="24" viewBox="0 0 24 24" fill="none" xmlns="http://www.w3.org/2000/svg">
<path fill-rule="evenodd" clip-rule="evenodd" d="M4.52369 15.2732C4.88279 15.0668 5.34125 15.1906 5.54769 15.5497C6.21054 16.7028 7.15464 17.6692 8.29193 18.3588C9.42922 19.0484 10.7226 19.4387 12.0516 19.4934C12.4654 19.5104 12.7871 19.8597 12.7701 20.2735C12.7531 20.6874 12.4038 21.0091 11.9899 20.9921C10.4079 20.927 8.86812 20.4624 7.5142 19.6414C6.16028 18.8205 5.03635 17.67 4.24724 16.2972C4.04081 15.9381 4.16458 15.4797 4.52369 15.2732Z" fill="#4AA7FF"/>
<path fill-rule="evenodd" clip-rule="evenodd" d="M20.2263 7.97676C19.8672 8.18319 19.4087 8.05942 19.2023 7.70031C18.5395 6.54723 17.5954 5.58081 16.4581 4.8912C15.3208 4.2016 14.0274 3.81128 12.6984 3.75665C12.2846 3.73963 11.9629 3.39034 11.9799 2.97647C11.9969 2.56261 12.3462 2.2409 12.7601 2.25791C14.3421 2.32295 15.8819 2.78762 17.2358 3.60858C18.5897 4.42953 19.7136 5.58003 20.5028 6.95275C20.7092 7.31186 20.5854 7.77032 20.2263 7.97676Z" fill="#4AA7FF"/>
<path fill-rule="evenodd" clip-rule="evenodd" d="M6 3C5.17157 3 4.5 3.67157 4.5 4.5C4.5 5.32843 5.17157 6 6 6C6.82843 6 7.5 5.32843 7.5 4.5C7.5 3.67157 6.82843 3 6 3ZM3 4.5C3 2.84315 4.34315 1.5 6 1.5C7.65685 1.5 9 2.84315 9 4.5C9 6.15685 7.65685 7.5 6 7.5C4.34315 7.5 3 6.15685 3 4.5Z" fill="#4AA7FF"/>
<path fill-rule="evenodd" clip-rule="evenodd" d="M18 11.25C17.1716 11.25 16.5 11.9216 16.5 12.75C16.5 13.5784 17.1716 14.25 18 14.25C18.8284 14.25 19.5 13.5784 19.5 12.75C19.5 11.9216 18.8284 11.25 18 11.25ZM15 12.75C15 11.0931 16.3431 9.75 18 9.75C19.6569 9.75 21 11.0931 21 12.75C21 14.4069 19.6569 15.75 18 15.75C16.3431 15.75 15 14.4069 15 12.75Z" fill="#4AA7FF"/>
<path fill-rule="evenodd" clip-rule="evenodd" d="M6 9.75C4.34315 9.75 3 11.0931 3 12.75V13.5C3 13.9142 2.66421 14.25 2.25 14.25C1.83579 14.25 1.5 13.9142 1.5 13.5V12.75C1.5 10.2647 3.51472 8.25 6 8.25C8.48528 8.25 10.5 10.2647 10.5 12.75V13.5C10.5 13.9142 10.1642 14.25 9.75 14.25C9.33579 14.25 9 13.9142 9 13.5V12.75C9 11.0931 7.65685 9.75 6 9.75Z" fill="#4AA7FF"/>
<path fill-rule="evenodd" clip-rule="evenodd" d="M18 18C16.3431 18 15 19.3431 15 21V21.75C15 22.1642 14.6642 22.5 14.25 22.5C13.8358 22.5 13.5 22.1642 13.5 21.75V21C13.5 18.5147 15.5147 16.5 18 16.5C20.4853 16.5 22.5 18.5147 22.5 21V21.75C22.5 22.1642 22.1642 22.5 21.75 22.5C21.3358 22.5 21 22.1642 21 21.75V21C21 19.3431 19.6569 18 18 18Z" fill="#4AA7FF"/>
</svg>
