<svg width="40" height="40" viewBox="0 0 40 40" fill="none" xmlns="http://www.w3.org/2000/svg">
<g clip-path="url(#clip0_2343_23219)">
<path fill-rule="evenodd" clip-rule="evenodd" d="M31.3332 40H8.66656C7.5278 40.0023 6.3998 39.7797 5.34728 39.3449C4.29477 38.9102 3.33846 38.2719 2.53323 37.4667C1.728 36.6615 1.08971 35.7051 0.654971 34.6526C0.220236 33.6001 -0.00238037 32.4721 -0.0001048 31.3333V8.66668C-0.00238037 7.52792 0.220236 6.39992 0.654971 5.3474C1.08971 4.29489 1.728 3.33858 2.53323 2.53335C3.33846 1.72812 4.29477 1.08983 5.34728 0.655093C6.3998 0.220358 7.5278 -0.0022583 8.66656 1.72707e-05H31.3332C32.472 -0.0022583 33.6 0.220358 34.6525 0.655093C35.705 1.08983 36.6613 1.72812 37.4666 2.53335C38.2718 3.33858 38.9101 4.29489 39.3448 5.3474C39.7796 6.39992 40.0022 7.52792 39.9999 8.66668V31.3333C40.0022 32.4721 39.7796 33.6001 39.3448 34.6526C38.9101 35.7051 38.2718 36.6615 37.4666 37.4667C36.6613 38.2719 35.705 38.9102 34.6525 39.3449C33.6 39.7797 32.472 40.0023 31.3332 40V40Z" fill="#D8D6CC"/>
<path d="M19.9868 33C22.5585 33.0026 25.0732 32.2424 27.2128 30.8155C29.3524 29.3887 31.0207 27.3593 32.0066 24.9841C32.9926 22.6088 33.2519 19.9946 32.7518 17.4719C32.2517 14.9493 31.0146 12.6317 29.1971 10.8123C27.3795 8.99288 25.0631 7.75344 22.541 7.25076C20.0189 6.74809 17.4044 7.00476 15.0282 7.98831C12.6519 8.97187 10.6208 10.6381 9.1918 12.7762C7.76276 14.9144 6.99999 17.4283 7 20C7.01254 23.4417 8.3844 26.739 10.8168 29.1739C13.2492 31.6087 16.5451 32.984 19.9868 33V33ZM19.9868 24.3466C15.5607 24.3466 12.261 26.4006 11.2141 28.1631C9.62464 26.4535 8.56898 24.3169 8.1767 22.0158C7.78442 19.7146 8.07259 17.349 9.00583 15.2093C9.93908 13.0697 11.4768 11.249 13.4302 9.97097C15.3836 8.69291 17.6676 8.01303 20.002 8.01479C22.3363 8.01655 24.6193 8.69988 26.5708 9.98089C28.5223 11.2619 30.0572 13.0848 30.9872 15.2259C31.9172 17.367 32.2018 19.7331 31.8061 22.0336C31.4103 24.3342 30.3514 26.4691 28.7594 28.1764C27.7125 26.4006 24.4261 24.3466 19.9868 24.3466ZM19.9868 22.054C22.5311 22.054 24.4791 19.894 24.4791 17.0714C24.4791 14.421 22.4913 12.1947 19.9868 12.1947C17.4954 12.1947 15.4944 14.421 15.5077 17.0714C15.5077 19.894 17.4557 22.0408 19.9868 22.054Z" fill="#A9A29A"/>
</g>
<defs>
<clipPath id="clip0_2343_23219">
<rect width="40" height="40" fill="white"/>
</clipPath>
</defs>
</svg>
