<svg width="26" height="26" viewBox="0 0 26 26" fill="none" xmlns="http://www.w3.org/2000/svg">
<path d="M23.8334 8.04916V14.5492C23.8334 16.1742 23.2917 17.5283 22.3383 18.4817C21.3958 19.4242 20.0417 19.9658 18.4167 19.9658V22.2733C18.4167 23.14 17.4525 23.66 16.7375 23.1834L11.9167 19.9658H9.62003C9.70669 19.6408 9.75002 19.305 9.75002 18.9583C9.75002 17.8533 9.32752 16.835 8.63419 16.0659C7.85419 15.1775 6.69502 14.625 5.41669 14.625C4.20335 14.625 3.09836 15.1234 2.30753 15.9359C2.21003 15.5025 2.16669 15.0367 2.16669 14.5492V8.04916C2.16669 4.79916 4.33335 2.63249 7.58335 2.63249H18.4167C21.6667 2.63249 23.8334 4.79916 23.8334 8.04916Z" stroke="white" stroke-width="1.5" stroke-miterlimit="10" stroke-linecap="round" stroke-linejoin="round"/>
<path d="M9.74998 18.9583C9.74998 19.7708 9.52249 20.54 9.12166 21.19C8.89416 21.58 8.60165 21.9267 8.26582 22.2083C7.50749 22.8908 6.51081 23.2917 5.41665 23.2917C3.83498 23.2917 2.45913 22.4467 1.71163 21.19C1.3108 20.54 1.08331 19.7708 1.08331 18.9583C1.08331 17.5933 1.71165 16.3692 2.70831 15.5783C3.45581 14.9825 4.39831 14.625 5.41665 14.625C7.81081 14.625 9.74998 16.5642 9.74998 18.9583Z" stroke="white" stroke-width="1.5" stroke-miterlimit="10" stroke-linecap="round" stroke-linejoin="round"/>
<path d="M3.72662 18.9583L4.79911 20.0308L7.10662 17.8967" stroke="white" stroke-width="1.5" stroke-linecap="round" stroke-linejoin="round"/>
<path d="M9.20831 11.375H16.7916" stroke="white" stroke-width="1.5" stroke-miterlimit="10" stroke-linecap="round" stroke-linejoin="round"/>
</svg>
