<svg width="18" height="20" viewBox="0 0 18 20" fill="none" xmlns="http://www.w3.org/2000/svg">
<path d="M3.25 0C2.58696 0 1.95107 0.263392 1.48223 0.732233C1.01339 1.20107 0.75 1.83696 0.75 2.5V17.5C0.75 18.163 1.01339 18.7989 1.48223 19.2678C1.95107 19.7366 2.58696 20 3.25 20H16.5C16.6989 20 16.8897 19.921 17.0303 19.7803C17.171 19.6397 17.25 19.4489 17.25 19.25C17.25 19.0511 17.171 18.8603 17.0303 18.7197C16.8897 18.579 16.6989 18.5 16.5 18.5H3.25C2.98478 18.5 2.73043 18.3946 2.54289 18.2071C2.35536 18.0196 2.25 17.7652 2.25 17.5H16.5C16.6989 17.5 16.8897 17.421 17.0303 17.2803C17.171 17.1397 17.25 16.9489 17.25 16.75V2.5C17.25 2.1717 17.1853 1.84661 17.0597 1.54329C16.9341 1.23998 16.7499 0.964379 16.5178 0.732233C16.2856 0.500087 16.01 0.315938 15.7067 0.190301C15.4034 0.0646644 15.0783 0 14.75 0H3.25ZM12.25 10.25V10.75C12.25 11.75 10.867 12.5 9 12.5C7.133 12.5 5.75 11.75 5.75 10.75V10.25C5.75 10.0511 5.82902 9.86032 5.96967 9.71967C6.11032 9.57902 6.30109 9.5 6.5 9.5H11.5C11.6989 9.5 11.8897 9.57902 12.0303 9.71967C12.171 9.86032 12.25 10.0511 12.25 10.25ZM10.75 6.745C10.75 7.20913 10.5656 7.65425 10.2374 7.98244C9.90925 8.31063 9.46413 8.495 9 8.495C8.53587 8.495 8.09075 8.31063 7.76256 7.98244C7.43437 7.65425 7.25 7.20913 7.25 6.745C7.25 5.78 8.033 5 9 5C9.967 5 10.75 5.779 10.75 6.745Z" fill="white"/>
</svg>
