<svg width="25" height="24" viewBox="0 0 25 24" fill="none" xmlns="http://www.w3.org/2000/svg">
<path d="M16.375 12.9V17.1C16.375 20.6 14.975 22 11.475 22H7.275C3.775 22 2.375 20.6 2.375 17.1V12.9C2.375 9.4 3.775 8 7.275 8H11.475C14.975 8 16.375 9.4 16.375 12.9Z" stroke="#40BAC1" stroke-width="1.5" stroke-linecap="round" stroke-linejoin="round"/>
<path d="M22.375 6.9V11.1C22.375 14.6 20.975 16 17.475 16H16.375V12.9C16.375 9.4 14.975 8 11.475 8H8.375V6.9C8.375 3.4 9.775 2 13.275 2H17.475C20.975 2 22.375 3.4 22.375 6.9Z" stroke="#40BAC1" stroke-width="1.5" stroke-linecap="round" stroke-linejoin="round"/>
</svg>
