<svg width="25" height="24" viewBox="0 0 25 24" fill="none" xmlns="http://www.w3.org/2000/svg">
<path d="M20.3751 9.5V6.8C20.3751 5.11984 20.3751 4.27976 20.0481 3.63803C19.7605 3.07354 19.3015 2.6146 18.737 2.32698C18.0953 2 17.2552 2 15.5751 2H9.17506C7.4949 2 6.65482 2 6.01309 2.32698C5.4486 2.6146 4.98966 3.07354 4.70204 3.63803C4.37506 4.27976 4.37506 5.11984 4.37506 6.8V17.2C4.37506 18.8802 4.37506 19.7202 4.70204 20.362C4.98966 20.9265 5.4486 21.3854 6.01309 21.673C6.65482 22 7.4949 22 9.17506 22H14.3751M14.3751 11H8.37506M10.3751 15H8.37506M16.3751 7H8.37506M16.8751 15.0022C17.0513 14.5014 17.399 14.079 17.8568 13.81C18.3146 13.5409 18.8528 13.4426 19.3761 13.5324C19.8994 13.6221 20.3741 13.8942 20.716 14.3004C21.0579 14.7066 21.2451 15.2207 21.2443 15.7517C21.2443 17.2506 18.996 18 18.996 18M19.025 21H19.035" stroke="white" stroke-width="2" stroke-linecap="round" stroke-linejoin="round"/>
</svg>
