<svg width="30" height="30" viewBox="0 0 30 30" fill="none" xmlns="http://www.w3.org/2000/svg">
<path d="M22.5 27.5C21.75 27.5 21.25 27 21.25 26.25V22.5C21.25 21.75 21.75 21.25 22.5 21.25C23.25 21.25 23.75 21.75 23.75 22.5V26.25C23.75 27 23.25 27.5 22.5 27.5Z" fill="white"/>
<path d="M7.5 8.75H3.75C3 8.75 2.5 8.25 2.5 7.5C2.5 6.75 3 6.25 3.75 6.25H7.5C8.25 6.25 8.75 6.75 8.75 7.5C8.75 8.25 8.25 8.75 7.5 8.75Z" fill="white"/>
<path d="M26.25 23.75H7.5C6.75 23.75 6.25 23.25 6.25 22.5V3.75C6.25 3 6.75 2.5 7.5 2.5C8.25 2.5 8.75 3 8.75 3.75V21.25H26.25C27 21.25 27.5 21.75 27.5 22.5C27.5 23.25 27 23.75 26.25 23.75Z" fill="white"/>
<path d="M22.5 18.75C21.75 18.75 21.25 18.25 21.25 17.5V8.75H12.5C11.75 8.75 11.25 8.25 11.25 7.5C11.25 6.75 11.75 6.25 12.5 6.25H22.5C23.25 6.25 23.75 6.75 23.75 7.5V17.5C23.75 18.25 23.25 18.75 22.5 18.75Z" fill="white"/>
<path d="M13.0782 12V16.9593H12.2407V12.9708L11 13.3815V12.706L12.9774 12H13.0782Z" fill="white"/>
<path d="M14.8957 16.5519C14.8957 16.4252 14.9398 16.3189 15.0278 16.2329C15.1158 16.1446 15.2352 16.1005 15.3858 16.1005C15.5387 16.1005 15.658 16.1446 15.7437 16.2329C15.8317 16.3189 15.8758 16.4252 15.8758 16.5519C15.8758 16.6787 15.8317 16.785 15.7437 16.871C15.658 16.957 15.5387 17 15.3858 17C15.2352 17 15.1158 16.957 15.0278 16.871C14.9398 16.785 14.8957 16.6787 14.8957 16.5519ZM14.8992 13.6599C14.8992 13.5332 14.9432 13.4268 15.0313 13.3408C15.1193 13.2525 15.2386 13.2084 15.3892 13.2084C15.5421 13.2084 15.6615 13.2525 15.7472 13.3408C15.8352 13.4268 15.8792 13.5332 15.8792 13.6599C15.8792 13.7866 15.8352 13.893 15.7472 13.979C15.6615 14.0649 15.5421 14.1079 15.3892 14.1079C15.2386 14.1079 15.1193 14.0649 15.0313 13.979C14.9432 13.893 14.8992 13.7866 14.8992 13.6599Z" fill="white"/>
<path d="M19 12V16.9593H18.1625V12.9708L16.9218 13.3815V12.706L18.8992 12H19Z" fill="white"/>
</svg>
