<svg width="24" height="24" viewBox="0 0 24 24" fill="none" xmlns="http://www.w3.org/2000/svg">
<path d="M18 22C17.4 22 17 21.6 17 21V18C17 17.4 17.4 17 18 17C18.6 17 19 17.4 19 18V21C19 21.6 18.6 22 18 22Z" fill="white"/>
<path d="M6 7H3C2.4 7 2 6.6 2 6C2 5.4 2.4 5 3 5H6C6.6 5 7 5.4 7 6C7 6.6 6.6 7 6 7Z" fill="white"/>
<path d="M21 19H6C5.4 19 5 18.6 5 18V3C5 2.4 5.4 2 6 2C6.6 2 7 2.4 7 3V17H21C21.6 17 22 17.4 22 18C22 18.6 21.6 19 21 19Z" fill="white"/>
<path d="M18 15C17.4 15 17 14.6 17 14V7H10C9.4 7 9 6.6 9 6C9 5.4 9.4 5 10 5H18C18.6 5 19 5.4 19 6V14C19 14.6 18.6 15 18 15Z" fill="white"/>
</svg>
