<svg width="20" height="20" viewBox="0 0 20 20" fill="none" xmlns="http://www.w3.org/2000/svg">
<g id="vuesax/linear/profile-delete">
<g id="profile-delete">
<path id="Vector" d="M15.3417 15.0752L12.9917 17.4252" stroke="#474747" stroke-width="1.5" stroke-linecap="round" stroke-linejoin="round"/>
<path id="Vector_2" d="M15.3417 17.4252L12.9917 15.0752" stroke="#474747" stroke-width="1.5" stroke-linecap="round" stroke-linejoin="round"/>
<path id="Vector_3" d="M10.1331 9.05817C10.0498 9.04984 9.9498 9.04984 9.85814 9.05817C7.8748 8.9915 6.2998 7.3665 6.2998 5.3665C6.2998 3.32484 7.9498 1.6665 9.9998 1.6665C12.0415 1.6665 13.6998 3.32484 13.6998 5.3665C13.6915 7.3665 12.1165 8.9915 10.1331 9.05817Z" stroke="#474747" stroke-width="1.5" stroke-linecap="round" stroke-linejoin="round"/>
<path id="Vector_4" d="M10 18.1751C8.48333 18.1751 6.975 17.7917 5.825 17.0251C3.80833 15.6751 3.80833 13.4751 5.825 12.1334C8.11667 10.6001 11.875 10.6001 14.1667 12.1334" stroke="#474747" stroke-width="1.5" stroke-linecap="round" stroke-linejoin="round"/>
</g>
</g>
</svg>
