<svg width="20" height="20" viewBox="0 0 20 20" fill="none" xmlns="http://www.w3.org/2000/svg">
<g id="Desktop Settings">
<path id="Rectangle 89" d="M8.3335 3.33301H5.3335C4.22893 3.33301 3.3335 4.22844 3.3335 5.33301V11.333C3.3335 12.4376 4.22892 13.333 5.33349 13.333H14.6668C15.7714 13.333 16.6668 12.4376 16.6668 11.333V10.833" stroke="#FF9085" stroke-width="1.5" stroke-linecap="round" stroke-linejoin="round"/>
<path id="Ellipse 54" d="M14.5532 4.16667C15.1701 4.16667 15.7087 4.50177 15.9969 4.99986M14.5532 4.16667C13.9364 4.16667 13.3978 4.50177 13.1096 4.99986M14.5532 4.16667V2.5M14.5532 9.16667V7.47229M17.44 4.16667L15.9969 4.99986M11.6665 7.5L13.1096 6.66681M17.44 7.5L15.9969 6.66683M11.6665 4.16667L13.1096 4.99986M13.1096 6.66681C12.9678 6.42163 12.8866 6.13696 12.8866 5.83333C12.8866 5.5297 12.9678 5.24503 13.1096 4.99986M13.1096 6.66681C13.4378 7.23395 13.9979 7.48346 14.5532 7.47229M14.5532 7.47229C15.1265 7.46076 15.6947 7.17138 15.9969 6.66683M15.9969 6.66683C16.1369 6.4331 16.2199 6.15319 16.2199 5.83333C16.2199 5.5297 16.1387 5.24504 15.9969 4.99986" stroke="#FF9085" stroke-width="1.5" stroke-linecap="round"/>
<path id="Vector 187" d="M10 13.333V16.6663" stroke="#FF9085" stroke-width="1.5" stroke-linecap="round" stroke-linejoin="round"/>
<path id="Vector 188" d="M6.6665 16.667H13.3332" stroke="#FF9085" stroke-width="1.5" stroke-linecap="round" stroke-linejoin="round"/>
</g>
</svg>
