<svg width="24" height="24" viewBox="0 0 24 24" fill="none" xmlns="http://www.w3.org/2000/svg">
<path d="M9.77243 3.74249C14.2124 3.88499 14.2124 10.32 9.77243 10.4625C5.33243 10.32 5.33243 3.88499 9.77243 3.74249ZM16.4549 13.9275C15.4574 13.485 14.6549 12.6825 14.2274 11.6775C14.1149 11.415 13.8374 11.2575 13.5524 11.2575H2.99243C2.58743 11.2575 2.24243 11.58 2.24243 11.985C2.25743 16.5825 5.35493 20.3175 9.76493 20.2575C13.1999 20.2575 15.8774 18.0975 16.8599 14.8425C16.9724 14.475 16.7999 14.085 16.4474 13.9275H16.4549ZM18.2024 13.5525C13.4849 13.3875 13.4624 6.54749 18.2024 6.38999C22.9499 6.56249 22.9424 13.38 18.2024 13.5525ZM18.5774 11.1375H17.8274V11.685H18.5774V11.1375ZM18.5774 8.24999H17.8274V10.47H18.5774V8.24999Z" fill="#474747"/>
</svg>
