<svg width="25" height="25" viewBox="0 0 25 25" fill="none" xmlns="http://www.w3.org/2000/svg">
<g clip-path="url(#clip0_1991_14537)">
<path d="M3.86016 1.45996C3.07078 1.45996 2.42016 2.11059 2.42016 2.89996V3.43621L0.691406 4.81996L2.42016 6.20184V6.73996C2.42016 7.52934 3.07078 8.17996 3.86016 8.17996H18.2602C19.0495 8.17996 19.7002 7.52934 19.7002 6.73996V2.89996C19.7002 2.11059 19.0495 1.45996 18.2602 1.45996H3.86016ZM3.86016 2.41996H18.2602C18.532 2.41996 18.7402 2.62809 18.7402 2.89996V6.73996C18.7402 7.01184 18.532 7.21996 18.2602 7.21996H3.86016C3.58828 7.21996 3.38016 7.01184 3.38016 6.73996V5.74246L2.22891 4.81996L3.38016 3.89746V2.89996C3.38016 2.62809 3.58828 2.41996 3.86016 2.41996ZM5.78016 4.33996C5.51578 4.33996 5.30016 4.55559 5.30016 4.81996C5.30016 5.08434 5.51578 5.29996 5.78016 5.29996C6.04453 5.29996 6.26016 5.08434 6.26016 4.81996C6.26016 4.55559 6.04453 4.33996 5.78016 4.33996ZM7.70016 4.33996C7.43578 4.33996 7.22016 4.55559 7.22016 4.81996C7.22016 5.08434 7.43578 5.29996 7.70016 5.29996C7.96453 5.29996 8.18016 5.08434 8.18016 4.81996C8.18016 4.55559 7.96453 4.33996 7.70016 4.33996ZM9.62016 4.33996C9.35578 4.33996 9.14016 4.55559 9.14016 4.81996C9.14016 5.08434 9.35578 5.29996 9.62016 5.29996C9.88453 5.29996 10.1002 5.08434 10.1002 4.81996C10.1002 4.55559 9.88453 4.33996 9.62016 4.33996ZM11.5402 4.33996C11.2758 4.33996 11.0602 4.55559 11.0602 4.81996C11.0602 5.08434 11.2758 5.29996 11.5402 5.29996C11.8045 5.29996 12.0202 5.08434 12.0202 4.81996C12.0202 4.55559 11.8045 4.33996 11.5402 4.33996ZM13.4602 4.33996C13.1958 4.33996 12.9802 4.55559 12.9802 4.81996C12.9802 5.08434 13.1958 5.29996 13.4602 5.29996C13.7245 5.29996 13.9402 5.08434 13.9402 4.81996C13.9402 4.55559 13.7245 4.33996 13.4602 4.33996ZM5.78016 9.13996C4.99078 9.13996 4.34016 9.79059 4.34016 10.58V11.1181L2.61141 12.5L4.34016 13.8818V14.42C4.34016 15.2093 4.99078 15.86 5.78016 15.86H20.1802C20.9695 15.86 21.6202 15.2093 21.6202 14.42V10.58C21.6202 9.79059 20.9695 9.13996 20.1802 9.13996H5.78016ZM5.78016 10.1H20.1802C20.452 10.1 20.6602 10.3081 20.6602 10.58V14.42C20.6602 14.6918 20.452 14.9 20.1802 14.9H5.78016C5.50828 14.9 5.30016 14.6918 5.30016 14.42V13.4225L4.14891 12.5L5.30016 11.5775V10.58C5.30016 10.3081 5.50828 10.1 5.78016 10.1ZM7.70016 12.02C7.43578 12.02 7.22016 12.2356 7.22016 12.5C7.22016 12.7643 7.43578 12.98 7.70016 12.98C7.96453 12.98 8.18016 12.7643 8.18016 12.5C8.18016 12.2356 7.96453 12.02 7.70016 12.02ZM9.62016 12.02C9.35578 12.02 9.14016 12.2356 9.14016 12.5C9.14016 12.7643 9.35578 12.98 9.62016 12.98C9.88453 12.98 10.1002 12.7643 10.1002 12.5C10.1002 12.2356 9.88453 12.02 9.62016 12.02ZM11.5402 12.02C11.2758 12.02 11.0602 12.2356 11.0602 12.5C11.0602 12.7643 11.2758 12.98 11.5402 12.98C11.8045 12.98 12.0202 12.7643 12.0202 12.5C12.0202 12.2356 11.8045 12.02 11.5402 12.02ZM7.70016 16.82C6.91078 16.82 6.26016 17.4706 6.26016 18.26V18.7981L4.53141 20.18L6.26016 21.5618V22.1C6.26016 22.8893 6.91078 23.54 7.70016 23.54H22.1002C22.8895 23.54 23.5402 22.8893 23.5402 22.1V18.26C23.5402 17.4706 22.8895 16.82 22.1002 16.82H7.70016ZM7.70016 17.78H22.1002C22.372 17.78 22.5802 17.9881 22.5802 18.26V22.1C22.5802 22.3718 22.372 22.58 22.1002 22.58H7.70016C7.42828 22.58 7.22016 22.3718 7.22016 22.1V21.1025L6.06891 20.18L7.22016 19.2575V18.26C7.22016 17.9881 7.42828 17.78 7.70016 17.78ZM9.62016 19.7C9.35578 19.7 9.14016 19.9156 9.14016 20.18C9.14016 20.4443 9.35578 20.66 9.62016 20.66C9.88453 20.66 10.1002 20.4443 10.1002 20.18C10.1002 19.9156 9.88453 19.7 9.62016 19.7ZM11.5402 19.7C11.2758 19.7 11.0602 19.9156 11.0602 20.18C11.0602 20.4443 11.2758 20.66 11.5402 20.66C11.8045 20.66 12.0202 20.4443 12.0202 20.18C12.0202 19.9156 11.8045 19.7 11.5402 19.7ZM13.4602 19.7C13.1958 19.7 12.9802 19.9156 12.9802 20.18C12.9802 20.4443 13.1958 20.66 13.4602 20.66C13.7245 20.66 13.9402 20.4443 13.9402 20.18C13.9402 19.9156 13.7245 19.7 13.4602 19.7ZM15.3802 19.7C15.1158 19.7 14.9002 19.9156 14.9002 20.18C14.9002 20.4443 15.1158 20.66 15.3802 20.66C15.6445 20.66 15.8602 20.4443 15.8602 20.18C15.8602 19.9156 15.6445 19.7 15.3802 19.7ZM17.3002 19.7C17.0358 19.7 16.8202 19.9156 16.8202 20.18C16.8202 20.4443 17.0358 20.66 17.3002 20.66C17.5645 20.66 17.7802 20.4443 17.7802 20.18C17.7802 19.9156 17.5645 19.7 17.3002 19.7ZM19.2202 19.7C18.9558 19.7 18.7402 19.9156 18.7402 20.18C18.7402 20.4443 18.9558 20.66 19.2202 20.66C19.4845 20.66 19.7002 20.4443 19.7002 20.18C19.7002 19.9156 19.4845 19.7 19.2202 19.7Z" fill="#474747"/>
</g>
<defs>
<clipPath id="clip0_1991_14537">
<rect width="24" height="24" fill="white" transform="translate(0.5 0.5)"/>
</clipPath>
</defs>
</svg>
