<svg width="22" height="22" viewBox="0 0 22 22" fill="none" xmlns="http://www.w3.org/2000/svg">
<path d="M10.0835 1.83337H8.25016C3.66683 1.83337 1.8335 3.66671 1.8335 8.25004V13.75C1.8335 18.3334 3.66683 20.1667 8.25016 20.1667H13.7502C18.3335 20.1667 20.1668 18.3334 20.1668 13.75V11.9167" stroke="#666666" stroke-width="1.5" stroke-linecap="round" stroke-linejoin="round"/>
<path d="M14.7032 2.76832L7.47989 9.99165C7.20489 10.2667 6.92989 10.8075 6.87489 11.2017L6.48072 13.9608C6.33406 14.96 7.03989 15.6567 8.03906 15.5192L10.7982 15.125C11.1832 15.07 11.7241 14.795 12.0082 14.52L19.2316 7.29665C20.4782 6.04999 21.0649 4.60165 19.2316 2.76832C17.3982 0.934987 15.9499 1.52165 14.7032 2.76832Z" stroke="#666666" stroke-width="1.5" stroke-miterlimit="10" stroke-linecap="round" stroke-linejoin="round"/>
<path d="M13.6675 3.8042C14.2816 5.99503 15.9958 7.7092 18.1958 8.33253" stroke="#666666" stroke-width="1.5" stroke-miterlimit="10" stroke-linecap="round" stroke-linejoin="round"/>
</svg>
