<svg width="24" height="24" viewBox="0 0 24 24" fill="none" xmlns="http://www.w3.org/2000/svg">
    <defs>
        <linearGradient id="paint0_linear_2723_138003" x1="12.0429" y1="3.91455" x2="12.0429" y2="20.0003" gradientUnits="userSpaceOnUse">
            <stop stop-color="#3A86D4"/>
            <stop offset="1" stop-color="#4BA6E3"/>
        </linearGradient>
    </defs>
<path d="M12.0001 4.00034H7.18756C5.42715 4.00034 4.00006 5.42743 4.00006 7.18784V16.8128C4.00006 18.5732 5.42715 20.0003 7.18756 20.0003H16.8126C18.573 20.0003 20.0001 18.5732 20.0001 16.8128V12.0003M18.4143 8.41454L19.5 7.32878C20.2811 6.54773 20.2811 5.28141 19.5 4.50037C18.719 3.71931 17.4526 3.71932 16.6716 4.50038L15.5859 5.58611M18.4143 8.41454L12.378 14.4509C12.0988 14.7301 11.7432 14.9204 11.356 14.9979L8.41429 15.5862L9.00263 12.6445C9.08007 12.2573 9.27038 11.9017 9.54957 11.6225L15.5859 5.58611M18.4143 8.41454L15.5859 5.58611" stroke="url(#paint0_linear_2723_138003)" stroke-width="1.5" stroke-linecap="round" stroke-linejoin="round"/>
</svg>
