<svg width="28" height="28" viewBox="0 0 28 28" fill="none" xmlns="http://www.w3.org/2000/svg">
    <defs>
        <linearGradient id="paint0_linear_3915_188859" x1="0" y1="0" x2="32.265" y2="18.4462" gradientUnits="userSpaceOnUse">
            <stop stop-color="#9DA8FF"/>
            <stop offset="1" stop-color="#27E0D5"/>
        </linearGradient>
    </defs>
<path fill-rule="evenodd" clip-rule="evenodd" d="M21.175 10.675C21 11.2 20.825 11.55 20.3 11.725C18.025 13.3 16.625 14.175 16.275 14.35C16.275 14.525 16.1 14.525 15.75 14.875C15.75 14.875 15.575 15.05 15.225 15.05C15.225 15.05 15.05 15.225 14.875 15.225C14.875 15.4 14.7 15.4 14.35 15.4C14.35 15.575 14.175 15.575 13.825 15.575C13.825 15.575 13.65 15.575 13.3 15.4C13.3 15.4 13.125 15.4 12.775 15.225C12.6 15.225 12.6 15.05 12.425 15.05C12.425 15.05 12.25 14.875 11.9 14.875C11.725 14.7 11.725 14.7 11.725 14.35C11.025 14.175 10.325 13.65 9.44999 12.95C8.39999 12.25 7.87499 11.9 7.69999 11.55C7.17499 11.375 7.00001 11.2 6.65001 10.675C6.47501 10.15 6.125 9.8 6.125 9.625C6.125 9.275 6.30001 8.74999 6.65001 8.57499C6.82501 8.04999 7.00001 8.04996 7.52501 8.04996C20.125 8.04996 20.125 8.04996 20.125 8.04996C20.65 8.04996 20.825 8.04997 21 8.22497C21.525 8.74997 21.525 8.92498 21.525 9.27498C21.525 9.97498 21.525 10.5 21.175 10.675ZM21.525 18.725C21.525 19.075 21.525 19.425 21.35 19.6C21 19.95 20.65 19.95 20.3 19.95C7.69998 19.95 7.69999 19.95 7.69999 19.95C7.52499 19.95 6.99999 19.95 6.82499 19.6C6.64999 19.425 6.29998 19.075 6.29998 18.725C6.29998 12.075 6.29998 12.075 6.29998 12.075C6.47498 12.25 6.99998 12.425 7.17498 12.775C9.27498 14.175 10.85 15.225 11.55 15.75C11.725 15.925 12.25 16.1 12.25 16.45C12.425 16.45 12.95 16.625 13.125 16.8C13.65 16.8 13.825 16.975 14 16.975C14.525 16.975 14.7 16.8 14.875 16.8C15.225 16.625 15.575 16.45 15.75 16.45C15.925 16.275 16.275 15.925 16.625 15.75C17.5 15.05 18.9 14.175 21 12.775C21.175 12.6 21.35 12.425 21.7 12.075C21.525 18.725 21.525 18.725 21.525 18.725ZM14 0C6.3 0 0 6.3 0 14C0 21.7 6.3 28 14 28C21.7 28 28 21.7 28 14C28 6.3 21.7 0 14 0Z" fill="url(#paint0_linear_3915_188859)"/>
</svg>
