<svg width="46" height="42" viewBox="0 0 46 42" fill="none" xmlns="http://www.w3.org/2000/svg">
<path d="M7.82812 14.995C7.91291 14.775 8.02264 14.57 8.14733 14.375C8.02264 14.57 7.91291 14.78 7.82812 14.995Z" fill="#423D3A"/>
<path d="M9.47363 13.2049C9.59832 13.1449 9.72301 13.0899 9.85269 13.0449C9.728 13.0899 9.59832 13.1449 9.47363 13.2049Z" fill="#423D3A"/>
<g filter="url(#filter0_d_3055_115809)">
<path d="M41.5042 19.7519C41.1342 13.9419 37.5342 8.65188 32.4742 5.85688C26.7792 2.71188 19.2392 2.71688 13.5492 5.85688C10.5592 7.50688 8.05416 10.0469 6.44416 13.0469C5.63416 14.5519 5.05416 16.1769 4.74416 17.8619C3.85916 22.7419 5.50416 29.2469 9.27416 32.6419C11.8792 34.9869 15.4742 35.8719 18.9592 36.2719C21.6442 36.5819 24.3792 36.5819 27.0642 36.2719C30.5442 35.8719 34.1442 34.9869 36.7492 32.6419C38.3142 31.2369 39.4942 29.4169 40.2942 27.4219C41.2592 25.0019 41.6642 22.3119 41.5042 19.7519Z" fill="#FBBD3A"/>
<path d="M14.3247 10.2668C10.8347 10.2668 7.93465 12.8018 7.36965 16.1318C7.30465 16.5218 7.26465 16.9218 7.26465 17.3268C7.26465 21.2268 10.4247 24.3868 14.3247 24.3868C18.0847 24.3868 21.1547 21.4468 21.3697 17.7418C21.3797 17.6068 21.3846 17.4668 21.3846 17.3268C21.3846 13.4268 18.2247 10.2668 14.3247 10.2668Z" fill="white"/>
<path d="M38.6791 16.1318C38.1091 12.8018 35.2141 10.2668 31.7241 10.2668C27.8241 10.2668 24.6641 13.4268 24.6641 17.3268C24.6641 17.4668 24.6691 17.6018 24.6791 17.7418C24.8941 21.4468 27.9641 24.3868 31.7241 24.3868C35.6241 24.3868 38.7841 21.2268 38.7841 17.3268C38.7791 16.9168 38.7441 16.5218 38.6791 16.1318Z" fill="white"/>
<path d="M35.0794 31.9769C31.8394 33.9619 28.0844 35.0669 24.2944 35.3069C20.8694 35.5269 17.3694 35.0419 14.2394 33.6319C11.1094 32.2219 8.3744 29.8469 6.7844 26.8119C5.2494 23.8869 4.8294 20.4419 5.3244 17.1769C5.5394 15.7669 5.9194 14.3869 6.4344 13.0569C5.6244 14.5619 5.0444 16.1869 4.7344 17.8719C3.8494 22.7519 5.49439 29.2569 9.26439 32.6519C11.8694 34.9969 15.4644 35.8819 18.9494 36.2819C21.6344 36.5919 24.3694 36.5919 27.0544 36.2819C30.5344 35.8819 34.1344 34.9969 36.7394 32.6519C38.3044 31.2469 39.4844 29.4269 40.2844 27.4319C38.8294 29.2219 37.0544 30.7669 35.0794 31.9769Z" fill="#F8AB12"/>
<path d="M14.3241 10.2668C18.2241 10.2668 21.3841 13.4268 21.3841 17.3268C21.3841 17.4668 21.3791 17.6068 21.3691 17.7418C21.4341 17.3518 21.4741 16.9518 21.4741 16.5468C21.4741 12.6468 18.3141 9.48682 14.4141 9.48682C10.6541 9.48682 7.58414 12.4268 7.36914 16.1318C7.93914 12.8018 10.8341 10.2668 14.3241 10.2668Z" fill="#F8AB12"/>
<path d="M31.7193 10.2668C35.2093 10.2668 38.1093 12.8018 38.6743 16.1318C38.4593 12.4268 35.3893 9.48682 31.6293 9.48682C27.7293 9.48682 24.5693 12.6468 24.5693 16.5468C24.5693 16.9568 24.6043 17.3518 24.6743 17.7418C24.6643 17.6068 24.6593 17.4668 24.6593 17.3268C24.6643 13.4268 27.8243 10.2668 31.7193 10.2668Z" fill="#F8AB12"/>
<path d="M15.4991 28.1969C15.2591 28.0569 15.1741 27.7519 15.3141 27.5069C15.4541 27.2669 15.7591 27.1819 16.0041 27.3219C16.3741 27.5369 16.7541 27.7269 17.1441 27.9019C17.1041 27.6019 16.9741 27.3119 16.7891 27.0769C16.4891 26.6869 16.0591 26.4119 15.6141 26.1969C14.5691 25.6869 13.3941 25.4519 12.2291 25.5169C11.5791 25.5569 10.9191 25.6919 10.3791 26.0519C9.83911 26.4119 9.43411 27.0269 9.45911 27.6769C9.48411 28.3519 9.95411 28.9419 10.5291 29.2969C12.0241 30.2069 14.1291 30.2719 15.7291 29.6719C16.1691 29.5069 16.6141 29.2569 16.8891 28.8919C16.4141 28.6869 15.9491 28.4519 15.4991 28.1969Z" fill="#EB5B53"/>
<path d="M35.6692 26.0519C35.1292 25.6919 34.4692 25.5519 33.8192 25.5169C32.6592 25.4519 31.4792 25.6869 30.4342 26.1969C29.9892 26.4119 29.5592 26.6869 29.2592 27.0769C29.0792 27.3069 28.9542 27.5869 28.9092 27.8719C29.2942 27.6969 29.6742 27.5019 30.0392 27.2869C30.2792 27.1469 30.5892 27.2269 30.7292 27.4719C30.8692 27.7119 30.7892 28.0219 30.5442 28.1619C30.0892 28.4269 29.6192 28.6619 29.1392 28.8769C29.4142 29.2519 29.8692 29.5069 30.3142 29.6769C31.9142 30.2819 34.0192 30.2169 35.5142 29.3019C36.0892 28.9519 36.5592 28.3569 36.5842 27.6819C36.6092 27.0269 36.2092 26.4119 35.6692 26.0519Z" fill="#EB5B53"/>
<path d="M30.7297 27.467C30.5897 27.227 30.2797 27.142 30.0397 27.282C29.6697 27.497 29.2947 27.692 28.9097 27.867C27.0647 28.712 25.0297 29.137 22.9897 29.137C20.9797 29.137 18.9697 28.722 17.1447 27.902C16.7547 27.727 16.3747 27.532 16.0047 27.322C15.7647 27.182 15.4547 27.267 15.3147 27.507C15.1747 27.747 15.2597 28.057 15.4997 28.197C15.9497 28.457 16.4097 28.687 16.8847 28.892C18.8047 29.732 20.8947 30.147 22.9897 30.147C25.0997 30.147 27.2097 29.722 29.1447 28.867C29.6247 28.657 30.0947 28.417 30.5497 28.152C30.7897 28.017 30.8697 27.707 30.7297 27.467Z" fill="#3F1719"/>
<path d="M20.3191 17.3268C20.3191 14.0168 17.6341 11.3318 14.3241 11.3318C11.0141 11.3318 8.3291 14.0168 8.3291 17.3268C8.3291 20.6368 11.0141 23.3218 14.3241 23.3218C17.6391 23.3218 20.3191 20.6368 20.3191 17.3268ZM16.6041 21.0118C16.3241 21.0118 16.0991 20.7868 16.0991 20.5068C16.0991 20.2268 16.3241 20.0018 16.6041 20.0018C16.8841 20.0018 17.1091 20.2268 17.1091 20.5068C17.1091 20.7868 16.8791 21.0118 16.6041 21.0118ZM11.4591 13.3268C12.1441 13.3268 12.7041 13.8818 12.7041 14.5718C12.7041 15.2568 12.1491 15.8168 11.4591 15.8168C10.7741 15.8168 10.2141 15.2618 10.2141 14.5718C10.2141 13.8818 10.7741 13.3268 11.4591 13.3268ZM14.0391 21.0018L13.3341 18.5218C13.3041 18.4218 13.2291 18.3468 13.1291 18.3168L10.6491 17.6118C10.3591 17.5318 10.3591 17.1168 10.6491 17.0368L13.1291 16.3318C13.2291 16.3018 13.3041 16.2268 13.3341 16.1268L14.0391 13.6468C14.1191 13.3568 14.5341 13.3568 14.6141 13.6468L15.3191 16.1268C15.3491 16.2268 15.4241 16.3018 15.5241 16.3318L18.0041 17.0368C18.2941 17.1168 18.2941 17.5318 18.0041 17.6118L15.5241 18.3168C15.4241 18.3468 15.3491 18.4218 15.3191 18.5218L14.6141 21.0018C14.5291 21.2918 14.1191 21.2918 14.0391 21.0018Z" fill="#3F1719"/>
<path d="M31.7196 11.3318C28.4096 11.3318 25.7246 14.0168 25.7246 17.3268C25.7246 20.6368 28.4096 23.3218 31.7196 23.3218C35.0296 23.3218 37.7146 20.6368 37.7146 17.3268C37.7196 14.0168 35.0346 11.3318 31.7196 11.3318ZM28.8546 13.3268C29.5396 13.3268 30.0996 13.8818 30.0996 14.5718C30.0996 15.2568 29.5446 15.8168 28.8546 15.8168C28.1696 15.8168 27.6096 15.2618 27.6096 14.5718C27.6146 13.8818 28.1696 13.3268 28.8546 13.3268ZM33.9996 21.0118C33.7196 21.0118 33.4946 20.7868 33.4946 20.5068C33.4946 20.2268 33.7196 20.0018 33.9996 20.0018C34.2796 20.0018 34.5046 20.2268 34.5046 20.5068C34.5046 20.7868 34.2796 21.0118 33.9996 21.0118ZM35.3996 17.6118L32.9196 18.3168C32.8196 18.3468 32.7446 18.4218 32.7146 18.5218L32.0096 21.0018C31.9296 21.2918 31.5196 21.2918 31.4346 21.0018L30.7296 18.5218C30.6996 18.4218 30.6246 18.3468 30.5246 18.3168L28.0446 17.6118C27.7546 17.5318 27.7546 17.1168 28.0446 17.0368L30.5246 16.3318C30.6246 16.3018 30.6996 16.2268 30.7296 16.1268L31.4346 13.6468C31.5146 13.3568 31.9246 13.3568 32.0096 13.6468L32.7146 16.1268C32.7446 16.2268 32.8196 16.3018 32.9196 16.3318L35.3996 17.0368C35.6896 17.1218 35.6896 17.5318 35.3996 17.6118Z" fill="#3F1719"/>
</g>
<defs>
<filter id="filter0_d_3055_115809" x="0.5" y="0.5" width="45.0381" height="41.0144" filterUnits="userSpaceOnUse" color-interpolation-filters="sRGB">
<feFlood flood-opacity="0" result="BackgroundImageFix"/>
<feColorMatrix in="SourceAlpha" type="matrix" values="0 0 0 0 0 0 0 0 0 0 0 0 0 0 0 0 0 0 127 0" result="hardAlpha"/>
<feOffset dy="1"/>
<feGaussianBlur stdDeviation="2"/>
<feComposite in2="hardAlpha" operator="out"/>
<feColorMatrix type="matrix" values="0 0 0 0 0 0 0 0 0 0 0 0 0 0 0 0 0 0 0.25 0"/>
<feBlend mode="normal" in2="BackgroundImageFix" result="effect1_dropShadow_3055_115809"/>
<feBlend mode="normal" in="SourceGraphic" in2="effect1_dropShadow_3055_115809" result="shape"/>
</filter>
</defs>
</svg>
