<svg width="40" height="40" viewBox="0 0 40 40" fill="none" xmlns="http://www.w3.org/2000/svg">
<g clip-path="url(#clip0_6001_93442)">
<path d="M19.9999 39.1668C30.5854 39.1668 39.1666 30.5856 39.1666 20.0002C39.1666 9.41471 30.5854 0.833496 19.9999 0.833496C9.41446 0.833496 0.833252 9.41471 0.833252 20.0002C0.833252 30.5856 9.41446 39.1668 19.9999 39.1668Z" fill="#FFD93B"/>
<path d="M27.5 18.3337C28.8807 18.3337 30 16.8413 30 15.0003C30 13.1594 28.8807 11.667 27.5 11.667C26.1193 11.667 25 13.1594 25 15.0003C25 16.8413 26.1193 18.3337 27.5 18.3337Z" fill="#273941"/>
<path d="M12.5 18.3337C13.8807 18.3337 15 16.8413 15 15.0003C15 13.1594 13.8807 11.667 12.5 11.667C11.1193 11.667 10 13.1594 10 15.0003C10 16.8413 11.1193 18.3337 12.5 18.3337Z" fill="#273941"/>
<path d="M27.4999 17.5C28.4204 17.5 29.1666 16.3807 29.1666 15C29.1666 13.6193 28.4204 12.5 27.4999 12.5C26.5794 12.5 25.8333 13.6193 25.8333 15C25.8333 16.3807 26.5794 17.5 27.4999 17.5Z" fill="#141E21"/>
<path d="M12.4999 17.5C13.4204 17.5 14.1666 16.3807 14.1666 15C14.1666 13.6193 13.4204 12.5 12.4999 12.5C11.5794 12.5 10.8333 13.6193 10.8333 15C10.8333 16.3807 11.5794 17.5 12.4999 17.5Z" fill="#141E21"/>
<path d="M28.3333 15.0002C28.7936 15.0002 29.1667 14.6271 29.1667 14.1668C29.1667 13.7066 28.7936 13.3335 28.3333 13.3335C27.8731 13.3335 27.5 13.7066 27.5 14.1668C27.5 14.6271 27.8731 15.0002 28.3333 15.0002Z" fill="#F6FAFD"/>
<path d="M13.3333 15.0002C13.7936 15.0002 14.1667 14.6271 14.1667 14.1668C14.1667 13.7066 13.7936 13.3335 13.3333 13.3335C12.8731 13.3335 12.5 13.7066 12.5 14.1668C12.5 14.6271 12.8731 15.0002 13.3333 15.0002Z" fill="#F6FAFD"/>
<path d="M39.1458 19.167C39.1458 27.9112 30.1249 37.0089 19.9999 37.0089C9.87492 37.0089 0.854085 27.9112 0.854085 19.167C0.842419 19.4437 0.833252 19.7212 0.833252 20.0003C0.833252 25.0836 2.85259 29.9588 6.44704 33.5532C10.0415 37.1477 14.9166 39.167 19.9999 39.167C25.0832 39.167 29.9584 37.1477 33.5528 33.5532C37.1473 29.9588 39.1666 25.0836 39.1666 20.0003C39.1666 19.7212 39.1574 19.4437 39.1458 19.167Z" fill="#F4C534"/>
<path d="M13.3333 26.667H26.6666V28.3337H13.3333V26.667Z" fill="#273941"/>
<path d="M31.5117 8.18808C31.7802 7.9196 31.6949 7.39908 31.3213 7.02548C30.9477 6.65188 30.4272 6.56667 30.1587 6.83515C29.8903 7.10364 29.9755 7.62415 30.3491 7.99775C30.7227 8.37136 31.2432 8.45657 31.5117 8.18808Z" fill="#F6FAFD"/>
<path d="M25.9616 4.09765C26.096 3.96325 26.0535 3.70286 25.8667 3.51606C25.6799 3.32926 25.4195 3.28678 25.2851 3.42119C25.1507 3.55559 25.1932 3.81598 25.38 4.00278C25.5668 4.18958 25.8272 4.23206 25.9616 4.09765Z" fill="#F6FAFD"/>
<path d="M29.6888 7.19766C30.2258 6.66069 30.0551 5.61939 29.3076 4.87187C28.5601 4.12434 27.5188 3.95365 26.9818 4.49062C26.4448 5.02759 26.6155 6.06888 27.363 6.81641C28.1106 7.56394 29.1519 7.73463 29.6888 7.19766Z" fill="#F6FAFD"/>
</g>
<defs>
<clipPath id="clip0_6001_93442">
<rect width="40" height="40" fill="white"/>
</clipPath>
</defs>
</svg>
