<svg width="40" height="40" viewBox="0 0 40 40" fill="none" xmlns="http://www.w3.org/2000/svg">
<g clip-path="url(#clip0_6001_93530)">
<path d="M19.9999 39.1668C30.5854 39.1668 39.1666 30.5856 39.1666 20.0002C39.1666 9.41471 30.5854 0.833496 19.9999 0.833496C9.41446 0.833496 0.833252 9.41471 0.833252 20.0002C0.833252 30.5856 9.41446 39.1668 19.9999 39.1668Z" fill="url(#paint0_linear_6001_93530)"/>
<path d="M39.1458 19.167C39.1458 27.9112 30.1249 37.0089 19.9999 37.0089C9.87492 37.0089 0.854085 27.9112 0.854085 19.167C0.842419 19.4437 0.833252 19.7212 0.833252 20.0003C0.833252 25.0836 2.85259 29.9588 6.44704 33.5532C10.0415 37.1477 14.9166 39.167 19.9999 39.167C25.0832 39.167 29.9584 37.1477 33.5528 33.5532C37.1473 29.9588 39.1666 25.0836 39.1666 20.0003C39.1666 19.7212 39.1574 19.4437 39.1458 19.167Z" fill="#F4C534"/>
<path d="M27.6439 19.8826C28.9595 19.8826 30.2017 20.1646 31.2962 20.6639C31.9869 20.9787 32.558 20.0318 31.9564 19.5693C30.7626 18.6506 29.2673 18.1045 27.6439 18.1045C26.0205 18.1045 24.5259 18.6506 23.3314 19.5693C22.7298 20.0326 23.3009 20.9795 23.9916 20.6639C25.0861 20.1646 26.3275 19.8826 27.6439 19.8826Z" fill="url(#paint1_linear_6001_93530)"/>
<path d="M27.6439 19.8826C28.9595 19.8826 30.2017 20.1646 31.2962 20.6639C31.9869 20.9787 32.558 20.0318 31.9564 19.5693C30.7626 18.6506 29.2673 18.1045 27.6439 18.1045C26.0205 18.1045 24.5259 18.6506 23.3314 19.5693C22.7298 20.0326 23.3009 20.9795 23.9916 20.6639C25.0861 20.1646 26.3275 19.8826 27.6439 19.8826Z" fill="#273941"/>
<path d="M27.6439 19.8826C26.3283 19.8826 25.0861 20.1646 23.9916 20.6639C23.3009 20.9787 22.7298 20.0318 23.3314 19.5693C24.5251 18.6506 26.0205 18.1045 27.6439 18.1045C29.2666 18.1045 30.7619 18.6506 31.9564 19.5693C32.558 20.0326 31.9869 20.9795 31.2962 20.6639C30.2017 20.1646 28.9603 19.8826 27.6439 19.8826Z" fill="url(#paint2_linear_6001_93530)"/>
<path d="M26.9995 18.0185C28.1456 17.3725 29.3659 17.0084 30.5643 16.9053C31.3206 16.8404 31.3534 15.735 30.6018 15.6271C29.1104 15.4131 27.5393 15.6717 26.126 16.4685C24.712 17.2654 23.6776 18.4756 23.0885 19.8623C22.7917 20.5615 23.7542 21.1053 24.201 20.492C24.9096 19.5193 25.8526 18.6646 26.9995 18.0185Z" fill="url(#paint3_linear_6001_93530)"/>
<path d="M26.9995 18.0185C28.1456 17.3725 29.3659 17.0084 30.5643 16.9053C31.3206 16.8404 31.3534 15.735 30.6018 15.6271C29.1104 15.4131 27.5393 15.6717 26.126 16.4685C24.712 17.2654 23.6776 18.4756 23.0885 19.8623C22.7917 20.5615 23.7542 21.1053 24.201 20.492C24.9096 19.5193 25.8526 18.6646 26.9995 18.0185Z" fill="#273941"/>
<path d="M26.9995 18.0185C25.8534 18.6646 24.9096 19.5201 24.201 20.492C23.7542 21.106 22.7917 20.5615 23.0885 19.8623C23.6776 18.4756 24.712 17.2654 26.126 16.4685C27.5401 15.6717 29.1104 15.4131 30.6018 15.6271C31.3534 15.735 31.3214 16.8404 30.5643 16.9053C29.3659 17.0076 28.1456 17.3725 26.9995 18.0185Z" fill="url(#paint4_linear_6001_93530)"/>
<path d="M12.2582 19.8826C10.9425 19.8826 9.70034 20.1646 8.60581 20.6639C7.91518 20.9787 7.34409 20.0318 7.94565 19.5693C9.1394 18.6506 10.6347 18.1045 12.2582 18.1045C13.8808 18.1045 15.3761 18.6506 16.5707 19.5693C17.1722 20.0326 16.6011 20.9795 15.9105 20.6639C14.816 20.1646 13.5746 19.8826 12.2582 19.8826Z" fill="url(#paint5_linear_6001_93530)"/>
<path d="M12.2582 19.8826C10.9425 19.8826 9.70034 20.1646 8.60581 20.6639C7.91518 20.9787 7.34409 20.0318 7.94565 19.5693C9.1394 18.6506 10.6347 18.1045 12.2582 18.1045C13.8808 18.1045 15.3761 18.6506 16.5707 19.5693C17.1722 20.0326 16.6011 20.9795 15.9105 20.6639C14.816 20.1646 13.5746 19.8826 12.2582 19.8826Z" fill="url(#paint6_linear_6001_93530)"/>
<path d="M12.2582 19.8826C13.5738 19.8826 14.816 20.1646 15.9105 20.6639C16.6011 20.9787 17.1722 20.0318 16.5707 19.5693C15.3769 18.6506 13.8816 18.1045 12.2582 18.1045C10.6355 18.1045 9.14018 18.6506 7.94565 19.5693C7.34409 20.0326 7.91518 20.9795 8.60581 20.6639C9.70034 20.1646 10.9417 19.8826 12.2582 19.8826Z" fill="#273941"/>
<path d="M12.9027 18.0185C11.7567 17.3725 10.5363 17.0084 9.33791 16.9053C8.58166 16.8404 8.54884 15.735 9.3004 15.6271C10.7918 15.4131 12.3629 15.6717 13.7762 16.4685C15.1902 17.2654 16.2246 18.4756 16.8137 19.8623C17.1106 20.5615 16.1481 21.1053 15.7012 20.492C14.9926 19.5193 14.0496 18.6646 12.9027 18.0185Z" fill="url(#paint7_linear_6001_93530)"/>
<path d="M12.9027 18.0185C11.7567 17.3725 10.5363 17.0084 9.33791 16.9053C8.58166 16.8404 8.54884 15.735 9.3004 15.6271C10.7918 15.4131 12.3629 15.6717 13.7762 16.4685C15.1902 17.2654 16.2246 18.4756 16.8137 19.8623C17.1106 20.5615 16.1481 21.1053 15.7012 20.492C14.9926 19.5193 14.0496 18.6646 12.9027 18.0185Z" fill="#273941"/>
<path d="M12.9028 18.0185C14.0489 18.6646 14.9926 19.5201 15.7012 20.492C16.1481 21.106 17.1106 20.5615 16.8137 19.8623C16.2247 18.4756 15.1903 17.2654 13.7762 16.4685C12.3622 15.6717 10.7919 15.4131 9.30045 15.6271C8.54888 15.735 8.58092 16.8404 9.33795 16.9053C10.5364 17.0076 11.7567 17.3725 12.9028 18.0185Z" fill="url(#paint8_linear_6001_93530)"/>
<path d="M12.8488 11.4472C14.1613 10.8355 15.2683 9.97688 16.1277 8.96985C16.6699 8.33469 17.6801 9.01282 17.2949 9.755C16.5316 11.2261 15.2941 12.4667 13.6761 13.2214C12.0574 13.9761 10.3121 14.1269 8.69412 13.7659C7.87849 13.5839 8.0074 12.3745 8.84334 12.3675C10.1668 12.3566 11.5363 12.0597 12.8488 11.448V11.4472Z" fill="#273941"/>
<path d="M27.0535 11.4472C25.741 10.8355 24.634 9.97688 23.7746 8.96985C23.2324 8.33469 22.2223 9.01282 22.6074 9.755C23.3707 11.2261 24.6082 12.4667 26.2262 13.2214C27.8449 13.9761 29.5903 14.1269 31.2082 13.7659C32.0239 13.5839 31.8949 12.3745 31.059 12.3675C29.7356 12.3566 28.366 12.0597 27.0535 11.448V11.4472Z" fill="#273941"/>
<path d="M20 28.5C17.5729 28.5308 15.1922 28.7008 13 29C13 28.4696 13.7375 27.9609 15.0503 27.5858C16.363 27.2107 18.1435 27 20 27C21.8565 27 23.637 27.2107 24.9497 27.5858C26.2625 27.9609 27 28.4696 27 29C24.8078 28.7008 22.4271 28.5308 20 28.5Z" fill="#273941"/>
</g>
<defs>
<linearGradient id="paint0_linear_6001_93530" x1="19.9999" y1="0.833496" x2="19.9999" y2="39.1668" gradientUnits="userSpaceOnUse">
<stop offset="0.0833333" stop-color="#2A97EC"/>
<stop offset="0.364583" stop-color="#E28057"/>
<stop offset="0.682292" stop-color="#FFD93B"/>
</linearGradient>
<linearGradient id="paint1_linear_6001_93530" x1="27.6439" y1="20.9311" x2="27.6439" y2="18.4365" gradientUnits="userSpaceOnUse">
<stop stop-color="#7A6D79"/>
<stop offset="0.25" stop-color="#6C616C"/>
<stop offset="0.68" stop-color="#5B535B"/>
<stop offset="1" stop-color="#554E56"/>
</linearGradient>
<linearGradient id="paint2_linear_6001_93530" x1="27.92" y1="19.3429" x2="28.3935" y2="18.1031" gradientUnits="userSpaceOnUse">
<stop stop-color="#593636" stop-opacity="0"/>
<stop offset="0.28" stop-color="#543333" stop-opacity="0.1"/>
<stop offset="0.6" stop-color="#482D2E" stop-opacity="0.4"/>
<stop offset="0.93" stop-color="#332224" stop-opacity="0.88"/>
<stop offset="1" stop-color="#2F2022"/>
</linearGradient>
<linearGradient id="paint3_linear_6001_93530" x1="27.5152" y1="18.9343" x2="26.2904" y2="16.7616" gradientUnits="userSpaceOnUse">
<stop stop-color="#7A6D79"/>
<stop offset="0.25" stop-color="#6C616C"/>
<stop offset="0.68" stop-color="#5B535B"/>
<stop offset="1" stop-color="#554E56"/>
</linearGradient>
<linearGradient id="paint4_linear_6001_93530" x1="26.9588" y1="17.4214" x2="26.763" y2="16.1086" gradientUnits="userSpaceOnUse">
<stop stop-color="#593636" stop-opacity="0"/>
<stop offset="0.28" stop-color="#543333" stop-opacity="0.1"/>
<stop offset="0.6" stop-color="#482D2E" stop-opacity="0.4"/>
<stop offset="0.93" stop-color="#332224" stop-opacity="0.88"/>
<stop offset="1" stop-color="#2F2022"/>
</linearGradient>
<linearGradient id="paint5_linear_6001_93530" x1="12.2582" y1="20.9311" x2="12.2582" y2="18.4365" gradientUnits="userSpaceOnUse">
<stop stop-color="#7A6D79"/>
<stop offset="0.25" stop-color="#6C616C"/>
<stop offset="0.68" stop-color="#5B535B"/>
<stop offset="1" stop-color="#554E56"/>
</linearGradient>
<linearGradient id="paint6_linear_6001_93530" x1="12.5342" y1="19.3429" x2="13.0077" y2="18.1031" gradientUnits="userSpaceOnUse">
<stop stop-color="#593636" stop-opacity="0"/>
<stop offset="0.28" stop-color="#543333" stop-opacity="0.1"/>
<stop offset="0.6" stop-color="#482D2E" stop-opacity="0.4"/>
<stop offset="0.93" stop-color="#332224" stop-opacity="0.88"/>
<stop offset="1" stop-color="#2F2022"/>
</linearGradient>
<linearGradient id="paint7_linear_6001_93530" x1="12.3883" y1="18.9337" x2="13.6127" y2="16.7617" gradientUnits="userSpaceOnUse">
<stop stop-color="#7A6D79"/>
<stop offset="0.25" stop-color="#6C616C"/>
<stop offset="0.68" stop-color="#5B535B"/>
<stop offset="1" stop-color="#554E56"/>
</linearGradient>
<linearGradient id="paint8_linear_6001_93530" x1="12.9447" y1="17.4215" x2="13.1408" y2="16.1081" gradientUnits="userSpaceOnUse">
<stop stop-color="#593636" stop-opacity="0"/>
<stop offset="0.28" stop-color="#543333" stop-opacity="0.1"/>
<stop offset="0.6" stop-color="#482D2E" stop-opacity="0.4"/>
<stop offset="0.93" stop-color="#332224" stop-opacity="0.88"/>
<stop offset="1" stop-color="#2F2022"/>
</linearGradient>
<clipPath id="clip0_6001_93530">
<rect width="40" height="40" fill="white"/>
</clipPath>
</defs>
</svg>
