<svg width="40" height="40" viewBox="0 0 40 40" fill="none" xmlns="http://www.w3.org/2000/svg">
<g clip-path="url(#clip0_6001_93558)">
<path d="M20.9412 38.1276C31.4699 38.1276 40.005 29.5924 40.005 19.0638C40.005 8.53515 31.4699 0 20.9412 0C10.4126 0 1.87744 8.53515 1.87744 19.0638C1.87744 29.5924 10.4126 38.1276 20.9412 38.1276Z" fill="url(#paint0_linear_6001_93558)"/>
<path d="M32.7406 4.08984C35.3017 7.33556 36.8305 11.4338 36.8305 15.8892C36.8305 26.4178 28.2954 34.953 17.7668 34.953C17.0663 34.953 16.3748 34.9147 15.694 34.8408C15.196 34.7867 14.8318 34.3574 14.8328 33.8566C14.8328 33.8536 14.8328 33.8506 14.8328 33.8477C14.8328 33.2658 14.7116 32.7117 14.493 32.2092C14.7116 31.7068 14.8328 31.1527 14.8328 30.5707C14.8328 29.3528 14.3018 28.2566 13.4592 27.5015C13.4627 27.4326 13.4644 27.3633 13.4644 27.2936C13.4644 25.0211 11.6156 23.1724 9.34331 23.1724C9.34331 23.1724 5.13495 23.1722 2.32275 23.172C4.20297 31.7315 11.8335 38.1362 20.9597 38.1276C31.4855 38.1176 40.06 29.4873 40.0048 18.9615C39.9731 12.9298 37.14 7.56127 32.7406 4.08984Z" fill="url(#paint1_linear_6001_93558)"/>
<path d="M16.3499 17.683C16.3499 17.3933 16.3207 17.1104 16.2655 16.837C14.9757 15.6517 12.7962 14.1678 9.88632 14.0435C8.65809 14.79 7.83765 16.1407 7.83765 17.6831C7.83765 20.0336 9.74317 21.9392 12.0937 21.9392C14.4444 21.9391 16.3499 20.0335 16.3499 17.683Z" fill="#EAF6FF"/>
<path d="M9.93384 16.7839C9.93384 18.1054 11.0052 19.1768 12.3267 19.1768C13.6483 19.1768 14.7196 18.1054 14.7196 16.7839C14.7196 16.2448 14.5413 15.7474 14.2404 15.3473C13.6034 14.9744 12.878 14.6411 12.0706 14.4048C10.8695 14.5327 9.93384 15.5489 9.93384 16.7839Z" fill="#3E4347"/>
<path d="M25.5325 17.683C25.5325 17.3933 25.5617 17.1104 25.6168 16.837C26.9067 15.6517 29.0862 14.1678 31.996 14.0435C33.2243 14.79 34.0447 16.1407 34.0447 17.6831C34.0447 20.0336 32.1392 21.9392 29.7886 21.9392C27.4379 21.9391 25.5325 20.0335 25.5325 17.683Z" fill="#EAF6FF"/>
<path d="M31.9484 16.7839C31.9484 18.1054 30.877 19.1768 29.5555 19.1768C28.234 19.1768 27.1626 18.1054 27.1626 16.7839C27.1626 16.2448 27.3409 15.7474 27.6418 15.3473C28.2789 14.9744 29.0042 14.6411 29.8116 14.4048C31.0128 14.5327 31.9484 15.5489 31.9484 16.7839Z" fill="#3E4347"/>
<path d="M7.20245 36.1058H7.26195V25.5829L2.78749 25.5825C1.24825 25.5825 0.00041041 26.8302 0.000273608 28.3694L2.81226e-09 33.3184C-6.83984e-05 34.8576 1.24764 36.1054 2.78687 36.1054H2.99625C3.15248 36.1054 3.29626 36.1907 3.37109 36.3278L4.98118 39.2766C5.30636 39.8721 6.01411 40.1456 6.65517 39.9234C7.38001 39.6722 7.76395 38.881 7.51278 38.1561L6.93329 36.4838C6.86913 36.2988 7.00661 36.1058 7.20245 36.1058Z" fill="#FFD93B"/>
<path d="M10.4066 28.2137H7.26189C6.53547 28.2137 5.94653 27.6248 5.94653 26.8984C5.94653 26.1719 6.53547 25.583 7.26189 25.583H10.4066C11.133 25.583 11.7219 26.1719 11.7219 26.8984C11.7219 27.6248 11.133 28.2137 10.4066 28.2137Z" fill="#FFD93B"/>
<path d="M11.5052 30.8446H7.26189C6.53547 30.8446 5.94653 30.2556 5.94653 29.5292C5.94653 28.8028 6.53547 28.2139 7.26189 28.2139H11.5052C12.2316 28.2139 12.8205 28.8028 12.8205 29.5292C12.8205 30.2557 12.2316 30.8446 11.5052 30.8446Z" fill="#FFD93B"/>
<path d="M11.5052 33.4754H7.26189C6.53547 33.4754 5.94653 32.8865 5.94653 32.1601C5.94653 31.4337 6.53547 30.8447 7.26189 30.8447H11.5052C12.2316 30.8447 12.8205 31.4337 12.8205 32.1601C12.8205 32.8865 12.2316 33.4754 11.5052 33.4754Z" fill="#FFD93B"/>
<path d="M11.5052 36.1058H7.26189C6.53547 36.1058 5.94653 35.5169 5.94653 34.7905C5.94653 34.064 6.53547 33.4751 7.26189 33.4751H11.5052C12.2316 33.4751 12.8205 34.064 12.8205 34.7905C12.8205 35.5169 12.2316 36.1058 11.5052 36.1058Z" fill="#FFD93B"/>
<path d="M17.6542 18.5264C17.6494 18.5264 17.6447 18.5264 17.6398 18.5263C17.2298 18.5223 16.8371 18.3456 16.5626 18.0417C15.3642 16.7148 12.0589 13.7579 7.25939 14.9548C6.91747 15.0401 6.57017 14.8317 6.48471 14.4894C6.39934 14.1469 6.60766 13.8001 6.95019 13.7147C12.4206 12.3507 16.1581 15.6871 17.5109 17.185C17.5576 17.2366 17.6136 17.2479 17.6523 17.2483H17.6542C17.6872 17.2483 17.7482 17.2399 17.7992 17.1855L18.1385 16.8244C18.3803 16.5672 18.7847 16.5547 19.0418 16.7964C19.299 17.038 19.3116 17.4425 19.0699 17.6997L18.7306 18.0608C18.4522 18.3572 18.0605 18.5264 17.6542 18.5264Z" fill="#3E4347"/>
<path d="M24.2281 18.5264C23.8216 18.5264 23.4301 18.3572 23.1515 18.0609L22.8122 17.6998C22.5706 17.4425 22.5832 17.0381 22.8403 16.7964C23.0973 16.5549 23.5019 16.5672 23.7437 16.8244L24.083 17.1855C24.1349 17.2408 24.1928 17.2488 24.2299 17.2483C24.2686 17.248 24.3246 17.2367 24.3713 17.185C25.7241 15.6872 29.4615 12.3507 34.932 13.7147C35.2746 13.8001 35.4829 14.147 35.3975 14.4894C35.3121 14.8318 34.9654 15.0402 34.6228 14.9548C29.8233 13.7576 26.5181 16.7148 25.3196 18.0416C25.0451 18.3455 24.6525 18.5222 24.2424 18.5262C24.2376 18.5264 24.2328 18.5264 24.2281 18.5264Z" fill="#3E4347"/>
<path d="M23.8414 23.722C23.6779 23.722 23.5143 23.6596 23.3895 23.5348C21.842 21.9873 19.3237 21.9873 17.7762 23.5348C17.5265 23.7844 17.122 23.7844 16.8725 23.5348C16.6229 23.2853 16.6229 22.8806 16.8725 22.6311C18.9184 20.5852 22.2474 20.5852 24.2933 22.6311C24.5429 22.8807 24.5429 23.2853 24.2933 23.5348C24.1685 23.6596 24.005 23.722 23.8414 23.722Z" fill="#3E4347"/>
</g>
<defs>
<linearGradient id="paint0_linear_6001_93558" x1="20.9412" y1="0" x2="20.9412" y2="38.1276" gradientUnits="userSpaceOnUse">
<stop stop-color="#FF0000"/>
<stop offset="0.536458" stop-color="#FFD93B"/>
</linearGradient>
<linearGradient id="paint1_linear_6001_93558" x1="21.1639" y1="4.08984" x2="21.1639" y2="38.1276" gradientUnits="userSpaceOnUse">
<stop offset="0.375" stop-color="#F4C534" stop-opacity="0"/>
<stop offset="1" stop-color="#F4C534"/>
</linearGradient>
<clipPath id="clip0_6001_93558">
<rect width="40" height="40" fill="white"/>
</clipPath>
</defs>
</svg>
