<svg width="40" height="40" viewBox="0 0 40 40" fill="none" xmlns="http://www.w3.org/2000/svg">
<g clip-path="url(#clip0_6001_92263)">
<path d="M20.2173 0.00146484V39.9983C31.163 39.8823 40 30.9729 40 19.9998C40 9.02678 31.163 0.117324 20.2173 0.00146484Z" fill="#F4C534"/>
<path d="M20.2173 0.00164062C20.1448 0.00078125 20.0724 0 20 0C8.95453 0 0 8.95453 0 20C0 31.0455 8.95453 40 20 40C20.0724 40 20.1448 39.9992 20.2173 39.9984C29.3843 39.8599 36.7807 30.9594 36.7807 20C36.7807 9.04062 29.3843 0.140078 20.2173 0.00164062Z" fill="#FFD93B"/>
<path d="M5.86108 22.3548L8.01702 27.5598C9.45437 26.9645 10.1369 25.3167 9.54155 23.8794C8.94624 22.442 7.29843 21.7594 5.86108 22.3548Z" fill="#FF5440"/>
<path d="M5.86105 22.3546C6.47675 22.0995 7.45901 23.0578 8.05433 24.4951C8.64964 25.9325 8.63261 27.3046 8.01698 27.5596C6.57964 28.1549 4.9319 27.4724 4.33651 26.0351C3.74112 24.5977 4.4237 22.9499 5.86105 22.3546Z" fill="#FF804C"/>
<path d="M17.3172 24.4727C15.5775 24.4727 13.8423 24.0563 12.256 23.2298C11.9604 23.0757 11.8455 22.7113 11.9996 22.4156C12.1536 22.1199 12.5183 22.0052 12.8138 22.1592C15.3772 23.4947 18.3774 23.6269 21.0451 22.522C23.7125 21.417 25.7404 19.2022 26.6087 16.4454C26.7089 16.1274 27.0479 15.9508 27.3658 16.051C27.6838 16.1512 27.8604 16.4902 27.7602 16.8081C26.7844 19.9063 24.5051 22.3954 21.5071 23.6374C20.1597 24.1953 18.7368 24.4727 17.3172 24.4727Z" fill="#FF804C"/>
<path d="M8.14166 18.9996C7.90479 18.9996 7.68002 18.8592 7.58377 18.6268C6.94689 17.0892 7.67971 15.3203 9.21721 14.6834C10.7546 14.0466 12.5237 14.7792 13.1606 16.3168C13.2881 16.6248 13.1419 16.9779 12.8338 17.1055C12.526 17.233 12.1728 17.0868 12.0452 16.7787C11.6631 15.8562 10.6015 15.4166 9.67924 15.7987C8.75674 16.1808 8.31713 17.2422 8.69916 18.1647C8.82674 18.4727 8.68049 18.8258 8.37244 18.9534C8.29682 18.9848 8.21861 18.9996 8.14166 18.9996Z" fill="#3E4347"/>
<path d="M22.7899 12.9324C22.553 12.9324 22.3282 12.792 22.232 12.5596C21.5951 11.022 22.3278 9.25309 23.8654 8.61621C24.6102 8.30762 25.4306 8.30762 26.1753 8.61621C26.9201 8.92473 27.5003 9.5048 27.8088 10.2496C27.9363 10.5577 27.7901 10.9107 27.4821 11.0383C27.1743 11.1659 26.821 11.0196 26.6935 10.7116C26.5084 10.2646 26.1603 9.91668 25.7134 9.73152C25.2665 9.54645 24.7744 9.54652 24.3274 9.73152C23.4049 10.1136 22.9653 11.175 23.3473 12.0975C23.4749 12.4054 23.3286 12.7586 23.0206 12.8861C22.9451 12.9175 22.8669 12.9324 22.7899 12.9324Z" fill="#3E4347"/>
<path d="M21.6423 26.1451C21.4055 26.1451 21.1808 26.0047 21.0844 25.7723C20.9569 25.4642 21.1031 25.1112 21.4111 24.9836L22.5264 24.5216C22.8343 24.3942 23.1876 24.5403 23.3151 24.8483C23.4426 25.1563 23.2964 25.5094 22.9884 25.6369L21.8731 26.0989C21.7975 26.1303 21.7193 26.1451 21.6423 26.1451Z" fill="#FFB751"/>
<path d="M31.6631 11.6668L33.819 16.8718C35.2564 16.2765 35.9389 14.6287 35.3436 13.1913C34.7482 11.754 33.1004 11.0715 31.6631 11.6668Z" fill="#FF5440"/>
<path d="M31.663 11.6671C32.2787 11.412 33.261 12.3703 33.8563 13.8076C34.4516 15.245 34.4346 16.6171 33.819 16.8721C32.3816 17.4674 30.7339 16.7849 30.1385 15.3476C29.5431 13.9102 30.2257 12.2624 31.663 11.6671Z" fill="#FF804C"/>
</g>
<defs>
<clipPath id="clip0_6001_92263">
<rect width="40" height="40" fill="white"/>
</clipPath>
</defs>
</svg>
