<svg width="40" height="40" viewBox="0 0 40 40" fill="none" xmlns="http://www.w3.org/2000/svg">
<g clip-path="url(#clip0_6001_93457)">
<path d="M19.9999 39.1668C30.5854 39.1668 39.1666 30.5856 39.1666 20.0002C39.1666 9.41471 30.5854 0.833496 19.9999 0.833496C9.41446 0.833496 0.833252 9.41471 0.833252 20.0002C0.833252 30.5856 9.41446 39.1668 19.9999 39.1668Z" fill="#FFD93B"/>
<path d="M30.8331 29.7228C30.8681 30.4222 30.6248 31.107 30.1563 31.6275C29.6878 32.148 29.0323 32.4618 28.3331 32.5003C27.6339 32.4618 26.9785 32.148 26.51 31.6275C26.0415 31.107 25.7982 30.4222 25.8331 29.7228C25.8331 28.1887 27.7081 24.167 28.3331 24.167C28.9581 24.167 30.8331 28.1887 30.8331 29.7228Z" fill="#3BC5F6"/>
<path d="M8.33325 14.1668V12.5002C11.4349 12.5002 13.3333 11.421 13.3333 10.8335H14.9999C14.9999 13.0218 11.6466 14.1668 8.33325 14.1668Z" fill="#273941"/>
<path d="M31.6667 14.1668C28.3533 14.1668 25 13.0218 25 10.8335H26.6667C26.6667 11.421 28.565 12.5002 31.6667 12.5002V14.1668Z" fill="#273941"/>
<path d="M19.9998 29.167C18.8441 29.2182 17.7104 29.5017 16.6665 30.0003C16.6665 29.1163 17.0177 28.2684 17.6428 27.6433C18.2679 27.0182 19.1158 26.667 19.9998 26.667C20.8839 26.667 21.7317 27.0182 22.3569 27.6433C22.982 28.2684 23.3332 29.1163 23.3332 30.0003C22.2892 29.5017 21.1556 29.2182 19.9998 29.167Z" fill="#273941"/>
<path d="M28.3332 22.5003C30.6344 22.5003 32.4998 20.6348 32.4998 18.3337C32.4998 16.0325 30.6344 14.167 28.3332 14.167C26.032 14.167 24.1665 16.0325 24.1665 18.3337C24.1665 20.6348 26.032 22.5003 28.3332 22.5003Z" fill="#273941"/>
<path d="M11.6667 22.5003C13.9679 22.5003 15.8333 20.6348 15.8333 18.3337C15.8333 16.0325 13.9679 14.167 11.6667 14.167C9.36548 14.167 7.5 16.0325 7.5 18.3337C7.5 20.6348 9.36548 22.5003 11.6667 22.5003Z" fill="#273941"/>
<path d="M28.3333 21.6667C30.1743 21.6667 31.6667 20.1743 31.6667 18.3333C31.6667 16.4924 30.1743 15 28.3333 15C26.4924 15 25 16.4924 25 18.3333C25 20.1743 26.4924 21.6667 28.3333 21.6667Z" fill="#141E21"/>
<path d="M11.6666 21.6667C13.5075 21.6667 14.9999 20.1743 14.9999 18.3333C14.9999 16.4924 13.5075 15 11.6666 15C9.82564 15 8.33325 16.4924 8.33325 18.3333C8.33325 20.1743 9.82564 21.6667 11.6666 21.6667Z" fill="#141E21"/>
<path d="M29.5833 18.3335C30.2736 18.3335 30.8333 17.7739 30.8333 17.0835C30.8333 16.3931 30.2736 15.8335 29.5833 15.8335C28.8929 15.8335 28.3333 16.3931 28.3333 17.0835C28.3333 17.7739 28.8929 18.3335 29.5833 18.3335Z" fill="#F6FAFD"/>
<path d="M27.0833 20.8335C27.7736 20.8335 28.3333 20.2739 28.3333 19.5835C28.3333 18.8931 27.7736 18.3335 27.0833 18.3335C26.3929 18.3335 25.8333 18.8931 25.8333 19.5835C25.8333 20.2739 26.3929 20.8335 27.0833 20.8335Z" fill="#F6FAFD"/>
<path d="M29.5832 20.0003C29.8133 20.0003 29.9998 19.8138 29.9998 19.5837C29.9998 19.3535 29.8133 19.167 29.5832 19.167C29.3531 19.167 29.1665 19.3535 29.1665 19.5837C29.1665 19.8138 29.3531 20.0003 29.5832 20.0003Z" fill="#F6FAFD"/>
<path d="M10.4165 18.3335C11.1069 18.3335 11.6665 17.7739 11.6665 17.0835C11.6665 16.3931 11.1069 15.8335 10.4165 15.8335C9.72615 15.8335 9.1665 16.3931 9.1665 17.0835C9.1665 17.7739 9.72615 18.3335 10.4165 18.3335Z" fill="#F6FAFD"/>
<path d="M12.9165 20.8335C13.6069 20.8335 14.1665 20.2739 14.1665 19.5835C14.1665 18.8931 13.6069 18.3335 12.9165 18.3335C12.2261 18.3335 11.6665 18.8931 11.6665 19.5835C11.6665 20.2739 12.2261 20.8335 12.9165 20.8335Z" fill="#F6FAFD"/>
<path d="M10.4164 20.0003C10.6465 20.0003 10.8331 19.8138 10.8331 19.5837C10.8331 19.3535 10.6465 19.167 10.4164 19.167C10.1863 19.167 9.99976 19.3535 9.99976 19.5837C9.99976 19.8138 10.1863 20.0003 10.4164 20.0003Z" fill="#F6FAFD"/>
<path d="M19.9998 3.33348C30.1248 3.33348 38.3332 10.4226 38.3332 19.1668H39.1457C38.9159 14.2435 36.7985 9.59796 33.2331 6.19507C29.6677 2.79219 24.9285 0.893555 19.9998 0.893555C15.0712 0.893555 10.332 2.79219 6.76659 6.19507C3.20122 9.59796 1.08374 14.2435 0.854004 19.1668H1.6665C1.6665 10.4226 9.87484 3.33348 19.9998 3.33348Z" fill="#FFD93B"/>
<path d="M39.1458 19.167C39.1458 27.9112 30.1249 37.8636 19.9999 37.8636C9.87492 37.8636 0.854085 27.9112 0.854085 19.167C0.842419 19.4437 0.833252 19.7212 0.833252 20.0003C0.833252 25.0836 2.85259 29.9588 6.44704 33.5532C10.0415 37.1477 14.9166 39.167 19.9999 39.167C25.0832 39.167 29.9584 37.1477 33.5528 33.5532C37.1473 29.9588 39.1666 25.0836 39.1666 20.0003C39.1666 19.7212 39.1574 19.4437 39.1458 19.167Z" fill="#F4C534"/>
<path d="M31.5117 8.18808C31.7802 7.9196 31.6949 7.39908 31.3213 7.02548C30.9477 6.65188 30.4272 6.56667 30.1587 6.83515C29.8903 7.10364 29.9755 7.62415 30.3491 7.99775C30.7227 8.37136 31.2432 8.45657 31.5117 8.18808Z" fill="#F6FAFD"/>
<path d="M25.9616 4.09765C26.096 3.96325 26.0535 3.70286 25.8667 3.51606C25.6799 3.32926 25.4195 3.28678 25.2851 3.42119C25.1507 3.55559 25.1932 3.81598 25.38 4.00278C25.5668 4.18958 25.8272 4.23206 25.9616 4.09765Z" fill="#F6FAFD"/>
<path d="M29.6888 7.19815C30.2258 6.66118 30.0551 5.61988 29.3076 4.87235C28.5601 4.12482 27.5188 3.95414 26.9818 4.49111C26.4448 5.02808 26.6155 6.06937 27.363 6.8169C28.1106 7.56443 29.1519 7.73512 29.6888 7.19815Z" fill="#F6FAFD"/>
<path d="M28.4456 24.2061C29.0481 24.5719 30.4165 27.4627 30.4165 28.6111C30.4345 28.8957 30.394 29.1811 30.2974 29.4495C30.2009 29.7179 30.0503 29.9636 29.8551 30.1716C29.6599 30.3796 29.4241 30.5453 29.1624 30.6586C28.9006 30.7719 28.6184 30.8304 28.3331 30.8304C28.0479 30.8304 27.7657 30.7719 27.5039 30.6586C27.2422 30.5453 27.0064 30.3796 26.8112 30.1716C26.6159 29.9636 26.4654 29.7179 26.3689 29.4495C26.2723 29.1811 26.2318 28.8957 26.2498 28.6111C26.2498 27.4627 27.6181 24.5719 28.2206 24.2061C27.5106 24.5969 25.8331 28.2702 25.8331 29.7227C25.7982 30.4221 26.0415 31.1069 26.51 31.6274C26.9785 32.1478 27.6339 32.4617 28.3331 32.5002C29.0323 32.4617 29.6878 32.1478 30.1563 31.6274C30.6248 31.1069 30.8681 30.4221 30.8331 29.7227C30.8331 28.2702 29.1556 24.5969 28.4456 24.2061Z" fill="#00A3E1"/>
<path d="M29.8374 29.8575C30.1058 29.589 30.0206 29.0685 29.647 28.6949C29.2734 28.3213 28.7529 28.2361 28.4844 28.5046C28.2159 28.7731 28.3012 29.2936 28.6748 29.6672C29.0484 30.0408 29.5689 30.126 29.8374 29.8575Z" fill="#F6FAFD"/>
<path d="M30.1208 28.2695C30.2552 28.1351 30.2127 27.8747 30.0259 27.6879C29.8391 27.5011 29.5787 27.4587 29.4443 27.5931C29.3099 27.7275 29.3524 27.9879 29.5392 28.1747C29.726 28.3615 29.9864 28.4039 30.1208 28.2695Z" fill="#F6FAFD"/>
<path d="M28.3331 32.5002C27.7766 32.4791 27.2424 32.2757 26.8128 31.9213C26.3832 31.5668 26.0821 31.081 25.9556 30.5386C25.8844 30.817 25.8433 31.1022 25.8331 31.3894C25.7982 32.0888 26.0415 32.7736 26.51 33.2941C26.9785 33.8145 27.6339 34.1284 28.3331 34.1669C29.0323 34.1284 29.6878 33.8145 30.1563 33.2941C30.6248 32.7736 30.8681 32.0888 30.8331 31.3894C30.8229 31.1022 30.7819 30.817 30.7106 30.5386C30.5842 31.081 30.2831 31.5668 29.8535 31.9213C29.4239 32.2757 28.8897 32.4791 28.3331 32.5002Z" fill="#FFB32B"/>
</g>
<defs>
<clipPath id="clip0_6001_93457">
<rect width="40" height="40" fill="white"/>
</clipPath>
</defs>
</svg>
