<svg width="40" height="40" viewBox="0 0 40 40" fill="none" xmlns="http://www.w3.org/2000/svg">
<g clip-path="url(#clip0_6001_93484)">
<path d="M20 39.375C2.68745 39.375 0.601204 24.375 0.624954 20.625V19.375C0.601204 15.625 2.68745 0.625 20 0.625C37.3125 0.625 39.3987 15.625 39.375 19.375V20.625C39.3987 24.375 37.3125 39.375 20 39.375Z" fill="url(#paint0_linear_6001_93484)"/>
<path d="M33.125 16.875C33.125 15.3832 32.5324 13.9524 31.4775 12.8975C30.4226 11.8426 28.9918 11.25 27.5 11.25C26.0082 11.25 24.5774 11.8426 23.5225 12.8975C22.4676 13.9524 21.875 15.3832 21.875 16.875C21.875 16.9806 21.885 17.0831 21.8906 17.1875C21.885 17.2919 21.875 17.3944 21.875 17.5C21.875 18.9918 22.4676 20.4226 23.5225 21.4775C24.5774 22.5324 26.0082 23.125 27.5 23.125C28.9918 23.125 30.4226 22.5324 31.4775 21.4775C32.5324 20.4226 33.125 18.9918 33.125 17.5C33.125 17.3944 33.115 17.2919 33.1094 17.1875C33.115 17.0831 33.125 16.9806 33.125 16.875Z" fill="#FAA15D"/>
<path d="M12.5 11.25C11.0082 11.25 9.57742 11.8426 8.52252 12.8975C7.46763 13.9524 6.875 15.3832 6.875 16.875C6.875 16.9806 6.885 17.0831 6.89062 17.1875C6.885 17.2919 6.875 17.3944 6.875 17.5C6.875 18.9918 7.46763 20.4226 8.52252 21.4775C9.57742 22.5324 11.0082 23.125 12.5 23.125C13.9918 23.125 15.4226 22.5324 16.4775 21.4775C17.5324 20.4226 18.125 18.9918 18.125 17.5C18.125 17.3944 18.115 17.2919 18.1094 17.1875C18.115 17.0831 18.125 16.9806 18.125 16.875C18.125 15.3832 17.5324 13.9524 16.4775 12.8975C15.4226 11.8426 13.9918 11.25 12.5 11.25Z" fill="#FAA44E"/>
<path d="M33.125 16.25C33.125 14.7582 32.5324 13.3274 31.4775 12.2725C30.4226 11.2176 28.9918 10.625 27.5 10.625C26.0082 10.625 24.5774 11.2176 23.5225 12.2725C22.4676 13.3274 21.875 14.7582 21.875 16.25C21.875 16.3556 21.885 16.4581 21.8906 16.5625C21.885 16.6669 21.875 16.7694 21.875 16.875C21.875 18.3668 22.4676 19.7976 23.5225 20.8525C24.5774 21.9074 26.0082 22.5 27.5 22.5C28.9918 22.5 30.4226 21.9074 31.4775 20.8525C32.5324 19.7976 33.125 18.3668 33.125 16.875C33.125 16.7694 33.115 16.6669 33.1094 16.5625C33.115 16.4581 33.125 16.3556 33.125 16.25Z" fill="#4E7CE6"/>
<path d="M12.5 10.625C11.0082 10.625 9.57742 11.2176 8.52252 12.2725C7.46763 13.3274 6.875 14.7582 6.875 16.25C6.875 16.3556 6.885 16.4581 6.89062 16.5625C6.885 16.6669 6.875 16.7694 6.875 16.875C6.875 18.3668 7.46763 19.7976 8.52252 20.8525C9.57742 21.9074 11.0082 22.5 12.5 22.5C13.9918 22.5 15.4226 21.9074 16.4775 20.8525C17.5324 19.7976 18.125 18.3668 18.125 16.875C18.125 16.7694 18.115 16.6669 18.1094 16.5625C18.115 16.4581 18.125 16.3556 18.125 16.25C18.125 14.7582 17.5324 13.3274 16.4775 12.2725C15.4226 11.2176 13.9918 10.625 12.5 10.625Z" fill="#4E7CE6"/>
<path d="M27.5 22.5C30.6066 22.5 33.125 19.9816 33.125 16.875C33.125 13.7684 30.6066 11.25 27.5 11.25C24.3934 11.25 21.875 13.7684 21.875 16.875C21.875 19.9816 24.3934 22.5 27.5 22.5Z" fill="url(#paint1_radial_6001_93484)"/>
<path d="M27.5 20C29.2259 20 30.625 18.6009 30.625 16.875C30.625 15.1491 29.2259 13.75 27.5 13.75C25.7741 13.75 24.375 15.1491 24.375 16.875C24.375 18.6009 25.7741 20 27.5 20Z" fill="url(#paint2_radial_6001_93484)"/>
<path d="M12.5 22.5C15.6066 22.5 18.125 19.9816 18.125 16.875C18.125 13.7684 15.6066 11.25 12.5 11.25C9.3934 11.25 6.875 13.7684 6.875 16.875C6.875 19.9816 9.3934 22.5 12.5 22.5Z" fill="url(#paint3_radial_6001_93484)"/>
<path d="M12.5 20C14.2259 20 15.625 18.6009 15.625 16.875C15.625 15.1491 14.2259 13.75 12.5 13.75C10.7741 13.75 9.375 15.1491 9.375 16.875C9.375 18.6009 10.7741 20 12.5 20Z" fill="url(#paint4_radial_6001_93484)"/>
<path d="M34.8231 10.8125C32.3539 8.40106 29.0742 6.99709 25.625 6.875C25.4592 6.875 25.3003 6.94085 25.1831 7.05806C25.0658 7.17527 25 7.33424 25 7.5C25.0027 7.61095 25.0358 7.71904 25.0956 7.8125C25.0359 7.906 25.0028 8.01406 25 8.125C25 8.29076 25.0658 8.44973 25.1831 8.56694C25.3003 8.68415 25.4592 8.75 25.625 8.75C25.6731 8.75 30.5188 8.80438 33.9275 12.3125C34.043 12.4313 34.2011 12.4994 34.3668 12.5018C34.5325 12.5041 34.6924 12.4405 34.8113 12.325C34.91 12.2273 34.9729 12.099 34.9897 11.9611C35.0065 11.8231 34.9762 11.6836 34.9038 11.565C34.9758 11.4484 35.007 11.3112 34.9924 11.1749C34.9778 11.0387 34.9182 10.9112 34.8231 10.8125Z" fill="#2E70DB"/>
<path d="M14.375 6.875C10.9257 6.99709 7.64603 8.40106 5.17683 10.8125C5.0824 10.911 5.02333 11.0381 5.00885 11.1738C4.99438 11.3096 5.02532 11.4462 5.09683 11.5625C5.03924 11.656 5.00774 11.7632 5.0056 11.873C5.00345 11.9828 5.03075 12.0912 5.08465 12.1869C5.13855 12.2825 5.21709 12.362 5.3121 12.4171C5.40712 12.4722 5.51514 12.5008 5.62496 12.5C5.70838 12.5002 5.79102 12.4838 5.86798 12.4516C5.94494 12.4194 6.01468 12.3721 6.07308 12.3125C9.48183 8.80438 14.3275 8.75 14.375 8.75C14.5407 8.75 14.6997 8.68415 14.8169 8.56694C14.9341 8.44973 15 8.29076 15 8.125C14.9972 8.01406 14.9641 7.906 14.9043 7.8125C14.9642 7.71904 14.9973 7.61095 15 7.5C15 7.33424 14.9341 7.17527 14.8169 7.05806C14.6997 6.94085 14.5407 6.875 14.375 6.875Z" fill="#2E70DB"/>
<path d="M34.375 11.875C34.2916 11.8752 34.2089 11.8588 34.132 11.8266C34.055 11.7944 33.9853 11.7471 33.9269 11.6875C30.5181 8.17938 25.6725 8.125 25.625 8.125C25.4592 8.125 25.3003 8.05915 25.1831 7.94194C25.0658 7.82473 25 7.66576 25 7.5C25 7.33424 25.0658 7.17527 25.1831 7.05806C25.3003 6.94085 25.4592 6.875 25.625 6.875C29.0742 6.99709 32.3539 8.40106 34.8231 10.8125C34.9094 10.9005 34.9677 11.012 34.9908 11.1331C35.0138 11.2542 35.0006 11.3793 34.9527 11.4929C34.9048 11.6064 34.8244 11.7033 34.7216 11.7713C34.6188 11.8393 34.4982 11.8754 34.375 11.875Z" fill="url(#paint5_radial_6001_93484)"/>
<path d="M5.62484 11.875C5.5016 11.8754 5.38102 11.8393 5.27823 11.7713C5.17545 11.7033 5.09506 11.6064 5.04717 11.4929C4.99928 11.3793 4.98603 11.2542 5.00908 11.1331C5.03212 11.012 5.09045 10.9005 5.17671 10.8125C7.64591 8.40106 10.9256 6.99709 14.3748 6.875C14.5406 6.875 14.6996 6.94085 14.8168 7.05806C14.934 7.17527 14.9998 7.33424 14.9998 7.5C14.9998 7.66576 14.934 7.82473 14.8168 7.94194C14.6996 8.05915 14.5406 8.125 14.3748 8.125C14.3267 8.125 9.48109 8.17938 6.07234 11.6875C6.01401 11.747 5.94437 11.7942 5.86752 11.8264C5.79067 11.8586 5.70816 11.8752 5.62484 11.875Z" fill="url(#paint6_radial_6001_93484)"/>
<path d="M26.5182 28.3619C25.888 27.1748 24.9507 26.1786 23.8042 25.4773C22.6576 24.776 21.3439 24.3953 20 24.375C18.6562 24.3953 17.3424 24.776 16.1959 25.4773C15.0493 26.1786 14.1121 27.1748 13.4819 28.3619C13.2449 28.7841 13.1219 29.2608 13.125 29.745V31.1325C13.1096 31.3319 13.1426 31.5322 13.2211 31.7161C13.2996 31.9001 13.4214 32.0625 13.576 32.1893C13.7307 32.3162 13.9137 32.4039 14.1095 32.4449C14.3053 32.4859 14.5081 32.4791 14.7007 32.425C16.3868 31.7328 18.1793 31.3353 20 31.25C21.8207 31.3353 23.6133 31.7328 25.2994 32.425C25.492 32.4791 25.6948 32.4859 25.8906 32.4449C26.0864 32.4039 26.2693 32.3162 26.424 32.1893C26.5787 32.0625 26.7004 31.9001 26.7789 31.7161C26.8575 31.5322 26.8904 31.3319 26.875 31.1325V29.745C26.8781 29.2608 26.7551 28.7841 26.5182 28.3619Z" fill="#FFB300"/>
<path d="M26.5182 27.7369C25.888 26.5498 24.9507 25.5536 23.8042 24.8523C22.6576 24.151 21.3439 23.7703 20 23.75C18.6562 23.7703 17.3424 24.151 16.1959 24.8523C15.0493 25.5536 14.1121 26.5498 13.4819 27.7369C13.2449 28.1591 13.1219 28.6358 13.125 29.12V30.5075C13.1096 30.7069 13.1426 30.9072 13.2211 31.0911C13.2996 31.2751 13.4214 31.4375 13.576 31.5643C13.7307 31.6912 13.9137 31.7789 14.1095 31.8199C14.3053 31.8609 14.5081 31.8541 14.7007 31.8C16.3868 31.1078 18.1793 30.7103 20 30.625C21.8207 30.7103 23.6133 31.1078 25.2994 31.8C25.492 31.8541 25.6948 31.8609 25.8906 31.8199C26.0864 31.7789 26.2693 31.6912 26.424 31.5643C26.5787 31.4375 26.7004 31.2751 26.7789 31.0911C26.8575 30.9072 26.8904 30.7069 26.875 30.5075V29.12C26.8781 28.6358 26.7551 28.1591 26.5182 27.7369Z" fill="#E67700"/>
<path d="M20 24.375C18.6562 24.3953 17.3424 24.776 16.1959 25.4773C15.0493 26.1786 14.1121 27.1748 13.4819 28.3619C13.2449 28.7841 13.1219 29.2608 13.125 29.745V30.5075C13.1096 30.7069 13.1426 30.9072 13.2211 31.0911C13.2996 31.2751 13.4214 31.4374 13.576 31.5643C13.7307 31.6912 13.9137 31.7789 14.1095 31.8199C14.3053 31.8609 14.5081 31.8541 14.7007 31.8C16.3868 31.1078 18.1793 30.7103 20 30.625C21.8207 30.7103 23.6133 31.1078 25.2994 31.8C25.492 31.8541 25.6948 31.8609 25.8906 31.8199C26.0864 31.7789 26.2693 31.6912 26.424 31.5643C26.5787 31.4374 26.7004 31.2751 26.7789 31.0911C26.8575 30.9072 26.8904 30.7069 26.875 30.5075V29.745C26.8781 29.2608 26.7551 28.7841 26.5182 28.3619C25.888 27.1748 24.9507 26.1786 23.8042 25.4773C22.6576 24.776 21.3439 24.3953 20 24.375Z" fill="url(#paint7_linear_6001_93484)"/>
</g>
<defs>
<linearGradient id="paint0_linear_6001_93484" x1="20" y1="39.0387" x2="20" y2="7.15812" gradientUnits="userSpaceOnUse">
<stop stop-color="#FFD93B"/>
<stop offset="0.217" stop-color="#FFD93B"/>
<stop offset="0.465" stop-color="#FF6D29"/>
<stop offset="0.697" stop-color="#83BEEC"/>
<stop offset="0.995" stop-color="#2A97EC"/>
</linearGradient>
<radialGradient id="paint1_radial_6001_93484" cx="0" cy="0" r="1" gradientUnits="userSpaceOnUse" gradientTransform="translate(27.5 16.875) scale(5.625)">
<stop stop-color="white"/>
<stop offset="0.505" stop-color="white"/>
<stop offset="0.588" stop-color="white"/>
<stop offset="0.804" stop-color="#FDFEFF"/>
<stop offset="0.886" stop-color="#F6FAFF"/>
<stop offset="0.945" stop-color="#EAF3FF"/>
<stop offset="0.993" stop-color="#D9EAFF"/>
<stop offset="1" stop-color="#D6E8FF"/>
</radialGradient>
<radialGradient id="paint2_radial_6001_93484" cx="0" cy="0" r="1" gradientUnits="userSpaceOnUse" gradientTransform="translate(27.5 16.875) scale(3.125)">
<stop offset="0.005" stop-color="#414D4D"/>
<stop offset="0.206" stop-color="#3A4545"/>
<stop offset="0.522" stop-color="#272E2E"/>
<stop offset="0.914" stop-color="#080909"/>
<stop offset="1"/>
</radialGradient>
<radialGradient id="paint3_radial_6001_93484" cx="0" cy="0" r="1" gradientUnits="userSpaceOnUse" gradientTransform="translate(12.5 0.3125) scale(0.3125)">
<stop stop-color="white"/>
<stop offset="0.505" stop-color="white"/>
<stop offset="0.588" stop-color="white"/>
<stop offset="0.804" stop-color="#FDFEFF"/>
<stop offset="0.886" stop-color="#F6FAFF"/>
<stop offset="0.945" stop-color="#EAF3FF"/>
<stop offset="0.993" stop-color="#D9EAFF"/>
<stop offset="1" stop-color="#D6E8FF"/>
</radialGradient>
<radialGradient id="paint4_radial_6001_93484" cx="0" cy="0" r="1" gradientUnits="userSpaceOnUse" gradientTransform="translate(12.5 -3.82812) scale(3.125)">
<stop offset="0.005" stop-color="#414D4D"/>
<stop offset="0.206" stop-color="#3A4545"/>
<stop offset="0.522" stop-color="#272E2E"/>
<stop offset="0.914" stop-color="#080909"/>
<stop offset="1"/>
</radialGradient>
<radialGradient id="paint5_radial_6001_93484" cx="0" cy="0" r="1" gradientUnits="userSpaceOnUse" gradientTransform="translate(-8.75 7.5) scale(4.94062)">
<stop offset="0.005" stop-color="#414D4D"/>
<stop offset="0.206" stop-color="#3A4545"/>
<stop offset="0.522" stop-color="#272E2E"/>
<stop offset="0.914" stop-color="#080909"/>
<stop offset="1"/>
</radialGradient>
<radialGradient id="paint6_radial_6001_93484" cx="0" cy="0" r="1" gradientUnits="userSpaceOnUse" gradientTransform="translate(-33.7502 7.5) scale(4.94062)">
<stop offset="0.005" stop-color="#414D4D"/>
<stop offset="0.206" stop-color="#3A4545"/>
<stop offset="0.522" stop-color="#272E2E"/>
<stop offset="0.914" stop-color="#080909"/>
<stop offset="1"/>
</radialGradient>
<linearGradient id="paint7_linear_6001_93484" x1="20" y1="30.7656" x2="20" y2="24.6338" gradientUnits="userSpaceOnUse">
<stop stop-color="#911625"/>
<stop offset="0.139" stop-color="#821421"/>
<stop offset="0.507" stop-color="#5E0E18"/>
<stop offset="0.807" stop-color="#480B12"/>
<stop offset="1" stop-color="#400A10"/>
</linearGradient>
<clipPath id="clip0_6001_93484">
<rect width="40" height="40" fill="white"/>
</clipPath>
</defs>
</svg>
