<svg width="40" height="40" viewBox="0 0 40 40" fill="none" xmlns="http://www.w3.org/2000/svg">
<g clip-path="url(#clip0_6001_93412)">
<path d="M20.0001 38.5344C30.6411 38.5344 39.2673 29.9082 39.2673 19.2672C39.2673 8.62622 30.6411 0 20.0001 0C9.35913 0 0.73291 8.62622 0.73291 19.2672C0.73291 29.9082 9.35913 38.5344 20.0001 38.5344Z" fill="#FFD93B"/>
<path d="M39.2672 19.2671C39.2672 29.9119 30.6398 38.5343 20 38.5343C13.9425 38.5343 8.53638 35.7406 5.00269 31.3631C8.30763 34.0368 12.5163 35.6318 17.0987 35.6318C27.7373 35.6318 36.3659 27.0094 36.3659 16.3646C36.3659 11.7834 34.771 7.5735 32.0973 4.26855C36.4672 7.8035 39.2672 13.2097 39.2672 19.2671Z" fill="#F4C534"/>
<path d="M28.25 36.9092C27.81 38.9717 25.7213 40.5204 23.445 39.8355C21.1688 39.173 18.8326 39.1855 16.5214 39.8355C14.3627 40.4604 12.2177 39.0767 11.7527 36.8967C10.1265 29.0631 13.7427 20.062 19.9888 20.062C26.3737 20.062 29.8487 29.1906 28.25 36.9092Z" fill="#FFD93B"/>
<path d="M26.5887 36.5657C26.335 37.7695 25.12 38.5619 23.9362 38.2132C21.305 37.4532 18.6851 37.4532 16.0639 38.2132C14.8801 38.5619 13.6651 37.7695 13.4114 36.5545C11.9639 29.5596 15.1226 21.7622 19.9938 21.7622C24.9087 21.7622 28.0262 29.5908 26.5887 36.5657Z" fill="#3E4347"/>
<path d="M24.7873 36.9631C25.3561 35.4631 25.2548 33.7081 24.1886 32.2144C23.4686 31.1907 22.1486 30.8082 20.9861 31.2569C20.2024 31.5594 19.3324 31.6544 18.4962 31.5869C15.2712 31.3244 14.2112 34.3881 15.16 36.9631C18.3324 36.0006 21.5424 36.0481 24.7873 36.9631Z" fill="#E24B4B"/>
<path d="M20 34.9561C17.1288 34.9561 14.6576 35.746 13.5176 36.886C13.9051 37.906 14.9938 38.5297 16.0638 38.2135C18.6837 37.4535 21.305 37.4535 23.9362 38.2135C25.0086 38.5297 26.0986 37.9048 26.4849 36.8885C25.3474 35.746 22.8737 34.9561 20 34.9561Z" fill="white"/>
<path d="M10.7214 18.6173C7.30141 18.2686 5.20644 15.8486 6.07393 12.4287C6.95266 9.00873 10.4451 6.23877 13.8888 6.23877C17.3212 6.23877 18.685 8.92373 18.9262 12.4512C19.215 16.7749 14.6825 19.0273 10.7214 18.6173Z" fill="white"/>
<path d="M16.5326 12.4473C16.5326 14.1548 15.1514 15.556 13.4439 15.556C11.7264 15.546 10.3452 14.1548 10.3452 12.4473C10.3452 10.7399 11.7264 9.34863 13.4439 9.34863C15.1514 9.34863 16.5326 10.7399 16.5326 12.4473Z" fill="#3E4347"/>
<path d="M14.9454 10.9302C14.5871 10.5719 14.1197 10.4583 13.9015 10.6765C13.6833 10.8947 13.7969 11.3621 14.1552 11.7204C14.5135 12.0787 14.9808 12.1923 15.199 11.9741C15.4172 11.7559 15.3037 11.2885 14.9454 10.9302Z" fill="white"/>
<path d="M28.6049 18.7295C32.0711 18.3745 34.4886 15.9096 34.0773 12.4284C33.6536 8.94718 30.5311 6.12598 27.0875 6.12598C23.655 6.12598 21.9338 8.85968 21.2225 12.4521C20.3563 16.8533 24.5875 19.147 28.6049 18.7295Z" fill="white"/>
<path d="M29.8024 12.4473C29.8024 14.1548 28.4212 15.556 26.7137 15.556C24.9962 15.546 23.615 14.1548 23.615 12.4473C23.615 10.7399 24.9962 9.34863 26.7137 9.34863C28.4212 9.34863 29.8024 10.7399 29.8024 12.4473Z" fill="#3E4347"/>
<path d="M28.2137 10.9322C27.8554 10.5739 27.388 10.4603 27.1698 10.6785C26.9516 10.8967 27.0652 11.364 27.4235 11.7223C27.7818 12.0806 28.2492 12.1942 28.4674 11.976C28.6856 11.7578 28.572 11.2905 28.2137 10.9322Z" fill="white"/>
</g>
<defs>
<clipPath id="clip0_6001_93412">
<rect width="40" height="40" fill="white"/>
</clipPath>
</defs>
</svg>
