<svg width="24" height="25" viewBox="0 0 24 25" fill="none" xmlns="http://www.w3.org/2000/svg">
<g id="t-icon-excel 1">
<path id="Vector" fill-rule="evenodd" clip-rule="evenodd" d="M21.5858 3.8049H13.9882V2.01465L1.5 3.94215V20.8374L13.9882 22.9884V20.3349H21.5858C21.8158 20.3466 22.0412 20.2666 22.2125 20.1126C22.3838 19.9585 22.4872 19.7429 22.5 19.5129V4.62615C22.487 4.39624 22.3836 4.18082 22.2123 4.02694C22.041 3.87307 21.8157 3.79324 21.5858 3.8049ZM21.7057 19.6494H13.9628L13.95 18.2326H15.8153V16.5826H13.9357L13.9268 15.6076H15.8153V13.9576H13.9125L13.9035 12.9826H15.8153V11.3326H13.8975V10.3576H15.8153V8.70763H13.8975V7.73265H15.8153V6.08265H13.8975V4.58265H21.7057V19.6494Z" fill="white"/>
<path id="Vector_2" d="M16.8652 6.07812H20.1075V7.72812H16.8652V6.07812Z" fill="white"/>
<path id="Vector_3" d="M16.8652 8.70605H20.1075V10.3561H16.8652V8.70605Z" fill="white"/>
<path id="Vector_4" d="M16.8652 11.3311H20.1075V12.9811H16.8652V11.3311Z" fill="white"/>
<path id="Vector_5" d="M16.8652 13.9561H20.1075V15.6061H16.8652V13.9561Z" fill="white"/>
<path id="Vector_6" d="M16.8652 16.5811H20.1075V18.2311H16.8652V16.5811Z" fill="white"/>
<path id="Vector_7" fill-rule="evenodd" clip-rule="evenodd" d="M4.76105 8.50433L6.37055 8.41208L7.3823 11.1938L8.5778 8.29733L10.1873 8.20508L8.2328 12.1546L10.1873 16.1138L8.48555 15.9991L7.33655 12.9811L6.1868 15.8843L4.62305 15.7463L6.43955 12.2491L4.76105 8.50433Z" fill="#41D575"/>
</g>
</svg>
