<svg width="24" height="25" viewBox="0 0 24 25" fill="none" xmlns="http://www.w3.org/2000/svg">
<g id="plane">
<path id="Icon" d="M17.7448 3.31445C18.7096 2.31797 20.3036 2.30508 21.2844 3.28582C22.2382 4.2397 22.256 5.78067 21.3244 6.75627L18.5457 9.66604C18.3279 9.89411 18.219 10.0081 18.1519 10.1417C18.0925 10.2599 18.0571 10.3888 18.0479 10.5208C18.0375 10.6699 18.0729 10.8235 18.1438 11.1308L19.8717 18.6184C19.9445 18.9338 19.9809 19.0915 19.9691 19.244C19.9588 19.3791 19.921 19.5106 19.8583 19.6306C19.7874 19.7662 19.673 19.8806 19.4441 20.1095L19.0733 20.4803C18.4671 21.0864 18.1641 21.3895 17.8539 21.4444C17.583 21.4923 17.3044 21.4265 17.0835 21.2625C16.8306 21.0747 16.6951 20.6681 16.424 19.8549L14.4143 13.8256L11.0689 17.1709C10.8693 17.3706 10.7694 17.4704 10.7026 17.588C10.6435 17.6922 10.6035 17.8061 10.5846 17.9244C10.5633 18.058 10.5789 18.1983 10.6101 18.479L10.7938 20.1324C10.825 20.413 10.8406 20.5534 10.8193 20.6869C10.8004 20.8052 10.7605 20.9192 10.7013 21.0233C10.6345 21.1409 10.5347 21.2407 10.335 21.4404L10.1375 21.6379C9.6644 22.111 9.42787 22.3475 9.16502 22.416C8.93448 22.4761 8.69005 22.4519 8.47577 22.3478C8.23146 22.2291 8.04591 21.9507 7.67481 21.3941L6.10649 19.0416C6.04019 18.9421 6.00704 18.8924 5.96855 18.8473C5.93436 18.8073 5.89707 18.77 5.857 18.7358C5.81191 18.6973 5.76218 18.6641 5.66273 18.5978L3.31025 17.0295C2.7536 16.6584 2.47527 16.4729 2.35655 16.2286C2.25242 16.0143 2.22822 15.7699 2.2883 15.5393C2.35681 15.2765 2.59334 15.0399 3.06639 14.5669L3.2639 14.3694C3.46359 14.1697 3.56343 14.0698 3.68101 14.003C3.78517 13.9439 3.89912 13.9039 4.01742 13.885C4.15095 13.8637 4.29129 13.8793 4.57196 13.9105L6.22535 14.0942C6.50602 14.1254 6.64636 14.141 6.77989 14.1197C6.89819 14.1008 7.01214 14.0609 7.1163 14.0017C7.23388 13.9349 7.33372 13.8351 7.53341 13.6354L10.8787 10.2901L4.84945 8.2803C4.03623 8.00923 3.62961 7.87369 3.44182 7.62078C3.27783 7.39994 3.21206 7.12131 3.25997 6.85045C3.31483 6.54026 3.6179 6.23718 4.22405 5.63104L4.59482 5.26027C4.82371 5.03137 4.93816 4.91693 5.07375 4.84604C5.19376 4.78329 5.32527 4.74558 5.46029 4.73518C5.61284 4.72343 5.77055 4.75982 6.08596 4.83261L13.5451 6.55395C13.8551 6.62548 14.01 6.66124 14.1597 6.6506C14.3041 6.64033 14.4446 6.5988 14.5715 6.52888C14.7028 6.45647 14.8135 6.3422 15.0347 6.11366L17.7448 3.31445Z" stroke="#3B86D4" stroke-width="1.5" stroke-linecap="round" stroke-linejoin="round"/>
</g>
</svg>
