<svg width="20" height="20" viewBox="0 0 20 20" fill="none" xmlns="http://www.w3.org/2000/svg">
<g id="Eye">
<path id="Intersect" d="M17.7404 10.5915L17.0439 10.3131L17.7404 10.5915ZM2.95479 9.68656C4.0727 6.89002 6.80647 4.9165 9.99937 4.9165V3.4165C6.17231 3.4165 2.8998 5.78305 1.56195 9.12978L2.95479 9.68656ZM9.99937 4.9165C13.1923 4.9165 15.926 6.89003 17.0439 9.68656L18.4368 9.12978C17.0989 5.78305 13.8264 3.4165 9.99937 3.4165V4.9165ZM17.0439 10.3131C15.926 13.1097 13.1923 15.0832 9.99937 15.0832V16.5832C13.8264 16.5832 17.0989 14.2166 18.4368 10.8699L17.0439 10.3131ZM9.99937 15.0832C6.80647 15.0832 4.0727 13.1097 2.95479 10.3131L1.56195 10.8699C2.8998 14.2166 6.17231 16.5832 9.99937 16.5832V15.0832ZM17.0439 9.68656C17.1243 9.88756 17.1243 10.1121 17.0439 10.3131L18.4368 10.8699C18.66 10.3115 18.66 9.68821 18.4368 9.12978L17.0439 9.68656ZM1.56195 9.12978C1.33872 9.68821 1.33872 10.3115 1.56195 10.8699L2.95479 10.3131C2.87444 10.1121 2.87444 9.88755 2.95479 9.68656L1.56195 9.12978Z" fill="#666666"/>
<circle id="Ellipse 91" cx="10" cy="10" r="2.5" stroke="#666666" stroke-width="1.5" stroke-linecap="round" stroke-linejoin="round"/>
</g>
</svg>
