<svg width="20" height="20" viewBox="0 0 20 20" fill="none" xmlns="http://www.w3.org/2000/svg">
<g id="Eye Off">
<path id="Vector 11" d="M16.668 3.33301L3.33463 16.6663" stroke="#666666" stroke-width="1.5" stroke-linecap="round"/>
<path id="Subtract" fill-rule="evenodd" clip-rule="evenodd" d="M15.395 5.19427C16.6342 6.11156 17.6316 7.3365 18.2745 8.75569C18.6325 9.54603 18.6325 10.4537 18.2745 11.2441C16.8489 14.3913 13.6795 16.5832 9.99646 16.5832C8.28075 16.5832 6.67649 16.1076 5.30805 15.2812L6.40739 14.1819C7.47603 14.757 8.69829 15.0832 9.99646 15.0832C13.0691 15.0832 15.7166 13.2557 16.9081 10.6252C17.0879 10.2282 17.0879 9.77157 16.9081 9.3746C16.3396 8.1195 15.4397 7.04722 14.3203 6.26901L15.395 5.19427ZM12.5724 8.01686C12.9958 8.56565 13.2476 9.25357 13.2476 10.0003C13.2476 11.7952 11.7926 13.2503 9.99764 13.2503C9.25091 13.2503 8.56299 12.9985 8.0142 12.5751L9.09153 11.4978C9.35584 11.658 9.66596 11.7503 9.99764 11.7503C10.9641 11.7503 11.7476 10.9668 11.7476 10.0003C11.7476 9.66863 11.6554 9.3585 11.4951 9.09419L12.5724 8.01686ZM9.24314 6.83834L6.83568 9.2458C7.11833 8.05685 8.05419 7.12099 9.24314 6.83834ZM3.97328 12.1082C3.6237 11.652 3.32474 11.1549 3.08482 10.6252C2.905 10.2282 2.905 9.77157 3.08482 9.3746C4.27635 6.74402 6.92379 4.9165 9.99646 4.9165C10.3668 4.9165 10.731 4.94305 11.0871 4.99435L12.3556 3.72588C11.6034 3.52411 10.8125 3.4165 9.99646 3.4165C6.31347 3.4165 3.14403 5.60841 1.71845 8.75569C1.36046 9.54604 1.36046 10.4537 1.71845 11.2441C2.03333 11.9392 2.43329 12.5878 2.90507 13.1764L3.97328 12.1082Z" fill="#666666"/>
</g>
</svg>
