<svg width="24" height="24" viewBox="0 0 24 24" fill="none" xmlns="http://www.w3.org/2000/svg">
<path d="M9.96748 11.16C9.90748 11.15 9.83748 11.15 9.77748 11.16C8.39748 11.11 7.29749 9.98 7.29749 8.58C7.29749 7.15 8.44748 6 9.87748 6C11.3075 6 12.4575 7.16 12.4575 8.58C12.4475 9.98 11.3475 11.12 9.96748 11.16Z" stroke="#474747" stroke-linecap="round" stroke-linejoin="round"/>
<path d="M7.0575 14.31C5.6475 15.25 5.6475 16.79 7.0575 17.73C8.6575 18.8 11.2775 18.8 12.8775 17.73C14.2875 16.79 14.2875 15.25 12.8775 14.31C11.2875 13.25 8.6575 13.25 7.0575 14.31Z" stroke="#474747" stroke-linecap="round" stroke-linejoin="round"/>
<path d="M18.4 7.9254H17.3628C17.3659 7.63374 17.3907 7.38911 17.4372 7.19153C17.4837 6.99082 17.5612 6.80892 17.6698 6.64583C17.7814 6.48275 17.9287 6.31026 18.1116 6.12836C18.2543 5.99037 18.3829 5.86022 18.4977 5.7379C18.6124 5.61246 18.7039 5.48073 18.7721 5.34274C18.8403 5.20161 18.8744 5.0401 18.8744 4.8582C18.8744 4.66062 18.8419 4.49283 18.7767 4.35484C18.7116 4.21685 18.6155 4.11178 18.4884 4.03965C18.3643 3.96752 18.2093 3.93145 18.0233 3.93145C17.8682 3.93145 17.7225 3.96281 17.586 4.02554C17.4496 4.08513 17.3395 4.17921 17.2558 4.3078C17.1721 4.43324 17.1271 4.59946 17.1209 4.80645H16C16.0062 4.41129 16.0992 4.07885 16.2791 3.80914C16.4589 3.53943 16.7008 3.33714 17.0047 3.20228C17.3085 3.06743 17.6481 3 18.0233 3C18.4388 3 18.7938 3.07213 19.0884 3.2164C19.3829 3.35753 19.6078 3.56452 19.7628 3.83737C19.9209 4.10708 20 4.43324 20 4.81586C20 5.09185 19.9457 5.34274 19.8372 5.56855C19.7287 5.79122 19.5876 5.99978 19.414 6.19422C19.2403 6.38553 19.0527 6.57684 18.8512 6.76815C18.6775 6.92809 18.5597 7.10215 18.4977 7.29032C18.4357 7.47536 18.4031 7.68705 18.4 7.9254ZM17.2698 9.39315C17.2698 9.22379 17.3271 9.08109 17.4419 8.96505C17.5566 8.84588 17.7132 8.78629 17.9116 8.78629C18.1101 8.78629 18.2667 8.84588 18.3814 8.96505C18.4961 9.08109 18.5535 9.22379 18.5535 9.39315C18.5535 9.5625 18.4961 9.70677 18.3814 9.82594C18.2667 9.94198 18.1101 10 17.9116 10C17.7132 10 17.5566 9.94198 17.4419 9.82594C17.3271 9.70677 17.2698 9.5625 17.2698 9.39315Z" fill="#474747"/>
</svg>
