<svg width="23" height="19" viewBox="0 0 23 19" fill="none" xmlns="http://www.w3.org/2000/svg">
<path d="M0.958374 18.077V11.6162C0.9608 9.41384 1.83069 7.3024 3.37719 5.7451C4.92368 4.18781 7.02049 3.31184 9.20756 3.3094H13.6346V1.84556C13.6347 1.48052 13.7423 1.1237 13.9437 0.820209C14.1451 0.516716 14.4314 0.280177 14.7663 0.140493C15.1012 0.000810118 15.4698 -0.0357451 15.8253 0.0354488C16.1808 0.106643 16.5075 0.282389 16.7638 0.540471L22.1533 5.96665C22.6688 6.4859 22.9584 7.19006 22.9584 7.92428C22.9584 8.6585 22.6688 9.36267 22.1533 9.88192L16.7638 15.3081C16.5075 15.5662 16.1808 15.7419 15.8253 15.8131C15.4698 15.8843 15.1012 15.8478 14.7663 15.7081C14.4314 15.5684 14.1451 15.3318 13.9437 15.0284C13.7423 14.7249 13.6347 14.368 13.6346 14.003V12.5392H8.29099C6.83289 12.5406 5.43492 13.1246 4.40389 14.1628C3.37286 15.201 2.79298 16.6087 2.79153 18.077C2.79153 18.3218 2.69496 18.5566 2.52307 18.7297C2.35118 18.9028 2.11804 19 1.87495 19C1.63186 19 1.39872 18.9028 1.22683 18.7297C1.05494 18.5566 0.958374 18.3218 0.958374 18.077ZM15.4678 4.23238C15.4678 4.47717 15.3712 4.71193 15.1993 4.88502C15.0274 5.05811 14.7943 5.15535 14.5512 5.15535H9.20756C7.50652 5.15731 5.8757 5.83863 4.67288 7.04985C3.47006 8.26107 2.79347 9.90327 2.79153 11.6162V13.1982C3.47856 12.4108 4.32449 11.7801 5.27284 11.3481C6.22119 10.9162 7.25013 10.6929 8.29099 10.6932H14.5512C14.7943 10.6932 15.0274 10.7905 15.1993 10.9635C15.3712 11.1366 15.4678 11.3714 15.4678 11.6162V14.003L20.8563 8.57683C21.0282 8.40374 21.1247 8.16902 21.1247 7.92428C21.1247 7.67954 21.0282 7.44482 20.8563 7.27174L15.4678 1.84556V4.23238Z" fill="#0FAA60"/>
</svg>
