<svg width="22" height="22" viewBox="0 0 22 22" fill="none" xmlns="http://www.w3.org/2000/svg">
<rect width="22" height="22" rx="11" fill="#00A9E9" fill-opacity="0.15"/>
<path d="M14.8736 6.65967V7.15301L12.5136 5.78634C11.6203 5.27301 10.3736 5.27301 9.48695 5.78634L7.12695 7.15967V6.65967C7.12695 5.15967 7.94695 4.33301 9.44695 4.33301H12.5536C14.0536 4.33301 14.8736 5.15967 14.8736 6.65967Z" fill="url(#paint0_linear_430_9763)"/>
<path d="M14.893 8.31349L14.7997 8.26682L13.893 7.74682L12.013 6.66016C11.4397 6.32682 10.5597 6.32682 9.98634 6.66016L8.10634 7.74016L7.19967 8.27349L7.07967 8.33349C5.91301 9.12016 5.83301 9.26682 5.83301 10.5268V13.5402C5.83301 14.8002 5.91301 14.9468 7.10634 15.7535L9.98634 17.4135C10.273 17.5868 10.633 17.6602 10.9997 17.6602C11.3597 17.6602 11.7263 17.5802 12.013 17.4135L14.9197 15.7335C16.093 14.9468 16.1663 14.8068 16.1663 13.5402V10.5268C16.1663 9.26682 16.0863 9.12016 14.893 8.31349ZM12.8597 12.0002L12.453 12.5002C12.3863 12.5735 12.3397 12.7135 12.3463 12.8135L12.3863 13.4535C12.413 13.8468 12.133 14.0468 11.7663 13.9068L11.173 13.6668C11.0797 13.6335 10.9263 13.6335 10.833 13.6668L10.2397 13.9002C9.87301 14.0468 9.59301 13.8402 9.61967 13.4468L9.65967 12.8068C9.66634 12.7068 9.61967 12.5668 9.55301 12.4935L9.13967 12.0002C8.88634 11.7002 8.99967 11.3668 9.37967 11.2668L9.99967 11.1068C10.0997 11.0802 10.213 10.9868 10.2663 10.9068L10.613 10.3735C10.8263 10.0402 11.1663 10.0402 11.3863 10.3735L11.733 10.9068C11.7863 10.9935 11.9063 11.0802 11.9997 11.1068L12.6197 11.2668C12.9997 11.3668 13.113 11.7002 12.8597 12.0002Z" fill="url(#paint1_linear_430_9763)"/>
<defs>
<linearGradient id="paint0_linear_430_9763" x1="7.12695" y1="5.92493" x2="14.8736" y2="5.90861" gradientUnits="userSpaceOnUse">
<stop stop-color="#0086DA"/>
<stop offset="1" stop-color="#00A9E9"/>
<stop offset="1" stop-color="#00A9E9"/>
</linearGradient>
<linearGradient id="paint1_linear_430_9763" x1="5.83301" y1="12.7459" x2="16.1664" y2="12.7386" gradientUnits="userSpaceOnUse">
<stop stop-color="#0086DA"/>
<stop offset="1" stop-color="#00A9E9"/>
<stop offset="1" stop-color="#00A9E9"/>
</linearGradient>
</defs>
</svg>
