<svg width="28" height="28" viewBox="0 0 28 28" fill="none" xmlns="http://www.w3.org/2000/svg">
    <defs>
        <linearGradient id="paint0_linear_3938_188859" x1="0" y1="0" x2="32.265" y2="18.4462" gradientUnits="userSpaceOnUse">
            <stop stop-color="#9DA8FF"/>
            <stop offset="1" stop-color="#27E0D5"/>
        </linearGradient>
    </defs>
<path fill-rule="evenodd" clip-rule="evenodd" d="M28 14C28 21.732 21.732 28 14 28C6.26801 28 0 21.732 0 14C0 6.26801 6.26801 0 14 0C21.732 0 28 6.26801 28 14ZM22.7122 9.9695C22.7109 9.9684 22.7094 9.96739 22.708 9.96639C22.7057 9.96482 22.7034 9.9633 22.702 9.96156C22.549 9.81073 22.3369 9.7512 22.1407 9.78352L19.8715 9.813C19.5126 9.8181 19.2257 10.1124 19.2303 10.4713C19.2348 10.8291 19.5064 11.0962 19.888 11.1121L20.6478 11.1024L19.5359 12.2144C18.8748 11.7267 18.0787 11.463 17.2412 11.463C16.2059 11.463 15.2323 11.8662 14.5003 12.5982C12.9898 14.1093 12.9898 16.5685 14.5003 18.0797C15.2323 18.8117 16.2059 19.2148 17.2412 19.2148C18.276 19.2148 19.2501 18.8117 19.9821 18.0797C21.3203 16.7403 21.475 14.6577 20.442 13.1488L21.6094 11.9847V12.8347C21.6094 13.1936 21.9009 13.4839 22.2592 13.4839C22.6193 13.4839 22.909 13.193 22.909 12.8347V10.4305C22.909 10.2581 22.8359 10.0914 22.7122 9.9695ZM19.0636 17.1611C18.0906 18.1341 16.3935 18.1341 15.4194 17.1611C14.4147 16.1569 14.4147 14.5216 15.4194 13.5168C15.9065 13.0303 16.5534 12.7621 17.2418 12.7621C17.9307 12.7621 18.5765 13.0303 19.0647 13.5168C20.0689 14.521 20.0689 16.1569 19.0636 17.1611ZM5.09082 12.1072C5.09082 9.9695 6.83096 8.231 8.96858 8.231C11.1062 8.231 12.8441 9.9695 12.8441 12.1072C12.8441 14.0453 11.4197 15.6556 9.55373 15.9391V17.0896H10.6208C10.9798 17.0896 11.2706 17.3794 11.2706 17.7394C11.2706 18.0967 10.9798 18.3892 10.6208 18.3892H9.55373V19.119C9.55373 19.4768 9.26172 19.7688 8.90281 19.7688C8.54389 19.7688 8.25245 19.4779 8.25245 19.119V18.3892H7.23637C6.87746 18.3892 6.58715 18.0978 6.58715 17.7394C6.58715 17.3811 6.87746 17.0896 7.23637 17.0896H8.25245V15.9182C6.46014 15.5819 5.09082 14.001 5.09082 12.1072ZM6.39153 12.106C6.39153 13.527 7.54709 14.6832 8.96858 14.6832C10.3895 14.6832 11.5451 13.527 11.5451 12.106C11.5451 10.6851 10.3889 9.52892 8.96858 9.52892C7.54709 9.52892 6.39153 10.6851 6.39153 12.106Z" fill="url(#paint0_linear_3938_188859)"/>
</svg>
