<svg width="25" height="25" viewBox="0 0 25 25" fill="none" xmlns="http://www.w3.org/2000/svg">
<g clip-path="url(#clip0_1991_14459)">
<path d="M17.7502 0.499958C17.6583 0.501833 17.5702 0.520583 17.4802 0.544958C17.1239 0.644333 16.8033 0.880583 16.5502 1.20496C16.5445 1.21058 16.5408 1.21433 16.5352 1.21996L12.5302 6.82996C10.0683 6.25996 7.38142 6.90871 5.46517 8.82496C5.27955 9.01246 5.27955 9.31246 5.46517 9.49996L9.03517 13.055L0.605175 23.72C0.451424 23.9112 0.466425 24.1868 0.638925 24.3612C0.8133 24.5337 1.08892 24.5487 1.28017 24.395L11.9302 15.965L15.5002 19.52C15.6877 19.7056 15.9877 19.7056 16.1752 19.52C18.1195 17.5775 18.7552 14.84 18.1402 12.35L23.7652 8.52496C23.7708 8.51933 23.7745 8.51558 23.7802 8.50996C24.1083 8.26621 24.3352 7.96433 24.4402 7.60996C24.5452 7.25558 24.4927 6.80746 24.2002 6.51496L18.5602 0.799958C18.4158 0.651833 18.2246 0.569333 18.0352 0.529958C17.9396 0.509333 17.8421 0.498083 17.7502 0.499958ZM17.8402 1.45996C17.857 1.46183 17.8589 1.46371 17.8702 1.47496L23.5252 7.18996C23.5458 7.21058 23.557 7.21621 23.5252 7.32496C23.4933 7.42996 23.3827 7.59496 23.2102 7.72996L23.1952 7.74496L17.3602 11.72C17.3545 11.7256 17.3508 11.7293 17.3452 11.735L17.3152 11.75C17.1558 11.8737 17.0902 12.0818 17.1502 12.275C17.7783 14.3806 17.2983 16.7018 15.7852 18.455L6.53017 9.21496C8.2608 7.72246 10.552 7.22933 12.6352 7.81996C12.8339 7.87433 13.0458 7.79558 13.1602 7.62496L17.3002 1.78996L17.3152 1.77496C17.4539 1.60433 17.6283 1.50496 17.7352 1.47496C17.7914 1.45996 17.8233 1.45808 17.8402 1.45996ZM9.71017 13.745L11.2552 15.275L3.92017 21.08L9.71017 13.745Z" fill="#474747"/>
</g>
<defs>
<clipPath id="clip0_1991_14459">
<rect width="24" height="24" fill="white" transform="translate(0.5 0.5)"/>
</clipPath>
</defs>
</svg>
