<svg width="24" height="24" viewBox="0 0 24 24" fill="none" xmlns="http://www.w3.org/2000/svg">
<circle cx="8" cy="8" r="2" stroke="#4C5BD4" stroke-width="2" stroke-linecap="round"/>
<path d="M12.201 8.75C12.3999 8.40547 12.7275 8.15408 13.1118 8.05111C13.496 7.94815 13.9055 8.00205 14.25 8.20096C14.5945 8.39987 14.8459 8.7275 14.9489 9.11177C15.0519 9.49604 14.998 9.90547 14.799 10.25C14.6001 10.5945 14.2725 10.8459 13.8882 10.9489C13.504 11.0519 13.0945 10.998 12.75 10.799C12.4055 10.6001 12.1541 10.2725 12.0511 9.88823C11.9481 9.50396 12.002 9.09453 12.201 8.75L12.201 8.75Z" stroke="#4C5BD4" stroke-width="2"/>
<path d="M13.4054 17.507L14.3929 17.3495L13.4054 17.507ZM12.5 17.5H3.50002V19.5H12.5V17.5ZM3.58215 17.6645C3.70585 16.8888 3.99891 15.8267 4.65873 14.9779C5.28216 14.1758 6.27752 13.5 8.00002 13.5V11.5C5.64228 11.5 4.07089 12.4752 3.07966 13.7505C2.12481 14.9789 1.7553 16.4203 1.60711 17.3495L3.58215 17.6645ZM8.00002 13.5C9.72252 13.5 10.7179 14.1758 11.3413 14.9779C12.0011 15.8267 12.2942 16.8888 12.4179 17.6645L14.3929 17.3495C14.2447 16.4203 13.8752 14.9789 12.9204 13.7505C11.9292 12.4752 10.3578 11.5 8.00002 11.5V13.5ZM3.50002 17.5C3.49489 17.5 3.51341 17.4987 3.53843 17.5255C3.55142 17.5394 3.56571 17.5608 3.57489 17.5897C3.58454 17.6202 3.58486 17.6475 3.58215 17.6645L1.60711 17.3495C1.409 18.5917 2.42667 19.5 3.50002 19.5V17.5ZM12.5 19.5C13.5734 19.5 14.591 18.5917 14.3929 17.3495L12.4179 17.6645C12.4152 17.6475 12.4155 17.6202 12.4252 17.5897C12.4343 17.5608 12.4486 17.5394 12.4616 17.5255C12.4866 17.4987 12.5052 17.5 12.5 17.5V19.5Z" fill="#4C5BD4"/>
<path d="M17.2965 17.4162L16.3265 17.6592L17.2965 17.4162ZM11.8003 13.9808L11.2645 13.1364L10.2342 13.7903L11.0777 14.672L11.8003 13.9808ZM13.4053 17.507L14.3929 17.3495L13.4053 17.507ZM16.395 17.5H12.4999V19.5H16.395V17.5ZM16.3265 17.6592C16.323 17.6454 16.3209 17.6196 16.3284 17.5892C16.3354 17.5605 16.3481 17.5392 16.3597 17.5255C16.3823 17.4989 16.4006 17.5 16.395 17.5V19.5C17.5448 19.5 18.5901 18.4653 18.2666 17.1733L16.3265 17.6592ZM13.5 14.5C14.3315 14.5 14.918 14.8938 15.3785 15.5072C15.8601 16.1486 16.1564 16.9801 16.3265 17.6592L18.2666 17.1733C18.0684 16.382 17.6904 15.2553 16.9778 14.3063C16.2441 13.3291 15.1164 12.5 13.5 12.5V14.5ZM12.3361 14.8251C12.6477 14.6274 13.0232 14.5 13.5 14.5V12.5C12.6349 12.5 11.889 12.7401 11.2645 13.1364L12.3361 14.8251ZM11.0777 14.672C11.9216 15.5542 12.2772 16.7827 12.4178 17.6645L14.3929 17.3495C14.2271 16.3104 13.7804 14.604 12.5229 13.2895L11.0777 14.672ZM12.4178 17.6645C12.4151 17.6475 12.4154 17.6202 12.4251 17.5897C12.4343 17.5608 12.4486 17.5394 12.4615 17.5255C12.4866 17.4987 12.5051 17.5 12.4999 17.5V19.5C13.5733 19.5 14.591 18.5917 14.3929 17.3495L12.4178 17.6645Z" fill="#4C5BD4"/>
<rect x="16.25" y="5.25" width="4.5" height="0.5" rx="0.25" stroke="#4C5BD4" stroke-width="0.5" stroke-linecap="round"/>
<rect x="18.75" y="3.25" width="4.5" height="0.5" rx="0.25" transform="rotate(90 18.75 3.25)" stroke="#4C5BD4" stroke-width="0.5" stroke-linecap="round"/>
</svg>
