<svg width="15" height="15" viewBox="0 0 15 15" fill="none" xmlns="http://www.w3.org/2000/svg">
<path d="M6.74909 13.1528L6.74837 13.1521C4.80729 11.3919 3.2364 9.96452 2.14494 8.62919C1.05898 7.30059 0.5 6.12437 0.5 4.875C0.5 2.83424 2.09055 1.25 4.125 1.25C5.27885 1.25 6.39456 1.78973 7.12058 2.63564L7.5 3.07771L7.87942 2.63564C8.60544 1.78973 9.72115 1.25 10.875 1.25C12.9095 1.25 14.5 2.83424 14.5 4.875C14.5 6.12437 13.941 7.30059 12.8551 8.62919C11.7636 9.96452 10.1927 11.3919 8.25163 13.1521L8.25091 13.1528L7.5 13.8363L6.74909 13.1528Z" stroke="url(#paint0_linear_1115_4191)"/>
<defs>
<linearGradient id="paint0_linear_1115_4191" x1="-1.12512e-07" y1="8.50074" x2="15.0001" y2="8.48818" gradientUnits="userSpaceOnUse">
<stop stop-color="#0086DA"/>
<stop offset="1" stop-color="#00A9E9"/>
<stop offset="1" stop-color="#00A9E9"/>
</linearGradient>
</defs>
</svg>
