<svg width="45" height="45" viewBox="0 0 45 45" fill="none" xmlns="http://www.w3.org/2000/svg">
<g clip-path="url(#clip0_3065_108709)">
<circle cx="22.5" cy="22.5" r="20" stroke="white" stroke-width="5"/>
<path d="M23 23L18.7271 19.4393C18.0923 18.9102 17.7748 18.6457 17.5466 18.3214C17.3444 18.0341 17.1943 17.7135 17.103 17.3743C17 16.9914 17 16.5782 17 15.7518V13M23 23L27.2729 19.4393C27.9077 18.9102 28.2252 18.6457 28.4534 18.3214C28.6556 18.0341 28.8057 17.7135 28.897 17.3743C29 16.9914 29 16.5782 29 15.7518V13M23 23L18.7271 26.5607C18.0923 27.0898 17.7748 27.3543 17.5466 27.6786C17.3444 27.9659 17.1943 28.2865 17.103 28.6257C17 29.0086 17 29.4218 17 30.2482V33M23 23L27.2729 26.5607C27.9077 27.0898 28.2252 27.3543 28.4534 27.6786C28.6556 27.9659 28.8057 28.2865 28.897 28.6257C29 29.0086 29 29.4218 29 30.2482V33M15 13H31M15 33H31" stroke="white" stroke-width="2" stroke-linecap="round" stroke-linejoin="round"/>
</g>
<defs>
<clipPath id="clip0_3065_108709">
<rect width="45" height="45" fill="white"/>
</clipPath>
</defs>
</svg>
