<svg width="18" height="19" viewBox="0 0 18 19" fill="none" xmlns="http://www.w3.org/2000/svg">
<g clip-path="url(#clip0_1105_3541)">
<path d="M8.99977 16.4503C13.3853 16.4503 16.9409 13.1167 16.9409 9.00447C16.9409 4.89222 13.3853 1.55859 8.99977 1.55859C4.61426 1.55859 1.05859 4.89222 1.05859 9.00447C1.05859 10.8766 1.79613 12.5891 3.01411 13.8975C2.91782 14.9782 2.60017 16.1631 2.24878 17.0524C2.17036 17.2502 2.32223 17.4715 2.51977 17.4375C4.75918 17.0439 6.09032 16.4397 6.66903 16.1249C7.42931 16.3421 8.21292 16.4516 8.99977 16.4503Z" stroke="white" stroke-width="1.5"/>
<mask id="path-2-inside-1_1105_3541" fill="white">
<path d="M5.5855 9.3586C5.5855 9.62191 5.49806 9.82816 5.3226 9.9779C5.14421 10.1259 4.89775 10.2 4.58263 10.2H3V9.58462H4.31094C4.46468 9.58462 4.57677 9.55976 4.6466 9.5106C4.71643 9.45974 4.75164 9.3812 4.75164 9.27384C4.75164 9.17496 4.71819 9.09755 4.65129 9.04161C4.58146 8.98793 4.46821 8.96137 4.31153 8.96137L3.24177 8.96532V8.35055H4.29157C4.45001 8.35055 4.56386 8.32682 4.63369 8.27879C4.70058 8.23245 4.73403 8.15561 4.73403 8.04825C4.73403 7.94654 4.70058 7.87082 4.63369 7.81996C4.59965 7.79228 4.55447 7.7725 4.49872 7.76007C4.44004 7.74933 4.37138 7.74368 4.29157 7.74368H3V7.12891H4.51632C4.86724 7.12891 5.13306 7.19671 5.3138 7.33232C5.49219 7.46963 5.58139 7.68266 5.58139 7.97196C5.58139 8.11718 5.54794 8.24601 5.48104 8.35846C5.41121 8.4709 5.32084 8.56979 5.20935 8.65455C5.33199 8.72744 5.42119 8.81446 5.47694 8.9156C5.54911 9.03426 5.5855 9.18174 5.5855 9.3586Z"/>
</mask>
<path d="M5.5855 9.3586C5.5855 9.62191 5.49806 9.82816 5.3226 9.9779C5.14421 10.1259 4.89775 10.2 4.58263 10.2H3V9.58462H4.31094C4.46468 9.58462 4.57677 9.55976 4.6466 9.5106C4.71643 9.45974 4.75164 9.3812 4.75164 9.27384C4.75164 9.17496 4.71819 9.09755 4.65129 9.04161C4.58146 8.98793 4.46821 8.96137 4.31153 8.96137L3.24177 8.96532V8.35055H4.29157C4.45001 8.35055 4.56386 8.32682 4.63369 8.27879C4.70058 8.23245 4.73403 8.15561 4.73403 8.04825C4.73403 7.94654 4.70058 7.87082 4.63369 7.81996C4.59965 7.79228 4.55447 7.7725 4.49872 7.76007C4.44004 7.74933 4.37138 7.74368 4.29157 7.74368H3V7.12891H4.51632C4.86724 7.12891 5.13306 7.19671 5.3138 7.33232C5.49219 7.46963 5.58139 7.68266 5.58139 7.97196C5.58139 8.11718 5.54794 8.24601 5.48104 8.35846C5.41121 8.4709 5.32084 8.56979 5.20935 8.65455C5.33199 8.72744 5.42119 8.81446 5.47694 8.9156C5.54911 9.03426 5.5855 9.18174 5.5855 9.3586Z" fill="white"/>
<path d="M5.3226 9.9779L5.96128 10.7475L5.97176 10.7386L5.3226 9.9779ZM3 10.2H2V11.2H3V10.2ZM3 9.58462V8.58462H2V9.58462H3ZM4.6466 9.5106L5.22224 10.3283L5.2288 10.3237L5.23529 10.319L4.6466 9.5106ZM4.65129 9.04161L5.29278 8.27447L5.27703 8.2613L5.26074 8.24878L4.65129 9.04161ZM4.31153 8.96137V7.96136L4.30783 7.96138L4.31153 8.96137ZM3.24177 8.96532H2.24177V9.96903L3.24546 9.96532L3.24177 8.96532ZM3.24177 8.35055V7.35055H2.24177V8.35055H3.24177ZM4.63369 8.27879L5.20038 9.10272L5.20307 9.10086L4.63369 8.27879ZM4.63369 7.81996L4.00263 8.5957L4.0154 8.60609L4.0285 8.61605L4.63369 7.81996ZM4.49872 7.76007L4.71637 6.78404L4.6976 6.77986L4.67869 6.7764L4.49872 7.76007ZM3 7.74368H2V8.74368H3V7.74368ZM3 7.12891V6.12891H2V7.12891H3ZM5.3138 7.33232L5.92379 6.53982L5.91397 6.53245L5.3138 7.33232ZM5.48104 8.35846L6.33056 8.88602L6.33558 8.87793L6.34045 8.86974L5.48104 8.35846ZM5.20935 8.65455L4.60417 7.85846L3.42318 8.75625L4.69844 9.51418L5.20935 8.65455ZM5.47694 8.9156L4.60115 9.3983L4.61147 9.41702L4.62258 9.43528L5.47694 8.9156ZM4.5855 9.3586C4.5855 9.3793 4.58227 9.36033 4.5993 9.3202C4.61783 9.27654 4.64673 9.24004 4.67345 9.21724L5.97176 10.7386C6.40312 10.3704 6.5855 9.86782 6.5855 9.3586H4.5855ZM4.68399 9.20837C4.70882 9.18776 4.72538 9.18397 4.7164 9.18666C4.70446 9.19025 4.66371 9.19996 4.58263 9.19996V11.2C5.04754 11.2 5.54819 11.0902 5.96122 10.7474L4.68399 9.20837ZM4.58263 9.19996H3V11.2H4.58263V9.19996ZM4 10.2V9.58462H2V10.2H4ZM3 10.5846H4.31094V8.58462H3V10.5846ZM4.31094 10.5846C4.52838 10.5846 4.89627 10.5578 5.22224 10.3283L4.07095 8.6929C4.17436 8.6201 4.26269 8.59662 4.29458 8.58958C4.32847 8.58209 4.3378 8.58462 4.31094 8.58462V10.5846ZM5.23529 10.319C5.62336 10.0363 5.75164 9.61894 5.75164 9.27384H3.75164C3.75164 9.21995 3.76038 9.12217 3.81162 9.00699C3.86591 8.88493 3.95231 8.77914 4.0579 8.70224L5.23529 10.319ZM5.75164 9.27384C5.75164 8.92328 5.61896 8.54723 5.29278 8.27447L4.0098 9.80874C3.92764 9.74003 3.85596 9.64792 3.80858 9.53826C3.76267 9.43202 3.75164 9.33757 3.75164 9.27384H5.75164ZM5.26074 8.24878C4.92411 7.99001 4.53427 7.96137 4.31153 7.96137V9.96137C4.33775 9.96137 4.32416 9.96402 4.28453 9.95468C4.24583 9.94556 4.1496 9.91727 4.04184 9.83443L5.26074 8.24878ZM4.30783 7.96138L3.23807 7.96533L3.24546 9.96532L4.31522 9.96136L4.30783 7.96138ZM4.24177 8.96532V8.35055H2.24177V8.96532H4.24177ZM3.24177 9.35055H4.29157V7.35055H3.24177V9.35055ZM4.29157 9.35055C4.50005 9.35055 4.87156 9.32888 5.20038 9.10271L4.06699 7.45486C4.17401 7.38125 4.26391 7.35956 4.29087 7.35391C4.32072 7.34766 4.3251 7.35055 4.29157 7.35055V9.35055ZM5.20307 9.10086C5.62255 8.81032 5.73403 8.36796 5.73403 8.04825H3.73403C3.73403 8.00167 3.74088 7.90484 3.79203 7.78731C3.84722 7.66053 3.94007 7.54276 4.0643 7.45672L5.20307 9.10086ZM5.73403 8.04825C5.73403 7.70535 5.60626 7.30317 5.23887 7.02388L4.0285 8.61605C3.9292 8.54056 3.84643 8.43775 3.79367 8.31786C3.74352 8.20391 3.73403 8.10588 3.73403 8.04825H5.73403ZM5.26475 7.04423C5.0761 6.89076 4.87369 6.81912 4.71637 6.78404L4.28107 8.7361C4.23524 8.72588 4.12321 8.69379 4.00263 8.5957L5.26475 7.04423ZM4.67869 6.7764C4.54732 6.75236 4.4165 6.74368 4.29157 6.74368V8.74368C4.30811 8.74368 4.31846 8.74428 4.32342 8.74467C4.32844 8.74507 4.3265 8.74516 4.31875 8.74374L4.67869 6.7764ZM4.29157 6.74368H3V8.74368H4.29157V6.74368ZM4 7.74368V7.12891H2V7.74368H4ZM3 8.12891H4.51632V6.12891H3V8.12891ZM4.51632 8.12891C4.63034 8.12891 4.69837 8.14023 4.73172 8.14873C4.76362 8.15687 4.74862 8.15845 4.71364 8.1322L5.91397 6.53245C5.48787 6.21274 4.97147 6.12891 4.51632 6.12891V8.12891ZM4.70386 8.12477C4.6805 8.10679 4.65702 8.08381 4.63611 8.05643C4.61529 8.02917 4.60109 8.00287 4.59199 7.98115C4.57431 7.93889 4.58139 7.92762 4.58139 7.97196H6.58139C6.58139 7.46868 6.41554 6.91841 5.92375 6.53988L4.70386 8.12477ZM4.58139 7.97196C4.58139 7.96742 4.58197 7.95093 4.58839 7.9262C4.59497 7.90087 4.60599 7.87346 4.62163 7.84717L6.34045 8.86974C6.50923 8.58605 6.58139 8.27684 6.58139 7.97196H4.58139ZM4.63153 7.83089C4.62869 7.83547 4.62254 7.84449 4.60417 7.85846L5.81453 9.45063C6.01915 9.29508 6.19374 9.10634 6.33056 8.88602L4.63153 7.83089ZM4.69844 9.51418C4.70385 9.51739 4.64939 9.48583 4.60115 9.3983L6.35272 8.4329C6.19299 8.14308 5.96014 7.93748 5.72026 7.79491L4.69844 9.51418ZM4.62258 9.43528C4.57745 9.36109 4.5855 9.31739 4.5855 9.3586H6.5855C6.5855 9.04609 6.52078 8.70743 6.3313 8.39592L4.62258 9.43528Z" fill="white" mask="url(#path-2-inside-1_1105_3541)"/>
<mask id="path-4-inside-2_1105_3541" fill="white">
<path d="M8.74802 9.25705C8.74802 9.57912 8.62655 9.82323 8.38419 9.98935C8.14184 10.1555 7.79269 10.238 7.33615 10.238C6.79745 10.238 6.39901 10.1131 6.14081 9.86335C5.88437 9.61529 5.75586 9.22597 5.75586 8.69482C5.75586 8.15858 5.89317 7.76305 6.16839 7.50821C6.4395 7.2545 6.862 7.12793 7.43649 7.12793H8.58254L8.58019 7.74271H7.42006C7.13193 7.74271 6.92303 7.79639 6.79334 7.90318C6.73232 7.95404 6.68596 8.01845 6.65427 8.09643C6.61847 8.17893 6.60087 8.27329 6.60087 8.38008H7.63601C8.00922 8.38008 8.28796 8.45185 8.47221 8.5948C8.65589 8.73946 8.74802 8.95983 8.74802 9.25705ZM7.92002 9.28982C7.92002 9.19093 7.89362 9.11635 7.8408 9.06549C7.78799 9.01916 7.7076 8.99543 7.59904 8.99543H6.60498C6.60498 9.20506 6.66601 9.36384 6.78865 9.47063C6.90836 9.58025 7.10025 9.63506 7.36373 9.63506C7.565 9.63506 7.70701 9.60681 7.79151 9.55087C7.87777 9.49493 7.92002 9.40791 7.92002 9.28982Z"/>
</mask>
<path d="M8.74802 9.25705C8.74802 9.57912 8.62655 9.82323 8.38419 9.98935C8.14184 10.1555 7.79269 10.238 7.33615 10.238C6.79745 10.238 6.39901 10.1131 6.14081 9.86335C5.88437 9.61529 5.75586 9.22597 5.75586 8.69482C5.75586 8.15858 5.89317 7.76305 6.16839 7.50821C6.4395 7.2545 6.862 7.12793 7.43649 7.12793H8.58254L8.58019 7.74271H7.42006C7.13193 7.74271 6.92303 7.79639 6.79334 7.90318C6.73232 7.95404 6.68596 8.01845 6.65427 8.09643C6.61847 8.17893 6.60087 8.27329 6.60087 8.38008H7.63601C8.00922 8.38008 8.28796 8.45185 8.47221 8.5948C8.65589 8.73946 8.74802 8.95983 8.74802 9.25705ZM7.92002 9.28982C7.92002 9.19093 7.89362 9.11635 7.8408 9.06549C7.78799 9.01916 7.7076 8.99543 7.59904 8.99543H6.60498C6.60498 9.20506 6.66601 9.36384 6.78865 9.47063C6.90836 9.58025 7.10025 9.63506 7.36373 9.63506C7.565 9.63506 7.70701 9.60681 7.79151 9.55087C7.87777 9.49493 7.92002 9.40791 7.92002 9.28982Z" fill="white"/>
<path d="M6.14081 9.86335L5.44554 10.5821L5.44555 10.5821L6.14081 9.86335ZM6.16839 7.50821L6.84782 8.24197L6.85168 8.23836L6.16839 7.50821ZM8.58254 7.12793L9.58253 7.13175L9.58636 6.12793H8.58254V7.12793ZM8.58019 7.74271V8.74271H9.57638L9.58018 7.74652L8.58019 7.74271ZM6.79334 7.90318L6.15764 7.13122L6.15318 7.13494L6.79334 7.90318ZM6.65427 8.09643L7.57164 8.49447L7.57629 8.48374L7.5807 8.4729L6.65427 8.09643ZM6.60087 8.38008H5.60087V9.38008H6.60087V8.38008ZM8.47221 8.5948L9.09095 7.80917L9.08521 7.80472L8.47221 8.5948ZM7.8408 9.06549L8.53443 8.34516L8.51773 8.32907L8.5003 8.31378L7.8408 9.06549ZM6.60498 8.99543V7.99543H5.60498V8.99543H6.60498ZM6.78865 9.47063L7.46399 8.73313L7.45477 8.72469L7.44535 8.71648L6.78865 9.47063ZM7.79151 9.55087L7.24739 8.71181L7.23951 8.71703L7.79151 9.55087ZM7.74802 9.25705C7.74802 9.29133 7.74207 9.27568 7.76149 9.2366C7.77065 9.21818 7.78239 9.20098 7.79506 9.18669C7.80747 9.17269 7.81692 9.16582 7.8188 9.16453L8.94958 10.8142C9.49273 10.4419 9.74802 9.87241 9.74802 9.25705H7.74802ZM7.8188 9.16453C7.81234 9.16896 7.69571 9.23798 7.33615 9.23798V11.238C7.88966 11.238 8.47134 11.142 8.94958 10.8142L7.8188 9.16453ZM7.33615 9.23798C7.14043 9.23798 7.01142 9.21486 6.93236 9.19008C6.85761 9.16666 6.83638 9.14489 6.83606 9.14458L5.44555 10.5821C5.96524 11.0848 6.66546 11.238 7.33615 11.238V9.23798ZM6.83607 9.14459C6.83605 9.14457 6.83593 9.14446 6.83572 9.14422C6.8355 9.14397 6.83511 9.14353 6.83455 9.14282C6.83348 9.14147 6.83141 9.13869 6.82854 9.13394C6.82287 9.12455 6.81285 9.1054 6.80191 9.07221C6.77916 9.00317 6.75586 8.88358 6.75586 8.69482H4.75586C4.75586 9.36578 4.91681 10.0706 5.44554 10.5821L6.83607 9.14459ZM6.75586 8.69482C6.75586 8.50853 6.78014 8.39149 6.8035 8.32426C6.82482 8.26292 6.84403 8.24546 6.84781 8.24196L5.48897 6.77446C4.93409 7.28825 4.75586 8.00257 4.75586 8.69482H6.75586ZM6.85168 8.23836C6.85834 8.23213 6.9812 8.12793 7.43649 8.12793V6.12793C6.7428 6.12793 6.02066 6.27688 5.4851 6.77806L6.85168 8.23836ZM7.43649 8.12793H8.58254V6.12793H7.43649V8.12793ZM7.58254 7.12411L7.5802 7.73889L9.58018 7.74652L9.58253 7.13175L7.58254 7.12411ZM8.58019 6.74271H7.42006V8.74271H8.58019V6.74271ZM7.42006 6.74271C7.04963 6.74271 6.55521 6.80385 6.15765 7.13124L7.42903 8.67513C7.39119 8.70629 7.35726 8.72556 7.33359 8.73677C7.31033 8.74779 7.2962 8.75142 7.29555 8.75159C7.29488 8.75176 7.30425 8.74935 7.32606 8.747C7.34773 8.74466 7.37862 8.74271 7.42006 8.74271V6.74271ZM6.15318 7.13494C5.95849 7.29717 5.81755 7.49921 5.72784 7.71995L7.5807 8.4729C7.55437 8.5377 7.50614 8.6109 7.43351 8.67142L6.15318 7.13494ZM5.7369 7.69838C5.63676 7.92918 5.60087 8.16344 5.60087 8.38008H7.60087C7.60087 8.38314 7.60019 8.42867 7.57164 8.49447L5.7369 7.69838ZM6.60087 9.38008H7.63601V7.38008H6.60087V9.38008ZM7.63601 9.38008C7.76188 9.38008 7.83781 9.39253 7.87611 9.40237C7.91309 9.41188 7.89699 9.4142 7.85922 9.38489L9.08521 7.80472C8.64834 7.46577 8.10814 7.38008 7.63601 7.38008V9.38008ZM7.8535 9.38042C7.83361 9.36476 7.81315 9.34448 7.79475 9.3201C7.7764 9.29581 7.76391 9.2725 7.75598 9.25349C7.7405 9.21635 7.74802 9.2097 7.74802 9.25705H9.74802C9.74802 8.74256 9.57768 8.19253 9.09093 7.80919L7.8535 9.38042ZM8.92002 9.28982C8.92002 9.01627 8.84338 8.64265 8.53443 8.34516L7.14718 9.78583C6.94385 9.59004 6.92002 9.3656 6.92002 9.28982H8.92002ZM8.5003 8.31378C8.19132 8.04271 7.8299 7.99543 7.59904 7.99543V9.99543C7.5853 9.99543 7.38466 9.99561 7.18131 9.8172L8.5003 8.31378ZM7.59904 7.99543H6.60498V9.99543H7.59904V7.99543ZM5.60498 8.99543C5.60498 9.40256 5.73045 9.87517 6.13195 10.2248L7.44535 8.71648C7.5128 8.77522 7.55864 8.84647 7.58374 8.91151C7.60663 8.97081 7.60498 9.00533 7.60498 8.99543H5.60498ZM6.11331 10.2081C6.50308 10.5651 6.99772 10.6351 7.36373 10.6351V8.63506C7.29701 8.63506 7.28023 8.62764 7.29712 8.63247C7.31669 8.63806 7.38626 8.66195 7.46399 8.73313L6.11331 10.2081ZM7.36373 10.6351C7.60373 10.6351 8.00058 10.6117 8.34352 10.3847L7.23951 8.71703C7.29291 8.68168 7.3391 8.66135 7.36947 8.65008C7.39994 8.63877 7.42081 8.63425 7.4278 8.63287C7.43917 8.63062 7.42187 8.63506 7.36373 8.63506V10.6351ZM8.33561 10.3899C8.75715 10.1165 8.92002 9.68117 8.92002 9.28982H6.92002C6.92002 9.23053 6.93078 9.12461 6.99034 9.00321C7.05305 8.87537 7.14735 8.77674 7.24741 8.71185L8.33561 10.3899Z" fill="white" mask="url(#path-4-inside-2_1105_3541)"/>
<mask id="path-6-inside-3_1105_3541" fill="white">
<path d="M11.6573 9.26989C11.6573 9.56993 11.5593 9.80047 11.3645 9.96095C11.1679 10.1203 10.8903 10.1994 10.5324 10.1994H8.85352V9.58462H10.3869C10.5377 9.58462 10.6445 9.55976 10.7055 9.5106C10.7642 9.46257 10.7929 9.38233 10.7929 9.26989C10.7929 9.15462 10.7636 9.07155 10.7055 9.02126C10.6445 8.97324 10.5377 8.9495 10.3869 8.9495H8.85352V7.12891H11.5012L11.4989 7.74368H9.63808V8.33812H10.675C10.976 8.33812 11.2166 8.41835 11.3979 8.57883C11.4818 8.66246 11.547 8.76078 11.5928 8.87322C11.6356 8.98793 11.6573 9.12071 11.6573 9.26989Z"/>
</mask>
<path d="M11.6573 9.26989C11.6573 9.56993 11.5593 9.80047 11.3645 9.96095C11.1679 10.1203 10.8903 10.1994 10.5324 10.1994H8.85352V9.58462H10.3869C10.5377 9.58462 10.6445 9.55976 10.7055 9.5106C10.7642 9.46257 10.7929 9.38233 10.7929 9.26989C10.7929 9.15462 10.7636 9.07155 10.7055 9.02126C10.6445 8.97324 10.5377 8.9495 10.3869 8.9495H8.85352V7.12891H11.5012L11.4989 7.74368H9.63808V8.33812H10.675C10.976 8.33812 11.2166 8.41835 11.3979 8.57883C11.4818 8.66246 11.547 8.76078 11.5928 8.87322C11.6356 8.98793 11.6573 9.12071 11.6573 9.26989Z" fill="white"/>
<path d="M11.3645 9.96095L11.9942 10.7378L12.0003 10.7328L11.3645 9.96095ZM8.85352 10.1994H7.85352V11.1994H8.85352V10.1994ZM8.85352 9.58462V8.58462H7.85352V9.58462H8.85352ZM10.7055 9.5106L11.3328 10.2894L11.3389 10.2844L10.7055 9.5106ZM10.7055 9.02126L11.36 8.2652L11.3423 8.2499L11.3239 8.23544L10.7055 9.02126ZM8.85352 8.9495H7.85352V9.9495H8.85352V8.9495ZM8.85352 7.12891V6.12891H7.85352V7.12891H8.85352ZM11.5012 7.12891L12.5012 7.13272L12.505 6.12891H11.5012V7.12891ZM11.4989 7.74368V8.74368H12.4951L12.4989 7.7475L11.4989 7.74368ZM9.63808 7.74368V6.74368H8.63808V7.74368H9.63808ZM9.63808 8.33812H8.63808V9.33812H9.63808V8.33812ZM11.3979 8.57883L12.1038 7.87051L12.0829 7.84961L12.0607 7.82998L11.3979 8.57883ZM11.5928 8.87322L12.5296 8.52337L12.5245 8.50971L12.519 8.4962L11.5928 8.87322ZM10.6573 9.26989C10.6573 9.31155 10.6506 9.30735 10.6633 9.27734C10.6696 9.26253 10.679 9.24537 10.6919 9.22816C10.7048 9.21099 10.7179 9.19797 10.7287 9.18908L12.0003 10.7328C12.4691 10.3466 12.6573 9.80756 12.6573 9.26989H10.6573ZM10.7348 9.1841C10.7783 9.14882 10.7561 9.1994 10.5324 9.1994V11.1994C11.0245 11.1994 11.5575 11.0918 11.9942 10.7378L10.7348 9.1841ZM10.5324 9.1994H8.85352V11.1994H10.5324V9.1994ZM9.85352 10.1994V9.58462H7.85352V10.1994H9.85352ZM8.85352 10.5846H10.3869V8.58462H8.85352V10.5846ZM10.3869 10.5846C10.5852 10.5846 10.9915 10.5643 11.3328 10.2894L10.0782 8.73183C10.2018 8.63229 10.3144 8.60109 10.3535 8.59201C10.3964 8.58204 10.4124 8.58462 10.3869 8.58462V10.5846ZM11.3389 10.2844C11.7271 9.96665 11.7929 9.52802 11.7929 9.26989H9.79293C9.79293 9.23665 9.80122 8.95849 10.0721 8.73675L11.3389 10.2844ZM11.7929 9.26989C11.7929 9.00937 11.7274 8.58327 11.36 8.2652L10.051 9.77733C9.79976 9.55984 9.79293 9.29987 9.79293 9.26989H11.7929ZM11.3239 8.23544C10.9823 7.96658 10.5777 7.9495 10.3869 7.9495V9.9495C10.415 9.9495 10.4014 9.9522 10.3608 9.9431C10.3247 9.93498 10.212 9.90545 10.0871 9.80709L11.3239 8.23544ZM10.3869 7.9495H8.85352V9.9495H10.3869V7.9495ZM9.85352 8.9495V7.12891H7.85352V8.9495H9.85352ZM8.85352 8.12891H11.5012V6.12891H8.85352V8.12891ZM10.5012 7.12509L10.4989 7.73987L12.4989 7.7475L12.5012 7.13272L10.5012 7.12509ZM11.4989 6.74368H9.63808V8.74368H11.4989V6.74368ZM8.63808 7.74368V8.33812H10.6381V7.74368H8.63808ZM9.63808 9.33812H10.675V7.33812H9.63808V9.33812ZM10.675 9.33812C10.7374 9.33812 10.7636 9.34649 10.7653 9.34705C10.766 9.34728 10.7621 9.34602 10.7554 9.34218C10.7486 9.33827 10.7415 9.33326 10.7352 9.32768L12.0607 7.82998C11.6554 7.4713 11.159 7.33812 10.675 7.33812V9.33812ZM10.692 9.28714C10.6865 9.28164 10.6808 9.27481 10.6758 9.2672C10.6708 9.25962 10.6679 9.25351 10.6666 9.25024L12.519 8.4962C12.4238 8.26235 12.2847 8.05072 12.1038 7.87051L10.692 9.28714ZM10.656 9.22307C10.6492 9.20508 10.6573 9.21576 10.6573 9.26989H12.6573C12.6573 9.02567 12.622 8.77077 12.5296 8.52337L10.656 9.22307Z" fill="white" mask="url(#path-6-inside-3_1105_3541)"/>
<path d="M13.8401 11.1373C13.7213 11.1007 13.3996 11.0139 13.0794 10.9288L13.3335 10.7083L14.3141 10.9823C14.3263 10.9882 14.3427 10.9966 14.3615 11.0073C14.4051 11.0322 14.4466 11.061 14.4769 11.0892C14.397 11.1632 14.3739 11.1757 14.3395 11.1856C14.2929 11.1991 14.1606 11.2192 13.8401 11.1373ZM14.5025 11.0536C14.5025 11.0536 14.5023 11.0542 14.5018 11.0554L14.5025 11.0536Z" fill="white" stroke="white"/>
<path d="M7.67986 11.9888C7.8123 11.9798 7.94627 11.9656 8.08121 11.9472L7.67986 11.9888ZM7.67986 11.9888C8.05511 11.944 8.41881 11.8595 8.76471 11.757L8.7648 11.7569C9.87117 11.4288 10.919 10.9377 11.8157 10.1623L11.8171 10.1611C11.83 10.1498 11.8381 10.1428 11.8459 10.1364L11.846 10.1365L11.8557 10.128C12.1481 9.87176 12.5064 9.53684 12.7799 9.14322C13.054 8.74881 13.2756 8.2486 13.2146 7.67608L13.2146 7.67583C13.2078 7.61245 13.1961 7.5519 13.1804 7.49411C13.2386 7.55916 13.2839 7.63018 13.3171 7.70728C13.3678 7.87189 13.3824 8.06382 13.3652 8.26521L13.3652 8.26564C13.333 8.64766 13.1781 9.02972 12.9366 9.37997L12.9364 9.38021C12.5282 9.97304 11.9167 10.4512 11.2338 10.8544L11.2337 10.8544C10.6653 11.1903 10.0815 11.4499 9.45086 11.6388L9.45076 11.6389C8.99457 11.7757 8.53926 11.8851 8.08126 11.9472L7.67986 11.9888ZM5.28717 10.5345C5.31006 10.5826 5.33529 10.6289 5.36287 10.6747L5.25138 10.4526C5.25675 10.4644 5.26179 10.4763 5.26683 10.4883C5.27336 10.5038 5.27989 10.5192 5.28717 10.5345Z" fill="white" stroke="white"/>
<mask id="path-10-inside-4_1105_3541" fill="white">
<path fill-rule="evenodd" clip-rule="evenodd" d="M5.60352 10.399C5.60352 10.399 7.2284 11.8145 10.0181 10.2979C9.7071 10.6516 6.23375 12.2693 5.60352 10.399Z"/>
</mask>
<path fill-rule="evenodd" clip-rule="evenodd" d="M5.60352 10.399C5.60352 10.399 7.2284 11.8145 10.0181 10.2979C9.7071 10.6516 6.23375 12.2693 5.60352 10.399Z" fill="white"/>
<path d="M5.60352 10.399L6.26036 9.64497L3.47724 7.22056L4.65587 10.7183L5.60352 10.399ZM10.0181 10.2979L10.7691 10.9582L9.54048 9.41929L10.0181 10.2979ZM5.60352 10.399C4.94667 11.153 4.94719 11.1535 4.94771 11.1539C4.94789 11.1541 4.94842 11.1545 4.94879 11.1549C4.94952 11.1555 4.95028 11.1562 4.95107 11.1568C4.95265 11.1582 4.95433 11.1596 4.95613 11.1612C4.95972 11.1642 4.96376 11.1676 4.96823 11.1714C4.97718 11.1788 4.9879 11.1876 5.00037 11.1975C5.02529 11.2173 5.05731 11.2418 5.09632 11.2697C5.17424 11.3255 5.28068 11.3957 5.41482 11.4703C5.68293 11.6195 6.06488 11.7883 6.55203 11.8943C7.54838 12.1111 8.89641 12.0459 10.4957 11.1764L9.54048 9.41929C8.3501 10.0664 7.49083 10.0518 6.97731 9.94002C6.70953 9.88174 6.5109 9.79144 6.38717 9.7226C6.32538 9.68823 6.28308 9.65965 6.26125 9.644C6.25038 9.63621 6.24476 9.63176 6.24452 9.63157C6.24441 9.63148 6.24566 9.63247 6.24829 9.63466C6.24961 9.63575 6.25127 9.63715 6.25328 9.63886C6.25428 9.63972 6.25537 9.64066 6.25655 9.64167C6.25714 9.64218 6.25776 9.64271 6.25839 9.64326C6.25871 9.64353 6.2592 9.64396 6.25936 9.6441C6.25985 9.64453 6.26036 9.64497 5.60352 10.399ZM9.26711 9.63754C9.34459 9.54942 9.38418 9.54394 9.25625 9.61953C9.16693 9.67231 9.03606 9.74101 8.87231 9.81536C8.54264 9.96505 8.12738 10.1161 7.7176 10.2054C7.29064 10.2984 6.96319 10.3036 6.76025 10.2524C6.6155 10.2159 6.58317 10.1747 6.55116 10.0797L4.65587 10.7183C4.93898 11.5585 5.57715 12.0164 6.27063 12.1915C6.90592 12.352 7.58441 12.2813 8.14344 12.1595C8.71965 12.0339 9.27043 11.8311 9.69918 11.6364C9.91464 11.5386 10.1111 11.4375 10.2737 11.3414C10.3977 11.2681 10.6139 11.1347 10.7691 10.9582L9.26711 9.63754Z" fill="white" mask="url(#path-10-inside-4_1105_3541)"/>
</g>
<defs>
<clipPath id="clip0_1105_3541">
<rect width="18" height="18" fill="white" transform="translate(0 0.5)"/>
</clipPath>
</defs>
</svg>
