<svg width="20" height="20" viewBox="0 0 20 20" fill="none" xmlns="http://www.w3.org/2000/svg">
<path d="M17.3727 6.46938C17.8 7.01403 17.3287 7.70817 16.6364 7.70817H2.6665C2.11422 7.70817 1.6665 7.26046 1.6665 6.70817V5.34984C1.6665 3.3165 3.3165 1.6665 5.34984 1.6665H7.28317C8.6415 1.6665 9.0665 2.10817 9.60817 2.83317L10.7748 4.38317C11.0332 4.72484 11.0665 4.7665 11.5498 4.7665H13.8748C15.2937 4.7665 16.5586 5.43201 17.3727 6.46938Z" fill="#FFA800"/>
<path d="M18.3199 9.95512C18.318 9.40416 17.8708 8.95851 17.3199 8.95851L2.6665 8.9585C2.11422 8.9585 1.6665 9.40621 1.6665 9.9585V13.8752C1.6665 16.3335 3.6665 18.3335 6.12484 18.3335H13.8748C16.3332 18.3335 18.3332 16.3335 18.3332 13.8752L18.3199 9.95512ZM12.1165 14.1418L10.3248 15.7085C10.2332 15.7918 10.1165 15.8335 9.99984 15.8335C9.88317 15.8335 9.7665 15.7918 9.67484 15.7085L7.88317 14.1418C7.3165 13.6418 7.2415 12.7918 7.7165 12.2002C8.1915 11.6002 9.04984 11.4918 9.6665 11.9502L9.99984 12.2002L10.3332 11.9502C10.9498 11.4918 11.8082 11.6002 12.2832 12.2002C12.7582 12.7918 12.6832 13.6418 12.1165 14.1418Z" fill="#FFA800"/>
</svg>
