<svg width="70" height="70" viewBox="0 0 70 70" fill="none" xmlns="http://www.w3.org/2000/svg">
<defs>
<filter id="filter0_d_16_4715" x="0" y="0" width="70" height="70" filterUnits="userSpaceOnUse" color-interpolation-filters="sRGB">
<feFlood flood-opacity="0" result="BackgroundImageFix"/>
<feColorMatrix in="SourceAlpha" type="matrix" values="0 0 0 0 0 0 0 0 0 0 0 0 0 0 0 0 0 0 127 0" result="hardAlpha"/>
<feOffset/>
<feGaussianBlur stdDeviation="7.5"/>
<feComposite in2="hardAlpha" operator="out"/>
<feColorMatrix type="matrix" values="0 0 0 0 1 0 0 0 0 1 0 0 0 0 1 0 0 0 1 0"/>
<feBlend mode="normal" in2="BackgroundImageFix" result="effect1_dropShadow_16_4715"/>
<feBlend mode="normal" in="SourceGraphic" in2="effect1_dropShadow_16_4715" result="shape"/>
</filter>
<linearGradient id="paint0_linear_16_4715" x1="26" y1="35.5885" x2="43.2501" y2="35.5735" gradientUnits="userSpaceOnUse">
<stop stop-color="#0086DA"/>
<stop offset="1" stop-color="#00A9E9"/>
<stop offset="1" stop-color="#00A9E9"/>
</linearGradient>
<linearGradient id="paint1_linear_16_4715" x1="26" y1="37.9472" x2="45.2084" y2="37.9274" gradientUnits="userSpaceOnUse">
<stop stop-color="#0086DA"/>
<stop offset="1" stop-color="#00A9E9"/>
<stop offset="1" stop-color="#00A9E9"/>
</linearGradient>
</defs>
<g filter="url(#filter0_d_16_4715)">
<rect x="15" y="15" width="40" height="40" rx="20" fill="white"/>
<path d="M35.5833 42.25H26.575C26.4225 42.25 26.2762 42.1964 26.1684 42.1011C26.0606 42.0058 26 41.8765 26 41.7417V27.5083C26 27.3735 26.0606 27.2442 26.1684 27.1489C26.2762 27.0536 26.4225 27 26.575 27H42.675C42.8275 27 42.9738 27.0536 43.0816 27.1489C43.1894 27.2442 43.25 27.3735 43.25 27.5083V35.4722" stroke="url(#paint0_linear_16_4715)" stroke-width="2" stroke-linecap="round" stroke-linejoin="round"/>
<path d="M26 38.4583L32.7083 35.5833L37.9792 37.9792M39.4583 41.3333H42.3333M42.3333 41.3333H45.2083M42.3333 41.3333V38.4583M42.3333 41.3333V44.2083M38.4583 33.7083C37.95 33.7083 37.4625 33.5064 37.103 33.147C36.7436 32.7875 36.5417 32.3 36.5417 31.7917C36.5417 31.2833 36.7436 30.7958 37.103 30.4364C37.4625 30.0769 37.95 29.875 38.4583 29.875C38.9667 29.875 39.4542 30.0769 39.8136 30.4364C40.1731 30.7958 40.375 31.2833 40.375 31.7917C40.375 32.3 40.1731 32.7875 39.8136 33.147C39.4542 33.5064 38.9667 33.7083 38.4583 33.7083Z" stroke="url(#paint1_linear_16_4715)" stroke-width="2" stroke-linecap="round" stroke-linejoin="round"/>
</g>

</svg>
