<svg width="24" height="25" viewBox="0 0 24 25" fill="none" xmlns="http://www.w3.org/2000/svg">
<path fill-rule="evenodd" clip-rule="evenodd" d="M12 23.5C18.0751 23.5 23 18.5751 23 12.5C23 6.42487 18.0751 1.5 12 1.5C5.92487 1.5 1 6.42487 1 12.5C1 18.5751 5.92487 23.5 12 23.5ZM2.04762 12.5C2.04762 17.9965 6.50345 22.4524 12 22.4524C14.4931 22.4524 16.772 21.5357 18.5182 20.021L5.48178 4.97898C3.37807 6.80378 2.04762 9.49652 2.04762 12.5ZM12 2.54762C17.4965 2.54762 21.9524 7.00345 21.9524 12.5C21.9524 15.126 20.9353 17.5145 19.2736 19.293L6.30919 4.3341C7.92195 3.20808 9.88384 2.54762 12 2.54762Z" fill="#474747"/>
</svg>
