<svg width="22" height="22" viewBox="0 0 22 22" fill="none" xmlns="http://www.w3.org/2000/svg">
<rect width="22" height="22" rx="11" fill="#00A9E9" fill-opacity="0.15"/>
<path d="M10.4202 13.5869C10.2535 13.5869 10.0868 13.5002 9.9935 13.3469C9.8535 13.1136 9.92684 12.8002 10.1668 12.6602L10.7602 12.3069V11.5869C10.7602 11.3136 10.9868 11.0869 11.2602 11.0869C11.5335 11.0869 11.7602 11.3136 11.7602 11.5869V12.5869C11.7602 12.7602 11.6668 12.9269 11.5202 13.0136L10.6868 13.5136C10.5935 13.5602 10.5068 13.5869 10.4202 13.5869Z" fill="url(#paint0_linear_430_9730)"/>
<path d="M17.0597 7.65302C16.493 7.02635 15.553 6.71302 14.173 6.71302H14.013V6.68635C14.013 5.56635 14.013 4.17969 11.5064 4.17969H10.493C7.98637 4.17969 7.98637 5.56635 7.98637 6.68635V6.71302H7.82637C6.44637 6.71302 5.4997 7.02635 4.9397 7.65302C4.2797 8.39302 4.2997 9.37302 4.36637 10.0464L4.37303 10.093L4.41212 10.549C4.42531 10.7029 4.50874 10.8424 4.63865 10.9261C4.80737 11.0347 4.98352 11.1455 5.15303 11.2397C5.24637 11.2997 5.34637 11.353 5.44637 11.4064C6.1997 11.8197 7.00637 12.1464 7.83303 12.373C7.85303 14.0997 9.26637 15.4997 10.9997 15.4997C12.7464 15.4997 14.1664 14.0797 14.1664 12.333V12.3064C15.0064 12.053 15.813 11.6997 16.5664 11.2597C16.6064 11.2397 16.633 11.2197 16.6664 11.1997C16.9084 11.0682 17.1587 10.8993 17.391 10.7356C17.5072 10.6538 17.582 10.5257 17.5977 10.3845L17.5997 10.3664L17.633 10.053C17.6397 10.013 17.6397 9.97969 17.6464 9.93302C17.6997 9.26635 17.6864 8.34635 17.0597 7.65302ZM8.9397 6.68635C8.9397 5.55302 8.9397 5.12635 10.493 5.12635H11.5064C13.0597 5.12635 13.0597 5.55302 13.0597 6.68635V6.71302H8.9397V6.68635ZM10.9997 14.4997C9.8997 14.4997 8.98637 13.673 8.85303 12.6064C8.8397 12.5197 8.83303 12.4264 8.83303 12.333C8.83303 11.1397 9.80637 10.1664 10.9997 10.1664C12.193 10.1664 13.1664 11.1397 13.1664 12.333C13.1664 12.413 13.1597 12.4864 13.153 12.5597V12.5664C13.033 13.653 12.113 14.4997 10.9997 14.4997Z" fill="url(#paint1_linear_430_9730)"/>
<path d="M17.0264 12.1531C17.1922 12.061 17.4073 12.1944 17.39 12.3833L17.1531 14.9731C17.0131 16.3064 16.4664 17.6664 13.5331 17.6664H8.45307C5.51974 17.6664 4.97307 16.3064 4.83974 14.9798L4.60916 12.5109C4.59126 12.3192 4.79626 12.1897 4.96641 12.2798C5.48641 12.5664 6.02641 12.8198 6.57974 13.0198C6.78641 13.0931 6.93307 13.2664 6.99307 13.4798C7.49307 15.2131 9.10641 16.4998 10.9997 16.4998C12.9264 16.4998 14.5531 15.1864 15.0264 13.3864C15.0797 13.1731 15.2264 12.9998 15.4331 12.9198C15.9931 12.6998 16.5264 12.4398 17.0264 12.1531Z" fill="url(#paint2_linear_430_9730)"/>
<defs>
<linearGradient id="paint0_linear_430_9730" x1="9.92285" y1="12.4949" x2="11.7602" y2="12.4938" gradientUnits="userSpaceOnUse">
<stop stop-color="#0086DA"/>
<stop offset="1" stop-color="#00A9E9"/>
<stop offset="1" stop-color="#00A9E9"/>
</linearGradient>
<linearGradient id="paint1_linear_430_9730" x1="4.33496" y1="10.5549" x2="17.6662" y2="10.5428" gradientUnits="userSpaceOnUse">
<stop stop-color="#0086DA"/>
<stop offset="1" stop-color="#00A9E9"/>
<stop offset="1" stop-color="#00A9E9"/>
</linearGradient>
<linearGradient id="paint2_linear_430_9730" x1="4.56641" y1="15.1532" x2="17.4331" y2="15.1311" gradientUnits="userSpaceOnUse">
<stop stop-color="#0086DA"/>
<stop offset="1" stop-color="#00A9E9"/>
<stop offset="1" stop-color="#00A9E9"/>
</linearGradient>
</defs>
</svg>
