<svg width="16" height="16" viewBox="0 0 16 16" fill="none" xmlns="http://www.w3.org/2000/svg">
<g id="icons8_Camera 1">
<path id="Vector" d="M6.11031 1.6001C5.76406 1.6001 5.47406 1.8001 5.30031 2.0601C5.30031 2.06385 5.30031 2.06635 5.30031 2.0701L4.79031 2.8801H1.92031C1.04156 2.8801 0.320312 3.60135 0.320312 4.4801V12.1601C0.320312 13.0388 1.04156 13.7601 1.92031 13.7601H14.0803C14.9591 13.7601 15.6803 13.0388 15.6803 12.1601V4.4801C15.6803 3.60135 14.9591 2.8801 14.0803 2.8801H11.1803L10.6703 2.0701C10.6703 2.06635 10.6703 2.06385 10.6703 2.0601C10.4966 1.8001 10.2066 1.6001 9.86031 1.6001H6.11031ZM6.11031 2.2401H9.86031C9.96281 2.2401 10.0478 2.29635 10.1303 2.4201L10.7403 3.3701C10.7991 3.4626 10.9003 3.5201 11.0103 3.5201H14.0803C14.6103 3.5201 15.0403 3.9501 15.0403 4.4801V12.1601C15.0403 12.6901 14.6103 13.1201 14.0803 13.1201H1.92031C1.39031 13.1201 0.960313 12.6901 0.960313 12.1601V4.4801C0.960313 3.9501 1.39031 3.5201 1.92031 3.5201H4.96031C5.07031 3.5201 5.17156 3.4626 5.23031 3.3701L5.83031 2.4201L5.84031 2.4101C5.92031 2.2976 6.01281 2.2401 6.11031 2.2401ZM3.20031 4.1601C2.67406 4.1601 2.24031 4.59385 2.24031 5.1201C2.24031 5.64635 2.67406 6.0801 3.20031 6.0801C3.72656 6.0801 4.16031 5.64635 4.16031 5.1201C4.16031 4.59385 3.72656 4.1601 3.20031 4.1601ZM3.20031 4.8001C3.37781 4.8001 3.52031 4.9426 3.52031 5.1201C3.52031 5.2976 3.37781 5.4401 3.20031 5.4401C3.02281 5.4401 2.88031 5.2976 2.88031 5.1201C2.88031 4.9426 3.02281 4.8001 3.20031 4.8001ZM8.00031 4.8001C6.06031 4.8001 4.48031 6.3801 4.48031 8.3201C4.48031 10.2601 6.06031 11.8401 8.00031 11.8401C9.94031 11.8401 11.5203 10.2601 11.5203 8.3201C11.5203 6.3801 9.94031 4.8001 8.00031 4.8001ZM8.00031 5.4401C9.59406 5.4401 10.8803 6.72635 10.8803 8.3201C10.8803 9.91385 9.59406 11.2001 8.00031 11.2001C6.40656 11.2001 5.12031 9.91385 5.12031 8.3201C5.12031 6.72635 6.40656 5.4401 8.00031 5.4401Z" fill="#3B86D4"/>
</g>
</svg>
