<svg width="24" height="25" viewBox="0 0 24 25" fill="none" xmlns="http://www.w3.org/2000/svg">
<path d="M5.27997 1.93994C5.15267 1.93995 5.03059 1.99053 4.94058 2.08054C4.85056 2.17056 4.79999 2.29264 4.79997 2.41994V9.13994C4.79999 9.26724 4.85056 9.38932 4.94058 9.47934C5.03059 9.56935 5.15267 9.61993 5.27997 9.61994H7.19997V16.6043L5.31091 14.7153C4.70412 14.1085 3.70662 13.9845 3.01404 14.5512C2.24267 15.1821 2.19508 16.3507 2.88747 17.0431L7.93779 22.0784C8.56726 22.7067 9.42141 23.0599 10.3106 23.0599H14.4C16.2501 23.0599 17.76 21.55 17.76 19.6999V15.2084C17.76 14.3503 17.1421 13.5574 16.2515 13.4684C15.8522 13.4284 15.4928 13.5607 15.1837 13.7637C14.9911 13.1291 14.5552 12.5792 13.8515 12.5084C13.392 12.4623 12.9708 12.6215 12.6403 12.8881C12.38 12.4443 12.0032 12.0839 11.4515 12.0284C11.1264 11.9958 10.8311 12.0845 10.56 12.2187V9.61994H12C12.1273 9.61993 12.2494 9.56935 12.3394 9.47934C12.4294 9.38932 12.48 9.26724 12.48 9.13994V2.41994C12.48 2.29264 12.4294 2.17056 12.3394 2.08054C12.2494 1.99053 12.1273 1.93995 12 1.93994H5.27997ZM14.4 1.93994C14.2727 1.93995 14.1506 1.99053 14.0606 2.08054C13.9706 2.17056 13.92 2.29264 13.92 2.41994V9.13994C13.92 9.26724 13.9706 9.38932 14.0606 9.47934C14.1506 9.56935 14.2727 9.61993 14.4 9.61994H21.12C21.2473 9.61993 21.3694 9.56935 21.4594 9.47934C21.5494 9.38932 21.6 9.26724 21.6 9.13994V2.41994C21.6 2.29264 21.5494 2.17056 21.4594 2.08054C21.3694 1.99053 21.2473 1.93995 21.12 1.93994H14.4ZM5.75997 2.89994H11.52V8.65994H10.5328C10.4054 7.92823 9.83363 7.30713 9.05154 7.22838C8.88961 7.21215 8.73357 7.22733 8.58185 7.25557L10.9172 4.6615L10.2028 4.01838L8.35685 6.07057L7.03216 4.93525L6.40779 5.66463L8.33341 7.31463C7.75245 7.51858 7.31844 8.03606 7.22622 8.65994H5.75997V2.89994ZM14.88 2.89994H20.64V8.65994H14.88V2.89994ZM8.79372 8.18369C8.84593 8.17804 8.90024 8.17811 8.95591 8.18369C9.3148 8.21983 9.59997 8.57075 9.59997 8.96838V9.05932C9.5914 9.11115 9.5914 9.16404 9.59997 9.21588V13.6999C9.60176 13.8261 9.65311 13.9464 9.74294 14.035C9.83276 14.1236 9.95383 14.1732 10.08 14.1732C10.2061 14.1732 10.3272 14.1236 10.417 14.035C10.5068 13.9464 10.5582 13.8261 10.56 13.6999C10.56 13.2715 10.9105 12.9391 11.3559 12.9837C11.7148 13.0198 12 13.3708 12 13.7684V14.1799C12.0018 14.3061 12.0531 14.4264 12.1429 14.515C12.2328 14.6036 12.3538 14.6532 12.48 14.6532C12.6061 14.6532 12.7272 14.6036 12.817 14.515C12.9068 14.4264 12.9582 14.3061 12.96 14.1799C12.96 13.7515 13.3105 13.4191 13.7559 13.4637C14.1148 13.4998 14.4 13.8508 14.4 14.2484V15.1399C14.4018 15.2661 14.4531 15.3864 14.5429 15.475C14.6328 15.5636 14.7538 15.6132 14.88 15.6132C15.0061 15.6132 15.1272 15.5636 15.217 15.475C15.3068 15.3864 15.3582 15.2661 15.36 15.1399C15.36 14.7115 15.7105 14.3791 16.1559 14.4237C16.5143 14.4595 16.8 14.8108 16.8 15.2084V19.6999C16.8 21.0313 15.7313 22.0999 14.4 22.0999H10.3106C9.67531 22.0999 9.0661 21.8484 8.61654 21.3996L8.6156 21.3987L3.56529 16.3634C3.26314 16.0602 3.27676 15.5774 3.62247 15.2946C3.90141 15.0664 4.35096 15.1128 4.63216 15.394L7.3406 18.1024C7.40774 18.1695 7.49326 18.2152 7.58635 18.2337C7.67944 18.2522 7.77593 18.2427 7.86362 18.2064C7.95131 18.1701 8.02627 18.1086 8.07901 18.0297C8.13176 17.9508 8.15994 17.858 8.15997 17.7631V8.89994C8.15997 8.52507 8.42826 8.22329 8.79372 8.18369Z" fill="#474747"/>
</svg>
