<svg width="40" height="40" viewBox="0 0 40 40" fill="none" xmlns="http://www.w3.org/2000/svg">
<defs>
<linearGradient id="paint0_linear_26_46" x1="-3.00031e-07" y1="22.5271" x2="40.0002" y2="22.4964" gradientUnits="userSpaceOnUse">
<stop stop-color="#0086DA"/>
<stop offset="1" stop-color="#00A9E9"/>
<stop offset="1" stop-color="#00A9E9"/>
</linearGradient>
</defs>
<rect width="40" height="40" rx="8" fill="url(#paint0_linear_26_46)"/>
<path d="M16.1091 16.7849C16.1217 16.0288 16.3742 15.2951 16.832 14.6846C17.2898 14.074 17.9304 13.6166 18.6658 13.3751C20.2541 12.8468 22.0039 13.5213 22.9127 14.8524C23.5441 15.7724 23.5016 16.8042 23.4959 17.8525L23.4832 20.327C23.4832 20.9381 24.4515 20.9422 24.4558 20.327C24.4685 17.9601 24.9173 15.291 22.9948 13.4772C21.6867 12.2426 19.6086 11.9102 17.9523 12.6247C17.1249 12.9827 16.42 13.5639 15.9206 14.2995C15.4212 15.0352 15.1481 15.8947 15.1337 16.7766C15.1167 17.3876 16.0893 17.3918 16.1063 16.7766L16.1091 16.7849Z" fill="white"/>
<path d="M15.3951 19.0454C16.1836 19.0082 16.8178 18.6592 17.1759 17.9612C17.4477 17.4343 17.4053 16.9019 17.5185 16.346C17.762 15.1625 19.0588 14.2646 20.272 14.4839C21.345 14.6784 22.0854 15.6536 22.0812 16.6908C22.0746 17.8743 22.067 19.0578 22.0585 20.2413C22.0486 21.5241 22.7763 22.3779 24.1565 22.4317C24.7836 22.4565 24.7865 21.5089 24.1565 21.4855C22.663 21.4262 23.024 19.9503 23.0367 18.9226C23.0452 17.7957 23.2802 16.3791 22.7536 15.3363C21.7386 13.3073 19.2003 12.9832 17.5525 14.4632C16.8878 15.0855 16.5035 15.9391 16.4837 16.8371C16.4525 17.4826 16.1057 18.0661 15.3908 18.1005C14.7665 18.1323 14.7594 19.0799 15.3908 19.0482L15.3951 19.0454Z" fill="white"/>
<path d="M15.5501 20.611C16.1277 20.653 16.705 20.527 17.209 20.249C17.713 19.9711 18.1211 19.5537 18.3814 19.0496C18.5935 18.5924 18.7137 18.0998 18.7353 17.5985C18.7438 17.4702 18.7467 17.3406 18.7438 17.2109C18.7438 17.3958 18.7353 17.2758 18.7438 17.2192C18.778 17.0509 18.8253 16.8853 18.8854 16.724C19.2351 15.724 20.6309 15.4454 20.7102 16.7157C20.7711 17.702 20.7102 18.6937 20.3846 19.6331C19.698 21.5848 17.7246 22.2635 15.7597 22.2731C15.1339 22.2731 15.1283 23.2235 15.7597 23.2208C17.9751 23.2097 20.1397 22.4483 21.1207 20.3834C21.6615 19.2427 21.6955 18.0509 21.687 16.8233C21.687 15.6826 20.9919 14.8329 19.7603 14.8922C18.6929 14.9405 18.0742 15.924 17.8407 16.8316C17.6071 17.7392 17.8237 18.7268 16.9007 19.3379C16.5039 19.5899 16.032 19.7055 15.56 19.6662C14.9343 19.6138 14.9343 20.5614 15.56 20.6138L15.5501 20.611Z" fill="white"/>
<path d="M19.3629 17.1021C19.4126 17.7478 19.316 18.3963 19.0797 19.0015C18.5206 20.4898 16.9902 21.0195 15.4797 21.0305C14.8526 21.0305 14.8469 21.9836 15.4797 21.9781C17.2946 21.9643 19.0302 21.3133 19.8527 19.647C20.2429 18.8569 20.4129 17.9806 20.3453 17.1062C20.2887 16.5035 19.3161 16.4938 19.3728 17.1062L19.3629 17.1021Z" fill="white"/>
<path d="M16.3614 24.4711C17.5121 24.5455 18.6596 24.2868 19.6599 23.7276C20.0232 23.5163 20.3528 23.2542 20.6381 22.9497C20.7966 22.7855 20.9523 22.6255 21.125 22.4738C21.4011 22.2283 21.445 22.4655 21.5936 22.6862C22.0679 23.3938 22.7446 23.9994 23.6576 23.9662C24.2834 23.9428 24.2904 23.0007 23.6576 23.0186C22.6285 23.0559 22.5081 21.8903 21.7762 21.4669C21.0444 21.0434 20.2431 21.9717 19.8113 22.4159C18.9761 23.2793 17.5463 23.6186 16.36 23.5193C15.7343 23.4683 15.7343 24.4173 16.36 24.467L16.3614 24.4711Z" fill="white"/>
<path d="M22.8912 24.0379C22.1083 23.8751 21.7757 22.9151 20.8527 23.3482C19.9297 23.7813 18.9203 24.9814 17.7552 24.5772C17.1621 24.3717 16.9058 25.2862 17.4919 25.489C18.4829 25.8338 19.6805 25.2738 20.4648 24.7248C20.8144 24.4806 21.1868 24.013 21.5789 24.34C21.8804 24.591 22.2273 24.8641 22.6251 24.9482C23.2366 25.0765 23.5013 24.1634 22.8884 24.0351L22.8912 24.0379Z" fill="white"/>
<path d="M20.0414 26.1564C20.7127 26.1213 21.3661 25.9322 21.9483 25.6047C22.4777 25.2805 21.995 24.457 21.4627 24.7839C21.1681 24.9534 20.8458 25.0724 20.51 25.1357C20.3577 25.1717 20.203 25.1971 20.0471 25.2115C19.427 25.2626 19.4157 26.2102 20.0471 26.1592L20.0414 26.1564Z" fill="white"/>
<path d="M10.8696 13.2167H10.0797L10.0867 11.9215C10.088 11.6678 10.1406 11.4168 10.2415 11.1829C10.3424 10.949 10.4896 10.7367 10.6747 10.5583C10.8598 10.3799 11.0792 10.2387 11.3203 10.1429C11.5614 10.0471 11.8196 9.99858 12.08 10H13.3215V10.7697L12.08 10.7628C11.7638 10.7617 11.4601 10.8827 11.2354 11.0994C11.0106 11.3161 10.8832 11.6107 10.8809 11.9187L10.8696 13.2167Z" fill="white"/>
<path d="M28.799 13.236H29.5889L29.596 11.9407C29.5973 11.6872 29.5473 11.4358 29.4489 11.201C29.3505 10.9662 29.2056 10.7526 29.0225 10.5724C28.8394 10.3922 28.6216 10.2489 28.3817 10.1507C28.1417 10.0525 27.8843 10.0013 27.624 10H26.381V10.7697L27.6226 10.7766C27.9365 10.7813 28.2359 10.9062 28.456 11.1243C28.6762 11.3424 28.7994 11.6362 28.799 11.9421V13.236Z" fill="white"/>
<path d="M28.7184 26.7847H29.5069L29.4998 28.0785C29.4985 28.3321 29.446 28.583 29.3452 28.8168C29.2444 29.0506 29.0973 29.2628 28.9123 29.4412C28.7274 29.6196 28.5082 29.7608 28.2672 29.8567C28.0263 29.9526 27.7683 30.0013 27.508 30H26.2665V29.2303H27.5094C27.8256 29.2314 28.1293 29.1104 28.354 28.8937C28.5788 28.6771 28.7062 28.3824 28.7085 28.0744L28.7184 26.7847Z" fill="white"/>
<path d="M10.79 26.6953H10V27.9905C9.99872 28.2441 10.0487 28.4955 10.1471 28.7302C10.2455 28.965 10.3904 29.1786 10.5735 29.3588C10.7566 29.539 10.9744 29.6823 11.2143 29.7806C11.4543 29.8788 11.7118 29.93 11.972 29.9312H13.2136V29.1616H11.972C11.6559 29.1594 11.3535 29.0352 11.1312 28.8162C10.9088 28.5972 10.7846 28.3013 10.7857 27.9933L10.79 26.6953Z" fill="white"/>
<path opacity="0.1" d="M30 19.1335H10.4641V25.7544H30V19.1335Z" fill="white"/>
</svg>
