<svg width="54" height="54" viewBox="0 0 54 54" fill="none" xmlns="http://www.w3.org/2000/svg">
<defs>
<filter id="filter0_d_7_69" x="0" y="0" width="54" height="54" filterUnits="userSpaceOnUse" color-interpolation-filters="sRGB">
<feFlood flood-opacity="0" result="BackgroundImageFix"/>
<feColorMatrix in="SourceAlpha" type="matrix" values="0 0 0 0 0 0 0 0 0 0 0 0 0 0 0 0 0 0 127 0" result="hardAlpha"/>
<feOffset/>
<feGaussianBlur stdDeviation="3.5"/>
<feComposite in2="hardAlpha" operator="out"/>
<feColorMatrix type="matrix" values="0 0 0 0 0 0 0 0 0 0 0 0 0 0 0 0 0 0 0.15 0"/>
<feBlend mode="normal" in2="BackgroundImageFix" result="effect1_dropShadow_7_69"/>
<feBlend mode="normal" in="SourceGraphic" in2="effect1_dropShadow_7_69" result="shape"/>
</filter>
<linearGradient id="paint0_linear_7_69" x1="16" y1="26.1362" x2="38.9075" y2="26.1201" gradientUnits="userSpaceOnUse">
<stop stop-color="#0086DA"/>
<stop offset="1" stop-color="#00A9E9"/>
<stop offset="1" stop-color="#00A9E9"/>
</linearGradient>
<linearGradient id="paint1_linear_7_69" x1="16" y1="26.1362" x2="38.9075" y2="26.1201" gradientUnits="userSpaceOnUse">
<stop stop-color="#0086DA"/>
<stop offset="1" stop-color="#00A9E9"/>
<stop offset="1" stop-color="#00A9E9"/>
</linearGradient>
<linearGradient id="paint2_linear_7_69" x1="16.0955" y1="40.8264" x2="38.6234" y2="40.6438" gradientUnits="userSpaceOnUse">
<stop stop-color="#0086DA"/>
<stop offset="1" stop-color="#00A9E9"/>
<stop offset="1" stop-color="#00A9E9"/>
</linearGradient>
<linearGradient id="paint3_linear_7_69" x1="16.0955" y1="40.8264" x2="38.6234" y2="40.6438" gradientUnits="userSpaceOnUse">
<stop stop-color="#0086DA"/>
<stop offset="1" stop-color="#00A9E9"/>
<stop offset="1" stop-color="#00A9E9"/>
</linearGradient>
<linearGradient id="paint4_linear_7_69" x1="16.0955" y1="40.8264" x2="38.6234" y2="40.6438" gradientUnits="userSpaceOnUse">
<stop stop-color="#0086DA"/>
<stop offset="1" stop-color="#00A9E9"/>
<stop offset="1" stop-color="#00A9E9"/>
</linearGradient>
<linearGradient id="paint5_linear_7_69" x1="16.0955" y1="40.8264" x2="38.6234" y2="40.6438" gradientUnits="userSpaceOnUse">
<stop stop-color="#0086DA"/>
<stop offset="1" stop-color="#00A9E9"/>
<stop offset="1" stop-color="#00A9E9"/>
</linearGradient>
<linearGradient id="paint6_linear_7_69" x1="16.0955" y1="40.8264" x2="38.6234" y2="40.6438" gradientUnits="userSpaceOnUse">
<stop stop-color="#0086DA"/>
<stop offset="1" stop-color="#00A9E9"/>
<stop offset="1" stop-color="#00A9E9"/>
</linearGradient>
<linearGradient id="paint7_linear_7_69" x1="16.0955" y1="40.8264" x2="38.6234" y2="40.6438" gradientUnits="userSpaceOnUse">
<stop stop-color="#0086DA"/>
<stop offset="1" stop-color="#00A9E9"/>
<stop offset="1" stop-color="#00A9E9"/>
</linearGradient>
<linearGradient id="paint8_linear_7_69" x1="16.0955" y1="40.8264" x2="38.6234" y2="40.6438" gradientUnits="userSpaceOnUse">
<stop stop-color="#0086DA"/>
<stop offset="1" stop-color="#00A9E9"/>
<stop offset="1" stop-color="#00A9E9"/>
</linearGradient>
<linearGradient id="paint9_linear_7_69" x1="16.0955" y1="40.8264" x2="38.6234" y2="40.6438" gradientUnits="userSpaceOnUse">
<stop stop-color="#0086DA"/>
<stop offset="1" stop-color="#00A9E9"/>
<stop offset="1" stop-color="#00A9E9"/>
</linearGradient>
<linearGradient id="paint10_linear_7_69" x1="16.0955" y1="40.8264" x2="38.6234" y2="40.6438" gradientUnits="userSpaceOnUse">
<stop stop-color="#0086DA"/>
<stop offset="1" stop-color="#00A9E9"/>
<stop offset="1" stop-color="#00A9E9"/>
</linearGradient>
<linearGradient id="paint11_linear_7_69" x1="16.0955" y1="40.8264" x2="38.6234" y2="40.6438" gradientUnits="userSpaceOnUse">
<stop stop-color="#0086DA"/>
<stop offset="1" stop-color="#00A9E9"/>
<stop offset="1" stop-color="#00A9E9"/>
</linearGradient>
<linearGradient id="paint12_linear_7_69" x1="16.0955" y1="40.8264" x2="38.6234" y2="40.6438" gradientUnits="userSpaceOnUse">
<stop stop-color="#0086DA"/>
<stop offset="1" stop-color="#00A9E9"/>
<stop offset="1" stop-color="#00A9E9"/>
</linearGradient>
<linearGradient id="paint13_linear_7_69" x1="16.0955" y1="40.8264" x2="38.6234" y2="40.6438" gradientUnits="userSpaceOnUse">
<stop stop-color="#0086DA"/>
<stop offset="1" stop-color="#00A9E9"/>
<stop offset="1" stop-color="#00A9E9"/>
</linearGradient>
<linearGradient id="paint14_linear_7_69" x1="16.0955" y1="40.8264" x2="38.6234" y2="40.6438" gradientUnits="userSpaceOnUse">
<stop stop-color="#0086DA"/>
<stop offset="1" stop-color="#00A9E9"/>
<stop offset="1" stop-color="#00A9E9"/>
</linearGradient>
<clipPath id="clip0_7_69">
<rect x="7" y="7" width="40" height="40" rx="8" fill="white"/>
</clipPath>
</defs>
<g filter="url(#filter0_d_7_69)">
<g clip-path="url(#clip0_7_69)">
<rect x="7" y="7" width="40" height="40" rx="8" fill="white"/>
<path d="M25.5957 25.1662C25.5957 25.7734 25.2679 26.1938 24.6122 26.4273C24.4146 26.4974 24.2035 26.5324 23.9789 26.5324C23.7633 26.5324 23.5567 26.4974 23.3591 26.4273C23.1705 26.3573 23.0043 26.26 22.8606 26.1354C22.5552 25.8707 22.4025 25.5476 22.4025 25.1662V24.4655C22.4025 23.5079 22.7977 22.6944 23.5882 22.0249C24.3786 21.3476 25.3128 21.0089 26.3906 21.0089H29.1931C29.5793 21.0089 29.9341 21.1023 30.2575 21.2892C30.5899 21.4682 30.7964 21.729 30.8773 22.0716L32.1842 27.5017C32.2471 27.7742 32.3279 28.1167 32.4267 28.5293C32.5345 28.9341 32.6423 29.3896 32.7501 29.8956C32.9926 30.9699 33.1857 32.0871 33.3294 33.2471C33.563 31.3397 33.9223 29.4363 34.4073 27.5367L35.7681 22.0716C35.84 21.7602 36.0196 21.5189 36.3071 21.3476C36.819 21.0517 37.2726 20.9466 37.6679 21.0323C38.0631 21.1179 38.3685 21.2853 38.5841 21.5344C38.7996 21.7758 38.9074 22.0132 38.9074 22.2468C38.9074 22.4803 38.8895 22.6555 38.8535 22.7722L35.0001 35.968C34.9013 36.2949 34.7037 36.5674 34.4073 36.7854C34.1199 36.9956 33.8145 37.1007 33.4911 37.1007C33.1767 37.1007 32.9252 37.0696 32.7366 37.0073C32.557 36.945 32.3908 36.8632 32.2381 36.762C31.9237 36.5363 31.7216 36.2599 31.6318 35.9329L27.8727 23.1109H27.1317C26.7005 23.1109 26.3727 23.2121 26.1481 23.4145C25.7799 23.7571 25.5957 24.1191 25.5957 24.5005V25.1662Z" fill="url(#paint0_linear_7_69)"/>
<path d="M18.0563 32.4691C18.1427 32.416 18.2492 32.3895 18.3758 32.3895C18.5055 32.3895 18.629 32.4284 18.7463 32.5062C18.8668 32.5805 18.9717 32.6866 19.0613 32.8245C19.2465 33.1181 19.3391 33.4965 19.3391 33.9599V35.4401C19.3391 35.8964 19.2048 36.2642 18.9362 36.5436C18.6429 36.8478 18.2292 36.9999 17.695 36.9999H16.5928C16.4847 36.9999 16.3998 36.9645 16.3381 36.8938C16.2362 36.7771 16.1852 36.6533 16.1852 36.5224C16.1852 36.388 16.2238 36.2748 16.301 36.1829C16.3813 36.0874 16.4786 36.0396 16.5928 36.0396H17.695C17.8463 36.0396 17.9621 35.9954 18.0424 35.907C18.1751 35.7513 18.2415 35.5851 18.2415 35.4083V33.9758C18.2415 33.7494 18.206 33.585 18.135 33.4824C18.0146 33.3197 17.905 33.2383 17.8062 33.2383C17.7074 33.2383 17.6333 33.2543 17.5839 33.2861C17.5376 33.3144 17.4928 33.3462 17.4496 33.3816C17.3384 33.4771 17.2443 33.5248 17.1671 33.5248C17.093 33.5248 17.0297 33.5125 16.9772 33.4877C16.9247 33.4594 16.8784 33.4223 16.8382 33.3763C16.7549 33.2808 16.7132 33.1888 16.7132 33.1004C16.7132 32.9589 16.7394 32.844 16.7919 32.7555L18.0192 30.7501H16.4075C16.2995 30.7501 16.2146 30.7147 16.1528 30.644C16.0509 30.5273 16 30.4035 16 30.2726C16 30.1382 16.0386 30.025 16.1158 29.9331C16.196 29.8376 16.2933 29.7898 16.4075 29.7898H18.8529C18.9918 29.7898 19.1076 29.8393 19.2002 29.9384C19.2928 30.0374 19.3391 30.1382 19.3391 30.2408C19.3391 30.4212 19.3114 30.552 19.2558 30.6334L18.0563 32.4691Z" fill="#FFA800"/>
<path d="M23.1461 29.7898C23.2603 29.7898 23.3576 29.8376 23.4378 29.9331C23.5212 30.025 23.5629 30.1205 23.5629 30.2196C23.5629 30.3151 23.5521 30.3929 23.5305 30.453C23.5088 30.5096 23.4795 30.5591 23.4425 30.6015C23.3529 30.697 23.2541 30.7448 23.1461 30.7448H22.7848C22.5749 30.7448 22.3927 30.8456 22.2383 31.0472C22.0685 31.2665 21.9836 31.576 21.9836 31.9756V32.4425C21.9836 32.5097 21.999 32.5557 22.0299 32.5805C22.0639 32.6017 22.0963 32.6123 22.1272 32.6123C22.1581 32.6123 22.1858 32.5964 22.2105 32.5646L22.2893 32.4797C22.4992 32.2392 22.7401 32.1189 23.0118 32.1189C23.3421 32.1189 23.6185 32.2745 23.8408 32.5858C24.0631 32.89 24.1742 33.2578 24.1742 33.6893V35.5409C24.1742 36.0184 24.0322 36.3951 23.7481 36.671C23.4517 36.9574 23.0457 37.1007 22.5301 37.1007C22.0176 37.1007 21.6146 36.9574 21.3213 36.671C21.0311 36.3915 20.886 36.0113 20.886 35.5303V32.0287C20.886 31.4097 21.028 30.8933 21.3121 30.4795C21.6301 30.0197 22.0685 29.7898 22.6274 29.7898H23.1461ZM23.0766 33.7052C23.0766 33.5284 23.038 33.3957 22.9608 33.3073C22.825 33.1517 22.6999 33.0739 22.5857 33.0739C22.4745 33.0739 22.3865 33.088 22.3217 33.1163C22.2569 33.1411 22.1982 33.1782 22.1457 33.2277C22.0376 33.3338 21.9836 33.4718 21.9836 33.6416V35.5144C21.9836 35.6912 22.0222 35.8239 22.0994 35.9123C22.2352 36.0679 22.3788 36.1457 22.5301 36.1457C22.6814 36.1457 22.7972 36.1015 22.8774 36.0131C23.0102 35.8575 23.0766 35.6912 23.0766 35.5144V33.7052Z" fill="#FFA800"/>
<path d="M25.5821 30.4265C25.5821 30.147 25.6933 29.9507 25.9156 29.8376C25.9804 29.8057 26.0514 29.7898 26.1286 29.7898H28.4489C28.5631 29.7898 28.6588 29.8376 28.736 29.9331C28.8163 30.025 28.8564 30.1205 28.8564 30.2196C28.8564 30.3186 28.8456 30.3982 28.824 30.4583C28.8024 30.5149 28.7731 30.5644 28.736 30.6068C28.6527 30.7023 28.5569 30.7501 28.4489 30.7501H26.6381V32.4903C26.6381 32.5575 26.6535 32.6035 26.6844 32.6282C26.7183 32.6494 26.7507 32.66 26.7816 32.66C26.8125 32.66 26.8403 32.6459 26.865 32.6176C26.8897 32.5858 26.9314 32.5363 26.99 32.4691C27.1722 32.2674 27.4285 32.1666 27.7588 32.1666C28.0892 32.1666 28.3671 32.3205 28.5925 32.6282C28.8117 32.9359 28.9213 33.3055 28.9213 33.7371V35.4401C28.9213 35.8964 28.787 36.2642 28.5184 36.5436C28.225 36.8478 27.8113 36.9999 27.2772 36.9999H26.161C26.053 36.9999 25.9681 36.9645 25.9063 36.8938C25.8044 36.7771 25.7535 36.6533 25.7535 36.5224C25.7535 36.388 25.7921 36.2748 25.8693 36.1829C25.9495 36.0874 26.0468 36.0396 26.161 36.0396H27.2772C27.4285 36.0396 27.5427 35.9954 27.6199 35.907C27.7557 35.7513 27.8237 35.5851 27.8237 35.4083V33.753C27.8237 33.4842 27.7002 33.2896 27.4532 33.1694C27.3821 33.1375 27.2911 33.1216 27.1799 33.1216C27.0688 33.1216 26.9669 33.1605 26.8742 33.2383C26.7847 33.3126 26.7168 33.4046 26.6705 33.5142C26.6272 33.6239 26.5562 33.7123 26.4574 33.7795C26.3617 33.8432 26.2675 33.875 26.1749 33.875C26.0823 33.875 26.0005 33.8573 25.9295 33.8219C25.8615 33.7866 25.8013 33.7388 25.7488 33.6787C25.6377 33.5514 25.5821 33.3975 25.5821 33.2171V30.4265Z" fill="#FFA800"/>
<path d="M22.2516 16.5893C22.3954 16.4336 22.5256 16.274 22.6424 16.1105C22.7591 15.9393 22.8175 15.7446 22.8175 15.5266C22.8175 15.3087 22.7726 15.1179 22.6828 14.9544C22.593 14.7832 22.4672 14.6353 22.3055 14.5107C21.9552 14.2382 21.5106 14.102 20.9717 14.102C20.4327 14.102 20.0061 14.2382 19.6917 14.5107C19.3863 14.7754 19.2336 15.1024 19.2336 15.4916V24.9738C19.2336 25.3709 19.3818 25.6784 19.6782 25.8964C19.9836 26.1066 20.3609 26.2117 20.81 26.2117C21.2681 26.2117 21.6498 26.1066 21.9552 25.8964C22.2606 25.6784 22.4133 25.3709 22.4133 24.9738V24.2148C22.4133 23.8255 22.5256 23.5336 22.7502 23.339C23.1364 23.0042 23.4957 22.8368 23.828 22.8368C24.1604 22.8368 24.4253 22.8719 24.6229 22.9419C24.8206 23.012 24.9912 23.1093 25.1349 23.2339C25.4493 23.5064 25.6065 23.8333 25.6065 24.2148V24.9038C25.6065 26.5309 24.6903 27.5896 22.8579 28.0801C22.2651 28.2436 21.5869 28.3253 20.8235 28.3253C20.0689 28.3253 19.3953 28.2475 18.8025 28.0918C18.2096 27.9283 17.7111 27.6986 17.3069 27.4028C16.4626 26.78 16.0404 25.9353 16.0404 24.8687V15.4332C16.0404 14.3822 16.4536 13.5531 17.28 12.9459C18.1423 12.3153 19.3234 12 20.8235 12C22.3684 12 23.5765 12.3153 24.4478 12.9459C25.3101 13.5609 25.7412 14.3939 25.7412 15.4449C25.7412 17.0876 25.2562 18.1969 24.2861 18.773C23.9897 18.9521 23.6888 19.0416 23.3834 19.0416C23.087 19.0416 22.84 19.0066 22.6424 18.9365C22.4537 18.8664 22.2876 18.7691 22.1438 18.6446C21.8385 18.3954 21.6858 18.1113 21.6858 17.7921C21.6858 17.4729 21.7441 17.2316 21.8609 17.0681C21.9777 16.8968 22.1079 16.7372 22.2516 16.5893Z" fill="url(#paint1_linear_7_69)"/>
<path d="M16.9308 40.1859V40.3887H16.0955V40.1859H16.9308ZM16.3782 39.8104H16.6423V41.3482C16.6423 41.4006 16.6504 41.4401 16.6666 41.4668C16.6828 41.4934 16.7037 41.511 16.7294 41.5196C16.7552 41.5282 16.7828 41.5324 16.8123 41.5324C16.8342 41.5324 16.857 41.5305 16.8808 41.5267C16.9056 41.522 16.9241 41.5182 16.9365 41.5153L16.9379 41.7309C16.917 41.7376 16.8894 41.7438 16.8551 41.7495C16.8218 41.7561 16.7813 41.7595 16.7337 41.7595C16.669 41.7595 16.6095 41.7466 16.5552 41.7209C16.501 41.6952 16.4577 41.6524 16.4253 41.5924C16.3939 41.5315 16.3782 41.4496 16.3782 41.3468V39.8104Z" fill="url(#paint2_linear_7_69)"/>
<path d="M17.9078 40.1859V41.7309H17.6422V40.1859H17.9078ZM17.6222 39.7761C17.6222 39.7333 17.6351 39.6971 17.6608 39.6676C17.6874 39.6381 17.7265 39.6233 17.7779 39.6233C17.8283 39.6233 17.8669 39.6381 17.8935 39.6676C17.9211 39.6971 17.9349 39.7333 17.9349 39.7761C17.9349 39.817 17.9211 39.8523 17.8935 39.8818C17.8669 39.9103 17.8283 39.9246 17.7779 39.9246C17.7265 39.9246 17.6874 39.9103 17.6608 39.8818C17.6351 39.8523 17.6222 39.817 17.6222 39.7761Z" fill="url(#paint3_linear_7_69)"/>
<path d="M18.9748 40.4929V41.7309H18.7092V40.1859H18.9605L18.9748 40.4929ZM18.9205 40.8999L18.7977 40.8956C18.7987 40.7899 18.8125 40.6923 18.8392 40.6029C18.8658 40.5124 18.9053 40.4339 18.9577 40.3673C19.01 40.3006 19.0752 40.2492 19.1533 40.213C19.2314 40.1759 19.3218 40.1574 19.4246 40.1574C19.4969 40.1574 19.5636 40.1678 19.6245 40.1888C19.6854 40.2088 19.7383 40.2407 19.783 40.2844C19.8277 40.3282 19.8625 40.3844 19.8872 40.4529C19.912 40.5215 19.9244 40.6043 19.9244 40.7014V41.7309H19.6602V40.7142C19.6602 40.6333 19.6464 40.5686 19.6188 40.52C19.5921 40.4715 19.5541 40.4363 19.5046 40.4144C19.4551 40.3915 19.397 40.3801 19.3304 40.3801C19.2523 40.3801 19.1871 40.3939 19.1347 40.4215C19.0824 40.4491 19.0405 40.4872 19.0091 40.5358C18.9777 40.5843 18.9548 40.64 18.9405 40.7028C18.9272 40.7647 18.9205 40.8304 18.9205 40.8999ZM19.9215 40.7542L19.7444 40.8085C19.7454 40.7238 19.7592 40.6424 19.7859 40.5643C19.8135 40.4863 19.853 40.4168 19.9044 40.3558C19.9567 40.2949 20.021 40.2468 20.0971 40.2116C20.1733 40.1754 20.2604 40.1574 20.3584 40.1574C20.4413 40.1574 20.5146 40.1683 20.5783 40.1902C20.6431 40.2121 20.6973 40.2459 20.7411 40.2916C20.7859 40.3363 20.8197 40.3939 20.8425 40.4644C20.8654 40.5348 20.8768 40.6186 20.8768 40.7157V41.7309H20.6112V40.7128C20.6112 40.6262 20.5974 40.5591 20.5698 40.5115C20.5431 40.4629 20.505 40.4291 20.4555 40.4101C20.407 40.3901 20.3489 40.3801 20.2813 40.3801C20.2233 40.3801 20.1719 40.3901 20.1271 40.4101C20.0824 40.4301 20.0448 40.4577 20.0143 40.4929C19.9839 40.5272 19.9605 40.5667 19.9444 40.6114C19.9291 40.6562 19.9215 40.7038 19.9215 40.7542Z" fill="url(#paint4_linear_7_69)"/>
<path d="M22.1265 41.4925L22.5492 40.1859H22.8191L22.2636 41.7309H22.0866L22.1265 41.4925ZM21.7738 40.1859L22.2094 41.4996L22.2393 41.7309H22.0623L21.5025 40.1859H21.7738Z" fill="url(#paint5_linear_7_69)"/>
<path d="M23.7404 40.1859V41.7309H23.4748V40.1859H23.7404ZM23.4548 39.7761C23.4548 39.7333 23.4677 39.6971 23.4934 39.6676C23.52 39.6381 23.5591 39.6233 23.6105 39.6233C23.6609 39.6233 23.6995 39.6381 23.7261 39.6676C23.7537 39.6971 23.7675 39.7333 23.7675 39.7761C23.7675 39.817 23.7537 39.8523 23.7261 39.8818C23.6995 39.9103 23.6609 39.9246 23.6105 39.9246C23.5591 39.9246 23.52 39.9103 23.4934 39.8818C23.4677 39.8523 23.4548 39.817 23.4548 39.7761Z" fill="url(#paint6_linear_7_69)"/>
<path d="M25.1858 41.7595C25.0782 41.7595 24.9807 41.7414 24.8931 41.7052C24.8065 41.6681 24.7317 41.6162 24.6689 41.5496C24.607 41.4829 24.5594 41.4039 24.5261 41.3125C24.4928 41.2212 24.4761 41.1212 24.4761 41.0127V40.9527C24.4761 40.827 24.4947 40.7152 24.5318 40.6171C24.5689 40.5181 24.6194 40.4344 24.6832 40.3658C24.747 40.2973 24.8193 40.2454 24.9002 40.2102C24.9811 40.175 25.0649 40.1574 25.1515 40.1574C25.262 40.1574 25.3571 40.1764 25.4371 40.2145C25.518 40.2526 25.5842 40.3059 25.6356 40.3744C25.687 40.442 25.7251 40.522 25.7498 40.6143C25.7746 40.7057 25.7869 40.8056 25.7869 40.9142V41.0327H24.6332V40.8171H25.5228V40.7971C25.519 40.7285 25.5047 40.6619 25.4799 40.5972C25.4561 40.5324 25.4181 40.4791 25.3657 40.4372C25.3134 40.3953 25.242 40.3744 25.1515 40.3744C25.0916 40.3744 25.0363 40.3873 24.9859 40.413C24.9354 40.4377 24.8921 40.4748 24.856 40.5243C24.8198 40.5738 24.7917 40.6343 24.7717 40.7057C24.7517 40.7771 24.7417 40.8594 24.7417 40.9527V41.0127C24.7417 41.086 24.7517 41.155 24.7717 41.2197C24.7926 41.2835 24.8226 41.3397 24.8617 41.3882C24.9016 41.4368 24.9497 41.4748 25.0059 41.5024C25.063 41.5301 25.1277 41.5439 25.2001 41.5439C25.2934 41.5439 25.3724 41.5248 25.4371 41.4867C25.5018 41.4487 25.5585 41.3977 25.607 41.334L25.767 41.461C25.7336 41.5115 25.6913 41.5596 25.6399 41.6053C25.5885 41.651 25.5252 41.6881 25.45 41.7166C25.3757 41.7452 25.2877 41.7595 25.1858 41.7595Z" fill="url(#paint7_linear_7_69)"/>
<path d="M27.0938 41.5424C27.1567 41.5424 27.2147 41.5296 27.268 41.5039C27.3213 41.4782 27.3651 41.443 27.3994 41.3982C27.4337 41.3525 27.4532 41.3006 27.4579 41.2426H27.7093C27.7045 41.334 27.6736 41.4192 27.6164 41.4982C27.5603 41.5762 27.4865 41.6395 27.3951 41.6881C27.3037 41.7357 27.2033 41.7595 27.0938 41.7595C26.9777 41.7595 26.8763 41.739 26.7897 41.6981C26.704 41.6571 26.6326 41.601 26.5755 41.5296C26.5193 41.4582 26.477 41.3763 26.4484 41.284C26.4208 41.1907 26.407 41.0922 26.407 40.9884V40.9284C26.407 40.8247 26.4208 40.7266 26.4484 40.6343C26.477 40.541 26.5193 40.4586 26.5755 40.3873C26.6326 40.3159 26.704 40.2597 26.7897 40.2188C26.8763 40.1778 26.9777 40.1574 27.0938 40.1574C27.2147 40.1574 27.3204 40.1821 27.4108 40.2316C27.5013 40.2802 27.5722 40.3468 27.6236 40.4315C27.6759 40.5153 27.7045 40.6105 27.7093 40.7171H27.4579C27.4532 40.6533 27.4351 40.5957 27.4037 40.5443C27.3732 40.4929 27.3313 40.452 27.278 40.4215C27.2257 40.3901 27.1643 40.3744 27.0938 40.3744C27.0129 40.3744 26.9448 40.3906 26.8896 40.423C26.8354 40.4544 26.7921 40.4972 26.7597 40.5515C26.7283 40.6048 26.7054 40.6643 26.6912 40.73C26.6778 40.7947 26.6712 40.8608 26.6712 40.9284V40.9884C26.6712 41.056 26.6778 41.1226 26.6912 41.1883C26.7045 41.254 26.7269 41.3135 26.7583 41.3668C26.7906 41.4201 26.8339 41.4629 26.8882 41.4953C26.9434 41.5267 27.012 41.5424 27.0938 41.5424Z" fill="url(#paint8_linear_7_69)"/>
<path d="M28.7434 40.5615H28.9319C29.0242 40.5615 29.1004 40.5462 29.1603 40.5158C29.2213 40.4844 29.2665 40.442 29.296 40.3887C29.3265 40.3344 29.3417 40.2735 29.3417 40.2059C29.3417 40.1259 29.3284 40.0588 29.3017 40.0046C29.2751 39.9503 29.2351 39.9094 29.1818 39.8818C29.1285 39.8542 29.0609 39.8404 28.979 39.8404C28.9048 39.8404 28.8391 39.8551 28.782 39.8846C28.7258 39.9132 28.6815 39.9541 28.6492 40.0074C28.6177 40.0607 28.602 40.1236 28.602 40.1959H28.3379C28.3379 40.0902 28.3645 39.9941 28.4178 39.9075C28.4711 39.8209 28.5459 39.7518 28.642 39.7004C28.7391 39.649 28.8514 39.6233 28.979 39.6233C29.1047 39.6233 29.2146 39.6457 29.3089 39.6904C29.4031 39.7342 29.4764 39.7999 29.5287 39.8875C29.5811 39.9741 29.6073 40.0822 29.6073 40.2116C29.6073 40.264 29.5949 40.3201 29.5702 40.3801C29.5464 40.4391 29.5088 40.4943 29.4574 40.5458C29.4069 40.5972 29.3412 40.6395 29.2603 40.6728C29.1794 40.7052 29.0823 40.7214 28.969 40.7214H28.7434V40.5615ZM28.7434 40.7785V40.62H28.969C29.1013 40.62 29.2108 40.6357 29.2974 40.6671C29.3841 40.6985 29.4521 40.7404 29.5016 40.7928C29.5521 40.8451 29.5873 40.9027 29.6073 40.9656C29.6282 41.0274 29.6387 41.0893 29.6387 41.1512C29.6387 41.2483 29.622 41.3344 29.5887 41.4096C29.5564 41.4848 29.5102 41.5486 29.4502 41.601C29.3912 41.6533 29.3217 41.6928 29.2417 41.7195C29.1618 41.7461 29.0747 41.7595 28.9804 41.7595C28.89 41.7595 28.8048 41.7466 28.7248 41.7209C28.6458 41.6952 28.5759 41.6581 28.5149 41.6095C28.454 41.56 28.4064 41.4996 28.3721 41.4282C28.3379 41.3559 28.3207 41.2735 28.3207 41.1812H28.5849C28.5849 41.2535 28.6006 41.3168 28.632 41.3711C28.6644 41.4253 28.7101 41.4677 28.7691 41.4982C28.8291 41.5277 28.8995 41.5424 28.9804 41.5424C29.0613 41.5424 29.1308 41.5286 29.1889 41.501C29.2479 41.4725 29.2931 41.4296 29.3246 41.3725C29.3569 41.3154 29.3731 41.2435 29.3731 41.1569C29.3731 41.0703 29.355 40.9993 29.3188 40.9441C29.2827 40.888 29.2313 40.8466 29.1646 40.8199C29.0989 40.7923 29.0214 40.7785 28.9319 40.7785H28.7434Z" fill="url(#paint9_linear_7_69)"/>
<path d="M31.3968 39.649H31.4196V39.8732H31.3968C31.2569 39.8732 31.1398 39.8961 31.0455 39.9417C30.9513 39.9865 30.8766 40.0469 30.8213 40.1231C30.7661 40.1983 30.7262 40.283 30.7014 40.3773C30.6776 40.4715 30.6657 40.5672 30.6657 40.6643V40.9698C30.6657 41.0622 30.6767 41.144 30.6985 41.2154C30.7204 41.2859 30.7504 41.3454 30.7885 41.3939C30.8266 41.4425 30.8694 41.4791 30.917 41.5039C30.9656 41.5286 31.016 41.541 31.0684 41.541C31.1293 41.541 31.1836 41.5296 31.2312 41.5067C31.2788 41.4829 31.3187 41.4501 31.3511 41.4082C31.3844 41.3654 31.4096 41.3149 31.4268 41.2568C31.4439 41.1988 31.4525 41.135 31.4525 41.0655C31.4525 41.0036 31.4449 40.9441 31.4296 40.887C31.4144 40.829 31.3911 40.7775 31.3597 40.7328C31.3283 40.6871 31.2887 40.6514 31.2412 40.6257C31.1945 40.5991 31.1388 40.5857 31.0741 40.5857C31.0008 40.5857 30.9322 40.6038 30.8685 40.64C30.8056 40.6752 30.7538 40.7219 30.7128 40.7799C30.6728 40.837 30.65 40.8994 30.6443 40.967L30.5044 40.9656C30.5177 40.8589 30.5424 40.768 30.5786 40.6928C30.6157 40.6167 30.6614 40.5548 30.7157 40.5072C30.7709 40.4586 30.8323 40.4234 30.8999 40.4015C30.9684 40.3787 31.0408 40.3673 31.1169 40.3673C31.2207 40.3673 31.3102 40.3868 31.3854 40.4258C31.4606 40.4648 31.5224 40.5172 31.571 40.5829C31.6195 40.6476 31.6552 40.7209 31.6781 40.8028C31.7019 40.8837 31.7138 40.967 31.7138 41.0527C31.7138 41.1507 31.7 41.2426 31.6724 41.3282C31.6448 41.4139 31.6034 41.4891 31.5482 41.5539C31.4939 41.6186 31.4268 41.669 31.3468 41.7052C31.2669 41.7414 31.174 41.7595 31.0684 41.7595C30.956 41.7595 30.858 41.7366 30.7742 41.6909C30.6905 41.6443 30.621 41.5824 30.5658 41.5053C30.5105 41.4282 30.4691 41.3425 30.4415 41.2483C30.4139 41.154 30.4001 41.0584 30.4001 40.9613V40.837C30.4001 40.6904 30.4149 40.5467 30.4444 40.4058C30.4739 40.2649 30.5248 40.1374 30.5972 40.0231C30.6705 39.9089 30.7718 39.818 30.9013 39.7504C31.0308 39.6828 31.1959 39.649 31.3968 39.649Z" fill="url(#paint10_linear_7_69)"/>
<path d="M32.7422 40.7414L32.5309 40.6871L32.6351 39.6519H33.7018V39.8961H32.8593L32.7965 40.4615C32.8346 40.4396 32.8826 40.4191 32.9407 40.4001C32.9997 40.3811 33.0673 40.3715 33.1435 40.3715C33.2396 40.3715 33.3258 40.3882 33.4019 40.4215C33.4781 40.4539 33.5428 40.5005 33.5961 40.5615C33.6504 40.6224 33.6918 40.6957 33.7203 40.7814C33.7489 40.867 33.7632 40.9627 33.7632 41.0684C33.7632 41.1683 33.7494 41.2602 33.7218 41.344C33.6951 41.4277 33.6547 41.501 33.6004 41.5638C33.5461 41.6257 33.4776 41.6738 33.3948 41.7081C33.3129 41.7423 33.2163 41.7595 33.1049 41.7595C33.0211 41.7595 32.9417 41.748 32.8665 41.7252C32.7922 41.7014 32.7256 41.6657 32.6665 41.6181C32.6085 41.5696 32.5609 41.5096 32.5238 41.4382C32.4876 41.3658 32.4647 41.2811 32.4552 41.184H32.7065C32.7179 41.2621 32.7408 41.3278 32.7751 41.3811C32.8093 41.4344 32.8541 41.4748 32.9093 41.5024C32.9655 41.5291 33.0307 41.5424 33.1049 41.5424C33.1677 41.5424 33.2234 41.5315 33.272 41.5096C33.3205 41.4877 33.3615 41.4563 33.3948 41.4153C33.4281 41.3744 33.4533 41.3249 33.4705 41.2668C33.4885 41.2088 33.4976 41.1436 33.4976 41.0712C33.4976 41.0055 33.4885 40.9446 33.4705 40.8884C33.4524 40.8323 33.4252 40.7833 33.3891 40.7414C33.3538 40.6995 33.3105 40.6671 33.2591 40.6443C33.2077 40.6205 33.1487 40.6086 33.0821 40.6086C32.9935 40.6086 32.9264 40.6205 32.8807 40.6443C32.836 40.6681 32.7898 40.7004 32.7422 40.7414Z" fill="url(#paint11_linear_7_69)"/>
<path d="M34.4661 41.591C34.4661 41.5462 34.4799 41.5086 34.5075 41.4782C34.536 41.4468 34.577 41.4311 34.6303 41.4311C34.6836 41.4311 34.724 41.4468 34.7516 41.4782C34.7802 41.5086 34.7945 41.5462 34.7945 41.591C34.7945 41.6348 34.7802 41.6719 34.7516 41.7024C34.724 41.7328 34.6836 41.748 34.6303 41.748C34.577 41.748 34.536 41.7328 34.5075 41.7024C34.4799 41.6719 34.4661 41.6348 34.4661 41.591Z" fill="url(#paint12_linear_7_69)"/>
<path d="M36.0828 41.4925L36.5054 40.1859H36.7753L36.2199 41.7309H36.0428L36.0828 41.4925ZM35.7301 40.1859L36.1656 41.4996L36.1956 41.7309H36.0185L35.4588 40.1859H35.7301Z" fill="url(#paint13_linear_7_69)"/>
<path d="M37.6738 40.5158V41.7309H37.4097V40.1859H37.6595L37.6738 40.5158ZM37.611 40.8999L37.501 40.8956C37.502 40.7899 37.5177 40.6923 37.5482 40.6029C37.5786 40.5124 37.6215 40.4339 37.6767 40.3673C37.7319 40.3006 37.7976 40.2492 37.8737 40.213C37.9508 40.1759 38.036 40.1574 38.1293 40.1574C38.2055 40.1574 38.274 40.1678 38.3349 40.1888C38.3959 40.2088 38.4477 40.2411 38.4906 40.2859C38.5344 40.3306 38.5677 40.3887 38.5905 40.4601C38.6134 40.5305 38.6248 40.6167 38.6248 40.7185V41.7309H38.3592V40.7157C38.3592 40.6348 38.3473 40.57 38.3235 40.5215C38.2997 40.472 38.265 40.4363 38.2193 40.4144C38.1736 40.3915 38.1174 40.3801 38.0508 40.3801C37.9851 40.3801 37.9251 40.3939 37.8709 40.4215C37.8176 40.4491 37.7714 40.4872 37.7324 40.5358C37.6943 40.5843 37.6643 40.64 37.6424 40.7028C37.6215 40.7647 37.611 40.8304 37.611 40.8999Z" fill="url(#paint14_linear_7_69)"/>
</g>
</g>

</svg>
