<svg width="24" height="24" viewBox="0 0 24 24" fill="none" xmlns="http://www.w3.org/2000/svg">
<path d="M18.0115 23C17.7973 22.9993 17.5839 22.9753 17.3748 22.9283C13.3931 22.086 9.72493 20.1111 6.79244 17.2309C3.92252 14.3443 1.93208 10.6691 1.06194 6.64986C0.959343 6.14894 0.984525 5.62945 1.13507 5.14137C1.28561 4.65329 1.55645 4.21304 1.92152 3.86298L4.4684 1.3561C4.59849 1.23029 4.75306 1.13395 4.92202 1.07336C5.09097 1.01277 5.27053 0.989304 5.44896 1.00448C5.63397 1.02422 5.8125 1.08517 5.972 1.18304C6.13151 1.28091 6.26811 1.41332 6.3722 1.57097L9.55581 6.38289C9.6752 6.5696 9.73283 6.79057 9.72022 7.01328C9.70761 7.23599 9.62543 7.44868 9.48577 7.62005L7.8876 9.57347C8.5241 11.0141 9.4255 12.3161 10.5427 13.4087C11.6527 14.5409 12.9647 15.4449 14.4076 16.0718L16.3878 14.4635C16.5542 14.3291 16.7565 14.2496 16.9681 14.2357C17.1796 14.2217 17.3903 14.2739 17.5721 14.3854L22.3794 17.5629C22.5444 17.6637 22.6849 17.8013 22.7905 17.9654C22.8961 18.1296 22.964 18.3161 22.9891 18.5109C23.0142 18.7057 22.9959 18.9038 22.9355 19.0903C22.8751 19.2768 22.7743 19.447 22.6404 19.588L20.1572 22.1014C19.8752 22.3884 19.5404 22.6156 19.1721 22.7698C18.8038 22.924 18.4094 23.0022 18.0115 23ZM5.34708 2.29374L2.80019 4.80062C2.59482 4.99632 2.44279 5.24332 2.35906 5.51732C2.27533 5.79132 2.26279 6.08289 2.32265 6.36336C3.13175 10.1348 4.99161 13.586 7.67748 16.2997C10.4372 19.0095 13.8891 20.8671 17.6358 21.6586C17.9194 21.7192 18.2133 21.707 18.4911 21.6229C18.7689 21.5388 19.022 21.3855 19.2276 21.1768L21.7108 18.6634L17.0691 15.5965L14.9425 17.3285C14.8611 17.3944 14.7651 17.439 14.663 17.4583C14.5609 17.4776 14.4558 17.471 14.3567 17.4392C12.5909 16.7739 10.9906 15.7177 9.67042 14.3463C8.30488 13.0422 7.24491 11.4396 6.56959 9.65812C6.54102 9.55027 6.54007 9.43671 6.56683 9.32837C6.59359 9.22004 6.64717 9.12057 6.7224 9.03954L8.44155 6.93636L5.34708 2.29374Z" fill="white"/>
</svg>
