<svg width="24" height="24" viewBox="0 0 24 24" fill="none" xmlns="http://www.w3.org/2000/svg">
<g clip-path="url(#clip0_595_9957)">
<path d="M11.9999 21.6276C18.0745 21.6276 22.9997 17.0099 22.9997 11.3138C22.9997 5.61763 18.0745 1 11.9999 1C5.92519 1 1 5.61763 1 11.3138C1 13.907 2.02161 16.2791 3.70871 18.0914C3.57534 19.5884 3.13535 21.2297 2.6486 22.4615C2.53998 22.7356 2.75035 23.042 3.02397 22.9949C6.12593 22.4497 7.96978 21.6128 8.7714 21.1767C9.82451 21.4777 10.9099 21.6293 11.9999 21.6276Z" fill="#5DC22D" stroke="#5DC22D" stroke-width="1.2"/>
<path d="M7.26982 11.8033C7.26982 12.1681 7.14871 12.4538 6.90567 12.6612C6.65857 12.8662 6.31718 12.9688 5.88069 12.9688H3.68848V12.1164H5.50435C5.71731 12.1164 5.87256 12.082 5.96929 12.0139C6.06601 11.9434 6.11478 11.8347 6.11478 11.6859C6.11478 11.549 6.06845 11.4417 5.97579 11.3643C5.87906 11.2899 5.72219 11.2531 5.50516 11.2531L4.02336 11.2586V10.407H5.47752C5.69699 10.407 5.85468 10.3741 5.9514 10.3076C6.04407 10.2434 6.0904 10.137 6.0904 9.98828C6.0904 9.8474 6.04407 9.74252 5.9514 9.67207C5.90426 9.63372 5.84167 9.60633 5.76445 9.58911C5.68317 9.57424 5.58807 9.56641 5.47752 9.56641H3.68848V8.71484H5.78884C6.27491 8.71484 6.64313 8.80877 6.89348 8.99661C7.14058 9.18681 7.26413 9.48188 7.26413 9.88262C7.26413 10.0838 7.2178 10.2622 7.12514 10.418C7.02841 10.5737 6.90323 10.7107 6.74879 10.8281C6.91868 10.9291 7.04223 11.0496 7.11945 11.1897C7.21942 11.3541 7.26982 11.5584 7.26982 11.8033Z" fill="white"/>
<path d="M11.6505 11.664C11.6505 12.1102 11.4822 12.4483 11.1465 12.6784C10.8108 12.9085 10.3272 13.0228 9.69482 13.0228C8.94864 13.0228 8.39672 12.8498 8.03908 12.5039C7.68387 12.1603 7.50586 11.621 7.50586 10.8852C7.50586 10.1425 7.69606 9.59459 8.07728 9.24159C8.45281 8.89017 9.03805 8.71484 9.83381 8.71484H11.4213L11.418 9.56641H9.81105C9.41195 9.56641 9.12259 9.64077 8.94295 9.7887C8.85841 9.85914 8.7942 9.94836 8.75031 10.0564C8.70072 10.1706 8.67634 10.3014 8.67634 10.4493H10.1102C10.6271 10.4493 11.0132 10.5487 11.2685 10.7467C11.5229 10.9471 11.6505 11.2523 11.6505 11.664ZM10.5036 11.7094C10.5036 11.5724 10.467 11.4691 10.3939 11.3987C10.3207 11.3345 10.2093 11.3016 10.059 11.3016H8.68203C8.68203 11.592 8.76656 11.812 8.93645 11.9599C9.10226 12.1117 9.36806 12.1876 9.73302 12.1876C10.0118 12.1876 10.2085 12.1485 10.3256 12.071C10.4451 11.9935 10.5036 11.873 10.5036 11.7094Z" fill="white"/>
<path d="M15.6796 11.6805C15.6796 12.0961 15.5439 12.4154 15.274 12.6377C15.0017 12.8584 14.6172 12.968 14.1214 12.968H11.7959V12.1164H13.9198C14.1287 12.1164 14.2767 12.082 14.3612 12.0139C14.4425 11.9474 14.4823 11.8362 14.4823 11.6805C14.4823 11.5208 14.4417 11.4057 14.3612 11.3361C14.2767 11.2695 14.1287 11.2367 13.9198 11.2367H11.7959V8.71484H15.4634L15.4602 9.56641H12.8827V10.3898H14.3189C14.7359 10.3898 15.0692 10.5009 15.3203 10.7232C15.4366 10.8391 15.5268 10.9753 15.5902 11.131C15.6495 11.2899 15.6796 11.4738 15.6796 11.6805Z" fill="white"/>
<path fill-rule="evenodd" clip-rule="evenodd" d="M16.208 14.3161L17.8312 12.9072L19.5983 13.4011C19.5983 13.4011 20.7639 13.8715 20.1129 14.6589C19.8194 14.9375 19.5414 15.2013 18.5156 14.9352C18.2246 14.842 16.208 14.3161 16.208 14.3161Z" fill="white"/>
<path fill-rule="evenodd" clip-rule="evenodd" d="M6.80792 13.3197C6.82499 13.3573 6.83962 13.3956 6.8575 13.4332C6.8892 13.4997 6.92415 13.5639 6.96236 13.6273C7.05827 13.7854 7.17451 13.9318 7.30781 14.0625C7.47526 14.2261 7.66952 14.3638 7.88005 14.4711C8.14584 14.6073 8.43521 14.6957 8.73027 14.7458C9.11962 14.8123 9.51872 14.8147 9.91213 14.7787C10.4437 14.7301 10.968 14.6135 11.4776 14.4625C12.9448 14.0273 14.2998 13.3863 15.4475 12.3938C15.4646 12.3789 15.4817 12.3641 15.4995 12.3492C16.2937 11.6534 17.2699 10.6766 17.1496 9.54715C17.0732 8.83334 16.1734 8.43417 15.5386 8.28859C15.2679 8.22675 15.3191 7.83854 15.5971 7.8448C16.8789 7.87454 18.1884 8.20875 18.6265 9.26695C18.629 9.27321 18.6314 9.27947 18.6338 9.28652C18.7436 9.62699 18.7671 9.99564 18.7371 10.3486C18.6802 11.0233 18.4103 11.6659 18.0234 12.2271C17.3772 13.1655 16.4343 13.8895 15.4467 14.4726C14.6136 14.9649 13.7536 15.3477 12.8237 15.6263C12.1686 15.8228 11.5012 15.984 10.8209 16.0764C10.0593 16.1797 9.26593 16.2024 8.51487 16.0216C7.75893 15.84 7.08997 15.4299 6.6608 14.7951C6.39906 14.4084 6.23487 13.9686 6.13652 13.5185C6.10726 13.3863 6.14383 13.207 6.26413 13.1209C6.41776 13.0113 6.66567 13.1092 6.76565 13.243C6.78272 13.2689 6.79654 13.2939 6.80792 13.3197Z" fill="white"/>
<path fill-rule="evenodd" clip-rule="evenodd" d="M7.29688 13.2446C7.29688 13.2446 9.54761 15.2052 13.4118 13.1045C12.981 13.5945 8.16986 15.8353 7.29688 13.2446Z" fill="white"/>
</g>
<defs>
<clipPath id="clip0_595_9957">
<rect width="24" height="24" fill="white"/>
</clipPath>
</defs>
</svg>
