<svg width="24" height="24" viewBox="0 0 24 24" fill="none" xmlns="http://www.w3.org/2000/svg">
<path d="M11.9951 3C8.34452 3 4.9809 4.63957 2.69331 7.17187C2.62726 7.24497 2.57626 7.33037 2.54322 7.42317C2.51017 7.51598 2.49573 7.61439 2.50072 7.71278C2.50571 7.81117 2.53002 7.90762 2.57228 7.99661C2.61454 8.0856 2.67392 8.1654 2.74702 8.23144C2.89465 8.36483 3.08922 8.43411 3.28793 8.42403C3.38632 8.41905 3.48276 8.39473 3.57175 8.35247C3.66075 8.31021 3.74054 8.25083 3.80659 8.17773C5.819 5.95004 8.79561 4.5 11.9951 4.5C15.1945 4.5 18.1769 5.95069 20.1943 8.17871C20.2595 8.2548 20.3393 8.31704 20.429 8.36176C20.5187 8.40648 20.6165 8.43277 20.7165 8.43907C20.8165 8.44538 20.9168 8.43158 21.0114 8.39848C21.106 8.36538 21.193 8.31365 21.2673 8.24636C21.3416 8.17907 21.4016 8.09757 21.4439 8.00668C21.4861 7.9158 21.5097 7.81736 21.5133 7.7172C21.5169 7.61704 21.5003 7.51717 21.4647 7.42351C21.429 7.32985 21.3749 7.24428 21.3056 7.17187C19.013 4.63989 15.6456 3 11.9951 3ZM20.1894 11.9883C20.0287 11.9965 19.875 12.0563 19.7508 12.1586C19.6267 12.2609 19.5387 12.4005 19.4999 12.5566C18.6973 15.5672 15.5393 18 11.9951 18C8.45084 18 5.30293 15.5684 4.49995 12.5566C4.45987 12.3977 4.36886 12.2563 4.24082 12.1541C4.11279 12.0518 3.95479 11.9942 3.79096 11.9902C3.67361 11.9874 3.55722 12.0121 3.45116 12.0624C3.3451 12.1128 3.25234 12.1873 3.18033 12.28C3.10833 12.3727 3.05909 12.481 3.03658 12.5963C3.01407 12.7115 3.01892 12.8304 3.05073 12.9434C3.29055 13.8429 3.69471 14.6842 4.2187 15.4502L2.79487 16.6367C2.71646 16.6989 2.65128 16.7762 2.60319 16.8639C2.55509 16.9517 2.52504 17.0482 2.51481 17.1477C2.50458 17.2473 2.51438 17.3479 2.54362 17.4436C2.57287 17.5393 2.62097 17.6282 2.6851 17.705C2.74922 17.7819 2.82807 17.8451 2.91701 17.891C3.00595 17.9369 3.10317 17.9645 3.20294 17.9722C3.30272 17.98 3.40304 17.9677 3.49799 17.936C3.59294 17.9044 3.6806 17.8541 3.75581 17.7881L5.25092 16.541C5.79403 17.1019 6.37671 17.5956 7.05464 18.0107L6.13764 19.5996C6.08837 19.685 6.0564 19.7792 6.04354 19.8769C6.03069 19.9746 6.03721 20.0739 6.06273 20.1691C6.08825 20.2642 6.13227 20.3535 6.19228 20.4316C6.25229 20.5098 6.32711 20.5754 6.41246 20.6246C6.49782 20.6739 6.59205 20.7059 6.68976 20.7187C6.78747 20.7315 6.88675 20.725 6.98193 20.6994C7.07711 20.6739 7.16633 20.6299 7.24449 20.5698C7.32264 20.5098 7.38821 20.435 7.43745 20.3496L8.38667 18.7041C9.29325 19.0793 10.2361 19.3578 11.2499 19.4385V21.25C11.2485 21.3494 11.2669 21.4481 11.304 21.5403C11.341 21.6325 11.396 21.7164 11.4658 21.7872C11.5356 21.858 11.6188 21.9142 11.7105 21.9526C11.8022 21.9909 11.9006 22.0107 11.9999 22.0107C12.0993 22.0107 12.1977 21.9909 12.2894 21.9526C12.3811 21.9142 12.4643 21.858 12.5341 21.7872C12.6039 21.7164 12.6589 21.6325 12.6959 21.5403C12.733 21.4481 12.7514 21.3494 12.7499 21.25V19.4375C13.7626 19.356 14.7051 19.0773 15.6113 18.7021L16.5624 20.3496C16.6117 20.435 16.6773 20.5098 16.7554 20.5698C16.8336 20.6299 16.9228 20.6739 17.018 20.6994C17.1131 20.725 17.2124 20.7315 17.3101 20.7187C17.4078 20.7059 17.5021 20.6739 17.5874 20.6246C17.6728 20.5754 17.7476 20.5098 17.8076 20.4316C17.8676 20.3535 17.9116 20.2642 17.9372 20.1691C17.9627 20.0739 17.9692 19.9746 17.9564 19.8769C17.9435 19.7792 17.9115 19.685 17.8623 19.5996L16.9443 18.0088C17.622 17.5939 18.2039 17.1003 18.747 16.54L20.2441 17.7881C20.3193 17.8541 20.407 17.9044 20.5019 17.936C20.5969 17.9677 20.6972 17.98 20.7969 17.9722C20.8967 17.9645 20.9939 17.9369 21.0829 17.891C21.1718 17.8451 21.2507 17.7819 21.3148 17.705C21.3789 17.6282 21.427 17.5393 21.4563 17.4436C21.4855 17.3479 21.4953 17.2473 21.4851 17.1477C21.4749 17.0482 21.4448 16.9517 21.3967 16.8639C21.3486 16.7762 21.2834 16.6989 21.205 16.6367L19.7802 15.4492C20.3044 14.6836 20.7094 13.8425 20.9492 12.9434C20.9819 12.8286 20.9869 12.7077 20.9635 12.5906C20.9402 12.4736 20.8892 12.3638 20.8149 12.2704C20.7406 12.177 20.6451 12.1027 20.5363 12.0536C20.4275 12.0045 20.3086 11.9821 20.1894 11.9883Z" fill="#474747"/>
</svg>
