<svg width="49" height="48" viewBox="0 0 49 48" fill="none" xmlns="http://www.w3.org/2000/svg">
    <defs>
        <linearGradient id="paint0_linear_2723_107083" x1="0.125" y1="27.0326" x2="48.1252" y2="26.9957" gradientUnits="userSpaceOnUse">
            <stop stop-color="#0086DA"/>
            <stop offset="1" stop-color="#00A9E9"/>
            <stop offset="1" stop-color="#00A9E9"/>
        </linearGradient>
    </defs>
<rect x="0.125" width="48" height="48" rx="24" fill="url(#paint0_linear_2723_107083)"/>
<path d="M19.0666 19.2138C19.083 18.2055 19.4113 17.2269 20.0064 16.4126C20.6016 15.5983 21.4344 14.9881 22.3904 14.666C24.4554 13.9614 26.7302 14.861 27.9117 16.6364C28.7325 17.8635 28.6773 19.2396 28.67 20.6378L28.6534 23.9382C28.6534 24.7532 29.9122 24.7587 29.9178 23.9382C29.9343 20.7813 30.5177 17.2214 28.0184 14.8022C26.3179 13.1556 23.6162 12.7123 21.4629 13.6652C20.3873 14.1427 19.4708 14.9178 18.8216 15.899C18.1723 16.8802 17.8173 18.0265 17.7986 19.2028C17.7765 20.0178 19.0409 20.0233 19.0629 19.2028L19.0666 19.2138Z" fill="white"/>
<path d="M18.1383 22.2288C19.1634 22.1792 19.988 21.7137 20.4536 20.7828C20.8069 20.08 20.7517 19.3699 20.899 18.6285C21.2155 17.05 22.9013 15.8524 24.4786 16.1449C25.8736 16.4043 26.8362 17.705 26.8307 19.0884C26.8221 20.6669 26.8123 22.2454 26.8012 23.8239C26.7883 25.5348 27.7343 26.6736 29.5287 26.7453C30.344 26.7784 30.3477 25.5146 29.5287 25.4833C27.5871 25.4042 28.0564 23.4357 28.0729 22.0651C28.084 20.562 28.3895 18.6727 27.7049 17.2818C26.3853 14.5756 23.0854 14.1433 20.9431 16.1173C20.079 16.9473 19.5794 18.0858 19.5536 19.2834C19.5131 20.1444 19.0622 20.9226 18.1328 20.9686C17.3212 21.0109 17.312 22.2748 18.1328 22.2325L18.1383 22.2288Z" fill="white"/>
<path d="M18.34 24.317C19.0908 24.3729 19.8414 24.2049 20.4966 23.8342C21.1518 23.4635 21.6823 22.9067 22.0208 22.2344C22.2965 21.6246 22.4527 20.9676 22.4809 20.299C22.492 20.128 22.4956 19.955 22.492 19.7821C22.492 20.0286 22.4809 19.8686 22.492 19.7931C22.5364 19.5686 22.5979 19.3478 22.676 19.1327C23.1306 17.7989 24.9452 17.4272 25.0483 19.1216C25.1274 20.437 25.0483 21.7598 24.625 23.0126C23.7324 25.6158 21.1668 26.521 18.6123 26.5338C17.7989 26.5338 17.7915 27.8014 18.6123 27.7977C21.4926 27.783 24.3066 26.7675 25.582 24.0134C26.2851 22.492 26.3292 20.9025 26.3182 19.2651C26.3182 17.7437 25.4146 16.6104 23.8134 16.6895C22.4257 16.7539 21.6214 18.0656 21.3178 19.2762C21.0141 20.4867 21.2957 21.8039 20.0957 22.6189C19.5799 22.9551 18.9664 23.1092 18.3528 23.0568C17.5394 22.9869 17.5394 24.2508 18.3528 24.3207L18.34 24.317Z" fill="white"/>
<path d="M23.2967 19.6369C23.3614 20.4981 23.2358 21.363 22.9287 22.1702C22.2017 24.1553 20.2122 24.8617 18.2485 24.8765C17.4332 24.8765 17.4258 26.1477 18.2485 26.1403C20.6079 26.1219 22.8643 25.2536 23.9335 23.0312C24.4409 21.9774 24.6618 20.8087 24.574 19.6425C24.5004 18.8385 23.236 18.8256 23.3096 19.6425L23.2967 19.6369Z" fill="white"/>
<path d="M19.3947 29.4654C20.8906 29.5646 22.3825 29.2196 23.6828 28.4738C24.1553 28.192 24.5837 27.8424 24.9546 27.4362C25.1607 27.2172 25.3632 27.0038 25.5877 26.8015C25.9466 26.474 26.0036 26.7904 26.1969 27.0848C26.8134 28.0285 27.6931 28.8362 28.8802 28.792C29.6937 28.7607 29.7029 27.5042 28.8802 27.5281C27.5422 27.5778 27.3858 26.0233 26.4343 25.4585C25.4828 24.8937 24.4411 26.1318 23.8798 26.7242C22.7939 27.8758 20.9351 28.3284 19.3928 28.196C18.5793 28.1279 18.5793 29.3936 19.3928 29.4598L19.3947 29.4654Z" fill="white"/>
<path d="M27.8837 28.8876C26.866 28.6705 26.4335 27.39 25.2335 27.9677C24.0336 28.5454 22.7213 30.1459 21.2067 29.6069C20.4355 29.3328 20.1024 30.5525 20.8644 30.8229C22.1527 31.2829 23.7097 30.536 24.7292 29.8037C25.1838 29.4781 25.6679 28.8545 26.1777 29.2905C26.5697 29.6253 27.0206 29.9896 27.5377 30.1018C28.3328 30.2729 28.677 29.055 27.8801 28.8839L27.8837 28.8876Z" fill="white"/>
<path d="M24.1788 31.7131C25.0516 31.6663 25.901 31.4142 26.6579 30.9773C27.3462 30.5449 26.7186 29.4466 26.0266 29.8826C25.6436 30.1086 25.2246 30.2673 24.788 30.3518C24.5901 30.3998 24.3889 30.4336 24.1862 30.4529C23.3801 30.521 23.3653 31.7849 24.1862 31.7168L24.1788 31.7131Z" fill="white"/>
<path d="M12.2549 14.4547H11.228L11.2372 12.7273C11.2389 12.3889 11.3072 12.0541 11.4384 11.7422C11.5696 11.4302 11.7609 11.1471 12.0016 10.9091C12.2422 10.6711 12.5274 10.4829 12.8409 10.3551C13.1544 10.2274 13.49 10.1626 13.8285 10.1645H15.4425V11.1911L13.8285 11.1819C13.4175 11.1804 13.0226 11.3419 12.7304 11.6308C12.4383 11.9198 12.2726 12.3127 12.2696 12.7236L12.2549 14.4547Z" fill="white"/>
<path d="M35.5642 14.4805H36.5911L36.6003 12.753C36.602 12.4147 36.537 12.0795 36.4091 11.7663C36.2812 11.4532 36.0928 11.1683 35.8548 10.928C35.6167 10.6876 35.3336 10.4965 35.0217 10.3655C34.7097 10.2345 34.375 10.1662 34.0366 10.1645H32.4207V11.191L34.0348 11.2002C34.4429 11.2065 34.8321 11.3731 35.1183 11.6641C35.4045 11.955 35.5647 12.3468 35.5642 12.7548V14.4805Z" fill="white"/>
<path d="M35.4594 32.5512H36.4845L36.4753 34.2768C36.4736 34.615 36.4053 34.9496 36.2743 35.2615C36.1432 35.5733 35.952 35.8563 35.7116 36.0943C35.4711 36.3322 35.1861 36.5205 34.8729 36.6484C34.5596 36.7763 34.2242 36.8412 33.8858 36.8395H32.2718V35.813H33.8877C34.2987 35.8144 34.6935 35.653 34.9857 35.364C35.2779 35.0751 35.4436 34.6821 35.4465 34.2713L35.4594 32.5512Z" fill="white"/>
<path d="M12.1514 32.4319H11.1245V34.1594C11.1228 34.4976 11.1878 34.8329 11.3157 35.146C11.4436 35.4591 11.632 35.744 11.87 35.9844C12.1081 36.2248 12.3912 36.4159 12.7032 36.5469C13.0151 36.6779 13.3498 36.7462 13.6882 36.7479H15.3023V35.7213H13.6882C13.2772 35.7184 12.8841 35.5528 12.595 35.2607C12.3059 34.9686 12.1445 34.5739 12.1459 34.1631L12.1514 32.4319Z" fill="white"/>
<path d="M23.9286 35.3688H23.4317V36.6364H23.0507V35.3688H22.5538V35.045H23.9286V35.3688Z" fill="white"/>
<path d="M24.3983 35.3755H24.1885L23.7578 35.0223H24.1535L24.3983 35.3755ZM24.3615 36.6376H23.9934V35.4546H24.3615V36.6376Z" fill="white"/>
<path d="M26.2107 36.6375H25.8592V35.931C25.8651 35.8799 25.8541 35.8282 25.8279 35.7838C25.7875 35.7596 25.7403 35.7493 25.6935 35.7544H25.5573V36.6356H25.2021V35.7544H24.9095V36.6356H24.558V35.4527H25.7175C25.8487 35.4427 25.9793 35.4799 26.0855 35.5576C26.1287 35.6013 26.1618 35.6539 26.1824 35.7117C26.2031 35.7696 26.2108 35.8312 26.2052 35.8924L26.2107 36.6375Z" fill="white"/>
<path d="M28.2015 35.4539L27.6807 36.6369H27.3273L26.8322 35.4539H27.2242L27.515 36.2045L27.8242 35.4539H28.2015Z" fill="white"/>
<path d="M28.6239 35.3788H28.2559V35.0422H28.6239V35.3788ZM28.6239 36.6354H28.2559V35.4524H28.6239V36.6354Z" fill="white"/>
<path d="M29.807 36.6376H29.3487C29.2688 36.6471 29.1877 36.6384 29.1116 36.6119C29.0355 36.5855 28.9665 36.5421 28.9097 36.485C28.8529 36.4279 28.8099 36.3586 28.7839 36.2824C28.758 36.2062 28.7497 36.1251 28.7598 36.0452C28.7499 35.9655 28.7584 35.8847 28.7845 35.8088C28.8106 35.7329 28.8537 35.6639 28.9105 35.6071C28.9673 35.5504 29.0363 35.5073 29.1122 35.4812C29.1881 35.4551 29.269 35.4466 29.3487 35.4565H29.807V35.7435H29.3892C29.3206 35.7365 29.2514 35.7499 29.1904 35.7821C29.1736 35.7968 29.1605 35.8154 29.1521 35.8361C29.1438 35.8569 29.1405 35.8794 29.1426 35.9017H29.807V36.1924H29.1426C29.141 36.2137 29.1438 36.2351 29.1508 36.2554C29.1577 36.2756 29.1687 36.2942 29.1831 36.3101C29.2455 36.344 29.3169 36.3575 29.3874 36.3487H29.807V36.6376ZM29.7573 35.3755H29.5493L29.3763 35.2228L29.2015 35.3755H28.9954L29.2383 35.0223H29.5144L29.7573 35.3755ZM29.5291 37.0754H29.2199V36.7461H29.5291V37.0754Z" fill="white"/>
<path d="M30.9185 36.6373H30.4897C30.4425 36.6404 30.3951 36.6404 30.348 36.6373C30.3055 36.6272 30.2637 36.6142 30.2228 36.5987C30.1544 36.5744 30.0917 36.5362 30.0388 36.4865C30.0123 36.4601 29.9894 36.4304 29.9707 36.3982C29.9485 36.3628 29.9288 36.3259 29.9118 36.2878C29.8969 36.2504 29.8858 36.2115 29.8786 36.1719C29.8582 36.0484 29.8696 35.9218 29.9118 35.804C29.9411 35.7281 29.9842 35.6582 30.0388 35.5979C30.092 35.5507 30.1548 35.5156 30.2228 35.4949C30.3068 35.4693 30.3945 35.4575 30.4823 35.4599H30.9111V35.7561H30.5707C30.5133 35.7546 30.456 35.7589 30.3995 35.769C30.3624 35.777 30.3281 35.7948 30.3001 35.8205C30.273 35.8523 30.2527 35.8892 30.2404 35.929C30.228 35.9689 30.2239 36.0108 30.2283 36.0523C30.2272 36.1061 30.2379 36.1595 30.2596 36.2087C30.2789 36.2511 30.3094 36.2874 30.348 36.3136L30.4179 36.3375H30.4749H30.5707H30.9111L30.9185 36.6373Z" fill="white"/>
<path d="M17.9071 36.1993C17.9101 36.259 17.8999 36.3185 17.8774 36.3739C17.8548 36.4292 17.8203 36.4788 17.7765 36.5194C17.6717 36.601 17.541 36.6422 17.4084 36.6353H16.617V36.3152H17.2722C17.3304 36.3195 17.3886 36.3067 17.4397 36.2784C17.4577 36.2636 17.472 36.2446 17.4812 36.2232C17.4905 36.2018 17.4946 36.1784 17.493 36.1551C17.4944 36.1323 17.4904 36.1095 17.4815 36.0884C17.4725 36.0674 17.4589 36.0486 17.4415 36.0337C17.3911 36.0018 17.3316 35.9876 17.2722 35.9932H16.7385V35.6768H17.263C17.3227 35.6816 17.3824 35.6681 17.4342 35.6382C17.4517 35.6239 17.4655 35.6055 17.4741 35.5847C17.4828 35.5638 17.4861 35.5411 17.4838 35.5186C17.4854 35.4965 17.4817 35.4743 17.473 35.4538C17.4644 35.4334 17.4511 35.4152 17.4342 35.4009C17.4141 35.3854 17.3908 35.3747 17.3661 35.3696C17.3318 35.3664 17.2973 35.3664 17.263 35.3696H16.617V35.0495H17.3753C17.516 35.0394 17.6561 35.0769 17.7728 35.1562C17.8198 35.1968 17.8566 35.248 17.8799 35.3055C17.9033 35.3631 17.9126 35.4254 17.9071 35.4873C17.9084 35.5574 17.8912 35.6265 17.8575 35.6878C17.8217 35.7466 17.7756 35.7984 17.7213 35.8405C17.7766 35.8736 17.8223 35.9205 17.8538 35.9767C17.8909 36.0449 17.9093 36.1217 17.9071 36.1993Z" fill="white"/>
<path d="M19.4856 36.1463C19.4898 36.2202 19.4751 36.2939 19.4429 36.3605C19.4107 36.4272 19.362 36.4845 19.3016 36.5272C19.1435 36.6216 18.9608 36.6664 18.777 36.6559C18.6696 36.665 18.5615 36.6524 18.4591 36.6189C18.3566 36.5854 18.262 36.5317 18.1807 36.4609C18.1117 36.3771 18.0599 36.2805 18.0283 36.1766C17.9967 36.0728 17.986 35.9637 17.9967 35.8557C17.9871 35.7446 18.0004 35.6327 18.0359 35.527C18.0713 35.4213 18.1282 35.324 18.2028 35.2412C18.3795 35.0944 18.607 35.023 18.8359 35.0425H19.4083V35.3626H18.8286C18.7178 35.353 18.6072 35.3823 18.5157 35.4454C18.4843 35.4721 18.4603 35.5062 18.4458 35.5447C18.4283 35.5918 18.4195 35.6417 18.42 35.6919H18.9372C19.0851 35.6815 19.2322 35.7211 19.3549 35.8041C19.4014 35.8474 19.4373 35.9008 19.46 35.9601C19.4826 36.0194 19.4914 36.0831 19.4856 36.1463ZM19.0733 36.1647C19.0749 36.1434 19.0721 36.122 19.0652 36.1017C19.0582 36.0815 19.0472 36.0629 19.0329 36.047C18.9987 36.0209 18.9561 36.0084 18.9132 36.012H18.4163C18.4133 36.0573 18.4199 36.1027 18.4358 36.1452C18.4517 36.1877 18.4764 36.2263 18.5083 36.2586C18.5901 36.3217 18.6925 36.3519 18.7954 36.3432C18.8694 36.3491 18.9434 36.3338 19.0089 36.299C19.0302 36.284 19.0474 36.2638 19.0586 36.2403C19.0699 36.2168 19.075 36.1908 19.0733 36.1647Z" fill="white"/>
<path d="M20.943 36.1527C20.9482 36.2212 20.9376 36.2899 20.912 36.3537C20.8865 36.4175 20.8468 36.4746 20.7958 36.5206C20.676 36.6094 20.5287 36.6531 20.3799 36.6439H19.5425V36.3238H20.3081C20.3634 36.3288 20.4189 36.3159 20.4664 36.287C20.4824 36.2706 20.4946 36.2509 20.5022 36.2293C20.5098 36.2077 20.5127 36.1847 20.5105 36.1619C20.513 36.1385 20.5103 36.1149 20.5027 36.0926C20.495 36.0704 20.4826 36.0501 20.4664 36.0331C20.4196 36.0025 20.3637 35.9889 20.3081 35.9945H19.5425V35.0507H20.8639V35.3708H19.9345V35.6762H20.4517C20.586 35.6679 20.7183 35.7128 20.8197 35.8013C20.8624 35.8449 20.8956 35.8969 20.9173 35.954C20.9371 36.0183 20.9458 36.0855 20.943 36.1527Z" fill="white"/>
<path fill-rule="evenodd" clip-rule="evenodd" d="M22.3508 36.8L21.7122 36.6161L21.127 37.1514C21.127 37.1514 21.8539 37.3483 21.9588 37.3832C22.3269 37.4826 22.43 37.3832 22.5349 37.2802C22.7705 36.9674 22.3508 36.8 22.3508 36.8Z" fill="white"/>
<path fill-rule="evenodd" clip-rule="evenodd" d="M22.01 35.257C21.8517 34.8596 21.3788 34.7345 20.9168 34.7234C20.8969 34.7244 20.8779 34.7324 20.8633 34.746C20.8487 34.7596 20.8393 34.7779 20.8369 34.7977C20.8345 34.8175 20.8391 34.8375 20.85 34.8542C20.861 34.871 20.8774 34.8833 20.8966 34.889C21.1248 34.9442 21.4487 35.0932 21.4763 35.36C21.5205 35.7831 21.169 36.1492 20.8818 36.4105L20.8634 36.427C20.4485 36.7867 19.9598 37.0511 19.4316 37.2015C19.2482 37.2591 19.0595 37.2985 18.8684 37.3193C18.7262 37.3343 18.5825 37.33 18.4414 37.3064C18.3342 37.2885 18.2304 37.2538 18.1341 37.2034C18.0579 37.1634 17.9884 37.1119 17.928 37.0507C17.8797 37.0025 17.8382 36.9481 17.8046 36.8888C17.7899 36.8653 17.777 36.8407 17.766 36.8152L17.7494 36.7729C17.7446 36.7633 17.7391 36.7541 17.7329 36.7453C17.713 36.7165 17.6834 36.696 17.6495 36.6876C17.6157 36.6791 17.5799 36.6833 17.5488 36.6993C17.5283 36.7176 17.5132 36.7411 17.5051 36.7674C17.497 36.7937 17.4962 36.8216 17.5028 36.8483C17.5337 37.0178 17.5961 37.1801 17.6869 37.3266C17.8435 37.5584 18.0822 37.7221 18.3549 37.7847C18.6284 37.8448 18.9108 37.8516 19.1868 37.805C19.4314 37.7686 19.6727 37.7126 19.9083 37.6375C20.2403 37.5333 20.5581 37.3881 20.8542 37.2052C21.2208 36.9949 21.5378 36.7081 21.7837 36.3645C21.9264 36.1553 22.0143 35.9136 22.0395 35.6617C22.0565 35.5262 22.0465 35.3886 22.01 35.257Z" fill="white"/>
<path fill-rule="evenodd" clip-rule="evenodd" d="M17.9194 36.7375C18.2341 37.707 19.9697 36.8681 20.1279 36.6841C18.7311 37.4715 17.9194 36.7375 17.9194 36.7375Z" fill="white"/>
<path opacity="0.1" d="M37.1256 22.3463H11.7277V31.177H37.1256V22.3463Z" fill="white"/>

</svg>
