<svg width="20" height="20" viewBox="0 0 20 20" fill="none" xmlns="http://www.w3.org/2000/svg">
<g id="outline / calendar-clock">
<path id="shape" d="M13.3334 12.6667V14.0729L14.0834 14.9167M7.50004 9.16667H3.33337M16.6667 7.5V5.83333C16.6667 4.91286 15.9205 4.16667 15 4.16667H5.00004C4.07957 4.16667 3.33337 4.91286 3.33337 5.83333V15.8333C3.33337 16.7538 4.07957 17.5 5.00004 17.5H7.50004M12.5 2.5V5.83333M7.50004 2.5V5.83333M17.0834 14.1667C17.0834 16.2377 15.4044 17.9167 13.3334 17.9167C11.2623 17.9167 9.58337 16.2377 9.58337 14.1667C9.58337 12.0956 11.2623 10.4167 13.3334 10.4167C15.4044 10.4167 17.0834 12.0956 17.0834 14.1667Z" stroke="#F99C4D" stroke-width="1.5" stroke-linecap="round" stroke-linejoin="round"/>
</g>
</svg>
