<svg width="32" height="32" viewBox="0 0 32 32" fill="none" xmlns="http://www.w3.org/2000/svg">
<rect width="32" height="32" rx="6" fill="#ECFFF5"/>
<path d="M22.81 13.435V18.565C22.81 19.405 22.36 20.185 21.6325 20.6125L17.1775 23.185C16.45 23.605 15.55 23.605 14.815 23.185L10.36 20.6125C9.6325 20.1925 9.1825 19.4125 9.1825 18.565V13.435C9.1825 12.595 9.6325 11.815 10.36 11.3875L14.815 8.815C15.5425 8.395 16.4425 8.395 17.1775 8.815L21.6325 11.3875C22.36 11.815 22.81 12.5875 22.81 13.435Z" stroke="#00AD50" stroke-width="1.5" stroke-linecap="round" stroke-linejoin="round"/>
<path d="M15.9999 15.25C16.9651 15.25 17.7474 14.4676 17.7474 13.5025C17.7474 12.5374 16.9651 11.755 15.9999 11.755C15.0348 11.755 14.2524 12.5374 14.2524 13.5025C14.2524 14.4676 15.0348 15.25 15.9999 15.25Z" stroke="#00AD50" stroke-width="1.5" stroke-linecap="round" stroke-linejoin="round"/>
<path d="M19 19.495C19 18.145 17.6575 17.05 16 17.05C14.3425 17.05 13 18.145 13 19.495" stroke="#00AD50" stroke-width="1.5" stroke-linecap="round" stroke-linejoin="round"/>
</svg>
