<svg width="22" height="22" viewBox="0 0 22 22" fill="none" xmlns="http://www.w3.org/2000/svg">
<rect width="22" height="22" rx="11" fill="#00A9E9" fill-opacity="0.15"/>
<path d="M14.5936 13.4467L11.9003 11H10.0936L7.40031 13.4467C6.64698 14.1267 6.40031 15.1733 6.76698 16.12C7.13364 17.06 8.02698 17.6667 9.03364 17.6667H12.9603C13.9736 17.6667 14.8603 17.06 15.227 16.12C15.5936 15.1733 15.347 14.1267 14.5936 13.4467ZM12.2136 15.0933H9.78698C9.53364 15.0933 9.33364 14.8867 9.33364 14.64C9.33364 14.3933 9.54031 14.1867 9.78698 14.1867H12.2136C12.467 14.1867 12.667 14.3933 12.667 14.64C12.667 14.8867 12.4603 15.0933 12.2136 15.0933Z" fill="url(#paint0_linear_430_9717)"/>
<path d="M15.2331 5.87967C14.8664 4.93967 13.9731 4.33301 12.9664 4.33301H9.03311C8.02645 4.33301 7.13311 4.93967 6.76645 5.87967C6.40645 6.82634 6.65311 7.87301 7.40645 8.55301L10.0998 10.9997H11.9064L14.5998 8.55301C15.3464 7.87301 15.5931 6.82634 15.2331 5.87967ZM12.2131 7.81967H9.78645C9.53311 7.81967 9.33311 7.61301 9.33311 7.36634C9.33311 7.11967 9.53978 6.91301 9.78645 6.91301H12.2131C12.4664 6.91301 12.6664 7.11967 12.6664 7.36634C12.6664 7.61301 12.4598 7.81967 12.2131 7.81967Z" fill="url(#paint1_linear_430_9717)"/>
<defs>
<linearGradient id="paint0_linear_430_9717" x1="6.59961" y1="14.7545" x2="15.3944" y2="14.7456" gradientUnits="userSpaceOnUse">
<stop stop-color="#0086DA"/>
<stop offset="1" stop-color="#00A9E9"/>
<stop offset="1" stop-color="#00A9E9"/>
</linearGradient>
<linearGradient id="paint1_linear_430_9717" x1="6.60352" y1="8.08753" x2="15.3963" y2="8.07862" gradientUnits="userSpaceOnUse">
<stop stop-color="#0086DA"/>
<stop offset="1" stop-color="#00A9E9"/>
<stop offset="1" stop-color="#00A9E9"/>
</linearGradient>
</defs>
</svg>
