<svg width="36" height="36" viewBox="0 0 36 36" fill="none" xmlns="http://www.w3.org/2000/svg">
<path d="M15.9742 23.6254L23.2867 18.9379C23.6367 18.7129 23.8117 18.4004 23.8117 18.0004C23.8117 17.6004 23.6367 17.2879 23.2867 17.0629L15.9742 12.3754C15.5992 12.1254 15.2177 12.1064 14.8297 12.3184C14.4417 12.5304 14.2482 12.8619 14.2492 13.3129V22.6879C14.2492 23.1379 14.4432 23.4694 14.8312 23.6824C15.2192 23.8954 15.6002 23.8764 15.9742 23.6254ZM4.53668 19.5004C4.96168 19.5004 5.34318 19.6379 5.68118 19.9129C6.01918 20.1879 6.25018 20.5379 6.37418 20.9629C6.52418 21.5379 6.70568 22.0819 6.91868 22.5949C7.13168 23.1079 7.37518 23.6139 7.64918 24.1129C7.87418 24.4879 7.96818 24.8879 7.93118 25.3129C7.89418 25.7379 7.72518 26.1004 7.42418 26.4004C7.14918 26.6754 6.81168 26.8004 6.41168 26.7754C6.01168 26.7504 5.69918 26.5754 5.47418 26.2504C4.92418 25.4754 4.46168 24.6439 4.08668 23.7559C3.71168 22.8679 3.42418 21.9494 3.22418 21.0004C3.14918 20.6004 3.24318 20.2504 3.50618 19.9504C3.76918 19.6504 4.11268 19.5004 4.53668 19.5004ZM7.42418 9.60038C7.72418 9.90038 7.88668 10.2629 7.91168 10.6879C7.93668 11.1129 7.84918 11.5004 7.64918 11.8504C7.37418 12.3504 7.13068 12.8629 6.91868 13.3879C6.70668 13.9129 6.52518 14.4629 6.37418 15.0379C6.24918 15.4629 6.01768 15.8129 5.67968 16.0879C5.34168 16.3629 4.96118 16.5004 4.53818 16.5004C4.11318 16.5004 3.76968 16.3439 3.50768 16.0309C3.24568 15.7179 3.16418 15.3619 3.26318 14.9629C3.46318 14.0129 3.75068 13.0944 4.12568 12.2074C4.50068 11.3204 4.95068 10.4889 5.47568 9.71288C5.70068 9.38788 6.01318 9.21938 6.41318 9.20738C6.81318 9.19538 7.15068 9.32638 7.42568 9.60038H7.42418ZM9.52418 28.5379C9.82418 28.2129 10.1932 28.0379 10.6312 28.0129C11.0692 27.9879 11.4752 28.0879 11.8492 28.3129C12.3492 28.5879 12.8552 28.8379 13.3672 29.0629C13.8792 29.2879 14.4107 29.4754 14.9617 29.6254C15.3867 29.7504 15.7367 29.9754 16.0117 30.3004C16.2867 30.6254 16.4242 31.0004 16.4242 31.4254C16.4242 31.8504 16.2677 32.1879 15.9547 32.4379C15.6417 32.6879 15.2857 32.7754 14.8867 32.7004C13.9367 32.5004 13.0427 32.2129 12.2047 31.8379C11.3667 31.4629 10.5482 31.0254 9.74918 30.5254C9.39918 30.3004 9.20518 29.9879 9.16718 29.5879C9.12918 29.1879 9.24818 28.8379 9.52418 28.5379ZM16.4992 4.57538C16.4992 5.00038 16.3677 5.37538 16.1047 5.70038C15.8417 6.02538 15.4982 6.25038 15.0742 6.37538C14.4992 6.52538 13.9492 6.70688 13.4242 6.91988C12.8992 7.13288 12.3867 7.38888 11.8867 7.68788C11.5117 7.91288 11.1057 8.00688 10.6687 7.96988C10.2317 7.93288 9.86268 7.76388 9.56168 7.46288C9.26168 7.16288 9.13018 6.80688 9.16718 6.39488C9.20418 5.98288 9.39818 5.66388 9.74918 5.43788C10.5492 4.93788 11.3807 4.50638 12.2437 4.14338C13.1067 3.78038 14.0122 3.49938 14.9602 3.30038C15.3602 3.22538 15.7167 3.31288 16.0297 3.56288C16.3427 3.81288 16.4992 4.15038 16.4992 4.57538ZM29.9992 18.0004C29.9992 15.1754 29.1302 12.6814 27.3922 10.5184C25.6542 8.35538 23.4357 6.94938 20.7367 6.30038C20.3617 6.20038 20.0617 5.98788 19.8367 5.66288C19.6117 5.33788 19.4992 4.97538 19.4992 4.57538C19.4992 4.17538 19.6367 3.84438 19.9117 3.58238C20.1867 3.32038 20.4992 3.22638 20.8492 3.30038C24.3492 4.00038 27.2492 5.71288 29.5492 8.43788C31.8492 11.1629 32.9992 14.3504 32.9992 18.0004C32.9992 21.6504 31.8492 24.8379 29.5492 27.5629C27.2492 30.2879 24.3492 32.0004 20.8492 32.7004C20.4992 32.7754 20.1867 32.6814 19.9117 32.4184C19.6367 32.1554 19.4992 31.8244 19.4992 31.4254C19.4992 31.0254 19.6117 30.6629 19.8367 30.3379C20.0617 30.0129 20.3617 29.8004 20.7367 29.7004C23.4367 29.0504 25.6557 27.6439 27.3937 25.4809C29.1317 23.3179 30.0002 20.8244 29.9992 18.0004Z" fill="#474747"/>
</svg>
