<svg width="22" height="22" viewBox="0 0 22 22" fill="none" xmlns="http://www.w3.org/2000/svg">
<rect width="22" height="22" rx="11" fill="#00A9E9" fill-opacity="0.15"/>
<path d="M9.10026 7.99316C8.72693 7.99316 8.43359 8.29316 8.43359 8.65983C8.43359 9.0265 8.73359 9.3265 9.10026 9.3265C9.46693 9.3265 9.76693 9.0265 9.76693 8.65983C9.76693 8.29316 9.46693 7.99316 9.10026 7.99316Z" fill="url(#paint0_linear_430_9797)"/>
<path d="M17.3063 6.35967C16.7463 5.05967 15.513 4.33301 13.793 4.33301H8.20634C6.06634 4.33301 4.33301 6.06634 4.33301 8.20634V13.793C4.33301 15.513 5.05967 16.7463 6.35967 17.3063C6.48634 17.3597 6.63301 17.3263 6.72634 17.233L17.233 6.72634C17.333 6.62634 17.3663 6.47967 17.3063 6.35967ZM10.0197 11.1597C9.75967 11.413 9.41967 11.533 9.07967 11.533C8.73967 11.533 8.39967 11.4063 8.13967 11.1597C7.45967 10.5197 6.71301 9.49967 6.99967 8.28634C7.25301 7.18634 8.22634 6.69301 9.07967 6.69301C9.93301 6.69301 10.9063 7.18634 11.1597 8.29301C11.4397 9.49967 10.693 10.5197 10.0197 11.1597Z" fill="url(#paint1_linear_430_9797)"/>
<path d="M15.9803 16.6864C16.1269 16.833 16.1069 17.073 15.9269 17.173C15.3403 17.4997 14.6269 17.6664 13.7936 17.6664H8.20692C8.01359 17.6664 7.93359 17.4397 8.06692 17.3064L12.0936 13.2797C12.2269 13.1464 12.4336 13.1464 12.5669 13.2797L15.9803 16.6864Z" fill="url(#paint2_linear_430_9797)"/>
<path d="M17.6662 8.20692V13.7936C17.6662 14.6269 17.4995 15.3469 17.1729 15.9269C17.0729 16.1069 16.8329 16.1203 16.6862 15.9803L13.2729 12.5669C13.1395 12.4336 13.1395 12.2269 13.2729 12.0936L17.2995 8.06692C17.4395 7.93359 17.6662 8.01359 17.6662 8.20692Z" fill="url(#paint3_linear_430_9797)"/>
<defs>
<linearGradient id="paint0_linear_430_9797" x1="8.43359" y1="8.74407" x2="9.76693" y2="8.74304" gradientUnits="userSpaceOnUse">
<stop stop-color="#0086DA"/>
<stop offset="1" stop-color="#00A9E9"/>
<stop offset="1" stop-color="#00A9E9"/>
</linearGradient>
<linearGradient id="paint1_linear_430_9797" x1="4.33301" y1="11.6536" x2="17.3363" y2="11.6436" gradientUnits="userSpaceOnUse">
<stop stop-color="#0086DA"/>
<stop offset="1" stop-color="#00A9E9"/>
<stop offset="1" stop-color="#00A9E9"/>
</linearGradient>
<linearGradient id="paint2_linear_430_9797" x1="8.00098" y1="15.7065" x2="16.0777" y2="15.6953" gradientUnits="userSpaceOnUse">
<stop stop-color="#0086DA"/>
<stop offset="1" stop-color="#00A9E9"/>
<stop offset="1" stop-color="#00A9E9"/>
</linearGradient>
<linearGradient id="paint3_linear_430_9797" x1="13.1729" y1="12.548" x2="17.6662" y2="12.5461" gradientUnits="userSpaceOnUse">
<stop stop-color="#0086DA"/>
<stop offset="1" stop-color="#00A9E9"/>
<stop offset="1" stop-color="#00A9E9"/>
</linearGradient>
</defs>
</svg>
