<svg width="16" height="17" viewBox="0 0 16 17" fill="none" xmlns="http://www.w3.org/2000/svg">
<path d="M5.78125 10.4881C5.78125 11.3481 6.44125 12.0415 7.26125 12.0415H8.93458C9.64792 12.0415 10.2279 11.4348 10.2279 10.6881C10.2279 9.87479 9.87458 9.58812 9.34792 9.40146L6.66125 8.46813C6.13458 8.28146 5.78125 7.99479 5.78125 7.18146C5.78125 6.43479 6.36125 5.82812 7.07458 5.82812H8.74792C9.56792 5.82812 10.2279 6.52146 10.2279 7.38146" stroke="#C80FF6" stroke-linecap="round" stroke-linejoin="round"/>
<path d="M8 4.93457V12.9346" stroke="#C80FF6" stroke-linecap="round" stroke-linejoin="round"/>
<path d="M7.99967 15.6009C11.6816 15.6009 14.6663 12.6161 14.6663 8.93424C14.6663 5.25235 11.6816 2.26758 7.99967 2.26758C4.31778 2.26758 1.33301 5.25235 1.33301 8.93424C1.33301 12.6161 4.31778 15.6009 7.99967 15.6009Z" stroke="#C80FF6" stroke-linecap="round" stroke-linejoin="round"/>
</svg>
