<svg width="20" height="20" viewBox="0 0 20 20" fill="none" xmlns="http://www.w3.org/2000/svg">
<path d="M15.1833 17.2917H4.81668C4.52769 17.2799 4.24386 17.2112 3.98144 17.0896C3.71901 16.968 3.48314 16.7959 3.28731 16.583C3.09149 16.3702 2.93956 16.1208 2.84021 15.8492C2.74086 15.5775 2.69606 15.289 2.70835 15V12.5C2.70835 12.3342 2.7742 12.1753 2.89141 12.0581C3.00862 11.9408 3.16759 11.875 3.33335 11.875C3.49911 11.875 3.65808 11.9408 3.77529 12.0581C3.8925 12.1753 3.95835 12.3342 3.95835 12.5V15C3.93683 15.2474 4.01138 15.4937 4.16654 15.6876C4.3217 15.8816 4.54555 16.0083 4.79168 16.0417H15.1833C15.4295 16.0083 15.6533 15.8816 15.8085 15.6876C15.9636 15.4937 16.0382 15.2474 16.0167 15V12.5C16.0167 12.3342 16.0825 12.1753 16.1997 12.0581C16.317 11.9408 16.4759 11.875 16.6417 11.875C16.8074 11.875 16.9664 11.9408 17.0836 12.0581C17.2008 12.1753 17.2667 12.3342 17.2667 12.5V15C17.2916 15.5795 17.0867 16.1454 16.6966 16.5745C16.3064 17.0037 15.7626 17.2614 15.1833 17.2917Z" fill="#474747"/>
<path d="M9.99999 13.125C9.91788 13.1254 9.83651 13.1094 9.76067 13.0779C9.68482 13.0464 9.61603 13.0001 9.55833 12.9417L6.22499 9.60833C6.11459 9.48985 6.05449 9.33314 6.05735 9.17123C6.06021 9.00931 6.1258 8.85482 6.24031 8.74031C6.35482 8.6258 6.50931 8.56021 6.67123 8.55735C6.83314 8.55449 6.98985 8.61459 7.10833 8.72499L9.99999 11.6167L12.8917 8.72499C13.0101 8.61459 13.1668 8.55449 13.3288 8.55735C13.4907 8.56021 13.6452 8.6258 13.7597 8.74031C13.8742 8.85482 13.9398 9.00931 13.9426 9.17123C13.9455 9.33314 13.8854 9.48985 13.775 9.60833L10.4417 12.9417C10.384 13.0001 10.3152 13.0464 10.2393 13.0779C10.1635 13.1094 10.0821 13.1254 9.99999 13.125Z" fill="#474747"/>
<path d="M10 13.125C9.83491 13.1229 9.67719 13.0563 9.56045 12.9396C9.4437 12.8228 9.37716 12.6651 9.375 12.5V3.33337C9.375 3.16761 9.44085 3.00864 9.55806 2.89143C9.67527 2.77422 9.83424 2.70837 10 2.70837C10.1658 2.70837 10.3247 2.77422 10.4419 2.89143C10.5592 3.00864 10.625 3.16761 10.625 3.33337V12.5C10.6228 12.6651 10.5563 12.8228 10.4396 12.9396C10.3228 13.0563 10.1651 13.1229 10 13.125Z" fill="#474747"/>
</svg>
