<svg width="20" height="20" viewBox="0 0 20 20" fill="none" xmlns="http://www.w3.org/2000/svg">
<path d="M17.4616 4.78848L17.4615 4.78831C17.4568 4.7811 17.4513 4.77436 17.4452 4.76822C17.4451 4.76816 17.4451 4.76809 17.445 4.76802L15.0883 2.41217C15.0883 2.41213 15.0882 2.41209 15.0882 2.41205C15.0648 2.38872 15.033 2.37561 15 2.37561C14.9669 2.37561 14.9352 2.38872 14.9117 2.41206L17.4616 4.78848ZM17.4616 4.78848C17.4774 4.81251 17.4845 4.84127 17.4816 4.86991C17.4787 4.89855 17.466 4.9253 17.4456 4.94565L17.4456 4.94565L9.78486 12.6056L17.4616 4.78848ZM7.24216 10.0767L14.9116 2.41217L9.78477 12.6057C9.76919 12.6212 9.74979 12.6323 9.72853 12.638C9.72841 12.638 9.7283 12.638 9.72819 12.6381L6.53795 13.4712C6.5379 13.4713 6.53785 13.4713 6.53779 13.4713C6.51675 13.4767 6.49464 13.4766 6.47365 13.4709C6.45261 13.4652 6.43343 13.4541 6.41802 13.4387C6.40261 13.4233 6.39149 13.4041 6.38578 13.383C6.38006 13.362 6.37995 13.3398 6.38545 13.3187L7.21874 10.1289L7.21875 10.1289L7.21958 10.1257C7.22405 10.1081 7.23172 10.0914 7.24216 10.0767ZM16.8269 5.21026L17.1805 4.85661L16.8268 4.50307L15.3534 3.03057L14.9999 2.67722L14.6464 3.03067L7.54809 10.129L7.45215 10.2249L7.41787 10.3562L6.89703 12.3504L6.68135 13.1762L7.50716 12.9605L9.50132 12.4397L9.63261 12.4054L9.72855 12.3094L16.8269 5.21026Z" stroke="#474747"/>
<mask id="path-2-inside-1_16_5569" fill="white">
<path d="M16.3675 14.3C16.5953 12.3533 16.668 10.3915 16.585 8.43332C16.5832 8.38719 16.5909 8.34117 16.6077 8.29816C16.6245 8.25514 16.6499 8.21605 16.6825 8.18332L17.5025 7.36332C17.5249 7.34079 17.5533 7.3252 17.5844 7.31844C17.6155 7.31168 17.6478 7.31403 17.6775 7.32521C17.7073 7.33638 17.7332 7.35591 17.7521 7.38145C17.771 7.40698 17.7821 7.43744 17.7842 7.46915C17.9385 9.79518 17.8799 12.1305 17.6092 14.4458C17.4125 16.1308 16.0592 17.4517 14.3817 17.6392C11.4695 17.9617 8.53055 17.9617 5.61834 17.6392C3.94167 17.4517 2.58751 16.1308 2.39084 14.4458C2.04534 11.492 2.04534 8.50797 2.39084 5.55415C2.58751 3.86915 3.94084 2.54832 5.61834 2.36082C7.82865 2.11572 10.0556 2.05635 12.2758 2.18332C12.3076 2.1856 12.3381 2.19694 12.3636 2.216C12.3891 2.23505 12.4087 2.26102 12.4199 2.29084C12.4311 2.32065 12.4335 2.35306 12.4269 2.38422C12.4203 2.41538 12.4049 2.44398 12.3825 2.46665L11.555 3.29332C11.5226 3.32561 11.4839 3.35092 11.4413 3.36769C11.3988 3.38446 11.3532 3.39233 11.3075 3.39082C9.4548 3.32784 7.59997 3.39886 5.75751 3.60332C5.21912 3.66291 4.71655 3.90226 4.33097 4.2827C3.94539 4.66314 3.69932 5.16245 3.63251 5.69999C3.29838 8.55692 3.29838 11.4431 3.63251 14.3C3.69932 14.8375 3.94539 15.3368 4.33097 15.7173C4.71655 16.0977 5.21912 16.3371 5.75751 16.3967C8.55334 16.7092 11.4467 16.7092 14.2433 16.3967C14.7817 16.3371 15.2843 16.0977 15.6699 15.7173C16.0555 15.3368 16.3007 14.8375 16.3675 14.3Z"/>
</mask>
<path d="M16.3675 14.3L17.3599 14.4233L17.3607 14.4162L16.3675 14.3ZM16.585 8.43332L15.5858 8.47244L15.5859 8.47567L16.585 8.43332ZM16.6825 8.18332L15.9754 7.47621L15.9736 7.47802L16.6825 8.18332ZM17.5025 7.36332L18.2096 8.07043L18.2116 8.06843L17.5025 7.36332ZM17.7842 7.46915L16.7862 7.53285L16.7864 7.53536L17.7842 7.46915ZM17.6092 14.4458L16.6159 14.3297L16.6159 14.3299L17.6092 14.4458ZM14.3817 17.6392L14.4917 18.6331L14.4928 18.633L14.3817 17.6392ZM5.61834 17.6392L5.5072 18.633L5.50827 18.6331L5.61834 17.6392ZM2.39084 14.4458L3.3841 14.3299L3.38407 14.3296L2.39084 14.4458ZM2.39084 5.55415L3.38407 5.67033L3.3841 5.67008L2.39084 5.55415ZM5.61834 2.36082L5.50813 1.36691L5.50726 1.36701L5.61834 2.36082ZM12.2758 2.18332L12.3475 1.18589L12.3402 1.18537L12.3329 1.18495L12.2758 2.18332ZM12.3825 2.46665L13.0893 3.17413L13.0941 3.16922L12.3825 2.46665ZM11.555 3.29332L12.2608 4.00173L12.2618 4.00078L11.555 3.29332ZM11.3075 3.39082L11.2735 4.39024L11.2745 4.39028L11.3075 3.39082ZM5.75751 3.60332L5.86752 4.59725L5.8678 4.59722L5.75751 3.60332ZM3.63251 5.69999L2.64012 5.57664L2.63928 5.58383L3.63251 5.69999ZM3.63251 14.3L2.63925 14.4162L2.64014 14.4233L3.63251 14.3ZM5.75751 16.3967L5.86859 15.4028L5.86752 15.4027L5.75751 16.3967ZM14.2433 16.3967L14.1333 15.4027L14.1323 15.4028L14.2433 16.3967ZM17.3607 14.4162C17.5947 12.4169 17.6694 10.4021 17.5841 8.39097L15.5859 8.47567C15.6667 10.381 15.5959 12.2897 15.3743 14.1838L17.3607 14.4162ZM17.5842 8.3942C17.5878 8.48544 17.5725 8.57644 17.5394 8.6615L15.676 7.93481C15.6093 8.10591 15.5786 8.28893 15.5858 8.47244L17.5842 8.3942ZM17.5394 8.6615C17.5062 8.74655 17.4558 8.82387 17.3914 8.88862L15.9736 7.47802C15.8441 7.60823 15.7428 7.76373 15.676 7.93481L17.5394 8.6615ZM17.3896 8.89043L18.2096 8.07043L16.7954 6.65621L15.9754 7.47621L17.3896 8.89043ZM18.2116 8.06843C18.0982 8.18245 17.9543 8.26133 17.7972 8.29554L17.3716 6.34134C17.1524 6.38908 16.9516 6.49912 16.7934 6.65821L18.2116 8.06843ZM17.7972 8.29554C17.64 8.32976 17.4764 8.31787 17.3258 8.26131L18.0293 6.3891C17.8192 6.31019 17.5909 6.2936 17.3716 6.34134L17.7972 8.29554ZM17.3258 8.26131C17.1753 8.20474 17.0443 8.10591 16.9485 7.97668L18.5556 6.78622C18.4221 6.60592 18.2393 6.46802 18.0293 6.3891L17.3258 8.26131ZM16.9485 7.97668C16.8528 7.84745 16.7964 7.69333 16.7862 7.53285L18.7821 7.40546C18.7679 7.18155 18.6892 6.96652 18.5556 6.78622L16.9485 7.97668ZM16.7864 7.53536C16.9367 9.80059 16.8796 12.0748 16.6159 14.3297L18.6024 14.562C18.8802 12.1861 18.9403 9.78977 18.782 7.40295L16.7864 7.53536ZM16.6159 14.3299C16.4742 15.5444 15.4939 16.5086 14.2706 16.6453L14.4928 18.633C16.6245 18.3947 18.3508 16.7173 18.6024 14.5617L16.6159 14.3299ZM14.2716 16.6452C11.4325 16.9596 8.56746 16.9596 5.72841 16.6452L5.50827 18.6331C8.49364 18.9637 11.5064 18.9637 14.4917 18.6331L14.2716 16.6452ZM5.72948 16.6453C4.50679 16.5086 3.52583 15.5442 3.3841 14.3299L1.39758 14.5617C1.64918 16.7174 3.37655 18.3947 5.5072 18.633L5.72948 16.6453ZM3.38407 14.3296C3.0476 11.453 3.0476 8.54696 3.38407 5.67033L1.39761 5.43798C1.04308 8.46899 1.04308 11.531 1.39761 14.562L3.38407 14.3296ZM3.3841 5.67008C3.52585 4.45559 4.50613 3.49136 5.72942 3.35463L5.50726 1.36701C3.37555 1.60528 1.64916 3.28272 1.39758 5.43822L3.3841 5.67008ZM5.72855 3.35473C7.88331 3.11579 10.0543 3.05791 12.2187 3.18169L12.3329 1.18495C10.0569 1.05479 7.77398 1.11565 5.50813 1.36691L5.72855 3.35473ZM12.2042 3.18075C12.0453 3.16935 11.8931 3.11265 11.7654 3.01737L12.9618 1.41462C12.7831 1.28124 12.5699 1.20186 12.3475 1.18589L12.2042 3.18075ZM11.7654 3.01737C11.6378 2.92209 11.5401 2.79223 11.484 2.64317L13.3558 1.93851C13.2772 1.72982 13.1405 1.54801 12.9618 1.41462L11.7654 3.01737ZM11.484 2.64317C11.4279 2.49411 11.4157 2.33208 11.4488 2.17627L13.4051 2.59216C13.4514 2.37403 13.4343 2.1472 13.3558 1.93851L11.484 2.64317ZM11.4488 2.17627C11.4819 2.02048 11.559 1.87744 11.6709 1.76409L13.0941 3.16922C13.2508 3.01053 13.3587 2.81027 13.4051 2.59216L11.4488 2.17627ZM11.6758 1.75919L10.8483 2.58586L12.2618 4.00078L13.0893 3.17412L11.6758 1.75919ZM10.8492 2.58491C10.9135 2.52081 10.9903 2.47057 11.0748 2.43728L11.8079 4.2981C11.9775 4.23127 12.1317 4.13041 12.2608 4.00173L10.8492 2.58491ZM11.0748 2.43728C11.1593 2.40399 11.2497 2.38837 11.3405 2.39136L11.2745 4.39028C11.4567 4.39629 11.6382 4.36492 11.8079 4.2981L11.0748 2.43728ZM11.3415 2.3914C9.44062 2.32678 7.53757 2.39965 5.64721 2.60942L5.8678 4.59722C7.66237 4.39807 9.46899 4.3289 11.2735 4.39024L11.3415 2.3914ZM5.64749 2.60939C4.88556 2.69372 4.17431 3.03245 3.62862 3.57086L5.03331 4.99453C5.25879 4.77206 5.55268 4.6321 5.86752 4.59725L5.64749 2.60939ZM3.62862 3.57086C3.08294 4.10927 2.73469 4.81591 2.64014 5.57664L4.62487 5.82333C4.66394 5.50899 4.80784 5.217 5.03331 4.99453L3.62862 3.57086ZM2.63928 5.58383C2.29612 8.51793 2.29612 11.482 2.63928 14.4161L4.62574 14.1838C4.30064 11.4041 4.30064 8.5959 4.62574 5.81615L2.63928 5.58383ZM2.64014 14.4233C2.73469 15.1841 3.08294 15.8907 3.62862 16.4291L5.03331 15.0054C4.80784 14.783 4.66394 14.491 4.62487 14.1766L2.64014 14.4233ZM3.62862 16.4291C4.17431 16.9675 4.88556 17.3063 5.64749 17.3906L5.86752 15.4027C5.55269 15.3679 5.25879 15.2279 5.03331 15.0054L3.62862 16.4291ZM5.64642 17.3905C8.51609 17.7112 11.4839 17.7112 14.3544 17.3905L14.1323 15.4028C11.4094 15.7071 8.59059 15.7071 5.86859 15.4028L5.64642 17.3905ZM14.3533 17.3906C15.1153 17.3063 15.8265 16.9675 16.3722 16.4291L14.9675 15.0054C14.7421 15.2279 14.4482 15.3679 14.1333 15.4027L14.3533 17.3906ZM16.3722 16.4291C16.9186 15.89 17.2654 15.1831 17.3599 14.4233L15.3751 14.1766C15.3359 14.492 15.1923 14.7837 14.9675 15.0054L16.3722 16.4291Z" fill="#474747" mask="url(#path-2-inside-1_16_5569)"/>
</svg>
