<svg width="32" height="32" viewBox="0 0 32 32" fill="none" xmlns="http://www.w3.org/2000/svg">
<defs>
<linearGradient id="paint0_linear_45_94" x1="13.75" y1="16.2843" x2="18.25" y2="16.2808" gradientUnits="userSpaceOnUse">
<stop stop-color="#0086DA"/>
<stop offset="1" stop-color="#00A9E9"/>
<stop offset="1" stop-color="#00A9E9"/>
</linearGradient>
<linearGradient id="paint1_linear_45_94" x1="8.5" y1="16.8945" x2="23.5076" y2="16.8822" gradientUnits="userSpaceOnUse">
<stop stop-color="#0086DA"/>
<stop offset="1" stop-color="#00A9E9"/>
<stop offset="1" stop-color="#00A9E9"/>
</linearGradient>
</defs>
<rect width="32" height="32" rx="6" fill="#DDF4FF"/>
<path d="M16 18.25C17.2426 18.25 18.25 17.2426 18.25 16C18.25 14.7574 17.2426 13.75 16 13.75C14.7574 13.75 13.75 14.7574 13.75 16C13.75 17.2426 14.7574 18.25 16 18.25Z" stroke="url(#paint0_linear_45_94)" stroke-width="1.2" stroke-miterlimit="10" stroke-linecap="round" stroke-linejoin="round"/>
<path d="M8.5 16.66V15.34C8.5 14.56 9.1375 13.915 9.925 13.915C11.2825 13.915 11.8375 12.955 11.155 11.7775C10.765 11.1025 10.9975 10.225 11.68 9.83495L12.9775 9.09245C13.57 8.73995 14.335 8.94995 14.6875 9.54245L14.77 9.68495C15.445 10.8625 16.555 10.8625 17.2375 9.68495L17.32 9.54245C17.6725 8.94995 18.4375 8.73995 19.03 9.09245L20.3275 9.83495C21.01 10.225 21.2425 11.1025 20.8525 11.7775C20.17 12.955 20.725 13.915 22.0825 13.915C22.8625 13.915 23.5075 14.5525 23.5075 15.34V16.66C23.5075 17.44 22.87 18.085 22.0825 18.085C20.725 18.085 20.17 19.045 20.8525 20.2225C21.2425 20.905 21.01 21.775 20.3275 22.165L19.03 22.9075C18.4375 23.26 17.6725 23.05 17.32 22.4575L17.2375 22.315C16.5625 21.1375 15.4525 21.1375 14.77 22.315L14.6875 22.4575C14.335 23.05 13.57 23.26 12.9775 22.9075L11.68 22.165C10.9975 21.775 10.765 20.8975 11.155 20.2225C11.8375 19.045 11.2825 18.085 9.925 18.085C9.1375 18.085 8.5 17.44 8.5 16.66Z" stroke="url(#paint1_linear_45_94)" stroke-width="1.2" stroke-miterlimit="10" stroke-linecap="round" stroke-linejoin="round"/>

</svg>
