<svg width="22" height="22" viewBox="0 0 22 22" fill="none" xmlns="http://www.w3.org/2000/svg">
<rect width="22" height="22" rx="11" fill="#00A9E9" fill-opacity="0.15"/>
<path d="M12.2597 4.92009L9.133 4.42676C6.52634 4.02009 5.31967 4.90009 4.90634 7.50676L4.413 10.6334C4.14634 12.3401 4.42634 13.4468 5.393 14.1201C5.89967 14.4801 6.593 14.7201 7.493 14.8601L10.6197 15.3534C13.2263 15.7601 14.433 14.8801 14.8463 12.2734L15.333 9.14676C15.413 8.63343 15.4463 8.17343 15.4197 7.76676C15.333 6.10009 14.353 5.24676 12.2597 4.92009ZM8.493 9.23343C7.713 9.23343 7.07967 8.60009 7.07967 7.82676C7.07967 7.04676 7.713 6.41343 8.493 6.41343C9.26634 6.41343 9.89967 7.04676 9.89967 7.82676C9.89967 8.60009 9.26634 9.23343 8.493 9.23343Z" fill="url(#paint0_linear_430_9782)"/>
<path d="M16.6668 11.9804L15.6668 14.987C14.8334 17.4937 13.5001 18.1604 10.9934 17.327L7.98676 16.327C7.04676 16.0137 6.36676 15.627 5.92676 15.1404C6.34676 15.307 6.83342 15.4337 7.38676 15.5204L10.5201 16.0137C10.9468 16.0804 11.3468 16.1137 11.7201 16.1137C13.9201 16.1137 15.1001 14.927 15.5068 12.3737L15.9934 9.24703C16.0601 8.86036 16.0868 8.52036 16.0868 8.20703C17.1001 9.04036 17.2468 10.227 16.6668 11.9804Z" fill="url(#paint1_linear_430_9782)"/>
<defs>
<linearGradient id="paint0_linear_430_9782" x1="4.31738" y1="10.5924" x2="15.4288" y2="10.5839" gradientUnits="userSpaceOnUse">
<stop stop-color="#0086DA"/>
<stop offset="1" stop-color="#00A9E9"/>
<stop offset="1" stop-color="#00A9E9"/>
</linearGradient>
<linearGradient id="paint1_linear_430_9782" x1="5.92676" y1="13.5348" x2="17.0056" y2="13.5249" gradientUnits="userSpaceOnUse">
<stop stop-color="#0086DA"/>
<stop offset="1" stop-color="#00A9E9"/>
<stop offset="1" stop-color="#00A9E9"/>
</linearGradient>
</defs>
</svg>
