<svg width="25" height="26" viewBox="0 0 25 26" fill="none" xmlns="http://www.w3.org/2000/svg">
<path d="M12.5913 0.5C5.98769 0.5 0.615234 6.1075 0.615234 13C0.615234 19.8925 5.98769 25.5 12.5913 25.5C19.1949 25.5 24.5673 19.8925 24.5673 13C24.5673 6.1075 19.1949 0.5 12.5913 0.5ZM12.5913 23.2273C7.18834 23.2273 2.7927 18.6393 2.7927 13C2.7927 7.36068 7.18834 2.77273 12.5913 2.77273C17.9942 2.77273 22.3899 7.36068 22.3899 13C22.3899 18.6393 17.9942 23.2273 12.5913 23.2273Z" fill="#474747"/>
<path d="M16.0018 16.7606C14.1382 18.7214 11.1063 18.7215 9.24274 16.7607C8.75165 16.2439 7.95527 16.2439 7.46409 16.7607C6.97291 17.2776 6.97291 18.1154 7.46409 18.6323C8.88639 20.1289 10.7539 20.8769 12.6223 20.8769C14.4901 20.8769 16.3585 20.1285 17.7805 18.6323C18.2717 18.1155 18.2717 17.2776 17.7805 16.7607C17.2893 16.2438 16.4929 16.2439 16.0018 16.7606Z" fill="#474747"/>
<path d="M8.44068 11.6312C8.75343 11.303 8.93203 10.8478 8.93203 10.3837C8.93203 9.91961 8.75343 9.46435 8.44068 9.13615C8.12877 8.80795 7.69611 8.61914 7.25508 8.61914C6.81312 8.61914 6.38138 8.80795 6.06939 9.13615C5.75672 9.46435 5.57812 9.91961 5.57812 10.3837C5.57812 10.8478 5.75672 11.303 6.06939 11.6312C6.38138 11.9603 6.81404 12.1482 7.25508 12.1482C7.69611 12.1482 8.12877 11.9603 8.44068 11.6312Z" fill="#474747"/>
<path d="M17.9875 8.61914C17.5465 8.61914 17.1138 8.80795 16.8018 9.13615C16.49 9.46435 16.3105 9.91872 16.3105 10.3837C16.3105 10.8486 16.49 11.303 16.8018 11.6312C17.1138 11.9603 17.5465 12.1482 17.9875 12.1482C18.4285 12.1482 18.8612 11.9603 19.1731 11.6312C19.485 11.303 19.6644 10.8486 19.6644 10.3837C19.6644 9.91961 19.4849 9.46435 19.1731 9.13615C18.8612 8.80795 18.4285 8.61914 17.9875 8.61914Z" fill="#474747"/>
</svg>
