<svg width="23" height="20" viewBox="0 0 23 20" fill="none" xmlns="http://www.w3.org/2000/svg">
<path d="M10.8671 3.90266L11.4998 4.89697L12.1326 3.90266C13.088 2.40135 14.7758 1.4375 16.7082 1.4375C19.7315 1.4375 22.2082 3.91421 22.2082 6.9375C22.2082 8.27434 21.5914 9.6814 20.563 11.0838C19.5403 12.4784 18.1603 13.8002 16.7541 14.9508C15.3515 16.0983 13.9453 17.0574 12.8875 17.7305C12.3594 18.0666 11.92 18.3302 11.6138 18.5092C11.574 18.5325 11.5364 18.5543 11.5013 18.5746C11.4658 18.554 11.428 18.5319 11.3879 18.5083C11.0816 18.3279 10.6421 18.0624 10.1138 17.7243C9.05589 17.0471 7.64927 16.0829 6.24639 14.9319C4.83979 13.7778 3.45937 12.4541 2.43632 11.0614C1.40712 9.66026 0.791504 8.26009 0.791504 6.9375C0.791504 3.91421 3.26822 1.4375 6.2915 1.4375C8.2239 1.4375 9.91172 2.40135 10.8671 3.90266Z" fill="url(#paint0_linear_2342_22976)" stroke="url(#paint1_linear_2342_22976)" stroke-width="1.5"/>
<defs>
<linearGradient id="paint0_linear_2342_22976" x1="0.0415037" y1="11.2471" x2="22.9583" y2="11.2256" gradientUnits="userSpaceOnUse">
<stop stop-color="#0086DA"/>
<stop offset="1" stop-color="#00A9E9"/>
<stop offset="1" stop-color="#00A9E9"/>
</linearGradient>
<linearGradient id="paint1_linear_2342_22976" x1="0.0415037" y1="11.2471" x2="22.9583" y2="11.2256" gradientUnits="userSpaceOnUse">
<stop stop-color="#0086DA"/>
<stop offset="1" stop-color="#00A9E9"/>
<stop offset="1" stop-color="#00A9E9"/>
</linearGradient>
</defs>
</svg>
