<svg width="20" height="20" viewBox="0 0 20 20" fill="none" xmlns="http://www.w3.org/2000/svg">
<path d="M2.15016 15.8419L2.1335 15.8586C1.9085 15.3669 1.76683 14.8086 1.7085 14.1919C1.76683 14.8002 1.92516 15.3502 2.15016 15.8419Z" fill="url(#paint0_linear_3659_7515)"/>
<path d="M7.49994 8.64977C8.5953 8.64977 9.48327 7.7618 9.48327 6.66644C9.48327 5.57107 8.5953 4.68311 7.49994 4.68311C6.40457 4.68311 5.5166 5.57107 5.5166 6.66644C5.5166 7.7618 6.40457 8.64977 7.49994 8.64977Z" fill="url(#paint1_linear_3659_7515)"/>
<path d="M13.4915 1.6665H6.50817C3.47484 1.6665 1.6665 3.47484 1.6665 6.50817V13.4915C1.6665 14.3998 1.82484 15.1915 2.13317 15.8582C2.84984 17.4415 4.38317 18.3332 6.50817 18.3332H13.4915C16.5248 18.3332 18.3332 16.5248 18.3332 13.4915V11.5832V6.50817C18.3332 3.47484 16.5248 1.6665 13.4915 1.6665ZM16.9748 10.4165C16.3248 9.85817 15.2748 9.85817 14.6248 10.4165L11.1582 13.3915C10.5082 13.9498 9.45817 13.9498 8.80817 13.3915L8.52484 13.1582C7.93317 12.6415 6.9915 12.5915 6.32484 13.0415L3.20817 15.1332C3.02484 14.6665 2.9165 14.1248 2.9165 13.4915V6.50817C2.9165 4.15817 4.15817 2.9165 6.50817 2.9165H13.4915C15.8415 2.9165 17.0832 4.15817 17.0832 6.50817V10.5082L16.9748 10.4165Z" fill="url(#paint2_linear_3659_7515)"/>
<defs>
<linearGradient id="paint0_linear_3659_7515" x1="1.7085" y1="15.0252" x2="2.12366" y2="15.0252" gradientUnits="userSpaceOnUse">
<stop stop-color="#3BA59B"/>
<stop offset="1" stop-color="#6CD495"/>
</linearGradient>
<linearGradient id="paint1_linear_3659_7515" x1="5.5166" y1="6.66644" x2="9.24527" y2="6.66644" gradientUnits="userSpaceOnUse">
<stop stop-color="#3BA59B"/>
<stop offset="1" stop-color="#6CD495"/>
</linearGradient>
<linearGradient id="paint2_linear_3659_7515" x1="1.6665" y1="9.99984" x2="17.3332" y2="9.99984" gradientUnits="userSpaceOnUse">
<stop stop-color="#3BA59B"/>
<stop offset="1" stop-color="#6CD495"/>
</linearGradient>
</defs>
</svg>
