<svg width="24" height="25" viewBox="0 0 24 25" fill="none" xmlns="http://www.w3.org/2000/svg">
<path d="M17.76 2.41992C16.6061 2.41992 15.5217 2.86955 14.7057 3.68555L12.3057 6.08555C11.6121 6.77915 11.1833 7.66665 11.07 8.62617C11.0504 8.79513 11.04 8.96712 11.04 9.13992C11.04 9.79656 11.1906 10.4296 11.4666 11.0046L12.1988 10.2715C12.0706 9.91244 12 9.53208 12 9.13992C12 8.24232 12.3499 7.39934 12.9844 6.7643L15.3844 4.3643C16.0195 3.72974 16.8624 3.37992 17.76 3.37992C18.6576 3.37992 19.5006 3.72974 20.1357 4.3643C20.7707 4.99886 21.12 5.84232 21.12 6.73992C21.12 7.63752 20.7702 8.48051 20.1357 9.11555L17.7357 11.5155C17.1006 12.1501 16.2576 12.4999 15.36 12.4999C14.9679 12.4999 14.5875 12.4293 14.2285 12.3012L13.4954 13.0334C14.0704 13.3094 14.7034 13.4599 15.36 13.4599C16.514 13.4599 17.5984 13.0103 18.4144 12.1943L20.8144 9.7943C21.6304 8.9783 22.08 7.89384 22.08 6.73992C22.08 5.586 21.6304 4.50155 20.8144 3.68555C19.9984 2.86955 18.914 2.41992 17.76 2.41992ZM14.8707 9.13523C14.746 9.13895 14.6276 9.19107 14.5407 9.28055L8.78067 15.0405C8.7346 15.0848 8.69782 15.1378 8.67248 15.1964C8.64715 15.255 8.63376 15.3181 8.63311 15.3819C8.63246 15.4458 8.64456 15.5092 8.6687 15.5683C8.69284 15.6274 8.72853 15.6811 8.77369 15.7263C8.81885 15.7714 8.87256 15.8071 8.93169 15.8313C8.99081 15.8554 9.05416 15.8675 9.11802 15.8669C9.18188 15.8662 9.24497 15.8528 9.30359 15.8275C9.36221 15.8021 9.41519 15.7654 9.45942 15.7193L15.2194 9.9593C15.2888 9.89187 15.3362 9.80507 15.3553 9.71026C15.3745 9.61545 15.3646 9.51706 15.3269 9.42798C15.2892 9.3389 15.2255 9.26328 15.1441 9.21105C15.0627 9.15881 14.9674 9.13238 14.8707 9.13523ZM8.64004 11.5399C7.48612 11.5399 6.40167 11.9895 5.58567 12.8055L3.18567 15.2055C2.43495 15.9558 1.99424 16.9336 1.92848 17.9834C1.92272 18.075 1.92004 18.1673 1.92004 18.2599C1.92004 19.4138 2.36967 20.4983 3.18567 21.3143C4.00167 22.1303 5.08612 22.5799 6.24004 22.5799C7.39396 22.5799 8.47842 22.1303 9.29442 21.3143L11.6944 18.9143C12.5104 18.0983 12.96 17.0138 12.96 15.8599C12.96 15.2033 12.8095 14.5703 12.5335 13.9952L11.8013 14.7284C11.9295 15.0874 12 15.4678 12 15.8599C12 16.7575 11.6502 17.6005 11.0157 18.2355L8.61567 20.6355C7.98063 21.2701 7.13764 21.6199 6.24004 21.6199C5.34244 21.6199 4.49946 21.2701 3.86442 20.6355C3.22938 20.001 2.88004 19.1575 2.88004 18.2599C2.88004 17.3623 3.22986 16.5193 3.86442 15.8843L6.26442 13.4843C6.89946 12.8497 7.74244 12.4999 8.64004 12.4999C9.0322 12.4999 9.41257 12.5705 9.77161 12.6987L10.5047 11.9665C9.92969 11.6905 9.29668 11.5399 8.64004 11.5399Z" fill="#474747"/>
</svg>
