<svg width="20" height="20" viewBox="0 0 20 20" fill="none" xmlns="http://www.w3.org/2000/svg">
<path d="M9.63164 0.368164C4.31211 0.368164 0 4.68027 0 9.99981C0 15.3193 4.31211 19.6314 9.63164 19.6314C14.9512 19.6314 19.2633 15.3193 19.2633 9.99981C19.2633 4.68027 14.9512 0.368164 9.63164 0.368164ZM6.83867 14.333C6.83867 14.583 6.61992 14.7873 6.35274 14.7873H5.07109C4.80352 14.7873 4.58477 14.583 4.58477 14.333V10.435C4.58477 10.1854 4.80352 9.98066 5.07109 9.98066H6.35274C6.61992 9.98066 6.83867 10.1854 6.83867 10.435V14.333ZM14.3582 11.824C14.2836 11.9016 14.2276 11.9951 14.1946 12.0975C14.1615 12.1999 14.1523 12.3085 14.1676 12.415C14.2035 12.6639 14.1762 13.001 13.8738 13.2721C13.7832 13.3557 13.7152 13.4609 13.6764 13.578C13.6375 13.695 13.6289 13.82 13.6516 13.9412C13.7297 14.41 13.4898 15.074 11.4102 14.976L8.70312 14.9115C8.67969 14.9115 8.65664 14.9092 8.6332 14.9064C8.41016 14.8787 7.24414 14.7111 7.33242 14.1932L7.32773 10.5682C7.32771 10.4728 7.34657 10.3784 7.3832 10.2904L8.91211 7.29707C8.93518 7.25182 8.94722 7.20177 8.94727 7.15098V5.74746C8.94622 5.62246 8.97818 5.49939 9.0399 5.39068C9.10163 5.28197 9.19094 5.19147 9.29883 5.12832C9.52383 4.9998 9.83828 4.93301 10.1867 5.18926C10.8715 5.69707 10.8879 5.97051 10.8879 5.97051C10.8879 5.97051 11.1977 6.88418 11.0672 7.71582C11.0509 7.81882 11.0571 7.92413 11.0854 8.02449C11.1137 8.12485 11.1635 8.21787 11.2313 8.29713C11.2991 8.37638 11.3832 8.43998 11.478 8.48354C11.5727 8.5271 11.6758 8.54957 11.7801 8.54941H13.3379C13.3631 8.54934 13.3882 8.55065 13.4133 8.55332C13.6512 8.57949 14.7332 8.76543 14.3527 9.97949C14.319 10.0872 14.312 10.2015 14.3324 10.3126C14.3528 10.4236 14.4 10.528 14.4699 10.6166C14.6781 10.8772 14.8523 11.3143 14.3582 11.824Z" fill="url(#paint0_linear_560_9893)"/>
<defs>
<linearGradient id="paint0_linear_560_9893" x1="-1.4449e-07" y1="11.2168" x2="19.2634" y2="11.202" gradientUnits="userSpaceOnUse">
<stop stop-color="#0086DA"/>
<stop offset="1" stop-color="#00A9E9"/>
<stop offset="1" stop-color="#00A9E9"/>
</linearGradient>
</defs>
</svg>
