<svg width="22" height="23" viewBox="0 0 22 23" fill="none" xmlns="http://www.w3.org/2000/svg">
<rect y="0.5" width="22" height="22" rx="11" fill="#00A9E9" fill-opacity="0.15"/>
<path d="M16.7467 9.13366C16.0467 6.05366 13.3601 4.66699 11.0001 4.66699C11.0001 4.66699 11.0001 4.66699 10.9934 4.66699C8.64006 4.66699 5.94673 6.04699 5.24673 9.12699C4.46673 12.567 6.5734 15.4803 8.48006 17.3137C9.18673 17.9937 10.0934 18.3337 11.0001 18.3337C11.9067 18.3337 12.8134 17.9937 13.5134 17.3137C15.4201 15.4803 17.5267 12.5737 16.7467 9.13366ZM11.0001 12.4737C9.84006 12.4737 8.90006 11.5337 8.90006 10.3737C8.90006 9.21366 9.84006 8.27366 11.0001 8.27366C12.1601 8.27366 13.1001 9.21366 13.1001 10.3737C13.1001 11.5337 12.1601 12.4737 11.0001 12.4737Z" fill="url(#paint0_linear_430_9804)"/>
<defs>
<linearGradient id="paint0_linear_430_9804" x1="5.08008" y1="12.3638" x2="16.9134" y2="12.3559" gradientUnits="userSpaceOnUse">
<stop stop-color="#0086DA"/>
<stop offset="1" stop-color="#00A9E9"/>
<stop offset="1" stop-color="#00A9E9"/>
</linearGradient>
</defs>
</svg>
