<svg width="22" height="23" viewBox="0 0 22 23" fill="none" xmlns="http://www.w3.org/2000/svg">
<path d="M7.69043 17.4492V8.13583C7.69043 7.76916 7.80043 7.41166 8.0021 7.10916L10.5046 3.3875C10.8988 2.79166 11.8796 2.37 12.7138 2.68166C13.6121 2.98416 14.2079 3.9925 14.0154 4.89083L13.5388 7.88833C13.5021 8.16333 13.5754 8.41083 13.7313 8.60333C13.8871 8.7775 14.1163 8.8875 14.3638 8.8875H18.1313C18.8554 8.8875 19.4788 9.18083 19.8454 9.69416C20.1938 10.1892 20.2579 10.8308 20.0288 11.4817L17.7738 18.3475C17.4896 19.4842 16.2521 20.41 15.0238 20.41H11.4488C10.8346 20.41 9.97293 20.1992 9.57876 19.805L8.40543 18.8975C7.95626 18.5583 7.69043 18.0175 7.69043 17.4492Z" fill="url(#paint0_linear_693_5791)"/>
<path d="M4.77551 6.34863H3.83134C2.41051 6.34863 1.83301 6.89863 1.83301 8.2553V17.477C1.83301 18.8336 2.41051 19.3836 3.83134 19.3836H4.77551C6.19634 19.3836 6.77384 18.8336 6.77384 17.477V8.2553C6.77384 6.89863 6.19634 6.34863 4.77551 6.34863Z" fill="url(#paint1_linear_693_5791)"/>
<defs>
<linearGradient id="paint0_linear_693_5791" x1="7.69043" y1="12.6198" x2="20.1637" y2="12.6131" gradientUnits="userSpaceOnUse">
<stop stop-color="#0086DA"/>
<stop offset="1" stop-color="#00A9E9"/>
<stop offset="1" stop-color="#00A9E9"/>
</linearGradient>
<linearGradient id="paint1_linear_693_5791" x1="1.83301" y1="13.6897" x2="6.77387" y2="13.6882" gradientUnits="userSpaceOnUse">
<stop stop-color="#0086DA"/>
<stop offset="1" stop-color="#00A9E9"/>
<stop offset="1" stop-color="#00A9E9"/>
</linearGradient>
</defs>
</svg>
