<svg width="24" height="24" viewBox="0 0 24 24" fill="none" xmlns="http://www.w3.org/2000/svg">
<path d="M7.84405 14.8801L11.6803 17.8901C11.8587 18.0366 12.1413 18.0366 12.3197 17.8901L16.156 14.8801C17.1522 14.0943 17.286 12.7624 16.4533 11.8301C15.6207 10.8978 14.104 10.7247 13.0483 11.4439L12.0074 12.1631L10.9517 11.4572C9.88113 10.738 8.37934 10.9111 7.54666 11.8434C6.71398 12.7624 6.84781 14.1076 7.84405 14.8801Z" fill="#009A09"/>
<path d="M22 11V17C22 21 21 22 17 22H7C3 22 2 21 2 17V7C2 3 3 2 7 2H8.5C10 2 10.33 2.44 10.9 3.2L12.4 5.2C12.78 5.7 13 6 14 6H17C21 6 22 7 22 11Z" stroke="#009A09" stroke-width="1.5" stroke-miterlimit="10"/>
</svg>
