<svg width="25" height="25" viewBox="0 0 25 25" fill="none" xmlns="http://www.w3.org/2000/svg">
<g clip-path="url(#clip0_656_10555)">
<circle cx="12.5" cy="12.5" r="12.5" fill="#F7F8FC"/>
<g clip-path="url(#clip1_656_10555)">
<path fill-rule="evenodd" clip-rule="evenodd" d="M5 19.5161C5 19.2489 5.22386 19.0323 5.5 19.0323H19.5C19.7761 19.0323 20 19.2489 20 19.5161C20 19.7834 19.7761 20 19.5 20H5.5C5.22386 20 5 19.7834 5 19.5161Z" fill="#474747"/>
<path d="M18.1951 5C17.8596 5 17.524 5.11146 17.2705 5.33883L17.0021 5.57066C16.9375 5.54057 16.8642 5.53165 16.7933 5.54391C16.7324 5.55617 16.6777 5.58403 16.6342 5.62416L6.64264 14.5853C6.61158 14.6132 6.58796 14.6466 6.57305 14.6834L5.51921 17.1978C5.47696 17.3015 5.50554 17.4185 5.59377 17.4965C5.68077 17.5757 5.81125 17.6013 5.92683 17.5634L8.73044 16.6183C8.77145 16.6049 8.80873 16.5837 8.8398 16.5558L18.8314 7.59472C18.9383 7.49552 18.952 7.34171 18.8612 7.22914L19.1197 6.99731C19.6268 6.54256 19.6268 5.79357 19.1197 5.33883C18.8662 5.11146 18.5307 5 18.1951 5ZM18.1951 5.57066C18.3691 5.57066 18.5443 5.62527 18.6723 5.74007C18.9296 5.97079 18.9296 6.36535 18.6723 6.59606L18.4238 6.82789L17.4694 5.9719L17.7179 5.74007C17.8459 5.62527 18.0211 5.57066 18.1951 5.57066ZM16.853 6.22157L18.1653 7.39855L17.2904 8.17429L15.988 7.00622L16.853 6.22157ZM15.5307 7.40747L16.843 8.58445L8.6012 15.9674L8.36259 15.7444V15.2986C8.36259 15.1415 8.21968 15.0133 8.04445 15.0133H7.54736L7.29881 14.7993L15.5307 7.40747ZM6.98067 15.3254L7.17951 15.5037C7.2404 15.5572 7.32366 15.5862 7.40817 15.5839H7.72631V15.8693C7.72383 15.9451 7.75614 16.0197 7.81579 16.0744L8.01463 16.2527L6.80171 16.6628L6.52334 16.4132L6.98067 15.3254Z" fill="#474747"/>
</g>
</g>
<defs>
<clipPath id="clip0_656_10555">
<rect width="25" height="25" fill="white"/>
</clipPath>
<clipPath id="clip1_656_10555">
<rect width="15" height="15" fill="white" transform="translate(5 5)"/>
</clipPath>
</defs>
</svg>
