<svg width="24" height="24" viewBox="0 0 24 24" fill="none" xmlns="http://www.w3.org/2000/svg">
<path d="M4.93823 14.3376L10.0406 19.44C12.1355 21.535 15.2261 21.846 16.9482 20.1351L20.9887 16.0946C22.7006 14.3827 22.3896 11.2921 20.2936 9.18692L15.1821 4.0938C14.112 3.02377 12.7189 2.36696 11.3548 2.3006L6.26274 2.03131C4.22528 1.91745 2.76188 3.38086 2.86447 5.40705L3.13377 10.4991C3.21139 11.8745 3.8682 13.2676 4.93823 14.3376Z" stroke="#474747" stroke-width="1.5" stroke-linecap="round" stroke-linejoin="round"/>
<path d="M9.5 11C10.8807 11 12 9.88071 12 8.5C12 7.11929 10.8807 6 9.5 6C8.11929 6 7 7.11929 7 8.5C7 9.88071 8.11929 11 9.5 11Z" stroke="#474747" stroke-width="1.5" stroke-linecap="round"/>
</svg>
