<svg width="22" height="22" viewBox="0 0 22 22" fill="none" xmlns="http://www.w3.org/2000/svg">
<rect width="22" height="22" rx="11" fill="#00A9E9" fill-opacity="0.15"/>
<path d="M15.0003 11.667C13.1603 11.667 11.667 13.1603 11.667 15.0003C11.667 16.8403 13.1603 18.3337 15.0003 18.3337C16.8403 18.3337 18.3337 16.8403 18.3337 15.0003C18.3337 13.1603 16.8403 11.667 15.0003 11.667ZM14.4403 15.847C14.607 16.0137 14.607 16.287 14.4403 16.4603C14.3537 16.547 14.247 16.587 14.1337 16.587C14.0203 16.587 13.9137 16.547 13.827 16.4603L12.6737 15.307C12.507 15.1403 12.507 14.867 12.6737 14.6937L13.827 13.5403C13.9937 13.3737 14.267 13.3737 14.4403 13.5403C14.607 13.707 14.607 13.9803 14.4403 14.1537L13.5937 15.0003L14.4403 15.847ZM17.3203 15.307L16.167 16.4603C16.0803 16.547 15.9737 16.587 15.8603 16.587C15.747 16.587 15.6403 16.547 15.5537 16.4603C15.387 16.2937 15.387 16.0203 15.5537 15.847L16.407 15.0003L15.5603 14.1537C15.3937 13.987 15.3937 13.7137 15.5603 13.5403C15.727 13.3737 16.0003 13.3737 16.1737 13.5403L17.327 14.6937C17.487 14.867 17.487 15.1337 17.3203 15.307Z" fill="url(#paint0_linear_430_9724)"/>
<path d="M17 7.66653V10.6465C17 10.8799 16.7733 11.0399 16.56 10.9599C15.82 10.6732 14.9933 10.5799 14.1267 10.7532C12.3933 11.0999 11.0133 12.5199 10.7267 14.2665C10.5533 15.3332 10.7667 16.3399 11.2533 17.1599C11.3867 17.3865 11.2267 17.6665 10.9667 17.6665H8.33333C6 17.6665 5 16.3332 5 14.3332V7.66653C5 5.8932 5.78667 4.64653 7.59333 4.38653C7.78667 4.35987 7.96 4.5132 7.96667 4.7132L7.98667 5.38653C8.00667 6.4532 8.90667 7.3332 9.98667 7.3332H12C13.1 7.3332 14 6.4332 14 5.3332V4.7132C14 4.5132 14.1733 4.3532 14.3667 4.37987C16.2 4.62653 17 5.87987 17 7.66653Z" fill="url(#paint1_linear_430_9724)"/>
<path d="M12.9998 4.99967V5.33301C12.9998 5.87967 12.5464 6.33301 11.9998 6.33301H9.97975C9.43975 6.33301 8.99308 5.89967 8.97975 5.35967L8.97308 5.01967C8.95975 4.63967 9.25975 4.33301 9.63975 4.33301H12.3331C12.6998 4.33301 12.9998 4.63301 12.9998 4.99967Z" fill="url(#paint2_linear_430_9724)"/>
<defs>
<linearGradient id="paint0_linear_430_9724" x1="11.667" y1="15.4215" x2="18.3337" y2="15.4164" gradientUnits="userSpaceOnUse">
<stop stop-color="#0086DA"/>
<stop offset="1" stop-color="#00A9E9"/>
<stop offset="1" stop-color="#00A9E9"/>
</linearGradient>
<linearGradient id="paint1_linear_430_9724" x1="5" y1="11.8614" x2="17.0001" y2="11.853" gradientUnits="userSpaceOnUse">
<stop stop-color="#0086DA"/>
<stop offset="1" stop-color="#00A9E9"/>
<stop offset="1" stop-color="#00A9E9"/>
</linearGradient>
<linearGradient id="paint2_linear_430_9724" x1="8.97266" y1="5.45936" x2="12.9998" y2="5.45313" gradientUnits="userSpaceOnUse">
<stop stop-color="#0086DA"/>
<stop offset="1" stop-color="#00A9E9"/>
<stop offset="1" stop-color="#00A9E9"/>
</linearGradient>
</defs>
</svg>
