<svg width="27" height="26" viewBox="0 0 27 26" fill="none" xmlns="http://www.w3.org/2000/svg">
<path d="M4.29102 11.917V19.8253C4.29102 22.707 5.87269 23.3895 7.79019 21.3312L7.801 21.3203C8.68934 20.3778 10.0435 20.4536 10.8127 21.4828L11.9068 22.9453" stroke="white" stroke-width="1.5" stroke-linecap="round" stroke-linejoin="round"/>
<path d="M22.7077 12.242V7.627C22.7077 3.26117 21.6893 2.16699 17.5943 2.16699H9.40435C5.30935 2.16699 4.29102 3.26117 4.29102 7.627" stroke="white" stroke-width="1.5" stroke-linecap="round" stroke-linejoin="round"/>
<path d="M9.16602 7.58301H14.041" stroke="white" stroke-width="1.5" stroke-linecap="round" stroke-linejoin="round"/>
<path d="M16.75 7.58301H18.9167" stroke="white" stroke-width="1.5" stroke-linecap="round" stroke-linejoin="round"/>
<path d="M10.25 11.917H16.75" stroke="white" stroke-width="1.5" stroke-linecap="round" stroke-linejoin="round"/>
<path d="M20.2273 16.0006L16.3923 19.8357C16.2406 19.9873 16.0998 20.269 16.0673 20.4748L15.8615 21.9373C15.7856 22.4682 16.154 22.8365 16.6848 22.7607L18.1473 22.5548C18.3531 22.5223 18.6456 22.3815 18.7865 22.2298L22.6215 18.3948C23.2823 17.734 23.5965 16.9648 22.6215 15.9898C21.6573 15.0257 20.8881 15.3398 20.2273 16.0006Z" stroke="white" stroke-width="1.5" stroke-miterlimit="10" stroke-linecap="round" stroke-linejoin="round"/>
<path d="M19.6738 16.5527C19.9988 17.7227 20.9088 18.6327 22.0788 18.9577" stroke="white" stroke-width="1.5" stroke-miterlimit="10" stroke-linecap="round" stroke-linejoin="round"/>
</svg>
