<svg width="22" height="22" viewBox="0 0 22 22" fill="none" xmlns="http://www.w3.org/2000/svg">
<rect width="22" height="22" rx="11" fill="#00A9E9" fill-opacity="0.15"/>
<path d="M8.99967 4.33301C7.25301 4.33301 5.83301 5.75301 5.83301 7.49967C5.83301 9.21301 7.17301 10.5997 8.91967 10.6597C8.97301 10.653 9.02634 10.653 9.06634 10.6597C9.07968 10.6597 9.08634 10.6597 9.09967 10.6597C9.10634 10.6597 9.10634 10.6597 9.11301 10.6597C10.8197 10.5997 12.1597 9.21301 12.1663 7.49967C12.1663 5.75301 10.7463 4.33301 8.99967 4.33301Z" fill="url(#paint0_linear_430_9737)"/>
<path d="M12.3866 12.4329C10.5266 11.1929 7.49331 11.1929 5.61997 12.4329C4.77331 12.9996 4.30664 13.7663 4.30664 14.5863C4.30664 15.4063 4.77331 16.1663 5.61331 16.7263C6.54664 17.3529 7.77331 17.6663 8.99997 17.6663C10.2266 17.6663 11.4533 17.3529 12.3866 16.7263C13.2266 16.1596 13.6933 15.3996 13.6933 14.5729C13.6866 13.7529 13.2266 12.9929 12.3866 12.4329Z" fill="url(#paint1_linear_430_9737)"/>
<path d="M16.3263 7.89307C16.4329 9.18641 15.5129 10.3197 14.2396 10.4731C14.2329 10.4731 14.2329 10.4731 14.2263 10.4731H14.2062C14.1662 10.4731 14.1262 10.4731 14.0929 10.4864C13.4462 10.5197 12.8529 10.3131 12.4062 9.93307C13.0929 9.31974 13.4863 8.39974 13.4062 7.39974C13.3596 6.85974 13.1729 6.36641 12.8929 5.94641C13.1463 5.81974 13.4396 5.73974 13.7396 5.71307C15.0463 5.59974 16.2129 6.57307 16.3263 7.89307Z" fill="url(#paint2_linear_430_9737)"/>
<path d="M17.6605 14.0599C17.6071 14.7066 17.1938 15.2666 16.5005 15.6466C15.8338 16.0133 14.9938 16.1866 14.1605 16.1666C14.6405 15.7333 14.9205 15.1933 14.9738 14.6199C15.0405 13.7933 14.6471 12.9999 13.8605 12.3666C13.4138 12.0133 12.8938 11.7333 12.3271 11.5266C13.8005 11.0999 15.6538 11.3866 16.7938 12.3066C17.4071 12.7999 17.7205 13.4199 17.6605 14.0599Z" fill="url(#paint3_linear_430_9737)"/>
<defs>
<linearGradient id="paint0_linear_430_9737" x1="5.83301" y1="7.89605" x2="12.1664" y2="7.89118" gradientUnits="userSpaceOnUse">
<stop stop-color="#0086DA"/>
<stop offset="1" stop-color="#00A9E9"/>
<stop offset="1" stop-color="#00A9E9"/>
</linearGradient>
<linearGradient id="paint1_linear_430_9737" x1="4.30664" y1="14.974" x2="13.6933" y2="14.963" gradientUnits="userSpaceOnUse">
<stop stop-color="#0086DA"/>
<stop offset="1" stop-color="#00A9E9"/>
<stop offset="1" stop-color="#00A9E9"/>
</linearGradient>
<linearGradient id="paint2_linear_430_9737" x1="12.4062" y1="8.39936" x2="16.3347" y2="8.39688" gradientUnits="userSpaceOnUse">
<stop stop-color="#0086DA"/>
<stop offset="1" stop-color="#00A9E9"/>
<stop offset="1" stop-color="#00A9E9"/>
</linearGradient>
<linearGradient id="paint3_linear_430_9737" x1="12.3271" y1="14.0561" x2="17.6678" y2="14.0515" gradientUnits="userSpaceOnUse">
<stop stop-color="#0086DA"/>
<stop offset="1" stop-color="#00A9E9"/>
<stop offset="1" stop-color="#00A9E9"/>
</linearGradient>
</defs>
</svg>
