<svg width="52" height="52" viewBox="0 0 52 52" fill="none" xmlns="http://www.w3.org/2000/svg">
<defs>
<filter id="filter0_d_50_284" x="20.7225" y="25.5658" width="24.0187" height="15.5897" filterUnits="userSpaceOnUse" color-interpolation-filters="sRGB">
<feFlood flood-opacity="0" result="BackgroundImageFix"/>
<feColorMatrix in="SourceAlpha" type="matrix" values="0 0 0 0 0 0 0 0 0 0 0 0 0 0 0 0 0 0 127 0" result="hardAlpha"/>
<feOffset dx="4" dy="4"/>
<feGaussianBlur stdDeviation="2"/>
<feColorMatrix type="matrix" values="0 0 0 0 0 0 0 0 0 0 0 0 0 0 0 0 0 0 0.05 0"/>
<feBlend mode="normal" in2="BackgroundImageFix" result="effect1_dropShadow_50_284"/>
<feBlend mode="normal" in="SourceGraphic" in2="effect1_dropShadow_50_284" result="shape"/>
</filter>
<filter id="filter1_d_50_284" x="15.2344" y="9.44531" width="29.5571" height="31.8672" filterUnits="userSpaceOnUse" color-interpolation-filters="sRGB">
<feFlood flood-opacity="0" result="BackgroundImageFix"/>
<feColorMatrix in="SourceAlpha" type="matrix" values="0 0 0 0 0 0 0 0 0 0 0 0 0 0 0 0 0 0 127 0" result="hardAlpha"/>
<feOffset dx="4" dy="4"/>
<feGaussianBlur stdDeviation="2"/>
<feColorMatrix type="matrix" values="0 0 0 0 0 0 0 0 0 0 0 0 0 0 0 0 0 0 0.05 0"/>
<feBlend mode="normal" in2="BackgroundImageFix" result="effect1_dropShadow_50_284"/>
<feBlend mode="normal" in="SourceGraphic" in2="effect1_dropShadow_50_284" result="shape"/>
</filter>
<linearGradient id="paint0_linear_50_284" x1="84.5873" y1="-7.51076e-07" x2="98.0632" y2="86.0421" gradientUnits="userSpaceOnUse">
<stop stop-color="#47A4FF"/>
<stop offset="1" stop-color="#2482DC"/>
</linearGradient>
<clipPath id="clip0_50_284">
<rect width="52" height="52" rx="6" fill="white"/>
</clipPath>
</defs>
<g clip-path="url(#clip0_50_284)">
<rect width="88" height="88" fill="url(#paint0_linear_50_284)"/>
<g filter="url(#filter0_d_50_284)">
<path fill-rule="evenodd" clip-rule="evenodd" d="M20.7227 25.7583C22.1403 27.8128 24.5104 29.1595 27.1952 29.1595C29.6781 29.1595 31.8919 28.0079 33.3321 26.2097C33.6598 25.8007 34.158 25.5658 34.6822 25.5658C36.4331 25.5658 37.381 27.6143 36.2504 28.9513C34.076 31.5228 30.8263 33.1555 27.195 33.1555C24.8066 33.1555 22.5836 32.4485 20.7225 31.2333V25.7583H20.7227Z" fill="white"/>
</g>
<g filter="url(#filter1_d_50_284)">
<path fill-rule="evenodd" clip-rule="evenodd" d="M36.3732 13.9281C34.2419 11.2473 30.9742 9.51066 27.2984 9.44708C20.6641 9.33247 15.2344 14.8047 15.2344 21.4401V33.3125L19.2305 33.3027V30.1752V21.4252C19.2305 17.0331 22.8245 13.373 27.216 13.4423C29.614 13.4803 31.751 14.5923 33.1674 16.3183C33.536 16.7675 34.0806 17.035 34.6618 17.035H34.8684C36.471 17.035 37.3706 15.1824 36.3732 13.9281Z" fill="white"/>
</g>
<path d="M35.7186 9.44543L31.645 16.9002L31.6379 16.913L31.058 17.9745L30.0877 19.7502L26.6788 25.9884L23.0605 19.6822L26.2296 21.6398L29.0371 18.0315L29.8849 16.942L30.4921 16.1616L30.5281 16.1152L35.7186 9.44543Z" fill="white"/>
<path d="M8.89365 40.5295H7.92911V40.1402H8.89365C9.08045 40.1402 9.2317 40.1105 9.34741 40.051C9.46312 39.9915 9.54743 39.9088 9.60033 39.803C9.65488 39.6972 9.68215 39.5765 9.68215 39.441C9.68215 39.317 9.65488 39.2005 9.60033 39.0914C9.54743 38.9823 9.46312 38.8947 9.34741 38.8285C9.2317 38.7608 9.08045 38.7269 8.89365 38.7269H8.04069V41.9453H7.56213V38.3351H8.89365C9.1664 38.3351 9.397 38.3822 9.58545 38.4764C9.7739 38.5707 9.91688 38.7013 10.0144 38.8682C10.1119 39.0335 10.1607 39.2228 10.1607 39.436C10.1607 39.6675 10.1119 39.865 10.0144 40.0286C9.91688 40.1923 9.7739 40.3171 9.58545 40.4031C9.397 40.4874 9.1664 40.5295 8.89365 40.5295Z" fill="white"/>
<path d="M12.9452 40.7973H13.4213C13.3965 41.0254 13.3312 41.2296 13.2254 41.4098C13.1196 41.5899 12.97 41.7329 12.7766 41.8387C12.5832 41.9429 12.3419 41.9949 12.0526 41.9949C11.841 41.9949 11.6484 41.9553 11.4749 41.8759C11.303 41.7966 11.155 41.6842 11.031 41.5387C10.9071 41.3916 10.8112 41.2155 10.7434 41.0106C10.6773 40.8039 10.6442 40.5742 10.6442 40.3212V39.9617C10.6442 39.7088 10.6773 39.4798 10.7434 39.2749C10.8112 39.0682 10.9079 38.8914 11.0335 38.7442C11.1608 38.5971 11.3137 38.4839 11.4922 38.4045C11.6708 38.3252 11.8716 38.2855 12.0948 38.2855C12.3675 38.2855 12.5981 38.3368 12.7866 38.4393C12.975 38.5417 13.1213 38.6839 13.2254 38.8657C13.3312 39.0459 13.3965 39.255 13.4213 39.4931H12.9452C12.9221 39.3245 12.8791 39.1798 12.8163 39.0591C12.7535 38.9368 12.6642 38.8426 12.5485 38.7765C12.4328 38.7104 12.2815 38.6773 12.0948 38.6773C11.9344 38.6773 11.7931 38.7079 11.6708 38.769C11.5501 38.8302 11.4484 38.917 11.3658 39.0294C11.2848 39.1418 11.2236 39.2765 11.1823 39.4336C11.141 39.5906 11.1203 39.765 11.1203 39.9567V40.3212C11.1203 40.4981 11.1385 40.6642 11.1748 40.8196C11.2129 40.975 11.2699 41.1114 11.3459 41.2288C11.422 41.3461 11.5187 41.4387 11.636 41.5065C11.7534 41.5726 11.8923 41.6056 12.0526 41.6056C12.2559 41.6056 12.4179 41.5734 12.5386 41.5089C12.6593 41.4445 12.7502 41.3519 12.8113 41.2312C12.8742 41.1106 12.9188 40.9659 12.9452 40.7973Z" fill="white"/>
<path d="M14.6239 39.9146H14.9512C15.1115 39.9146 15.2438 39.8881 15.3479 39.8352C15.4537 39.7807 15.5322 39.7071 15.5835 39.6146C15.6364 39.5203 15.6628 39.4145 15.6628 39.2972C15.6628 39.1583 15.6397 39.0418 15.5934 38.9476C15.5471 38.8533 15.4777 38.7823 15.3851 38.7343C15.2926 38.6864 15.1752 38.6624 15.033 38.6624C14.9041 38.6624 14.79 38.688 14.6908 38.7393C14.5933 38.7889 14.5165 38.86 14.4603 38.9525C14.4057 39.0451 14.3784 39.1542 14.3784 39.2798H13.9197C13.9197 39.0963 13.966 38.9294 14.0586 38.779C14.1511 38.6285 14.2809 38.5087 14.4479 38.4194C14.6165 38.3302 14.8115 38.2855 15.033 38.2855C15.2512 38.2855 15.4422 38.3244 15.6058 38.4021C15.7695 38.4781 15.8967 38.5922 15.9877 38.7442C16.0786 38.8947 16.124 39.0823 16.124 39.3071C16.124 39.398 16.1025 39.4955 16.0596 39.5997C16.0182 39.7022 15.9529 39.798 15.8637 39.8873C15.7761 39.9766 15.662 40.0501 15.5215 40.108C15.381 40.1642 15.2124 40.1923 15.0157 40.1923H14.6239V39.9146ZM14.6239 40.2915V40.0163H15.0157C15.2454 40.0163 15.4355 40.0435 15.586 40.0981C15.7364 40.1526 15.8546 40.2254 15.9405 40.3163C16.0282 40.4072 16.0893 40.5072 16.124 40.6163C16.1604 40.7237 16.1786 40.8312 16.1786 40.9386C16.1786 41.1073 16.1497 41.2569 16.0918 41.3874C16.0356 41.518 15.9554 41.6288 15.8513 41.7197C15.7488 41.8106 15.6281 41.8792 15.4893 41.9255C15.3504 41.9718 15.1992 41.9949 15.0355 41.9949C14.8785 41.9949 14.7305 41.9726 14.5917 41.928C14.4545 41.8834 14.333 41.8189 14.2272 41.7346C14.1214 41.6486 14.0387 41.5437 13.9792 41.4197C13.9197 41.294 13.89 41.1511 13.89 40.9907H14.3487C14.3487 41.1163 14.3759 41.2263 14.4305 41.3205C14.4867 41.4147 14.566 41.4883 14.6685 41.5412C14.7727 41.5924 14.895 41.618 15.0355 41.618C15.176 41.618 15.2967 41.5941 15.3975 41.5461C15.5 41.4965 15.5785 41.4222 15.6331 41.323C15.6893 41.2238 15.7174 41.099 15.7174 40.9486C15.7174 40.7981 15.686 40.675 15.6232 40.5791C15.5603 40.4816 15.4711 40.4097 15.3554 40.3634C15.2413 40.3154 15.1066 40.2915 14.9512 40.2915H14.6239Z" fill="white"/>
<path d="M18.5714 38.3302H18.611V38.7194H18.5714C18.3284 38.7194 18.125 38.7591 17.9614 38.8385C17.7977 38.9162 17.668 39.0211 17.5721 39.1534C17.4762 39.284 17.4068 39.4311 17.3638 39.5947C17.3225 39.7584 17.3018 39.9245 17.3018 40.0931V40.6237C17.3018 40.7841 17.3208 40.9262 17.3588 41.0502C17.3969 41.1725 17.4489 41.2759 17.5151 41.3602C17.5812 41.4445 17.6556 41.5081 17.7382 41.5511C17.8225 41.5941 17.9101 41.6156 18.0011 41.6156C18.1068 41.6156 18.2011 41.5957 18.2837 41.5561C18.3664 41.5147 18.4358 41.4577 18.492 41.385C18.5499 41.3106 18.5937 41.223 18.6234 41.1221C18.6532 41.0213 18.6681 40.9105 18.6681 40.7899C18.6681 40.6824 18.6548 40.5791 18.6284 40.4799C18.6019 40.3791 18.5614 40.2898 18.5069 40.2121C18.4523 40.1328 18.3837 40.0708 18.3011 40.0262C18.2201 39.9799 18.1234 39.9567 18.011 39.9567C17.8837 39.9567 17.7647 39.9881 17.6539 40.051C17.5448 40.1121 17.4547 40.1931 17.3836 40.294C17.3142 40.3931 17.2745 40.5014 17.2646 40.6188L17.0216 40.6163C17.0448 40.4312 17.0878 40.2733 17.1506 40.1427C17.215 40.0105 17.2944 39.903 17.3886 39.8204C17.4845 39.7361 17.5911 39.6749 17.7085 39.6369C17.8275 39.5972 17.9531 39.5774 18.0854 39.5774C18.2655 39.5774 18.4209 39.6113 18.5515 39.679C18.6821 39.7468 18.7896 39.8377 18.8739 39.9518C18.9582 40.0642 19.0201 40.1915 19.0598 40.3336C19.1011 40.4741 19.1218 40.6188 19.1218 40.7676C19.1218 40.9378 19.0978 41.0973 19.0499 41.2461C19.002 41.3949 18.9301 41.5255 18.8342 41.6379C18.74 41.7503 18.6234 41.8379 18.4846 41.9007C18.3457 41.9635 18.1845 41.9949 18.0011 41.9949C17.806 41.9949 17.6357 41.9553 17.4903 41.8759C17.3448 41.7949 17.2241 41.6875 17.1283 41.5536C17.0324 41.4197 16.9605 41.2709 16.9125 41.1073C16.8646 40.9436 16.8406 40.7775 16.8406 40.6089V40.3931C16.8406 40.1386 16.8662 39.889 16.9175 39.6443C16.9687 39.3997 17.0572 39.1782 17.1828 38.9798C17.3101 38.7814 17.4861 38.6236 17.7109 38.5062C17.9358 38.3888 18.2226 38.3302 18.5714 38.3302Z" fill="white"/>
<path d="M20.2475 40.227L19.8806 40.1328L20.0616 38.3351H21.9138V38.7591H20.4509L20.3418 39.741C20.4079 39.703 20.4914 39.6675 20.5922 39.6344C20.6947 39.6013 20.812 39.5848 20.9443 39.5848C21.1112 39.5848 21.2608 39.6137 21.3931 39.6716C21.5253 39.7278 21.6377 39.8088 21.7303 39.9146C21.8245 40.0204 21.8964 40.1477 21.946 40.2964C21.9956 40.4452 22.0204 40.6113 22.0204 40.7948C22.0204 40.9684 21.9964 41.1279 21.9485 41.2734C21.9022 41.4189 21.832 41.5461 21.7377 41.6552C21.6435 41.7627 21.5245 41.8462 21.3807 41.9057C21.2385 41.9652 21.0707 41.9949 20.8773 41.9949C20.7319 41.9949 20.5938 41.9751 20.4632 41.9354C20.3343 41.8941 20.2186 41.8321 20.1161 41.7495C20.0153 41.6652 19.9326 41.561 19.8682 41.437C19.8053 41.3114 19.7657 41.1643 19.7491 40.9957H20.1855C20.2054 41.1312 20.245 41.2453 20.3046 41.3379C20.3641 41.4304 20.4418 41.5007 20.5376 41.5486C20.6352 41.5949 20.7484 41.618 20.8773 41.618C20.9864 41.618 21.0831 41.599 21.1674 41.561C21.2517 41.523 21.3228 41.4684 21.3807 41.3974C21.4385 41.3263 21.4823 41.2403 21.5121 41.1395C21.5435 41.0387 21.5592 40.9254 21.5592 40.7998C21.5592 40.6857 21.5435 40.5799 21.5121 40.4824C21.4807 40.3849 21.4336 40.2997 21.3708 40.227C21.3096 40.1543 21.2344 40.0981 21.1451 40.0584C21.0559 40.0171 20.9534 39.9964 20.8377 39.9964C20.6839 39.9964 20.5674 40.0171 20.488 40.0584C20.4104 40.0997 20.3302 40.1559 20.2475 40.227Z" fill="white"/>
<path d="M26.0819 40.7973H26.558C26.5332 41.0254 26.4679 41.2296 26.3621 41.4098C26.2563 41.5899 26.1067 41.7329 25.9133 41.8387C25.7199 41.9429 25.4786 41.9949 25.1893 41.9949C24.9777 41.9949 24.7851 41.9553 24.6115 41.8759C24.4396 41.7966 24.2917 41.6842 24.1677 41.5387C24.0437 41.3916 23.9478 41.2155 23.8801 41.0106C23.814 40.8039 23.7809 40.5742 23.7809 40.3212V39.9617C23.7809 39.7088 23.814 39.4798 23.8801 39.2749C23.9478 39.0682 24.0445 38.8914 24.1702 38.7442C24.2975 38.5971 24.4504 38.4839 24.6289 38.4045C24.8074 38.3252 25.0083 38.2855 25.2314 38.2855C25.5042 38.2855 25.7348 38.3368 25.9232 38.4393C26.1117 38.5417 26.258 38.6839 26.3621 38.8657C26.4679 39.0459 26.5332 39.255 26.558 39.4931H26.0819C26.0588 39.3245 26.0158 39.1798 25.953 39.0591C25.8902 38.9368 25.8009 38.8426 25.6852 38.7765C25.5695 38.7104 25.4182 38.6773 25.2314 38.6773C25.0711 38.6773 24.9298 38.7079 24.8074 38.769C24.6868 38.8302 24.5851 38.917 24.5024 39.0294C24.4214 39.1418 24.3603 39.2765 24.319 39.4336C24.2776 39.5906 24.257 39.765 24.257 39.9567V40.3212C24.257 40.4981 24.2751 40.6642 24.3115 40.8196C24.3495 40.975 24.4066 41.1114 24.4826 41.2288C24.5586 41.3461 24.6553 41.4387 24.7727 41.5065C24.8901 41.5726 25.0289 41.6056 25.1893 41.6056C25.3926 41.6056 25.5546 41.5734 25.6753 41.5089C25.7959 41.4445 25.8869 41.3519 25.948 41.2312C26.0108 41.1106 26.0555 40.9659 26.0819 40.7973Z" fill="white"/>
<path d="M29.9897 40.0262V40.2543C29.9897 40.5254 29.9558 40.7684 29.888 40.9833C29.8203 41.1982 29.7227 41.3808 29.5954 41.5313C29.4682 41.6817 29.3153 41.7966 29.1367 41.8759C28.9599 41.9553 28.7615 41.9949 28.5416 41.9949C28.3284 41.9949 28.1325 41.9553 27.954 41.8759C27.7771 41.7966 27.6234 41.6817 27.4928 41.5313C27.3638 41.3808 27.2638 41.1982 27.1928 40.9833C27.1217 40.7684 27.0861 40.5254 27.0861 40.2543V40.0262C27.0861 39.7551 27.1208 39.5129 27.1903 39.2997C27.2614 39.0848 27.3614 38.9021 27.4903 38.7517C27.6192 38.5996 27.7721 38.4839 27.949 38.4045C28.1275 38.3252 28.3234 38.2855 28.5367 38.2855C28.7565 38.2855 28.9549 38.3252 29.1318 38.4045C29.3103 38.4839 29.4632 38.5996 29.5905 38.7517C29.7194 38.9021 29.8178 39.0848 29.8856 39.2997C29.955 39.5129 29.9897 39.7551 29.9897 40.0262ZM29.5161 40.2543V40.0212C29.5161 39.8063 29.4938 39.6162 29.4492 39.4509C29.4062 39.2856 29.3425 39.1468 29.2582 39.0343C29.1739 38.9219 29.0706 38.8368 28.9483 38.779C28.8276 38.7211 28.6904 38.6922 28.5367 38.6922C28.3879 38.6922 28.2532 38.7211 28.1325 38.779C28.0135 38.8368 27.911 38.9219 27.825 39.0343C27.7407 39.1468 27.6754 39.2856 27.6292 39.4509C27.5829 39.6162 27.5597 39.8063 27.5597 40.0212V40.2543C27.5597 40.4708 27.5829 40.6626 27.6292 40.8295C27.6754 40.9948 27.7416 41.1345 27.8275 41.2486C27.9151 41.361 28.0184 41.4461 28.1375 41.504C28.2581 41.5618 28.3929 41.5908 28.5416 41.5908C28.697 41.5908 28.835 41.5618 28.9557 41.504C29.0764 41.4461 29.1781 41.361 29.2607 41.2486C29.345 41.1345 29.4087 40.9948 29.4516 40.8295C29.4946 40.6626 29.5161 40.4708 29.5161 40.2543Z" fill="white"/>
<path d="M33.4834 38.3351V41.9453H33.0023L31.1848 39.1608V41.9453H30.7063V38.3351H31.1848L33.0098 41.1271V38.3351H33.4834Z" fill="white"/>
<path d="M36.9994 40.1477V41.4693C36.9548 41.5354 36.8837 41.6098 36.7861 41.6924C36.6886 41.7734 36.5539 41.8445 36.382 41.9057C36.2117 41.9652 35.9919 41.9949 35.7224 41.9949C35.5026 41.9949 35.3001 41.9569 35.1149 41.8809C34.9314 41.8032 34.7719 41.6908 34.6364 41.5437C34.5025 41.3949 34.3983 41.2147 34.324 41.0031C34.2512 40.7899 34.2149 40.5485 34.2149 40.2791V39.9989C34.2149 39.7294 34.2463 39.4889 34.3091 39.2773C34.3735 39.0658 34.4678 38.8864 34.5917 38.7393C34.7157 38.5905 34.8678 38.4781 35.048 38.4021C35.2282 38.3244 35.4348 38.2855 35.6679 38.2855C35.9439 38.2855 36.1745 38.3335 36.3597 38.4293C36.5465 38.5236 36.6919 38.6541 36.7961 38.8211C36.9019 38.9881 36.9696 39.1782 36.9994 39.3914H36.5208C36.4993 39.2608 36.4564 39.1418 36.3919 39.0343C36.3291 38.9269 36.239 38.8409 36.1216 38.7765C36.0043 38.7104 35.853 38.6773 35.6679 38.6773C35.5009 38.6773 35.3563 38.7079 35.2339 38.769C35.1116 38.8302 35.0108 38.9178 34.9314 39.0319C34.8521 39.1459 34.7926 39.284 34.7529 39.446C34.7149 39.608 34.6959 39.7906 34.6959 39.9939V40.2791C34.6959 40.4874 34.7199 40.6733 34.7678 40.837C34.8174 41.0006 34.8876 41.1403 34.9786 41.256C35.0695 41.3701 35.1777 41.4569 35.3034 41.5164C35.4307 41.5759 35.5712 41.6056 35.7249 41.6056C35.8952 41.6056 36.0332 41.5916 36.139 41.5635C36.2448 41.5337 36.3274 41.499 36.3869 41.4594C36.4464 41.418 36.4919 41.3792 36.5233 41.3428V40.5345H35.6877V40.1477H36.9994Z" fill="white"/>
<path d="M40.2873 38.3351V41.9453H39.8162V38.3351H40.2873ZM41.4477 38.3351V38.7269H38.6582V38.3351H41.4477Z" fill="white"/>
<path d="M42.1891 38.3351L43.1264 40.1477L44.0661 38.3351H44.6091L43.3644 40.5965V41.9453H42.8858V40.5965L41.6411 38.3351H42.1891Z" fill="white"/>
</g>

</svg>
