<svg width="24" height="25" viewBox="0 0 24 25" fill="none" xmlns="http://www.w3.org/2000/svg">
<path d="M2 23L22 23" stroke="#474747" stroke-linecap="round"/>
<path d="M20.1359 1.5C19.6566 1.5 19.1772 1.66833 18.815 2.01172L18.4316 2.36184C18.3393 2.31639 18.2345 2.30293 18.1333 2.32144C18.0463 2.33996 17.9682 2.38204 17.9061 2.44264L3.63235 15.9762C3.58797 16.0183 3.55423 16.0688 3.53293 16.1244L2.02744 19.9219C1.96708 20.0784 2.00791 20.2552 2.13396 20.373C2.25824 20.4925 2.44465 20.5312 2.60975 20.474L6.61492 19.0466C6.6735 19.0264 6.72676 18.9944 6.77115 18.9523L21.0449 5.41869C21.1975 5.26887 21.2171 5.03658 21.0875 4.86657L21.4567 4.51645C22.1811 3.82967 22.1811 2.6985 21.4567 2.01172C21.0946 1.66833 20.6152 1.5 20.1359 1.5ZM20.1359 2.36184C20.3844 2.36184 20.6348 2.44432 20.8176 2.6177C21.1851 2.96614 21.1851 3.56202 20.8176 3.91046L20.4626 4.26059L19.0991 2.96782L19.4542 2.6177C19.637 2.44432 19.8873 2.36184 20.1359 2.36184ZM18.2185 3.34488L20.0933 5.12243L18.8434 6.29399L16.9829 4.52991L18.2185 3.34488ZM16.3296 5.13589L18.2043 6.91344L6.43028 18.0635L6.08942 17.7269V17.0535C6.08942 16.8162 5.88525 16.6226 5.63493 16.6226H4.9248L4.56973 16.2994L16.3296 5.13589ZM4.11524 17.0939L4.3993 17.3633C4.48629 17.4441 4.60523 17.4878 4.72596 17.4845H5.18044V17.9154C5.17689 18.0299 5.22305 18.1426 5.30827 18.2251L5.59232 18.4944L3.85959 19.1139L3.46192 18.7368L4.11524 17.0939Z" fill="#474747"/>
</svg>
