<svg width="32" height="32" viewBox="0 0 32 32" fill="none" xmlns="http://www.w3.org/2000/svg">
<defs>
<linearGradient id="paint0_linear_26_406" x1="9.625" y1="18.1302" x2="14.8975" y2="18.1282" gradientUnits="userSpaceOnUse">
<stop stop-color="#0086DA"/>
<stop offset="1" stop-color="#00A9E9"/>
<stop offset="1" stop-color="#00A9E9"/>
</linearGradient>
<linearGradient id="paint1_linear_26_406" x1="9.625" y1="12.4282" x2="22.375" y2="12.4103" gradientUnits="userSpaceOnUse">
<stop stop-color="#0086DA"/>
<stop offset="1" stop-color="#00A9E9"/>
<stop offset="1" stop-color="#00A9E9"/>
</linearGradient>
<linearGradient id="paint2_linear_26_406" x1="13" y1="12.8132" x2="16.375" y2="12.8044" gradientUnits="userSpaceOnUse">
<stop stop-color="#0086DA"/>
<stop offset="1" stop-color="#00A9E9"/>
<stop offset="1" stop-color="#00A9E9"/>
</linearGradient>
<linearGradient id="paint3_linear_26_406" x1="18.25" y1="12.8132" x2="19.75" y2="12.8114" gradientUnits="userSpaceOnUse">
<stop stop-color="#0086DA"/>
<stop offset="1" stop-color="#00A9E9"/>
<stop offset="1" stop-color="#00A9E9"/>
</linearGradient>
<linearGradient id="paint4_linear_26_406" x1="13.75" y1="15.8132" x2="18.25" y2="15.7976" gradientUnits="userSpaceOnUse">
<stop stop-color="#0086DA"/>
<stop offset="1" stop-color="#00A9E9"/>
<stop offset="1" stop-color="#00A9E9"/>
</linearGradient>
<linearGradient id="paint5_linear_26_406" x1="17.6282" y1="20.5293" x2="22.7436" y2="20.5253" gradientUnits="userSpaceOnUse">
<stop stop-color="#0086DA"/>
<stop offset="1" stop-color="#00A9E9"/>
<stop offset="1" stop-color="#00A9E9"/>
</linearGradient>
<linearGradient id="paint6_linear_26_406" x1="20.275" y1="19.3977" x2="21.94" y2="19.3964" gradientUnits="userSpaceOnUse">
<stop stop-color="#0086DA"/>
<stop offset="1" stop-color="#00A9E9"/>
<stop offset="1" stop-color="#00A9E9"/>
</linearGradient>
</defs>
<rect width="32" height="32" rx="6" fill="#DDF4FF"/>
<path d="M9.625 12V20.725C9.625 22.72 10.72 23.1925 12.0475 21.7675L12.055 21.76C12.67 21.1075 13.6075 21.16 14.14 21.8725L14.8975 22.885" stroke="url(#paint0_linear_26_406)" stroke-width="1.2" stroke-linecap="round" stroke-linejoin="round"/>
<path d="M22.375 15.475V12.28C22.375 9.25751 21.67 8.5 18.835 8.5H13.165C10.33 8.5 9.625 9.25751 9.625 12.28" stroke="url(#paint1_linear_26_406)" stroke-width="1.2" stroke-linecap="round" stroke-linejoin="round"/>
<path d="M13 12.25H16.375" stroke="url(#paint2_linear_26_406)" stroke-width="1.2" stroke-linecap="round" stroke-linejoin="round"/>
<path d="M18.25 12.25H19.75" stroke="url(#paint3_linear_26_406)" stroke-width="1.2" stroke-linecap="round" stroke-linejoin="round"/>
<path d="M13.75 15.25H18.25" stroke="url(#paint4_linear_26_406)" stroke-width="1.2" stroke-linecap="round" stroke-linejoin="round"/>
<path d="M20.6575 18.0775L18.0025 20.7325C17.8975 20.8375 17.8 21.0325 17.7775 21.175L17.635 22.1875C17.5825 22.555 17.8375 22.81 18.205 22.7575L19.2175 22.615C19.36 22.5925 19.5625 22.495 19.66 22.39L22.315 19.735C22.7725 19.2775 22.99 18.745 22.315 18.07C21.6475 17.4025 21.115 17.62 20.6575 18.0775Z" stroke="url(#paint5_linear_26_406)" stroke-width="1.2" stroke-miterlimit="10" stroke-linecap="round" stroke-linejoin="round"/>
<path d="M20.275 18.46C20.5 19.27 21.13 19.9 21.94 20.125" stroke="url(#paint6_linear_26_406)" stroke-width="1.2" stroke-miterlimit="10" stroke-linecap="round" stroke-linejoin="round"/>

</svg>
