<svg width="30" height="30" viewBox="0 0 30 30" fill="none" xmlns="http://www.w3.org/2000/svg">
<path d="M22.5 16.875H23.625C24.5678 16.875 25.0392 16.875 25.3321 16.5821C25.625 16.2892 25.625 15.8178 25.625 14.875V12.125C25.625 10.2394 25.625 9.29657 25.0392 8.71079C24.4534 8.125 23.5106 8.125 21.625 8.125H8.375C6.48938 8.125 5.54657 8.125 4.96079 8.71079C4.375 9.29657 4.375 10.2394 4.375 12.125V15.875C4.375 16.3464 4.375 16.5821 4.52145 16.7286C4.66789 16.875 4.9036 16.875 5.375 16.875H7.5" stroke="white" stroke-width="2"/>
<path d="M8.125 24.9313L8.125 13.875C8.125 12.9322 8.125 12.4608 8.41789 12.1679C8.71079 11.875 9.18219 11.875 10.125 11.875L19.875 11.875C20.8178 11.875 21.2892 11.875 21.5821 12.1679C21.875 12.4608 21.875 12.9322 21.875 13.875L21.875 24.9313C21.875 25.2478 21.875 25.4061 21.7712 25.481C21.6674 25.5558 21.5172 25.5057 21.2169 25.4056L18.2988 24.4329C18.2128 24.4043 18.1698 24.3899 18.1255 24.3912C18.0811 24.3925 18.0391 24.4094 17.9549 24.443L15.1857 25.5507C15.094 25.5874 15.0481 25.6057 15 25.6057C14.9519 25.6057 14.906 25.5874 14.8143 25.5507L12.0451 24.443L12.0451 24.443C11.9609 24.4094 11.9189 24.3925 11.8745 24.3912C11.8302 24.3899 11.7872 24.4043 11.7012 24.4329L8.78311 25.4056C8.4828 25.5057 8.33264 25.5558 8.22882 25.481C8.125 25.4061 8.125 25.2478 8.125 24.9313Z" stroke="white" stroke-width="2"/>
<path d="M11.875 16.875L16.875 16.875" stroke="white" stroke-width="2" stroke-linecap="round"/>
<path d="M11.875 20.625L18.125 20.625" stroke="white" stroke-width="2" stroke-linecap="round"/>
<path d="M21.875 8.125V6.725C21.875 5.02794 21.875 4.17942 21.3478 3.65221C20.8206 3.125 19.9721 3.125 18.275 3.125H11.725C10.0279 3.125 9.17942 3.125 8.65221 3.65221C8.125 4.17942 8.125 5.02794 8.125 6.725V8.125" stroke="white" stroke-width="2"/>
</svg>
