<svg width="20" height="20" viewBox="0 0 20 20" fill="none" xmlns="http://www.w3.org/2000/svg">
<path d="M8.9568 3.2H3.8432C3.68407 3.2 3.53146 3.26321 3.41894 3.37574C3.30641 3.48826 3.2432 3.64087 3.2432 3.8V9C3.2432 9.15913 3.30641 9.31174 3.41894 9.42426C3.53146 9.53679 3.68407 9.6 3.8432 9.6H8.9568C9.11593 9.6 9.26854 9.53679 9.38106 9.42426C9.49359 9.31174 9.5568 9.15913 9.5568 9V3.8C9.5568 3.64087 9.49359 3.48826 9.38106 3.37574C9.26854 3.26321 9.11593 3.2 8.9568 3.2ZM8.3568 8.4H4.4432V4.4H8.3568V8.4ZM7.2 5.6H5.6V7.2H7.2V5.6ZM0.8 8C1.01217 8 1.21566 7.91571 1.36569 7.76569C1.51571 7.61566 1.6 7.41217 1.6 7.2V2.4C1.60021 2.18789 1.68457 1.98453 1.83455 1.83455C1.98453 1.68457 2.18789 1.60021 2.4 1.6H7.2C7.41217 1.6 7.61566 1.51571 7.76569 1.36569C7.91571 1.21566 8 1.01217 8 0.8C8 0.587827 7.91571 0.384344 7.76569 0.234315C7.61566 0.0842854 7.41217 0 7.2 0H2.4C1.76368 0.000635372 1.1536 0.253696 0.703646 0.703646C0.253696 1.1536 0.000635372 1.76368 0 2.4V7.2C0 7.41217 0.0842854 7.61566 0.234315 7.76569C0.384344 7.91571 0.587827 8 0.8 8ZM8.9568 10.4H3.8432C3.68407 10.4 3.53146 10.4632 3.41894 10.5757C3.30641 10.6883 3.2432 10.8409 3.2432 11V16.2C3.2432 16.3591 3.30641 16.5117 3.41894 16.6243C3.53146 16.7368 3.68407 16.8 3.8432 16.8H8.9568C9.11593 16.8 9.26854 16.7368 9.38106 16.6243C9.49359 16.5117 9.5568 16.3591 9.5568 16.2V11C9.5568 10.8409 9.49359 10.6883 9.38106 10.5757C9.26854 10.4632 9.11593 10.4 8.9568 10.4ZM8.3568 15.6H4.4432V11.6H8.3568V15.6ZM7.2 12.8H5.6V14.4H7.2V12.8ZM7.2 18.4H2.4C2.18789 18.3998 1.98453 18.3154 1.83455 18.1655C1.68457 18.0155 1.60021 17.8121 1.6 17.6V12.8C1.6 12.5878 1.51571 12.3843 1.36569 12.2343C1.21566 12.0843 1.01217 12 0.8 12C0.587827 12 0.384344 12.0843 0.234315 12.2343C0.0842854 12.3843 0 12.5878 0 12.8V17.6C0.000635372 18.2363 0.253696 18.8464 0.703646 19.2964C1.1536 19.7463 1.76368 19.9994 2.4 20H7.2C7.41217 20 7.61566 19.9157 7.76569 19.7657C7.91571 19.6157 8 19.4122 8 19.2C8 18.9878 7.91571 18.7843 7.76569 18.6343C7.61566 18.4843 7.41217 18.4 7.2 18.4ZM19.2 12C18.9878 12 18.7843 12.0843 18.6343 12.2343C18.4843 12.3843 18.4 12.5878 18.4 12.8V17.6C18.3998 17.8121 18.3154 18.0155 18.1655 18.1655C18.0155 18.3154 17.8121 18.3998 17.6 18.4H12.8C12.5878 18.4 12.3843 18.4843 12.2343 18.6343C12.0843 18.7843 12 18.9878 12 19.2C12 19.4122 12.0843 19.6157 12.2343 19.7657C12.3843 19.9157 12.5878 20 12.8 20H17.6C18.2363 19.9994 18.8464 19.7463 19.2964 19.2964C19.7463 18.8464 19.9994 18.2363 20 17.6V12.8C20 12.5878 19.9157 12.3843 19.7657 12.2343C19.6157 12.0843 19.4122 12 19.2 12ZM12.4 14.8H10.8V16.4H12.4V14.8ZM10.8 12.3952H12.4V10.7952H10.8V12.3952ZM17.6 0H12.8C12.5878 0 12.3843 0.0842854 12.2343 0.234315C12.0843 0.384344 12 0.587827 12 0.8C12 1.01217 12.0843 1.21566 12.2343 1.36569C12.3843 1.51571 12.5878 1.6 12.8 1.6H17.6C17.8121 1.60021 18.0155 1.68457 18.1655 1.83455C18.3154 1.98453 18.3998 2.18789 18.4 2.4V7.2C18.4 7.41217 18.4843 7.61566 18.6343 7.76569C18.7843 7.91571 18.9878 8 19.2 8C19.4122 8 19.6157 7.91571 19.7657 7.76569C19.9157 7.61566 20 7.41217 20 7.2V2.4C19.9994 1.76368 19.7463 1.1536 19.2964 0.703646C18.8464 0.253696 18.2363 0.000635372 17.6 0ZM12.8 7.2H14.4V5.6H12.8V7.2ZM14.4 14.4V12.8H12.8V14.4H14.4ZM16.1568 9.6C16.3159 9.6 16.4685 9.53679 16.5811 9.42426C16.6936 9.31174 16.7568 9.15913 16.7568 9V3.8C16.7568 3.64087 16.6936 3.48826 16.5811 3.37574C16.4685 3.26321 16.3159 3.2 16.1568 3.2H11.0432C10.8841 3.2 10.7315 3.26321 10.6189 3.37574C10.5064 3.48826 10.4432 3.64087 10.4432 3.8V9C10.4432 9.15913 10.5064 9.31174 10.6189 9.42426C10.7315 9.53679 10.8841 9.6 11.0432 9.6H16.1568ZM11.6432 4.4H15.5568V8.4H11.6432V4.4ZM16.4 10.7952H14.8V12.3952H16.4V10.7952ZM14.8 16.4H16.4V14.8H14.8V16.4Z" fill="#474747"/>
</svg>
