<svg width="20" height="20" viewBox="0 0 20 20" fill="none" xmlns="http://www.w3.org/2000/svg">
<g clip-path="url(#clip0_707_15684)">
<path d="M1.66699 14.0833C1.66699 12.9922 1.66699 12.4466 1.91259 12.0458C2.05002 11.8216 2.23857 11.633 2.46283 11.4956C2.86361 11.25 3.40918 11.25 4.50033 11.25H5.41699C6.98834 11.25 7.77402 11.25 8.26217 11.7382C8.75033 12.2263 8.75033 13.012 8.75033 14.5833V15.5C8.75033 16.5911 8.75033 17.1367 8.50473 17.5375C8.3673 17.7618 8.17875 17.9503 7.95449 18.0877C7.55371 18.3333 7.00814 18.3333 5.91699 18.3333C4.28028 18.3333 3.46192 18.3333 2.86075 17.9649C2.52436 17.7588 2.24153 17.476 2.03539 17.1396C1.66699 16.5384 1.66699 15.72 1.66699 14.0833Z" stroke="#008648" stroke-width="1.5"/>
<path d="M11.25 4.50033C11.25 3.40918 11.25 2.86361 11.4956 2.46283C11.633 2.23857 11.8216 2.05002 12.0458 1.91259C12.4466 1.66699 12.9922 1.66699 14.0833 1.66699C15.72 1.66699 16.5384 1.66699 17.1396 2.03539C17.476 2.24153 17.7588 2.52436 17.9649 2.86075C18.3333 3.46192 18.3333 4.28028 18.3333 5.91699C18.3333 7.00814 18.3333 7.55371 18.0877 7.95449C17.9503 8.17875 17.7618 8.3673 17.5375 8.50473C17.1367 8.75033 16.5911 8.75033 15.5 8.75033H14.5833C13.012 8.75033 12.2263 8.75033 11.7382 8.26217C11.25 7.77402 11.25 6.98834 11.25 5.41699V4.50033Z" stroke="#008648" stroke-width="1.5"/>
<path d="M13.75 5.20866C13.75 4.77915 13.75 4.5644 13.8576 4.41277C13.8956 4.35926 13.9423 4.31255 13.9958 4.27458C14.1474 4.16699 14.3622 4.16699 14.7917 4.16699C15.2212 4.16699 15.4359 4.16699 15.5876 4.27458C15.6411 4.31255 15.6878 4.35926 15.7257 4.41277C15.8333 4.5644 15.8333 4.77915 15.8333 5.20866C15.8333 5.63816 15.8333 5.85292 15.7257 6.00455C15.6878 6.05806 15.6411 6.10477 15.5876 6.14274C15.4359 6.25033 15.2212 6.25033 14.7917 6.25033C14.3622 6.25033 14.1474 6.25033 13.9958 6.14274C13.9423 6.10477 13.8956 6.05806 13.8576 6.00455C13.75 5.85292 13.75 5.63816 13.75 5.20866Z" fill="#008648"/>
<path d="M10.5 18.3333C10.5 18.7475 10.8358 19.0833 11.25 19.0833C11.6642 19.0833 12 18.7475 12 18.3333H10.5ZM11.9907 11.5309L12.4074 12.1545L12.4074 12.1545L11.9907 11.5309ZM11.5309 11.9907L10.9073 11.574L10.9073 11.574L11.5309 11.9907ZM15.8333 10.5H14.1667V12H15.8333V10.5ZM10.5 15.8333V18.3333H12V15.8333H10.5ZM14.1667 10.5C13.5971 10.5 13.1134 10.4991 12.7215 10.539C12.3171 10.5801 11.928 10.6708 11.574 10.9073L12.4074 12.1545C12.4738 12.1101 12.5875 12.0603 12.8733 12.0313C13.1717 12.0009 13.5659 12 14.1667 12V10.5ZM12 14.1667C12 13.5659 12.0009 13.1717 12.0313 12.8733C12.0603 12.5875 12.1101 12.4738 12.1545 12.4074L10.9073 11.574C10.6708 11.928 10.5801 12.3171 10.539 12.7215C10.4991 13.1134 10.5 13.5971 10.5 14.1667H12ZM11.574 10.9073C11.3102 11.0836 11.0836 11.3102 10.9073 11.574L12.1545 12.4074C12.2214 12.3073 12.3073 12.2214 12.4074 12.1545L11.574 10.9073Z" fill="#008648"/>
<path d="M19.0837 11.25C19.0837 10.8358 18.7479 10.5 18.3337 10.5C17.9194 10.5 17.5837 10.8358 17.5837 11.25H19.0837ZM17.3048 18.2065L17.5918 18.8994L17.5918 18.8994L17.3048 18.2065ZM18.2068 17.3045L17.5139 17.0175L17.5139 17.0175L18.2068 17.3045ZM14.167 19.0833H15.8337V17.5833H14.167V19.0833ZM19.0837 14.1667V11.25H17.5837V14.1667H19.0837ZM15.8337 19.0833C16.2117 19.0833 16.5328 19.0837 16.7966 19.0657C17.0673 19.0473 17.332 19.007 17.5918 18.8994L17.0178 17.5136C16.9713 17.5328 16.8888 17.556 16.6945 17.5692C16.4936 17.5829 16.2322 17.5833 15.8337 17.5833V19.0833ZM17.5837 15.8333C17.5837 16.2319 17.5833 16.4932 17.5695 16.6942C17.5563 16.8884 17.5332 16.9709 17.5139 17.0175L18.8997 17.5915C19.0073 17.3317 19.0476 17.0669 19.0661 16.7963C19.0841 16.5324 19.0837 16.2114 19.0837 15.8333H17.5837ZM17.5918 18.8994C18.184 18.6541 18.6544 18.1836 18.8997 17.5915L17.5139 17.0175C17.4208 17.2421 17.2424 17.4205 17.0178 17.5136L17.5918 18.8994Z" fill="#008648"/>
<path d="M1.66699 5.91699C1.66699 4.28028 1.66699 3.46192 2.03539 2.86075C2.24153 2.52436 2.52436 2.24153 2.86075 2.03539C3.46192 1.66699 4.28028 1.66699 5.91699 1.66699C7.00814 1.66699 7.55371 1.66699 7.95449 1.91259C8.17875 2.05002 8.3673 2.23857 8.50473 2.46283C8.75033 2.86361 8.75033 3.40918 8.75033 4.50033V5.41699C8.75033 6.98834 8.75033 7.77402 8.26217 8.26217C7.77402 8.75033 6.98834 8.75033 5.41699 8.75033H4.50033C3.40918 8.75033 2.86361 8.75033 2.46283 8.50473C2.23857 8.3673 2.05002 8.17875 1.91259 7.95449C1.66699 7.55371 1.66699 7.00814 1.66699 5.91699Z" stroke="#008648" stroke-width="1.5"/>
<path d="M4.16699 5.20866C4.16699 4.77915 4.16699 4.5644 4.27458 4.41277C4.31255 4.35926 4.35926 4.31255 4.41277 4.27458C4.5644 4.16699 4.77915 4.16699 5.20866 4.16699C5.63816 4.16699 5.85292 4.16699 6.00455 4.27458C6.05806 4.31255 6.10477 4.35926 6.14274 4.41277C6.25033 4.5644 6.25033 4.77915 6.25033 5.20866C6.25033 5.63816 6.25033 5.85292 6.14274 6.00455C6.10477 6.05806 6.05806 6.10477 6.00455 6.14274C5.85292 6.25033 5.63816 6.25033 5.20866 6.25033C4.77915 6.25033 4.5644 6.25033 4.41277 6.14274C4.35926 6.10477 4.31255 6.05806 4.27458 6.00455C4.16699 5.85292 4.16699 5.63816 4.16699 5.20866Z" fill="#008648"/>
<path d="M4.16699 14.7917C4.16699 14.3622 4.16699 14.1474 4.27458 13.9958C4.31255 13.9423 4.35926 13.8956 4.41277 13.8576C4.5644 13.75 4.77915 13.75 5.20866 13.75C5.63816 13.75 5.85292 13.75 6.00455 13.8576C6.05806 13.8956 6.10477 13.9423 6.14274 13.9958C6.25033 14.1474 6.25033 14.3622 6.25033 14.7917C6.25033 15.2212 6.25033 15.4359 6.14274 15.5876C6.10477 15.6411 6.05806 15.6878 6.00455 15.7257C5.85292 15.8333 5.63816 15.8333 5.20866 15.8333C4.77915 15.8333 4.5644 15.8333 4.41277 15.7257C4.35926 15.6878 4.31255 15.6411 4.27458 15.5876C4.16699 15.4359 4.16699 15.2212 4.16699 14.7917Z" fill="#008648"/>
<path d="M13.333 14.7913C13.333 14.2061 13.333 13.9136 13.4734 13.7034C13.5342 13.6124 13.6124 13.5342 13.7034 13.4734C13.9136 13.333 14.2061 13.333 14.7913 13.333C15.3765 13.333 15.6691 13.333 15.8793 13.4734C15.9703 13.5342 16.0484 13.6124 16.1092 13.7034C16.2497 13.9136 16.2497 14.2061 16.2497 14.7913C16.2497 15.3765 16.2497 15.6691 16.1092 15.8793C16.0484 15.9703 15.9703 16.0484 15.8793 16.1092C15.6691 16.2497 15.3765 16.2497 14.7913 16.2497C14.2061 16.2497 13.9136 16.2497 13.7034 16.1092C13.6124 16.0484 13.5342 15.9703 13.4734 15.8793C13.333 15.6691 13.333 15.3765 13.333 14.7913Z" fill="#008648"/>
</g>
<defs>
<clipPath id="clip0_707_15684">
<rect width="20" height="20" rx="5" fill="white"/>
</clipPath>
</defs>
</svg>
