<svg width="30" height="30" viewBox="0 0 30 30" fill="none" xmlns="http://www.w3.org/2000/svg">
<path d="M13.8525 8.02H8.22752C8.05248 8.02 7.8846 8.08954 7.76083 8.21331C7.63706 8.33708 7.56752 8.50496 7.56752 8.68V14.4C7.56752 14.575 7.63706 14.7429 7.76083 14.8667C7.8846 14.9905 8.05248 15.06 8.22752 15.06H13.8525C14.0275 15.06 14.1954 14.9905 14.3192 14.8667C14.4429 14.7429 14.5125 14.575 14.5125 14.4V8.68C14.5125 8.50496 14.4429 8.33708 14.3192 8.21331C14.1954 8.08954 14.0275 8.02 13.8525 8.02ZM13.1925 13.74H8.88752V9.34H13.1925V13.74ZM11.92 10.66H10.16V12.42H11.92V10.66ZM4.88 13.3C5.11339 13.3 5.33722 13.2073 5.50225 13.0423C5.66729 12.8772 5.76 12.6534 5.76 12.42V7.14C5.76023 6.90668 5.85302 6.68299 6.018 6.518C6.18299 6.35302 6.40668 6.26023 6.64 6.26H11.92C12.1534 6.26 12.3772 6.16729 12.5423 6.00225C12.7073 5.83722 12.8 5.61339 12.8 5.38C12.8 5.14661 12.7073 4.92278 12.5423 4.75775C12.3772 4.59271 12.1534 4.5 11.92 4.5H6.64C5.94004 4.5007 5.26895 4.77907 4.77401 5.27401C4.27907 5.76895 4.0007 6.44004 4 7.14V12.42C4 12.6534 4.09271 12.8772 4.25775 13.0423C4.42278 13.2073 4.64661 13.3 4.88 13.3ZM13.8525 15.94H8.22752C8.05248 15.94 7.8846 16.0095 7.76083 16.1333C7.63706 16.2571 7.56752 16.425 7.56752 16.6V22.32C7.56752 22.495 7.63706 22.6629 7.76083 22.7867C7.8846 22.9105 8.05248 22.98 8.22752 22.98H13.8525C14.0275 22.98 14.1954 22.9105 14.3192 22.7867C14.4429 22.6629 14.5125 22.495 14.5125 22.32V16.6C14.5125 16.425 14.4429 16.2571 14.3192 16.1333C14.1954 16.0095 14.0275 15.94 13.8525 15.94ZM13.1925 21.66H8.88752V17.26H13.1925V21.66ZM11.92 18.58H10.16V20.34H11.92V18.58ZM11.92 24.74H6.64C6.40668 24.7398 6.18299 24.647 6.018 24.482C5.85302 24.317 5.76023 24.0933 5.76 23.86V18.58C5.76 18.3466 5.66729 18.1228 5.50225 17.9577C5.33722 17.7927 5.11339 17.7 4.88 17.7C4.64661 17.7 4.42278 17.7927 4.25775 17.9577C4.09271 18.1228 4 18.3466 4 18.58V23.86C4.0007 24.56 4.27907 25.231 4.77401 25.726C5.26895 26.2209 5.94004 26.4993 6.64 26.5H11.92C12.1534 26.5 12.3772 26.4073 12.5423 26.2423C12.7073 26.0772 12.8 25.8534 12.8 25.62C12.8 25.3866 12.7073 25.1628 12.5423 24.9977C12.3772 24.8327 12.1534 24.74 11.92 24.74ZM25.12 17.7C24.8866 17.7 24.6628 17.7927 24.4977 17.9577C24.3327 18.1228 24.24 18.3466 24.24 18.58V23.86C24.2398 24.0933 24.147 24.317 23.982 24.482C23.817 24.647 23.5933 24.7398 23.36 24.74H18.08C17.8466 24.74 17.6228 24.8327 17.4577 24.9977C17.2927 25.1628 17.2 25.3866 17.2 25.62C17.2 25.8534 17.2927 26.0772 17.4577 26.2423C17.6228 26.4073 17.8466 26.5 18.08 26.5H23.36C24.06 26.4993 24.731 26.2209 25.226 25.726C25.7209 25.231 25.9993 24.56 26 23.86V18.58C26 18.3466 25.9073 18.1228 25.7423 17.9577C25.5772 17.7927 25.3534 17.7 25.12 17.7ZM17.64 20.78H15.88V22.54H17.64V20.78ZM15.88 18.1347H17.64V16.3747H15.88V18.1347ZM23.36 4.5H18.08C17.8466 4.5 17.6228 4.59271 17.4577 4.75775C17.2927 4.92278 17.2 5.14661 17.2 5.38C17.2 5.61339 17.2927 5.83722 17.4577 6.00225C17.6228 6.16729 17.8466 6.26 18.08 6.26H23.36C23.5933 6.26023 23.817 6.35302 23.982 6.518C24.147 6.68299 24.2398 6.90668 24.24 7.14V12.42C24.24 12.6534 24.3327 12.8772 24.4977 13.0423C24.6628 13.2073 24.8866 13.3 25.12 13.3C25.3534 13.3 25.5772 13.2073 25.7423 13.0423C25.9073 12.8772 26 12.6534 26 12.42V7.14C25.9993 6.44004 25.7209 5.76895 25.226 5.27401C24.731 4.77907 24.06 4.5007 23.36 4.5ZM18.08 12.42H19.84V10.66H18.08V12.42ZM19.84 20.34V18.58H18.08V20.34H19.84ZM21.7725 15.06C21.9475 15.06 22.1154 14.9905 22.2392 14.8667C22.3629 14.7429 22.4325 14.575 22.4325 14.4V8.68C22.4325 8.50496 22.3629 8.33708 22.2392 8.21331C22.1154 8.08954 21.9475 8.02 21.7725 8.02H16.1475C15.9725 8.02 15.8046 8.08954 15.6808 8.21331C15.5571 8.33708 15.4875 8.50496 15.4875 8.68V14.4C15.4875 14.575 15.5571 14.7429 15.6808 14.8667C15.8046 14.9905 15.9725 15.06 16.1475 15.06H21.7725ZM16.8075 9.34H21.1125V13.74H16.8075V9.34ZM22.04 16.3747H20.28V18.1347H22.04V16.3747ZM20.28 22.54H22.04V20.78H20.28V22.54Z" fill="white"/>
</svg>
