<?xml version="1.0" encoding="UTF-8" standalone="no"?> <svg xmlns="http://www.w3.org/2000/svg" xmlns:xlink="http://www.w3.org/1999/xlink" viewBox="0 0 64 64"><defs><style>.cls-1{fill:url(#linear-gradient);}.cls-2{fill:url(#linear-gradient-2);}</style><linearGradient id="linear-gradient" x1="6.19" y1="16.52" x2="61.25" y2="16.52" gradientUnits="userSpaceOnUse"><stop offset="0" stop-color="#17a6d7"/><stop offset="1" stop-color="#9d31fe"/></linearGradient><linearGradient id="linear-gradient-2" x1="2.75" y1="47.48" x2="57.81" y2="47.48" xlink:href="#linear-gradient"/></defs><g id="Layer_21" data-name="Layer 21"><path class="cls-1" d="M60.44,13a1.25,1.25,0,0,0-1.61.73l-3.16,8.4A26.09,26.09,0,0,0,6.23,25.57a1.25,1.25,0,0,0,2.42.62,23.59,23.59,0,0,1,45-2.39l-9.28-3.49a1.25,1.25,0,0,0-1.61.73,1.26,1.26,0,0,0,.73,1.61l11.69,4.4a1.32,1.32,0,0,0,.44.08,1.26,1.26,0,0,0,1.17-.81l4.4-11.69A1.25,1.25,0,0,0,60.44,13Z"/><path class="cls-2" d="M56.87,36.91a1.25,1.25,0,0,0-1.52.9,23.59,23.59,0,0,1-45,2.39l9.28,3.49A1.25,1.25,0,0,0,21.26,43a1.26,1.26,0,0,0-.73-1.61L8.84,37a1.26,1.26,0,0,0-1.61.73L2.83,49.37A1.25,1.25,0,0,0,3.56,51a1.36,1.36,0,0,0,.44.08,1.26,1.26,0,0,0,1.17-.81l3.16-8.4a26.09,26.09,0,0,0,49.44-3.42A1.26,1.26,0,0,0,56.87,36.91Z"/></g></svg>