<svg width="100" height="100" viewBox="0 0 100 100" fill="none" xmlns="http://www.w3.org/2000/svg">
<path d="M75 17.022L30.472 17.011C26.915 17.011 24.002 20.86 24.002 24.016C24.002 24.016 24.002 44.516 24.002 61.016H23.645L16.789 61C16.781 61.333 16.793 80.208 16.822 80.508C17.425 86.716 25.511 86.021 25.511 86.021L75.772 86.022C79.127 86.241 79.19 79.355 79.19 79.355V24.022H84.203C84.421 16.549 75 17.022 75 17.022Z" fill="white"/>
<path d="M24.0019 62.024L17.0149 62.005C17.0089 62.313 17.0989 80.985 17.1219 81.262C17.5939 86.996 23.5229 87.515 23.5229 87.515L24.0149 87.034L24.0019 62.024Z" fill="#B9C6DC"/>
<path d="M22.999 83.509C22.655 83.509 22.32 83.331 22.134 83.013C21.856 82.535 22.017 81.923 22.494 81.645C22.915 81.4 23.016 80.801 23 80V24C23 19.582 26.582 16 31 16L77.46 16.001C81.9 16.001 85.5 19.6 85.5 24.039V25C85.5 25.552 85.052 26 84.5 26H50C49.448 26 49 25.553 49 25C49 24.447 49.448 24 50 24H83.5C83.5 20.686 80.814 18 77.5 18H31C27.686 18 25 20.686 25 24V80C25.02 81.016 24.97 82.516 23.5 83.373C23.343 83.465 23.169 83.509 22.999 83.509Z" fill="#B5B8BD"/>
<path d="M24.01 87.999C19.588 87.999 16.004 84.415 16.009 79.992C16.018 72.389 16.03 62.097 16.032 61.986C16.044 61.443 16.489 61.008 17.033 61.008H17.036L23.964 61.024C24.516 61.026 24.964 61.474 24.962 62.027C24.961 62.579 24.513 63.024 23.961 63.024L24.015 62.996L18.031 63.001C18.01 63.003 18.003 73.189 18.001 80.003C18 83.318 20.686 86 24.001 86.001L73 86C76.314 86 79 83.314 79 80V25C79 24.447 79.448 24 80 24C80.552 24 81 24.447 81 25V80C81 84.418 77.418 88 73 88L24.01 87.999ZM45 26H41C40.448 26 40 25.553 40 25C40 24.447 40.458 24.009 41.009 24.009L45 24C45.552 24 46 24.447 46 25C46 25.553 45.552 26 45 26ZM37 26H35C34.448 26 34.012 25.562 34.012 25.009C34.012 24.456 34.46 24.009 35.012 24.009H37.011C37.563 24.009 38.011 24.456 38.011 25.009C38.01 25.562 37.552 26 37 26Z" fill="#B5B8BD"/>
<path d="M71.5 39H42.5C42.224 39 42 38.776 42 38.5C42 38.224 42.224 38 42.5 38H71.5C71.776 38 72 38.224 72 38.5C72 38.776 71.776 39 71.5 39Z" fill="#B9C6DC"/>
<path d="M71.5 48H42.5C42.224 48 42 47.776 42 47.5C42 47.224 42.224 47 42.5 47H71.5C71.776 47 72 47.224 72 47.5C72 47.776 71.776 48 71.5 48Z" fill="#B9C6DC"/>
<path d="M38.5 39H32.5C32.224 39 32 38.776 32 38.5C32 38.224 32.224 38 32.5 38H38.5C38.776 38 39 38.224 39 38.5C39 38.776 38.776 39 38.5 39Z" fill="#B9C6DC"/>
<path d="M38.5 48H32.5C32.224 48 32 47.776 32 47.5C32 47.224 32.224 47 32.5 47H38.5C38.776 47 39 47.224 39 47.5C39 47.776 38.776 48 38.5 48Z" fill="#B9C6DC"/>
<path d="M71.5 57H42.5C42.224 57 42 56.776 42 56.5C42 56.224 42.224 56 42.5 56H71.5C71.776 56 72 56.224 72 56.5C72 56.776 71.776 57 71.5 57Z" fill="#B9C6DC"/>
<path d="M38.5 57H32.5C32.224 57 32 56.776 32 56.5C32 56.224 32.224 56 32.5 56H38.5C38.776 56 39 56.224 39 56.5C39 56.776 38.776 57 38.5 57Z" fill="#B9C6DC"/>
<path d="M71.5 66H42.5C42.224 66 42 65.776 42 65.5C42 65.224 42.224 65 42.5 65H71.5C71.776 65 72 65.224 72 65.5C72 65.776 71.776 66 71.5 66Z" fill="#B9C6DC"/>
<path d="M38.5 66H32.5C32.224 66 32 65.776 32 65.5C32 65.224 32.224 65 32.5 65H38.5C38.776 65 39 65.224 39 65.5C39 65.776 38.776 66 38.5 66Z" fill="#B9C6DC"/>
<path d="M71.5 75H42.5C42.224 75 42 74.776 42 74.5C42 74.224 42.224 74 42.5 74H71.5C71.776 74 72 74.224 72 74.5C72 74.776 71.776 75 71.5 75Z" fill="#B9C6DC"/>
<path d="M38.5 75H32.5C32.224 75 32 74.776 32 74.5C32 74.224 32.224 74 32.5 74H38.5C38.776 74 39 74.224 39 74.5C39 74.776 38.776 75 38.5 75Z" fill="#B9C6DC"/>
</svg>
