<svg width="22" height="22" viewBox="0 0 22 22" fill="none" xmlns="http://www.w3.org/2000/svg">
<rect width="22" height="22" rx="11" fill="#00A9E9" fill-opacity="0.15"/>
<path d="M17.6136 14.1667C17.3936 15.9401 15.9402 17.3934 14.1669 17.6134C13.0936 17.7467 12.0936 17.4534 11.3136 16.8801C10.8669 16.5534 10.9736 15.8601 11.5069 15.7001C13.5136 15.0934 15.0936 13.5067 15.7069 11.5001C15.8669 10.9734 16.5602 10.8667 16.8869 11.3067C17.4536 12.0934 17.7469 13.0934 17.6136 14.1667Z" fill="url(#paint0_linear_430_9743)"/>
<path d="M9.65967 4.33301C6.71967 4.33301 4.33301 6.71967 4.33301 9.65967C4.33301 12.5997 6.71967 14.9863 9.65967 14.9863C12.5997 14.9863 14.9863 12.5997 14.9863 9.65967C14.9797 6.71967 12.5997 4.33301 9.65967 4.33301ZM9.03301 8.91301L10.6397 9.47301C11.2197 9.67967 11.4997 10.0863 11.4997 10.713C11.4997 11.433 10.9263 12.0263 10.2263 12.0263H10.1663V12.0597C10.1663 12.333 9.93967 12.5597 9.66634 12.5597C9.39301 12.5597 9.16634 12.333 9.16634 12.0597V12.0197C8.42634 11.9863 7.83301 11.3663 7.83301 10.593C7.83301 10.3197 8.05967 10.093 8.33301 10.093C8.60634 10.093 8.83301 10.3197 8.83301 10.593C8.83301 10.833 9.00634 11.0263 9.21967 11.0263H10.2197C10.373 11.0263 10.493 10.8863 10.493 10.713C10.493 10.4797 10.453 10.4663 10.2997 10.413L8.69301 9.85301C8.11967 9.65301 7.83301 9.24634 7.83301 8.61301C7.83301 7.89301 8.40634 7.29967 9.10634 7.29967H9.16634V7.27301C9.16634 6.99967 9.39301 6.77301 9.66634 6.77301C9.93967 6.77301 10.1663 6.99967 10.1663 7.27301V7.31301C10.9063 7.34634 11.4997 7.96634 11.4997 8.73967C11.4997 9.01301 11.273 9.23967 10.9997 9.23967C10.7263 9.23967 10.4997 9.01301 10.4997 8.73967C10.4997 8.49967 10.3263 8.30634 10.113 8.30634H9.11301C8.95967 8.30634 8.83967 8.44634 8.83967 8.61967C8.83301 8.84634 8.87301 8.85967 9.03301 8.91301Z" fill="url(#paint1_linear_430_9743)"/>
<defs>
<linearGradient id="paint0_linear_430_9743" x1="11.0342" y1="14.7565" x2="17.6455" y2="14.7514" gradientUnits="userSpaceOnUse">
<stop stop-color="#0086DA"/>
<stop offset="1" stop-color="#00A9E9"/>
<stop offset="1" stop-color="#00A9E9"/>
</linearGradient>
<linearGradient id="paint1_linear_430_9743" x1="4.33301" y1="10.3327" x2="14.9864" y2="10.3245" gradientUnits="userSpaceOnUse">
<stop stop-color="#0086DA"/>
<stop offset="1" stop-color="#00A9E9"/>
<stop offset="1" stop-color="#00A9E9"/>
</linearGradient>
</defs>
</svg>
