<svg width="32" height="32" viewBox="0 0 32 32" fill="none" xmlns="http://www.w3.org/2000/svg">
<rect width="32" height="32" rx="6" fill="#FF5C00" fill-opacity="0.1"/>
<path d="M8.5 13.75V11.875C8.5 10.0075 10.0075 8.5 11.875 8.5H13.75" stroke="#FF5C00" stroke-width="1.2" stroke-linecap="round" stroke-linejoin="round"/>
<path d="M18.25 8.5H20.125C21.9925 8.5 23.5 10.0075 23.5 11.875V13.75" stroke="#FF5C00" stroke-width="1.2" stroke-linecap="round" stroke-linejoin="round"/>
<path d="M23.5 19V20.125C23.5 21.9925 21.9925 23.5 20.125 23.5H19" stroke="#FF5C00" stroke-width="1.2" stroke-linecap="round" stroke-linejoin="round"/>
<path d="M13.75 23.5H11.875C10.0075 23.5 8.5 21.9925 8.5 20.125V18.25" stroke="#FF5C00" stroke-width="1.2" stroke-linecap="round" stroke-linejoin="round"/>
<path d="M19.75 14.125V17.875C19.75 19.375 19 20.125 17.5 20.125H14.5C13 20.125 12.25 19.375 12.25 17.875V14.125C12.25 12.625 13 11.875 14.5 11.875H17.5C19 11.875 19.75 12.625 19.75 14.125Z" stroke="#FF5C00" stroke-width="1.2" stroke-linecap="round" stroke-linejoin="round"/>
<path d="M21.25 16H10.75" stroke="#FF5C00" stroke-width="1.2" stroke-linecap="round" stroke-linejoin="round"/>
</svg>
