<svg width="18" height="19" viewBox="0 0 18 19" fill="none" xmlns="http://www.w3.org/2000/svg">
<g id="icons8_search_more 1">
<path id="Vector" d="M7.5 2C4.19517 2 1.5 4.69517 1.5 8C1.5 11.3048 4.19517 14 7.5 14C9.01795 14 10.4038 13.4278 11.4624 12.4927L12 13.0303V14L15 17L16.5 15.5L13.5 12.5H12.5303L11.9927 11.9624C12.9278 10.9038 13.5 9.51795 13.5 8C13.5 4.69517 10.8048 2 7.5 2ZM7.5 3.5C9.99416 3.5 12 5.50583 12 8C12 10.4942 9.99416 12.5 7.5 12.5C5.00583 12.5 3 10.4942 3 8C3 5.50583 5.00583 3.5 7.5 3.5Z" fill="white"/>
</g>
</svg>
