<svg width="26" height="26" viewBox="0 0 26 26" fill="none" xmlns="http://www.w3.org/2000/svg">
<g clip-path="url(#clip0_102_1904)">
<path d="M14.8742 3.8025L16.7809 7.61583C17.0409 8.14667 17.7342 8.65583 18.3192 8.75333L21.775 9.3275C23.985 9.69583 24.505 11.2992 22.9125 12.8808L20.2259 15.5675C19.7709 16.0225 19.5217 16.9 19.6625 17.5283L20.4317 20.8542C21.0384 23.4867 19.6409 24.505 17.3117 23.1292L14.0725 21.2117C13.4875 20.865 12.5234 20.865 11.9275 21.2117L8.68836 23.1292C6.37002 24.505 4.96169 23.4758 5.56836 20.8542L6.33752 17.5283C6.47836 16.9 6.22919 16.0225 5.77419 15.5675L3.08752 12.8808C1.50586 11.2992 2.01502 9.69583 4.22502 9.3275L7.68086 8.75333C8.25502 8.65583 8.94836 8.14667 9.20836 7.61583L11.115 3.8025C12.155 1.73333 13.845 1.73333 14.8742 3.8025Z" stroke="white" stroke-width="1.5" stroke-linecap="round" stroke-linejoin="round"/>
</g>
<defs>
<clipPath id="clip0_102_1904">
<rect width="26" height="26" fill="white"/>
</clipPath>
</defs>
</svg>
