<svg width="24" height="24" viewBox="0 0 24 24" fill="none" xmlns="http://www.w3.org/2000/svg">
<g clip-path="url(#clip0_560_9922)">
<path d="M12 22C17.5228 22 22 17.5228 22 12C22 6.47715 17.5228 2 12 2C6.47715 2 2 6.47715 2 12C2 17.5228 6.47715 22 12 22Z" stroke="#999999" stroke-linecap="round" stroke-linejoin="round"/>
<path d="M9 9H9.01" stroke="#999999" stroke-width="1.5" stroke-linecap="round" stroke-linejoin="round"/>
<path d="M15 9H15.01" stroke="#999999" stroke-width="1.5" stroke-linecap="round" stroke-linejoin="round"/>
<path d="M9 15C9.39105 15.6332 9.85782 16.1363 10.373 16.4797C10.8881 16.8231 11.4412 17 12 17C12.5588 17 13.1119 16.8231 13.627 16.4797C14.1422 16.1363 14.6089 15.6332 15 15" stroke="#999999" stroke-linecap="round" stroke-linejoin="round"/>
</g>
<defs>
<clipPath id="clip0_560_9922">
<rect width="24" height="24" fill="white"/>
</clipPath>
</defs>
</svg>
