<svg width="22" height="22" viewBox="0 0 22 22" fill="none" xmlns="http://www.w3.org/2000/svg">
<rect width="22" height="22" rx="11" fill="#00A9E9" fill-opacity="0.15"/>
<path d="M12.2969 5.19256C12.2696 5.12256 12.2113 5.06423 12.1413 5.03701C12.1024 5.02145 12.0674 5.01367 12.0285 5.01367H9.50076C9.34132 5.01367 9.20909 5.14589 9.20909 5.30534C9.20909 5.46478 9.34132 5.59701 9.50076 5.59701H11.3246L9.57076 7.35478H9.56687C9.04576 6.92312 8.38076 6.66645 7.65354 6.66645C5.98909 6.66645 4.63965 8.01589 4.63965 9.68034C4.63965 11.3448 5.98909 12.6942 7.65354 12.6942C9.31798 12.6942 10.6674 11.3448 10.6674 9.68034C10.6674 8.95312 10.4108 8.28812 9.97909 7.76701L11.7369 6.00923V7.83312C11.7369 7.99256 11.8691 8.12478 12.0285 8.12478C12.188 8.12478 12.3202 7.99256 12.3202 7.83312V5.30534C12.3202 5.26645 12.3124 5.23145 12.2969 5.19256Z" fill="url(#paint0_linear_430_9769)"/>
<path d="M16.3888 11.1666C16.3888 9.66156 15.1716 8.44434 13.6666 8.44434C12.1616 8.44434 10.9443 9.66156 10.9443 11.1666C10.9443 12.5743 12.0099 13.7293 13.3749 13.8732V14.7638H12.4999C12.3404 14.7638 12.2082 14.896 12.2082 15.0554C12.2082 15.2149 12.3404 15.3471 12.4999 15.3471H13.3749V16.2221C13.3749 16.3816 13.5071 16.5138 13.6666 16.5138C13.826 16.5138 13.9582 16.3816 13.9582 16.2221V15.3471H14.8332C14.9927 15.3471 15.1249 15.2149 15.1249 15.0554C15.1249 14.896 14.9927 14.7638 14.8332 14.7638H13.9582V13.8732C15.3232 13.7293 16.3888 12.5743 16.3888 11.1666Z" fill="url(#paint1_linear_430_9769)"/>
<defs>
<linearGradient id="paint0_linear_430_9769" x1="4.63965" y1="9.3392" x2="12.3202" y2="9.33329" gradientUnits="userSpaceOnUse">
<stop stop-color="#0086DA"/>
<stop offset="1" stop-color="#00A9E9"/>
<stop offset="1" stop-color="#00A9E9"/>
</linearGradient>
<linearGradient id="paint1_linear_430_9769" x1="10.9443" y1="12.9889" x2="16.3888" y2="12.9861" gradientUnits="userSpaceOnUse">
<stop stop-color="#0086DA"/>
<stop offset="1" stop-color="#00A9E9"/>
<stop offset="1" stop-color="#00A9E9"/>
</linearGradient>
</defs>
</svg>
