<svg width="22" height="22" viewBox="0 0 22 22" fill="none" xmlns="http://www.w3.org/2000/svg">
<rect width="22" height="22" rx="11" fill="#00A9E9" fill-opacity="0.15"/>
<path d="M10.9601 4.4729L9.35346 8.2129H7.7468C7.48013 8.2129 7.22013 8.23289 6.9668 8.28623L7.63346 6.68623L7.66013 6.62623L7.70013 6.51956C7.72013 6.4729 7.73346 6.4329 7.75346 6.39956C8.5268 4.60623 9.39346 4.04623 10.9601 4.4729Z" fill="url(#paint0_linear_430_9711)"/>
<path d="M15.4867 8.39302L15.4734 8.38635C15.0734 8.27302 14.6667 8.21302 14.2534 8.21302H10.0801L11.5801 4.72635L11.6001 4.67969C11.6934 4.71302 11.7934 4.75969 11.8934 4.79302L13.3667 5.41302C14.1867 5.75302 14.7601 6.10635 15.1134 6.53302C15.1734 6.61302 15.2267 6.68635 15.2801 6.77302C15.3401 6.86635 15.3867 6.95969 15.4134 7.05969C15.4401 7.11969 15.4601 7.17302 15.4734 7.23302C15.5734 7.57302 15.5801 7.95969 15.4867 8.39302Z" fill="url(#paint1_linear_430_9711)"/>
<path d="M11.3467 14.7734H11.5133C11.7133 14.7734 11.88 14.5934 11.88 14.3734C11.88 14.0934 11.8 14.0534 11.6267 13.9867L11.3467 13.8867V14.7734Z" fill="url(#paint2_linear_430_9711)"/>
<path d="M15.1932 9.34622C14.8932 9.25956 14.5798 9.21289 14.2532 9.21289H7.7465C7.29316 9.21289 6.8665 9.29956 6.4665 9.47289C5.3065 9.97289 4.49316 11.1262 4.49316 12.4662V13.7662C4.49316 13.9262 4.5065 14.0796 4.5265 14.2396C4.67316 16.3596 5.8065 17.4929 7.9265 17.6329C8.07983 17.6529 8.23316 17.6662 8.39983 17.6662H13.5998C16.0665 17.6662 17.3665 16.4929 17.4932 14.1596C17.4998 14.0329 17.5065 13.8996 17.5065 13.7662V12.4662C17.5065 10.9929 16.5265 9.75289 15.1932 9.34622ZM11.8532 13.3329C12.1598 13.4396 12.5732 13.6662 12.5732 14.3729C12.5732 14.9796 12.0998 15.4662 11.5132 15.4662H11.3465V15.6129C11.3465 15.8062 11.1932 15.9596 10.9998 15.9596C10.8065 15.9596 10.6532 15.8062 10.6532 15.6129V15.4662H10.5932C9.95316 15.4662 9.4265 14.9262 9.4265 14.2596C9.4265 14.0662 9.57983 13.9129 9.77316 13.9129C9.9665 13.9129 10.1198 14.0662 10.1198 14.2596C10.1198 14.5396 10.3332 14.7729 10.5932 14.7729H10.6532V13.6462L10.1465 13.4662C9.83983 13.3596 9.4265 13.1329 9.4265 12.4262C9.4265 11.8196 9.89983 11.3329 10.4865 11.3329H10.6532V11.1862C10.6532 10.9929 10.8065 10.8396 10.9998 10.8396C11.1932 10.8396 11.3465 10.9929 11.3465 11.1862V11.3329H11.4065C12.0465 11.3329 12.5732 11.8729 12.5732 12.5396C12.5732 12.7329 12.4198 12.8862 12.2265 12.8862C12.0332 12.8862 11.8798 12.7329 11.8798 12.5396C11.8798 12.2596 11.6665 12.0262 11.4065 12.0262H11.3465V13.1529L11.8532 13.3329Z" fill="url(#paint3_linear_430_9711)"/>
<path d="M10.1201 12.4264C10.1201 12.7064 10.2001 12.7464 10.3735 12.813L10.6535 12.913V12.0264H10.4868C10.2801 12.0264 10.1201 12.2064 10.1201 12.4264Z" fill="url(#paint4_linear_430_9711)"/>
<defs>
<linearGradient id="paint0_linear_430_9711" x1="6.9668" y1="6.56108" x2="10.9601" y2="6.55798" gradientUnits="userSpaceOnUse">
<stop stop-color="#0086DA"/>
<stop offset="1" stop-color="#00A9E9"/>
<stop offset="1" stop-color="#00A9E9"/>
</linearGradient>
<linearGradient id="paint1_linear_430_9711" x1="10.0801" y1="6.77096" x2="15.5528" y2="6.76476" gradientUnits="userSpaceOnUse">
<stop stop-color="#0086DA"/>
<stop offset="1" stop-color="#00A9E9"/>
<stop offset="1" stop-color="#00A9E9"/>
</linearGradient>
<linearGradient id="paint2_linear_430_9711" x1="11.3467" y1="14.3861" x2="11.88" y2="14.3858" gradientUnits="userSpaceOnUse">
<stop stop-color="#0086DA"/>
<stop offset="1" stop-color="#00A9E9"/>
<stop offset="1" stop-color="#00A9E9"/>
</linearGradient>
<linearGradient id="paint3_linear_430_9711" x1="4.49316" y1="13.9736" x2="17.5066" y2="13.9582" gradientUnits="userSpaceOnUse">
<stop stop-color="#0086DA"/>
<stop offset="1" stop-color="#00A9E9"/>
<stop offset="1" stop-color="#00A9E9"/>
</linearGradient>
<linearGradient id="paint4_linear_430_9711" x1="10.1201" y1="12.5257" x2="10.6535" y2="12.5255" gradientUnits="userSpaceOnUse">
<stop stop-color="#0086DA"/>
<stop offset="1" stop-color="#00A9E9"/>
<stop offset="1" stop-color="#00A9E9"/>
</linearGradient>
</defs>
</svg>
