<svg width="26" height="27" viewBox="0 0 26 27" fill="none" xmlns="http://www.w3.org/2000/svg">
<path d="M12.7585 5.1485C12.605 4.75424 12.2618 4.5 11.883 4.5C11.5041 4.5 11.1608 4.75424 11.0074 5.1485L8.58026 11.3864C8.40868 11.8274 8.6924 12.3235 9.11616 12.3235C9.34948 12.3235 9.56057 12.166 9.65363 11.9225L10.1151 10.7149C10.1407 10.6482 10.1986 10.605 10.2625 10.605H13.4986C13.5626 10.605 13.6205 10.6482 13.646 10.7149L14.1069 11.921C14.2003 12.1654 14.4121 12.3235 14.6463 12.3235C15.0717 12.3235 15.3565 11.8256 15.1843 11.3829L12.7585 5.1485ZM12.9275 9.4538H10.848C10.7323 9.4538 10.6545 9.31879 10.7006 9.19799L11.7404 6.47391C11.7963 6.32719 11.9792 6.32719 12.0352 6.47392L13.0749 9.198C13.121 9.3188 13.0432 9.4538 12.9275 9.4538Z" fill="white"/>
<path d="M16.9118 4.5C16.6032 4.5 16.353 4.81021 16.353 5.19287V11.6307C16.353 12.0133 16.6032 12.3235 16.9118 12.3235C17.2204 12.3235 17.4706 12.0133 17.4706 11.6307V5.19287C17.4706 4.81021 17.2204 4.5 16.9118 4.5Z" fill="white"/>
<path d="M6.53156 22.5C6.13797 22.5 5.73735 22.4516 5.3297 22.3548C4.92205 22.2515 4.56711 22.0998 4.26489 21.8997C4.15243 21.8352 4.07512 21.7577 4.03295 21.6674C3.9978 21.5705 3.99078 21.4834 4.01186 21.4059C4.03295 21.322 4.07512 21.251 4.13837 21.1929C4.20866 21.1349 4.293 21.1026 4.3914 21.0961C4.4898 21.0832 4.59874 21.109 4.71822 21.1736C5.02044 21.3414 5.31564 21.464 5.60381 21.5415C5.89197 21.6125 6.19068 21.648 6.49994 21.648C6.8373 21.648 7.12195 21.6028 7.35389 21.5124C7.58583 21.4221 7.75803 21.2898 7.87049 21.1155C7.98997 20.9412 8.04971 20.7314 8.04971 20.4862C8.04971 20.1183 7.91617 19.8439 7.64909 19.6632C7.38904 19.476 7.0095 19.3824 6.51048 19.3824H5.79358C5.63192 19.3824 5.50892 19.3469 5.42458 19.2759C5.34024 19.1985 5.29807 19.092 5.29807 18.9564C5.29807 18.8273 5.34024 18.7273 5.42458 18.6563C5.50892 18.5788 5.63192 18.5401 5.79358 18.5401H6.40505C6.70728 18.5401 6.96381 18.4949 7.17467 18.4046C7.38552 18.3077 7.54718 18.1754 7.65963 18.0076C7.77912 17.8333 7.83886 17.6236 7.83886 17.3783C7.83886 17.0491 7.71937 16.7974 7.48041 16.6231C7.24847 16.4424 6.90759 16.352 6.45777 16.352C6.1696 16.352 5.89549 16.3875 5.63544 16.4585C5.38241 16.5295 5.11884 16.6554 4.84473 16.8361C4.73931 16.9006 4.63739 16.9297 4.539 16.9232C4.44763 16.9103 4.3668 16.8781 4.29651 16.8264C4.23326 16.7683 4.18757 16.6973 4.15946 16.6134C4.13837 16.5295 4.1454 16.4424 4.18054 16.352C4.21569 16.2616 4.28597 16.1842 4.3914 16.1196C4.68659 15.9195 5.02044 15.7679 5.39295 15.6646C5.76546 15.5549 6.14851 15.5 6.54211 15.5C7.0341 15.5 7.45581 15.571 7.80723 15.713C8.16568 15.855 8.43628 16.0583 8.61902 16.323C8.80879 16.5876 8.90367 16.9039 8.90367 17.2718C8.90367 17.5493 8.84744 17.8011 8.73499 18.027C8.62253 18.2529 8.46088 18.4465 8.25002 18.6079C8.0462 18.7628 7.79669 18.8725 7.50149 18.9371V18.8306C8.01457 18.908 8.41168 19.1017 8.69282 19.4115C8.97395 19.7148 9.11452 20.0957 9.11452 20.5539C9.11452 20.9541 9.0091 21.3027 8.79824 21.5996C8.59442 21.89 8.29922 22.1127 7.91266 22.2676C7.52609 22.4225 7.06573 22.5 6.53156 22.5Z" fill="white"/>
<path d="M13.2326 22.5C12.6352 22.5 12.1256 22.3677 11.7039 22.103C11.2892 21.8384 10.9694 21.4576 10.7445 20.9606C10.5266 20.4571 10.4177 19.8536 10.4177 19.1501C10.4177 18.5627 10.488 18.0431 10.6286 17.5913C10.7691 17.1395 10.9729 16.7586 11.24 16.4488C11.5071 16.139 11.8304 15.9034 12.21 15.742C12.5965 15.5807 13.0323 15.5 13.5173 15.5C13.8335 15.5 14.1568 15.5516 14.4872 15.6549C14.8175 15.7517 15.1197 15.9002 15.3939 16.1003C15.4852 16.1584 15.5414 16.2326 15.5625 16.323C15.5906 16.4069 15.5942 16.4908 15.5731 16.5747C15.552 16.6521 15.5098 16.7199 15.4466 16.778C15.3833 16.8361 15.3025 16.8716 15.2041 16.8845C15.1127 16.891 15.0143 16.8619 14.9089 16.7974C14.6699 16.636 14.431 16.5231 14.192 16.4585C13.96 16.3875 13.7281 16.352 13.4962 16.352C13.0604 16.352 12.6914 16.4488 12.3892 16.6425C12.087 16.8361 11.8585 17.1266 11.7039 17.5138C11.5493 17.9011 11.472 18.382 11.472 18.9564V19.7794H11.356C11.4052 19.4308 11.5212 19.1307 11.7039 18.879C11.8937 18.6208 12.1362 18.4239 12.4314 18.2884C12.7265 18.1528 13.0534 18.0851 13.4118 18.0851C13.8476 18.0851 14.2306 18.1787 14.561 18.3658C14.8983 18.553 15.1619 18.8112 15.3517 19.1404C15.5414 19.4631 15.6363 19.8343 15.6363 20.2538C15.6363 20.6863 15.5344 21.0735 15.3306 21.4156C15.1268 21.7577 14.8421 22.0256 14.4766 22.2192C14.1182 22.4064 13.7035 22.5 13.2326 22.5ZM13.1693 21.6867C13.4575 21.6867 13.7105 21.6286 13.9284 21.5124C14.1463 21.3963 14.315 21.2349 14.4345 21.0284C14.5539 20.8154 14.6137 20.5701 14.6137 20.2925C14.6137 20.015 14.5539 19.7729 14.4345 19.5664C14.315 19.3598 14.1463 19.1985 13.9284 19.0823C13.7105 18.9597 13.4575 18.8983 13.1693 18.8983C12.8812 18.8983 12.6282 18.9597 12.4103 19.0823C12.1994 19.1985 12.0307 19.3598 11.9042 19.5664C11.7847 19.7729 11.725 20.015 11.725 20.2925C11.725 20.5701 11.7847 20.8154 11.9042 21.0284C12.0307 21.2349 12.1994 21.3963 12.4103 21.5124C12.6282 21.6286 12.8812 21.6867 13.1693 21.6867Z" fill="white"/>
<path d="M19.4065 22.5C19.0199 22.5 18.6299 22.4516 18.2363 22.3548C17.8427 22.2515 17.4842 22.0934 17.1609 21.8804C17.0555 21.8223 16.9852 21.748 16.9501 21.6577C16.9149 21.5673 16.9079 21.4802 16.929 21.3963C16.95 21.3059 16.9922 21.2317 17.0555 21.1736C17.1258 21.1155 17.2101 21.0832 17.3085 21.0768C17.4069 21.0639 17.5123 21.0897 17.6248 21.1542C17.8989 21.3156 18.18 21.4382 18.4682 21.5221C18.7634 21.606 19.0691 21.648 19.3854 21.648C19.7087 21.648 19.9863 21.5931 20.2183 21.4834C20.4502 21.3737 20.6259 21.222 20.7454 21.0284C20.8719 20.8283 20.9352 20.5959 20.9352 20.3313C20.9352 19.9246 20.8052 19.5922 20.5451 19.334C20.2851 19.0758 19.9231 18.9467 19.4592 18.9467C19.1921 18.9467 18.9426 18.9919 18.7107 19.0823C18.4787 19.1662 18.2573 19.3082 18.0465 19.5083C17.9973 19.5599 17.9305 19.6083 17.8462 19.6535C17.7689 19.6923 17.681 19.7116 17.5826 19.7116C17.435 19.7116 17.3226 19.6761 17.2452 19.6051C17.1679 19.5341 17.1293 19.4373 17.1293 19.3147V16.0325C17.1293 15.8905 17.1714 15.7808 17.2558 15.7033C17.3401 15.6259 17.4596 15.5871 17.6142 15.5871H21.146C21.3007 15.5871 21.4202 15.6226 21.5045 15.6936C21.5888 15.7646 21.631 15.8679 21.631 16.0035C21.631 16.139 21.5888 16.2455 21.5045 16.323C21.4202 16.394 21.3007 16.4295 21.146 16.4295H18.1941V18.8887H17.8989C18.0887 18.6434 18.3382 18.453 18.6474 18.3174C18.9637 18.1819 19.3116 18.1141 19.6911 18.1141C20.1621 18.1141 20.5697 18.2045 20.9141 18.3852C21.2585 18.5659 21.5256 18.8209 21.7153 19.1501C21.9051 19.4728 22 19.8504 22 20.2828C22 20.7218 21.8946 21.109 21.6837 21.4447C21.4729 21.7739 21.1742 22.032 20.7876 22.2192C20.401 22.4064 19.9407 22.5 19.4065 22.5Z" fill="white"/>
<path d="M6.53156 22.5C6.13797 22.5 5.73735 22.4516 5.3297 22.3548C4.92205 22.2515 4.56711 22.0998 4.26489 21.8997C4.15243 21.8352 4.07512 21.7577 4.03295 21.6674C3.9978 21.5705 3.99078 21.4834 4.01186 21.4059C4.03295 21.322 4.07512 21.251 4.13837 21.1929C4.20866 21.1349 4.293 21.1026 4.3914 21.0961C4.4898 21.0832 4.59874 21.109 4.71822 21.1736C5.02044 21.3414 5.31564 21.464 5.60381 21.5415C5.89197 21.6125 6.19068 21.648 6.49994 21.648C6.8373 21.648 7.12195 21.6028 7.35389 21.5124C7.58583 21.4221 7.75803 21.2898 7.87049 21.1155C7.98997 20.9412 8.04971 20.7314 8.04971 20.4862C8.04971 20.1183 7.91617 19.8439 7.64909 19.6632C7.38904 19.476 7.0095 19.3824 6.51048 19.3824H5.79358C5.63192 19.3824 5.50892 19.3469 5.42458 19.2759C5.34024 19.1985 5.29807 19.092 5.29807 18.9564C5.29807 18.8273 5.34024 18.7273 5.42458 18.6563C5.50892 18.5788 5.63192 18.5401 5.79358 18.5401H6.40505C6.70728 18.5401 6.96381 18.4949 7.17467 18.4046C7.38552 18.3077 7.54718 18.1754 7.65963 18.0076C7.77912 17.8333 7.83886 17.6236 7.83886 17.3783C7.83886 17.0491 7.71937 16.7974 7.48041 16.6231C7.24847 16.4424 6.90759 16.352 6.45777 16.352C6.1696 16.352 5.89549 16.3875 5.63544 16.4585C5.38241 16.5295 5.11884 16.6554 4.84473 16.8361C4.73931 16.9006 4.63739 16.9297 4.539 16.9232C4.44763 16.9103 4.3668 16.8781 4.29651 16.8264C4.23326 16.7683 4.18757 16.6973 4.15946 16.6134C4.13837 16.5295 4.1454 16.4424 4.18054 16.352C4.21569 16.2616 4.28597 16.1842 4.3914 16.1196C4.68659 15.9195 5.02044 15.7679 5.39295 15.6646C5.76546 15.5549 6.14851 15.5 6.54211 15.5C7.0341 15.5 7.45581 15.571 7.80723 15.713C8.16568 15.855 8.43628 16.0583 8.61902 16.323C8.80879 16.5876 8.90367 16.9039 8.90367 17.2718C8.90367 17.5493 8.84744 17.8011 8.73499 18.027C8.62253 18.2529 8.46088 18.4465 8.25002 18.6079C8.0462 18.7628 7.79669 18.8725 7.50149 18.9371V18.8306C8.01457 18.908 8.41168 19.1017 8.69282 19.4115C8.97395 19.7148 9.11452 20.0957 9.11452 20.5539C9.11452 20.9541 9.0091 21.3027 8.79824 21.5996C8.59442 21.89 8.29922 22.1127 7.91266 22.2676C7.52609 22.4225 7.06573 22.5 6.53156 22.5Z" stroke="white" stroke-width="0.5"/>
<path d="M13.2326 22.5C12.6352 22.5 12.1256 22.3677 11.7039 22.103C11.2892 21.8384 10.9694 21.4576 10.7445 20.9606C10.5266 20.4571 10.4177 19.8536 10.4177 19.1501C10.4177 18.5627 10.488 18.0431 10.6286 17.5913C10.7691 17.1395 10.9729 16.7586 11.24 16.4488C11.5071 16.139 11.8304 15.9034 12.21 15.742C12.5965 15.5807 13.0323 15.5 13.5173 15.5C13.8335 15.5 14.1568 15.5516 14.4872 15.6549C14.8175 15.7517 15.1197 15.9002 15.3939 16.1003C15.4852 16.1584 15.5414 16.2326 15.5625 16.323C15.5906 16.4069 15.5942 16.4908 15.5731 16.5747C15.552 16.6521 15.5098 16.7199 15.4466 16.778C15.3833 16.8361 15.3025 16.8716 15.2041 16.8845C15.1127 16.891 15.0143 16.8619 14.9089 16.7974C14.6699 16.636 14.431 16.5231 14.192 16.4585C13.96 16.3875 13.7281 16.352 13.4962 16.352C13.0604 16.352 12.6914 16.4488 12.3892 16.6425C12.087 16.8361 11.8585 17.1266 11.7039 17.5138C11.5493 17.9011 11.472 18.382 11.472 18.9564V19.7794H11.356C11.4052 19.4308 11.5212 19.1307 11.7039 18.879C11.8937 18.6208 12.1362 18.4239 12.4314 18.2884C12.7265 18.1528 13.0534 18.0851 13.4118 18.0851C13.8476 18.0851 14.2306 18.1787 14.561 18.3658C14.8983 18.553 15.1619 18.8112 15.3517 19.1404C15.5414 19.4631 15.6363 19.8343 15.6363 20.2538C15.6363 20.6863 15.5344 21.0735 15.3306 21.4156C15.1268 21.7577 14.8421 22.0256 14.4766 22.2192C14.1182 22.4064 13.7035 22.5 13.2326 22.5ZM13.1693 21.6867C13.4575 21.6867 13.7105 21.6286 13.9284 21.5124C14.1463 21.3963 14.315 21.2349 14.4345 21.0284C14.5539 20.8154 14.6137 20.5701 14.6137 20.2925C14.6137 20.015 14.5539 19.7729 14.4345 19.5664C14.315 19.3598 14.1463 19.1985 13.9284 19.0823C13.7105 18.9597 13.4575 18.8983 13.1693 18.8983C12.8812 18.8983 12.6282 18.9597 12.4103 19.0823C12.1994 19.1985 12.0307 19.3598 11.9042 19.5664C11.7847 19.7729 11.725 20.015 11.725 20.2925C11.725 20.5701 11.7847 20.8154 11.9042 21.0284C12.0307 21.2349 12.1994 21.3963 12.4103 21.5124C12.6282 21.6286 12.8812 21.6867 13.1693 21.6867Z" stroke="white" stroke-width="0.5"/>
<path d="M19.4065 22.5C19.0199 22.5 18.6299 22.4516 18.2363 22.3548C17.8427 22.2515 17.4842 22.0934 17.1609 21.8804C17.0555 21.8223 16.9852 21.748 16.9501 21.6577C16.9149 21.5673 16.9079 21.4802 16.929 21.3963C16.95 21.3059 16.9922 21.2317 17.0555 21.1736C17.1258 21.1155 17.2101 21.0832 17.3085 21.0768C17.4069 21.0639 17.5123 21.0897 17.6248 21.1542C17.8989 21.3156 18.18 21.4382 18.4682 21.5221C18.7634 21.606 19.0691 21.648 19.3854 21.648C19.7087 21.648 19.9863 21.5931 20.2183 21.4834C20.4502 21.3737 20.6259 21.222 20.7454 21.0284C20.8719 20.8283 20.9352 20.5959 20.9352 20.3313C20.9352 19.9246 20.8052 19.5922 20.5451 19.334C20.2851 19.0758 19.9231 18.9467 19.4592 18.9467C19.1921 18.9467 18.9426 18.9919 18.7107 19.0823C18.4787 19.1662 18.2573 19.3082 18.0465 19.5083C17.9973 19.5599 17.9305 19.6083 17.8462 19.6535C17.7689 19.6923 17.681 19.7116 17.5826 19.7116C17.435 19.7116 17.3226 19.6761 17.2452 19.6051C17.1679 19.5341 17.1293 19.4373 17.1293 19.3147V16.0325C17.1293 15.8905 17.1714 15.7808 17.2558 15.7033C17.3401 15.6259 17.4596 15.5871 17.6142 15.5871H21.146C21.3007 15.5871 21.4202 15.6226 21.5045 15.6936C21.5888 15.7646 21.631 15.8679 21.631 16.0035C21.631 16.139 21.5888 16.2455 21.5045 16.323C21.4202 16.394 21.3007 16.4295 21.146 16.4295H18.1941V18.8887H17.8989C18.0887 18.6434 18.3382 18.453 18.6474 18.3174C18.9637 18.1819 19.3116 18.1141 19.6911 18.1141C20.1621 18.1141 20.5697 18.2045 20.9141 18.3852C21.2585 18.5659 21.5256 18.8209 21.7153 19.1501C21.9051 19.4728 22 19.8504 22 20.2828C22 20.7218 21.8946 21.109 21.6837 21.4447C21.4729 21.7739 21.1742 22.032 20.7876 22.2192C20.401 22.4064 19.9407 22.5 19.4065 22.5Z" stroke="white" stroke-width="0.5"/>
</svg>
