<svg width="22" height="22" viewBox="0 0 22 22" fill="none" xmlns="http://www.w3.org/2000/svg">
<rect width="22" height="22" rx="11" fill="#00A9E9" fill-opacity="0.15"/>
<path d="M12.0336 16.4399C11.8602 16.5133 11.6736 16.5799 11.4736 16.6466L10.4202 16.9933C7.77356 17.8466 6.38023 17.1333 5.52023 14.4866L4.66689 11.8533C3.81356 9.20661 4.52023 7.80661 7.16689 6.95328L8.19356 6.61328C8.06689 6.93328 7.96023 7.29995 7.86023 7.71328L7.20689 10.5066C6.47356 13.6466 7.54689 15.3799 10.6869 16.1266L11.8069 16.3933C11.8802 16.4133 11.9602 16.4266 12.0336 16.4399Z" fill="url(#paint0_linear_430_9776)"/>
<path d="M14.4465 5.14033L13.3331 4.88033C11.1065 4.35366 9.77979 4.787 8.99979 6.40033C8.79979 6.807 8.63979 7.30033 8.50646 7.867L7.85313 10.6603C7.19979 13.447 8.05979 14.8203 10.8398 15.4803L11.9598 15.747C12.3465 15.8403 12.7065 15.9003 13.0398 15.927C15.1198 16.127 16.2265 15.1537 16.7865 12.747L17.4398 9.96033C18.0931 7.17366 17.2398 5.79366 14.4465 5.14033Z" fill="url(#paint1_linear_430_9776)"/>
<defs>
<linearGradient id="paint0_linear_430_9776" x1="4.32422" y1="12.6514" x2="12.0336" y2="12.6472" gradientUnits="userSpaceOnUse">
<stop stop-color="#0086DA"/>
<stop offset="1" stop-color="#00A9E9"/>
<stop offset="1" stop-color="#00A9E9"/>
</linearGradient>
<linearGradient id="paint1_linear_430_9776" x1="7.64551" y1="11.0231" x2="17.6481" y2="11.0163" gradientUnits="userSpaceOnUse">
<stop stop-color="#0086DA"/>
<stop offset="1" stop-color="#00A9E9"/>
<stop offset="1" stop-color="#00A9E9"/>
</linearGradient>
</defs>
</svg>
