<svg width="22" height="22" viewBox="0 0 22 22" fill="none" xmlns="http://www.w3.org/2000/svg">
<rect width="22" height="22" rx="11" fill="#00A9E9" fill-opacity="0.15"/>
<path d="M10.9997 8.5C9.80634 8.5 8.83301 9.47333 8.83301 10.6667C8.83301 11.86 9.80634 12.8333 10.9997 12.8333C12.193 12.8333 13.1663 11.86 13.1663 10.6667C13.1663 9.47333 12.193 8.5 10.9997 8.5ZM11.6663 10.4533C11.6663 10.86 11.4463 11.2467 11.0997 11.4533L10.5863 11.76C10.5063 11.8067 10.4197 11.8333 10.3263 11.8333C10.1597 11.8333 9.99301 11.7467 9.89967 11.5933C9.75967 11.3533 9.83301 11.0467 10.073 10.9067L10.5797 10.6C10.633 10.5667 10.6597 10.5133 10.6597 10.46V9.84C10.6597 9.56667 10.8863 9.34 11.1597 9.34C11.433 9.34 11.6663 9.56 11.6663 9.83333V10.4533Z" fill="url(#paint0_linear_430_9750)"/>
<path d="M15.3595 5.78009L11.6929 4.40676C11.3129 4.26676 10.6929 4.26676 10.3129 4.40676L6.64621 5.78009C5.93954 6.04676 5.36621 6.87342 5.36621 7.62676V13.0268C5.36621 13.5668 5.71954 14.2801 6.15288 14.6001L9.81954 17.3401C10.4662 17.8268 11.5262 17.8268 12.1729 17.3401L15.8395 14.6001C16.2729 14.2734 16.6262 13.5668 16.6262 13.0268V7.62676C16.6329 6.87342 16.0595 6.04676 15.3595 5.78009ZM10.9995 13.8334C9.25288 13.8334 7.83288 12.4134 7.83288 10.6668C7.83288 8.92009 9.25288 7.50009 10.9995 7.50009C12.7462 7.50009 14.1662 8.92009 14.1662 10.6668C14.1662 12.4134 12.7462 13.8334 10.9995 13.8334Z" fill="url(#paint1_linear_430_9750)"/>
<defs>
<linearGradient id="paint0_linear_430_9750" x1="8.83301" y1="10.9404" x2="13.1664" y2="10.9371" gradientUnits="userSpaceOnUse">
<stop stop-color="#0086DA"/>
<stop offset="1" stop-color="#00A9E9"/>
<stop offset="1" stop-color="#00A9E9"/>
</linearGradient>
<linearGradient id="paint1_linear_430_9750" x1="5.36621" y1="11.8502" x2="16.6263" y2="11.843" gradientUnits="userSpaceOnUse">
<stop stop-color="#0086DA"/>
<stop offset="1" stop-color="#00A9E9"/>
<stop offset="1" stop-color="#00A9E9"/>
</linearGradient>
</defs>
</svg>
