<svg width="27" height="26" viewBox="0 0 27 26" fill="none" xmlns="http://www.w3.org/2000/svg">
<path d="M23.25 6.47833C19.6425 6.12083 16.0133 5.93666 12.395 5.93666C10.25 5.93666 8.105 6.04499 5.96 6.26166L3.75 6.47833" stroke="white" stroke-width="1.6" stroke-linecap="round" stroke-linejoin="round"/>
<path d="M9.70831 5.38417L9.94665 3.96501C10.12 2.93584 10.25 2.16667 12.0808 2.16667H14.9191C16.75 2.16667 16.8908 2.97917 17.0533 3.97584L17.2916 5.38417" stroke="white" stroke-width="1.6" stroke-linecap="round" stroke-linejoin="round"/>
<path d="M20.9208 9.90167L20.2167 20.8108C20.0975 22.5117 20 23.8333 16.9775 23.8333H10.0225C7 23.8333 6.9025 22.5117 6.78333 20.8108L6.07916 9.90167" stroke="white" stroke-width="1.6" stroke-linecap="round" stroke-linejoin="round"/>
<path d="M11.6909 17.875H15.2984" stroke="white" stroke-width="1.6" stroke-linecap="round" stroke-linejoin="round"/>
<path d="M10.7917 13.5417H16.2084" stroke="white" stroke-width="1.6" stroke-linecap="round" stroke-linejoin="round"/>
</svg>
