<svg width="24" height="24" viewBox="0 0 24 24" fill="none" xmlns="http://www.w3.org/2000/svg">
<path d="M11 3C10.6074 3 10.2061 3.1377 9.92188 3.42188C9.6377 3.70605 9.5 4.10742 9.5 4.5V5.25H5V6.75H5.75V18.75C5.75 19.9834 6.7666 21 8 21H17C18.2334 21 19.25 19.9834 19.25 18.75V6.75H20V5.25H15.5V4.5C15.5 4.10742 15.3623 3.70605 15.0781 3.42188C14.7939 3.1377 14.3926 3 14 3H11ZM11 4.5H14V5.25H11V4.5ZM7.25 6.75H17.75V18.75C17.75 19.166 17.416 19.5 17 19.5H8C7.58398 19.5 7.25 19.166 7.25 18.75V6.75ZM8.75 9V17.25H10.25V9H8.75ZM11.75 9V17.25H13.25V9H11.75ZM14.75 9V17.25H16.25V9H14.75Z" fill="#FF5B4D"/>
</svg>
