<svg width="27" height="26" viewBox="0 0 27 26" fill="none" xmlns="http://www.w3.org/2000/svg">
<path d="M23.3365 9.29536V16.7053C23.3365 17.9187 22.6865 19.0454 21.6357 19.6629L15.2007 23.3787C14.1498 23.9854 12.8498 23.9854 11.7882 23.3787L5.35318 19.6629C4.30234 19.0562 3.65234 17.9295 3.65234 16.7053V9.29536C3.65234 8.08203 4.30234 6.95532 5.35318 6.33782L11.7882 2.62199C12.839 2.01533 14.139 2.01533 15.2007 2.62199L21.6357 6.33782C22.6865 6.95532 23.3365 8.0712 23.3365 9.29536Z" stroke="white" stroke-width="1.5" stroke-linecap="round" stroke-linejoin="round"/>
<path d="M13.4998 11.9165C14.8938 11.9165 16.0239 10.7863 16.0239 9.39228C16.0239 7.99822 14.8938 6.86816 13.4998 6.86816C12.1057 6.86816 10.9756 7.99822 10.9756 9.39228C10.9756 10.7863 12.1057 11.9165 13.4998 11.9165Z" stroke="white" stroke-width="1.5" stroke-linecap="round" stroke-linejoin="round"/>
<path d="M17.8332 18.0482C17.8332 16.0982 15.894 14.5166 13.4998 14.5166C11.1057 14.5166 9.1665 16.0982 9.1665 18.0482" stroke="white" stroke-width="1.5" stroke-linecap="round" stroke-linejoin="round"/>
</svg>
