<svg width="40" height="40" viewBox="0 0 40 40" fill="none" xmlns="http://www.w3.org/2000/svg">
<defs>
<linearGradient id="paint0_linear_26_80" x1="0.37037" y1="6.2963" x2="34.0741" y2="33.7037" gradientUnits="userSpaceOnUse">
<stop stop-color="#0091FB"/>
<stop offset="1" stop-color="#FF4493"/>
</linearGradient>
</defs>
<rect width="40" height="40" rx="8" fill="url(#paint0_linear_26_80)"/>
<path d="M21.4129 25.4114L22.3625 24.4618" stroke="white" stroke-miterlimit="10" stroke-linecap="round" stroke-linejoin="round"/>
<path d="M21.5293 23.6285L20.5797 24.5781" stroke="white" stroke-miterlimit="10" stroke-linecap="round" stroke-linejoin="round"/>
<mask id="mask0_26_80" style="mask-type:luminance" maskUnits="userSpaceOnUse" x="10" y="10" width="20" height="20">
<path d="M10 10H30V30H10V10Z" fill="white"/>
</mask>
<g mask="url(#mask0_26_80)">
<path d="M21.8115 26.9574H26.4393C27.3988 26.9574 28.1767 26.1795 28.1767 25.22V24.2548" stroke="white" stroke-miterlimit="10" stroke-linecap="round" stroke-linejoin="round"/>
<path d="M28.1767 17.4372V16.1824C28.1767 15.2228 27.3988 14.4449 26.4393 14.4449H12.0304C11.0709 14.4449 10.293 15.2228 10.293 16.1824V25.22C10.293 26.1795 11.0709 26.9574 12.0304 26.9574H16.2695" stroke="white" stroke-miterlimit="10" stroke-linecap="round" stroke-linejoin="round"/>
<path d="M10.293 17.3907C10.293 19.1295 11.7025 20.539 13.4413 20.539H13.4775" stroke="white" stroke-miterlimit="10" stroke-linecap="round" stroke-linejoin="round"/>
<path d="M15.1013 20.539H20.5935" stroke="white" stroke-miterlimit="10" stroke-linecap="round" stroke-linejoin="round"/>
<path d="M19.0105 28.2816L21.3996 25.8924C21.5365 25.7555 21.5365 25.5336 21.3996 25.3966L20.5944 24.5914C20.4575 24.4545 20.2355 24.4545 20.0986 24.5914L17.7094 26.9806C17.3502 27.3398 17.3502 27.9223 17.7094 28.2816C18.0687 28.6408 18.6512 28.6408 19.0105 28.2816Z" stroke="white" stroke-miterlimit="10" stroke-linecap="round" stroke-linejoin="round"/>
<path d="M19.5717 25.1183L20.8727 26.4193" stroke="white" stroke-miterlimit="10" stroke-linecap="round" stroke-linejoin="round"/>
<path d="M28.3708 24.0719C26.5893 25.8534 23.7007 25.8534 21.9191 24.0719C20.1375 22.2903 20.1375 19.4017 21.9191 17.6202C23.7007 15.8386 26.5893 15.8386 28.3708 17.6202C30.1524 19.4017 30.1524 22.2903 28.3708 24.0719Z" stroke="white" stroke-miterlimit="10" stroke-linecap="round" stroke-linejoin="round"/>
<path d="M28.2969 21.5346C28.17 22.1182 27.8798 22.6733 27.4261 23.127C26.1663 24.3868 24.1238 24.3868 22.864 23.127C21.6042 21.8673 21.6042 19.8248 22.864 18.565C24.1238 17.3052 26.1663 17.3052 27.4261 18.565C27.8793 19.0183 28.1695 19.5728 28.2966 20.1558" stroke="white" stroke-miterlimit="10" stroke-linecap="round" stroke-linejoin="round"/>
<path d="M14.2894 22.701C13.841 22.701 13.4775 22.3375 13.4775 21.8891V20.0022C13.4775 19.5538 13.841 19.1903 14.2894 19.1903C14.7378 19.1903 15.1013 19.5538 15.1013 20.0022V21.8891C15.1013 22.3375 14.7378 22.701 14.2894 22.701Z" stroke="white" stroke-miterlimit="10" stroke-linecap="round" stroke-linejoin="round"/>
<path d="M15.1013 21.2815H13.4775" stroke="white" stroke-miterlimit="10" stroke-linecap="round" stroke-linejoin="round"/>
<path d="M22.5847 14.4449V13.1316C22.5847 12.2038 21.8299 11.449 20.9021 11.449H17.5674C16.6396 11.449 15.8848 12.2038 15.8848 13.1316V14.4449" stroke="white" stroke-miterlimit="10" stroke-linecap="round" stroke-linejoin="round"/>
<path d="M17.0958 14.4449V13.1316C17.0958 12.8715 17.3074 12.6599 17.5674 12.6599H20.9021C21.1622 12.6599 21.3738 12.8715 21.3738 13.1316V14.4449" stroke="white" stroke-miterlimit="10" stroke-linecap="round" stroke-linejoin="round"/>
</g>
</svg>
