<svg width="26" height="27" viewBox="0 0 26 27" fill="none" xmlns="http://www.w3.org/2000/svg">
<defs>
<linearGradient id="paint0_linear_4798_3898" x1="9.02615" y1="9.33315" x2="14.987" y2="9.32923" gradientUnits="userSpaceOnUse">
<stop stop-color="#0086DA"/>
<stop offset="1" stop-color="#00A9E9"/>
<stop offset="1" stop-color="#00A9E9"/>
</linearGradient>
<linearGradient id="paint1_linear_4798_3898" x1="15.9804" y1="9.33315" x2="16.9738" y2="9.33305" gradientUnits="userSpaceOnUse">
<stop stop-color="#0086DA"/>
<stop offset="1" stop-color="#00A9E9"/>
<stop offset="1" stop-color="#00A9E9"/>
</linearGradient>
<linearGradient id="paint2_linear_4798_3898" x1="5" y1="17.3791" x2="21" y2="17.3463" gradientUnits="userSpaceOnUse">
<stop stop-color="#0086DA"/>
<stop offset="1" stop-color="#00A9E9"/>
<stop offset="1" stop-color="#00A9E9"/>
</linearGradient>
<linearGradient id="paint3_linear_4798_3898" x1="5" y1="17.3791" x2="21" y2="17.3463" gradientUnits="userSpaceOnUse">
<stop stop-color="#0086DA"/>
<stop offset="1" stop-color="#00A9E9"/>
<stop offset="1" stop-color="#00A9E9"/>
</linearGradient>
<linearGradient id="paint4_linear_4798_3898" x1="5" y1="17.3791" x2="21" y2="17.3463" gradientUnits="userSpaceOnUse">
<stop stop-color="#0086DA"/>
<stop offset="1" stop-color="#00A9E9"/>
<stop offset="1" stop-color="#00A9E9"/>
</linearGradient>
</defs>
<circle cx="13" cy="14" r="13" fill="white"/>
<path d="M12.7853 5.99311C12.6489 5.64266 12.3438 5.41667 12.0071 5.41667C11.6703 5.41667 11.3652 5.64266 11.2288 5.99311L9.07135 11.5379C8.91883 11.9299 9.17102 12.3709 9.5477 12.3709C9.75509 12.3709 9.94274 12.2309 10.0255 12.0145L10.4357 10.9411C10.4584 10.8817 10.5098 10.8433 10.5667 10.8433H13.4432C13.5001 10.8433 13.5515 10.8817 13.5742 10.9411L13.9839 12.0132C14.0669 12.2304 14.2552 12.3709 14.4634 12.3709C14.8415 12.3709 15.0947 11.9283 14.9416 11.5348L12.7853 5.99311ZM12.9355 9.82005H11.0871C10.9843 9.82005 10.9151 9.70004 10.9561 9.59266L11.8803 7.17126C11.9301 7.04084 12.0926 7.04084 12.1424 7.17127L13.0666 9.59267C13.1075 9.70005 13.0384 9.82005 12.9355 9.82005Z" fill="url(#paint0_linear_4798_3898)"/>
<path d="M16.4771 5.41667C16.2028 5.41667 15.9804 5.69242 15.9804 6.03255V11.755C15.9804 12.0952 16.2028 12.3709 16.4771 12.3709C16.7514 12.3709 16.9738 12.0952 16.9738 11.755V6.03255C16.9738 5.69242 16.7514 5.41667 16.4771 5.41667Z" fill="url(#paint1_linear_4798_3898)"/>
<path d="M7.25028 20C6.90042 20 6.54431 19.9585 6.18195 19.8755C5.8196 19.787 5.5041 19.657 5.23545 19.4855C5.13549 19.4302 5.06677 19.3638 5.02929 19.2863C4.99805 19.2033 4.9918 19.1286 5.01054 19.0622C5.02929 18.9903 5.06677 18.9295 5.123 18.8797C5.18547 18.8299 5.26044 18.8022 5.34791 18.7967C5.43537 18.7856 5.53221 18.8077 5.63842 18.8631C5.90706 19.0069 6.16946 19.112 6.42561 19.1784C6.68175 19.2393 6.94727 19.2697 7.22217 19.2697C7.52205 19.2697 7.77507 19.231 7.98124 19.1535C8.18741 19.0761 8.34047 18.9627 8.44043 18.8133C8.54664 18.6639 8.59974 18.4841 8.59974 18.2739C8.59974 17.9585 8.48104 17.7234 8.24363 17.5685C8.01248 17.408 7.67511 17.3278 7.23154 17.3278H6.59429C6.4506 17.3278 6.34126 17.2974 6.26629 17.2365C6.19132 17.1701 6.15384 17.0788 6.15384 16.9627C6.15384 16.852 6.19132 16.7663 6.26629 16.7054C6.34126 16.639 6.4506 16.6058 6.59429 16.6058H7.13782C7.40647 16.6058 7.6345 16.5671 7.82193 16.4896C8.00935 16.4066 8.15305 16.2932 8.25301 16.1494C8.35921 16 8.41232 15.8202 8.41232 15.61C8.41232 15.3278 8.30611 15.112 8.09369 14.9627C7.88753 14.8077 7.58452 14.7303 7.18468 14.7303C6.92853 14.7303 6.68488 14.7607 6.45372 14.8216C6.22881 14.8824 5.99453 14.9903 5.75087 15.1452C5.65716 15.2006 5.56657 15.2254 5.47911 15.2199C5.39789 15.2089 5.32604 15.1812 5.26357 15.1369C5.20734 15.0871 5.16673 15.0263 5.14174 14.9544C5.123 14.8824 5.12925 14.8077 5.16048 14.7303C5.19172 14.6528 5.2542 14.5864 5.34791 14.5311C5.6103 14.3596 5.90706 14.2296 6.23818 14.1411C6.5693 14.047 6.90979 14 7.25965 14C7.69698 14 8.07183 14.0609 8.3842 14.1826C8.70283 14.3043 8.94336 14.4786 9.10579 14.7054C9.27448 14.9322 9.35882 15.2033 9.35882 15.5187C9.35882 15.7566 9.30884 15.9723 9.20888 16.166C9.10892 16.3596 8.96522 16.5256 8.7778 16.6639C8.59662 16.7967 8.37483 16.8907 8.11244 16.9461V16.8548C8.56851 16.9212 8.92149 17.0871 9.17139 17.3527C9.42129 17.6127 9.54624 17.9391 9.54624 18.332C9.54624 18.675 9.45253 18.9737 9.2651 19.2282C9.08393 19.4772 8.82153 19.668 8.47792 19.8008C8.1343 19.9336 7.72509 20 7.25028 20Z" fill="url(#paint2_linear_4798_3898)"/>
<path d="M13.2068 20C12.6757 20 12.2228 19.8866 11.8479 19.6598C11.4793 19.4329 11.1951 19.1065 10.9951 18.6805C10.8015 18.249 10.7046 17.7317 10.7046 17.1286C10.7046 16.6252 10.7671 16.1798 10.892 15.7925C11.017 15.4053 11.1982 15.0788 11.4356 14.8133C11.673 14.5477 11.9604 14.3458 12.2977 14.2075C12.6414 14.0692 13.0287 14 13.4598 14C13.7409 14 14.0283 14.0443 14.3219 14.1328C14.6156 14.2158 14.8842 14.343 15.1279 14.5145C15.2091 14.5643 15.2591 14.6279 15.2778 14.7054C15.3028 14.7773 15.3059 14.8492 15.2872 14.9212C15.2684 14.9876 15.2309 15.0456 15.1747 15.0954C15.1185 15.1452 15.0466 15.1757 14.9592 15.1867C14.878 15.1923 14.7905 15.1674 14.6968 15.112C14.4844 14.9737 14.272 14.8769 14.0595 14.8216C13.8534 14.7607 13.6472 14.7303 13.441 14.7303C13.0537 14.7303 12.7257 14.8133 12.4571 14.9793C12.1884 15.1452 11.9854 15.3942 11.8479 15.7261C11.7105 16.0581 11.6417 16.4703 11.6417 16.9627V17.668H11.5387C11.5824 17.3693 11.6855 17.112 11.8479 16.8963C12.0166 16.675 12.2321 16.5062 12.4945 16.39C12.7569 16.2739 13.0474 16.2158 13.3661 16.2158C13.7534 16.2158 14.0939 16.296 14.3875 16.4564C14.6874 16.6169 14.9217 16.8382 15.0904 17.1203C15.2591 17.397 15.3434 17.7151 15.3434 18.0747C15.3434 18.4454 15.2528 18.7773 15.0716 19.0705C14.8905 19.3638 14.6374 19.5934 14.3126 19.7593C13.9939 19.9198 13.6253 20 13.2068 20ZM13.1505 19.3029C13.4067 19.3029 13.6316 19.2531 13.8253 19.1535C14.0189 19.0539 14.1689 18.9156 14.2751 18.7386C14.3813 18.556 14.4344 18.3458 14.4344 18.1079C14.4344 17.87 14.3813 17.6625 14.2751 17.4855C14.1689 17.3084 14.0189 17.1701 13.8253 17.0705C13.6316 16.9654 13.4067 16.9129 13.1505 16.9129C12.8944 16.9129 12.6695 16.9654 12.4758 17.0705C12.2884 17.1701 12.1384 17.3084 12.026 17.4855C11.9198 17.6625 11.8667 17.87 11.8667 18.1079C11.8667 18.3458 11.9198 18.556 12.026 18.7386C12.1384 18.9156 12.2884 19.0539 12.4758 19.1535C12.6695 19.2531 12.8944 19.3029 13.1505 19.3029Z" fill="url(#paint3_linear_4798_3898)"/>
<path d="M18.6947 20C18.3511 20 18.0043 19.9585 17.6545 19.8755C17.3046 19.787 16.986 19.6515 16.6986 19.4689C16.6049 19.4191 16.5424 19.3555 16.5112 19.278C16.4799 19.2006 16.4737 19.1259 16.4924 19.0539C16.5112 18.9765 16.5486 18.9129 16.6049 18.8631C16.6673 18.8133 16.7423 18.7856 16.8298 18.7801C16.9172 18.769 17.011 18.7911 17.1109 18.8465C17.3546 18.9848 17.6045 19.0899 17.8606 19.1618C18.123 19.2337 18.3948 19.2697 18.6759 19.2697C18.9633 19.2697 19.2101 19.2227 19.4163 19.1286C19.6224 19.0346 19.7786 18.9046 19.8848 18.7386C19.9973 18.5671 20.0535 18.3679 20.0535 18.1411C20.0535 17.7925 19.9379 17.5076 19.7068 17.2863C19.4756 17.065 19.1539 16.9544 18.7415 16.9544C18.5041 16.9544 18.2823 16.9931 18.0762 17.0705C17.87 17.1425 17.6732 17.2642 17.4858 17.4357C17.442 17.4799 17.3827 17.5214 17.3077 17.5602C17.239 17.5934 17.1609 17.61 17.0734 17.61C16.9422 17.61 16.8423 17.5795 16.7736 17.5187C16.7048 17.4578 16.6705 17.3748 16.6705 17.2697V14.4564C16.6705 14.3347 16.708 14.2407 16.7829 14.1743C16.8579 14.1079 16.9641 14.0747 17.1015 14.0747H20.2409C20.3784 14.0747 20.4846 14.1051 20.5595 14.166C20.6345 14.2268 20.672 14.3154 20.672 14.4315C20.672 14.5477 20.6345 14.639 20.5595 14.7054C20.4846 14.7663 20.3784 14.7967 20.2409 14.7967H17.617V16.9046H17.3546C17.5233 16.6943 17.745 16.5311 18.0199 16.4149C18.3011 16.2988 18.6103 16.2407 18.9477 16.2407C19.3663 16.2407 19.7286 16.3181 20.0348 16.473C20.3409 16.6279 20.5783 16.8465 20.747 17.1286C20.9157 17.4053 21 17.7289 21 18.0996C21 18.4758 20.9063 18.8077 20.7189 19.0954C20.5314 19.3776 20.2659 19.5989 19.9223 19.7593C19.5787 19.9198 19.1695 20 18.6947 20Z" fill="url(#paint4_linear_4798_3898)"/>

</svg>
