<svg width="24" height="24" viewBox="0 0 24 24" fill="none" xmlns="http://www.w3.org/2000/svg">
<circle cx="12.5" cy="11.5" r="8.5" fill="white"/>
<path fill-rule="evenodd" clip-rule="evenodd" d="M12.5 3C7.80568 3 4 6.80568 4 11.5C4 16.1943 7.80568 20 12.5 20C17.1943 20 21 16.1943 21 11.5C21 6.80568 17.1943 3 12.5 3ZM15.3645 9.72814C15.5053 9.5824 15.5831 9.38721 15.5814 9.1846C15.5796 8.98199 15.4984 8.78818 15.3551 8.64491C15.2118 8.50164 15.018 8.42038 14.8154 8.41862C14.6128 8.41685 14.4176 8.49474 14.2719 8.6355L12.5 10.4074L10.7281 8.6355C10.6569 8.5617 10.5716 8.50283 10.4773 8.46233C10.383 8.42183 10.2816 8.40052 10.179 8.39962C10.0764 8.39873 9.97468 8.41828 9.87972 8.45714C9.78475 8.49599 9.69848 8.55337 9.62592 8.62592C9.55337 8.69848 9.49599 8.78475 9.45714 8.87972C9.41828 8.97468 9.39873 9.07643 9.39962 9.17904C9.40052 9.28164 9.42183 9.38304 9.46233 9.47731C9.50283 9.57159 9.5617 9.65685 9.6355 9.72814L11.4074 11.5L9.6355 13.2719C9.5617 13.3431 9.50283 13.4284 9.46233 13.5227C9.42183 13.617 9.40052 13.7184 9.39962 13.821C9.39873 13.9236 9.41828 14.0253 9.45714 14.1203C9.49599 14.2152 9.55337 14.3015 9.62592 14.3741C9.69848 14.4466 9.78475 14.504 9.87972 14.5429C9.97468 14.5817 10.0764 14.6013 10.179 14.6004C10.2816 14.5995 10.383 14.5782 10.4773 14.5377C10.5716 14.4972 10.6569 14.4383 10.7281 14.3645L12.5 12.5926L14.2719 14.3645C14.4176 14.5053 14.6128 14.5831 14.8154 14.5814C15.018 14.5796 15.2118 14.4984 15.3551 14.3551C15.4984 14.2118 15.5796 14.018 15.5814 13.8154C15.5831 13.6128 15.5053 13.4176 15.3645 13.2719L13.5926 11.5L15.3645 9.72814Z" fill="#FF3333"/>
</svg>
