<svg width="18" height="19" viewBox="0 0 18 19" fill="none" xmlns="http://www.w3.org/2000/svg">
    <defs>
        <clipPath id="clip0_2723_110130">
            <rect width="18" height="18" fill="white" transform="translate(0 0.5)"/>
        </clipPath>
    </defs>
<g id="icons8_calendar_19 1" clip-path="url(#clip0_2723_110130)">
<path id="Vector" d="M4.84615 0.5C4.42969 0.5 4.15385 0.775842 4.15385 1.19231V3.26923C4.15385 3.6857 4.42969 3.96154 4.84615 3.96154C5.26262 3.96154 5.53846 3.6857 5.53846 3.26923V1.19231C5.53846 0.775842 5.26262 0.5 4.84615 0.5ZM13.1538 0.5C12.7374 0.5 12.4615 0.775842 12.4615 1.19231V3.26923C12.4615 3.6857 12.7374 3.96154 13.1538 3.96154C13.5703 3.96154 13.8462 3.6857 13.8462 3.26923V1.19231C13.8462 0.775842 13.5703 0.5 13.1538 0.5ZM2.07692 1.88462C0.900541 1.88462 0 2.78516 0 3.96154V16.4231C0 17.5995 0.900541 18.5 2.07692 18.5H15.9231C17.0995 18.5 18 17.5995 18 16.4231V3.96154C18 2.78516 17.0995 1.88462 15.9231 1.88462H14.5385V3.26923C14.5385 4.03185 13.9165 4.65385 13.1538 4.65385C12.3912 4.65385 11.7692 4.03185 11.7692 3.26923V1.88462H6.23077V3.26923C6.23077 4.03185 5.60877 4.65385 4.84615 4.65385C4.08353 4.65385 3.46154 4.03185 3.46154 3.26923V1.88462H2.07692ZM1.38462 6.73077H16.6154V16.4231C16.6154 16.8395 16.3395 17.1154 15.9231 17.1154H2.07692C1.66046 17.1154 1.38462 16.8395 1.38462 16.4231V6.73077Z" fill="#5B5B5B"/>
</g>

</svg>
