<svg width="21" height="20" viewBox="0 0 21 20" fill="none" xmlns="http://www.w3.org/2000/svg">
    <defs>
        <clipPath id="clip0_2723_109712">
            <rect width="20" height="20" fill="white" transform="translate(0.5)"/>
        </clipPath>
    </defs>
<g id="icons8_left_arrow 1" clip-path="url(#clip0_2723_109712)">
<path id="Vector" d="M5.73262 5.19233C5.49668 5.18452 5.27012 5.2814 5.11231 5.4564L0.90918 10.0001L5.11231 14.5439C5.30449 14.758 5.59824 14.8533 5.88106 14.7908C6.16231 14.7283 6.38887 14.5189 6.47324 14.2423C6.55762 13.9658 6.48731 13.6658 6.28731 13.4564L3.82949 10.8001H19.2998C19.5889 10.8048 19.8561 10.6533 20.0014 10.4033C20.1482 10.1548 20.1482 9.84546 20.0014 9.59702C19.8561 9.34702 19.5889 9.19546 19.2998 9.20015H3.82949L6.28731 6.5439C6.50449 6.31421 6.56699 5.97983 6.44668 5.68765C6.32793 5.39702 6.04824 5.20171 5.73262 5.19233Z" fill="#3B86D4"/>
</g>

</svg>
