<svg width="24" height="25" viewBox="0 0 24 25" fill="none" xmlns="http://www.w3.org/2000/svg">
<path d="M3.36003 1.45996C2.57066 1.45996 1.92003 2.11059 1.92003 2.89996V3.43621L0.191284 4.81996L1.92003 6.20184V6.73996C1.92003 7.52934 2.57066 8.17996 3.36003 8.17996H17.76C18.5494 8.17996 19.2 7.52934 19.2 6.73996V2.89996C19.2 2.11059 18.5494 1.45996 17.76 1.45996H3.36003ZM3.36003 2.41996H17.76C18.0319 2.41996 18.24 2.62809 18.24 2.89996V6.73996C18.24 7.01184 18.0319 7.21996 17.76 7.21996H3.36003C3.08816 7.21996 2.88003 7.01184 2.88003 6.73996V5.74246L1.72878 4.81996L2.88003 3.89746V2.89996C2.88003 2.62809 3.08816 2.41996 3.36003 2.41996ZM5.28003 4.33996C5.01566 4.33996 4.80003 4.55559 4.80003 4.81996C4.80003 5.08434 5.01566 5.29996 5.28003 5.29996C5.54441 5.29996 5.76003 5.08434 5.76003 4.81996C5.76003 4.55559 5.54441 4.33996 5.28003 4.33996ZM7.20003 4.33996C6.93566 4.33996 6.72003 4.55559 6.72003 4.81996C6.72003 5.08434 6.93566 5.29996 7.20003 5.29996C7.46441 5.29996 7.68003 5.08434 7.68003 4.81996C7.68003 4.55559 7.46441 4.33996 7.20003 4.33996ZM9.12003 4.33996C8.85566 4.33996 8.64003 4.55559 8.64003 4.81996C8.64003 5.08434 8.85566 5.29996 9.12003 5.29996C9.38441 5.29996 9.60003 5.08434 9.60003 4.81996C9.60003 4.55559 9.38441 4.33996 9.12003 4.33996ZM11.04 4.33996C10.7757 4.33996 10.56 4.55559 10.56 4.81996C10.56 5.08434 10.7757 5.29996 11.04 5.29996C11.3044 5.29996 11.52 5.08434 11.52 4.81996C11.52 4.55559 11.3044 4.33996 11.04 4.33996ZM12.96 4.33996C12.6957 4.33996 12.48 4.55559 12.48 4.81996C12.48 5.08434 12.6957 5.29996 12.96 5.29996C13.2244 5.29996 13.44 5.08434 13.44 4.81996C13.44 4.55559 13.2244 4.33996 12.96 4.33996ZM5.28003 9.13996C4.49066 9.13996 3.84003 9.79059 3.84003 10.58V11.1181L2.11128 12.5L3.84003 13.8818V14.42C3.84003 15.2093 4.49066 15.86 5.28003 15.86H19.68C20.4694 15.86 21.12 15.2093 21.12 14.42V10.58C21.12 9.79059 20.4694 9.13996 19.68 9.13996H5.28003ZM5.28003 10.1H19.68C19.9519 10.1 20.16 10.3081 20.16 10.58V14.42C20.16 14.6918 19.9519 14.9 19.68 14.9H5.28003C5.00816 14.9 4.80003 14.6918 4.80003 14.42V13.4225L3.64878 12.5L4.80003 11.5775V10.58C4.80003 10.3081 5.00816 10.1 5.28003 10.1ZM7.20003 12.02C6.93566 12.02 6.72003 12.2356 6.72003 12.5C6.72003 12.7643 6.93566 12.98 7.20003 12.98C7.46441 12.98 7.68003 12.7643 7.68003 12.5C7.68003 12.2356 7.46441 12.02 7.20003 12.02ZM9.12003 12.02C8.85566 12.02 8.64003 12.2356 8.64003 12.5C8.64003 12.7643 8.85566 12.98 9.12003 12.98C9.38441 12.98 9.60003 12.7643 9.60003 12.5C9.60003 12.2356 9.38441 12.02 9.12003 12.02ZM11.04 12.02C10.7757 12.02 10.56 12.2356 10.56 12.5C10.56 12.7643 10.7757 12.98 11.04 12.98C11.3044 12.98 11.52 12.7643 11.52 12.5C11.52 12.2356 11.3044 12.02 11.04 12.02ZM7.20003 16.82C6.41066 16.82 5.76003 17.4706 5.76003 18.26V18.7981L4.03128 20.18L5.76003 21.5618V22.1C5.76003 22.8893 6.41066 23.54 7.20003 23.54H21.6C22.3894 23.54 23.04 22.8893 23.04 22.1V18.26C23.04 17.4706 22.3894 16.82 21.6 16.82H7.20003ZM7.20003 17.78H21.6C21.8719 17.78 22.08 17.9881 22.08 18.26V22.1C22.08 22.3718 21.8719 22.58 21.6 22.58H7.20003C6.92816 22.58 6.72003 22.3718 6.72003 22.1V21.1025L5.56878 20.18L6.72003 19.2575V18.26C6.72003 17.9881 6.92816 17.78 7.20003 17.78ZM9.12003 19.7C8.85566 19.7 8.64003 19.9156 8.64003 20.18C8.64003 20.4443 8.85566 20.66 9.12003 20.66C9.38441 20.66 9.60003 20.4443 9.60003 20.18C9.60003 19.9156 9.38441 19.7 9.12003 19.7ZM11.04 19.7C10.7757 19.7 10.56 19.9156 10.56 20.18C10.56 20.4443 10.7757 20.66 11.04 20.66C11.3044 20.66 11.52 20.4443 11.52 20.18C11.52 19.9156 11.3044 19.7 11.04 19.7ZM12.96 19.7C12.6957 19.7 12.48 19.9156 12.48 20.18C12.48 20.4443 12.6957 20.66 12.96 20.66C13.2244 20.66 13.44 20.4443 13.44 20.18C13.44 19.9156 13.2244 19.7 12.96 19.7ZM14.88 19.7C14.6157 19.7 14.4 19.9156 14.4 20.18C14.4 20.4443 14.6157 20.66 14.88 20.66C15.1444 20.66 15.36 20.4443 15.36 20.18C15.36 19.9156 15.1444 19.7 14.88 19.7ZM16.8 19.7C16.5357 19.7 16.32 19.9156 16.32 20.18C16.32 20.4443 16.5357 20.66 16.8 20.66C17.0644 20.66 17.28 20.4443 17.28 20.18C17.28 19.9156 17.0644 19.7 16.8 19.7ZM18.72 19.7C18.4557 19.7 18.24 19.9156 18.24 20.18C18.24 20.4443 18.4557 20.66 18.72 20.66C18.9844 20.66 19.2 20.4443 19.2 20.18C19.2 19.9156 18.9844 19.7 18.72 19.7Z" fill="#474747"/>
</svg>
