<svg width="24" height="25" viewBox="0 0 24 25" fill="none" xmlns="http://www.w3.org/2000/svg">
<path d="M10.08 1.45996C9.29017 1.45996 8.63999 2.11014 8.63999 2.89996V3.85996H4.88061C4.82878 3.85139 4.77588 3.85139 4.72405 3.85996H3.83999C3.77638 3.85906 3.71323 3.87081 3.65421 3.89453C3.59518 3.91825 3.54146 3.95346 3.49616 3.99812C3.45086 4.04279 3.41489 4.096 3.39034 4.15469C3.36579 4.21337 3.35315 4.27635 3.35315 4.33996C3.35315 4.40357 3.36579 4.46655 3.39034 4.52523C3.41489 4.58392 3.45086 4.63714 3.49616 4.6818C3.54146 4.72646 3.59518 4.76167 3.65421 4.78539C3.71323 4.80911 3.77638 4.82086 3.83999 4.81996H4.31999V22.1C4.31999 22.8898 4.97017 23.54 5.75999 23.54H18.24C19.0298 23.54 19.68 22.8898 19.68 22.1V4.81996H20.16C20.2236 4.82086 20.2867 4.80911 20.3458 4.78539C20.4048 4.76167 20.4585 4.72646 20.5038 4.6818C20.5491 4.63714 20.5851 4.58392 20.6096 4.52523C20.6342 4.46655 20.6468 4.40357 20.6468 4.33996C20.6468 4.27635 20.6342 4.21337 20.6096 4.15469C20.5851 4.096 20.5491 4.04279 20.5038 3.99812C20.4585 3.95346 20.4048 3.91825 20.3458 3.89453C20.2867 3.87081 20.2236 3.85906 20.16 3.85996H19.2806C19.2288 3.85139 19.1759 3.85139 19.1241 3.85996H15.36V2.89996C15.36 2.11014 14.7098 1.45996 13.92 1.45996H10.08ZM10.08 2.41996H13.92C14.1862 2.41996 14.4 2.63378 14.4 2.89996V3.85996H9.59999V2.89996C9.59999 2.63378 9.8138 2.41996 10.08 2.41996ZM5.27999 4.81996H9.03936C9.0912 4.82853 9.14409 4.82853 9.19592 4.81996H14.7994C14.8512 4.82853 14.9041 4.82853 14.9559 4.81996H18.72V22.1C18.72 22.3661 18.5062 22.58 18.24 22.58H5.75999C5.4938 22.58 5.27999 22.3661 5.27999 22.1V4.81996ZM12 9.13809C11.4934 9.13809 11.0428 9.46834 10.7559 9.95371L9.85874 11.4734C9.79396 11.583 9.77541 11.7139 9.80714 11.8373C9.83888 11.9606 9.9183 12.0663 10.028 12.1311C10.1376 12.1958 10.2685 12.2144 10.3918 12.1826C10.5152 12.1509 10.6208 12.0715 10.6856 11.9618L11.5828 10.4421C11.7529 10.1542 11.9042 10.0981 12 10.0981C12.0958 10.0981 12.247 10.1542 12.4172 10.4421L13.3969 12.0987C13.3193 12.1373 13.2537 12.1963 13.2069 12.2692C13.1601 12.3421 13.1339 12.4263 13.1311 12.5129C13.1284 12.5995 13.1491 12.6853 13.191 12.7611C13.233 12.8368 13.2948 12.8999 13.3697 12.9434L14.2219 13.4553C14.2947 13.4991 14.3779 13.5228 14.4629 13.5239C14.5479 13.5251 14.6317 13.5036 14.7057 13.4617C14.7797 13.4199 14.8412 13.3591 14.884 13.2857C14.9269 13.2122 14.9494 13.1287 14.9494 13.0437V12.02C14.9505 11.9341 14.9287 11.8495 14.8861 11.775C14.8435 11.7005 14.7816 11.6388 14.7071 11.5963C14.6325 11.5538 14.5479 11.532 14.462 11.5333C14.3762 11.5346 14.2923 11.559 14.219 11.6037L13.244 9.95371C12.9572 9.46834 12.5066 9.13809 12 9.13809ZM9.40217 12.6509C9.32003 12.6524 9.23965 12.675 9.16874 12.7165L8.28561 13.2331C8.20939 13.2764 8.14649 13.3398 8.10375 13.4164C8.061 13.4929 8.04004 13.5797 8.04313 13.6673C8.04622 13.755 8.07325 13.8401 8.12128 13.9134C8.16932 13.9868 8.23653 14.0455 8.31561 14.0834L7.46249 15.529C7.17579 16.0142 7.10442 16.5711 7.36217 17.0093C7.61992 17.4476 8.13554 17.659 8.7028 17.659H10.74C10.8036 17.6599 10.8667 17.6482 10.9258 17.6245C10.9848 17.6007 11.0385 17.5655 11.0838 17.5209C11.1291 17.4762 11.1651 17.423 11.1896 17.3643C11.2142 17.3056 11.2268 17.2426 11.2268 17.179C11.2268 17.1154 11.2142 17.0524 11.1896 16.9937C11.1651 16.9351 11.1291 16.8818 11.0838 16.8372C11.0385 16.7925 10.9848 16.7573 10.9258 16.7336C10.8667 16.7099 10.8036 16.6981 10.74 16.699H8.7028C8.35757 16.699 8.23118 16.5944 8.18905 16.5228C8.14692 16.4511 8.11816 16.3056 8.28842 16.0175L9.15842 14.5456C9.23141 14.5882 9.31435 14.6107 9.39884 14.6109C9.48334 14.6112 9.5664 14.5891 9.63964 14.547C9.71288 14.5049 9.7737 14.4441 9.81596 14.371C9.85821 14.2978 9.88041 14.2148 9.8803 14.1303L9.89061 13.1356C9.89124 13.0714 9.87901 13.0078 9.85464 12.9485C9.83027 12.8892 9.79425 12.8353 9.74872 12.7901C9.70319 12.7449 9.64906 12.7093 9.58954 12.6854C9.53002 12.6615 9.46631 12.6498 9.40217 12.6509ZM15.3122 13.9906C15.229 13.9954 15.1486 14.0218 15.0787 14.0671C15.0088 14.1124 14.9519 14.1751 14.9136 14.2491C14.8753 14.323 14.8569 14.4057 14.8602 14.4889C14.8635 14.5721 14.8884 14.653 14.9325 14.7237L15.7115 16.0184C15.8809 16.3058 15.853 16.4522 15.8109 16.5237C15.7688 16.5954 15.6424 16.7 15.2972 16.7H13.7906C13.7942 16.6154 13.7755 16.5315 13.7362 16.4566C13.6969 16.3816 13.6385 16.3184 13.567 16.2733C13.4954 16.2282 13.4132 16.2028 13.3287 16.1997C13.2441 16.1966 13.1603 16.2159 13.0856 16.2556L12.2015 16.7103C12.1259 16.7491 12.0619 16.8073 12.0161 16.8789C11.9703 16.9506 11.9443 17.0331 11.9409 17.1181C11.9375 17.2031 11.9567 17.2874 11.9965 17.3625C12.0364 17.4376 12.0955 17.5008 12.1678 17.5456L13.0369 18.0846C13.1109 18.1321 13.1965 18.1583 13.2844 18.1605C13.3723 18.1626 13.459 18.1406 13.5353 18.0967C13.6115 18.0529 13.6742 17.989 13.7166 17.912C13.759 17.835 13.7794 17.7478 13.7756 17.66H15.2972C15.8644 17.66 16.3801 17.4486 16.6378 17.0103C16.8955 16.572 16.8241 16.0144 16.5375 15.529C16.5369 15.5278 16.5362 15.5265 16.5356 15.5253L15.7547 14.2287C15.7101 14.152 15.6452 14.0892 15.5671 14.0471C15.489 14.0051 15.4007 13.9855 15.3122 13.9906Z" fill="#E65A67"/>
</svg>
