<svg width="22" height="22" viewBox="0 0 22 22" fill="none" xmlns="http://www.w3.org/2000/svg">
    <defs>
        <linearGradient id="paint0_linear_4008_2698" x1="4" y1="11" x2="18.5" y2="13" gradientUnits="userSpaceOnUse">
            <stop stop-color="#FF5D4F"/>
            <stop offset="1" stop-color="#5769F9"/>
        </linearGradient>
    </defs>
<path d="M12 18H16.2942C18.1594 18 19.092 18 19.6215 17.6092C20.0832 17.2685 20.3763 16.7459 20.4263 16.1743C20.4836 15.5187 19.9973 14.7229 19.0247 13.1314L18.0278 11.5M5.13014 9.60523L2.97528 13.1314C2.00267 14.7229 1.51637 15.5187 1.57372 16.1743C1.62372 16.7459 1.91681 17.2685 2.37846 17.6092C2.90799 18 3.84059 18 5.70578 18H7.5M15.8889 8.00001L13.7305 4.4681C12.8277 2.9908 12.3763 2.25216 11.7952 2.00035C11.2879 1.7805 10.7121 1.7805 10.2048 2.00035C9.62369 2.25216 9.17229 2.9908 8.2695 4.4681L7.24967 6.1369M17 4.00007L15.9019 8.09815L11.8038 7.00007M1 10.5981L5.09808 9.50001L6.19615 13.5981M14.5 21L11.5 18L14.5 15" stroke="url(#paint0_linear_4008_2698)" stroke-width="2" stroke-linecap="round" stroke-linejoin="round"/>

</svg>
