<svg width="16" height="16" viewBox="0 0 16 16" fill="none" xmlns="http://www.w3.org/2000/svg">
<path d="M8 16C6.41775 16 4.87103 15.5308 3.55544 14.6518C2.23985 13.7727 1.21447 12.5233 0.608967 11.0615C0.00346627 9.59966 -0.15496 7.99113 0.153721 6.43928C0.462403 4.88743 1.22433 3.46197 2.34315 2.34315C3.46197 1.22433 4.88743 0.462403 6.43928 0.153721C7.99113 -0.15496 9.59966 0.00346627 11.0615 0.608967C12.5233 1.21447 13.7727 2.23985 14.6518 3.55544C15.5308 4.87103 16 6.41775 16 8C16 10.1217 15.1571 12.1566 13.6569 13.6569C12.1566 15.1571 10.1217 16 8 16ZM8 1.6C6.7342 1.6 5.49683 1.97536 4.44435 2.6786C3.39188 3.38184 2.57158 4.38138 2.08717 5.55083C1.60277 6.72028 1.47603 8.0071 1.72298 9.24858C1.96992 10.4901 2.57946 11.6304 3.47452 12.5255C4.36958 13.4205 5.50995 14.0301 6.75142 14.277C7.9929 14.524 9.27973 14.3972 10.4492 13.9128C11.6186 13.4284 12.6182 12.6081 13.3214 11.5556C14.0246 10.5032 14.4 9.2658 14.4 8C14.4 6.30262 13.7257 4.67475 12.5255 3.47452C11.3253 2.27429 9.69739 1.6 8 1.6Z" fill="#666666"/>
</svg>
