<svg width="28" height="28" viewBox="0 0 28 28" fill="none" xmlns="http://www.w3.org/2000/svg">
<path d="M23.1346 1.5H4.86538C3.97361 1.50275 3.11908 1.88774 2.4885 2.57088C1.85792 3.25401 1.50254 4.17974 1.5 5.14583V17.6458C1.50254 18.6119 1.85792 19.5377 2.4885 20.2208C3.11908 20.9039 3.97361 21.2889 4.86538 21.2917H7.26923V26.5L12.9014 21.4128C12.9879 21.3345 13.097 21.2916 13.2097 21.2917H23.1346C24.0264 21.2889 24.8809 20.9039 25.5115 20.2208C26.1421 19.5377 26.4975 18.6119 26.5 17.6458V5.14583C26.4975 4.17974 26.1421 3.25401 25.5115 2.57088C24.8809 1.88774 24.0264 1.50275 23.1346 1.5Z" stroke="#474747" stroke-width="1.5" stroke-linejoin="round"/>
<path d="M8.23167 13.4792C9.29376 13.4792 10.1547 12.5464 10.1547 11.3958C10.1547 10.2452 9.29376 9.3125 8.23167 9.3125C7.16958 9.3125 6.30859 10.2452 6.30859 11.3958C6.30859 12.5464 7.16958 13.4792 8.23167 13.4792Z" fill="#474747"/>
<path d="M14.0012 13.4792C15.0633 13.4792 15.9243 12.5464 15.9243 11.3958C15.9243 10.2452 15.0633 9.3125 14.0012 9.3125C12.9391 9.3125 12.0781 10.2452 12.0781 11.3958C12.0781 12.5464 12.9391 13.4792 14.0012 13.4792Z" fill="#474747"/>
<path d="M19.7707 13.4792C20.8328 13.4792 21.6938 12.5464 21.6938 11.3958C21.6938 10.2452 20.8328 9.3125 19.7707 9.3125C18.7086 9.3125 17.8477 10.2452 17.8477 11.3958C17.8477 12.5464 18.7086 13.4792 19.7707 13.4792Z" fill="#474747"/>
</svg>
