<svg width="28" height="19" viewBox="0 0 28 19" fill="none" xmlns="http://www.w3.org/2000/svg">
<path d="M26.9735 2.78206C26.7371 2.64141 26.4677 2.56582 26.1926 2.56298C25.9175 2.56014 25.6466 2.63014 25.4073 2.76588L19.6618 5.98617V3.25294C19.6609 2.45677 19.3442 1.69346 18.7813 1.13049C18.2183 0.567512 17.455 0.250856 16.6588 0.25H3.25294C2.45677 0.250856 1.69346 0.567512 1.13049 1.13049C0.567512 1.69346 0.250856 2.45677 0.25 3.25294V15.0647C0.250856 15.8609 0.567512 16.6242 1.13049 17.1871C1.69346 17.7501 2.45677 18.0668 3.25294 18.0676H16.6588C17.455 18.0668 18.2183 17.7501 18.7813 17.1871C19.3442 16.6242 19.6609 15.8609 19.6618 15.0647V12.3315L25.4079 15.5523C25.6474 15.6863 25.9177 15.7553 26.1921 15.7525C26.4665 15.7497 26.7354 15.6752 26.9721 15.5365C27.2088 15.3977 27.4051 15.1995 27.5416 14.9614C27.678 14.7234 27.7499 14.4538 27.75 14.1794V4.13823C27.7514 3.86384 27.6803 3.59394 27.544 3.35582C27.4076 3.11769 27.2108 2.91977 26.9735 2.78206ZM18.6323 15.0647C18.6318 15.5879 18.4237 16.0896 18.0537 16.4596C17.6837 16.8296 17.1821 17.0377 16.6588 17.0382H3.25294C2.72969 17.0377 2.22804 16.8296 1.85805 16.4596C1.48806 16.0896 1.27996 15.5879 1.27941 15.0647V3.25294C1.27996 2.72969 1.48806 2.22804 1.85805 1.85805C2.22804 1.48806 2.72969 1.27996 3.25294 1.27941H16.6588C17.1821 1.27996 17.6837 1.48806 18.0537 1.85805C18.4237 2.22804 18.6318 2.72969 18.6323 3.25294V15.0647ZM26.7206 14.1794C26.7204 14.2742 26.6954 14.3674 26.6482 14.4496C26.601 14.5319 26.5331 14.6004 26.4513 14.6483C26.3695 14.6963 26.2765 14.722 26.1817 14.723C26.0869 14.7241 25.9934 14.7003 25.9106 14.6541L19.6618 11.1512V7.16646L25.9097 3.66411C25.9925 3.61773 26.086 3.59379 26.1809 3.59467C26.2758 3.59555 26.3689 3.62122 26.4508 3.66913C26.5327 3.71704 26.6007 3.78553 26.6481 3.86781C26.6954 3.95009 26.7204 4.04331 26.7206 4.13823V14.1794Z" fill="#474747"/>
<path d="M16.0788 3.76323H13.7059C13.5694 3.76323 13.4384 3.81746 13.3419 3.91399C13.2454 4.01051 13.1912 4.14143 13.1912 4.27794C13.1912 4.41445 13.2454 4.54536 13.3419 4.64189C13.4384 4.73842 13.5694 4.79264 13.7059 4.79264H16.0788C16.2153 4.79264 16.3462 4.73842 16.4428 4.64189C16.5393 4.54536 16.5935 4.41445 16.5935 4.27794C16.5935 4.14143 16.5393 4.01051 16.4428 3.91399C16.3462 3.81746 16.2153 3.76323 16.0788 3.76323Z" fill="#474747"/>
<path d="M26.9735 2.78206C26.7371 2.64141 26.4677 2.56582 26.1926 2.56298C25.9175 2.56014 25.6466 2.63014 25.4073 2.76588L19.6618 5.98617V3.25294C19.6609 2.45677 19.3442 1.69346 18.7813 1.13049C18.2183 0.567512 17.455 0.250856 16.6588 0.25H3.25294C2.45677 0.250856 1.69346 0.567512 1.13049 1.13049C0.567512 1.69346 0.250856 2.45677 0.25 3.25294V15.0647C0.250856 15.8609 0.567512 16.6242 1.13049 17.1871C1.69346 17.7501 2.45677 18.0668 3.25294 18.0676H16.6588C17.455 18.0668 18.2183 17.7501 18.7813 17.1871C19.3442 16.6242 19.6609 15.8609 19.6618 15.0647V12.3315L25.4079 15.5523C25.6474 15.6863 25.9177 15.7553 26.1921 15.7525C26.4665 15.7497 26.7354 15.6752 26.9721 15.5365C27.2088 15.3977 27.4051 15.1995 27.5416 14.9614C27.678 14.7234 27.7499 14.4538 27.75 14.1794V4.13823C27.7514 3.86384 27.6803 3.59394 27.544 3.35582C27.4076 3.11769 27.2108 2.91977 26.9735 2.78206ZM18.6323 15.0647C18.6318 15.5879 18.4237 16.0896 18.0537 16.4596C17.6837 16.8296 17.1821 17.0377 16.6588 17.0382H3.25294C2.72969 17.0377 2.22804 16.8296 1.85805 16.4596C1.48806 16.0896 1.27996 15.5879 1.27941 15.0647V3.25294C1.27996 2.72969 1.48806 2.22804 1.85805 1.85805C2.22804 1.48806 2.72969 1.27996 3.25294 1.27941H16.6588C17.1821 1.27996 17.6837 1.48806 18.0537 1.85805C18.4237 2.22804 18.6318 2.72969 18.6323 3.25294V15.0647ZM26.7206 14.1794C26.7204 14.2742 26.6954 14.3674 26.6482 14.4496C26.601 14.5319 26.5331 14.6004 26.4513 14.6483C26.3695 14.6963 26.2765 14.722 26.1817 14.723C26.0869 14.7241 25.9934 14.7003 25.9106 14.6541L19.6618 11.1512V7.16646L25.9097 3.66411C25.9925 3.61773 26.086 3.59379 26.1809 3.59467C26.2758 3.59555 26.3689 3.62122 26.4508 3.66913C26.5327 3.71704 26.6007 3.78553 26.6481 3.86781C26.6954 3.95009 26.7204 4.04331 26.7206 4.13823V14.1794Z" stroke="#474747" stroke-width="0.5"/>
<path d="M16.0788 3.76323H13.7059C13.5694 3.76323 13.4384 3.81746 13.3419 3.91399C13.2454 4.01051 13.1912 4.14143 13.1912 4.27794C13.1912 4.41445 13.2454 4.54536 13.3419 4.64189C13.4384 4.73842 13.5694 4.79264 13.7059 4.79264H16.0788C16.2153 4.79264 16.3462 4.73842 16.4428 4.64189C16.5393 4.54536 16.5935 4.41445 16.5935 4.27794C16.5935 4.14143 16.5393 4.01051 16.4428 3.91399C16.3462 3.81746 16.2153 3.76323 16.0788 3.76323Z" stroke="#474747" stroke-width="0.5"/>
</svg>
