<svg width="23" height="23" viewBox="0 0 23 23" fill="none" xmlns="http://www.w3.org/2000/svg">
<path d="M0.391187 22.6056L0.395265 22.6097C0.503406 22.7186 0.632013 22.8051 0.773693 22.8642C0.915373 22.9232 1.06733 22.9537 1.22083 22.9538C1.34999 22.9538 1.47825 22.9325 1.60052 22.8908L8.25705 20.6327L21.0305 7.8593C21.8114 7.07836 22.25 6.0192 22.25 4.91483C22.2499 3.81046 21.8112 2.75134 21.0302 1.97047C20.2493 1.18959 19.1901 0.750928 18.0858 0.750977C16.9814 0.751025 15.9223 1.18978 15.1414 1.97072L2.36795 14.7442L0.110077 21.4005C0.0389543 21.6075 0.0276018 21.8303 0.0773214 22.0435C0.127041 22.2566 0.23582 22.4515 0.391187 22.6056ZM16.2021 3.03136C16.7024 2.53492 17.379 2.25695 18.0837 2.2583C18.7885 2.25965 19.464 2.54023 19.9624 3.03859C20.4607 3.53694 20.7413 4.21247 20.7426 4.91724C20.744 5.62202 20.466 6.2986 19.9695 6.79885L18.2898 8.47857L14.5223 4.71108L16.2021 3.03136ZM3.67623 15.5572L13.4617 5.77172L17.2292 9.53921L7.44367 19.3246L1.74208 21.2588L3.67623 15.5572Z" fill="#474747"/>
</svg>
