<svg width="28" height="24" viewBox="0 0 28 24" fill="none" xmlns="http://www.w3.org/2000/svg">
<path d="M24.0514 4.12305H8.16713C6.41532 4.12305 4.97266 5.54047 4.97266 7.283V19.9239C4.97266 21.6664 6.41532 23.0838 8.16713 23.0838H24.0365C25.7883 23.0838 27.2309 21.7349 27.2309 19.9924V7.283C27.2309 5.54047 25.8048 4.12305 24.0514 4.12305ZM20.0763 7.28352C20.5445 7.28637 21.0013 7.42779 21.3891 7.68995C21.777 7.9521 22.0785 8.32325 22.2557 8.75657C22.4329 9.18989 22.4778 9.66598 22.3847 10.1248C22.2916 10.5836 22.0648 11.0045 21.7327 11.3346C21.4007 11.6646 20.9784 11.8889 20.519 11.9792C20.0597 12.0695 19.5839 12.0217 19.1516 11.8419C18.7194 11.6621 18.3501 11.3583 18.0903 10.9689C17.8305 10.5794 17.6918 10.1218 17.6918 9.65361C17.6943 9.02323 17.9467 8.41958 18.3938 7.97514C18.8408 7.53069 19.446 7.28177 20.0763 7.283V7.28352ZM8.14601 21.5041C7.2701 21.5041 6.60751 20.7956 6.60751 19.9244V16.5841L11.2684 12.4215C11.724 12.0207 12.3147 11.8075 12.9213 11.825C13.5278 11.8425 14.1052 12.0894 14.537 12.5158L17.7645 15.7159L11.9423 21.5036L8.14601 21.5041ZM25.5822 19.9239C25.5821 20.1315 25.5411 20.3371 25.4616 20.5289C25.382 20.7207 25.2654 20.8949 25.1184 21.0417C24.9715 21.1884 24.7971 21.3047 24.6051 21.3839C24.4132 21.4632 24.2075 21.5038 23.9999 21.5036H14.1954L20.2278 15.5098C20.6559 15.1487 21.1975 14.9499 21.7576 14.9484C22.3177 14.9469 22.8604 15.1427 23.2904 15.5016L25.5822 17.4466V19.9239Z" fill="#474747"/>
<path d="M20.6367 0H4.14909C3.27453 0 2.43579 0.347417 1.81739 0.965823C1.19898 1.58423 0.851563 2.42297 0.851562 3.29752L0.851563 16.4876C0.852166 17.2187 1.09529 17.9289 1.54284 18.507C1.99039 19.0851 2.61708 19.4984 3.32471 19.6821V6.18286C3.32471 5.19898 3.71555 4.2554 4.41126 3.55969C5.10696 2.86399 6.05054 2.47314 7.03442 2.47314H23.8312C23.6475 1.76552 23.2342 1.13883 22.6561 0.691279C22.078 0.243728 21.3678 0.000603095 20.6367 0Z" fill="#474747"/>
</svg>
