<svg width="24" height="24" viewBox="0 0 24 24" fill="none" xmlns="http://www.w3.org/2000/svg">
<path d="M12.6618 11.3379C12.7994 11.3379 12.9331 11.3485 13.0654 11.3683C12.5493 11.7376 12.0821 12.173 11.6784 12.6614H3.39706C3.04604 12.6614 2.70939 12.8009 2.46118 13.0491C2.21297 13.2973 2.07353 13.6339 2.07353 13.9849V15.9702C2.07353 17.8325 4.16338 19.2791 8.02941 19.2791C8.7702 19.284 9.50993 19.2225 10.2397 19.0951C10.3496 19.5305 10.5004 19.9488 10.6844 20.3485C9.81034 20.5231 8.92074 20.6083 8.02941 20.6026C3.51353 20.6026 0.75 18.6888 0.75 15.9702V13.9849C0.75 13.2829 1.02889 12.6096 1.52531 12.1132C2.02173 11.6168 2.69502 11.3379 3.39706 11.3379H12.6618Z" fill="#474747"/>
<path d="M20.602 6.70628C20.602 7.58384 20.2534 8.42545 19.6329 9.04598C19.0124 9.6665 18.1708 10.0151 17.2932 10.0151C16.4156 10.0151 15.574 9.6665 14.9535 9.04598C14.333 8.42545 13.9844 7.58384 13.9844 6.70628C13.9844 5.82873 14.333 4.98712 14.9535 4.36659C15.574 3.74607 16.4156 3.39746 17.2932 3.39746C18.1708 3.39746 19.0124 3.74607 19.6329 4.36659C20.2534 4.98712 20.602 5.82873 20.602 6.70628ZM17.2932 4.72099C16.7667 4.72099 16.2617 4.93015 15.8894 5.30247C15.5171 5.67478 15.3079 6.17975 15.3079 6.70628C15.3079 7.23282 15.5171 7.73778 15.8894 8.1101C16.2617 8.48241 16.7667 8.69158 17.2932 8.69158C17.8197 8.69158 18.3247 8.48241 18.697 8.1101C19.0693 7.73778 19.2785 7.23282 19.2785 6.70628C19.2785 6.17975 19.0693 5.67478 18.697 5.30247C18.3247 4.93015 17.8197 4.72099 17.2932 4.72099Z" fill="#474747"/>
<path d="M8.03079 0.75C8.63912 0.75 9.24149 0.869819 9.80351 1.10262C10.3655 1.33541 10.8762 1.67663 11.3064 2.10678C11.7365 2.53694 12.0777 3.04761 12.3105 3.60963C12.5433 4.17165 12.6631 4.77402 12.6631 5.38235C12.6631 5.99068 12.5433 6.59305 12.3105 7.15508C12.0777 7.7171 11.7365 8.22777 11.3064 8.65792C10.8762 9.08807 10.3655 9.42929 9.80351 9.66209C9.24149 9.89489 8.63912 10.0147 8.03079 10.0147C6.80221 10.0147 5.62396 9.52666 4.75522 8.65792C3.88649 7.78919 3.39844 6.61093 3.39844 5.38235C3.39844 4.15378 3.88649 2.97552 4.75522 2.10678C5.62396 1.23805 6.80221 0.75 8.03079 0.75ZM8.03079 2.07353C7.15324 2.07353 6.31162 2.42214 5.6911 3.04266C5.07057 3.66319 4.72197 4.5048 4.72197 5.38235C4.72197 6.25991 5.07057 7.10152 5.6911 7.72204C6.31162 8.34257 7.15324 8.69118 8.03079 8.69118C8.90834 8.69118 9.74996 8.34257 10.3705 7.72204C10.991 7.10152 11.3396 6.25991 11.3396 5.38235C11.3396 4.5048 10.991 3.66319 10.3705 3.04266C9.74996 2.42214 8.90834 2.07353 8.03079 2.07353Z" fill="#474747"/>
<path d="M23.2516 17.2938C23.2516 18.8734 22.6241 20.3883 21.5072 21.5052C20.3902 22.6222 18.8753 23.2497 17.2957 23.2497C15.7161 23.2497 14.2012 22.6222 13.0843 21.5052C11.9673 20.3883 11.3398 18.8734 11.3398 17.2938C11.3398 15.7142 11.9673 14.1993 13.0843 13.0823C14.2012 11.9654 15.7161 11.3379 17.2957 11.3379C18.8753 11.3379 20.3902 11.9654 21.5072 13.0823C22.6241 14.1993 23.2516 15.7142 23.2516 17.2938ZM17.9575 14.6467C17.9575 14.4712 17.8878 14.3029 17.7637 14.1788C17.6396 14.0547 17.4712 13.9849 17.2957 13.9849C17.1202 13.9849 16.9519 14.0547 16.8278 14.1788C16.7037 14.3029 16.634 14.4712 16.634 14.6467V16.632H14.6487C14.4732 16.632 14.3048 16.7017 14.1807 16.8258C14.0566 16.9499 13.9869 17.1183 13.9869 17.2938C13.9869 17.4693 14.0566 17.6376 14.1807 17.7617C14.3048 17.8858 14.4732 17.9555 14.6487 17.9555H16.634V19.9408C16.634 20.1163 16.7037 20.2847 16.8278 20.4088C16.9519 20.5329 17.1202 20.6026 17.2957 20.6026C17.4712 20.6026 17.6396 20.5329 17.7637 20.4088C17.8878 20.2847 17.9575 20.1163 17.9575 19.9408V17.9555H19.9428C20.1183 17.9555 20.2866 17.8858 20.4107 17.7617C20.5348 17.6376 20.6045 17.4693 20.6045 17.2938C20.6045 17.1183 20.5348 16.9499 20.4107 16.8258C20.2866 16.7017 20.1183 16.632 19.9428 16.632H17.9575V14.6467Z" fill="#474747"/>
</svg>
