<svg width="28" height="24" viewBox="0 0 28 24" fill="none" xmlns="http://www.w3.org/2000/svg">
<path d="M15.1437 9.63169C15.1437 9.40373 15.2343 9.18511 15.3955 9.02392C15.5567 8.86273 15.7753 8.77217 16.0033 8.77217H22.3064C22.5343 8.77217 22.753 8.86273 22.9142 9.02392C23.0753 9.18511 23.1659 9.40373 23.1659 9.63169C23.1659 9.85965 23.0753 10.0783 22.9142 10.2395C22.753 10.4007 22.5343 10.4912 22.3064 10.4912H16.0033C15.7753 10.4912 15.5567 10.4007 15.3955 10.2395C15.2343 10.0783 15.1437 9.85965 15.1437 9.63169ZM16.0033 13.3563C15.7753 13.3563 15.5567 13.4468 15.3955 13.608C15.2343 13.7692 15.1437 13.9878 15.1437 14.2158C15.1437 14.4437 15.2343 14.6624 15.3955 14.8236C15.5567 14.9847 15.7753 15.0753 16.0033 15.0753H22.3064C22.5343 15.0753 22.753 14.9847 22.9142 14.8236C23.0753 14.6624 23.1659 14.4437 23.1659 14.2158C23.1659 13.9878 23.0753 13.7692 22.9142 13.608C22.753 13.4468 22.5343 13.3563 22.3064 13.3563H16.0033ZM10.8461 9.63169C10.8461 10.1636 10.6348 10.6737 10.2587 11.0498C9.88262 11.4259 9.3725 11.6372 8.8406 11.6372C8.3087 11.6372 7.79858 11.4259 7.42247 11.0498C7.04635 10.6737 6.83506 10.1636 6.83506 9.63169C6.83506 9.09979 7.04635 8.58967 7.42247 8.21356C7.79858 7.83744 8.3087 7.62615 8.8406 7.62615C9.3725 7.62615 9.88262 7.83744 10.2587 8.21356C10.6348 8.58967 10.8461 9.09979 10.8461 9.63169ZM5.97554 12.7833H11.7057C12.0096 12.7833 12.3011 12.904 12.516 13.1189C12.7309 13.3338 12.8517 13.6253 12.8517 13.9293V14.5023C12.8517 14.5023 12.2787 17.3674 8.8406 17.3674C5.40253 17.3674 4.82951 14.5023 4.82951 14.5023V13.9293C4.82951 13.6253 4.95026 13.3338 5.16518 13.1189C5.3801 12.904 5.67159 12.7833 5.97554 12.7833ZM0.25 3.90157C0.25 3.06572 0.582039 2.26411 1.17307 1.67307C1.76411 1.08204 2.56572 0.75 3.40157 0.75H24.5984C25.4343 0.75 26.2359 1.08204 26.8269 1.67307C27.418 2.26411 27.75 3.06572 27.75 3.90157V20.5189C27.75 21.3548 27.418 22.1564 26.8269 22.7474C26.2359 23.3384 25.4343 23.6705 24.5984 23.6705H3.40271C2.56687 23.6705 1.76525 23.3384 1.17422 22.7474C0.583185 22.1564 0.251146 21.3548 0.251146 20.5189V3.90157H0.25ZM3.40157 2.46904C2.61081 2.46904 1.96904 3.11081 1.96904 3.90157V20.5189C1.96904 21.3097 2.61081 21.9515 3.40157 21.9515H24.5984C25.3892 21.9515 26.031 21.3097 26.031 20.5189V3.90157C26.031 3.11081 25.3892 2.46904 24.5984 2.46904H3.40271H3.40157Z" fill="#474747"/>
</svg>
