<svg width="26" height="26" viewBox="0 0 26 26" fill="none" xmlns="http://www.w3.org/2000/svg">
<path d="M19.8312 25.4999C19.5879 25.4993 19.3453 25.472 19.1077 25.4186C14.5831 24.4614 10.4147 22.2172 7.08232 18.9442C3.82105 15.664 1.55919 11.4876 0.57039 6.92029C0.453799 6.35107 0.482415 5.76074 0.653486 5.20611C0.824556 4.65147 1.13232 4.15118 1.54718 3.75339L4.44137 0.904656C4.58919 0.761692 4.76484 0.652213 4.95684 0.583365C5.14884 0.514516 5.35287 0.487846 5.55563 0.505093C5.76587 0.527523 5.96875 0.596781 6.15 0.707996C6.33126 0.819212 6.48649 0.969684 6.60478 1.14883L10.2225 6.61692C10.3582 6.82909 10.4237 7.08019 10.4093 7.33327C10.395 7.58635 10.3016 7.82805 10.1429 8.02279L8.32682 10.2426C9.05011 11.8796 10.0744 13.3592 11.344 14.6008C12.6054 15.8874 14.0963 16.9147 15.7359 17.6271L17.9862 15.7995C18.1752 15.6467 18.4052 15.5564 18.6455 15.5405C18.8859 15.5247 19.1254 15.584 19.332 15.7107L24.7948 19.3215C24.9822 19.436 25.1419 19.5924 25.2619 19.7789C25.3819 19.9654 25.459 20.1773 25.4876 20.3987C25.5161 20.6201 25.4953 20.8452 25.4267 21.0572C25.3581 21.2691 25.2435 21.4625 25.0914 21.6227L22.2696 24.4788C21.949 24.805 21.5686 25.0632 21.1501 25.2384C20.7316 25.4137 20.2834 25.5025 19.8312 25.4999ZM5.43986 1.97016L2.54567 4.81889C2.3123 5.04127 2.13954 5.32195 2.04439 5.63332C1.94924 5.94468 1.93498 6.27601 2.00301 6.59472C2.92244 10.8805 5.03592 14.8023 8.08805 17.8861C11.224 20.9653 15.1467 23.0762 19.4043 23.9757C19.7266 24.0446 20.0606 24.0306 20.3763 23.9351C20.6919 23.8395 20.9795 23.6653 21.2132 23.4281L24.035 20.572L18.7604 17.0869L16.3437 19.0552C16.2512 19.13 16.1422 19.1806 16.0262 19.2026C15.9101 19.2245 15.7906 19.2171 15.6781 19.1809C13.6714 18.4249 11.853 17.2247 10.3528 15.6663C8.801 14.1843 7.59649 12.3632 6.82908 10.3388C6.79661 10.2162 6.79553 10.0872 6.82594 9.96406C6.85636 9.84095 6.91724 9.72792 7.00273 9.63584L8.9563 7.24586L5.43986 1.97016Z" fill="#474747"/>
</svg>
