<svg width="30" height="30" viewBox="0 0 30 30" fill="none" xmlns="http://www.w3.org/2000/svg">
<g id="ion:chatbox-ellipses-outline">
<g id="Group 629978">
<g id="Group 629977">
<path id="Vector" d="M24.1346 2.5H5.86538C4.97361 2.50275 4.11908 2.88774 3.4885 3.57088C2.85792 4.25401 2.50254 5.17974 2.5 6.14583V18.6458C2.50254 19.6119 2.85792 20.5377 3.4885 21.2208C4.11908 21.9039 4.97361 22.2889 5.86538 22.2917H8.26923V27.5L13.9014 22.4128C13.9879 22.3345 14.097 22.2916 14.2097 22.2917H24.1346C25.0264 22.2889 25.8809 21.9039 26.5115 21.2208C27.1421 20.5377 27.4975 19.6119 27.5 18.6458V6.14583C27.4975 5.17974 27.1421 4.25401 26.5115 3.57088C25.8809 2.88774 25.0264 2.50275 24.1346 2.5V2.5Z" stroke="#474747" stroke-width="1.5" stroke-linejoin="round"/>
<path id="Vector_2" d="M9.23057 14.4792C10.2927 14.4792 11.1536 13.5464 11.1536 12.3958C11.1536 11.2452 10.2927 10.3125 9.23057 10.3125C8.16849 10.3125 7.3075 11.2452 7.3075 12.3958C7.3075 13.5464 8.16849 14.4792 9.23057 14.4792Z" fill="#474747"/>
<path id="Vector_3" d="M14.9999 14.4792C16.0619 14.4792 16.9229 13.5464 16.9229 12.3958C16.9229 11.2452 16.0619 10.3125 14.9999 10.3125C13.9378 10.3125 13.0768 11.2452 13.0768 12.3958C13.0768 13.5464 13.9378 14.4792 14.9999 14.4792Z" fill="#474747"/>
<path id="Vector_4" d="M20.769 14.4792C21.8311 14.4792 22.6921 13.5464 22.6921 12.3958C22.6921 11.2452 21.8311 10.3125 20.769 10.3125C19.7069 10.3125 18.8459 11.2452 18.8459 12.3958C18.8459 13.5464 19.7069 14.4792 20.769 14.4792Z" fill="#474747"/>
</g>
</g>
</g>
</svg>
