<svg width="20" height="20" viewBox="0 0 20 20" fill="none" xmlns="http://www.w3.org/2000/svg">
<path d="M9.99967 9.99935C12.3009 9.99935 14.1663 8.13387 14.1663 5.83268C14.1663 3.5315 12.3009 1.66602 9.99967 1.66602C7.69849 1.66602 5.83301 3.5315 5.83301 5.83268C5.83301 8.13387 7.69849 9.99935 9.99967 9.99935Z" stroke="#474747" stroke-width="1.5" stroke-linecap="round" stroke-linejoin="round"/>
<path d="M2.8418 18.3333C2.8418 15.1083 6.05013 12.5 10.0001 12.5C10.8001 12.5 11.5751 12.6083 12.3001 12.8083" stroke="#474747" stroke-width="1.5" stroke-linecap="round" stroke-linejoin="round"/>
<path d="M18.3337 14.9993C18.3337 15.266 18.3003 15.5243 18.2337 15.7743C18.1587 16.1077 18.0253 16.4327 17.8503 16.716C17.2753 17.6827 16.217 18.3327 15.0003 18.3327C14.142 18.3327 13.367 18.0077 12.7837 17.4743C12.5337 17.2577 12.317 16.9993 12.1503 16.716C11.842 16.216 11.667 15.6243 11.667 14.9993C11.667 14.0993 12.0253 13.2744 12.6087 12.6744C13.217 12.0494 14.067 11.666 15.0003 11.666C15.9837 11.666 16.8753 12.091 17.4753 12.7744C18.0087 13.366 18.3337 14.1493 18.3337 14.9993Z" stroke="#474747" stroke-width="1.5" stroke-miterlimit="10" stroke-linecap="round" stroke-linejoin="round"/>
<path d="M16.2421 14.9844H13.7588" stroke="#474747" stroke-width="1.5" stroke-miterlimit="10" stroke-linecap="round" stroke-linejoin="round"/>
<path d="M15 13.7676V16.2592" stroke="#474747" stroke-width="1.5" stroke-miterlimit="10" stroke-linecap="round" stroke-linejoin="round"/>
</svg>
