<svg width="9" height="10" viewBox="0 0 9 10" fill="none" xmlns="http://www.w3.org/2000/svg">
<path d="M3.39951 9.06092L4.03562 8.38783L2.83358 7.19778L3.34913 6.65226L4.2763 7.63334L4.91241 6.96024L3.98524 5.97917L5.49633 4.38022L5.7829 4.5254C6.64169 4.95906 7.67008 4.77293 8.34128 4.06271C9.21942 3.13352 9.21942 1.62358 8.34218 0.695822C7.4654 -0.231941 6.03797 -0.231941 5.16118 0.695822C4.48998 1.40604 4.31409 2.49423 4.72392 3.40295L4.86112 3.70617L0.925249 7.87087L1.56136 8.54396L2.19747 7.87087L3.39951 9.06092ZM5.79729 3.38867C5.27095 2.83172 5.27095 1.92586 5.79729 1.36891C6.32364 0.811971 7.17973 0.811971 7.70607 1.36891C8.23242 1.92586 8.23242 2.83172 7.70607 3.38867C7.17973 3.94513 6.32364 3.94513 5.79729 3.38867Z" fill="white"/>
</svg>
