<svg width="24" height="24" viewBox="0 0 24 24" fill="none" xmlns="http://www.w3.org/2000/svg">
<g id="icons8_Key_Security 1">
<path id="Vector" d="M14.4615 4C17.512 4 20 6.48798 20 9.53846C20 12.5889 17.512 15.0769 14.4615 15.0769C13.5697 15.0769 12.7476 14.8365 12 14.4615V16.3077H10.1538V18.1538H8.30769V20H4V15.4423L4.17308 15.25L9.03846 10.4038C8.99279 10.1226 8.92308 9.83654 8.92308 9.53846C8.92308 6.48798 11.4111 4 14.4615 4ZM14.4615 5.23077C12.0745 5.23077 10.1538 7.15144 10.1538 9.53846C10.1538 9.86779 10.1971 10.1875 10.2692 10.5L10.3462 10.8269L10.0962 11.0769L5.23077 15.9615V18.7692H7.07692V16.9231H8.92308V15.0769H10.7692V13.2308H12.2308L12.3846 13.3077C13.0024 13.6514 13.7043 13.8462 14.4615 13.8462C16.8486 13.8462 18.7692 11.9255 18.7692 9.53846C18.7692 7.15144 16.8486 5.23077 14.4615 5.23077ZM15.6923 7.07692C16.3726 7.07692 16.9231 7.6274 16.9231 8.30769C16.9231 8.98798 16.3726 9.53846 15.6923 9.53846C15.012 9.53846 14.4615 8.98798 14.4615 8.30769C14.4615 7.6274 15.012 7.07692 15.6923 7.07692Z" fill="#FFA13B"/>
</g>
</svg>
