<svg width="18" height="20" viewBox="0 0 18 20" fill="none" xmlns="http://www.w3.org/2000/svg">
<g id="Group 1000007333">
<path id="Vector 55" d="M5 5L9 5" stroke="url(#paint0_linear_2734_178958)" stroke-width="2" stroke-linecap="round"/>
<path id="Vector 59" d="M5 13L8 13" stroke="url(#paint1_linear_2734_178958)" stroke-width="2" stroke-linecap="round"/>
<path id="Vector 58" d="M5 9L11 9" stroke="url(#paint2_linear_2734_178958)" stroke-width="2" stroke-linecap="round"/>
<path id="Rectangle 4012" d="M15 9V7C15 4.17157 15 2.75736 14.1213 1.87868C13.2426 1 11.8284 1 9 1H7C4.17157 1 2.75736 1 1.87868 1.87868C1 2.75736 1 4.17157 1 7V13C1 15.8284 1 17.2426 1.87868 18.1213C2.75736 19 4.17157 19 7 19H8" stroke="url(#paint3_linear_2734_178958)" stroke-width="2" stroke-linecap="round"/>
<g id="Group 8656">
<circle id="Ellipse 65" cx="13.5" cy="15.5" r="2.5" stroke="url(#paint4_linear_2734_178958)" stroke-width="2" stroke-linecap="round"/>
<path id="Vector 109" d="M17 19L15.5 17.5" stroke="url(#paint5_linear_2734_178958)" stroke-width="2" stroke-linecap="round"/>
</g>
</g>
<defs>
<linearGradient id="paint0_linear_2734_178958" x1="7" y1="5" x2="7" y2="6" gradientUnits="userSpaceOnUse">
<stop stop-color="#80D059"/>
<stop offset="1" stop-color="#5DC22D"/>
</linearGradient>
<linearGradient id="paint1_linear_2734_178958" x1="6.5" y1="13" x2="6.5" y2="14" gradientUnits="userSpaceOnUse">
<stop stop-color="#80D059"/>
<stop offset="1" stop-color="#5DC22D"/>
</linearGradient>
<linearGradient id="paint2_linear_2734_178958" x1="8" y1="9" x2="8" y2="10" gradientUnits="userSpaceOnUse">
<stop stop-color="#80D059"/>
<stop offset="1" stop-color="#5DC22D"/>
</linearGradient>
<linearGradient id="paint3_linear_2734_178958" x1="8" y1="19" x2="8" y2="1" gradientUnits="userSpaceOnUse">
<stop stop-color="#80D059"/>
<stop offset="1" stop-color="#5DC22D"/>
</linearGradient>
<linearGradient id="paint4_linear_2734_178958" x1="13.5" y1="13" x2="13.5" y2="18" gradientUnits="userSpaceOnUse">
<stop stop-color="#80D059"/>
<stop offset="1" stop-color="#5DC22D"/>
</linearGradient>
<linearGradient id="paint5_linear_2734_178958" x1="16.25" y1="17.5" x2="16.25" y2="19" gradientUnits="userSpaceOnUse">
<stop stop-color="#80D059"/>
<stop offset="1" stop-color="#5DC22D"/>
</linearGradient>
</defs>
</svg>
