<svg width="24" height="25" viewBox="0 0 24 25" fill="none" xmlns="http://www.w3.org/2000/svg">
<g id="route">
<path id="Icon" d="M11.5 5.5H11.9344C14.9816 5.5 16.5053 5.5 17.0836 6.04729C17.5836 6.52037 17.8051 7.21728 17.6702 7.89221C17.514 8.67302 16.2701 9.55285 13.7823 11.3125L9.71772 14.1875C7.2299 15.9471 5.98599 16.827 5.82984 17.6078C5.69486 18.2827 5.91642 18.9796 6.41636 19.4527C6.99474 20 8.51836 20 11.5656 20H12.5M8 5.5C8 7.15685 6.65685 8.5 5 8.5C3.34315 8.5 2 7.15685 2 5.5C2 3.84315 3.34315 2.5 5 2.5C6.65685 2.5 8 3.84315 8 5.5ZM22 19.5C22 21.1569 20.6569 22.5 19 22.5C17.3431 22.5 16 21.1569 16 19.5C16 17.8431 17.3431 16.5 19 16.5C20.6569 16.5 22 17.8431 22 19.5Z" stroke="#3B86D4" stroke-width="1.5" stroke-linecap="round" stroke-linejoin="round"/>
</g>
</svg>
