<svg width="24" height="25" viewBox="0 0 24 25" fill="none" xmlns="http://www.w3.org/2000/svg">
<g id="Layers_light">
<path id="Vector 99" d="M12 4.5L5 7.5L12 10.5L19 7.5L12 4.5Z" stroke="white" stroke-width="1.5" stroke-linejoin="round"/>
<path id="Subtract" fill-rule="evenodd" clip-rule="evenodd" d="M7.34277 10.6797L4.70456 11.8103C4.4288 11.9285 4.25 12.1997 4.25 12.4997C4.25 12.7997 4.4288 13.0709 4.70456 13.1891L11.7046 16.1891C11.8932 16.2699 12.1068 16.2699 12.2954 16.1891L19.2954 13.1891C19.5712 13.0709 19.75 12.7997 19.75 12.4997C19.75 12.1997 19.5712 11.9285 19.2954 11.8103L16.6572 10.6797L14.7533 11.4957L17.0961 12.4997L12 14.6837L6.90394 12.4997L9.24671 11.4957L7.34277 10.6797Z" fill="white"/>
<path id="Subtract_2" fill-rule="evenodd" clip-rule="evenodd" d="M7.34277 15.6797L4.70456 16.8103C4.4288 16.9285 4.25 17.1997 4.25 17.4997C4.25 17.7997 4.4288 18.0709 4.70456 18.1891L11.7046 21.1891C11.8932 21.2699 12.1068 21.2699 12.2954 21.1891L19.2954 18.1891C19.5712 18.0709 19.75 17.7997 19.75 17.4997C19.75 17.1997 19.5712 16.9285 19.2954 16.8103L16.6572 15.6797L14.7533 16.4957L17.0961 17.4997L12 19.6837L6.90394 17.4997L9.24671 16.4957L7.34277 15.6797Z" fill="white"/>
</g>
</svg>
