<svg width="25" height="25" viewBox="0 0 25 25" fill="none" xmlns="http://www.w3.org/2000/svg">
<g clip-path="url(#clip0_1991_14454)">
<path d="M18.74 0.5C19.265 0.5 19.7 0.935 19.7 1.46V2.42H22.58C22.8313 2.42 23.0863 2.51187 23.2663 2.69375C23.4482 2.87375 23.54 3.12875 23.54 3.38V22.58C23.54 22.8313 23.4482 23.0863 23.2663 23.2681C23.0863 23.4481 22.8313 23.54 22.58 23.54H2.42004C2.16879 23.54 1.91379 23.4481 1.73191 23.2681C1.55191 23.0863 1.46004 22.8313 1.46004 22.58V3.38C1.46004 3.12875 1.55191 2.87375 1.73191 2.69375C1.91379 2.51187 2.16879 2.42 2.42004 2.42H5.30004V1.46C5.30004 0.935 5.73504 0.5 6.26004 0.5H7.22004C7.74504 0.5 8.18004 0.935 8.18004 1.46V2.42H16.82V1.46C16.82 0.935 17.255 0.5 17.78 0.5H18.74ZM18.74 1.46H17.78V4.34H18.74V1.46ZM7.22004 1.46H6.26004V4.34H7.22004V1.46ZM22.58 3.38H19.7V4.34C19.7 4.865 19.265 5.3 18.74 5.3H17.78C17.255 5.3 16.82 4.865 16.82 4.34V3.38H8.18004V4.34C8.18004 4.865 7.74504 5.3 7.22004 5.3H6.26004C5.73504 5.3 5.30004 4.865 5.30004 4.34V3.38H2.42004V6.74H22.58V3.38ZM22.58 7.7H2.42004V22.58H22.58V7.7ZM19.7 9.62V20.66H5.30004V9.62H19.7ZM18.74 10.58H16.34V12.98H18.74V10.58ZM15.38 10.58H12.98V12.98H15.38V10.58ZM12.02 10.58H9.62004V12.98H12.02V10.58ZM8.66004 10.58H6.26004V12.98H8.66004V10.58ZM18.74 13.94H16.34V16.34H18.74V13.94ZM15.38 13.94H12.98V16.34H15.38V13.94ZM12.02 13.94H9.62004V16.34H12.02V13.94ZM8.66004 13.94H6.26004V16.34H8.66004V13.94ZM18.74 17.3H16.34V19.7H18.74V17.3ZM15.38 17.3H12.98V19.7H15.38V17.3ZM12.02 17.3H9.62004V19.7H12.02V17.3ZM8.66004 17.3H6.26004V19.7H8.66004V17.3Z" fill="#474747"/>
</g>
<defs>
<clipPath id="clip0_1991_14454">
<rect width="24" height="24" fill="white" transform="matrix(-1 0 0 1 24.5 0.5)"/>
</clipPath>
</defs>
</svg>
