<svg width="24" height="24" viewBox="0 0 24 24" fill="none" xmlns="http://www.w3.org/2000/svg">
<defs>
<clipPath id="clip0_1397_78775">
<rect width="24" height="24" fill="white"/>
</clipPath>
</defs>
<g clip-path="url(#clip0_1397_78775)">
<path d="M22.5925 12.6928L14.1072 21.178C13.5446 21.7407 12.7815 22.0567 11.9859 22.0567C11.1902 22.0567 10.4272 21.7407 9.86456 21.178C9.30196 20.6154 8.98588 19.8524 8.98588 19.0567C8.98588 18.2611 9.30196 17.498 9.86456 16.9354L15.5214 11.2785C15.709 11.091 15.8143 10.8367 15.8143 10.5714C15.8143 10.3062 15.709 10.0519 15.5214 9.86433C15.3339 9.6768 15.0795 9.57144 14.8143 9.57144C14.5491 9.57144 14.2947 9.6768 14.1072 9.86433L9.86456 14.107C9.30196 14.6696 8.53889 14.9857 7.74324 14.9857C6.9476 14.9857 6.18453 14.6696 5.62192 14.107C5.05931 13.5444 4.74324 12.7813 4.74324 11.9857C4.74324 11.19 5.05932 10.4269 5.62192 9.86433L8.45035 7.03591C8.63789 6.84837 8.74324 6.59402 8.74324 6.3288C8.74324 6.06358 8.63789 5.80923 8.45035 5.62169C8.26282 5.43416 8.00846 5.3288 7.74324 5.3288C7.47803 5.3288 7.22367 5.43416 7.03614 5.62169L5.62192 7.03591C5.05932 7.59851 4.29625 7.91459 3.5006 7.91459C2.70495 7.91459 1.94189 7.59852 1.37928 7.03591C1.19175 6.84837 1.08639 6.59402 1.08639 6.3288C1.08639 6.06358 1.19175 5.80923 1.37928 5.62169C1.56682 5.43416 1.82117 5.3288 2.08639 5.3288C2.35161 5.3288 2.60596 5.43416 2.7935 5.62169C2.98103 5.80923 3.23539 5.91459 3.5006 5.91459C3.76582 5.91459 4.02017 5.80923 4.20771 5.62169L5.62192 4.20748C6.18453 3.64487 6.9476 3.3288 7.74325 3.3288C8.53889 3.3288 9.30196 3.64487 9.86456 4.20748C10.4272 4.77009 10.7432 5.53315 10.7432 6.3288C10.7432 7.12445 10.4272 7.88751 9.86456 8.45012L7.03614 11.2785C6.8486 11.4661 6.74324 11.7204 6.74324 11.9857C6.74324 12.2509 6.8486 12.5052 7.03614 12.6928C7.22367 12.8803 7.47803 12.9857 7.74324 12.9857C8.00846 12.9857 8.26282 12.8803 8.45035 12.6928L12.693 8.45012C13.2556 7.88751 14.0187 7.57144 14.8143 7.57144C15.61 7.57144 16.373 7.88751 16.9356 8.45012C17.4982 9.01273 17.8143 9.77579 17.8143 10.5714C17.8143 11.3671 17.4982 12.1302 16.9356 12.6928L11.2788 18.3496C11.0912 18.5372 10.9859 18.7915 10.9859 19.0567C10.9859 19.3219 11.0912 19.5763 11.2788 19.7638C11.4663 19.9514 11.7207 20.0567 11.9859 20.0567C12.2511 20.0567 12.5055 19.9514 12.693 19.7638L21.1783 11.2785C21.3658 11.091 21.6202 10.9857 21.8854 10.9857C22.1506 10.9857 22.405 11.091 22.5925 11.2785C22.78 11.4661 22.8854 11.7204 22.8854 11.9857C22.8854 12.2509 22.78 12.5052 22.5925 12.6928Z" fill="white"/>
</g>

</svg>
