<svg width="28" height="28" viewBox="0 0 28 28" fill="none" xmlns="http://www.w3.org/2000/svg">
    <defs>
        <linearGradient id="paint0_linear_3922_188826" x1="0" y1="0" x2="32.265" y2="18.4462" gradientUnits="userSpaceOnUse">
            <stop stop-color="#9DA8FF"/>
            <stop offset="1" stop-color="#27E0D5"/>
        </linearGradient>
        <linearGradient id="paint1_linear_3922_188826" x1="11.2471" y1="9.07275" x2="17.1134" y2="12.4266" gradientUnits="userSpaceOnUse">
            <stop stop-color="#9DA8FF"/>
            <stop offset="1" stop-color="#27E0D5"/>
        </linearGradient>
    </defs>
<path fill-rule="evenodd" clip-rule="evenodd" d="M14 22.575C14 22.575 7.52501 15.4 7.52501 11.725C7.52501 8.39997 10.5 5.42501 14 5.42501C17.675 5.42501 20.475 8.39997 20.475 11.725C20.3 15.4 14 22.575 14 22.575ZM14 0C6.3 0 0 6.3 0 14C0 21.7 6.3 28 14 28C21.7 28 28 21.7 28 14C28 6.3 21.7 0 14 0Z" fill="url(#paint0_linear_3922_188826)"/>
<path fill-rule="evenodd" clip-rule="evenodd" d="M13.7406 9.07275C12.4938 9.07275 11.2471 10.2156 11.2471 11.5663C11.2471 13.0208 12.3899 14.1637 13.7406 14.1637C15.1951 14.1637 16.338 13.0208 16.338 11.5663C16.338 10.2156 15.0912 9.07275 13.7406 9.07275Z" fill="url(#paint1_linear_3922_188826)"/>
</svg>
