<svg width="54" height="55" viewBox="0 0 54 55" fill="none" xmlns="http://www.w3.org/2000/svg">
<circle cx="27" cy="27.5" r="27" fill="#FEDF8E" fill-opacity="0.34"/>
<circle cx="27.5" cy="28" r="22.5" fill="#FEDF8E" fill-opacity="0.66"/>
<circle cx="27" cy="27.5" r="18" fill="#FBC333"/>
<path d="M37.0276 17.7544C36.7724 17.4992 36.3834 17.4273 36.0539 17.5784L13.5093 27.8386C13.1822 27.9873 12.9815 28.3218 13.0013 28.6786C13.0212 29.0378 13.2615 29.3451 13.6034 29.4541L22.4761 32.3034L25.3254 41.1761C25.4345 41.518 25.7442 41.7559 26.101 41.7782C26.1183 41.7782 26.1357 41.7807 26.153 41.7807C26.4924 41.7807 26.8022 41.5824 26.9434 41.2727L37.2036 18.7281C37.3547 18.3986 37.2853 18.0096 37.0276 17.7544Z" fill="white"/>
</svg>
