<svg width="34" height="34" viewBox="0 0 34 34" fill="none" xmlns="http://www.w3.org/2000/svg">
<path d="M17 30.1289C25.2838 30.1289 32 23.832 32 16.0644C32 8.29685 25.2838 2 17 2C8.71625 2 2 8.29685 2 16.0644C2 19.6006 3.39313 22.8355 5.69375 25.3068C5.51188 27.3481 4.91188 29.5864 4.24813 31.2661C4.1 31.6398 4.38687 32.0577 4.76 31.9934C8.99 31.25 11.5044 30.1088 12.5975 29.514C14.0336 29.9245 15.5137 30.1312 17 30.1289Z" fill="url(#paint0_linear_243_37108)"/>
<path d="M10.1709 16.7171C10.1709 17.2438 9.99605 17.6562 9.64514 17.9557C9.28836 18.2518 8.79545 18.3998 8.16522 18.3998H5V17.1692H7.62184C7.92932 17.1692 8.15348 17.1194 8.29314 17.0211C8.4328 16.9194 8.50322 16.7623 8.50322 16.5476C8.50322 16.3499 8.43632 16.195 8.30253 16.0832C8.16287 15.9758 7.93637 15.9227 7.62301 15.9227L5.48353 15.9306V14.7011H7.58311C7.89998 14.7011 8.12766 14.6536 8.26732 14.5575C8.40111 14.4649 8.46801 14.3112 8.46801 14.0965C8.46801 13.893 8.40111 13.7416 8.26732 13.6399C8.19925 13.5845 8.10889 13.545 7.99739 13.5201C7.88003 13.4986 7.74272 13.4873 7.58311 13.4873H5V12.2578H8.0326C8.73442 12.2578 9.26606 12.3934 9.62753 12.6646C9.98431 12.9393 10.1627 13.3653 10.1627 13.9439C10.1627 14.2343 10.0958 14.492 9.96201 14.7169C9.82235 14.9418 9.64162 15.1395 9.41863 15.309C9.66392 15.4548 9.8423 15.6289 9.9538 15.8311C10.0982 16.0685 10.1709 16.3634 10.1709 16.7171Z" fill="white"/>
<path d="M16.4959 16.515C16.4959 17.1592 16.253 17.6473 15.7683 17.9796C15.2836 18.3118 14.5853 18.4768 13.6722 18.4768C12.5949 18.4768 11.798 18.2271 11.2816 17.7276C10.7687 17.2315 10.5117 16.4528 10.5117 15.3906C10.5117 14.3181 10.7863 13.5271 11.3368 13.0174C11.879 12.51 12.724 12.2568 13.8729 12.2568H16.165L16.1603 13.4864H13.8401C13.2638 13.4864 12.846 13.5937 12.5867 13.8073C12.4646 13.909 12.3719 14.0379 12.3085 14.1938C12.2369 14.3588 12.2017 14.5475 12.2017 14.7611H14.272C15.0184 14.7611 15.5758 14.9046 15.9443 15.1905C16.3117 15.4798 16.4959 15.9206 16.4959 16.515ZM14.84 16.5805C14.84 16.3828 14.7872 16.2336 14.6815 16.1319C14.5759 16.0392 14.4151 15.9918 14.198 15.9918H12.2099C12.2099 16.411 12.332 16.7286 12.5773 16.9422C12.8167 17.1614 13.2005 17.271 13.7274 17.271C14.1299 17.271 14.414 17.2145 14.583 17.1026C14.7555 16.9908 14.84 16.8167 14.84 16.5805Z" fill="white"/>
<path d="M22.3126 16.5397C22.3126 17.1398 22.1166 17.6009 21.7269 17.9218C21.3338 18.2405 20.7787 18.3987 20.0628 18.3987H16.7051V17.1692H19.7717C20.0733 17.1692 20.2869 17.1194 20.409 17.0211C20.5263 16.9251 20.5838 16.7646 20.5838 16.5397C20.5838 16.3092 20.5252 16.143 20.409 16.0425C20.2869 15.9464 20.0733 15.899 19.7717 15.899H16.7051V12.2578H22.0004L21.9957 13.4873H18.2742V14.6762H20.348C20.95 14.6762 21.4312 14.8367 21.7938 15.1576C21.9617 15.3249 22.0919 15.5215 22.1835 15.7464C22.2692 15.9758 22.3126 16.2414 22.3126 16.5397Z" fill="white"/>
<path fill-rule="evenodd" clip-rule="evenodd" d="M23.0762 20.3437L25.4199 18.3096L27.9713 19.0227C27.9713 19.0227 29.6542 19.7018 28.7142 20.8387C28.2905 21.241 27.8891 21.6219 26.408 21.2376C25.9879 21.1031 23.0762 20.3437 23.0762 20.3437Z" fill="white"/>
<path fill-rule="evenodd" clip-rule="evenodd" d="M9.50274 18.9051C9.52739 18.9593 9.54851 19.0147 9.57433 19.0689C9.6201 19.165 9.67057 19.2576 9.72573 19.3492C9.86421 19.5775 10.032 19.7888 10.2245 19.9775C10.4663 20.2137 10.7468 20.4126 11.0507 20.5674C11.4345 20.7641 11.8523 20.8918 12.2783 20.9641C12.8405 21.0601 13.4167 21.0635 13.9847 21.0115C14.7523 20.9415 15.5093 20.7731 16.2451 20.555C18.3635 19.9267 20.3199 19.0011 21.977 17.5682C22.0017 17.5467 22.0263 17.5252 22.0521 17.5038C23.1987 16.4991 24.6082 15.0888 24.4345 13.458C24.3242 12.4274 23.025 11.8511 22.1085 11.6409C21.7176 11.5516 21.7916 10.9911 22.193 11.0001C24.0437 11.0431 25.9344 11.5256 26.567 13.0535C26.5705 13.0625 26.574 13.0716 26.5776 13.0817C26.736 13.5733 26.77 14.1056 26.7266 14.6153C26.6444 15.5894 26.2548 16.5172 25.6962 17.3275C24.7632 18.6824 23.4018 19.7278 21.9758 20.5697C20.7729 21.2805 19.5312 21.8331 18.1886 22.2354C17.2427 22.5191 16.2791 22.7519 15.2968 22.8852C14.1972 23.0344 13.0517 23.0672 11.9673 22.8061C10.8759 22.5439 9.90998 21.9518 9.29032 21.0353C8.91242 20.477 8.67535 19.8419 8.53334 19.1921C8.49109 19.0011 8.54391 18.7423 8.7176 18.618C8.93941 18.4598 9.29736 18.6011 9.44171 18.7943C9.46636 18.8316 9.48631 18.8678 9.50274 18.9051Z" fill="white"/>
<path fill-rule="evenodd" clip-rule="evenodd" d="M10.209 18.797C10.209 18.797 13.4587 21.6279 19.038 18.5947C18.416 19.3022 11.4694 22.5376 10.209 18.797Z" fill="white"/>
<defs>
<linearGradient id="paint0_linear_243_37108" x1="4.5" y1="25.9095" x2="31.4853" y2="11.0948" gradientUnits="userSpaceOnUse">
<stop stop-color="#4250C2"/>
<stop offset="1" stop-color="#00A1FF"/>
</linearGradient>
</defs>
</svg>
