<svg width="24" height="24" viewBox="0 0 24 24" fill="none" xmlns="http://www.w3.org/2000/svg">
<defs>
<linearGradient id="paint0_linear_820_19087" x1="-1.80019e-07" y1="13.5163" x2="24.0001" y2="13.4978" gradientUnits="userSpaceOnUse">
<stop stop-color="#0086DA"/>
<stop offset="1" stop-color="#00A9E9"/>
<stop offset="1" stop-color="#00A9E9"/>
</linearGradient>
</defs>
<circle cx="12" cy="12" r="11.5" fill="url(#paint0_linear_820_19087)" stroke="white"/>
<path d="M17 10.25H15.9375V6.75C15.9375 5.64531 15.0422 4.75 13.9375 4.75H10.0625C8.95781 4.75 8.0625 5.64531 8.0625 6.75V10.25H7C6.72344 10.25 6.5 10.4734 6.5 10.75V16.75C6.5 17.0266 6.72344 17.25 7 17.25H17C17.2766 17.25 17.5 17.0266 17.5 16.75V10.75C17.5 10.4734 17.2766 10.25 17 10.25ZM12.4375 13.9531V14.7812C12.4375 14.85 12.3812 14.9062 12.3125 14.9062H11.6875C11.6188 14.9062 11.5625 14.85 11.5625 14.7812V13.9531C11.4335 13.8605 11.3373 13.7294 11.2875 13.5786C11.2378 13.4278 11.2373 13.2651 11.2859 13.114C11.3345 12.9628 11.4299 12.831 11.5582 12.7375C11.6865 12.644 11.8412 12.5936 12 12.5936C12.1588 12.5936 12.3135 12.644 12.4418 12.7375C12.5701 12.831 12.6655 12.9628 12.7141 13.114C12.7627 13.2651 12.7622 13.4278 12.7125 13.5786C12.6627 13.7294 12.5665 13.8605 12.4375 13.9531ZM14.8125 10.25H9.1875V6.75C9.1875 6.26719 9.57969 5.875 10.0625 5.875H13.9375C14.4203 5.875 14.8125 6.26719 14.8125 6.75V10.25Z" fill="white"/>
</svg>
