<svg width="27" height="26" viewBox="0 0 27 26" fill="none" xmlns="http://www.w3.org/2000/svg">
<path d="M11.875 23.8333V21.6667M16.2083 23.8333V21.6667" stroke="white" stroke-width="1.6" stroke-linecap="round"/>
<path d="M12.4167 21.6667V22.4667H13.2167V21.6667H12.4167ZM15.6667 20.8667C15.2249 20.8667 14.8667 21.2248 14.8667 21.6667C14.8667 22.1085 15.2249 22.4667 15.6667 22.4667V20.8667ZM19.4584 5.7C19.0165 5.7 18.6584 6.05817 18.6584 6.5C18.6584 6.94183 19.0165 7.3 19.4584 7.3V5.7ZM8.08335 5.7C7.64153 5.7 7.28335 6.05817 7.28335 6.5C7.28335 6.94183 7.64153 7.3 8.08335 7.3V5.7ZM10.25 20.8667C9.80819 20.8667 9.45002 21.2248 9.45002 21.6667C9.45002 22.1085 9.80819 22.4667 10.25 22.4667V20.8667ZM16.75 22.4667C17.1918 22.4667 17.55 22.1085 17.55 21.6667C17.55 21.2248 17.1918 20.8667 16.75 20.8667V22.4667ZM11.6167 12.1875V21.6667H13.2167V12.1875H11.6167ZM12.4167 20.8667H5.08529V22.4667H12.4167V20.8667ZM3.46669 18.845V12.1875H1.86669V18.845H3.46669ZM5.08529 20.8667C4.30261 20.8667 3.46669 20.0817 3.46669 18.845H1.86669C1.86669 20.725 3.19645 22.4667 5.08529 22.4667V20.8667ZM7.54169 7.3C9.68099 7.3 11.6167 9.36807 11.6167 12.1875H13.2167C13.2167 8.72469 10.7872 5.7 7.54169 5.7V7.3ZM7.54169 5.7C4.29622 5.7 1.86669 8.72469 1.86669 12.1875H3.46669C3.46669 9.36807 5.40238 7.3 7.54169 7.3V5.7ZM23.5334 12.1875V18.8774H25.1334V12.1875H23.5334ZM21.9425 20.8667H15.6667V22.4667H21.9425V20.8667ZM23.5334 18.8774C23.5334 20.0962 22.7099 20.8667 21.9425 20.8667V22.4667C23.816 22.4667 25.1334 20.7396 25.1334 18.8774H23.5334ZM25.1334 12.1875C25.1334 8.72469 22.7038 5.7 19.4584 5.7V7.3C21.5977 7.3 23.5334 9.36807 23.5334 12.1875H25.1334ZM8.08335 7.3H20V5.7H8.08335V7.3ZM10.25 22.4667H16.75V20.8667H10.25V22.4667Z" fill="white"/>
<path d="M5.91669 17.3333H9.16669" stroke="white" stroke-width="1.6" stroke-linecap="round"/>
<path d="M17.8333 10.708V5.86215M17.8333 5.86215V2.85479C17.8333 2.59898 18.0148 2.37914 18.266 2.33074L18.7926 2.22927C19.4299 2.10647 20.0889 2.1651 20.6946 2.3985L20.7803 2.43155C21.3808 2.66295 22.0374 2.70618 22.663 2.5555C22.9622 2.48344 23.25 2.71015 23.25 3.01788V5.4245C23.25 5.68122 23.0741 5.90451 22.8245 5.96463L22.7524 5.982C22.0686 6.1467 21.3509 6.09945 20.6946 5.84653C20.0889 5.61313 19.4299 5.5545 18.7926 5.6773L17.8333 5.86215Z" stroke="white" stroke-width="1.6" stroke-linecap="round"/>
</svg>
