<svg width="24" height="24" viewBox="0 0 24 24" fill="none" xmlns="http://www.w3.org/2000/svg">
<path fill-rule="evenodd" clip-rule="evenodd" d="M4.875 9.75C4.66789 9.75 4.5 9.91789 4.5 10.125C4.5 10.3321 4.66789 10.5 4.875 10.5C5.08211 10.5 5.25 10.3321 5.25 10.125C5.25 9.91789 5.08211 9.75 4.875 9.75ZM3 10.125C3 9.08947 3.83947 8.25 4.875 8.25C5.91053 8.25 6.75 9.08947 6.75 10.125C6.75 11.1605 5.91053 12 4.875 12C3.83947 12 3 11.1605 3 10.125Z" fill="#4EB79A"/>
<path fill-rule="evenodd" clip-rule="evenodd" d="M4.87496 12.75C4.53835 12.75 4.27886 12.8322 4.07116 12.951C3.72155 13.151 3.43704 13.61 3.23727 14.1592C3.14412 14.4152 3.08201 14.6559 3.04337 14.8329C3.02419 14.9207 3.01116 14.9912 3.00316 15.038C2.99917 15.0614 2.99645 15.0787 2.99486 15.0892L2.99332 15.0997C2.93835 15.51 2.5612 15.7982 2.15075 15.7434C1.74018 15.6886 1.45176 15.3114 1.50656 14.9008L2.24996 15C1.50656 14.9008 1.50653 14.901 1.50656 14.9008L1.50681 14.8989L1.50718 14.8962L1.50823 14.8887L1.51171 14.865C1.51466 14.8455 1.51891 14.8186 1.52461 14.7853C1.536 14.7186 1.5533 14.6256 1.57788 14.513C1.62676 14.289 1.7059 13.9811 1.82765 13.6464C2.05768 13.014 2.49758 12.1231 3.3264 11.649C3.75987 11.401 4.27594 11.25 4.87496 11.25C6.38585 11.25 7.24092 12.307 7.67579 13.159C7.89831 13.595 8.03793 14.0232 8.12198 14.3375C8.1644 14.4962 8.19365 14.6296 8.21262 14.7255C8.22213 14.7735 8.2291 14.8123 8.23389 14.8405C8.23629 14.8546 8.23814 14.866 8.2395 14.8746L8.24116 14.8854L8.24173 14.8891L8.24194 14.8906C8.24198 14.8909 8.24211 14.8918 7.52254 14.9967L8.24211 14.8918C8.30189 15.3016 8.01807 15.6824 7.60819 15.7421C7.19894 15.8018 6.81875 15.519 6.75809 15.1101L6.75779 15.1081L6.75514 15.0921C6.75246 15.0763 6.7479 15.0507 6.74116 15.0167C6.72767 14.9485 6.70565 14.8476 6.67287 14.725C6.60653 14.4768 6.50006 14.155 6.33976 13.841C6.00901 13.193 5.55158 12.75 4.87496 12.75ZM6.75796 15.1092C6.75795 15.1091 6.75798 15.1093 6.75796 15.1092V15.1092ZM6.75796 15.1092C6.75793 15.109 6.75782 15.1084 6.75779 15.1081L7.49996 15C6.75781 15.1082 6.75793 15.109 6.75796 15.1092Z" fill="#4EB79A"/>
<path fill-rule="evenodd" clip-rule="evenodd" d="M18.375 3C18.1679 3 18 3.16789 18 3.375C18 3.58211 18.1679 3.75 18.375 3.75C18.5821 3.75 18.75 3.58211 18.75 3.375C18.75 3.16789 18.5821 3 18.375 3ZM16.5 3.375C16.5 2.33947 17.3395 1.5 18.375 1.5C19.4105 1.5 20.25 2.33947 20.25 3.375C20.25 4.41053 19.4105 5.25 18.375 5.25C17.3395 5.25 16.5 4.41053 16.5 3.375Z" fill="#4EB79A"/>
<path fill-rule="evenodd" clip-rule="evenodd" d="M18.375 6C18.0384 6 17.7789 6.08222 17.5712 6.20102C17.2215 6.401 16.937 6.86003 16.7373 7.40917C16.6441 7.66523 16.582 7.90586 16.5434 8.08287C16.5242 8.17072 16.5112 8.24121 16.5032 8.28801C16.4992 8.31136 16.4965 8.32869 16.4949 8.33919L16.4933 8.34967C16.4384 8.76005 16.0612 9.04819 15.6507 8.99341C15.2402 8.93861 14.9518 8.56136 15.0066 8.15078L15.75 8.25C15.0066 8.15078 15.0065 8.15099 15.0066 8.15078L15.0068 8.14887L15.0072 8.14621L15.0082 8.13867L15.0117 8.11498C15.0147 8.09547 15.0189 8.06861 15.0246 8.03526C15.036 7.96863 15.0533 7.87557 15.0779 7.76296C15.1268 7.53904 15.2059 7.23105 15.3276 6.89638C15.5577 6.26403 15.9976 5.37306 16.8264 4.89898C17.2599 4.65103 17.7759 4.5 18.375 4.5C19.8859 4.5 20.7409 5.55704 21.1758 6.40903C21.3983 6.84499 21.5379 7.27318 21.622 7.58753C21.6644 7.7462 21.6936 7.87962 21.7126 7.97548C21.7221 8.0235 21.7291 8.06235 21.7339 8.09051C21.7363 8.1046 21.7381 8.11604 21.7395 8.12464L21.7412 8.1354L21.7417 8.13914L21.7419 8.14059C21.742 8.14087 21.7421 8.14176 21.0225 8.24671L21.7421 8.14177C21.8019 8.55165 21.5181 8.93238 21.1082 8.99215C20.6989 9.05183 20.3187 8.76897 20.2581 8.3601L20.2578 8.35815L20.2551 8.3421C20.2525 8.32632 20.2479 8.30072 20.2412 8.26671C20.2277 8.19851 20.2057 8.09755 20.1729 7.97497C20.1065 7.72682 20.0001 7.40501 19.8398 7.09097C19.509 6.44296 19.0516 6 18.375 6ZM20.258 8.35923C20.2579 8.35912 20.258 8.35934 20.258 8.35923V8.35923ZM20.258 8.35923C20.2579 8.35901 20.2578 8.35837 20.2578 8.35815L21 8.25C20.2578 8.35823 20.2579 8.35899 20.258 8.35923Z" fill="#4EB79A"/>
<path fill-rule="evenodd" clip-rule="evenodd" d="M18.375 9.75C18.1679 9.75 18 9.91789 18 10.125C18 10.3321 18.1679 10.5 18.375 10.5C18.5821 10.5 18.75 10.3321 18.75 10.125C18.75 9.91789 18.5821 9.75 18.375 9.75ZM16.5 10.125C16.5 9.08947 17.3395 8.25 18.375 8.25C19.4105 8.25 20.25 9.08947 20.25 10.125C20.25 11.1605 19.4105 12 18.375 12C17.3395 12 16.5 11.1605 16.5 10.125Z" fill="#4EB79A"/>
<path fill-rule="evenodd" clip-rule="evenodd" d="M18.375 12.75C18.0384 12.75 17.7789 12.8322 17.5712 12.951C17.2215 13.151 16.937 13.61 16.7373 14.1592C16.6441 14.4152 16.582 14.6559 16.5434 14.8329C16.5242 14.9207 16.5112 14.9912 16.5032 15.038C16.4992 15.0614 16.4965 15.0787 16.4949 15.0892L16.4933 15.0997C16.4384 15.51 16.0612 15.7982 15.6507 15.7434C15.2402 15.6886 14.9518 15.3114 15.0066 14.9008L15.75 15C15.0066 14.9008 15.0065 14.901 15.0066 14.9008L15.0068 14.8989L15.0072 14.8962L15.0082 14.8887L15.0117 14.865C15.0147 14.8455 15.0189 14.8186 15.0246 14.7853C15.036 14.7186 15.0533 14.6256 15.0779 14.513C15.1268 14.289 15.2059 13.9811 15.3276 13.6464C15.5577 13.014 15.9976 12.1231 16.8264 11.649C17.2599 11.401 17.7759 11.25 18.375 11.25C19.8859 11.25 20.7409 12.307 21.1758 13.159C21.3983 13.595 21.5379 14.0232 21.622 14.3375C21.6644 14.4962 21.6936 14.6296 21.7126 14.7255C21.7221 14.7735 21.7291 14.8123 21.7339 14.8405C21.7363 14.8546 21.7381 14.866 21.7395 14.8746L21.7412 14.8854L21.7417 14.8891L21.7419 14.8906C21.742 14.8909 21.7421 14.8918 21.0225 14.9967L21.7421 14.8918C21.8019 15.3016 21.5181 15.6824 21.1082 15.7421C20.6989 15.8018 20.3187 15.519 20.2581 15.1101L20.2578 15.1081L20.2551 15.0921C20.2525 15.0763 20.2479 15.0507 20.2412 15.0167C20.2277 14.9485 20.2057 14.8476 20.1729 14.725C20.1065 14.4768 20.0001 14.155 19.8398 13.841C19.509 13.193 19.0516 12.75 18.375 12.75ZM20.258 15.1092C20.2579 15.1091 20.258 15.1093 20.258 15.1092V15.1092ZM20.258 15.1092C20.2579 15.109 20.2578 15.1084 20.2578 15.1081L21 15C20.2578 15.1082 20.2579 15.109 20.258 15.1092Z" fill="#4EB79A"/>
<path fill-rule="evenodd" clip-rule="evenodd" d="M18.375 16.5C18.1679 16.5 18 16.6679 18 16.875C18 17.0821 18.1679 17.25 18.375 17.25C18.5821 17.25 18.75 17.0821 18.75 16.875C18.75 16.6679 18.5821 16.5 18.375 16.5ZM16.5 16.875C16.5 15.8395 17.3395 15 18.375 15C19.4105 15 20.25 15.8395 20.25 16.875C20.25 17.9105 19.4105 18.75 18.375 18.75C17.3395 18.75 16.5 17.9105 16.5 16.875Z" fill="#4EB79A"/>
<path fill-rule="evenodd" clip-rule="evenodd" d="M18.375 19.5C18.0384 19.5 17.7789 19.5822 17.5712 19.701C17.2215 19.901 16.937 20.36 16.7373 20.9092C16.6441 21.1652 16.582 21.4059 16.5434 21.5829C16.5242 21.6707 16.5112 21.7412 16.5032 21.788C16.4992 21.8114 16.4965 21.8287 16.4949 21.8392L16.4933 21.8497C16.4384 22.26 16.0612 22.5482 15.6507 22.4934C15.2402 22.4386 14.9518 22.0614 15.0066 21.6508L15.75 21.75C15.0066 21.6508 15.0065 21.651 15.0066 21.6508L15.0068 21.6489L15.0072 21.6462L15.0082 21.6387L15.0117 21.615C15.0147 21.5955 15.0189 21.5686 15.0246 21.5353C15.036 21.4686 15.0533 21.3756 15.0779 21.263C15.1268 21.039 15.2059 20.7311 15.3276 20.3964C15.5577 19.764 15.9976 18.8731 16.8264 18.399C17.2599 18.151 17.7759 18 18.375 18C19.8859 18 20.7409 19.057 21.1758 19.909C21.3983 20.345 21.5379 20.7732 21.622 21.0875C21.6644 21.2462 21.6936 21.3796 21.7126 21.4755C21.7221 21.5235 21.7291 21.5623 21.7339 21.5905C21.7363 21.6046 21.7381 21.616 21.7395 21.6246L21.7412 21.6354L21.7417 21.6391L21.7419 21.6406C21.742 21.6409 21.7421 21.6418 21.0225 21.7467L21.7421 21.6418C21.8019 22.0516 21.5181 22.4324 21.1082 22.4922C20.6989 22.5518 20.3187 22.269 20.2581 21.8601L20.2578 21.8581L20.2551 21.8421C20.2525 21.8263 20.2479 21.8007 20.2412 21.7667C20.2277 21.6985 20.2057 21.5976 20.1729 21.475C20.1065 21.2268 20.0001 20.905 19.8398 20.591C19.509 19.943 19.0516 19.5 18.375 19.5ZM20.258 21.8592C20.2579 21.8591 20.258 21.8593 20.258 21.8592V21.8592ZM20.258 21.8592C20.2579 21.859 20.2578 21.8584 20.2578 21.8581L21 21.75C20.2578 21.8582 20.2579 21.859 20.258 21.8592Z" fill="#4EB79A"/>
<path fill-rule="evenodd" clip-rule="evenodd" d="M9.75 5.25C9.75 4.83579 10.0858 4.5 10.5 4.5H14.25C14.6642 4.5 15 4.83579 15 5.25C15 5.66421 14.6642 6 14.25 6H11.25V11.25H14.25C14.6642 11.25 15 11.5858 15 12C15 12.4142 14.6642 12.75 14.25 12.75H11.25V18H14.25C14.6642 18 15 18.3358 15 18.75C15 19.1642 14.6642 19.5 14.25 19.5H10.5C10.0858 19.5 9.75 19.1642 9.75 18.75V12.75H8.25C7.83579 12.75 7.5 12.4142 7.5 12C7.5 11.5858 7.83579 11.25 8.25 11.25H9.75V5.25Z" fill="#4EB79A"/>
</svg>
