<svg width="24" height="25" viewBox="0 0 24 25" fill="none" xmlns="http://www.w3.org/2000/svg">
<g id="outline / pressure-gauge">
<path id="shape" d="M19 17.5C20.1046 17.5 21 18.3954 21 19.5C21 20.6046 20.1046 21.5 19 21.5C17.8954 21.5 17 20.6046 17 19.5C17 18.3954 17.8954 17.5 19 17.5ZM19 17.5V16C19 15.337 18.7366 14.7011 18.2678 14.2322C17.7989 13.7634 17.163 13.5 16.5 13.5C15.837 13.5 15.2011 13.7634 14.7322 14.2322C14.2634 14.7011 14 15.337 14 16V17.5C14 18.2956 13.6839 19.0587 13.1213 19.6213C12.5587 20.1839 11.7956 20.5 11 20.5C10.2044 20.5 9.44129 20.1839 8.87868 19.6213C8.31607 19.0587 8 18.2956 8 17.5V13.5M8 6V8.5L9.25 9.75M8 13.5C10.7614 13.5 13 11.2614 13 8.5C13 5.73858 10.7614 3.5 8 3.5C5.23858 3.5 3 5.73858 3 8.5C3 11.2614 5.23858 13.5 8 13.5Z" stroke="#3B86D4" stroke-width="1.5" stroke-linecap="round" stroke-linejoin="round"/>
</g>
</svg>
