<svg width="24" height="24" viewBox="0 0 24 24" fill="none" xmlns="http://www.w3.org/2000/svg">
    <defs>
        <linearGradient id="paint0_linear_2723_115343" x1="5.50098" y1="6" x2="20.501" y2="18.5" gradientUnits="userSpaceOnUse">
            <stop stop-color="#F1800E"/>
            <stop offset="1" stop-color="#FFBF5F"/>
        </linearGradient>
    </defs>
<g id="message-alert-circle">
<path id="Icon" d="M11.5014 11V7.5M11.5014 14.5H11.4914M11.5014 20C6.80693 20 3.00135 16.1944 3.00135 11.5C3.00135 6.80558 6.80693 3 11.5014 3C16.1958 3 20.0014 6.80558 20.0014 11.5C20.0014 12.45 19.8455 13.3636 19.558 14.2166C19.4498 14.5376 19.3957 14.6981 19.3859 14.8214C19.3763 14.9432 19.3836 15.0286 19.4137 15.1469C19.4442 15.2668 19.5116 15.3915 19.6463 15.6408L21.2819 18.6684C21.5152 19.1002 21.6319 19.3161 21.6058 19.4828C21.583 19.6279 21.4976 19.7557 21.3722 19.8322C21.2282 19.9201 20.9841 19.8948 20.4958 19.8444L15.3748 19.315C15.2197 19.299 15.1422 19.291 15.0715 19.2937C15.002 19.2963 14.9529 19.3029 14.8851 19.3185C14.8162 19.3344 14.7295 19.3678 14.5562 19.4345C13.6081 19.7998 12.5781 20 11.5014 20Z" stroke="url(#paint0_linear_2723_115343)" stroke-width="1.5" stroke-linecap="round" stroke-linejoin="round"/>
</g>

</svg>
