<svg width="20" height="18" viewBox="0 0 20 18" fill="none" xmlns="http://www.w3.org/2000/svg">
<path d="M6.6665 13.0908H13.3332" stroke="#F8924F" stroke-width="1.5" stroke-linecap="round" stroke-linejoin="round"/>
<path d="M1.75 9C1.75 12.311 2.17131 13.9787 3.21896 14.9099C3.74606 15.3785 4.49764 15.7204 5.61238 15.9407C6.73116 16.1617 8.16216 16.25 10 16.25C11.8378 16.25 13.2688 16.1617 14.3876 15.9407C15.5024 15.7204 16.2539 15.3785 16.781 14.9099C17.8287 13.9787 18.25 12.311 18.25 9C18.25 5.68896 17.8287 4.0213 16.781 3.09006C16.2539 2.62152 15.5024 2.27956 14.3876 2.05934C13.2688 1.83833 11.8378 1.75 10 1.75C7.56978 1.75 5.86536 1.90551 4.65916 2.30503C3.50411 2.68761 2.83215 3.28342 2.40877 4.21846C1.93974 5.25429 1.75 6.76093 1.75 9Z" stroke="#F8924F" stroke-width="1.5" stroke-linecap="round" stroke-linejoin="round"/>
</svg>
