<svg width="25" height="24" viewBox="0 0 25 24" fill="none" xmlns="http://www.w3.org/2000/svg">
<path d="M22.625 7.42999V13.43C22.625 14.93 22.125 16.18 21.245 17.06C20.375 17.93 19.125 18.43 17.625 18.43V20.56C17.625 21.36 16.735 21.84 16.075 21.4L11.625 18.43H9.505C9.585 18.13 9.625 17.82 9.625 17.5C9.625 16.48 9.235 15.54 8.595 14.83C7.875 14.01 6.805 13.5 5.625 13.5C4.505 13.5 3.485 13.96 2.755 14.71C2.665 14.31 2.625 13.88 2.625 13.43V7.42999C2.625 4.42999 4.625 2.42999 7.625 2.42999H17.625C20.625 2.42999 22.625 4.42999 22.625 7.42999Z" stroke="#401BAA" stroke-width="1.2" stroke-miterlimit="10" stroke-linecap="round" stroke-linejoin="round"/>
<path d="M9.625 17.5C9.625 18.25 9.41501 18.96 9.04501 19.56C8.83501 19.92 8.565 20.24 8.255 20.5C7.555 21.13 6.635 21.5 5.625 21.5C4.165 21.5 2.89499 20.72 2.20499 19.56C1.83499 18.96 1.625 18.25 1.625 17.5C1.625 16.24 2.205 15.11 3.125 14.38C3.815 13.83 4.685 13.5 5.625 13.5C7.835 13.5 9.625 15.29 9.625 17.5Z" stroke="#401BAA" stroke-width="1.1" stroke-miterlimit="10" stroke-linecap="round" stroke-linejoin="round"/>
<path d="M4.065 17.5L5.05499 18.49L7.185 16.52" stroke="#401BAA" stroke-width="1.1" stroke-linecap="round" stroke-linejoin="round"/>
<path d="M9.125 10.5H16.125" stroke="#401BAA" stroke-width="1.1" stroke-miterlimit="10" stroke-linecap="round" stroke-linejoin="round"/>
</svg>
