<svg width="22" height="22" viewBox="0 0 22 22" fill="none" xmlns="http://www.w3.org/2000/svg">
<path d="M20.1668 5.72921V10.4042C20.1668 11.5684 19.7818 12.5492 19.0943 13.2275C18.416 13.915 17.4352 14.3 16.271 14.3V15.9592C16.271 16.5825 15.5743 16.9584 15.061 16.61L14.1718 16.0234C14.2543 15.7392 14.291 15.4275 14.291 15.0975V11.3667C14.291 9.49673 13.0443 8.25004 11.1743 8.25004H4.95016C4.82182 8.25004 4.70266 8.25923 4.5835 8.26839V5.72921C4.5835 3.39171 6.14183 1.83337 8.47933 1.83337H16.271C18.6085 1.83337 20.1668 3.39171 20.1668 5.72921Z" stroke="#666666" stroke-width="1.5" stroke-miterlimit="10" stroke-linecap="round" stroke-linejoin="round"/>
<path d="M14.291 11.3667V15.0975C14.291 15.4275 14.2543 15.7391 14.1718 16.0233C13.8327 17.3708 12.7143 18.2142 11.1743 18.2142H8.681L5.91266 20.0567C5.50016 20.3408 4.95016 20.0383 4.95016 19.5433V18.2142C4.01516 18.2142 3.236 17.9025 2.69517 17.3617C2.14516 16.8117 1.8335 16.0325 1.8335 15.0975V11.3667C1.8335 9.62502 2.91516 8.42418 4.5835 8.26835C4.70266 8.25918 4.82182 8.25 4.95016 8.25H11.1743C13.0443 8.25 14.291 9.49669 14.291 11.3667Z" stroke="#666666" stroke-width="1.5" stroke-miterlimit="10" stroke-linecap="round" stroke-linejoin="round"/>
</svg>
