<svg width="27" height="26" viewBox="0 0 27 26" fill="none" xmlns="http://www.w3.org/2000/svg">
<path d="M10.1201 21.5L12.4167 19.9658L17.2376 23.1834C17.9526 23.66 18.9167 23.14 18.9167 22.2733V19.9658C20.5417 19.9658 21.8959 19.4242 22.8384 18.4817C23.7917 17.5283 24.3334 16.1742 24.3334 14.5492V8.04917C24.3334 4.79917 22.1667 2.63251 18.9167 2.63251H8.08342C4.83341 2.63251 2.66675 4.79917 2.66675 8.04917V14.2295" stroke="white" stroke-width="1.5" stroke-miterlimit="10" stroke-linecap="round" stroke-linejoin="round"/>
<path d="M11 18C11 18.9375 10.7375 19.825 10.275 20.575C10.0125 21.025 9.67501 21.425 9.28751 21.75C8.41251 22.5375 7.2625 23 6 23C4.175 23 2.58748 22.025 1.72498 20.575C1.26248 19.825 1 18.9375 1 18C1 16.425 1.725 15.0125 2.875 14.1C3.7375 13.4125 4.825 13 6 13C8.7625 13 11 15.2375 11 18Z" stroke="white" stroke-width="1.5" stroke-miterlimit="10" stroke-linecap="round" stroke-linejoin="round"/>
<path d="M9.70825 11.375H17.2916" stroke="white" stroke-width="1.5" stroke-miterlimit="10" stroke-linecap="round" stroke-linejoin="round"/>
<path d="M4 16L8 20" stroke="white" stroke-linecap="round"/>
<path d="M8 16L4 20" stroke="white" stroke-linecap="round"/>
</svg>
