<svg width="56" height="56" viewBox="0 0 56 56" fill="none" xmlns="http://www.w3.org/2000/svg">
<rect width="56" height="56" fill="white" fill-opacity="0.4"/>
<path d="M21 29.5C18.79 29.5 17 31.29 17 33.5C17 34.25 17.21 34.96 17.58 35.56C18.27 36.72 19.54 37.5 21 37.5C22.46 37.5 23.73 36.72 24.42 35.56C24.79 34.96 25 34.25 25 33.5C25 31.29 23.21 29.5 21 29.5ZM22.97 33.17L20.84 35.14C20.7 35.27 20.51 35.34 20.33 35.34C20.14 35.34 19.95 35.27 19.8 35.12L18.81 34.13C18.52 33.84 18.52 33.36 18.81 33.07C19.1 32.78 19.58 32.78 19.87 33.07L20.35 33.55L21.95 32.07C22.25 31.79 22.73 31.81 23.01 32.11C23.29 32.41 23.27 32.89 22.97 33.17Z" fill="white"/>
<path d="M33.25 18.4297H23.75C20.9 18.4297 19 20.3297 19 23.1797V27.6397C19 27.9897 19.36 28.2397 19.7 28.1497C20.12 28.0497 20.55 27.9997 21 27.9997C23.86 27.9997 26.22 30.3197 26.48 33.1297C26.5 33.4097 26.73 33.6297 27 33.6297H27.55L31.78 36.4497C32.4 36.8697 33.25 36.4097 33.25 35.6497V33.6297C34.67 33.6297 35.86 33.1497 36.69 32.3297C37.52 31.4897 38 30.2997 38 28.8797V23.1797C38 20.3297 36.1 18.4297 33.25 18.4297ZM31.83 26.8097H25.17C24.78 26.8097 24.46 26.4897 24.46 26.0997C24.46 25.6997 24.78 25.3797 25.17 25.3797H31.83C32.22 25.3797 32.54 25.6997 32.54 26.0997C32.54 26.4897 32.22 26.8097 31.83 26.8097Z" fill="white"/>
</svg>
