<svg width="24" height="24" viewBox="0 0 24 24" fill="none" xmlns="http://www.w3.org/2000/svg">
<path d="M8 6L7.9996 11.5C7.9996 13.71 9.7896 15.5 11.9996 15.5C14.2096 15.5 15.9996 13.71 15.9996 11.5V6C15.9996 3.79 14.2096 2 11.9996 2C9.7896 2 8 3.79 8 6Z" stroke="#474747" stroke-width="1.5" stroke-linecap="round" stroke-linejoin="round"/>
<path d="M4.34961 9.64999V11.35C4.34961 15.57 7.77961 19 11.9996 19C16.2196 19 19.6496 15.57 19.6496 11.35V9.64999" stroke="#474747" stroke-width="1.5" stroke-linecap="round" stroke-linejoin="round"/>
<path d="M10.6096 6.43C11.5096 6.1 12.4896 6.1 13.3896 6.43" stroke="#474747" stroke-width="1.5" stroke-linecap="round" stroke-linejoin="round"/>
<path d="M11.1996 8.55001C11.7296 8.41001 12.2796 8.41001 12.8096 8.55001" stroke="#474747" stroke-width="1.5" stroke-linecap="round" stroke-linejoin="round"/>
<path d="M11.9996 19V22" stroke="#474747" stroke-width="1.5" stroke-linecap="round" stroke-linejoin="round"/>
</svg>
