<svg width="35" height="35" viewBox="0 0 35 35" fill="none" xmlns="http://www.w3.org/2000/svg">
    <defs>
        <linearGradient id="paint0_linear_2723_123614" x1="2.95173" y1="17.2183" x2="32.0483" y2="17.2224" gradientUnits="userSpaceOnUse">
            <stop stop-color="#3A85D4"/>
            <stop offset="0.131496" stop-color="#3E8CD8"/>
            <stop offset="0.264271" stop-color="#4295DC"/>
            <stop offset="0.400428" stop-color="#479FE0"/>
            <stop offset="0.505971" stop-color="#4BA6E3"/>
            <stop offset="0.60639" stop-color="#4BA6E3"/>
            <stop offset="0.706809" stop-color="#4BA6E3"/>
            <stop offset="0.805541" stop-color="#4BA6E3"/>
            <stop offset="0.917888" stop-color="#4BA6E3"/>
            <stop offset="1" stop-color="#4BA6E3"/>
        </linearGradient>
    </defs>
<path d="M9.04875 15.3969C8.35029 12.789 8.8772 9.92124 10.6295 7.70544M25.9516 15.3968C26.65 12.7889 26.1231 9.92116 24.3708 7.70537M3.41536 16.9161C2.19334 12.3592 3.21645 7.32557 6.48469 3.56689M31.5799 16.9162C32.8019 12.3593 31.7788 7.32563 28.5106 3.56696M17.5002 21.875V13.125M8.02099 26.9792H13.8543M7.58349 32.0833H27.4168C29.0503 32.0833 29.8671 32.0833 30.491 31.7654C31.0398 31.4858 31.486 31.0396 31.7656 30.4908C32.0835 29.8669 32.0835 29.0501 32.0835 27.4167V26.5417C32.0835 24.9082 32.0835 24.0914 31.7656 23.4675C31.486 22.9187 31.0398 22.4725 30.491 22.1929C29.8671 21.875 29.0503 21.875 27.4168 21.875H7.58349C5.95001 21.875 5.13326 21.875 4.50935 22.1929C3.96055 22.4725 3.51436 22.9187 3.23472 23.4675C2.91683 24.0914 2.91683 24.9082 2.91683 26.5417V27.4167C2.91683 29.0501 2.91683 29.8669 3.23472 30.4908C3.51436 31.0396 3.96055 31.4858 4.50935 31.7654C5.13326 32.0833 5.95001 32.0833 7.58349 32.0833Z" stroke="url(#paint0_linear_2723_123614)" stroke-width="2" stroke-linecap="round" stroke-linejoin="round"/>

</svg>
