<svg width="20" height="20" viewBox="0 0 20 20" fill="none" xmlns="http://www.w3.org/2000/svg">
<path d="M8.33464 14.1241H5.1763C2.36797 14.1241 1.66797 13.4241 1.66797 10.6158V5.61576C1.66797 2.80742 2.36797 2.10742 5.1763 2.10742H13.9513C16.7596 2.10742 17.4596 2.80742 17.4596 5.61576" stroke="#474747" stroke-linecap="round" stroke-linejoin="round"/>
<path d="M8.33203 17.8917V14.125" stroke="#474747" stroke-linecap="round" stroke-linejoin="round"/>
<path d="M1.66797 10.791H8.33464" stroke="#474747" stroke-linecap="round" stroke-linejoin="round"/>
<path d="M5.61719 17.8926H8.33385" stroke="#474747" stroke-linecap="round" stroke-linejoin="round"/>
<path d="M18.3331 10.6659V15.4242C18.3331 17.3992 17.8414 17.8909 15.8664 17.8909H12.9081C10.9331 17.8909 10.4414 17.3992 10.4414 15.4242V10.6659C10.4414 8.69089 10.9331 8.19922 12.9081 8.19922H15.8664C17.8414 8.19922 18.3331 8.69089 18.3331 10.6659Z" stroke="#474747" stroke-linecap="round" stroke-linejoin="round"/>
<path d="M14.3691 15.2077H14.3766" stroke="#474747" stroke-width="2" stroke-linecap="round" stroke-linejoin="round"/>
</svg>
