<svg width="15" height="16" viewBox="0 0 15 16" fill="none" xmlns="http://www.w3.org/2000/svg">
<g id="mingcute:send-plane-fill" clip-path="url(#clip0_35_5233)">
<g id="Group">
<path id="Vector" d="M13.3957 3.53816L9.64569 13.2257C9.60859 13.3216 9.54839 13.4069 9.47042 13.474C9.39245 13.5411 9.29912 13.5879 9.19871 13.6103C9.09831 13.6327 8.99393 13.63 8.89484 13.6023C8.79575 13.5747 8.70502 13.523 8.63068 13.4519L6.51693 11.43L5.22068 12.7257C5.17695 12.7693 5.12127 12.7989 5.06068 12.8109C5.0001 12.8229 4.93732 12.8167 4.88028 12.793C4.82323 12.7693 4.77448 12.7293 4.74019 12.6779C4.70589 12.6265 4.68757 12.5662 4.68756 12.5044V9.68004L1.44318 6.57691C1.36269 6.4999 1.30424 6.40277 1.27389 6.29558C1.24354 6.18839 1.24239 6.07503 1.27056 5.96725C1.29873 5.85947 1.3552 5.76117 1.43412 5.68254C1.51304 5.60392 1.61155 5.54781 1.71943 5.52004L12.6569 2.70754C12.7681 2.67905 12.885 2.68174 12.9948 2.71531C13.1046 2.74887 13.203 2.81202 13.2792 2.89783C13.3555 2.98363 13.4066 3.08878 13.427 3.20173C13.4475 3.31468 13.4364 3.43108 13.3951 3.53816H13.3957ZM11.8751 4.25066L5.02006 8.72004L6.10443 9.75754L11.8751 4.25004V4.25066Z" fill="white"/>
</g>
</g>
<defs>
<clipPath id="clip0_35_5233">
<rect width="15" height="15" fill="white" transform="translate(0 0.5)"/>
</clipPath>
</defs>
</svg>
