<svg width="15" height="16" viewBox="0 0 15 16" fill="none" xmlns="http://www.w3.org/2000/svg">
<g id="dashicons:money-alt">
<path id="Vector" d="M8.0102 7.1502C7.6702 7.0652 7.3302 6.8952 7.0752 6.6402C6.8202 6.5552 6.7352 6.3002 6.7352 6.1302C6.7352 5.9602 6.8202 5.7052 6.9902 5.6202C7.2452 5.4502 7.5002 5.2802 7.7552 5.3652C8.2652 5.3652 8.6902 5.6202 8.9452 5.9602L9.7102 4.9402C9.4552 4.6852 9.2002 4.5152 8.9452 4.3452C8.6902 4.1752 8.3502 4.0902 8.0102 4.0902V2.9002H6.9902V4.0902C6.5652 4.1752 6.1402 4.4302 5.8002 4.7702C5.4602 5.1952 5.2052 5.7052 5.2902 6.2152C5.2902 6.7252 5.4602 7.2352 5.8002 7.5752C6.2252 8.0002 6.8202 8.2552 7.3302 8.5102C7.5852 8.5952 7.9252 8.7652 8.1802 8.9352C8.3502 9.1052 8.4352 9.3602 8.4352 9.6152C8.4352 9.8702 8.3502 10.1252 8.1802 10.3802C7.9252 10.6352 7.5852 10.7202 7.3302 10.7202C6.9902 10.7202 6.5652 10.6352 6.3102 10.3802C6.0552 10.2102 5.8002 9.9552 5.6302 9.7002L4.7802 10.6352C5.0352 10.9752 5.2902 11.2302 5.6302 11.4852C6.0552 11.7402 6.5652 11.9952 7.0752 11.9952V13.1002H8.0102V11.8252C8.5202 11.7402 8.9452 11.4852 9.2852 11.1452C9.7102 10.7202 9.9652 10.0402 9.9652 9.4452C9.9652 8.9352 9.7952 8.3402 9.3702 8.0002C8.9452 7.5752 8.5202 7.3202 8.0102 7.1502ZM7.5002 1.2002C3.7602 1.2002 0.700195 4.2602 0.700195 8.0002C0.700195 11.7402 3.7602 14.8002 7.5002 14.8002C11.2402 14.8002 14.3002 11.7402 14.3002 8.0002C14.3002 4.2602 11.2402 1.2002 7.5002 1.2002ZM7.5002 13.8652C4.2702 13.8652 1.6352 11.2302 1.6352 8.0002C1.6352 4.7702 4.2702 2.1352 7.5002 2.1352C10.7302 2.1352 13.3652 4.7702 13.3652 8.0002C13.3652 11.2302 10.7302 13.8652 7.5002 13.8652Z" fill="white"/>
</g>
</svg>
