<svg width="20" height="20" viewBox="0 0 20 20" fill="none" xmlns="http://www.w3.org/2000/svg">
<g id="announcement-02">
<path id="Icon" d="M3.33366 11.6654L4.64586 16.9142C4.68277 17.0618 4.70122 17.1356 4.72305 17.2001C4.9363 17.8296 5.50326 18.2723 6.16576 18.3265C6.23358 18.332 6.30966 18.332 6.46182 18.332C6.65236 18.332 6.74763 18.332 6.82789 18.3243C7.62116 18.2473 8.24894 17.6195 8.32588 16.8263C8.33366 16.746 8.33366 16.6507 8.33366 16.4602V4.58204M15.417 11.2487C17.0278 11.2487 18.3337 9.94287 18.3337 8.33204C18.3337 6.72121 17.0278 5.41537 15.417 5.41537M8.54199 4.58204H5.41699C3.34592 4.58204 1.66699 6.26097 1.66699 8.33204C1.66699 10.4031 3.34593 12.082 5.41699 12.082H8.54199C10.014 12.082 11.8147 12.8711 13.2039 13.6284C14.0143 14.0702 14.4196 14.2911 14.685 14.2586C14.9311 14.2285 15.1172 14.118 15.2614 13.9163C15.417 13.6988 15.417 13.2637 15.417 12.3935V4.27061C15.417 3.40037 15.417 2.96525 15.2614 2.74778C15.1172 2.54612 14.9311 2.43562 14.685 2.40548C14.4196 2.37297 14.0143 2.59387 13.2039 3.03567C11.8147 3.79297 10.014 4.58204 8.54199 4.58204Z" stroke="#E8811A" stroke-width="1.5" stroke-linecap="round" stroke-linejoin="round"/>
</g>
</svg>
