<svg width="20" height="20" viewBox="0 0 20 20" fill="none" xmlns="http://www.w3.org/2000/svg">
<path d="M5.83326 11.8167V2.50001C5.83326 2.27899 5.74546 2.06703 5.58918 1.91075C5.4329 1.75447 5.22094 1.66667 4.99993 1.66667C4.77891 1.66667 4.56695 1.75447 4.41067 1.91075C4.25439 2.06703 4.1666 2.27899 4.1666 2.50001V11.8167C3.68397 11.9918 3.26698 12.3114 2.9723 12.7318C2.67761 13.1523 2.51953 13.6532 2.51953 14.1667C2.51953 14.6801 2.67761 15.1811 2.9723 15.6015C3.26698 16.022 3.68397 16.3415 4.1666 16.5167V17.5C4.1666 17.721 4.25439 17.933 4.41067 18.0893C4.56695 18.2455 4.77891 18.3333 4.99993 18.3333C5.22094 18.3333 5.4329 18.2455 5.58918 18.0893C5.74546 17.933 5.83326 17.721 5.83326 17.5V16.5167C6.31589 16.3415 6.73288 16.022 7.02756 15.6015C7.32224 15.1811 7.48033 14.6801 7.48033 14.1667C7.48033 13.6532 7.32224 13.1523 7.02756 12.7318C6.73288 12.3114 6.31589 11.9918 5.83326 11.8167ZM17.4999 10.8333C17.4985 10.3176 17.3375 9.81484 17.0391 9.39412C16.7408 8.9734 16.3196 8.65527 15.8333 8.48334V2.50001C15.8333 2.27899 15.7455 2.06703 15.5892 1.91075C15.4329 1.75447 15.2209 1.66667 14.9999 1.66667C14.7789 1.66667 14.567 1.75447 14.4107 1.91075C14.2544 2.06703 14.1666 2.27899 14.1666 2.50001V8.48334C13.684 8.65851 13.267 8.97803 12.9723 9.39848C12.6776 9.81892 12.5195 10.3199 12.5195 10.8333C12.5195 11.3468 12.6776 11.8478 12.9723 12.2682C13.267 12.6886 13.684 13.0082 14.1666 13.1833V17.5C14.1666 17.721 14.2544 17.933 14.4107 18.0893C14.567 18.2455 14.7789 18.3333 14.9999 18.3333C15.2209 18.3333 15.4329 18.2455 15.5892 18.0893C15.7455 17.933 15.8333 17.721 15.8333 17.5V13.1833C16.3196 13.0114 16.7408 12.6933 17.0391 12.2726C17.3375 11.8518 17.4985 11.3491 17.4999 10.8333V10.8333ZM12.4999 4.16667C12.5012 3.70805 12.3763 3.2579 12.1389 2.86551C11.9015 2.47311 11.5607 2.15358 11.1539 1.9419C10.747 1.73021 10.2898 1.63451 9.83218 1.66529C9.37458 1.69606 8.93427 1.85212 8.55943 2.11638C8.18459 2.38065 7.88967 2.74293 7.70694 3.16358C7.52421 3.58423 7.46071 4.04705 7.5234 4.50137C7.58609 4.95569 7.77255 5.38402 8.06237 5.73947C8.35219 6.09492 8.7342 6.36379 9.16659 6.51667V17.5C9.16659 17.721 9.25439 17.933 9.41067 18.0893C9.56695 18.2455 9.77891 18.3333 9.99993 18.3333C10.2209 18.3333 10.4329 18.2455 10.5892 18.0893C10.7455 17.933 10.8333 17.721 10.8333 17.5V6.51667C11.3196 6.34474 11.7408 6.02661 12.0391 5.60589C12.3375 5.18517 12.4985 4.68246 12.4999 4.16667Z" fill="url(#paint0_linear_179_2608)"/>
<defs>
<linearGradient id="paint0_linear_179_2608" x1="2.51953" y1="9.9965" x2="17.4999" y2="9.9965" gradientUnits="userSpaceOnUse">
<stop stop-color="#70CFA3"/>
<stop offset="1" stop-color="#B6E8C3"/>
</linearGradient>
</defs>
</svg>
