<svg width="24" height="25" viewBox="0 0 24 25" fill="none" xmlns="http://www.w3.org/2000/svg">
<path d="M12 1.45996C5.90854 1.45996 0.959961 6.40854 0.959961 12.5C0.959961 18.5914 5.90854 23.54 12 23.54C15.6529 23.54 18.8959 21.7614 20.9043 19.024C20.9439 18.9734 20.9729 18.9154 20.9896 18.8533C21.0063 18.7913 21.0104 18.7265 21.0016 18.6629C20.9928 18.5993 20.9714 18.538 20.9385 18.4828C20.9056 18.4276 20.862 18.3796 20.8102 18.3416C20.7585 18.3036 20.6996 18.2763 20.6371 18.2614C20.5746 18.2466 20.5097 18.2444 20.4464 18.2551C20.383 18.2657 20.3225 18.289 20.2683 18.3235C20.2141 18.358 20.1674 18.403 20.1309 18.4559C18.2964 20.9562 15.3416 22.58 12 22.58C6.42738 22.58 1.91996 18.0725 1.91996 12.5C1.91996 6.92738 6.42738 2.41996 12 2.41996C15.3416 2.41996 18.2964 4.04367 20.1309 6.54402C20.1674 6.5969 20.2141 6.64193 20.2683 6.67642C20.3225 6.71091 20.383 6.73418 20.4464 6.74484C20.5097 6.7555 20.5746 6.75334 20.6371 6.73848C20.6996 6.72362 20.7585 6.69637 20.8102 6.65834C20.862 6.62031 20.9056 6.57227 20.9385 6.51708C20.9714 6.46188 20.9928 6.40065 21.0016 6.33702C21.0104 6.27338 21.0063 6.20862 20.9896 6.1466C20.9729 6.08457 20.9439 6.02652 20.9043 5.9759C18.8959 3.23849 15.6529 1.45996 12 1.45996ZM18.7153 8.17527C18.6198 8.1753 18.5265 8.2038 18.4473 8.25713C18.3681 8.31047 18.3066 8.38621 18.2706 8.47468C18.2347 8.56315 18.226 8.66033 18.2456 8.75379C18.2651 8.84724 18.3122 8.93274 18.3806 8.99934L21.4012 12.02H11.04C10.9764 12.0191 10.9132 12.0308 10.8542 12.0545C10.7952 12.0782 10.7414 12.1135 10.6961 12.1581C10.6508 12.2028 10.6149 12.256 10.5903 12.3147C10.5658 12.3734 10.5531 12.4363 10.5531 12.5C10.5531 12.5636 10.5658 12.6266 10.5903 12.6852C10.6149 12.7439 10.6508 12.7971 10.6961 12.8418C10.7414 12.8865 10.7952 12.9217 10.8542 12.9454C10.9132 12.9691 10.9764 12.9809 11.04 12.98H21.4012L18.3806 16.0006C18.3345 16.0448 18.2977 16.0978 18.2724 16.1564C18.2471 16.215 18.2337 16.2781 18.233 16.342C18.2324 16.4058 18.2445 16.4692 18.2686 16.5283C18.2928 16.5874 18.3284 16.6412 18.3736 16.6863C18.4188 16.7315 18.4725 16.7672 18.5316 16.7913C18.5907 16.8154 18.6541 16.8275 18.7179 16.8269C18.7818 16.8262 18.8449 16.8129 18.9035 16.7875C18.9621 16.7622 19.0151 16.7254 19.0593 16.6793L22.8571 12.8815C22.916 12.8367 22.9636 12.7788 22.9964 12.7125C23.0291 12.6462 23.0461 12.5732 23.046 12.4993C23.0459 12.4253 23.0288 12.3524 22.9958 12.2861C22.9629 12.2199 22.9151 12.1622 22.8562 12.1175L19.0593 8.32059C19.0146 8.2746 18.9611 8.23805 18.902 8.2131C18.8429 8.18814 18.7794 8.17528 18.7153 8.17527Z" fill="#E65A67"/>
</svg>
