<svg width="24" height="25" viewBox="0 0 24 25" fill="none" xmlns="http://www.w3.org/2000/svg">
<g id="bar-chart-square-plus">
<path id="Icon" d="M12 3.5H7.8C6.11984 3.5 5.27976 3.5 4.63803 3.82698C4.07354 4.1146 3.6146 4.57354 3.32698 5.13803C3 5.77976 3 6.61984 3 8.3V16.7C3 18.3802 3 19.2202 3.32698 19.862C3.6146 20.4265 4.07354 20.8854 4.63803 21.173C5.27976 21.5 6.11984 21.5 7.8 21.5H16.2C17.8802 21.5 18.7202 21.5 19.362 21.173C19.9265 20.8854 20.3854 20.4265 20.673 19.862C21 19.2202 21 18.3802 21 16.7V12.5M16 13.5V17.5M8 11.5V17.5M12 7.5V17.5M19 8.5V2.5M22 5.5H16" stroke="#3B86D4" stroke-width="1.5" stroke-linecap="round" stroke-linejoin="round"/>
</g>
</svg>
