<svg width="15" height="16" viewBox="0 0 15 16" fill="none" xmlns="http://www.w3.org/2000/svg">
<g id="paperclip" clip-path="url(#clip0_2723_131723)">
<path id="Vector" d="M13.4009 7.40608L7.65716 13.1498C6.95351 13.8535 5.99915 14.2488 5.00404 14.2488C4.00892 14.2488 3.05457 13.8535 2.35091 13.1498C1.64726 12.4462 1.25195 11.4918 1.25195 10.4967C1.25195 9.50159 1.64726 8.54723 2.35091 7.84358L8.09466 2.09983C8.56376 1.63073 9.2 1.36719 9.86341 1.36719C10.5268 1.36719 11.1631 1.63073 11.6322 2.09983C12.1013 2.56893 12.3648 3.20517 12.3648 3.86858C12.3648 4.53199 12.1013 5.16823 11.6322 5.63733L5.88216 11.3811C5.64761 11.6156 5.32949 11.7474 4.99779 11.7474C4.66608 11.7474 4.34796 11.6156 4.11341 11.3811C3.87886 11.1465 3.74709 10.8284 3.74709 10.4967C3.74709 10.165 3.87886 9.84688 4.11341 9.61233L9.41966 4.31233" stroke="#666666" stroke-width="1.5" stroke-linecap="round" stroke-linejoin="round"/>
</g>
<defs>
<clipPath id="clip0_2723_131723">
<rect width="15" height="15" fill="white" transform="translate(0 0.5)"/>
</clipPath>
</defs>
</svg>
