<svg width="24" height="25" viewBox="0 0 24 25" fill="none" xmlns="http://www.w3.org/2000/svg">
<g id="Arhive_alt_small_add_light">
<path id="Rectangle 2" d="M20.5 15H17.9415C17.2458 15 16.8979 15 16.636 15.1888C16.3742 15.3775 16.2642 15.7075 16.0442 16.3675L15.9558 16.6325C15.7358 17.2925 15.6258 17.6225 15.364 17.8112C15.1021 18 14.7542 18 14.0585 18H9.94152C9.2458 18 8.89794 18 8.63605 17.8112C8.37416 17.6225 8.26416 17.2925 8.04415 16.6325L7.95585 16.3675C7.73584 15.7075 7.62584 15.3775 7.36395 15.1888C7.10206 15 6.7542 15 6.05848 15H3.5" stroke="#3B86D4" stroke-width="1.5"/>
<g id="Group 1000007336">
<path id="Rectangle 1" d="M9.31178 9.70312H7.70977C7.26405 9.70312 7.04119 9.70312 6.83176 9.754C6.6461 9.79911 6.4688 9.87349 6.30653 9.97434C6.12349 10.0881 5.96733 10.2471 5.65501 10.5651L4.32683 11.9175C4.02215 12.2277 3.86982 12.3828 3.76093 12.563C3.66438 12.7229 3.59328 12.8967 3.55019 13.0784C3.50159 13.2833 3.50159 13.5007 3.50159 13.9355V18.0234C3.50159 19.0315 3.50159 19.5355 3.69778 19.9206C3.87035 20.2593 4.14571 20.5346 4.4844 20.7072C4.86945 20.9034 5.37349 20.9034 6.38159 20.9034H17.6216C18.6297 20.9034 19.1337 20.9034 19.5188 20.7072C19.8575 20.5346 20.1328 20.2593 20.3054 19.9206C20.5016 19.5355 20.5016 19.0315 20.5016 18.0234V13.9355C20.5016 13.5007 20.5016 13.2833 20.453 13.0784C20.4099 12.8967 20.3388 12.7229 20.2422 12.563C20.1334 12.3828 19.981 12.2277 19.6763 11.9175L18.3482 10.5651C18.0358 10.2471 17.8797 10.0881 17.6966 9.97434C17.5344 9.87349 17.3571 9.79911 17.1714 9.754C16.962 9.70312 16.7391 9.70312 16.2934 9.70312H14.5085" stroke="#3B86D4" stroke-width="1.5"/>
<path id="Ellipse 152" d="M15.2516 8.17439C15.2516 10.0223 13.7838 11.4972 12.0016 11.4972C10.2194 11.4972 8.75159 10.0223 8.75159 8.17439C8.75159 6.32643 10.2194 4.85156 12.0016 4.85156C13.7838 4.85156 15.2516 6.32643 15.2516 8.17439Z" stroke="#3B86D4" stroke-width="1.5"/>
</g>
</g>
</svg>
