<svg width="19" height="18" viewBox="0 0 19 18" fill="none" xmlns="http://www.w3.org/2000/svg">
<g clip-path="url(#clip0_478_9393)">
<path d="M2.90515 14.4994L4.00064 15.5949L3.79896 16.0806L1.13812 17.3619L2.41941 14.701L2.90515 14.4994Z" fill="white" stroke="white"/>
<path d="M4.81941 13.5473L5.27569 13.091L5.40616 13.2215L4.94988 13.6778L4.81941 13.5473Z" fill="white" stroke="white"/>
<path d="M7.75247 12.2149C7.74467 12.2181 7.73682 12.2212 7.72893 12.2241L14.0587 5.89439L14.4122 5.54084L14.0587 5.18728L13.3129 4.44151L12.9594 4.08796L12.6058 4.44151L6.27608 10.7712C6.27896 10.7633 6.28204 10.7555 6.28534 10.7477C7.51035 7.84624 9.6821 5.43525 12.4425 3.91255L17.2266 1.27353L14.5876 6.05769C13.0649 8.81809 10.6539 10.9898 7.75247 12.2149Z" fill="white" stroke="white"/>
</g>
<defs>
<clipPath id="clip0_478_9393">
<rect width="18" height="18" fill="white" transform="translate(0.5)"/>
</clipPath>
</defs>
</svg>
