<svg width="25" height="25" viewBox="0 0 25 25" fill="none" xmlns="http://www.w3.org/2000/svg">
<path d="M18.0001 10.16C17.9401 10.15 17.8701 10.15 17.8101 10.16C16.4301 10.11 15.3301 8.98 15.3301 7.58C15.3301 6.15 16.4801 5 17.9101 5C19.3401 5 20.4901 6.16 20.4901 7.58C20.4801 8.98 19.3801 10.11 18.0001 10.16Z" stroke="#474747" stroke-linecap="round" stroke-linejoin="round"/>
<path d="M16.9699 17.4399C18.3399 17.6699 19.8499 17.4299 20.9099 16.7199C22.3199 15.7799 22.3199 14.2399 20.9099 13.2999C19.8399 12.5899 18.3099 12.3499 16.9399 12.5899" stroke="#474747" stroke-linecap="round" stroke-linejoin="round"/>
<path d="M5.96998 10.16C6.02998 10.15 6.09998 10.15 6.15998 10.16C7.53998 10.11 8.63998 8.98 8.63998 7.58C8.63998 6.15 7.48998 5 6.05998 5C4.62998 5 3.47998 6.16 3.47998 7.58C3.48998 8.98 4.58998 10.11 5.96998 10.16Z" stroke="#474747" stroke-linecap="round" stroke-linejoin="round"/>
<path d="M6.99994 17.4399C5.62994 17.6699 4.11994 17.4299 3.05994 16.7199C1.64994 15.7799 1.64994 14.2399 3.05994 13.2999C4.12994 12.5899 5.65994 12.3499 7.02994 12.5899" stroke="#474747" stroke-linecap="round" stroke-linejoin="round"/>
<path d="M12.0001 15.13C11.9401 15.12 11.8701 15.12 11.8101 15.13C10.4301 15.08 9.33008 13.95 9.33008 12.55C9.33008 11.12 10.4801 9.96997 11.9101 9.96997C13.3401 9.96997 14.4901 11.13 14.4901 12.55C14.4801 13.95 13.3801 15.09 12.0001 15.13Z" stroke="#474747" stroke-linecap="round" stroke-linejoin="round"/>
<path d="M9.09021 18.2799C7.68021 19.2199 7.68021 20.7599 9.09021 21.6999C10.6902 22.7699 13.3102 22.7699 14.9102 21.6999C16.3202 20.7599 16.3202 19.2199 14.9102 18.2799C13.3202 17.2199 10.6902 17.2199 9.09021 18.2799Z" stroke="#474747" stroke-linecap="round" stroke-linejoin="round"/>
<path d="M24 2.50001H22.5M22.5 2.50001H21M22.5 2.50001L22.5 1M22.5 2.50001L22.5 4" stroke="#474747" stroke-linecap="round"/>
</svg>
