<svg width="24" height="25" viewBox="0 0 24 25" fill="none" xmlns="http://www.w3.org/2000/svg">
<path d="M6.96754 9.16C7.02754 9.15 7.09754 9.15 7.15754 9.16C8.53754 9.11 9.63754 7.98 9.63754 6.58C9.63754 5.15 8.48754 4 7.05754 4C5.62754 4 4.47754 5.16 4.47754 6.58C4.48754 7.98 5.58754 9.11 6.96754 9.16Z" stroke="#474747" stroke-linecap="round" stroke-linejoin="round"/>
<path d="M7.9975 16.4399C6.6275 16.6699 5.1175 16.4299 4.0575 15.7199C2.6475 14.7799 2.6475 13.2399 4.0575 12.2999C5.1275 11.5899 6.6575 11.3499 8.0275 11.5899" stroke="#474747" stroke-linecap="round" stroke-linejoin="round"/>
<path d="M12.9976 15.1302C12.9376 15.1202 12.8676 15.1202 12.8076 15.1302C11.4276 15.0802 10.3276 13.9502 10.3276 12.5502C10.3276 11.1202 11.4776 9.97021 12.9076 9.97021C14.3376 9.97021 15.4876 11.1302 15.4876 12.5502C15.4776 13.9502 14.3776 15.0902 12.9976 15.1302Z" stroke="#474747" stroke-linecap="round" stroke-linejoin="round"/>
<path d="M10.0878 18.2801C8.67777 19.2201 8.67777 20.7601 10.0878 21.7001C11.6878 22.7701 14.3078 22.7701 15.9078 21.7001C17.3178 20.7601 17.3178 19.2201 15.9078 18.2801C14.3178 17.2201 11.6878 17.2201 10.0878 18.2801Z" stroke="#474747" stroke-linecap="round" stroke-linejoin="round"/>
<path d="M21 5.00002H19M19 5.00002H17M19 5.00002L19 3M19 5.00002L19 7" stroke="#474747" stroke-linecap="round"/>
</svg>
