<svg width="20" height="20" viewBox="0 0 20 20" fill="none" xmlns="http://www.w3.org/2000/svg">
<g clip-path="url(#clip0_736_18950)">
<path d="M2.5 2.5L17.5 17.5" stroke="#474747" stroke-width="1.5" stroke-linecap="round" stroke-linejoin="round"/>
<path d="M7.79266 4.45833C7.96683 4.3525 8.14683 4.255 8.3335 4.16667C8.3335 3.72464 8.50909 3.30072 8.82165 2.98816C9.13421 2.67559 9.55814 2.5 10.0002 2.5C10.4422 2.5 10.8661 2.67559 11.1787 2.98816C11.4912 3.30072 11.6668 3.72464 11.6668 4.16667C12.6238 4.61919 13.4397 5.32361 14.0269 6.20442C14.6141 7.08523 14.9505 8.10923 15.0002 9.16667V11.6667M14.1668 14.1667H3.3335C3.78761 13.9095 4.175 13.5493 4.46449 13.1151C4.75397 12.6809 4.93745 12.1848 5.00016 11.6667V9.16667C5.05245 8.05385 5.42231 6.97927 6.066 6.07L14.1668 14.1667Z" stroke="#474747" stroke-width="1.5" stroke-linecap="round" stroke-linejoin="round"/>
<path d="M7.5 14.1665V14.9998C7.5 15.6629 7.76339 16.2988 8.23223 16.7676C8.70107 17.2364 9.33696 17.4998 10 17.4998C10.663 17.4998 11.2989 17.2364 11.7678 16.7676C12.2366 16.2988 12.5 15.6629 12.5 14.9998V14.1665" stroke="#474747" stroke-width="1.5" stroke-linecap="round" stroke-linejoin="round"/>
</g>
<defs>
<clipPath id="clip0_736_18950">
<rect width="20" height="20" fill="white"/>
</clipPath>
</defs>
</svg>
