<svg width="24" height="24" viewBox="0 0 24 24" fill="none" xmlns="http://www.w3.org/2000/svg">
<defs>
<clipPath id="clip0_2288_23083">
<rect width="14.1818" height="14.1818" fill="white" transform="translate(4.90918 4.90918)"/>
</clipPath>
</defs>
<circle cx="12" cy="12" r="11.5" fill="#C4C4C4" stroke="white"/>
<g clip-path="url(#clip0_2288_23083)">
<path d="M18.2046 15.5458C18.2046 15.7808 18.1112 16.0063 17.945 16.1725C17.7788 16.3387 17.5533 16.4321 17.3183 16.4321H6.68191C6.44683 16.4321 6.22138 16.3387 6.05515 16.1725C5.88893 16.0063 5.79554 15.7808 5.79554 15.5458V10.2276C5.79554 9.99251 5.88893 9.76706 6.05515 9.60083C6.22138 9.4346 6.44683 9.34122 6.68191 9.34122H7.72073C8.4256 9.34083 9.10147 9.0606 9.59982 8.56211L10.3355 7.8282C10.5013 7.66239 10.7259 7.56901 10.9604 7.56849H13.038C13.2731 7.56854 13.4985 7.66196 13.6647 7.8282L14.3986 8.56211C14.6456 8.80915 14.9388 9.00511 15.2615 9.13879C15.5842 9.27248 15.9301 9.34126 16.2795 9.34122H17.3183C17.5533 9.34122 17.7788 9.4346 17.945 9.60083C18.1112 9.76706 18.2046 9.99251 18.2046 10.2276V15.5458ZM6.68191 8.45486C6.21175 8.45486 5.76085 8.64163 5.4284 8.97408C5.09595 9.30653 4.90918 9.75743 4.90918 10.2276V15.5458C4.90918 16.0159 5.09595 16.4668 5.4284 16.7993C5.76085 17.1317 6.21175 17.3185 6.68191 17.3185H17.3183C17.7884 17.3185 18.2393 17.1317 18.5718 16.7993C18.9042 16.4668 19.091 16.0159 19.091 15.5458V10.2276C19.091 9.75743 18.9042 9.30653 18.5718 8.97408C18.2393 8.64163 17.7884 8.45486 17.3183 8.45486H16.2795C15.8093 8.45476 15.3585 8.26792 15.0261 7.93545L14.2922 7.20154C13.9599 6.86906 13.509 6.68223 13.0389 6.68213H10.9613C10.4912 6.68223 10.0403 6.86906 9.70795 7.20154L8.97404 7.93545C8.64167 8.26792 8.19084 8.45476 7.72073 8.45486H6.68191Z" fill="white"/>
<path d="M12.0003 14.6595C11.4126 14.6595 10.849 14.426 10.4334 14.0105C10.0179 13.5949 9.7844 13.0313 9.7844 12.4436C9.7844 11.8559 10.0179 11.2923 10.4334 10.8767C10.849 10.4611 11.4126 10.2277 12.0003 10.2277C12.588 10.2277 13.1516 10.4611 13.5672 10.8767C13.9828 11.2923 14.2162 11.8559 14.2162 12.4436C14.2162 13.0313 13.9828 13.5949 13.5672 14.0105C13.1516 14.426 12.588 14.6595 12.0003 14.6595ZM12.0003 15.5459C12.8231 15.5459 13.6122 15.219 14.1939 14.6372C14.7757 14.0554 15.1026 13.2664 15.1026 12.4436C15.1026 11.6208 14.7757 10.8317 14.1939 10.2499C13.6122 9.66815 12.8231 9.34131 12.0003 9.34131C11.1775 9.34131 10.3885 9.66815 9.80667 10.2499C9.22488 10.8317 8.89804 11.6208 8.89804 12.4436C8.89804 13.2664 9.22488 14.0554 9.80667 14.6372C10.3885 15.219 11.1775 15.5459 12.0003 15.5459ZM7.56849 10.6709C7.56849 10.7884 7.5218 10.9011 7.43869 10.9842C7.35557 11.0673 7.24285 11.114 7.12531 11.114C7.00777 11.114 6.89505 11.0673 6.81193 10.9842C6.72882 10.9011 6.68213 10.7884 6.68213 10.6709C6.68213 10.5533 6.72882 10.4406 6.81193 10.3575C6.89505 10.2744 7.00777 10.2277 7.12531 10.2277C7.24285 10.2277 7.35557 10.2744 7.43869 10.3575C7.5218 10.4406 7.56849 10.5533 7.56849 10.6709Z" fill="white"/>
</g>
</svg>
