<svg width="20" height="20" viewBox="0 0 20 20" fill="none" xmlns="http://www.w3.org/2000/svg">
<path d="M1.92545 18.0716L1.92851 18.0747C2.00969 18.1564 2.10622 18.2214 2.21258 18.2657C2.31893 18.31 2.43299 18.3329 2.54821 18.333C2.64517 18.3329 2.74145 18.3169 2.83323 18.2857L7.82992 16.5907L17.4183 7.00234C18.0044 6.41613 18.3337 5.62108 18.3337 4.79208C18.3336 3.96309 18.0043 3.16807 17.4181 2.58191C16.8318 1.99575 16.0368 1.66647 15.2078 1.6665C14.3788 1.66654 13.5838 1.99589 12.9976 2.5821L3.4093 12.1704L1.71443 17.167C1.66105 17.3224 1.65252 17.4896 1.68985 17.6496C1.72717 17.8096 1.80882 17.9559 1.92545 18.0716ZM13.7939 3.37827C14.1694 3.00562 14.6773 2.79695 15.2063 2.79797C15.7353 2.79899 16.2424 3.0096 16.6165 3.38369C16.9906 3.75778 17.2012 4.26486 17.2022 4.7939C17.2032 5.32293 16.9945 5.83081 16.6218 6.20631L15.361 7.46719L12.5329 4.63914L13.7939 3.37827ZM4.39136 12.7807L11.7368 5.43531L14.5648 8.26335L7.21937 15.6088L2.93949 17.0606L4.39136 12.7807Z" fill="white"/>
</svg>
