<svg width="28" height="28" viewBox="0 0 28 28" fill="none" xmlns="http://www.w3.org/2000/svg">
    <defs>
        <linearGradient id="paint0_linear_3915_188839" x1="0" y1="0" x2="32.265" y2="18.4462" gradientUnits="userSpaceOnUse">
            <stop stop-color="#9DA8FF"/>
            <stop offset="1" stop-color="#27E0D5"/>
        </linearGradient>
    </defs>
<path fill-rule="evenodd" clip-rule="evenodd" d="M6.30274 9.27498C6.30274 8.74998 6.30275 8.40002 6.47773 8.22502C6.47773 8.05002 6.6527 7.69998 6.82768 7.52498C7.00266 7.34998 7.17765 7.175 7.52761 7C7.87756 6.825 8.40248 6.65002 8.92741 6.47502C9.10239 6.47502 9.10241 6.47502 9.27739 6.47502C9.45236 6.47502 9.8023 6.65 9.8023 7C10.5022 7.875 11.0271 8.75001 11.5521 9.80001C11.7271 10.15 11.7271 10.5 11.5521 10.675C11.3771 10.85 11.2021 11.025 11.0272 11.2C10.8522 11.2 10.6772 11.375 10.5022 11.55C10.1523 11.9 9.9773 12.425 10.1523 12.95C10.3273 13.475 10.5022 14 10.8522 14.35C11.7271 15.75 12.9519 16.975 14.5267 17.675C14.7017 17.675 14.8767 17.85 15.2266 17.85C15.7516 18.025 16.1015 17.85 16.2765 17.5C16.4515 17.325 16.6264 17.15 16.8014 16.8C16.8014 16.625 16.9764 16.45 17.1514 16.275C17.5013 15.925 18.0263 15.925 18.3762 16.1C19.2511 16.625 20.126 17.15 20.8259 17.85C20.8259 18.025 21.0009 18.025 21.1759 18.025C21.3508 18.2 21.5258 18.375 21.7008 18.725C21.7008 19.075 21.7008 19.075 21.7008 19.075C21.5258 19.775 21.1759 20.475 20.6509 21C20.476 21.175 20.301 21.525 19.951 21.525C19.4261 21.7 18.9012 21.7 18.3762 21.7C16.6264 21.7 14.8767 21.175 13.3019 20.3C11.2021 19.075 9.45234 17.5 8.05252 15.4C7.17763 14 6.47772 12.6 6.30274 11.025C6.30274 10.85 6.30274 10.5 6.30274 10.15C6.30274 9.79998 6.30274 9.62498 6.30274 9.27498ZM14.0018 28C21.7008 28 28 21.7 28 14C28 6.3 21.7008 0 14.0018 0C6.30276 0 0.00355903 6.3 0.00355903 14C-0.171419 21.7 6.12778 28 14.0018 28Z" fill="url(#paint0_linear_3915_188839)"/>
</svg>
