<svg width="24" height="25" viewBox="0 0 24 25" fill="none" xmlns="http://www.w3.org/2000/svg">
<g clip-path="url(#clip0_656_10611)">
<path d="M17.2501 0.499958C17.1582 0.501833 17.0701 0.520583 16.9801 0.544958C16.6238 0.644333 16.3032 0.880583 16.0501 1.20496C16.0444 1.21058 16.0407 1.21433 16.0351 1.21996L12.0301 6.82996C9.56818 6.25996 6.8813 6.90871 4.96505 8.82496C4.77943 9.01246 4.77943 9.31246 4.96505 9.49996L8.53505 13.055L0.105053 23.72C-0.0486977 23.9112 -0.0336975 24.1868 0.138803 24.3612C0.313178 24.5337 0.588803 24.5487 0.780052 24.395L11.4301 15.965L15.0001 19.52C15.1876 19.7056 15.4876 19.7056 15.6751 19.52C17.6194 17.5775 18.2551 14.84 17.6401 12.35L23.2651 8.52496C23.2707 8.51933 23.2744 8.51558 23.2801 8.50996C23.6082 8.26621 23.8351 7.96433 23.9401 7.60996C24.0451 7.25558 23.9926 6.80746 23.7001 6.51496L18.0601 0.799958C17.9157 0.651833 17.7244 0.569333 17.5351 0.529958C17.4394 0.509333 17.3419 0.498083 17.2501 0.499958ZM17.3401 1.45996C17.3569 1.46183 17.3588 1.46371 17.3701 1.47496L23.0251 7.18996C23.0457 7.21058 23.0569 7.21621 23.0251 7.32496C22.9932 7.42996 22.8826 7.59496 22.7101 7.72996L22.6951 7.74496L16.8601 11.72C16.8544 11.7256 16.8507 11.7293 16.8451 11.735L16.8151 11.75C16.6557 11.8737 16.5901 12.0818 16.6501 12.275C17.2782 14.3806 16.7982 16.7018 15.2851 18.455L6.03005 9.21496C7.76068 7.72246 10.0519 7.22933 12.1351 7.81996C12.3338 7.87433 12.5457 7.79558 12.6601 7.62496L16.8001 1.78996L16.8151 1.77496C16.9538 1.60433 17.1282 1.50496 17.2351 1.47496C17.2913 1.45996 17.3232 1.45808 17.3401 1.45996ZM9.21005 13.745L10.7551 15.275L3.42005 21.08L9.21005 13.745Z" fill="#474747"/>
</g>
<defs>
<clipPath id="clip0_656_10611">
<rect width="24" height="24" fill="white" transform="translate(0 0.5)"/>
</clipPath>
</defs>
</svg>
