<svg width="18" height="18" viewBox="0 0 18 18" fill="none" xmlns="http://www.w3.org/2000/svg">
<g clip-path="url(#clip0_11_44072)">
<rect x="9.01562" y="0.515625" width="12" height="12" rx="6" transform="rotate(45 9.01562 0.515625)" fill="url(#paint0_linear_11_44072)"/>
<path d="M12.5912 5.0834L13.2167 5.70893C13.2723 5.76453 13.2723 5.82014 13.2167 5.87574L5.87721 13.2153C5.82161 13.2709 5.76601 13.2709 5.71041 13.2153L5.08488 12.5897C5.02928 12.5341 5.02928 12.4785 5.08488 12.4229L12.4244 5.0834C12.48 5.0278 12.5356 5.0278 12.5912 5.0834Z" fill="white"/>
<path d="M6.04434 5.25137L13.0503 12.2573C13.1059 12.3129 13.1059 12.3685 13.0503 12.4241L12.4247 13.0496C12.3691 13.1052 12.3135 13.1052 12.2579 13.0496L5.25201 6.04371C5.1964 5.98811 5.1964 5.9325 5.25201 5.8769L5.87753 5.25137C5.93314 5.19577 5.98874 5.19577 6.04434 5.25137Z" fill="white"/>
</g>
<defs>
<linearGradient id="paint0_linear_11_44072" x1="9.01562" y1="7.27377" x2="21.0157" y2="7.26454" gradientUnits="userSpaceOnUse">
<stop stop-color="#0086DA"/>
<stop offset="1" stop-color="#00A9E9"/>
<stop offset="1" stop-color="#00A9E9"/>
</linearGradient>
<clipPath id="clip0_11_44072">
<rect x="9.01562" y="0.515625" width="12" height="12" rx="6" transform="rotate(45 9.01562 0.515625)" fill="white"/>
</clipPath>
</defs>
</svg>
