<svg width="46" height="46" viewBox="0 0 46 46" fill="none" xmlns="http://www.w3.org/2000/svg">
<rect width="46" height="46" rx="23" fill="url(#paint0_linear_794_12734)"/>
<path d="M32.1667 12H13.8333C12.8212 12.0013 12.0013 12.8212 12 13.8333V32.1667C12.0013 33.1788 12.8212 33.9987 13.8333 34H32.1667C33.1788 33.9987 33.9987 33.1788 34 32.1667V13.8333C33.9987 12.8212 33.1788 12.0013 32.1667 12ZM33.2667 32.1667C33.2667 32.7741 32.7741 33.2667 32.1667 33.2667H13.8333C13.2259 33.2667 12.7333 32.7741 12.7333 32.1667V13.8333C12.7333 13.2259 13.2259 12.7333 13.8333 12.7333H32.1667C32.7741 12.7333 33.2667 13.2259 33.2667 13.8333V32.1667Z" fill="white" stroke="white" stroke-width="0.5"/>
<path d="M18.2335 20.0664H14.5669C14.3644 20.0664 14.2002 20.2306 14.2002 20.4331V31.4331C14.2002 31.6356 14.3644 31.7997 14.5669 31.7997H18.2335C18.436 31.7997 18.6002 31.6356 18.6002 31.4331V20.4331C18.6002 20.2306 18.436 20.0664 18.2335 20.0664ZM17.8669 31.0664H14.9335V20.7997H17.8669V31.0664Z" fill="white" stroke="white" stroke-width="0.5"/>
<path d="M24.8331 14.1992H21.1665C20.964 14.1992 20.7998 14.3634 20.7998 14.5659V31.4326C20.7998 31.635 20.964 31.7992 21.1665 31.7992H24.8331C25.0356 31.7992 25.1998 31.635 25.1998 31.4326V14.5659C25.1998 14.3634 25.0356 14.1992 24.8331 14.1992ZM24.4665 31.0659H21.5331V14.9326H24.4665V31.0659Z" fill="white" stroke="white" stroke-width="0.5"/>
<path d="M31.4332 23.7324H27.7666C27.5641 23.7324 27.3999 23.8966 27.3999 24.0991V31.4324C27.3999 31.6349 27.5641 31.7991 27.7666 31.7991H31.4332C31.6357 31.7991 31.7999 31.6349 31.7999 31.4324V24.0991C31.7999 23.8966 31.6357 23.7324 31.4332 23.7324ZM31.0666 31.0658H28.1332V24.4658H31.0666V31.0658Z" fill="white" stroke="white" stroke-width="0.5"/>
<defs>
<linearGradient id="paint0_linear_794_12734" x1="0" y1="23" x2="43.24" y2="23" gradientUnits="userSpaceOnUse">
<stop stop-color="#3BA59B"/>
<stop offset="1" stop-color="#6CD495"/>
</linearGradient>
</defs>
</svg>
