<svg width="32" height="32" viewBox="0 0 32 32" fill="none" xmlns="http://www.w3.org/2000/svg">
    <defs>
        <linearGradient id="paint0_linear_3871_33658" x1="9.625" y1="18.1302" x2="14.8975" y2="18.1282" gradientUnits="userSpaceOnUse">
            <stop stop-color="#0086DA"/>
            <stop offset="1" stop-color="#00A9E9"/>
            <stop offset="1" stop-color="#00A9E9"/>
        </linearGradient>
        <linearGradient id="paint1_linear_3871_33658" x1="9.625" y1="12.4282" x2="22.375" y2="12.4103" gradientUnits="userSpaceOnUse">
            <stop stop-color="#0086DA"/>
            <stop offset="1" stop-color="#00A9E9"/>
            <stop offset="1" stop-color="#00A9E9"/>
        </linearGradient>
        <linearGradient id="paint2_linear_3871_33658" x1="13" y1="12.8132" x2="16.375" y2="12.8044" gradientUnits="userSpaceOnUse">
            <stop stop-color="#0086DA"/>
            <stop offset="1" stop-color="#00A9E9"/>
            <stop offset="1" stop-color="#00A9E9"/>
        </linearGradient>
        <linearGradient id="paint3_linear_3871_33658" x1="18.25" y1="12.8132" x2="19.75" y2="12.8114" gradientUnits="userSpaceOnUse">
            <stop stop-color="#0086DA"/>
            <stop offset="1" stop-color="#00A9E9"/>
            <stop offset="1" stop-color="#00A9E9"/>
        </linearGradient>
        <linearGradient id="paint4_linear_3871_33658" x1="13.75" y1="15.8132" x2="18.25" y2="15.7976" gradientUnits="userSpaceOnUse">
            <stop stop-color="#0086DA"/>
            <stop offset="1" stop-color="#00A9E9"/>
            <stop offset="1" stop-color="#00A9E9"/>
        </linearGradient>
        <linearGradient id="paint5_linear_3871_33658" x1="17.6279" y1="20.529" x2="22.7434" y2="20.5251" gradientUnits="userSpaceOnUse">
            <stop stop-color="#0086DA"/>
            <stop offset="1" stop-color="#00A9E9"/>
            <stop offset="1" stop-color="#00A9E9"/>
        </linearGradient>
        <linearGradient id="paint6_linear_3871_33658" x1="20.2749" y1="19.3977" x2="21.9399" y2="19.3964" gradientUnits="userSpaceOnUse">
            <stop stop-color="#0086DA"/>
            <stop offset="1" stop-color="#00A9E9"/>
            <stop offset="1" stop-color="#00A9E9"/>
        </linearGradient>
    </defs>
<rect width="32" height="32" rx="6" fill="#DDF4FF"/>
<path d="M9.625 12V20.725C9.625 22.72 10.72 23.1925 12.0475 21.7675L12.055 21.76C12.67 21.1075 13.6075 21.16 14.14 21.8725L14.8975 22.885" stroke="url(#paint0_linear_3871_33658)" stroke-width="1.2" stroke-linecap="round" stroke-linejoin="round"/>
<path d="M22.375 15.475V12.28C22.375 9.25751 21.67 8.5 18.835 8.5H13.165C10.33 8.5 9.625 9.25751 9.625 12.28" stroke="url(#paint1_linear_3871_33658)" stroke-width="1.2" stroke-linecap="round" stroke-linejoin="round"/>
<path d="M13 12.25H16.375" stroke="url(#paint2_linear_3871_33658)" stroke-width="1.2" stroke-linecap="round" stroke-linejoin="round"/>
<path d="M18.25 12.25H19.75" stroke="url(#paint3_linear_3871_33658)" stroke-width="1.2" stroke-linecap="round" stroke-linejoin="round"/>
<path d="M13.75 15.25H18.25" stroke="url(#paint4_linear_3871_33658)" stroke-width="1.2" stroke-linecap="round" stroke-linejoin="round"/>
<path d="M20.6573 18.0772L18.0023 20.7322C17.8973 20.8372 17.7998 21.0322 17.7773 21.1747L17.6348 22.1872C17.5823 22.5547 17.8373 22.8097 18.2048 22.7572L19.2173 22.6147C19.3598 22.5922 19.5623 22.4947 19.6598 22.3897L22.3148 19.7347C22.7723 19.2772 22.9898 18.7447 22.3148 18.0697C21.6473 17.4022 21.1148 17.6197 20.6573 18.0772Z" stroke="url(#paint5_linear_3871_33658)" stroke-width="1.2" stroke-miterlimit="10" stroke-linecap="round" stroke-linejoin="round"/>
<path d="M20.2749 18.46C20.4999 19.27 21.1299 19.9 21.9399 20.125" stroke="url(#paint6_linear_3871_33658)" stroke-width="1.2" stroke-miterlimit="10" stroke-linecap="round" stroke-linejoin="round"/>
</svg>
