<svg width="24" height="24" viewBox="0 0 24 24" fill="none" xmlns="http://www.w3.org/2000/svg">
<g id="vuesax/linear/profile-2user">
<g id="vuesax/linear/profile-2user_2">
<g id="profile-2user">
<path id="Vector" d="M9.63411 11.0577C9.55078 11.0493 9.45078 11.0493 9.35911 11.0577C7.37578 10.991 5.80078 9.36602 5.80078 7.36602C5.80078 5.32435 7.45078 3.66602 9.50078 3.66602C11.5424 3.66602 13.2008 5.32435 13.2008 7.36602C13.1924 9.36602 11.6174 10.991 9.63411 11.0577Z" stroke="#292D32" stroke-width="1.3" stroke-linecap="round" stroke-linejoin="round"/>
<path id="Vector_2" d="M15.6747 5.33398C17.2914 5.33398 18.5914 6.64232 18.5914 8.25065C18.5914 9.82565 17.3414 11.109 15.7831 11.1673C15.7164 11.159 15.6414 11.159 15.5664 11.1673" stroke="#292D32" stroke-width="1.3" stroke-linecap="round" stroke-linejoin="round"/>
<path id="Vector_3" d="M5.46563 14.134C3.44896 15.484 3.44896 17.684 5.46563 19.0257C7.75729 20.559 11.5156 20.559 13.8073 19.0257C15.824 17.6757 15.824 15.4757 13.8073 14.134C11.524 12.609 7.76562 12.609 5.46563 14.134Z" stroke="#292D32" stroke-width="1.3" stroke-linecap="round" stroke-linejoin="round"/>
<path id="Vector_4" d="M17.2812 18.666C17.8813 18.541 18.4479 18.2993 18.9146 17.941C20.2146 16.966 20.2146 15.3577 18.9146 14.3827C18.4562 14.0327 17.8979 13.7993 17.3063 13.666" stroke="#292D32" stroke-width="1.3" stroke-linecap="round" stroke-linejoin="round"/>
</g>
</g>
</g>
</svg>
