<svg width="49" height="48" viewBox="0 0 49 48" fill="none" xmlns="http://www.w3.org/2000/svg">
    <defs>
        <linearGradient id="paint0_linear_2723_107121" x1="33" y1="6.5" x2="7" y2="39.5" gradientUnits="userSpaceOnUse">
            <stop stop-color="#61C4FE"/>
            <stop offset="1" stop-color="#AEDAF3"/>
        </linearGradient>
        <clipPath id="clip0_2723_107121">
            <rect width="48" height="48" fill="white" transform="translate(0.625)"/>
        </clipPath>
    </defs>
<g clip-path="url(#clip0_2723_107121)">
<circle cx="24.625" cy="24" r="24" fill="url(#paint0_linear_2723_107121)"/>
<path d="M33 21.5V18.8C33 17.1198 33 16.2798 32.673 15.638C32.3854 15.0735 31.9265 14.6146 31.362 14.327C30.7202 14 29.8802 14 28.2 14H21.8C20.1198 14 19.2798 14 18.638 14.327C18.0735 14.6146 17.6146 15.0735 17.327 15.638C17 16.2798 17 17.1198 17 18.8V29.2C17 30.8802 17 31.7202 17.327 32.362C17.6146 32.9265 18.0735 33.3854 18.638 33.673C19.2798 34 20.1198 34 21.8 34H27M27 23H21M23 27H21M29 19H21M29.5 27.0022C29.6762 26.5014 30.024 26.079 30.4817 25.81C30.9395 25.5409 31.4777 25.4426 32.001 25.5324C32.5243 25.6221 32.999 25.8942 33.3409 26.3004C33.6829 26.7066 33.87 27.2207 33.8692 27.7517C33.8692 29.2506 31.6209 30 31.6209 30M31.6499 33H31.6599" stroke="white" stroke-width="2" stroke-linecap="round" stroke-linejoin="round"/>
</g>
</svg>
