<svg width="22" height="21" viewBox="0 0 22 21" fill="none" xmlns="http://www.w3.org/2000/svg">
<path d="M4.29518 6.12121C4.29518 5.36977 4.5884 4.6491 5.11034 4.11774C5.63228 3.58639 6.34018 3.28788 7.07831 3.28788C7.81645 3.28788 8.52435 3.58639 9.04628 4.11774C9.56822 4.6491 9.86145 5.36977 9.86145 6.12121C9.86145 6.87266 9.56822 7.59333 9.04628 8.12468C8.52435 8.65603 7.81645 8.95455 7.07831 8.95455C6.34018 8.95455 5.63228 8.65603 5.11034 8.12468C4.5884 7.59333 4.29518 6.87266 4.29518 6.12121ZM7.07831 2C6.00467 2 4.97499 2.4342 4.21581 3.20707C3.45662 3.97995 3.03012 5.0282 3.03012 6.12121C3.03012 7.21423 3.45662 8.26247 4.21581 9.03535C4.97499 9.80823 6.00467 10.2424 7.07831 10.2424C8.15196 10.2424 9.18163 9.80823 9.94082 9.03535C10.7 8.26247 11.1265 7.21423 11.1265 6.12121C11.1265 5.0282 10.7 3.97995 9.94082 3.20707C9.18163 2.4342 8.15196 2 7.07831 2ZM14.4157 7.15152C14.4157 6.67332 14.6023 6.21471 14.9344 5.87658C15.2665 5.53845 15.717 5.34848 16.1867 5.34848C16.6565 5.34848 17.1069 5.53845 17.4391 5.87658C17.7712 6.21471 17.9578 6.67332 17.9578 7.15152C17.9578 7.62971 17.7712 8.08832 17.4391 8.42645C17.1069 8.76458 16.6565 8.95455 16.1867 8.95455C15.717 8.95455 15.2665 8.76458 14.9344 8.42645C14.6023 8.08832 14.4157 7.62971 14.4157 7.15152ZM16.1867 4.06061C15.3815 4.06061 14.6093 4.38625 14.0399 4.96591C13.4705 5.54557 13.1506 6.33175 13.1506 7.15152C13.1506 7.97128 13.4705 8.75746 14.0399 9.33712C14.6093 9.91678 15.3815 10.2424 16.1867 10.2424C16.992 10.2424 17.7642 9.91678 18.3336 9.33712C18.903 8.75746 19.2229 7.97128 19.2229 7.15152C19.2229 6.33175 18.903 5.54557 18.3336 4.96591C17.7642 4.38625 16.992 4.06061 16.1867 4.06061ZM16.1867 17.9697C15.0856 17.9697 14.2021 17.7884 13.4967 17.4947L13.5908 17.3711C13.8408 17.0357 14.0326 16.6998 14.1793 16.3815C14.6955 16.5644 15.3513 16.6818 16.1862 16.6818C18.35 16.6818 19.3099 15.8921 19.7603 15.2234C20.0168 14.8392 20.1774 14.3972 20.2284 13.9355C20.2313 13.9054 20.2333 13.8752 20.2344 13.8449V13.7197C20.2344 13.3642 19.9511 13.0758 19.6019 13.0758H14.5993C14.4954 12.5996 14.2772 12.1572 13.9643 11.7879H19.6024C20.1057 11.7879 20.5883 11.9914 20.9442 12.3537C21.3001 12.716 21.5 13.2073 21.5 13.7197V13.8727L21.4985 13.917C21.4965 13.9531 21.4934 14.0015 21.4884 14.0607C21.4166 14.7386 21.1818 15.3879 20.8047 15.9513C20.0836 17.0208 18.7032 17.9697 16.1857 17.9697M2.39759 11.7879C1.89432 11.7879 1.41166 11.9914 1.05579 12.3537C0.699924 12.716 0.5 13.2073 0.5 13.7197V14.3909L0.502024 14.4409C0.504048 14.4821 0.508096 14.5367 0.515181 14.6047C0.529855 14.7397 0.557687 14.9252 0.612337 15.1456C0.757358 15.7264 1.01547 16.2715 1.37137 16.7488C2.26046 17.9419 3.95412 19 7.07831 19C10.203 19 11.8967 17.9419 12.7847 16.7488C13.1409 16.2714 13.3992 15.7261 13.5443 15.1451C13.5989 14.9251 13.6268 14.7397 13.6414 14.6042C13.6491 14.5333 13.6542 14.4622 13.6566 14.3909V13.7197C13.6566 13.466 13.6075 13.2148 13.5122 12.9804C13.4168 12.746 13.277 12.5331 13.1008 12.3537C12.9246 12.1743 12.7154 12.032 12.4852 11.9349C12.255 11.8378 12.0082 11.7879 11.759 11.7879H2.39759ZM1.76557 14.376L1.76506 14.3595V13.7197C1.76506 13.3642 2.04843 13.0758 2.39759 13.0758H11.759C12.1082 13.0758 12.3916 13.3642 12.3916 13.7197V14.3595L12.3911 14.376C12.3796 14.529 12.3552 14.6806 12.3182 14.8293C12.2146 15.2429 12.0305 15.6311 11.7767 15.9709C11.1786 16.7745 9.8994 17.7121 7.07831 17.7121C4.25723 17.7121 2.978 16.7745 2.37988 15.9709C2.12618 15.6313 1.94206 15.2433 1.83843 14.8298C1.80141 14.681 1.77703 14.5291 1.76557 14.376Z" fill="#474747"/>
</svg>
