<svg width="23" height="19" viewBox="0 0 23 19" fill="none" xmlns="http://www.w3.org/2000/svg">
<path d="M21.9584 19C21.7153 19 21.4822 18.9028 21.3103 18.7297C21.1384 18.5566 21.0418 18.3218 21.0418 18.077C21.0404 16.6087 20.4605 15.201 19.4294 14.1628C18.3983 13.1246 17.0003 12.5406 15.5421 12.5392H10.1983V14.003C10.1982 14.368 10.0906 14.7249 9.8892 15.0284C9.68776 15.3318 9.40147 15.5684 9.06654 15.7081C8.73161 15.8478 8.36307 15.8843 8.00751 15.8131C7.65195 15.7419 7.32534 15.5662 7.06896 15.3081L1.68018 9.88192C1.16466 9.36267 0.875061 8.6585 0.875061 7.92428C0.875061 7.19006 1.16466 6.4859 1.68018 5.96665L7.06896 0.540471C7.32534 0.282389 7.65195 0.106643 8.00751 0.0354488C8.36307 -0.0357451 8.73161 0.000810118 9.06654 0.140493C9.40147 0.280177 9.68776 0.516716 9.8892 0.820209C10.0906 1.1237 10.1982 1.48052 10.1983 1.84556V3.3094H14.6255C16.8127 3.31184 18.9096 4.18781 20.4562 5.7451C22.0027 7.3024 22.8726 9.41384 22.8751 11.6162V18.077C22.8751 18.3218 22.7785 18.5566 22.6066 18.7297C22.4347 18.9028 22.2015 19 21.9584 19ZM8.36505 1.84556L2.97627 7.27174C2.80443 7.44482 2.7079 7.67954 2.7079 7.92428C2.7079 8.16902 2.80443 8.40374 2.97627 8.57683L8.36505 14.003V11.6162C8.36505 11.3714 8.46162 11.1366 8.63352 10.9635C8.80542 10.7905 9.03856 10.6932 9.28166 10.6932H15.5421C16.583 10.6929 17.612 10.9162 18.5604 11.3481C19.5088 11.7801 20.3548 12.4108 21.0418 13.1982V11.6162C21.0399 9.90327 20.3633 8.26107 19.1604 7.04985C17.9575 5.83863 16.3266 5.15731 14.6255 5.15535H9.28166C9.03856 5.15535 8.80542 5.05811 8.63352 4.88502C8.46162 4.71193 8.36505 4.47717 8.36505 4.23238V1.84556Z" fill="#852EDB"/>
</svg>
