<svg width="30" height="30" viewBox="0 0 30 30" fill="none" xmlns="http://www.w3.org/2000/svg">
<path d="M18.9125 23.825H8.91248C8.39998 23.825 7.97498 23.4 7.97498 22.8875C7.97498 22.375 8.39998 21.95 8.91248 21.95H18.9125C21.8375 21.95 24.225 19.5625 24.225 16.6375C24.225 13.7125 21.8375 11.325 18.9125 11.325H5.16248C4.64998 11.325 4.22498 10.9 4.22498 10.3875C4.22498 9.875 4.64998 9.45 5.16248 9.45H18.9125C22.875 9.45 26.1 12.675 26.1 16.6375C26.1 20.6 22.875 23.825 18.9125 23.825Z" fill="white"/>
<path d="M8.03745 14.45C7.79995 14.45 7.56245 14.3625 7.37495 14.175L4.17495 10.975C3.81245 10.6125 3.81245 10.0125 4.17495 9.65001L7.37495 6.45001C7.73745 6.08751 8.33745 6.08751 8.69995 6.45001C9.06245 6.81251 9.06245 7.41251 8.69995 7.77501L6.16245 10.3125L8.69995 12.85C9.06245 13.2125 9.06245 13.8125 8.69995 14.175C8.52495 14.3625 8.27495 14.45 8.03745 14.45Z" fill="white"/>
</svg>
