<svg width="25" height="25" viewBox="0 0 25 25" fill="none" xmlns="http://www.w3.org/2000/svg">
<path d="M12.5 1.45996C6.40854 1.45996 1.45996 6.40854 1.45996 12.5C1.45996 18.5914 6.40854 23.54 12.5 23.54C16.1529 23.54 19.3959 21.7614 21.4043 19.024C21.4439 18.9734 21.4729 18.9154 21.4896 18.8533C21.5063 18.7913 21.5104 18.7265 21.5016 18.6629C21.4928 18.5993 21.4714 18.538 21.4385 18.4828C21.4056 18.4276 21.362 18.3796 21.3102 18.3416C21.2585 18.3036 21.1996 18.2763 21.1371 18.2614C21.0746 18.2466 21.0097 18.2444 20.9464 18.2551C20.883 18.2657 20.8225 18.289 20.7683 18.3235C20.7141 18.358 20.6674 18.403 20.6309 18.4559C18.7964 20.9562 15.8416 22.58 12.5 22.58C6.92738 22.58 2.41996 18.0725 2.41996 12.5C2.41996 6.92738 6.92738 2.41996 12.5 2.41996C15.8416 2.41996 18.7964 4.04367 20.6309 6.54402C20.6674 6.5969 20.7141 6.64193 20.7683 6.67642C20.8225 6.71091 20.883 6.73418 20.9464 6.74484C21.0097 6.7555 21.0746 6.75334 21.1371 6.73848C21.1996 6.72362 21.2585 6.69637 21.3102 6.65834C21.362 6.62031 21.4056 6.57227 21.4385 6.51708C21.4714 6.46188 21.4928 6.40065 21.5016 6.33702C21.5104 6.27338 21.5063 6.20862 21.4896 6.1466C21.4729 6.08457 21.4439 6.02652 21.4043 5.9759C19.3959 3.23849 16.1529 1.45996 12.5 1.45996ZM19.2153 8.17527C19.1198 8.1753 19.0265 8.2038 18.9473 8.25713C18.8681 8.31047 18.8066 8.38621 18.7706 8.47468C18.7347 8.56315 18.726 8.66033 18.7456 8.75379C18.7651 8.84724 18.8122 8.93274 18.8806 8.99934L21.9012 12.02H11.54C11.4764 12.0191 11.4132 12.0308 11.3542 12.0545C11.2952 12.0782 11.2414 12.1135 11.1961 12.1581C11.1508 12.2028 11.1149 12.256 11.0903 12.3147C11.0658 12.3734 11.0531 12.4363 11.0531 12.5C11.0531 12.5636 11.0658 12.6266 11.0903 12.6852C11.1149 12.7439 11.1508 12.7971 11.1961 12.8418C11.2414 12.8865 11.2952 12.9217 11.3542 12.9454C11.4132 12.9691 11.4764 12.9809 11.54 12.98H21.9012L18.8806 16.0006C18.8345 16.0448 18.7977 16.0978 18.7724 16.1564C18.7471 16.215 18.7337 16.2781 18.733 16.342C18.7324 16.4058 18.7445 16.4692 18.7686 16.5283C18.7928 16.5874 18.8284 16.6412 18.8736 16.6863C18.9188 16.7315 18.9725 16.7672 19.0316 16.7913C19.0907 16.8154 19.1541 16.8275 19.2179 16.8269C19.2818 16.8262 19.3449 16.8129 19.4035 16.7875C19.4621 16.7622 19.5151 16.7254 19.5593 16.6793L23.3571 12.8815C23.416 12.8367 23.4636 12.7788 23.4964 12.7125C23.5291 12.6462 23.5461 12.5732 23.546 12.4993C23.5459 12.4253 23.5288 12.3524 23.4958 12.2861C23.4629 12.2199 23.4151 12.1622 23.3562 12.1175L19.5593 8.32059C19.5146 8.2746 19.4611 8.23805 19.402 8.2131C19.3429 8.18814 19.2794 8.17528 19.2153 8.17527Z" fill="#E65A67"/>
</svg>
