<svg width="45" height="45" viewBox="0 0 45 45" fill="none" xmlns="http://www.w3.org/2000/svg">
<g clip-path="url(#clip0_3065_108618)">
<circle cx="22.5" cy="22.5" r="20" stroke="white" stroke-width="5"/>
<path d="M17 22V26M29 20V24M28 15C30.4487 15 31.7731 15.3748 32.4321 15.6654C32.5199 15.7042 32.5638 15.7235 32.6904 15.8444C32.7663 15.9168 32.9049 16.1294 32.9405 16.2281C33 16.3927 33 16.4827 33 16.6627V27.4111C33 28.3199 33 28.7743 32.8637 29.0079C32.7251 29.2454 32.5914 29.3559 32.3319 29.4472C32.0769 29.5369 31.562 29.438 30.5322 29.2401C29.8114 29.1017 28.9565 29 28 29C25 29 22 31 18 31C15.5513 31 14.2269 30.6252 13.5679 30.3346C13.4801 30.2958 13.4362 30.2765 13.3096 30.1556C13.2337 30.0832 13.0951 29.8706 13.0595 29.7719C13 29.6073 13 29.5173 13 29.3373L13 18.5889C13 17.6801 13 17.2257 13.1363 16.9921C13.2749 16.7546 13.4086 16.6441 13.6681 16.5528C13.9231 16.4631 14.438 16.562 15.4678 16.7598C16.1886 16.8983 17.0435 17 18 17C21 17 24 15 28 15ZM25.5 23C25.5 24.3807 24.3807 25.5 23 25.5C21.6193 25.5 20.5 24.3807 20.5 23C20.5 21.6193 21.6193 20.5 23 20.5C24.3807 20.5 25.5 21.6193 25.5 23Z" stroke="white" stroke-width="1.5" stroke-linecap="round" stroke-linejoin="round"/>
</g>
<defs>
<clipPath id="clip0_3065_108618">
<rect width="45" height="45" fill="white"/>
</clipPath>
</defs>
</svg>
