<svg width="49" height="48" viewBox="0 0 49 48" fill="none" xmlns="http://www.w3.org/2000/svg">
    <defs>
        <linearGradient id="paint0_linear_2723_107126" x1="24.875" y1="3.5" x2="20.375" y2="43.5"
            gradientUnits="userSpaceOnUse">
            <stop stop-color="#42AC9A" />
            <stop offset="1" stop-color="#69D195" />
        </linearGradient>
        <clipPath id="clip0_2723_107126">
            <rect width="48" height="48" fill="white" transform="translate(0.875)" />
        </clipPath>
    </defs>
    <g clip-path="url(#clip0_2723_107126)">
        <circle cx="24.875" cy="24" r="24" fill="url(#paint0_linear_2723_107126)" />
        <path
            d="M33 32V25M25 32V22M17 32L17 28M26.4067 17.0275L31.5751 18.9657M23.7988 17.4009L18.2002 21.5998M34.0607 18.4393C34.6464 19.0251 34.6464 19.9749 34.0607 20.5607C33.4749 21.1464 32.5251 21.1464 31.9393 20.5607C31.3536 19.9749 31.3536 19.0251 31.9393 18.4393C32.5251 17.8536 33.4749 17.8536 34.0607 18.4393ZM18.0607 21.4393C18.6464 22.0251 18.6464 22.9749 18.0607 23.5607C17.4749 24.1464 16.5251 24.1464 15.9393 23.5607C15.3536 22.9749 15.3536 22.0251 15.9393 21.4393C16.5251 20.8536 17.4749 20.8536 18.0607 21.4393ZM26.0607 15.4393C26.6464 16.0251 26.6464 16.9749 26.0607 17.5607C25.4749 18.1464 24.5251 18.1464 23.9393 17.5607C23.3536 16.9749 23.3536 16.0251 23.9393 15.4393C24.5251 14.8536 25.4749 14.8536 26.0607 15.4393Z"
            stroke="white" stroke-width="2" stroke-linecap="round" stroke-linejoin="round" />
    </g>
</svg>
