<svg width="24" height="25" viewBox="0 0 24 25" fill="none" xmlns="http://www.w3.org/2000/svg">
<path d="M7.8649 21.3578C0.888781 21.6494 1.23135 20.0789 1.15062 18.1476C1.06989 16.2163 4.12776 14.5201 7.98057 14.3591" stroke="#474747"/>
<path d="M15 22C22 22 22 20.2091 22 18C22 15.7909 18.866 14 15 14" stroke="#474747"/>
<circle cx="2" cy="2" r="2" transform="matrix(-1 0 0 1 6.82361 7.5)" stroke="#474747"/>
<ellipse cx="12.0236" cy="8" rx="3.36" ry="3.5" stroke="#474747"/>
<ellipse cx="19.2236" cy="9.5" rx="1.92" ry="2" stroke="#474747"/>
<path d="M11.5436 23C14.9076 23 16.776 22.5062 17.7716 21.541C18.765 20.578 18.7643 19.2575 18.7636 18.0869C18.7636 18.0578 18.7636 18.0289 18.7636 18C18.7636 16.5392 17.8793 15.277 16.5736 14.4026C15.2645 13.526 13.4847 13 11.5436 13C9.60254 13 7.82271 13.526 6.51365 14.4026C5.20788 15.277 4.32361 16.5392 4.32361 18C4.32361 18.0289 4.32359 18.0578 4.32358 18.0869C4.32296 19.2575 4.32227 20.578 5.31558 21.541C6.31124 22.5062 8.17964 23 11.5436 23Z" fill="white" stroke="#474747"/>
</svg>
