<svg width="16" height="16" viewBox="0 0 16 16" fill="none" xmlns="http://www.w3.org/2000/svg">
<path d="M2.18196 10.1974C1.61534 9.46131 1.33203 9.09324 1.33203 8.00033C1.33203 6.90741 1.61534 6.53934 2.18196 5.80321C3.31334 4.33336 5.21077 2.66699 7.9987 2.66699C10.7866 2.66699 12.6841 4.33336 13.8154 5.80321C14.3821 6.53934 14.6654 6.90741 14.6654 8.00033C14.6654 9.09324 14.3821 9.46131 13.8154 10.1974C12.6841 11.6673 10.7866 13.3337 7.9987 13.3337C5.21077 13.3337 3.31334 11.6673 2.18196 10.1974Z" stroke="#FF4D00"/>
<path d="M10 8C10 9.10457 9.10457 10 8 10C6.89543 10 6 9.10457 6 8C6 6.89543 6.89543 6 8 6C9.10457 6 10 6.89543 10 8Z" stroke="#FF4D00"/>
</svg>
