<svg width="24" height="24" viewBox="0 0 24 24" fill="none" xmlns="http://www.w3.org/2000/svg">
<path d="M12.915 10.1054C12.915 9.92298 12.9874 9.74809 13.1164 9.61913C13.2453 9.49018 13.4202 9.41774 13.6026 9.41774H18.6451C18.8275 9.41774 19.0024 9.49018 19.1313 9.61913C19.2603 9.74809 19.3327 9.92298 19.3327 10.1054C19.3327 10.2877 19.2603 10.4626 19.1313 10.5916C19.0024 10.7205 18.8275 10.793 18.6451 10.793H13.6026C13.4202 10.793 13.2453 10.7205 13.1164 10.5916C12.9874 10.4626 12.915 10.2877 12.915 10.1054ZM13.6026 13.085C13.4202 13.085 13.2453 13.1575 13.1164 13.2864C12.9874 13.4154 12.915 13.5903 12.915 13.7726C12.915 13.955 12.9874 14.1299 13.1164 14.2588C13.2453 14.3878 13.4202 14.4602 13.6026 14.4602H18.6451C18.8275 14.4602 19.0024 14.3878 19.1313 14.2588C19.2603 14.1299 19.3327 13.955 19.3327 13.7726C19.3327 13.5903 19.2603 13.4154 19.1313 13.2864C19.0024 13.1575 18.8275 13.085 18.6451 13.085H13.6026ZM9.47691 10.1054C9.47691 10.5309 9.30788 10.939 9.00699 11.2399C8.7061 11.5407 8.298 11.7098 7.87248 11.7098C7.44696 11.7098 7.03886 11.5407 6.73797 11.2399C6.43708 10.939 6.26804 10.5309 6.26804 10.1054C6.26804 9.67983 6.43708 9.27173 6.73797 8.97084C7.03886 8.66995 7.44696 8.50092 7.87248 8.50092C8.298 8.50092 8.7061 8.66995 9.00699 8.97084C9.30788 9.27173 9.47691 9.67983 9.47691 10.1054ZM5.58043 12.6266H10.1645C10.4077 12.6266 10.6409 12.7232 10.8128 12.8951C10.9848 13.0671 11.0813 13.3003 11.0813 13.5434V14.0018C11.0813 14.0018 10.6229 16.2939 7.87248 16.2939C5.12202 16.2939 4.66361 14.0018 4.66361 14.0018V13.5434C4.66361 13.3003 4.7602 13.0671 4.93214 12.8951C5.10408 12.7232 5.33727 12.6266 5.58043 12.6266ZM1 5.52125C1 4.85258 1.26563 4.21128 1.73846 3.73846C2.21128 3.26563 2.85258 3 3.52125 3H20.4787C21.1474 3 21.7887 3.26563 22.2615 3.73846C22.7344 4.21128 23 4.85258 23 5.52125V18.8151C23 19.4838 22.7344 20.1251 22.2615 20.5979C21.7887 21.0708 21.1474 21.3364 20.4787 21.3364H3.52217C2.85349 21.3364 2.2122 21.0708 1.73937 20.5979C1.26655 20.1251 1.00092 19.4838 1.00092 18.8151V5.52125H1ZM3.52125 4.37523C2.88865 4.37523 2.37523 4.88865 2.37523 5.52125V18.8151C2.37523 19.4477 2.88865 19.9612 3.52125 19.9612H20.4787C21.1114 19.9612 21.6248 19.4477 21.6248 18.8151V5.52125C21.6248 4.88865 21.1114 4.37523 20.4787 4.37523H3.52217H3.52125Z" fill="#474747"/>
</svg>
