<svg width="24" height="24" viewBox="0 0 24 24" fill="none" xmlns="http://www.w3.org/2000/svg">
<g clip-path="url(#clip0_4879_17747)">
<path d="M12.9203 1.03616e-07C14.3357 1.03616e-07 15.4992 1.06944 15.6508 2.44444H17.8056C18.5024 2.44436 19.1732 2.70881 19.6826 3.18434C20.1919 3.65987 20.5018 4.31104 20.5494 5.00622L20.5556 5.19444V7.02411C20.5555 7.25636 20.4673 7.47993 20.3087 7.64963C20.1501 7.81934 19.9331 7.92253 19.7014 7.93836C19.4697 7.9542 19.2406 7.88148 19.0604 7.73492C18.8802 7.58835 18.7624 7.37886 18.7308 7.14878L18.7222 7.02411V5.19444C18.7222 4.97293 18.642 4.75892 18.4964 4.59197C18.3508 4.42503 18.1497 4.31646 17.9302 4.28633L17.8056 4.27778H15.1998C14.7072 5.01111 13.87 5.49144 12.9203 5.49144H8.63522C8.18483 5.49186 7.74127 5.38135 7.34372 5.16968C6.94617 4.958 6.60686 4.65169 6.35578 4.27778H3.75C3.52849 4.27779 3.31447 4.35801 3.14753 4.5036C2.98059 4.6492 2.87201 4.85032 2.84189 5.06978L2.83333 5.19444V21.7006C2.83333 22.165 3.178 22.5476 3.62533 22.6087L3.75 22.6172H5.58944C5.8217 22.6173 6.04526 22.7055 6.21497 22.8641C6.38467 23.0226 6.48787 23.2397 6.5037 23.4714C6.51953 23.7031 6.44682 23.9322 6.30025 24.1124C6.15368 24.2925 5.94419 24.4103 5.71411 24.442L5.58944 24.4506H3.75C3.05318 24.4506 2.38231 24.1862 1.87297 23.7107C1.36363 23.2351 1.0538 22.584 1.00611 21.8888L1 21.7006V5.19444C0.999914 4.49762 1.26436 3.82675 1.7399 3.31741C2.21543 2.80807 2.86659 2.49825 3.56178 2.45056L3.75 2.44444H5.90478C5.97911 1.77231 6.29881 1.15123 6.80264 0.700179C7.30646 0.249127 7.95899 -0.000185553 8.63522 1.03616e-07H12.9203ZM19.0278 9.77778C19.5494 9.77778 20.0659 9.88052 20.5479 10.0801C21.0298 10.2798 21.4677 10.5724 21.8366 10.9412C22.2054 11.3101 22.498 11.748 22.6976 12.2299C22.8973 12.7118 23 13.2284 23 13.75V20.4722C23 20.9939 22.8973 21.5104 22.6976 21.9923C22.498 22.4743 22.2054 22.9122 21.8366 23.281C21.4677 23.6499 21.0298 23.9425 20.5479 24.1421C20.0659 24.3417 19.5494 24.4444 19.0278 24.4444H12.3056C11.7839 24.4444 11.2674 24.3417 10.7855 24.1421C10.3035 23.9425 9.86563 23.6499 9.49677 23.281C9.12792 22.9122 8.83532 22.4743 8.6357 21.9923C8.43608 21.5104 8.33333 20.9939 8.33333 20.4722V13.75C8.33333 12.6965 8.75183 11.6862 9.49677 10.9412C10.2417 10.1963 11.2521 9.77778 12.3056 9.77778H19.0278ZM19.7452 22.4889L16.3144 19.0544C16.1592 18.8992 15.9535 18.8048 15.7346 18.7884C15.5156 18.7721 15.2981 18.8348 15.1216 18.9652L15.0189 19.0544L11.5869 22.4864C11.8118 22.5659 12.0538 22.6099 12.3056 22.6099H19.0278C19.2796 22.6099 19.5203 22.5671 19.7452 22.4877L16.3144 19.0544L19.7452 22.4864V22.4889ZM19.0278 11.6111H12.3056C11.7383 11.6111 11.1943 11.8365 10.7931 12.2376C10.392 12.6387 10.1667 13.1827 10.1667 13.75V20.4722C10.1667 20.724 10.2107 20.966 10.2901 21.1909L13.7221 17.7589C14.2115 17.2693 14.8674 16.9823 15.5591 16.9551C16.2508 16.9279 16.9273 17.1626 17.4536 17.6122L17.6112 17.7589L21.0432 21.1909C21.1227 20.966 21.1667 20.724 21.1667 20.4722V13.75C21.1667 13.1827 20.9413 12.6387 20.5402 12.2376C20.1391 11.8365 19.595 11.6111 19.0278 11.6111ZM18.1111 13.4469C18.4353 13.4469 18.7461 13.5757 18.9754 13.8049C19.2046 14.0341 19.3333 14.345 19.3333 14.6691C19.3333 14.9933 19.2046 15.3041 18.9754 15.5334C18.7461 15.7626 18.4353 15.8913 18.1111 15.8913C17.787 15.8913 17.4761 15.7626 17.2469 15.5334C17.0177 15.3041 16.8889 14.9933 16.8889 14.6691C16.8889 14.345 17.0177 14.0341 17.2469 13.8049C17.4761 13.5757 17.787 13.4469 18.1111 13.4469ZM12.9203 1.83333H8.63522C8.5126 1.82884 8.39032 1.84912 8.27571 1.89295C8.1611 1.93678 8.05649 2.00327 7.96815 2.08843C7.87981 2.1736 7.80955 2.2757 7.76155 2.38863C7.71356 2.50156 7.68882 2.62301 7.68882 2.74572C7.68882 2.86843 7.71356 2.98988 7.76155 3.10281C7.80955 3.21575 7.87981 3.31785 7.96815 3.40301C8.05649 3.48818 8.1611 3.55466 8.27571 3.59849C8.39032 3.64232 8.5126 3.6626 8.63522 3.65811H12.9203C13.043 3.6626 13.1652 3.64232 13.2798 3.59849C13.3945 3.55466 13.4991 3.48818 13.5874 3.40301C13.6757 3.31785 13.746 3.21575 13.794 3.10281C13.842 2.98988 13.8667 2.86843 13.8667 2.74572C13.8667 2.62301 13.842 2.50156 13.794 2.38863C13.746 2.2757 13.6757 2.1736 13.5874 2.08843C13.4991 2.00327 13.3945 1.93678 13.2798 1.89295C13.1652 1.84912 13.043 1.82884 12.9203 1.83333Z" fill="#474747"/>
</g>
<defs>
<clipPath id="clip0_4879_17747">
<rect width="24" height="24" fill="white"/>
</clipPath>
</defs>
</svg>
