<svg width="40" height="40" viewBox="0 0 40 40" fill="none" xmlns="http://www.w3.org/2000/svg">
<g clip-path="url(#clip0_2343_23214)">
<path d="M8.66668 1.7284e-05H31.3333C32.4721 -0.00225785 33.6001 0.220359 34.6526 0.655094C35.7051 1.08983 36.6615 1.72812 37.4667 2.53335C38.2719 3.33858 38.9102 4.29489 39.3449 5.3474C39.7797 6.39992 40.0023 7.52792 40 8.66668V31.3333C40.0023 32.4721 39.7797 33.6001 39.3449 34.6526C38.9102 35.7051 38.2719 36.6615 37.4667 37.4667C36.6615 38.2719 35.7051 38.9102 34.6526 39.3449C33.6001 39.7797 32.4721 40.0023 31.3333 40H8.66668C7.52792 40.0023 6.39992 39.7797 5.3474 39.3449C4.29489 38.9102 3.33858 38.2719 2.53335 37.4667C1.72812 36.6615 1.08983 35.7051 0.655094 34.6526C0.220359 33.6001 -0.00225785 32.4721 1.7284e-05 31.3333V8.66668C-0.00225917 7.52792 0.220357 6.39992 0.655091 5.3474C1.08983 4.29489 1.72812 3.33858 2.53335 2.53335C3.33858 1.72812 4.29489 1.08983 5.3474 0.655091C6.39992 0.220357 7.52792 -0.00225917 8.66668 1.7284e-05Z" fill="url(#paint0_linear_2343_23214)"/>
<path d="M20 37.3337C29.5729 37.3337 37.3333 29.5733 37.3333 20.0003C37.3333 10.4274 29.5729 2.66699 20 2.66699C10.427 2.66699 2.66663 10.4274 2.66663 20.0003C2.66663 29.5733 10.427 37.3337 20 37.3337Z" fill="#2E2E2F"/>
<path fill-rule="evenodd" clip-rule="evenodd" d="M19.6667 10.6667H20.2334L20.5 9.3334H20.7334L20.8334 10.7001C21.0018 10.7059 21.1693 10.7282 21.3334 10.7667L21.7333 9.46673L21.9667 9.50006L21.9 10.8667C22.0705 10.8955 22.2379 10.9402 22.4 11.0001L22.9334 9.76673L23.1334 9.8334L22.9 11.1667C23.0667 11.2334 23.2333 11.2667 23.4 11.3334L24.0667 10.1667L24.2667 10.2667L23.9 11.5667C24.0667 11.6334 24.2 11.7334 24.3667 11.8001L25.1667 10.7001L25.3667 10.8001L24.8334 12.0667C24.9667 12.1667 25.1334 12.2667 25.2667 12.3667L26.2 11.3667L26.3667 11.5001L25.7 12.7001C25.8333 12.8001 25.9667 12.9334 26.1 13.0334L27.1334 12.1667L27.3 12.3334L26.5 13.4334L26.8667 13.8001L28 13.0667L28.1334 13.2334L27.2333 14.2334L27.5333 14.6334L28.7333 14.0334L28.8667 14.2334L27.8334 15.1334C27.9333 15.2667 28 15.4334 28.1 15.5667L29.3667 15.1001L29.4667 15.3001L28.3334 16.0667L28.5333 16.5667L29.8334 16.2667L29.9 16.4667L28.7333 17.0667C28.8 17.2334 28.8333 17.4001 28.9 17.5667L30.2333 17.4001L30.3 17.6334L29.0333 18.1001C29.0667 18.2667 29.1 18.4334 29.1334 18.6334H30.5L30.5333 18.8667L29.2333 19.2001C29.2333 19.3667 29.2667 19.5667 29.2667 19.7334L30.6 19.9001V20.1334L29.2667 20.3001C29.2722 20.4674 29.261 20.6349 29.2333 20.8001L30.5333 21.1001L30.5 21.3334L29.1667 21.3667L29.0667 21.8667L30.3334 22.3334L30.3 22.5334L28.9667 22.4001C28.9334 22.5667 28.8667 22.7334 28.8334 22.9001L30.0333 23.5001L29.9667 23.7001L28.6334 23.4001L28.4334 23.9001L29.5667 24.6667L29.4667 24.8667L28.1667 24.4334C28.1 24.5667 28 24.7334 27.9334 24.8667L28.9667 25.7334L28.8334 25.9334L27.6334 25.3334C27.5329 25.4857 27.4215 25.6305 27.3 25.7667L28.2333 26.7334L28.1 26.9001L26.9667 26.1667C26.8617 26.3051 26.7383 26.4284 26.6 26.5334L27.4 27.6334L27.2333 27.8001L26.1667 26.9334C26.0417 27.0542 25.908 27.1656 25.7667 27.2667L26.4334 28.4334L26.2667 28.5667L25.3334 27.6001C25.2 27.7001 25.0333 27.8001 24.9 27.9001L25.4334 29.1667L25.2333 29.2667L24.4 28.2001C24.2514 28.291 24.0953 28.3691 23.9334 28.4334L24.3334 29.7334L24.1334 29.8334L23.4334 28.6667C23.272 28.7372 23.1047 28.793 22.9334 28.8334L23.1667 30.1667L22.9667 30.2334L22.4 29.0001C22.2333 29.0334 22.0667 29.1001 21.9 29.1334L21.9667 30.5001L21.7333 30.5334L21.3334 29.2334C21.1667 29.2667 21 29.2667 20.8 29.3001L20.7334 30.6667H20.5L20.2334 29.3334H19.6667L19.4333 30.6667H19.3L19.2 29.3001C19.0207 29.2923 18.8424 29.27 18.6667 29.2334L18.2667 30.5334L18.0333 30.5001L18.1 29.1334C17.9296 29.1046 17.7622 29.06 17.6 29.0001L17.0667 30.2334L16.8667 30.1667L17.1 28.8334C16.9333 28.7667 16.7667 28.7334 16.6 28.6667L15.9 29.8334L15.7 29.7334L16.0667 28.4334C15.9 28.3667 15.7667 28.2667 15.6 28.2001L14.8 29.3001L14.6 29.2001L15.1334 27.9334C15 27.8334 14.8333 27.7334 14.7 27.6334L13.7667 28.6334L13.6 28.5001L14.2667 27.3001C14.1333 27.2001 14 27.0667 13.8667 26.9667L12.8333 27.8334L12.6667 27.6667L13.4667 26.5667C13.3529 26.4363 13.2304 26.3138 13.1 26.2001L11.9667 26.9667L11.8333 26.8001L12.7667 25.8001C12.6476 25.6619 12.5363 25.5173 12.4333 25.3667L11.2334 25.9667L11.1 25.7667L12.1334 24.9001C12.0334 24.7667 11.9667 24.6001 11.8667 24.4334L10.6 24.9001L10.5 24.7001L11.6334 23.9334L11.4333 23.4334L10.1333 23.7334L10.0667 23.5334L11.2667 22.9001C11.2 22.7334 11.1667 22.5667 11.1 22.4001L9.76668 22.5667L9.70002 22.3334L10.9667 21.8667C10.9334 21.7001 10.9 21.5334 10.8667 21.3334H9.53335L9.50002 21.1001L10.8 20.7667C10.8 20.6001 10.7667 20.4334 10.7667 20.2334L9.43335 20.0667V19.8334L10.7667 19.6667C10.7612 19.4883 10.7723 19.3098 10.8 19.1334L9.50002 18.8334L9.53335 18.6001L10.8667 18.5667L10.9667 18.0667L9.70002 17.6001L9.76668 17.4001L11.1 17.5334C11.1333 17.3667 11.2 17.2001 11.2334 17.0334L10.0333 16.4334L10.1 16.2334L11.4 16.5334L11.6 16.0334L10.4667 15.3001L10.5667 15.1001L11.8333 15.5334C11.9333 15.3667 12 15.2334 12.1 15.0667L11.0667 14.2001L11.2 14.0001L12.4 14.6001C12.5 14.4667 12.6 14.3001 12.7 14.1667L11.7667 13.1667L11.9 13.0001L13.0333 13.7334C13.1464 13.5919 13.2689 13.4583 13.4 13.3334L12.6 12.2334L12.7667 12.0667L13.8 12.9334C13.925 12.8126 14.0587 12.7012 14.2 12.6001L13.5333 11.4334L13.7 11.3001L14.6334 12.2667C14.7667 12.1667 14.9334 12.0667 15.0667 11.9667L14.5333 10.7334L14.7334 10.6334L15.5667 11.7001C15.7153 11.6091 15.8714 11.531 16.0333 11.4667L15.6667 10.1667L15.8667 10.0667L16.5667 11.2334C16.728 11.163 16.8954 11.1072 17.0667 11.0667L16.8334 9.7334L17.0333 9.66673L17.6 10.9001C17.7667 10.8667 17.9333 10.8001 18.1 10.7667L18.0333 9.40007L18.2667 9.36673L18.6667 10.6667C18.8334 10.6334 19 10.6334 19.2 10.6001L19.2667 9.2334H19.5L19.6667 10.6667ZM20 12.4667C18.5167 12.4667 17.0666 12.9066 15.8332 13.7307C14.5999 14.5548 13.6386 15.7262 13.0709 17.0966C12.5033 18.4671 12.3547 19.9751 12.6441 21.4299C12.9335 22.8848 13.6478 24.2211 14.6967 25.27C15.7456 26.3189 17.082 27.0332 18.5368 27.3226C19.9917 27.612 21.4997 27.4635 22.8701 26.8958C24.2406 26.3282 25.4119 25.3669 26.236 24.1335C27.0602 22.9001 27.5 21.4501 27.5 19.9667C27.497 17.9785 26.7059 16.0726 25.3 14.6667C23.8941 13.2609 21.9882 12.4697 20 12.4667Z" fill="url(#paint1_linear_2343_23214)"/>
<path fill-rule="evenodd" clip-rule="evenodd" d="M19.5001 6.00039H20.3001L20.6667 4.00039H21.0001L21.1334 6.03372C21.4001 6.06706 21.6667 6.10039 21.9001 6.13372L22.5001 4.16706L22.8334 4.23372L22.7334 6.30039C23.0001 6.36706 23.2334 6.40039 23.4667 6.46706L24.3001 4.56706L24.6334 4.66706L24.3001 6.73372C24.5387 6.80797 24.7725 6.89703 25.0001 7.00039L26.0667 5.16706L26.3667 5.30039L25.8001 7.33372C26.0334 7.43372 26.2667 7.56706 26.4667 7.66706L27.7334 5.96706L28.0334 6.13372L27.2001 8.10039C27.4188 8.23337 27.6302 8.37803 27.8334 8.53372L29.3001 6.96706L29.5667 7.16706L28.5001 9.03372C28.7001 9.20039 28.9001 9.36706 29.0667 9.53372L30.7001 8.16706L30.9334 8.40039L29.6667 10.1337C29.8334 10.3004 30.0001 10.5004 30.1667 10.6671L31.9667 9.50039L32.1667 9.76706L30.7001 11.3671C30.8553 11.559 31 11.7593 31.1334 11.9671L33.0667 11.0004L33.2667 11.2671L31.6334 12.7004C31.768 12.9041 31.8904 13.1156 32.0001 13.3337L34.0667 12.6004L34.2334 12.9004L32.4334 14.1337C32.5334 14.3671 32.6334 14.5671 32.7334 14.8004L34.8667 14.3004L34.9667 14.6004L33.0334 15.6004L33.2334 16.3004L35.4001 16.0671L35.4667 16.4004L33.4334 17.1671C33.4667 17.4004 33.5334 17.6337 33.5667 17.8671H35.7667L35.8001 18.2004L33.6667 18.7337C33.6952 18.9882 33.7063 19.2444 33.7001 19.5004L35.8667 19.7671V20.1004L33.7001 20.3671C33.7001 20.6004 33.6667 20.8337 33.6667 21.0671L35.8001 21.5671L35.7667 21.9004L33.5667 21.9337C33.5385 22.1808 33.4939 22.4258 33.4334 22.6671L35.4667 23.4337L35.4001 23.7671L33.2334 23.5337L33.0334 24.2337L34.9667 25.2004L34.8667 25.5004L32.7667 25.0337C32.6667 25.2671 32.5667 25.5004 32.4667 25.7337L34.2667 26.9337L34.1334 27.2337L32.1001 26.5337C31.9978 26.7558 31.8751 26.9678 31.7334 27.1671L33.3667 28.5671L33.2001 28.8337L31.2667 27.9004C31.1334 28.1004 30.9667 28.3004 30.8334 28.5004L32.3001 30.0671L32.1001 30.3337L30.3001 29.1671C30.1334 29.3671 29.9667 29.5337 29.8001 29.7337L31.0667 31.4337L30.8334 31.6671L29.2001 30.3337C29.0001 30.5004 28.8334 30.6671 28.6334 30.8337L29.6667 32.6671L29.4001 32.8671L27.9334 31.3671C27.7334 31.5004 27.5334 31.6671 27.3001 31.8004L28.1334 33.7004L27.8334 33.8671L26.5667 32.2337C26.3334 32.3671 26.1001 32.4671 25.8667 32.6004L26.4667 34.6004L26.1667 34.7337L25.1001 32.9671C24.8725 33.0704 24.6387 33.1595 24.4001 33.2337L24.7667 35.2671L24.4334 35.3671L23.6001 33.5004C23.3667 33.5671 23.1001 33.6337 22.8334 33.7004L22.9334 35.7004L22.6001 35.7671L22.0001 33.8671L21.2001 33.9671L21.0667 35.9671L20.7334 36.0004L20.3667 34.0337H19.5001L19.1334 36.0004L18.8001 35.9671L18.6667 33.9671C18.4001 33.9337 18.1334 33.9337 17.8667 33.9004L17.3001 35.8004L16.9667 35.7337L17.0667 33.7671C16.8001 33.7004 16.5334 33.6671 16.2667 33.6004L15.4667 35.4004L15.1334 35.3004L15.4334 33.3671C15.1729 33.2931 14.9169 33.2041 14.6667 33.1004L13.7001 34.7671L13.4001 34.6337L13.9334 32.7671C13.6794 32.665 13.4341 32.5424 13.2001 32.4004L12.0334 33.9337L11.7334 33.7671L12.4667 32.0004C12.2334 31.8671 12.0001 31.7004 11.7667 31.5671L10.4667 32.9671L10.2001 32.7671L11.1334 31.1004C10.9001 30.9337 10.7001 30.7671 10.4667 30.5671L9.00006 31.7671L8.76672 31.5337L9.86672 30.0004L9.26672 29.4004L7.70006 30.4337L7.46672 30.1671L8.73339 28.7671C8.56672 28.5337 8.40006 28.3337 8.23339 28.1004L6.56672 28.9337L6.36672 28.6671L7.76672 27.4337C7.61002 27.1967 7.46539 26.952 7.33339 26.7004L5.56672 27.3337L5.43339 27.0337L6.96672 26.0004C6.84149 25.7398 6.73022 25.4728 6.63339 25.2004L4.83339 25.6004L4.73339 25.3004L6.36672 24.4671C6.26672 24.2004 6.20006 23.9337 6.10006 23.6337L4.26672 23.8337L4.20006 23.5004L5.93339 22.8671C5.86672 22.6004 5.83339 22.3004 5.76672 22.0337H3.90006L3.86672 21.7004L5.66672 21.2337C5.63339 20.9671 5.63339 20.6671 5.60006 20.4004L3.76672 20.1671V19.8337L5.60006 19.6004C5.60006 19.3004 5.63339 19.0337 5.63339 18.7337L3.83339 18.3004L3.86672 17.9671L5.73339 17.9337C5.76672 17.6671 5.83339 17.3671 5.86672 17.1004L4.13339 16.4671L4.20006 16.1337L6.03339 16.3337C6.10006 16.0671 6.20006 15.8004 6.26672 15.5004L4.60006 14.6671L4.73339 14.3671L6.53339 14.7671C6.63339 14.5004 6.76672 14.2337 6.86672 14.0004L5.30006 12.9671L5.43339 12.6671L7.20006 13.3004C7.33205 13.0488 7.47668 12.804 7.63339 12.5671L6.20006 11.3671L6.36672 11.1004L8.06672 11.9337C8.23339 11.7004 8.40006 11.4671 8.56672 11.2671L7.26672 9.86706L7.46672 9.60039L9.06672 10.6337C9.26672 10.4337 9.43339 10.2337 9.63339 10.0337L8.50006 8.50039L8.73339 8.26706L10.2334 9.46706C10.4334 9.30039 10.6667 9.10039 10.8667 8.93372L9.90006 7.26706L10.1667 7.06706L11.5001 8.46706C11.7334 8.30039 11.9667 8.16706 12.2001 8.00039L11.4334 6.20039L11.7334 6.03372L12.9334 7.56706C13.1667 7.43372 13.4334 7.33372 13.6667 7.20039L13.1001 5.33372L13.4001 5.20039L14.4001 6.90039C14.6502 6.79671 14.9062 6.70767 15.1667 6.63372L14.8334 4.66706L15.1667 4.56706L15.9667 6.36706C16.2186 6.29564 16.4746 6.23998 16.7334 6.20039L16.6334 4.20039L16.9667 4.13372L17.5667 6.03372L18.3667 5.93372L18.5001 3.93372L18.8334 3.90039L19.5001 6.00039ZM11.3667 28.9337C12.2667 29.8004 13.7334 29.4337 14.3667 28.3337L17.9667 22.0004C18.3086 21.3868 18.4825 20.6938 18.4708 19.9914C18.459 19.2891 18.2622 18.6023 17.9001 18.0004L14.2001 11.7337C13.5667 10.6671 12.1001 10.3004 11.2001 11.2004C10.0148 12.358 9.07599 13.7434 8.44013 15.2733C7.80427 16.8032 7.48451 18.4459 7.50008 20.1026C7.51565 21.7593 7.86623 23.3957 8.53073 24.9134C9.19523 26.4311 10.1599 27.7986 11.3667 28.9337ZM19.0334 17.3004C19.401 17.9091 19.9192 18.4129 20.5381 18.7632C21.157 19.1135 21.8556 19.2985 22.5667 19.3004H29.8334C31.1001 19.3004 32.1334 18.2337 31.8334 17.0004C31.4279 15.3801 30.6979 13.8588 29.6878 12.5286C28.6776 11.1983 27.4082 10.0868 25.9562 9.26108C24.5043 8.43539 22.8999 7.91273 21.2402 7.72469C19.5805 7.53665 17.8999 7.68714 16.3001 8.16706C15.1001 8.53372 14.6667 9.96706 15.3001 11.0671L19.0334 17.3004ZM22.6001 20.6671C21.8935 20.6693 21.1997 20.8548 20.5862 21.2053C19.9728 21.5559 19.4607 22.0595 19.1001 22.6671L15.5001 29.0004C15.3422 29.2507 15.2443 29.5341 15.2138 29.8284C15.1834 30.1228 15.2212 30.4202 15.3244 30.6975C15.4276 30.9749 15.5934 31.2247 15.8088 31.4275C16.0243 31.6304 16.2837 31.7808 16.5667 31.8671C18.1582 32.309 19.8222 32.4273 21.4602 32.2152C23.0982 32.003 24.6771 31.4646 26.1034 30.6318C27.5298 29.7989 28.7747 28.6886 29.7646 27.3664C30.7545 26.0442 31.4693 24.5369 31.8667 22.9337C32.1667 21.7337 31.1334 20.6337 29.8667 20.6337L22.6001 20.6671ZM19.8334 19.3337C19.7015 19.3337 19.5726 19.3728 19.463 19.4461C19.3534 19.5193 19.2679 19.6235 19.2175 19.7453C19.167 19.8671 19.1538 20.0011 19.1795 20.1305C19.2053 20.2598 19.2688 20.3786 19.362 20.4718C19.4552 20.565 19.574 20.6285 19.7033 20.6542C19.8327 20.68 19.9667 20.6668 20.0885 20.6163C20.2103 20.5659 20.3145 20.4804 20.3877 20.3708C20.461 20.2611 20.5001 20.1322 20.5001 20.0004C20.4995 19.8237 20.4291 19.6545 20.3042 19.5296C20.1793 19.4046 20.01 19.3342 19.8334 19.3337Z" fill="url(#paint2_linear_2343_23214)"/>
</g>
<defs>
<linearGradient id="paint0_linear_2343_23214" x1="20" y1="40" x2="20" y2="1.90735e-05" gradientUnits="userSpaceOnUse">
<stop stop-color="#8E8E93"/>
<stop offset="1" stop-color="#E5E5EA"/>
</linearGradient>
<linearGradient id="paint1_linear_2343_23214" x1="20.0203" y1="9.3214" x2="20.0203" y2="30.6547" gradientUnits="userSpaceOnUse">
<stop stop-color="#B4B4B9"/>
<stop offset="1" stop-color="#B4B4B9"/>
</linearGradient>
<linearGradient id="paint2_linear_2343_23214" x1="19.8221" y1="3.98597" x2="19.8221" y2="35.956" gradientUnits="userSpaceOnUse">
<stop stop-color="#DCDCE1"/>
<stop offset="1" stop-color="#98989D"/>
</linearGradient>
<clipPath id="clip0_2343_23214">
<rect width="40" height="40" fill="white"/>
</clipPath>
</defs>
</svg>
