<svg width="20" height="20" viewBox="0 0 20 20" fill="none" xmlns="http://www.w3.org/2000/svg">
<g id="Setting" clip-path="url(#clip0_2723_133991)">
<circle id="Ellipse 26" cx="10" cy="10" r="7" stroke="#F99C4D" stroke-width="2"/>
<path id="Rectangle 27" d="M9 1L11 1L11 3H9L9 1Z" stroke="#F99C4D" stroke-width="2"/>
<path id="Rectangle 33" d="M19 9L19 11L18 11L18 9L19 9Z" stroke="#F99C4D" stroke-width="2"/>
<path id="Rectangle 34" d="M2 9L2 11L1 11L1 9L2 9Z" stroke="#F99C4D" stroke-width="2"/>
<path id="Rectangle 31" d="M15.6563 2.92886L17.0705 4.34307L16.1404 5.27316L14.7262 3.85895L15.6563 2.92886Z" stroke="#F99C4D" stroke-width="2"/>
<path id="Rectangle 32" d="M3.95313 14.632L5.36734 16.0462L4.34203 17.0715L2.92782 15.6573L3.95313 14.632Z" stroke="#F99C4D" stroke-width="2"/>
<path id="Rectangle 28" d="M9 17H11L11 19H9L9 17Z" stroke="#F99C4D" stroke-width="2"/>
<path id="Rectangle 29" d="M2.92984 4.34277L4.34405 2.92856L5.30962 3.89413L3.89541 5.30834L2.92984 4.34277Z" stroke="#F99C4D" stroke-width="2"/>
<path id="Rectangle 30" d="M14.5705 15.9854L15.9847 14.5711L17.07 15.6565L15.6558 17.0707L14.5705 15.9854Z" stroke="#F99C4D" stroke-width="2"/>
</g>
<defs>
<clipPath id="clip0_2723_133991">
<rect width="20" height="20" fill="white"/>
</clipPath>
</defs>
</svg>
