<svg width="25" height="24" viewBox="0 0 25 24" fill="none" xmlns="http://www.w3.org/2000/svg">
<path d="M17.4183 6.17C19.4183 7.56 20.7983 9.77 21.0783 12.32" stroke="#F93C00" stroke-width="1.5" stroke-linecap="round" stroke-linejoin="round"/>
<path d="M3.9483 12.37C4.2083 9.83 5.5683 7.62 7.5483 6.22" stroke="#F93C00" stroke-width="1.5" stroke-linecap="round" stroke-linejoin="round"/>
<path d="M8.64832 20.94C9.80832 21.53 11.1283 21.86 12.5183 21.86C13.8583 21.86 15.1183 21.56 16.2483 21.01" stroke="#F93C00" stroke-width="1.5" stroke-linecap="round" stroke-linejoin="round"/>
<path d="M12.5183 7.7C14.0537 7.7 15.2983 6.45535 15.2983 4.92C15.2983 3.38465 14.0537 2.14 12.5183 2.14C10.983 2.14 9.73834 3.38465 9.73834 4.92C9.73834 6.45535 10.983 7.7 12.5183 7.7Z" stroke="#F93C00" stroke-width="1.5" stroke-linecap="round" stroke-linejoin="round"/>
<path d="M5.2883 19.92C6.82365 19.92 8.0683 18.6754 8.0683 17.14C8.0683 15.6046 6.82365 14.36 5.2883 14.36C3.75295 14.36 2.5083 15.6046 2.5083 17.14C2.5083 18.6754 3.75295 19.92 5.2883 19.92Z" stroke="#F93C00" stroke-width="1.5" stroke-linecap="round" stroke-linejoin="round"/>
<path d="M19.6283 19.92C21.1637 19.92 22.4083 18.6754 22.4083 17.14C22.4083 15.6046 21.1637 14.36 19.6283 14.36C18.093 14.36 16.8483 15.6046 16.8483 17.14C16.8483 18.6754 18.093 19.92 19.6283 19.92Z" stroke="#F93C00" stroke-width="1.5" stroke-linecap="round" stroke-linejoin="round"/>
</svg>
