<svg width="20" height="20" viewBox="0 0 20 20" fill="none" xmlns="http://www.w3.org/2000/svg">
<path d="M4.40041 15.5416L4.87541 13.4833C4.98375 13 4.79208 12.325 4.44208 11.975L2.37541 9.90828C1.15875 8.69162 1.55041 7.45828 3.25041 7.17495L5.90875 6.73328C6.35041 6.65828 6.88375 6.26662 7.08375 5.85828L8.55041 2.92495C9.34208 1.33328 10.6421 1.33328 11.4421 2.92495L12.9087 5.85828C13.0004 6.04995 13.1754 6.23328 13.3671 6.39162" stroke="#474747" stroke-width="1.5" stroke-linecap="round" stroke-linejoin="round"/>
<path d="M16.7503 7.17505C18.4503 7.45838 18.8503 8.69172 17.6253 9.90838L15.5586 11.975C15.2086 12.325 15.0169 13 15.1253 13.4834L15.7169 16.0417C16.1836 18.0667 15.1086 18.85 13.3169 17.7917L10.8253 16.3167C10.3753 16.05 9.63359 16.05 9.17526 16.3167L6.68359 17.7917" stroke="#474747" stroke-width="1.5" stroke-linecap="round" stroke-linejoin="round"/>
<path d="M18.3337 1.66675L1.66699 18.3334" stroke="#474747" stroke-width="1.5" stroke-linecap="round" stroke-linejoin="round"/>
</svg>
