<svg width="25" height="24" viewBox="0 0 25 24" fill="none" xmlns="http://www.w3.org/2000/svg">
<path d="M13.855 3.51L15.615 7.03C15.855 7.52 16.495 7.99 17.035 8.08L20.225 8.61C22.265 8.95 22.745 10.43 21.275 11.89L18.795 14.37C18.375 14.79 18.145 15.6 18.275 16.18L18.985 19.25C19.545 21.68 18.255 22.62 16.105 21.35L13.115 19.58C12.575 19.26 11.685 19.26 11.135 19.58L8.14497 21.35C6.00497 22.62 4.70497 21.67 5.26497 19.25L5.97497 16.18C6.10497 15.6 5.87497 14.79 5.45497 14.37L2.97497 11.89C1.51497 10.43 1.98497 8.95 4.02497 8.61L7.21497 8.08C7.74497 7.99 8.38497 7.52 8.62497 7.03L10.385 3.51C11.345 1.6 12.905 1.6 13.855 3.51Z" stroke="#FFB800" stroke-width="1.5" stroke-linecap="round" stroke-linejoin="round"/>
</svg>
