<svg width="16" height="16" viewBox="0 0 16 16" fill="none" xmlns="http://www.w3.org/2000/svg">
<circle cx="8" cy="4" r="3" fill="white"/>
<path opacity="0.5" d="M12 9.52337C11.6756 9.5 11.2776 9.5 10.7822 9.5C9.52217 9.5 8.89218 9.5 8.50075 9.88442C8.10932 10.2688 8.10932 10.8876 8.10932 12.125C8.10932 12.9997 8.10932 13.5653 8.24759 13.9575C7.95439 13.9854 7.65305 14 7.34566 14C4.39333 14 2 12.6569 2 11C2 9.34315 4.39333 8 7.34566 8C9.34145 8 11.0818 8.6138 12 9.52337Z" fill="white"/>
<path fill-rule="evenodd" clip-rule="evenodd" d="M11 15C9.58579 15 8.87868 15 8.43934 14.5607C8 14.1213 8 13.4142 8 12C8 10.5858 8 9.87868 8.43934 9.43934C8.87868 9 9.58579 9 11 9C12.4142 9 13.1213 9 13.5607 9.43934C14 9.87868 14 10.5858 14 12C14 13.4142 14 14.1213 13.5607 14.5607C13.1213 15 12.4142 15 11 15ZM11.5 10.6667C11.5 10.3905 11.2761 10.1667 11 10.1667C10.7239 10.1667 10.5 10.3905 10.5 10.6667V11.5H9.66667C9.39052 11.5 9.16667 11.7239 9.16667 12C9.16667 12.2761 9.39052 12.5 9.66667 12.5H10.5V13.3333C10.5 13.6095 10.7239 13.8333 11 13.8333C11.2761 13.8333 11.5 13.6095 11.5 13.3333V12.5H12.3333C12.6095 12.5 12.8333 12.2761 12.8333 12C12.8333 11.7239 12.6095 11.5 12.3333 11.5H11.5V10.6667Z" fill="white"/>
</svg>
