<svg width="47" height="39" viewBox="0 0 47 39" fill="none" xmlns="http://www.w3.org/2000/svg">
<path fill-rule="evenodd" clip-rule="evenodd" d="M12.4369 4.07432C13.8016 3.99367 15.1647 4.00012 16.5294 4.00012C16.5388 4.00012 23.4447 4.00012 23.4447 4.00012C24.8361 4.00012 26.1992 3.99367 27.5631 4.07432C28.8031 4.1469 30.011 4.30174 31.2133 4.6477C33.7443 5.37512 35.9545 6.89448 37.5522 9.04851C39.1404 11.1888 40 13.809 40 16.4993C40 19.1929 39.1404 21.8114 37.5522 23.9517C35.9545 26.105 33.7443 27.6251 31.2133 28.3525C30.011 28.6985 28.8031 28.8525 27.5631 28.9259C26.1992 29.0066 24.8361 28.9993 23.4714 28.9993C23.462 28.9993 16.5545 29.0001 16.5545 29.0001C15.1647 28.9993 13.8016 29.0066 12.4369 28.9259C11.1976 28.8525 9.9898 28.6985 8.78745 28.3525C6.25647 27.6251 4.04627 26.105 2.44863 23.9517C0.860392 21.8114 0 19.1929 0 16.5001C0 13.809 0.860392 11.1888 2.44863 9.04851C4.04627 6.89448 6.25647 5.37512 8.78745 4.6477C9.9898 4.30174 11.1976 4.1469 12.4369 4.07432Z" fill="#34C759"/>
<g filter="url(#filter0_dd_2343_23269)">
<path fill-rule="evenodd" clip-rule="evenodd" d="M27.8431 27.3875C33.6908 27.3875 38.4314 22.5132 38.4314 16.5004C38.4314 10.4876 33.6908 5.61328 27.8431 5.61328C21.9954 5.61328 17.2549 10.4876 17.2549 16.5004C17.2549 22.5132 21.9954 27.3875 27.8431 27.3875Z" fill="white"/>
</g>
<defs>
<filter id="filter0_dd_2343_23269" x="9.25488" y="0.613281" width="37.1765" height="37.7744" filterUnits="userSpaceOnUse" color-interpolation-filters="sRGB">
<feFlood flood-opacity="0" result="BackgroundImageFix"/>
<feColorMatrix in="SourceAlpha" type="matrix" values="0 0 0 0 0 0 0 0 0 0 0 0 0 0 0 0 0 0 127 0" result="hardAlpha"/>
<feOffset dy="3"/>
<feGaussianBlur stdDeviation="0.5"/>
<feColorMatrix type="matrix" values="0 0 0 0 0 0 0 0 0 0 0 0 0 0 0 0 0 0 0.06 0"/>
<feBlend mode="normal" in2="BackgroundImageFix" result="effect1_dropShadow_2343_23269"/>
<feColorMatrix in="SourceAlpha" type="matrix" values="0 0 0 0 0 0 0 0 0 0 0 0 0 0 0 0 0 0 127 0" result="hardAlpha"/>
<feOffset dy="3"/>
<feGaussianBlur stdDeviation="4"/>
<feColorMatrix type="matrix" values="0 0 0 0 0 0 0 0 0 0 0 0 0 0 0 0 0 0 0.15 0"/>
<feBlend mode="normal" in2="effect1_dropShadow_2343_23269" result="effect2_dropShadow_2343_23269"/>
<feBlend mode="normal" in="SourceGraphic" in2="effect2_dropShadow_2343_23269" result="shape"/>
</filter>
</defs>
</svg>
