<svg width="40" height="40" viewBox="0 0 40 40" fill="none" xmlns="http://www.w3.org/2000/svg">
<path d="M28.332 33.334H6.66536V11.6673C6.66536 10.7507 5.91536 10.0007 4.9987 10.0007C4.08203 10.0007 3.33203 10.7507 3.33203 11.6673V33.334C3.33203 35.1673 4.83203 36.6673 6.66536 36.6673H28.332C29.2487 36.6673 29.9987 35.9173 29.9987 35.0007C29.9987 34.084 29.2487 33.334 28.332 33.334ZM33.332 3.33398H13.332C11.4987 3.33398 9.9987 4.83398 9.9987 6.66732V26.6673C9.9987 28.5007 11.4987 30.0007 13.332 30.0007H33.332C35.1654 30.0007 36.6654 28.5007 36.6654 26.6673V6.66732C36.6654 4.83398 35.1654 3.33398 33.332 3.33398ZM23.332 8.33398C26.0987 8.33398 28.332 10.5673 28.332 13.334C28.332 16.1007 26.0987 18.334 23.332 18.334C20.5654 18.334 18.332 16.1007 18.332 13.334C18.332 10.5673 20.5654 8.33398 23.332 8.33398ZM12.932 26.6673C15.382 23.6173 19.1154 21.6673 23.332 21.6673C27.5487 21.6673 31.282 23.6173 33.732 26.6673H12.932Z" fill="#4C5BD4"/>
</svg>
