<svg width="21" height="20" viewBox="0 0 21 20" fill="none" xmlns="http://www.w3.org/2000/svg">
<path d="M16.3338 8.08671V7.49996C16.3338 4.2783 13.7221 1.66663 10.5005 1.66663C7.2788 1.66663 4.66713 4.2783 4.66713 7.49996V8.08671C4.66713 8.79087 4.4587 9.47927 4.0681 10.0652L3.11093 11.5009C2.23665 12.8123 2.90409 14.5949 4.42468 15.0096C8.40256 16.0945 12.5984 16.0945 16.5762 15.0096C18.0968 14.5949 18.7643 12.8123 17.89 11.5009L16.9328 10.0652C16.5422 9.47927 16.3338 8.79087 16.3338 8.08671Z" stroke="#474747"/>
<path d="M6.75 15.8334C7.29586 17.2899 8.76871 18.3334 10.5 18.3334C12.2313 18.3334 13.7041 17.2899 14.25 15.8334" stroke="#474747" stroke-linecap="round"/>
</svg>
