<svg width="24" height="24" viewBox="0 0 24 24" fill="none" xmlns="http://www.w3.org/2000/svg">
<path fill-rule="evenodd" clip-rule="evenodd" d="M17.5685 0.137398C17.9528 -0.112064 18.4731 -0.0124166 18.7305 0.359968L23.8582 7.77685C24.1157 8.14924 24.0128 8.65334 23.6285 8.90281L17.5282 12.8627C17.3903 12.9522 17.228 13 17.062 13H14.6707C14.4305 13 14 13 14 13C13.841 12.8255 13.4703 12.3024 13.5 12.0714C13.5299 11.8388 13.5 11.1429 13.5 11.1429C13.5 8.85915 12.4944 7.1225 10.4852 6.21977C10.2107 6.09641 10.0261 5.83912 10.0026 5.54676C9.97897 5.2544 10.12 4.97245 10.3714 4.80924L17.5685 0.137398ZM12.4118 5.43846C14.3173 6.7633 15.1939 8.92886 15.1939 11.3768H16.8074L22.0004 8.00597L17.805 1.93762L12.4118 5.43846Z" fill="#53A4E7"/>
<path fill-rule="evenodd" clip-rule="evenodd" d="M13.5 11.5338C14 11 14 11 15 11L22.1 11.2572C22.5971 11.2572 23 11.6616 23 12.1605V22.0967C23 22.5956 22.5971 23 22.1 23H5.9C5.40294 23 5 22.5956 5 22.0967V18.2559C5 17.9766 5.12869 17.7131 5.34859 17.542C5.56849 17.3709 5.85488 17.3115 6.12433 17.3811C6.62698 17.5109 7.15477 17.5803 7.7 17.5803C11.5 16.8714 13 14.2026 13.5 11.5338ZM15 13.1351C13.5 16.6142 12 19.0916 7.7 19.472C7.39602 19.472 7.09571 19.5049 6.8 19.472V21.1934H21.2V13.0638L15 13.1351Z" fill="#53A4E7"/>
<path fill-rule="evenodd" clip-rule="evenodd" d="M11 18.3562C11.1768 19.8452 12.4478 21 13.9895 21C15.6522 21 17 19.6569 17 18C17 16.3431 15.6522 15 13.9895 15C13.966 15 13.9425 15.0003 13.9191 15.0008C13.3443 16.4152 12.3097 17.5951 11 18.3562ZM12.6993 18C12.6993 17.2899 13.2769 16.7143 13.9895 16.7143C14.7021 16.7143 15.2797 17.2899 15.2797 18C15.2797 18.7101 14.7021 19.2857 13.9895 19.2857C13.2769 19.2857 12.6993 18.7101 12.6993 18Z" fill="#53A4E7"/>
<path fill-rule="evenodd" clip-rule="evenodd" d="M7.5 5.66667C4.27834 5.66667 1.66667 8.27834 1.66667 11.5C1.66667 14.7217 4.27834 17.3333 7.5 17.3333C10.7217 17.3333 13.3333 14.7217 13.3333 11.5C13.3333 8.27834 10.7217 5.66667 7.5 5.66667ZM0 11.5C0 7.35786 3.35786 4 7.5 4C11.6421 4 15 7.35786 15 11.5C15 15.6421 11.6421 19 7.5 19C3.35786 19 0 15.6421 0 11.5Z" fill="#53A4E7"/>
<path fill-rule="evenodd" clip-rule="evenodd" d="M14.3993 12C14.4 11.9581 14.4004 11.9162 14.4004 11.8741C14.4004 11.3259 14.3354 10.7926 14.2126 10.2813C14.3701 10.2478 14.5239 10.1851 14.666 10.0914C15.2686 9.69397 15.4299 8.89086 15.0262 8.2976C14.6224 7.70434 13.8066 7.54558 13.2039 7.94301C13.1919 7.95093 13.1801 7.95901 13.1684 7.96724C12.8348 7.49046 12.4418 7.05705 12 6.67736C12.0731 6.61895 12.1495 6.56333 12.2292 6.51075C13.6354 5.58342 15.5391 5.95384 16.4811 7.33812C17.4232 8.7224 17.0469 10.5963 15.6407 11.5237C15.2543 11.7784 14.8304 11.9352 14.3993 12Z" fill="#53A4E7"/>
<path fill-rule="evenodd" clip-rule="evenodd" d="M8.19824 8C8.61246 8 8.94824 8.33579 8.94824 8.75V11.4393L10.9786 13.4697C11.2715 13.7626 11.2715 14.2374 10.9786 14.5303C10.6857 14.8232 10.2108 14.8232 9.91791 14.5303L7.66791 12.2803C7.52726 12.1397 7.44824 11.9489 7.44824 11.75V8.75C7.44824 8.33579 7.78403 8 8.19824 8Z" fill="#53A4E7"/>
</svg>
