<svg width="54" height="9" viewBox="0 0 54 9" fill="none" xmlns="http://www.w3.org/2000/svg">
<path d="M3.45215 0.890625V8H2.52441V0.890625H3.45215ZM5.7373 0.890625V1.66211H0.244141V0.890625H5.7373ZM7.83672 2.7168V8H6.92852V2.7168H7.83672ZM6.86016 1.31543C6.86016 1.16895 6.9041 1.04525 6.99199 0.944336C7.08314 0.843424 7.2166 0.792969 7.39238 0.792969C7.56491 0.792969 7.69674 0.843424 7.78789 0.944336C7.88229 1.04525 7.92949 1.16895 7.92949 1.31543C7.92949 1.4554 7.88229 1.57585 7.78789 1.67676C7.69674 1.77441 7.56491 1.82324 7.39238 1.82324C7.2166 1.82324 7.08314 1.77441 6.99199 1.67676C6.9041 1.57585 6.86016 1.4554 6.86016 1.31543ZM10.3854 3.7666V8H9.47715V2.7168H10.3365L10.3854 3.7666ZM10.1998 5.1582L9.77988 5.14355C9.78314 4.78223 9.83034 4.44857 9.92148 4.14258C10.0126 3.83333 10.1477 3.56478 10.3268 3.33691C10.5058 3.10905 10.7288 2.93327 10.9957 2.80957C11.2626 2.68262 11.5719 2.61914 11.9234 2.61914C12.1708 2.61914 12.3987 2.65495 12.607 2.72656C12.8154 2.79492 12.996 2.90397 13.149 3.05371C13.302 3.20345 13.4208 3.39551 13.5055 3.62988C13.5901 3.86426 13.6324 4.14746 13.6324 4.47949V8H12.7291V4.52344C12.7291 4.24674 12.6819 4.02539 12.5875 3.85938C12.4964 3.69336 12.3661 3.57292 12.1969 3.49805C12.0276 3.41992 11.829 3.38086 11.6012 3.38086C11.3342 3.38086 11.1113 3.42806 10.9322 3.52246C10.7532 3.61686 10.61 3.74707 10.5025 3.91309C10.3951 4.0791 10.317 4.26953 10.2682 4.48438C10.2226 4.69596 10.1998 4.92057 10.1998 5.1582ZM13.6227 4.66016L13.0172 4.8457C13.0204 4.55599 13.0676 4.27767 13.1588 4.01074C13.2532 3.74382 13.3883 3.50618 13.5641 3.29785C13.7431 3.08952 13.9628 2.92513 14.2232 2.80469C14.4837 2.68099 14.7815 2.61914 15.1168 2.61914C15.4 2.61914 15.6507 2.65658 15.8687 2.73145C16.0901 2.80632 16.2757 2.92188 16.4254 3.07812C16.5784 3.23112 16.6939 3.42806 16.7721 3.66895C16.8502 3.90983 16.8893 4.19629 16.8893 4.52832V8H15.9811V4.51855C15.9811 4.22233 15.9339 3.99284 15.8395 3.83008C15.7483 3.66406 15.6181 3.5485 15.4488 3.4834C15.2828 3.41504 15.0842 3.38086 14.8531 3.38086C14.6546 3.38086 14.4788 3.41504 14.3258 3.4834C14.1728 3.55176 14.0442 3.64616 13.94 3.7666C13.8359 3.88379 13.7561 4.01888 13.7008 4.17188C13.6487 4.32487 13.6227 4.48763 13.6227 4.66016ZM20.0629 7.18457L21.5082 2.7168H22.4311L20.5316 8H19.9262L20.0629 7.18457ZM18.8568 2.7168L20.3461 7.20898L20.4486 8H19.8432L17.9291 2.7168H18.8568ZM24.4816 2.7168V8H23.5734V2.7168H24.4816ZM23.5051 1.31543C23.5051 1.16895 23.549 1.04525 23.6369 0.944336C23.7281 0.843424 23.8615 0.792969 24.0373 0.792969C24.2098 0.792969 24.3417 0.843424 24.4328 0.944336C24.5272 1.04525 24.5744 1.16895 24.5744 1.31543C24.5744 1.4554 24.5272 1.57585 24.4328 1.67676C24.3417 1.77441 24.2098 1.82324 24.0373 1.82324C23.8615 1.82324 23.7281 1.77441 23.6369 1.67676C23.549 1.57585 23.5051 1.4554 23.5051 1.31543ZM28.3242 8.09766C27.9564 8.09766 27.6227 8.03581 27.3232 7.91211C27.027 7.78516 26.7715 7.60775 26.5566 7.37988C26.3451 7.15202 26.1823 6.88184 26.0684 6.56934C25.9544 6.25684 25.8975 5.91504 25.8975 5.54395V5.33887C25.8975 4.90918 25.9609 4.52669 26.0879 4.19141C26.2148 3.85286 26.3874 3.56641 26.6055 3.33203C26.8236 3.09766 27.071 2.92025 27.3477 2.7998C27.6243 2.67936 27.9108 2.61914 28.207 2.61914C28.5846 2.61914 28.9102 2.68424 29.1836 2.81445C29.4603 2.94466 29.6865 3.12695 29.8623 3.36133C30.0381 3.59245 30.1683 3.86589 30.2529 4.18164C30.3376 4.49414 30.3799 4.83594 30.3799 5.20703V5.6123H26.4346V4.875H29.4766V4.80664C29.4635 4.57227 29.4147 4.3444 29.3301 4.12305C29.2487 3.90169 29.1185 3.7194 28.9395 3.57617C28.7604 3.43294 28.5163 3.36133 28.207 3.36133C28.002 3.36133 27.8132 3.40527 27.6406 3.49316C27.4681 3.5778 27.32 3.70475 27.1963 3.87402C27.0726 4.04329 26.9766 4.25 26.9082 4.49414C26.8398 4.73828 26.8057 5.01986 26.8057 5.33887V5.54395C26.8057 5.7946 26.8398 6.0306 26.9082 6.25195C26.9798 6.47005 27.0824 6.66211 27.2158 6.82812C27.3525 6.99414 27.5169 7.12435 27.709 7.21875C27.9043 7.31315 28.1257 7.36035 28.373 7.36035C28.6921 7.36035 28.9622 7.29525 29.1836 7.16504C29.4049 7.03483 29.5986 6.86068 29.7646 6.64258L30.3115 7.07715C30.1976 7.24967 30.0527 7.41406 29.877 7.57031C29.7012 7.72656 29.4847 7.85352 29.2275 7.95117C28.9736 8.04883 28.6725 8.09766 28.3242 8.09766ZM33.7488 7.35547C33.9637 7.35547 34.1622 7.31152 34.3445 7.22363C34.5268 7.13574 34.6766 7.0153 34.7938 6.8623C34.9109 6.70605 34.9777 6.52865 34.9939 6.33008H35.8533C35.837 6.64258 35.7313 6.93392 35.5359 7.2041C35.3439 7.47103 35.0916 7.6875 34.7791 7.85352C34.4666 8.01628 34.1232 8.09766 33.7488 8.09766C33.3517 8.09766 33.005 8.02767 32.7088 7.8877C32.4158 7.74772 32.1717 7.55566 31.9764 7.31152C31.7843 7.06738 31.6395 6.78743 31.5418 6.47168C31.4474 6.15267 31.4002 5.81576 31.4002 5.46094V5.25586C31.4002 4.90104 31.4474 4.56576 31.5418 4.25C31.6395 3.93099 31.7843 3.64941 31.9764 3.40527C32.1717 3.16113 32.4158 2.96908 32.7088 2.8291C33.005 2.68913 33.3517 2.61914 33.7488 2.61914C34.1622 2.61914 34.5236 2.70378 34.8328 2.87305C35.1421 3.03906 35.3846 3.26693 35.5604 3.55664C35.7394 3.8431 35.837 4.16862 35.8533 4.5332H34.9939C34.9777 4.3151 34.9158 4.11816 34.8084 3.94238C34.7042 3.7666 34.561 3.62663 34.3787 3.52246C34.1997 3.41504 33.9897 3.36133 33.7488 3.36133C33.4721 3.36133 33.2394 3.41667 33.0506 3.52734C32.865 3.63477 32.7169 3.78125 32.6063 3.9668C32.4988 4.14909 32.4207 4.35254 32.3719 4.57715C32.3263 4.7985 32.3035 5.02474 32.3035 5.25586V5.46094C32.3035 5.69206 32.3263 5.91992 32.3719 6.14453C32.4174 6.36914 32.4939 6.57259 32.6014 6.75488C32.712 6.93717 32.8602 7.08366 33.0457 7.19434C33.2345 7.30176 33.4689 7.35547 33.7488 7.35547ZM38.2896 4.00098H38.9342C39.2499 4.00098 39.5104 3.94889 39.7154 3.84473C39.9238 3.7373 40.0784 3.59245 40.1793 3.41016C40.2835 3.22461 40.3355 3.01628 40.3355 2.78516C40.3355 2.51172 40.29 2.28223 40.1988 2.09668C40.1077 1.91113 39.971 1.77116 39.7887 1.67676C39.6064 1.58236 39.3753 1.53516 39.0953 1.53516C38.8414 1.53516 38.6168 1.58561 38.4215 1.68652C38.2294 1.78418 38.0781 1.92415 37.9674 2.10645C37.86 2.28874 37.8063 2.50358 37.8063 2.75098H36.9029C36.9029 2.38965 36.9941 2.06087 37.1764 1.76465C37.3587 1.46842 37.6142 1.23242 37.943 1.05664C38.275 0.880859 38.6591 0.792969 39.0953 0.792969C39.525 0.792969 39.901 0.869466 40.2232 1.02246C40.5455 1.1722 40.7962 1.39681 40.9752 1.69629C41.1542 1.99251 41.2438 2.36198 41.2438 2.80469C41.2438 2.98372 41.2014 3.17578 41.1168 3.38086C41.0354 3.58268 40.9068 3.77148 40.7311 3.94727C40.5585 4.12305 40.3339 4.2679 40.0572 4.38184C39.7805 4.49251 39.4485 4.54785 39.0611 4.54785H38.2896V4.00098ZM38.2896 4.74316V4.20117H39.0611C39.5136 4.20117 39.888 4.25488 40.1842 4.3623C40.4804 4.46973 40.7132 4.61296 40.8824 4.79199C41.0549 4.97103 41.1754 5.16797 41.2438 5.38281C41.3154 5.5944 41.3512 5.80599 41.3512 6.01758C41.3512 6.34961 41.2942 6.64421 41.1803 6.90137C41.0696 7.15853 40.9117 7.37663 40.7066 7.55566C40.5048 7.7347 40.2672 7.86979 39.9938 7.96094C39.7203 8.05208 39.4225 8.09766 39.1002 8.09766C38.791 8.09766 38.4996 8.05371 38.2262 7.96582C37.956 7.87793 37.7167 7.75098 37.5084 7.58496C37.3001 7.41569 37.1373 7.20898 37.0201 6.96484C36.9029 6.71745 36.8443 6.43587 36.8443 6.12012H37.7477C37.7477 6.36751 37.8014 6.58398 37.9088 6.76953C38.0195 6.95508 38.1757 7.09993 38.3775 7.2041C38.5826 7.30501 38.8235 7.35547 39.1002 7.35547C39.3769 7.35547 39.6145 7.30827 39.8131 7.21387C40.0149 7.11621 40.1695 6.96973 40.277 6.77441C40.3876 6.5791 40.443 6.33333 40.443 6.03711C40.443 5.74089 40.3811 5.49837 40.2574 5.30957C40.1337 5.11751 39.9579 4.97591 39.7301 4.88477C39.5055 4.79036 39.2402 4.74316 38.9342 4.74316H38.2896ZM46.2631 0.880859H46.3412V1.64746H46.2631C45.7846 1.64746 45.3842 1.72559 45.0619 1.88184C44.7396 2.03483 44.4841 2.24154 44.2953 2.50195C44.1065 2.75911 43.9698 3.04883 43.8852 3.37109C43.8038 3.69336 43.7631 4.02051 43.7631 4.35254V5.39746C43.7631 5.71322 43.8005 5.99316 43.8754 6.2373C43.9503 6.47819 44.0528 6.68164 44.183 6.84766C44.3132 7.01367 44.4597 7.139 44.6225 7.22363C44.7885 7.30827 44.961 7.35059 45.14 7.35059C45.3484 7.35059 45.5339 7.31152 45.6967 7.2334C45.8594 7.15202 45.9962 7.03971 46.1068 6.89648C46.2208 6.75 46.307 6.57747 46.3656 6.37891C46.4242 6.18034 46.4535 5.96224 46.4535 5.72461C46.4535 5.51302 46.4275 5.30957 46.3754 5.11426C46.3233 4.91569 46.2436 4.73991 46.1361 4.58691C46.0287 4.43066 45.8936 4.30859 45.7309 4.2207C45.5714 4.12956 45.3809 4.08398 45.1596 4.08398C44.9089 4.08398 44.6745 4.14583 44.4564 4.26953C44.2416 4.38997 44.0642 4.54948 43.9242 4.74805C43.7875 4.94336 43.7094 5.15658 43.6898 5.3877L43.2113 5.38281C43.2569 5.01823 43.3415 4.70736 43.4652 4.4502C43.5922 4.18978 43.7484 3.97819 43.934 3.81543C44.1228 3.64941 44.3327 3.52897 44.5639 3.4541C44.7982 3.37598 45.0456 3.33691 45.3061 3.33691C45.6609 3.33691 45.9669 3.40365 46.224 3.53711C46.4812 3.67057 46.6928 3.84961 46.8588 4.07422C47.0248 4.29557 47.1469 4.54622 47.225 4.82617C47.3064 5.10286 47.3471 5.3877 47.3471 5.68066C47.3471 6.01595 47.2999 6.33008 47.2055 6.62305C47.1111 6.91602 46.9695 7.17318 46.7807 7.39453C46.5951 7.61589 46.3656 7.78841 46.0922 7.91211C45.8187 8.03581 45.5014 8.09766 45.14 8.09766C44.7559 8.09766 44.4206 8.01953 44.1342 7.86328C43.8477 7.70378 43.6101 7.49219 43.4213 7.22852C43.2325 6.96484 43.0909 6.67188 42.9965 6.34961C42.9021 6.02734 42.8549 5.7002 42.8549 5.36816V4.94336C42.8549 4.44206 42.9053 3.95052 43.0062 3.46875C43.1072 2.98698 43.2813 2.55078 43.5287 2.16016C43.7794 1.76953 44.126 1.45866 44.5687 1.22754C45.0115 0.996419 45.5762 0.880859 46.2631 0.880859ZM49.7639 4.61621L49.0412 4.43066L49.3977 0.890625H53.0451V1.72559H50.1643L49.9494 3.65918C50.0796 3.58431 50.244 3.51432 50.4426 3.44922C50.6444 3.38411 50.8755 3.35156 51.1359 3.35156C51.4647 3.35156 51.7593 3.40853 52.0197 3.52246C52.2801 3.63314 52.5015 3.79264 52.6838 4.00098C52.8693 4.20931 53.0109 4.45996 53.1086 4.75293C53.2062 5.0459 53.2551 5.37305 53.2551 5.73438C53.2551 6.07617 53.2079 6.3903 53.1135 6.67676C53.0223 6.96322 52.884 7.21387 52.6984 7.42871C52.5129 7.6403 52.2785 7.80469 51.9953 7.92188C51.7154 8.03906 51.385 8.09766 51.0041 8.09766C50.7176 8.09766 50.4458 8.05859 50.1887 7.98047C49.9348 7.89909 49.7069 7.77702 49.5051 7.61426C49.3065 7.44824 49.1437 7.24316 49.0168 6.99902C48.8931 6.75163 48.815 6.46191 48.7824 6.12988H49.6418C49.6809 6.39681 49.759 6.62142 49.8762 6.80371C49.9934 6.986 50.1464 7.12435 50.3352 7.21875C50.5272 7.3099 50.7502 7.35547 51.0041 7.35547C51.2189 7.35547 51.4094 7.31803 51.5754 7.24316C51.7414 7.16829 51.8814 7.06087 51.9953 6.9209C52.1092 6.78092 52.1955 6.61165 52.2541 6.41309C52.3159 6.21452 52.3469 5.99154 52.3469 5.74414C52.3469 5.51953 52.3159 5.3112 52.2541 5.11914C52.1923 4.92708 52.0995 4.75944 51.9758 4.61621C51.8553 4.47298 51.7072 4.3623 51.5314 4.28418C51.3557 4.2028 51.1538 4.16211 50.926 4.16211C50.6232 4.16211 50.3937 4.2028 50.2375 4.28418C50.0845 4.36556 49.9266 4.47624 49.7639 4.61621Z" fill="#4C5BD4"/>
</svg>
