<svg width="24" height="25" viewBox="0 0 24 25" fill="none" xmlns="http://www.w3.org/2000/svg">
<g id="arrows-triangle">
<path id="Icon" d="M13 19.5005H17.2942C19.1594 19.5005 20.092 19.5005 20.6215 19.1097C21.0832 18.7689 21.3763 18.2464 21.4263 17.6748C21.4836 17.0191 20.9973 16.2234 20.0247 14.6318L19.0278 13.0005M6.13014 11.1057L3.97528 14.6318C3.00267 16.2234 2.51637 17.0191 2.57372 17.6748C2.62372 18.2464 2.91681 18.7689 3.37846 19.1097C3.90799 19.5005 4.84059 19.5005 6.70578 19.5005H8.5M16.8889 9.50048L14.7305 5.96857C13.8277 4.49128 13.3763 3.75263 12.7952 3.50082C12.2879 3.28098 11.7121 3.28098 11.2048 3.50082C10.6237 3.75263 10.1723 4.49128 9.2695 5.96857L8.24967 7.63738M18 5.50055L16.9019 9.59862L12.8038 8.50055M2 12.0986L6.09808 11.0005L7.19615 15.0986M15.5 22.5005L12.5 19.5005L15.5 16.5005" stroke="#3B86D4" stroke-width="1.5" stroke-linecap="round" stroke-linejoin="round"/>
</g>
</svg>
