<svg width="25" height="24" viewBox="0 0 25 24" fill="none" xmlns="http://www.w3.org/2000/svg">
<path d="M21.875 5.98C18.545 5.65 15.195 5.48 11.855 5.48C9.875 5.48 7.895 5.58 5.915 5.78L3.875 5.98" stroke="#FF3333" stroke-width="1.5" stroke-linecap="round" stroke-linejoin="round"/>
<path d="M9.375 4.97L9.595 3.66C9.755 2.71 9.875 2 11.565 2H14.185C15.875 2 16.005 2.75 16.155 3.67L16.375 4.97" stroke="#FF3333" stroke-width="1.5" stroke-linecap="round" stroke-linejoin="round"/>
<path d="M19.725 9.14L19.075 19.21C18.965 20.78 18.875 22 16.085 22H9.66502C6.87502 22 6.78502 20.78 6.67502 19.21L6.02502 9.14" stroke="#FF3333" stroke-width="1.5" stroke-linecap="round" stroke-linejoin="round"/>
<path d="M11.205 16.5H14.535" stroke="#FF3333" stroke-width="1.5" stroke-linecap="round" stroke-linejoin="round"/>
<path d="M10.375 12.5H15.375" stroke="#FF3333" stroke-width="1.5" stroke-linecap="round" stroke-linejoin="round"/>
</svg>
