<svg width="24" height="24" viewBox="0 0 24 24" fill="none" xmlns="http://www.w3.org/2000/svg">
<path d="M18.4721 16.7023C17.3398 18.2608 15.6831 19.3584 13.8064 19.7934C11.9297 20.2284 9.95909 19.9716 8.25656 19.0701C6.55404 18.1687 5.23397 16.6832 4.53889 14.8865C3.84381 13.0898 3.82039 11.1027 4.47295 9.2901C5.12551 7.47754 6.41021 5.96134 8.09103 5.02003C9.77184 4.07873 11.7359 3.77556 13.6223 4.16622C15.5087 4.55688 17.1908 5.61512 18.3596 7.14654C19.5283 8.67796 20.1052 10.5797 19.9842 12.5023M19.9842 12.5023L21.4842 11.0023M19.9842 12.5023L18.4842 11.0023" stroke="#FFB853" stroke-width="2" stroke-linecap="round" stroke-linejoin="round"/>
<path d="M12 8V12L15 15" stroke="#FFB853" stroke-width="2" stroke-linecap="round" stroke-linejoin="round"/>
</svg>
