<svg width="50" height="50" viewBox="0 0 50 50" fill="none" xmlns="http://www.w3.org/2000/svg">
    <defs>
        <linearGradient id="paint0_linear_2723_110310" x1="24.7283" y1="9.34668" x2="24.7283" y2="34.3123" gradientUnits="userSpaceOnUse">
            <stop stop-color="#4193DB"/>
            <stop offset="1" stop-color="#4BA6E3"/>
        </linearGradient>
        <linearGradient id="paint1_linear_2723_110310" x1="18.478" y1="30.4349" x2="31.5215" y2="30.4349" gradientUnits="userSpaceOnUse">
            <stop stop-color="#4193DB"/>
            <stop offset="1" stop-color="#4BA6E3"/>
        </linearGradient>
    </defs>
<g id="Upload_light">
<path id="Subtract" fill-rule="evenodd" clip-rule="evenodd" d="M24.7284 11.3467C29.3172 11.3467 33.2222 14.2963 34.641 18.409L34.6618 18.4692C34.7817 18.8171 34.9132 19.1987 35.0553 19.5112C35.2071 19.8451 35.4873 20.3769 36.0469 20.7758C36.5762 21.1531 37.1261 21.2585 37.5084 21.2987C37.8367 21.3333 38.2144 21.3331 38.5346 21.333L38.5963 21.3329H40.3068C43.0077 21.3329 45.1973 23.5225 45.1973 26.2234V27.4218C45.1973 30.1227 43.0077 32.3123 40.3068 32.3123H30.55L32.55 34.3123H40.3068C44.1123 34.3123 47.1973 31.2273 47.1973 27.4218V26.2234C47.1973 22.4179 44.1123 19.3329 40.3068 19.3329H38.5963C37.8443 19.3329 37.4684 19.3329 37.2078 19.1472C36.9473 18.9615 36.8088 18.5599 36.5317 17.7567C34.8432 12.8624 30.1964 9.34668 24.7284 9.34668C19.3746 9.34668 14.8081 12.7171 13.0348 17.4519L13.0348 17.4519L13.0347 17.4519C12.6369 18.5141 12.438 19.0451 12.17 19.2241C11.902 19.4032 11.2726 19.3813 10.0138 19.3375C9.92591 19.3345 9.83761 19.3329 9.74895 19.3329C5.61252 19.3329 2.25928 22.6862 2.25928 26.8226C2.25928 30.959 5.61252 34.3123 9.74895 34.3123C10.6337 34.3123 11.4826 34.1589 12.2705 33.8772C12.8132 33.6832 13.0845 33.5862 13.2601 33.587C13.4357 33.5877 13.7119 33.6892 14.2645 33.892C15.0048 34.1639 15.8048 34.3123 16.6394 34.3123H16.9068L18.9068 32.3123H16.6394C16.0434 32.3123 15.4766 32.2066 14.9538 32.0146L14.9198 32.0021C14.6732 31.9115 14.4294 31.822 14.226 31.7574C14.0461 31.7003 13.6835 31.5888 13.2687 31.587C12.8568 31.5852 12.4976 31.6914 12.3158 31.7472C12.1139 31.8092 11.8728 31.8954 11.6313 31.9818L11.5973 31.9939C11.0224 32.1994 10.401 32.3123 9.74895 32.3123C6.71709 32.3123 4.25928 29.8545 4.25928 26.8226C4.25928 23.7907 6.71709 21.3329 9.74895 21.3329C9.81444 21.3329 9.87958 21.3341 9.94435 21.3363L10.0085 21.3386C10.5825 21.3585 11.1122 21.377 11.5291 21.3633L11.5345 21.3631C11.8557 21.3526 12.6218 21.3274 13.2808 20.8873C13.9219 20.4591 14.2311 19.8074 14.3695 19.5077C14.5342 19.151 14.7059 18.6924 14.8848 18.2144L14.9077 18.1533C16.3981 14.174 20.2356 11.3467 24.7284 11.3467ZM22.5637 34.3123H22.7284V34.1475L22.5637 34.3123ZM26.7284 34.3123H26.8931L26.7284 34.1475V34.3123Z" fill="url(#paint0_linear_2723_110310)"/>
<path id="Vector 10" d="M24.9998 21.7393L24.3061 21.0189L24.9998 20.351L25.6934 21.0189L24.9998 21.7393ZM25.9998 39.1306C25.9998 39.6828 25.5521 40.1306 24.9998 40.1306C24.4475 40.1306 23.9998 39.6828 23.9998 39.1306L25.9998 39.1306ZM17.7844 27.2991L24.3061 21.0189L25.6934 22.4596L19.1717 28.7398L17.7844 27.2991ZM25.6934 21.0189L32.2151 27.2991L30.8279 28.7398L24.3061 22.4596L25.6934 21.0189ZM25.9998 21.7393L25.9998 39.1306L23.9998 39.1306L23.9998 21.7393L25.9998 21.7393Z" fill="url(#paint1_linear_2723_110310)"/>
</g>

</svg>
