<svg width="50" height="50" viewBox="0 0 50 50" fill="none" xmlns="http://www.w3.org/2000/svg">
<circle cx="25" cy="25" r="25" fill="#C4C4C4"/>
<g clip-path="url(#clip0_1223_82283)">
<path d="M37.9254 32.3858C37.9254 32.8756 37.7309 33.3453 37.3846 33.6916C37.0383 34.0379 36.5686 34.2324 36.0788 34.2324H13.9197C13.43 34.2324 12.9603 34.0379 12.614 33.6916C12.2677 33.3453 12.0732 32.8756 12.0732 32.3858V21.3063C12.0732 20.8165 12.2677 20.3469 12.614 20.0005C12.9603 19.6542 13.43 19.4597 13.9197 19.4597H16.0839C17.5524 19.4589 18.9605 18.8751 19.9987 17.8365L21.5314 16.3076C21.8767 15.9621 22.3448 15.7676 22.8332 15.7665H27.1616C27.6514 15.7666 28.121 15.9612 28.4672 16.3076L29.9962 17.8365C30.5107 18.3512 31.1216 18.7595 31.7939 19.038C32.4663 19.3165 33.1869 19.4598 33.9146 19.4597H36.0788C36.5686 19.4597 37.0383 19.6542 37.3846 20.0005C37.7309 20.3469 37.9254 20.8165 37.9254 21.3063V32.3858ZM13.9197 17.6131C12.9403 17.6131 12.0009 18.0022 11.3083 18.6948C10.6157 19.3874 10.2266 20.3268 10.2266 21.3063V32.3858C10.2266 33.3653 10.6157 34.3047 11.3083 34.9973C12.0009 35.6899 12.9403 36.079 13.9197 36.079H36.0788C37.0583 36.079 37.9977 35.6899 38.6903 34.9973C39.3829 34.3047 39.772 33.3653 39.772 32.3858V21.3063C39.772 20.3268 39.3829 19.3874 38.6903 18.6948C37.9977 18.0022 37.0583 17.6131 36.0788 17.6131H33.9146C32.9352 17.6129 31.996 17.2237 31.3036 16.531L29.7746 15.002C29.0821 14.3094 28.1429 13.9201 27.1635 13.9199H22.8351C21.8557 13.9201 20.9165 14.3094 20.224 15.002L18.695 16.531C18.0026 17.2237 17.0634 17.6129 16.0839 17.6131H13.9197Z" fill="white"/>
<path d="M24.9995 30.5385C23.7751 30.5385 22.6009 30.0522 21.7351 29.1864C20.8694 28.3206 20.383 27.1464 20.383 25.9221C20.383 24.6977 20.8694 23.5235 21.7351 22.6577C22.6009 21.792 23.7751 21.3056 24.9995 21.3056C26.2238 21.3056 27.3981 21.792 28.2638 22.6577C29.1296 23.5235 29.6159 24.6977 29.6159 25.9221C29.6159 27.1464 29.1296 28.3206 28.2638 29.1864C27.3981 30.0522 26.2238 30.5385 24.9995 30.5385ZM24.9995 32.3851C26.7136 32.3851 28.3575 31.7042 29.5695 30.4921C30.7816 29.2801 31.4625 27.6362 31.4625 25.9221C31.4625 24.2079 30.7816 22.564 29.5695 21.352C28.3575 20.1399 26.7136 19.459 24.9995 19.459C23.2854 19.459 21.6414 20.1399 20.4294 21.352C19.2173 22.564 18.5364 24.2079 18.5364 25.9221C18.5364 27.6362 19.2173 29.2801 20.4294 30.4921C21.6414 31.7042 23.2854 32.3851 24.9995 32.3851ZM15.7665 22.2289C15.7665 22.4737 15.6692 22.7086 15.4961 22.8817C15.3229 23.0549 15.0881 23.1522 14.8432 23.1522C14.5983 23.1522 14.3635 23.0549 14.1903 22.8817C14.0172 22.7086 13.9199 22.4737 13.9199 22.2289C13.9199 21.984 14.0172 21.7492 14.1903 21.576C14.3635 21.4029 14.5983 21.3056 14.8432 21.3056C15.0881 21.3056 15.3229 21.4029 15.4961 21.576C15.6692 21.7492 15.7665 21.984 15.7665 22.2289Z" fill="white"/>
</g>
<defs>
<clipPath id="clip0_1223_82283">
<rect width="29.5455" height="29.5455" fill="white" transform="translate(10.2266 10.2266)"/>
</clipPath>
</defs>
</svg>
