<svg width="22" height="22" viewBox="0 0 22 22" fill="none" xmlns="http://www.w3.org/2000/svg">
<path d="M10.505 12.5859C11.9276 12.5859 13.0809 11.4326 13.0809 10.01C13.0809 8.58744 11.9276 7.4342 10.505 7.4342C9.08244 7.4342 7.9292 8.58744 7.9292 10.01C7.9292 11.4326 9.08244 12.5859 10.505 12.5859Z" stroke="#666666" stroke-width="1.5" stroke-linecap="round" stroke-linejoin="round"/>
<path d="M15.2626 18.5167C15.2626 16.3809 13.1359 14.6392 10.5051 14.6392C7.87422 14.6392 5.74756 16.3717 5.74756 18.5167" stroke="#666666" stroke-width="1.5" stroke-linecap="round" stroke-linejoin="round"/>
<path d="M19.2502 11.4583C19.2502 16.2708 15.3543 20.1667 10.5418 20.1667C5.72933 20.1667 1.8335 16.2708 1.8335 11.4583C1.8335 6.64583 5.72933 2.75 10.5418 2.75C11.7427 2.75 12.8885 2.98832 13.9335 3.42832C13.8143 3.79499 13.7502 4.18 13.7502 4.58333C13.7502 5.27083 13.9427 5.92166 14.2818 6.47166C14.4652 6.78333 14.7035 7.06747 14.9785 7.30581C15.6202 7.89247 16.4727 8.25 17.4168 8.25C17.8202 8.25 18.2052 8.18581 18.5627 8.05748C19.0027 9.10248 19.2502 10.2575 19.2502 11.4583Z" stroke="#666666" stroke-width="1.5" stroke-linecap="round" stroke-linejoin="round"/>
<path d="M21.0833 4.58329C21.0833 4.87663 21.0467 5.16079 20.9733 5.43579C20.8908 5.80245 20.7442 6.15996 20.5517 6.47162C20.1117 7.21412 19.4058 7.79161 18.5625 8.05744C18.205 8.18577 17.82 8.24996 17.4167 8.24996C16.4725 8.24996 15.62 7.89243 14.9783 7.30577C14.7033 7.06743 14.465 6.78329 14.2817 6.47162C13.9425 5.92162 13.75 5.27079 13.75 4.58329C13.75 4.17996 13.8142 3.79495 13.9333 3.42828C14.1075 2.89662 14.4008 2.41998 14.7858 2.02581C15.455 1.33831 16.39 0.916626 17.4167 0.916626C18.4983 0.916626 19.4792 1.38414 20.1392 2.13581C20.7258 2.78664 21.0833 3.64829 21.0833 4.58329Z" stroke="#666666" stroke-width="1.5" stroke-miterlimit="10" stroke-linecap="round" stroke-linejoin="round"/>
<path d="M18.7824 4.56494H16.0508" stroke="#666666" stroke-width="1.5" stroke-miterlimit="10" stroke-linecap="round" stroke-linejoin="round"/>
<path d="M17.4165 3.22668V5.96751" stroke="#666666" stroke-width="1.5" stroke-miterlimit="10" stroke-linecap="round" stroke-linejoin="round"/>
</svg>
