<svg width="20" height="21" viewBox="0 0 20 21" fill="none" xmlns="http://www.w3.org/2000/svg">
<g id="outline / users-more">
<path id="shape" d="M2.50065 16.3332H0.833984V15.4998C0.833984 13.9466 1.8963 12.6415 3.33398 12.2715M5.00065 9.52426C4.02966 9.18106 3.33398 8.25503 3.33398 7.16651C3.33398 6.078 4.02966 5.15196 5.00065 4.80877M17.5006 16.3332H19.1673V15.4998C19.1673 13.9466 18.105 12.6415 16.6673 12.2715M15.0006 4.80877C15.9716 5.15196 16.6673 6.078 16.6673 7.16651C16.6673 8.25503 15.9716 9.18106 15.0006 9.52426M8.33398 12.1665H11.6673C13.5083 12.1665 15.0006 13.6589 15.0006 15.4998V16.3332H5.00065V15.4998C5.00065 13.6589 6.49303 12.1665 8.33398 12.1665ZM12.5006 7.1665C12.5006 8.54722 11.3814 9.6665 10.0007 9.6665C8.61994 9.6665 7.50065 8.54722 7.50065 7.1665C7.50065 5.78579 8.61994 4.6665 10.0007 4.6665C11.3814 4.6665 12.5006 5.78579 12.5006 7.1665Z" stroke="#3B86D4" stroke-width="1.5" stroke-linecap="round" stroke-linejoin="round"/>
</g>
</svg>
