<svg width="24" height="25" viewBox="0 0 24 25" fill="none" xmlns="http://www.w3.org/2000/svg">
<g id="User Scanning">
<path id="Subtract" fill-rule="evenodd" clip-rule="evenodd" d="M2.00129 15.5114C1.96476 14.9752 1.52548 14.5504 0.988034 14.5504C0.420441 14.5504 -0.0354561 15.0258 0.0021736 15.5921C0.427057 21.9868 2.51371 24.0735 8.90838 24.4984C9.47472 24.536 9.9501 24.0801 9.9501 23.5125C9.9501 22.975 9.52533 22.5358 8.98913 22.4992C7.95281 22.4286 7.07422 22.3134 6.32548 22.147C4.96932 21.8456 4.16478 21.4037 3.63082 20.8697C3.09686 20.3357 2.65495 19.5312 2.35355 18.1751C2.18715 17.4263 2.07189 16.5477 2.00129 15.5114ZM21.9133 15.5114C21.9499 14.9752 22.3891 14.5504 22.9266 14.5504C23.4942 14.5504 23.9501 15.0258 23.9125 15.5921C23.4876 21.9868 21.4009 24.0735 15.0062 24.4984C14.4399 24.536 13.9645 24.0801 13.9645 23.5125C13.9645 22.975 14.3893 22.5358 14.9255 22.4992C15.9618 22.4286 16.8404 22.3134 17.5892 22.147C18.9453 21.8456 19.7498 21.4037 20.2838 20.8697C20.8178 20.3357 21.2597 19.5312 21.5611 18.1751C21.7275 17.4263 21.8427 16.5477 21.9133 15.5114ZM24.0005 12.5892C24.0005 12.5739 24.0005 12.5585 24.0005 12.5432C24.0005 12.5279 24.0005 12.5126 24.0005 12.4973V12.5892ZM23.9125 9.4943C23.9501 10.0606 23.4942 10.536 22.9266 10.536C22.3891 10.536 21.9499 10.1113 21.9133 9.57505C21.8427 8.53872 21.7275 7.66013 21.5611 6.91138C21.2597 5.55522 20.8178 4.75068 20.2838 4.21672C19.7498 3.68277 18.9453 3.24085 17.5892 2.93946C16.8404 2.77305 15.9618 2.65779 14.9255 2.58719C14.3893 2.55066 13.9645 2.11138 13.9645 1.57394C13.9645 1.00634 14.4399 0.550446 15.0062 0.588076C21.4009 1.01296 23.4876 3.09961 23.9125 9.4943ZM2.00129 9.57505C1.96476 10.1113 1.52548 10.536 0.988034 10.536C0.420441 10.536 -0.0354562 10.0606 0.00217349 9.4943C0.427057 3.09962 2.51371 1.01296 8.90838 0.588078C9.47472 0.550448 9.9501 1.00635 9.9501 1.57394C9.9501 2.11138 9.52533 2.55066 8.98913 2.58719C7.95281 2.65779 7.07422 2.77305 6.32548 2.93946C4.96932 3.24085 4.16478 3.68277 3.63082 4.21672C3.09686 4.75068 2.65495 5.55522 2.35355 6.91138C2.18715 7.66013 2.07189 8.53872 2.00129 9.57505ZM11.9573 0.5L11.9762 0.500003H11.9384L11.9573 0.5Z" fill="white"/>
<path id="Squircle" d="M7 15.5859C7 16.1508 7.0639 16.4825 7.15647 16.6908C7.23111 16.8587 7.34311 16.9923 7.59434 17.1179C7.88109 17.2613 8.34095 17.3877 9.08846 17.4707C9.8269 17.5528 10.7757 17.5859 12 17.5859C13.2243 17.5859 14.1731 17.5528 14.9115 17.4707C15.6591 17.3877 16.1189 17.2613 16.4057 17.1179C16.6569 16.9923 16.7689 16.8587 16.8435 16.6908C16.9361 16.4825 17 16.1508 17 15.5859C17 15.0211 16.9361 14.6894 16.8435 14.4811C16.7689 14.3132 16.6569 14.1795 16.4057 14.0539C16.1189 13.9106 15.6591 13.7842 14.9115 13.7012C14.1731 13.6191 13.2243 13.5859 12 13.5859C10.7757 13.5859 9.8269 13.6191 9.08846 13.7012C8.34095 13.7842 7.88109 13.9106 7.59434 14.0539C7.34311 14.1795 7.23111 14.3132 7.15647 14.4811C7.0639 14.6894 7 15.0211 7 15.5859Z" stroke="white" stroke-width="2" stroke-linecap="round" stroke-linejoin="round"/>
<circle id="Ellipse 97" cx="3" cy="3" r="2" transform="matrix(-1 0 0 1 15 5.58594)" stroke="white" stroke-width="2"/>
</g>
</svg>
