<svg width="24" height="24" viewBox="0 0 24 24" fill="none" xmlns="http://www.w3.org/2000/svg">
    <defs>
        <linearGradient id="paint0_linear_2723_135312" x1="2.47297" y1="15.3333" x2="21.6273" y2="15.1522" gradientUnits="userSpaceOnUse">
            <stop stop-color="#42D677"/>
            <stop offset="1" stop-color="#31CB53"/>
        </linearGradient>
        <linearGradient id="paint1_linear_2723_135312" x1="8.18919" y1="10.6667" x2="15.8509" y2="10.7391" gradientUnits="userSpaceOnUse">
            <stop stop-color="#42D677"/>
            <stop offset="1" stop-color="#31CB53"/>
        </linearGradient>
    </defs>
<g id="click v&#195;&#160;o 3 ch&#225;&#186;&#165;m c&#225;&#187;&#167;a nh&#195;&#179;m/Variant3">
<path id="Squircle" d="M2.75 12C2.75 14.0416 2.86037 15.6311 3.13659 16.8739C3.41091 18.1083 3.83874 18.9543 4.44221 19.5578C5.04567 20.1613 5.89172 20.5891 7.12607 20.8634C8.36893 21.1396 9.95837 21.25 12 21.25C14.0416 21.25 15.6311 21.1396 16.8739 20.8634C18.1083 20.5891 18.9543 20.1613 19.5578 19.5578C20.1613 18.9543 20.5891 18.1083 20.8634 16.8739C21.1396 15.6311 21.25 14.0416 21.25 12C21.25 9.95837 21.1396 8.36893 20.8634 7.12607C20.5891 5.89173 20.1613 5.04567 19.5578 4.44221C18.9543 3.83874 18.1083 3.41091 16.8739 3.13659C15.6311 2.86037 14.0416 2.75 12 2.75C9.95837 2.75 8.36893 2.86037 7.12607 3.13659C5.89172 3.41091 5.04567 3.83874 4.44221 4.44221C3.83874 5.04567 3.41091 5.89173 3.13659 7.12607C2.86037 8.36893 2.75 9.95837 2.75 12Z" stroke="url(#paint0_linear_2723_135312)" stroke-width="1.5" stroke-linecap="round" stroke-linejoin="round"/>
<path id="Vector 193" d="M12 8V12M12 16V12M12 12H16H8" stroke="url(#paint1_linear_2723_135312)" stroke-width="1.5" stroke-linecap="round" stroke-linejoin="round"/>
</g>

</svg>
