<svg width="40" height="40" viewBox="0 0 40 40" fill="none" xmlns="http://www.w3.org/2000/svg">
<circle cx="20" cy="20" r="20" fill="url(#paint0_linear_2208_82965)"/>
<path d="M25.6873 31.1025C25.4731 31.1019 25.2597 31.0779 25.0505 31.0309C21.0689 30.1886 17.4007 28.2136 14.4682 25.3334C11.5983 22.4468 9.60786 18.7716 8.73772 14.7524C8.63512 14.2515 8.66031 13.732 8.81085 13.2439C8.96139 12.7558 9.23223 12.3156 9.5973 11.9655L12.1442 9.45864C12.2743 9.33283 12.4288 9.23649 12.5978 9.1759C12.7668 9.11531 12.9463 9.09184 13.1247 9.10702C13.3097 9.12676 13.4883 9.18771 13.6478 9.28558C13.8073 9.38345 13.9439 9.51586 14.048 9.67351L17.2316 14.4854C17.351 14.6721 17.4086 14.8931 17.396 15.1158C17.3834 15.3385 17.3012 15.5512 17.1616 15.7226L15.5634 17.676C16.1999 19.1166 17.1013 20.4187 18.2185 21.5112C19.3285 22.6434 20.6405 23.5475 22.0834 24.1744L24.0636 22.5661C24.2299 22.4316 24.4323 22.3522 24.6439 22.3382C24.8554 22.3243 25.0661 22.3765 25.2479 22.4879L30.0552 25.6655C30.2201 25.7662 30.3607 25.9038 30.4663 26.068C30.5719 26.2321 30.6397 26.4186 30.6649 26.6134C30.69 26.8082 30.6717 27.0063 30.6113 27.1928C30.5509 27.3794 30.45 27.5495 30.3162 27.6905L27.833 30.2039C27.5509 30.491 27.2161 30.7181 26.8479 30.8723C26.4796 31.0266 26.0852 31.1048 25.6873 31.1025ZM13.0229 10.3963L10.476 12.9032C10.2706 13.0989 10.1186 13.3459 10.0348 13.6199C9.95112 13.8939 9.93857 14.1854 9.99843 14.4659C10.8075 18.2374 12.6674 21.6885 15.3533 24.4023C18.1129 27.112 21.5649 28.9696 25.3116 29.7611C25.5952 29.8218 25.8891 29.8095 26.1669 29.7254C26.4447 29.6413 26.6978 29.488 26.9034 29.2793L29.3866 26.7659L24.7449 23.699L22.6183 25.4311C22.5368 25.497 22.4409 25.5415 22.3388 25.5608C22.2367 25.5801 22.1315 25.5736 22.0325 25.5418C20.2667 24.8764 18.6664 23.8203 17.3462 22.4489C15.9807 21.1448 14.9207 19.5422 14.2454 17.7607C14.2168 17.6528 14.2158 17.5392 14.2426 17.4309C14.2694 17.3226 14.3229 17.2231 14.3982 17.1421L16.1173 15.0389L13.0229 10.3963Z" fill="white"/>
<defs>
<linearGradient id="paint0_linear_2208_82965" x1="-3.00031e-07" y1="22.5271" x2="40.0002" y2="22.4964" gradientUnits="userSpaceOnUse">
<stop stop-color="#0086DA"/>
<stop offset="1" stop-color="#00A9E9"/>
<stop offset="1" stop-color="#00A9E9"/>
</linearGradient>
</defs>
</svg>
