<svg width="24" height="25" viewBox="0 0 24 25" fill="none" xmlns="http://www.w3.org/2000/svg">
<g id="grid-02">
<path id="Icon" d="M8 3.5H6.2C5.0799 3.5 4.51984 3.5 4.09202 3.71799C3.71569 3.90973 3.40973 4.21569 3.21799 4.59202C3 5.01984 3 5.5799 3 6.7V8.5M8 21.5H6.2C5.0799 21.5 4.51984 21.5 4.09202 21.282C3.71569 21.0903 3.40973 20.7843 3.21799 20.408C3 19.9802 3 19.4201 3 18.3V16.5M21 8.5V6.7C21 5.5799 21 5.01984 20.782 4.59202C20.5903 4.21569 20.2843 3.90973 19.908 3.71799C19.4802 3.5 18.9201 3.5 17.8 3.5H16M21 16.5V18.3C21 19.4201 21 19.9802 20.782 20.408C20.5903 20.7843 20.2843 21.0903 19.908 21.282C19.4802 21.5 18.9201 21.5 17.8 21.5H16M12 17.5L12 7.5M7 12.5H17" stroke="#3B86D4" stroke-width="1.5" stroke-linecap="round" stroke-linejoin="round"/>
</g>
</svg>
