<svg width="25" height="25" viewBox="0 0 25 25" fill="none" xmlns="http://www.w3.org/2000/svg">
<path d="M10.5804 1.45996C9.79053 1.45996 9.14035 2.11014 9.14035 2.89996V3.85996H5.38098C5.32914 3.85139 5.27625 3.85139 5.22441 3.85996H4.34035C4.27675 3.85906 4.2136 3.87081 4.15457 3.89453C4.09555 3.91825 4.04182 3.95346 3.99653 3.99812C3.95123 4.04279 3.91526 4.096 3.89071 4.15469C3.86616 4.21337 3.85352 4.27635 3.85352 4.33996C3.85352 4.40357 3.86616 4.46655 3.89071 4.52523C3.91526 4.58392 3.95123 4.63714 3.99653 4.6818C4.04182 4.72646 4.09555 4.76167 4.15457 4.78539C4.2136 4.80911 4.27675 4.82086 4.34035 4.81996H4.82035V22.1C4.82035 22.8898 5.47053 23.54 6.26035 23.54H18.7404C19.5302 23.54 20.1804 22.8898 20.1804 22.1V4.81996H20.6604C20.724 4.82086 20.7871 4.80911 20.8461 4.78539C20.9052 4.76167 20.9589 4.72646 21.0042 4.6818C21.0495 4.63714 21.0854 4.58392 21.11 4.52523C21.1345 4.46655 21.1472 4.40357 21.1472 4.33996C21.1472 4.27635 21.1345 4.21337 21.11 4.15469C21.0854 4.096 21.0495 4.04279 21.0042 3.99812C20.9589 3.95346 20.9052 3.91825 20.8461 3.89453C20.7871 3.87081 20.724 3.85906 20.6604 3.85996H19.781C19.7291 3.85139 19.6763 3.85139 19.6244 3.85996H15.8604V2.89996C15.8604 2.11014 15.2102 1.45996 14.4204 1.45996H10.5804ZM10.5804 2.41996H14.4204C14.6865 2.41996 14.9004 2.63378 14.9004 2.89996V3.85996H10.1004V2.89996C10.1004 2.63378 10.3142 2.41996 10.5804 2.41996ZM5.78035 4.81996H9.53973C9.59156 4.82853 9.64445 4.82853 9.69629 4.81996H15.2997C15.3516 4.82853 15.4045 4.82853 15.4563 4.81996H19.2204V22.1C19.2204 22.3661 19.0065 22.58 18.7404 22.58H6.26035C5.99417 22.58 5.78035 22.3661 5.78035 22.1V4.81996ZM12.5004 9.13809C11.9938 9.13809 11.5431 9.46834 11.2563 9.95371L10.3591 11.4734C10.2943 11.583 10.2758 11.7139 10.3075 11.8373C10.3392 11.9606 10.4187 12.0663 10.5283 12.1311C10.638 12.1958 10.7689 12.2144 10.8922 12.1826C11.0155 12.1509 11.1212 12.0715 11.186 11.9618L12.0832 10.4421C12.2533 10.1542 12.4045 10.0981 12.5004 10.0981C12.5962 10.0981 12.7474 10.1542 12.9175 10.4421L13.8972 12.0987C13.8197 12.1373 13.754 12.1963 13.7072 12.2692C13.6605 12.3421 13.6343 12.4263 13.6315 12.5129C13.6287 12.5995 13.6494 12.6853 13.6914 12.7611C13.7334 12.8368 13.7951 12.8999 13.87 12.9434L14.7222 13.4553C14.7951 13.4991 14.8783 13.5228 14.9633 13.5239C15.0483 13.5251 15.1321 13.5036 15.206 13.4617C15.28 13.4199 15.3416 13.3591 15.3844 13.2857C15.4272 13.2122 15.4498 13.1287 15.4497 13.0437V12.02C15.4509 11.9341 15.4291 11.8495 15.3864 11.775C15.3438 11.7005 15.282 11.6388 15.2074 11.5963C15.1329 11.5538 15.0482 11.532 14.9624 11.5333C14.8766 11.5346 14.7927 11.559 14.7194 11.6037L13.7444 9.95371C13.4576 9.46834 13.0069 9.13809 12.5004 9.13809ZM9.90254 12.6509C9.82039 12.6524 9.74002 12.675 9.6691 12.7165L8.78598 13.2331C8.70976 13.2764 8.64686 13.3398 8.60411 13.4164C8.56137 13.4929 8.5404 13.5797 8.54349 13.6673C8.54658 13.755 8.57361 13.8401 8.62165 13.9134C8.66969 13.9868 8.73689 14.0455 8.81598 14.0834L7.96285 15.529C7.67616 16.0142 7.60479 16.5711 7.86254 17.0093C8.12029 17.4476 8.63591 17.659 9.20316 17.659H11.2404C11.304 17.6599 11.3671 17.6482 11.4261 17.6245C11.4852 17.6007 11.5389 17.5655 11.5842 17.5209C11.6295 17.4762 11.6654 17.423 11.69 17.3643C11.7145 17.3056 11.7272 17.2426 11.7272 17.179C11.7272 17.1154 11.7145 17.0524 11.69 16.9937C11.6654 16.9351 11.6295 16.8818 11.5842 16.8372C11.5389 16.7925 11.4852 16.7573 11.4261 16.7336C11.3671 16.7099 11.304 16.6981 11.2404 16.699H9.20316C8.85794 16.699 8.73154 16.5944 8.68941 16.5228C8.64728 16.4511 8.61852 16.3056 8.78879 16.0175L9.65879 14.5456C9.73178 14.5882 9.81471 14.6107 9.89921 14.6109C9.98371 14.6112 10.0668 14.5891 10.14 14.547C10.2132 14.5049 10.2741 14.4441 10.3163 14.371C10.3586 14.2978 10.3808 14.2148 10.3807 14.1303L10.391 13.1356C10.3916 13.0714 10.3794 13.0078 10.355 12.9485C10.3306 12.8892 10.2946 12.8353 10.2491 12.7901C10.2036 12.7449 10.1494 12.7093 10.0899 12.6854C10.0304 12.6615 9.96668 12.6498 9.90254 12.6509ZM15.8125 13.9906C15.7294 13.9954 15.6489 14.0218 15.5791 14.0671C15.5092 14.1124 15.4523 14.1751 15.414 14.2491C15.3757 14.323 15.3573 14.4057 15.3606 14.4889C15.3639 14.5721 15.3888 14.653 15.4329 14.7237L16.2119 16.0184C16.3812 16.3058 16.3534 16.4522 16.3113 16.5237C16.2691 16.5954 16.1428 16.7 15.7975 16.7H14.291C14.2946 16.6154 14.2758 16.5315 14.2365 16.4566C14.1973 16.3816 14.1389 16.3184 14.0673 16.2733C13.9958 16.2282 13.9136 16.2028 13.829 16.1997C13.7445 16.1966 13.6607 16.2159 13.586 16.2556L12.7019 16.7103C12.6262 16.7491 12.5622 16.8073 12.5164 16.8789C12.4706 16.9506 12.4447 17.0331 12.4413 17.1181C12.4378 17.2031 12.457 17.2874 12.4969 17.3625C12.5368 17.4376 12.5959 17.5008 12.6682 17.5456L13.5372 18.0846C13.6112 18.1321 13.6968 18.1583 13.7847 18.1605C13.8726 18.1626 13.9594 18.1406 14.0356 18.0967C14.1118 18.0529 14.1746 17.989 14.2169 17.912C14.2593 17.835 14.2797 17.7478 14.276 17.66H15.7975C16.3648 17.66 16.8804 17.4486 17.1382 17.0103C17.3959 16.572 17.3245 16.0144 17.0379 15.529C17.0372 15.5278 17.0366 15.5265 17.036 15.5253L16.255 14.2287C16.2105 14.152 16.1455 14.0892 16.0674 14.0471C15.9893 14.0051 15.9011 13.9855 15.8125 13.9906Z" fill="#E65A67"/>
</svg>
