<svg width="24" height="25" viewBox="0 0 24 25" fill="none" xmlns="http://www.w3.org/2000/svg">
<path d="M12.1596 11.37C12.0596 11.36 11.9396 11.36 11.8296 11.37C9.44961 11.29 7.55961 9.34 7.55961 6.94C7.54961 4.49 9.53961 2.5 11.9896 2.5C14.4396 2.5 16.4296 4.49 16.4296 6.94C16.4296 9.34 14.5296 11.29 12.1596 11.37Z" stroke="#474747" stroke-linecap="round" stroke-linejoin="round"/>
<path d="M11.99 22.3099C10.17 22.3099 8.36004 21.8499 6.98004 20.9299C4.56004 19.3099 4.56004 16.6699 6.98004 15.0599C9.73004 13.2199 14.24 13.2199 16.99 15.0599" stroke="#474747" stroke-linecap="round" stroke-linejoin="round"/>
<path d="M14 18L18 22.5M18 18L14 22.5" stroke="#474747" stroke-linecap="round" stroke-linejoin="round"/>
</svg>
